<svg xmlns="http://www.w3.org/2000/svg" width="450" height="300"><text x="15" y="130" fill="#000" dy=".76em" font-family="sans-serif" font-size="9.677" opacity="1" text-anchor="middle" transform="rotate(270, 15, 130)">Total sample time (ms)</text><text x="255" y="285" fill="#000" dy="-.5ex" font-family="sans-serif" font-size="9.677" opacity="1" text-anchor="middle">Iterations (x 10^3)</text><line x1="123" x2="123" y1="244" y2="14" stroke="#000" stroke-width="1" opacity=".2"/><line x1="175" x2="175" y1="244" y2="14" stroke="#000" stroke-width="1" opacity=".2"/><line x1="227" x2="227" y1="244" y2="14" stroke="#000" stroke-width="1" opacity=".2"/><line x1="279" x2="279" y1="244" y2="14" stroke="#000" stroke-width="1" opacity=".2"/><line x1="331" x2="331" y1="244" y2="14" stroke="#000" stroke-width="1" opacity=".2"/><line x1="383" x2="383" y1="244" y2="14" stroke="#000" stroke-width="1" opacity=".2"/><line x1="435" x2="435" y1="244" y2="14" stroke="#000" stroke-width="1" opacity=".2"/><line x1="75" x2="435" y1="223" y2="223" stroke="#000" stroke-width="1" opacity=".2"/><line x1="75" x2="435" y1="199" y2="199" stroke="#000" stroke-width="1" opacity=".2"/><line x1="75" x2="435" y1="176" y2="176" stroke="#000" stroke-width="1" opacity=".2"/><line x1="75" x2="435" y1="152" y2="152" stroke="#000" stroke-width="1" opacity=".2"/><line x1="75" x2="435" y1="128" y2="128" stroke="#000" stroke-width="1" opacity=".2"/><line x1="75" x2="435" y1="105" y2="105" stroke="#000" stroke-width="1" opacity=".2"/><line x1="75" x2="435" y1="81" y2="81" stroke="#000" stroke-width="1" opacity=".2"/><line x1="75" x2="435" y1="58" y2="58" stroke="#000" stroke-width="1" opacity=".2"/><line x1="75" x2="435" y1="34" y2="34" stroke="#000" stroke-width="1" opacity=".2"/><polyline fill="none" stroke="#000" stroke-width="1" points="74 15 74 245" opacity="1"/><text x="65" y="223" fill="#000" dy=".5ex" font-family="sans-serif" font-size="9.677" opacity="1" text-anchor="end">10.0</text><polyline fill="none" stroke="#000" stroke-width="1" points="69 223 74 223" opacity="1"/><text x="65" y="199" fill="#000" dy=".5ex" font-family="sans-serif" font-size="9.677" opacity="1" text-anchor="end">20.0</text><polyline fill="none" stroke="#000" stroke-width="1" points="69 199 74 199" opacity="1"/><text x="65" y="176" fill="#000" dy=".5ex" font-family="sans-serif" font-size="9.677" opacity="1" text-anchor="end">30.0</text><polyline fill="none" stroke="#000" stroke-width="1" points="69 176 74 176" opacity="1"/><text x="65" y="152" fill="#000" dy=".5ex" font-family="sans-serif" font-size="9.677" opacity="1" text-anchor="end">40.0</text><polyline fill="none" stroke="#000" stroke-width="1" points="69 152 74 152" opacity="1"/><text x="65" y="128" fill="#000" dy=".5ex" font-family="sans-serif" font-size="9.677" opacity="1" text-anchor="end">50.0</text><polyline fill="none" stroke="#000" stroke-width="1" points="69 128 74 128" opacity="1"/><text x="65" y="105" fill="#000" dy=".5ex" font-family="sans-serif" font-size="9.677" opacity="1" text-anchor="end">60.0</text><polyline fill="none" stroke="#000" stroke-width="1" points="69 105 74 105" opacity="1"/><text x="65" y="81" fill="#000" dy=".5ex" font-family="sans-serif" font-size="9.677" opacity="1" text-anchor="end">70.0</text><polyline fill="none" stroke="#000" stroke-width="1" points="69 81 74 81" opacity="1"/><text x="65" y="58" fill="#000" dy=".5ex" font-family="sans-serif" font-size="9.677" opacity="1" text-anchor="end">80.0</text><polyline fill="none" stroke="#000" stroke-width="1" points="69 58 74 58" opacity="1"/><text x="65" y="34" fill="#000" dy=".5ex" font-family="sans-serif" font-size="9.677" opacity="1" text-anchor="end">90.0</text><polyline fill="none" stroke="#000" stroke-width="1" points="69 34 74 34" opacity="1"/><polyline fill="none" stroke="#000" stroke-width="1" points="75 245 435 245" opacity="1"/><text x="123" y="255" fill="#000" dy=".76em" font-family="sans-serif" font-size="9.677" opacity="1" text-anchor="middle">0.2</text><polyline fill="none" stroke="#000" stroke-width="1" points="123 245 123 250" opacity="1"/><text x="175" y="255" fill="#000" dy=".76em" font-family="sans-serif" font-size="9.677" opacity="1" text-anchor="middle">0.4</text><polyline fill="none" stroke="#000" stroke-width="1" points="175 245 175 250" opacity="1"/><text x="227" y="255" fill="#000" dy=".76em" font-family="sans-serif" font-size="9.677" opacity="1" text-anchor="middle">0.6</text><polyline fill="none" stroke="#000" stroke-width="1" points="227 245 227 250" opacity="1"/><text x="279" y="255" fill="#000" dy=".76em" font-family="sans-serif" font-size="9.677" opacity="1" text-anchor="middle">0.8</text><polyline fill="none" stroke="#000" stroke-width="1" points="279 245 279 250" opacity="1"/><text x="331" y="255" fill="#000" dy=".76em" font-family="sans-serif" font-size="9.677" opacity="1" text-anchor="middle">1</text><polyline fill="none" stroke="#000" stroke-width="1" points="331 245 331 250" opacity="1"/><text x="383" y="255" fill="#000" dy=".76em" font-family="sans-serif" font-size="9.677" opacity="1" text-anchor="middle">1.2</text><polyline fill="none" stroke="#000" stroke-width="1" points="383 245 383 250" opacity="1"/><text x="435" y="255" fill="#000" dy=".76em" font-family="sans-serif" font-size="9.677" opacity="1" text-anchor="middle">1.4</text><polyline fill="none" stroke="#000" stroke-width="1" points="435 245 435 250" opacity="1"/><circle cx="75" cy="244" r="3" fill="#1F78B4" stroke="none" opacity="1"/><circle cx="78" cy="241" r="3" fill="#1F78B4" stroke="none" opacity="1"/><circle cx="82" cy="239" r="3" fill="#1F78B4" stroke="none" opacity="1"/><circle cx="85" cy="237" r="3" fill="#1F78B4" stroke="none" opacity="1"/><circle cx="89" cy="234" r="3" fill="#1F78B4" stroke="none" opacity="1"/><circle cx="93" cy="232" r="3" fill="#1F78B4" stroke="none" opacity="1"/><circle cx="96" cy="229" r="3" fill="#1F78B4" stroke="none" opacity="1"/><circle cx="100" cy="227" r="3" fill="#1F78B4" stroke="none" opacity="1"/><circle cx="104" cy="225" r="3" fill="#1F78B4" stroke="none" opacity="1"/><circle cx="107" cy="222" r="3" fill="#1F78B4" stroke="none" opacity="1"/><circle cx="111" cy="220" r="3" fill="#1F78B4" stroke="none" opacity="1"/><circle cx="115" cy="218" r="3" fill="#1F78B4" stroke="none" opacity="1"/><circle cx="118" cy="216" r="3" fill="#1F78B4" stroke="none" opacity="1"/><circle cx="122" cy="213" r="3" fill="#1F78B4" stroke="none" opacity="1"/><circle cx="125" cy="211" r="3" fill="#1F78B4" stroke="none" opacity="1"/><circle cx="129" cy="208" r="3" fill="#1F78B4" stroke="none" opacity="1"/><circle cx="133" cy="206" r="3" fill="#1F78B4" stroke="none" opacity="1"/><circle cx="136" cy="204" r="3" fill="#1F78B4" stroke="none" opacity="1"/><circle cx="140" cy="202" r="3" fill="#1F78B4" stroke="none" opacity="1"/><circle cx="144" cy="199" r="3" fill="#1F78B4" stroke="none" opacity="1"/><circle cx="147" cy="197" r="3" fill="#1F78B4" stroke="none" opacity="1"/><circle cx="151" cy="195" r="3" fill="#1F78B4" stroke="none" opacity="1"/><circle cx="155" cy="192" r="3" fill="#1F78B4" stroke="none" opacity="1"/><circle cx="158" cy="190" r="3" fill="#1F78B4" stroke="none" opacity="1"/><circle cx="162" cy="188" r="3" fill="#1F78B4" stroke="none" opacity="1"/><circle cx="165" cy="185" r="3" fill="#1F78B4" stroke="none" opacity="1"/><circle cx="169" cy="183" r="3" fill="#1F78B4" stroke="none" opacity="1"/><circle cx="173" cy="180" r="3" fill="#1F78B4" stroke="none" opacity="1"/><circle cx="176" cy="178" r="3" fill="#1F78B4" stroke="none" opacity="1"/><circle cx="180" cy="176" r="3" fill="#1F78B4" stroke="none" opacity="1"/><circle cx="184" cy="174" r="3" fill="#1F78B4" stroke="none" opacity="1"/><circle cx="187" cy="172" r="3" fill="#1F78B4" stroke="none" opacity="1"/><circle cx="191" cy="169" r="3" fill="#1F78B4" stroke="none" opacity="1"/><circle cx="195" cy="166" r="3" fill="#1F78B4" stroke="none" opacity="1"/><circle cx="198" cy="164" r="3" fill="#1F78B4" stroke="none" opacity="1"/><circle cx="202" cy="162" r="3" fill="#1F78B4" stroke="none" opacity="1"/><circle cx="205" cy="160" r="3" fill="#1F78B4" stroke="none" opacity="1"/><circle cx="209" cy="157" r="3" fill="#1F78B4" stroke="none" opacity="1"/><circle cx="213" cy="155" r="3" fill="#1F78B4" stroke="none" opacity="1"/><circle cx="216" cy="153" r="3" fill="#1F78B4" stroke="none" opacity="1"/><circle cx="220" cy="150" r="3" fill="#1F78B4" stroke="none" opacity="1"/><circle cx="224" cy="148" r="3" fill="#1F78B4" stroke="none" opacity="1"/><circle cx="227" cy="146" r="3" fill="#1F78B4" stroke="none" opacity="1"/><circle cx="231" cy="144" r="3" fill="#1F78B4" stroke="none" opacity="1"/><circle cx="235" cy="141" r="3" fill="#1F78B4" stroke="none" opacity="1"/><circle cx="238" cy="139" r="3" fill="#1F78B4" stroke="none" opacity="1"/><circle cx="242" cy="136" r="3" fill="#1F78B4" stroke="none" opacity="1"/><circle cx="245" cy="135" r="3" fill="#1F78B4" stroke="none" opacity="1"/><circle cx="249" cy="132" r="3" fill="#1F78B4" stroke="none" opacity="1"/><circle cx="253" cy="130" r="3" fill="#1F78B4" stroke="none" opacity="1"/><circle cx="256" cy="127" r="3" fill="#1F78B4" stroke="none" opacity="1"/><circle cx="260" cy="125" r="3" fill="#1F78B4" stroke="none" opacity="1"/><circle cx="264" cy="122" r="3" fill="#1F78B4" stroke="none" opacity="1"/><circle cx="267" cy="121" r="3" fill="#1F78B4" stroke="none" opacity="1"/><circle cx="271" cy="118" r="3" fill="#1F78B4" stroke="none" opacity="1"/><circle cx="275" cy="116" r="3" fill="#1F78B4" stroke="none" opacity="1"/><circle cx="278" cy="113" r="3" fill="#1F78B4" stroke="none" opacity="1"/><circle cx="282" cy="112" r="3" fill="#1F78B4" stroke="none" opacity="1"/><circle cx="285" cy="108" r="3" fill="#1F78B4" stroke="none" opacity="1"/><circle cx="289" cy="107" r="3" fill="#1F78B4" stroke="none" opacity="1"/><circle cx="293" cy="104" r="3" fill="#1F78B4" stroke="none" opacity="1"/><circle cx="296" cy="102" r="3" fill="#1F78B4" stroke="none" opacity="1"/><circle cx="300" cy="97" r="3" fill="#1F78B4" stroke="none" opacity="1"/><circle cx="304" cy="97" r="3" fill="#1F78B4" stroke="none" opacity="1"/><circle cx="307" cy="94" r="3" fill="#1F78B4" stroke="none" opacity="1"/><circle cx="311" cy="92" r="3" fill="#1F78B4" stroke="none" opacity="1"/><circle cx="315" cy="90" r="3" fill="#1F78B4" stroke="none" opacity="1"/><circle cx="318" cy="88" r="3" fill="#1F78B4" stroke="none" opacity="1"/><circle cx="322" cy="85" r="3" fill="#1F78B4" stroke="none" opacity="1"/><circle cx="325" cy="84" r="3" fill="#1F78B4" stroke="none" opacity="1"/><circle cx="329" cy="80" r="3" fill="#1F78B4" stroke="none" opacity="1"/><circle cx="333" cy="76" r="3" fill="#1F78B4" stroke="none" opacity="1"/><circle cx="336" cy="75" r="3" fill="#1F78B4" stroke="none" opacity="1"/><circle cx="340" cy="74" r="3" fill="#1F78B4" stroke="none" opacity="1"/><circle cx="344" cy="71" r="3" fill="#1F78B4" stroke="none" opacity="1"/><circle cx="347" cy="70" r="3" fill="#1F78B4" stroke="none" opacity="1"/><circle cx="351" cy="66" r="3" fill="#1F78B4" stroke="none" opacity="1"/><circle cx="355" cy="64" r="3" fill="#1F78B4" stroke="none" opacity="1"/><circle cx="358" cy="62" r="3" fill="#1F78B4" stroke="none" opacity="1"/><circle cx="362" cy="56" r="3" fill="#1F78B4" stroke="none" opacity="1"/><circle cx="365" cy="57" r="3" fill="#1F78B4" stroke="none" opacity="1"/><circle cx="369" cy="56" r="3" fill="#1F78B4" stroke="none" opacity="1"/><circle cx="373" cy="53" r="3" fill="#1F78B4" stroke="none" opacity="1"/><circle cx="376" cy="51" r="3" fill="#1F78B4" stroke="none" opacity="1"/><circle cx="380" cy="46" r="3" fill="#1F78B4" stroke="none" opacity="1"/><circle cx="384" cy="44" r="3" fill="#1F78B4" stroke="none" opacity="1"/><circle cx="387" cy="39" r="3" fill="#1F78B4" stroke="none" opacity="1"/><circle cx="391" cy="40" r="3" fill="#1F78B4" stroke="none" opacity="1"/><circle cx="395" cy="38" r="3" fill="#1F78B4" stroke="none" opacity="1"/><circle cx="398" cy="36" r="3" fill="#1F78B4" stroke="none" opacity="1"/><circle cx="402" cy="33" r="3" fill="#1F78B4" stroke="none" opacity="1"/><circle cx="405" cy="33" r="3" fill="#1F78B4" stroke="none" opacity="1"/><circle cx="409" cy="29" r="3" fill="#1F78B4" stroke="none" opacity="1"/><circle cx="413" cy="26" r="3" fill="#1F78B4" stroke="none" opacity="1"/><circle cx="416" cy="25" r="3" fill="#1F78B4" stroke="none" opacity="1"/><circle cx="420" cy="24" r="3" fill="#1F78B4" stroke="none" opacity="1"/><circle cx="424" cy="20" r="3" fill="#1F78B4" stroke="none" opacity="1"/><circle cx="427" cy="18" r="3" fill="#1F78B4" stroke="none" opacity="1"/><circle cx="431" cy="15" r="3" fill="#1F78B4" stroke="none" opacity="1"/><circle cx="435" cy="15" r="3" fill="#1F78B4" stroke="none" opacity="1"/><polyline fill="none" stroke="#1F78B4" stroke-width="1" points="75 245 435 15" opacity="1"/><polygon fill="#1F78B4" points="75 245 435 15 435 15" opacity=".25"/></svg>