<svg xmlns="http://www.w3.org/2000/svg" width="450" height="300"><text x="15" y="130" fill="#000" dy=".76em" font-family="sans-serif" font-size="9.677" opacity="1" text-anchor="middle" transform="rotate(270, 15, 130)">Total sample time (ms)</text><text x="255" y="285" fill="#000" dy="-.5ex" font-family="sans-serif" font-size="9.677" opacity="1" text-anchor="middle">Iterations</text><line x1="123" x2="123" y1="244" y2="14" stroke="#000" stroke-width="1" opacity=".2"/><line x1="175" x2="175" y1="244" y2="14" stroke="#000" stroke-width="1" opacity=".2"/><line x1="227" x2="227" y1="244" y2="14" stroke="#000" stroke-width="1" opacity=".2"/><line x1="279" x2="279" y1="244" y2="14" stroke="#000" stroke-width="1" opacity=".2"/><line x1="331" x2="331" y1="244" y2="14" stroke="#000" stroke-width="1" opacity=".2"/><line x1="383" x2="383" y1="244" y2="14" stroke="#000" stroke-width="1" opacity=".2"/><line x1="435" x2="435" y1="244" y2="14" stroke="#000" stroke-width="1" opacity=".2"/><line x1="75" x2="435" y1="204" y2="204" stroke="#000" stroke-width="1" opacity=".2"/><line x1="75" x2="435" y1="162" y2="162" stroke="#000" stroke-width="1" opacity=".2"/><line x1="75" x2="435" y1="120" y2="120" stroke="#000" stroke-width="1" opacity=".2"/><line x1="75" x2="435" y1="78" y2="78" stroke="#000" stroke-width="1" opacity=".2"/><line x1="75" x2="435" y1="36" y2="36" stroke="#000" stroke-width="1" opacity=".2"/><polyline fill="none" stroke="#000" stroke-width="1" points="74 15 74 245" opacity="1"/><text x="65" y="204" fill="#000" dy=".5ex" font-family="sans-serif" font-size="9.677" opacity="1" text-anchor="end">20.0</text><polyline fill="none" stroke="#000" stroke-width="1" points="69 204 74 204" opacity="1"/><text x="65" y="162" fill="#000" dy=".5ex" font-family="sans-serif" font-size="9.677" opacity="1" text-anchor="end">40.0</text><polyline fill="none" stroke="#000" stroke-width="1" points="69 162 74 162" opacity="1"/><text x="65" y="120" fill="#000" dy=".5ex" font-family="sans-serif" font-size="9.677" opacity="1" text-anchor="end">60.0</text><polyline fill="none" stroke="#000" stroke-width="1" points="69 120 74 120" opacity="1"/><text x="65" y="78" fill="#000" dy=".5ex" font-family="sans-serif" font-size="9.677" opacity="1" text-anchor="end">80.0</text><polyline fill="none" stroke="#000" stroke-width="1" points="69 78 74 78" opacity="1"/><text x="65" y="36" fill="#000" dy=".5ex" font-family="sans-serif" font-size="9.677" opacity="1" text-anchor="end">100.0</text><polyline fill="none" stroke="#000" stroke-width="1" points="69 36 74 36" opacity="1"/><polyline fill="none" stroke="#000" stroke-width="1" points="75 245 435 245" opacity="1"/><text x="123" y="255" fill="#000" dy=".76em" font-family="sans-serif" font-size="9.677" opacity="1" text-anchor="middle">100</text><polyline fill="none" stroke="#000" stroke-width="1" points="123 245 123 250" opacity="1"/><text x="175" y="255" fill="#000" dy=".76em" font-family="sans-serif" font-size="9.677" opacity="1" text-anchor="middle">200</text><polyline fill="none" stroke="#000" stroke-width="1" points="175 245 175 250" opacity="1"/><text x="227" y="255" fill="#000" dy=".76em" font-family="sans-serif" font-size="9.677" opacity="1" text-anchor="middle">300</text><polyline fill="none" stroke="#000" stroke-width="1" points="227 245 227 250" opacity="1"/><text x="279" y="255" fill="#000" dy=".76em" font-family="sans-serif" font-size="9.677" opacity="1" text-anchor="middle">400</text><polyline fill="none" stroke="#000" stroke-width="1" points="279 245 279 250" opacity="1"/><text x="331" y="255" fill="#000" dy=".76em" font-family="sans-serif" font-size="9.677" opacity="1" text-anchor="middle">500</text><polyline fill="none" stroke="#000" stroke-width="1" points="331 245 331 250" opacity="1"/><text x="383" y="255" fill="#000" dy=".76em" font-family="sans-serif" font-size="9.677" opacity="1" text-anchor="middle">600</text><polyline fill="none" stroke="#000" stroke-width="1" points="383 245 383 250" opacity="1"/><text x="435" y="255" fill="#000" dy=".76em" font-family="sans-serif" font-size="9.677" opacity="1" text-anchor="middle">700</text><polyline fill="none" stroke="#000" stroke-width="1" points="435 245 435 250" opacity="1"/><circle cx="75" cy="244" r="3" fill="#1F78B4" stroke="none" opacity="1"/><circle cx="78" cy="241" r="3" fill="#1F78B4" stroke="none" opacity="1"/><circle cx="82" cy="239" r="3" fill="#1F78B4" stroke="none" opacity="1"/><circle cx="85" cy="236" r="3" fill="#1F78B4" stroke="none" opacity="1"/><circle cx="89" cy="234" r="3" fill="#1F78B4" stroke="none" opacity="1"/><circle cx="93" cy="231" r="3" fill="#1F78B4" stroke="none" opacity="1"/><circle cx="96" cy="229" r="3" fill="#1F78B4" stroke="none" opacity="1"/><circle cx="100" cy="227" r="3" fill="#1F78B4" stroke="none" opacity="1"/><circle cx="104" cy="225" r="3" fill="#1F78B4" stroke="none" opacity="1"/><circle cx="107" cy="222" r="3" fill="#1F78B4" stroke="none" opacity="1"/><circle cx="111" cy="220" r="3" fill="#1F78B4" stroke="none" opacity="1"/><circle cx="115" cy="217" r="3" fill="#1F78B4" stroke="none" opacity="1"/><circle cx="118" cy="215" r="3" fill="#1F78B4" stroke="none" opacity="1"/><circle cx="122" cy="213" r="3" fill="#1F78B4" stroke="none" opacity="1"/><circle cx="125" cy="210" r="3" fill="#1F78B4" stroke="none" opacity="1"/><circle cx="129" cy="208" r="3" fill="#1F78B4" stroke="none" opacity="1"/><circle cx="133" cy="206" r="3" fill="#1F78B4" stroke="none" opacity="1"/><circle cx="136" cy="203" r="3" fill="#1F78B4" stroke="none" opacity="1"/><circle cx="140" cy="201" r="3" fill="#1F78B4" stroke="none" opacity="1"/><circle cx="144" cy="198" r="3" fill="#1F78B4" stroke="none" opacity="1"/><circle cx="147" cy="196" r="3" fill="#1F78B4" stroke="none" opacity="1"/><circle cx="151" cy="194" r="3" fill="#1F78B4" stroke="none" opacity="1"/><circle cx="155" cy="191" r="3" fill="#1F78B4" stroke="none" opacity="1"/><circle cx="158" cy="188" r="3" fill="#1F78B4" stroke="none" opacity="1"/><circle cx="162" cy="186" r="3" fill="#1F78B4" stroke="none" opacity="1"/><circle cx="165" cy="184" r="3" fill="#1F78B4" stroke="none" opacity="1"/><circle cx="169" cy="182" r="3" fill="#1F78B4" stroke="none" opacity="1"/><circle cx="173" cy="181" r="3" fill="#1F78B4" stroke="none" opacity="1"/><circle cx="176" cy="178" r="3" fill="#1F78B4" stroke="none" opacity="1"/><circle cx="180" cy="173" r="3" fill="#1F78B4" stroke="none" opacity="1"/><circle cx="184" cy="172" r="3" fill="#1F78B4" stroke="none" opacity="1"/><circle cx="187" cy="172" r="3" fill="#1F78B4" stroke="none" opacity="1"/><circle cx="191" cy="166" r="3" fill="#1F78B4" stroke="none" opacity="1"/><circle cx="195" cy="166" r="3" fill="#1F78B4" stroke="none" opacity="1"/><circle cx="198" cy="160" r="3" fill="#1F78B4" stroke="none" opacity="1"/><circle cx="202" cy="161" r="3" fill="#1F78B4" stroke="none" opacity="1"/><circle cx="205" cy="158" r="3" fill="#1F78B4" stroke="none" opacity="1"/><circle cx="209" cy="157" r="3" fill="#1F78B4" stroke="none" opacity="1"/><circle cx="213" cy="152" r="3" fill="#1F78B4" stroke="none" opacity="1"/><circle cx="216" cy="155" r="3" fill="#1F78B4" stroke="none" opacity="1"/><circle cx="220" cy="151" r="3" fill="#1F78B4" stroke="none" opacity="1"/><circle cx="224" cy="147" r="3" fill="#1F78B4" stroke="none" opacity="1"/><circle cx="227" cy="144" r="3" fill="#1F78B4" stroke="none" opacity="1"/><circle cx="231" cy="145" r="3" fill="#1F78B4" stroke="none" opacity="1"/><circle cx="235" cy="140" r="3" fill="#1F78B4" stroke="none" opacity="1"/><circle cx="238" cy="138" r="3" fill="#1F78B4" stroke="none" opacity="1"/><circle cx="242" cy="138" r="3" fill="#1F78B4" stroke="none" opacity="1"/><circle cx="245" cy="136" r="3" fill="#1F78B4" stroke="none" opacity="1"/><circle cx="249" cy="133" r="3" fill="#1F78B4" stroke="none" opacity="1"/><circle cx="253" cy="132" r="3" fill="#1F78B4" stroke="none" opacity="1"/><circle cx="256" cy="125" r="3" fill="#1F78B4" stroke="none" opacity="1"/><circle cx="260" cy="123" r="3" fill="#1F78B4" stroke="none" opacity="1"/><circle cx="264" cy="123" r="3" fill="#1F78B4" stroke="none" opacity="1"/><circle cx="267" cy="121" r="3" fill="#1F78B4" stroke="none" opacity="1"/><circle cx="271" cy="116" r="3" fill="#1F78B4" stroke="none" opacity="1"/><circle cx="275" cy="116" r="3" fill="#1F78B4" stroke="none" opacity="1"/><circle cx="278" cy="115" r="3" fill="#1F78B4" stroke="none" opacity="1"/><circle cx="282" cy="112" r="3" fill="#1F78B4" stroke="none" opacity="1"/><circle cx="285" cy="110" r="3" fill="#1F78B4" stroke="none" opacity="1"/><circle cx="289" cy="106" r="3" fill="#1F78B4" stroke="none" opacity="1"/><circle cx="293" cy="103" r="3" fill="#1F78B4" stroke="none" opacity="1"/><circle cx="296" cy="103" r="3" fill="#1F78B4" stroke="none" opacity="1"/><circle cx="300" cy="101" r="3" fill="#1F78B4" stroke="none" opacity="1"/><circle cx="304" cy="98" r="3" fill="#1F78B4" stroke="none" opacity="1"/><circle cx="307" cy="94" r="3" fill="#1F78B4" stroke="none" opacity="1"/><circle cx="311" cy="92" r="3" fill="#1F78B4" stroke="none" opacity="1"/><circle cx="315" cy="94" r="3" fill="#1F78B4" stroke="none" opacity="1"/><circle cx="318" cy="83" r="3" fill="#1F78B4" stroke="none" opacity="1"/><circle cx="322" cy="86" r="3" fill="#1F78B4" stroke="none" opacity="1"/><circle cx="325" cy="81" r="3" fill="#1F78B4" stroke="none" opacity="1"/><circle cx="329" cy="83" r="3" fill="#1F78B4" stroke="none" opacity="1"/><circle cx="333" cy="76" r="3" fill="#1F78B4" stroke="none" opacity="1"/><circle cx="336" cy="76" r="3" fill="#1F78B4" stroke="none" opacity="1"/><circle cx="340" cy="76" r="3" fill="#1F78B4" stroke="none" opacity="1"/><circle cx="344" cy="73" r="3" fill="#1F78B4" stroke="none" opacity="1"/><circle cx="347" cy="69" r="3" fill="#1F78B4" stroke="none" opacity="1"/><circle cx="351" cy="66" r="3" fill="#1F78B4" stroke="none" opacity="1"/><circle cx="355" cy="65" r="3" fill="#1F78B4" stroke="none" opacity="1"/><circle cx="358" cy="60" r="3" fill="#1F78B4" stroke="none" opacity="1"/><circle cx="362" cy="59" r="3" fill="#1F78B4" stroke="none" opacity="1"/><circle cx="365" cy="55" r="3" fill="#1F78B4" stroke="none" opacity="1"/><circle cx="369" cy="58" r="3" fill="#1F78B4" stroke="none" opacity="1"/><circle cx="373" cy="55" r="3" fill="#1F78B4" stroke="none" opacity="1"/><circle cx="376" cy="56" r="3" fill="#1F78B4" stroke="none" opacity="1"/><circle cx="380" cy="47" r="3" fill="#1F78B4" stroke="none" opacity="1"/><circle cx="384" cy="41" r="3" fill="#1F78B4" stroke="none" opacity="1"/><circle cx="387" cy="39" r="3" fill="#1F78B4" stroke="none" opacity="1"/><circle cx="391" cy="42" r="3" fill="#1F78B4" stroke="none" opacity="1"/><circle cx="395" cy="40" r="3" fill="#1F78B4" stroke="none" opacity="1"/><circle cx="398" cy="39" r="3" fill="#1F78B4" stroke="none" opacity="1"/><circle cx="402" cy="34" r="3" fill="#1F78B4" stroke="none" opacity="1"/><circle cx="405" cy="29" r="3" fill="#1F78B4" stroke="none" opacity="1"/><circle cx="409" cy="29" r="3" fill="#1F78B4" stroke="none" opacity="1"/><circle cx="413" cy="26" r="3" fill="#1F78B4" stroke="none" opacity="1"/><circle cx="416" cy="22" r="3" fill="#1F78B4" stroke="none" opacity="1"/><circle cx="420" cy="20" r="3" fill="#1F78B4" stroke="none" opacity="1"/><circle cx="424" cy="21" r="3" fill="#1F78B4" stroke="none" opacity="1"/><circle cx="427" cy="18" r="3" fill="#1F78B4" stroke="none" opacity="1"/><circle cx="431" cy="15" r="3" fill="#1F78B4" stroke="none" opacity="1"/><circle cx="435" cy="15" r="3" fill="#1F78B4" stroke="none" opacity="1"/><polyline fill="none" stroke="#1F78B4" stroke-width="1" points="75 245 435 15" opacity="1"/><polygon fill="#1F78B4" points="75 245 435 15 435 15" opacity=".25"/></svg>