<svg xmlns="http://www.w3.org/2000/svg" width="960" height="540"><text x="480" y="32" fill="#000" dy=".76em" font-family="sans-serif" font-size="16.129" opacity="1" text-anchor="middle">bench_group/threads_32/16777216</text><text x="27" y="263" fill="#000" dy=".76em" font-family="sans-serif" font-size="9.677" opacity="1" text-anchor="middle" transform="rotate(270, 27, 263)">Total sample time (ms)</text><text x="510" y="513" fill="#000" dy="-.5ex" font-family="sans-serif" font-size="9.677" opacity="1" text-anchor="middle">Iterations</text><line x1="200" x2="200" y1="472" y2="52" stroke="#000" stroke-width="1" opacity=".2"/><line x1="322" x2="322" y1="472" y2="52" stroke="#000" stroke-width="1" opacity=".2"/><line x1="444" x2="444" y1="472" y2="52" stroke="#000" stroke-width="1" opacity=".2"/><line x1="566" x2="566" y1="472" y2="52" stroke="#000" stroke-width="1" opacity=".2"/><line x1="688" x2="688" y1="472" y2="52" stroke="#000" stroke-width="1" opacity=".2"/><line x1="810" x2="810" y1="472" y2="52" stroke="#000" stroke-width="1" opacity=".2"/><line x1="933" x2="933" y1="472" y2="52" stroke="#000" stroke-width="1" opacity=".2"/><line x1="87" x2="933" y1="400" y2="400" stroke="#000" stroke-width="1" opacity=".2"/><line x1="87" x2="933" y1="323" y2="323" stroke="#000" stroke-width="1" opacity=".2"/><line x1="87" x2="933" y1="246" y2="246" stroke="#000" stroke-width="1" opacity=".2"/><line x1="87" x2="933" y1="169" y2="169" stroke="#000" stroke-width="1" opacity=".2"/><line x1="87" x2="933" y1="92" y2="92" stroke="#000" stroke-width="1" opacity=".2"/><polyline fill="none" stroke="#000" stroke-width="1" points="86 53 86 473" opacity="1"/><text x="77" y="400" fill="#000" dy=".5ex" font-family="sans-serif" font-size="9.677" opacity="1" text-anchor="end">20.0</text><polyline fill="none" stroke="#000" stroke-width="1" points="81 400 86 400" opacity="1"/><text x="77" y="323" fill="#000" dy=".5ex" font-family="sans-serif" font-size="9.677" opacity="1" text-anchor="end">40.0</text><polyline fill="none" stroke="#000" stroke-width="1" points="81 323 86 323" opacity="1"/><text x="77" y="246" fill="#000" dy=".5ex" font-family="sans-serif" font-size="9.677" opacity="1" text-anchor="end">60.0</text><polyline fill="none" stroke="#000" stroke-width="1" points="81 246 86 246" opacity="1"/><text x="77" y="169" fill="#000" dy=".5ex" font-family="sans-serif" font-size="9.677" opacity="1" text-anchor="end">80.0</text><polyline fill="none" stroke="#000" stroke-width="1" points="81 169 86 169" opacity="1"/><text x="77" y="92" fill="#000" dy=".5ex" font-family="sans-serif" font-size="9.677" opacity="1" text-anchor="end">100.0</text><polyline fill="none" stroke="#000" stroke-width="1" points="81 92 86 92" opacity="1"/><polyline fill="none" stroke="#000" stroke-width="1" points="87 473 933 473" opacity="1"/><text x="200" y="483" fill="#000" dy=".76em" font-family="sans-serif" font-size="9.677" opacity="1" text-anchor="middle">100</text><polyline fill="none" stroke="#000" stroke-width="1" points="200 473 200 478" opacity="1"/><text x="322" y="483" fill="#000" dy=".76em" font-family="sans-serif" font-size="9.677" opacity="1" text-anchor="middle">200</text><polyline fill="none" stroke="#000" stroke-width="1" points="322 473 322 478" opacity="1"/><text x="444" y="483" fill="#000" dy=".76em" font-family="sans-serif" font-size="9.677" opacity="1" text-anchor="middle">300</text><polyline fill="none" stroke="#000" stroke-width="1" points="444 473 444 478" opacity="1"/><text x="566" y="483" fill="#000" dy=".76em" font-family="sans-serif" font-size="9.677" opacity="1" text-anchor="middle">400</text><polyline fill="none" stroke="#000" stroke-width="1" points="566 473 566 478" opacity="1"/><text x="688" y="483" fill="#000" dy=".76em" font-family="sans-serif" font-size="9.677" opacity="1" text-anchor="middle">500</text><polyline fill="none" stroke="#000" stroke-width="1" points="688 473 688 478" opacity="1"/><text x="810" y="483" fill="#000" dy=".76em" font-family="sans-serif" font-size="9.677" opacity="1" text-anchor="middle">600</text><polyline fill="none" stroke="#000" stroke-width="1" points="810 473 810 478" opacity="1"/><text x="933" y="483" fill="#000" dy=".76em" font-family="sans-serif" font-size="9.677" opacity="1" text-anchor="middle">700</text><polyline fill="none" stroke="#000" stroke-width="1" points="933 473 933 478" opacity="1"/><circle cx="87" cy="472" r="3" fill="#1F78B4" stroke="none" opacity="1"/><circle cx="95" cy="467" r="3" fill="#1F78B4" stroke="none" opacity="1"/><circle cx="104" cy="462" r="3" fill="#1F78B4" stroke="none" opacity="1"/><circle cx="112" cy="458" r="3" fill="#1F78B4" stroke="none" opacity="1"/><circle cx="121" cy="454" r="3" fill="#1F78B4" stroke="none" opacity="1"/><circle cx="129" cy="449" r="3" fill="#1F78B4" stroke="none" opacity="1"/><circle cx="138" cy="445" r="3" fill="#1F78B4" stroke="none" opacity="1"/><circle cx="146" cy="441" r="3" fill="#1F78B4" stroke="none" opacity="1"/><circle cx="155" cy="437" r="3" fill="#1F78B4" stroke="none" opacity="1"/><circle cx="163" cy="432" r="3" fill="#1F78B4" stroke="none" opacity="1"/><circle cx="172" cy="429" r="3" fill="#1F78B4" stroke="none" opacity="1"/><circle cx="181" cy="424" r="3" fill="#1F78B4" stroke="none" opacity="1"/><circle cx="189" cy="420" r="3" fill="#1F78B4" stroke="none" opacity="1"/><circle cx="198" cy="415" r="3" fill="#1F78B4" stroke="none" opacity="1"/><circle cx="206" cy="411" r="3" fill="#1F78B4" stroke="none" opacity="1"/><circle cx="215" cy="406" r="3" fill="#1F78B4" stroke="none" opacity="1"/><circle cx="223" cy="404" r="3" fill="#1F78B4" stroke="none" opacity="1"/><circle cx="232" cy="397" r="3" fill="#1F78B4" stroke="none" opacity="1"/><circle cx="240" cy="393" r="3" fill="#1F78B4" stroke="none" opacity="1"/><circle cx="249" cy="389" r="3" fill="#1F78B4" stroke="none" opacity="1"/><circle cx="257" cy="385" r="3" fill="#1F78B4" stroke="none" opacity="1"/><circle cx="266" cy="381" r="3" fill="#1F78B4" stroke="none" opacity="1"/><circle cx="275" cy="376" r="3" fill="#1F78B4" stroke="none" opacity="1"/><circle cx="283" cy="370" r="3" fill="#1F78B4" stroke="none" opacity="1"/><circle cx="292" cy="367" r="3" fill="#1F78B4" stroke="none" opacity="1"/><circle cx="300" cy="363" r="3" fill="#1F78B4" stroke="none" opacity="1"/><circle cx="309" cy="359" r="3" fill="#1F78B4" stroke="none" opacity="1"/><circle cx="317" cy="357" r="3" fill="#1F78B4" stroke="none" opacity="1"/><circle cx="326" cy="352" r="3" fill="#1F78B4" stroke="none" opacity="1"/><circle cx="334" cy="342" r="3" fill="#1F78B4" stroke="none" opacity="1"/><circle cx="343" cy="342" r="3" fill="#1F78B4" stroke="none" opacity="1"/><circle cx="351" cy="341" r="3" fill="#1F78B4" stroke="none" opacity="1"/><circle cx="360" cy="330" r="3" fill="#1F78B4" stroke="none" opacity="1"/><circle cx="369" cy="330" r="3" fill="#1F78B4" stroke="none" opacity="1"/><circle cx="377" cy="320" r="3" fill="#1F78B4" stroke="none" opacity="1"/><circle cx="386" cy="322" r="3" fill="#1F78B4" stroke="none" opacity="1"/><circle cx="394" cy="316" r="3" fill="#1F78B4" stroke="none" opacity="1"/><circle cx="403" cy="314" r="3" fill="#1F78B4" stroke="none" opacity="1"/><circle cx="411" cy="305" r="3" fill="#1F78B4" stroke="none" opacity="1"/><circle cx="420" cy="310" r="3" fill="#1F78B4" stroke="none" opacity="1"/><circle cx="428" cy="303" r="3" fill="#1F78B4" stroke="none" opacity="1"/><circle cx="437" cy="295" r="3" fill="#1F78B4" stroke="none" opacity="1"/><circle cx="445" cy="290" r="3" fill="#1F78B4" stroke="none" opacity="1"/><circle cx="454" cy="291" r="3" fill="#1F78B4" stroke="none" opacity="1"/><circle cx="463" cy="282" r="3" fill="#1F78B4" stroke="none" opacity="1"/><circle cx="471" cy="279" r="3" fill="#1F78B4" stroke="none" opacity="1"/><circle cx="480" cy="278" r="3" fill="#1F78B4" stroke="none" opacity="1"/><circle cx="488" cy="275" r="3" fill="#1F78B4" stroke="none" opacity="1"/><circle cx="497" cy="269" r="3" fill="#1F78B4" stroke="none" opacity="1"/><circle cx="505" cy="269" r="3" fill="#1F78B4" stroke="none" opacity="1"/><circle cx="514" cy="255" r="3" fill="#1F78B4" stroke="none" opacity="1"/><circle cx="522" cy="251" r="3" fill="#1F78B4" stroke="none" opacity="1"/><circle cx="531" cy="252" r="3" fill="#1F78B4" stroke="none" opacity="1"/><circle cx="539" cy="249" r="3" fill="#1F78B4" stroke="none" opacity="1"/><circle cx="548" cy="240" r="3" fill="#1F78B4" stroke="none" opacity="1"/><circle cx="557" cy="238" r="3" fill="#1F78B4" stroke="none" opacity="1"/><circle cx="565" cy="236" r="3" fill="#1F78B4" stroke="none" opacity="1"/><circle cx="574" cy="231" r="3" fill="#1F78B4" stroke="none" opacity="1"/><circle cx="582" cy="228" r="3" fill="#1F78B4" stroke="none" opacity="1"/><circle cx="591" cy="220" r="3" fill="#1F78B4" stroke="none" opacity="1"/><circle cx="599" cy="215" r="3" fill="#1F78B4" stroke="none" opacity="1"/><circle cx="608" cy="215" r="3" fill="#1F78B4" stroke="none" opacity="1"/><circle cx="616" cy="210" r="3" fill="#1F78B4" stroke="none" opacity="1"/><circle cx="625" cy="205" r="3" fill="#1F78B4" stroke="none" opacity="1"/><circle cx="633" cy="198" r="3" fill="#1F78B4" stroke="none" opacity="1"/><circle cx="642" cy="195" r="3" fill="#1F78B4" stroke="none" opacity="1"/><circle cx="651" cy="198" r="3" fill="#1F78B4" stroke="none" opacity="1"/><circle cx="659" cy="178" r="3" fill="#1F78B4" stroke="none" opacity="1"/><circle cx="668" cy="184" r="3" fill="#1F78B4" stroke="none" opacity="1"/><circle cx="676" cy="175" r="3" fill="#1F78B4" stroke="none" opacity="1"/><circle cx="685" cy="179" r="3" fill="#1F78B4" stroke="none" opacity="1"/><circle cx="693" cy="166" r="3" fill="#1F78B4" stroke="none" opacity="1"/><circle cx="702" cy="165" r="3" fill="#1F78B4" stroke="none" opacity="1"/><circle cx="710" cy="165" r="3" fill="#1F78B4" stroke="none" opacity="1"/><circle cx="719" cy="161" r="3" fill="#1F78B4" stroke="none" opacity="1"/><circle cx="727" cy="152" r="3" fill="#1F78B4" stroke="none" opacity="1"/><circle cx="736" cy="148" r="3" fill="#1F78B4" stroke="none" opacity="1"/><circle cx="745" cy="146" r="3" fill="#1F78B4" stroke="none" opacity="1"/><circle cx="753" cy="136" r="3" fill="#1F78B4" stroke="none" opacity="1"/><circle cx="762" cy="135" r="3" fill="#1F78B4" stroke="none" opacity="1"/><circle cx="770" cy="127" r="3" fill="#1F78B4" stroke="none" opacity="1"/><circle cx="779" cy="132" r="3" fill="#1F78B4" stroke="none" opacity="1"/><circle cx="787" cy="127" r="3" fill="#1F78B4" stroke="none" opacity="1"/><circle cx="796" cy="129" r="3" fill="#1F78B4" stroke="none" opacity="1"/><circle cx="804" cy="114" r="3" fill="#1F78B4" stroke="none" opacity="1"/><circle cx="813" cy="102" r="3" fill="#1F78B4" stroke="none" opacity="1"/><circle cx="821" cy="98" r="3" fill="#1F78B4" stroke="none" opacity="1"/><circle cx="830" cy="103" r="3" fill="#1F78B4" stroke="none" opacity="1"/><circle cx="839" cy="100" r="3" fill="#1F78B4" stroke="none" opacity="1"/><circle cx="847" cy="98" r="3" fill="#1F78B4" stroke="none" opacity="1"/><circle cx="856" cy="88" r="3" fill="#1F78B4" stroke="none" opacity="1"/><circle cx="864" cy="80" r="3" fill="#1F78B4" stroke="none" opacity="1"/><circle cx="873" cy="80" r="3" fill="#1F78B4" stroke="none" opacity="1"/><circle cx="881" cy="75" r="3" fill="#1F78B4" stroke="none" opacity="1"/><circle cx="890" cy="67" r="3" fill="#1F78B4" stroke="none" opacity="1"/><circle cx="898" cy="63" r="3" fill="#1F78B4" stroke="none" opacity="1"/><circle cx="907" cy="65" r="3" fill="#1F78B4" stroke="none" opacity="1"/><circle cx="915" cy="60" r="3" fill="#1F78B4" stroke="none" opacity="1"/><circle cx="924" cy="54" r="3" fill="#1F78B4" stroke="none" opacity="1"/><circle cx="933" cy="53" r="3" fill="#1F78B4" stroke="none" opacity="1"/><polyline fill="none" stroke="#1F78B4" stroke-width="1" points="87 473 933 53" opacity="1"/><polygon fill="#1F78B4" points="87 473 933 53 933 53" opacity=".25"/><text x="132" y="68" fill="#000" dy=".76em" font-family="sans-serif" font-size="9.677" opacity="1" text-anchor="start">Sample</text><text x="132" y="83" fill="#000" dy=".76em" font-family="sans-serif" font-size="9.677" opacity="1" text-anchor="start">Linear regression</text><text x="132" y="98" fill="#000" dy=".76em" font-family="sans-serif" font-size="9.677" opacity="1" text-anchor="start">Confidence interval</text><circle cx="112" cy="73" r="3" fill="#1F78B4" stroke="none" opacity="1"/><polyline fill="none" stroke="#1F78B4" stroke-width="2" points="102 88 122 88" opacity="1"/><rect width="20" height="10" x="102" y="98" fill="#1F78B4" stroke="none" opacity=".25"/></svg>