<svg xmlns="http://www.w3.org/2000/svg" width="960" height="540"><text x="480" y="32" fill="#000" dy=".76em" font-family="sans-serif" font-size="16.129" opacity="1" text-anchor="middle">bench_group/threads_16/524288</text><text x="27" y="263" fill="#000" dy=".76em" font-family="sans-serif" font-size="9.677" opacity="1" text-anchor="middle" transform="rotate(270, 27, 263)">Total sample time (ms)</text><text x="510" y="513" fill="#000" dy="-.5ex" font-family="sans-serif" font-size="9.677" opacity="1" text-anchor="middle">Iterations (x 10^3)</text><line x1="159" x2="159" y1="472" y2="52" stroke="#000" stroke-width="1" opacity=".2"/><line x1="239" x2="239" y1="472" y2="52" stroke="#000" stroke-width="1" opacity=".2"/><line x1="320" x2="320" y1="472" y2="52" stroke="#000" stroke-width="1" opacity=".2"/><line x1="400" x2="400" y1="472" y2="52" stroke="#000" stroke-width="1" opacity=".2"/><line x1="481" x2="481" y1="472" y2="52" stroke="#000" stroke-width="1" opacity=".2"/><line x1="562" x2="562" y1="472" y2="52" stroke="#000" stroke-width="1" opacity=".2"/><line x1="642" x2="642" y1="472" y2="52" stroke="#000" stroke-width="1" opacity=".2"/><line x1="723" x2="723" y1="472" y2="52" stroke="#000" stroke-width="1" opacity=".2"/><line x1="804" x2="804" y1="472" y2="52" stroke="#000" stroke-width="1" opacity=".2"/><line x1="884" x2="884" y1="472" y2="52" stroke="#000" stroke-width="1" opacity=".2"/><line x1="87" x2="933" y1="426" y2="426" stroke="#000" stroke-width="1" opacity=".2"/><line x1="87" x2="933" y1="377" y2="377" stroke="#000" stroke-width="1" opacity=".2"/><line x1="87" x2="933" y1="327" y2="327" stroke="#000" stroke-width="1" opacity=".2"/><line x1="87" x2="933" y1="278" y2="278" stroke="#000" stroke-width="1" opacity=".2"/><line x1="87" x2="933" y1="228" y2="228" stroke="#000" stroke-width="1" opacity=".2"/><line x1="87" x2="933" y1="178" y2="178" stroke="#000" stroke-width="1" opacity=".2"/><line x1="87" x2="933" y1="129" y2="129" stroke="#000" stroke-width="1" opacity=".2"/><line x1="87" x2="933" y1="79" y2="79" stroke="#000" stroke-width="1" opacity=".2"/><polyline fill="none" stroke="#000" stroke-width="1" points="86 53 86 473" opacity="1"/><text x="77" y="426" fill="#000" dy=".5ex" font-family="sans-serif" font-size="9.677" opacity="1" text-anchor="end">10.0</text><polyline fill="none" stroke="#000" stroke-width="1" points="81 426 86 426" opacity="1"/><text x="77" y="377" fill="#000" dy=".5ex" font-family="sans-serif" font-size="9.677" opacity="1" text-anchor="end">20.0</text><polyline fill="none" stroke="#000" stroke-width="1" points="81 377 86 377" opacity="1"/><text x="77" y="327" fill="#000" dy=".5ex" font-family="sans-serif" font-size="9.677" opacity="1" text-anchor="end">30.0</text><polyline fill="none" stroke="#000" stroke-width="1" points="81 327 86 327" opacity="1"/><text x="77" y="278" fill="#000" dy=".5ex" font-family="sans-serif" font-size="9.677" opacity="1" text-anchor="end">40.0</text><polyline fill="none" stroke="#000" stroke-width="1" points="81 278 86 278" opacity="1"/><text x="77" y="228" fill="#000" dy=".5ex" font-family="sans-serif" font-size="9.677" opacity="1" text-anchor="end">50.0</text><polyline fill="none" stroke="#000" stroke-width="1" points="81 228 86 228" opacity="1"/><text x="77" y="178" fill="#000" dy=".5ex" font-family="sans-serif" font-size="9.677" opacity="1" text-anchor="end">60.0</text><polyline fill="none" stroke="#000" stroke-width="1" points="81 178 86 178" opacity="1"/><text x="77" y="129" fill="#000" dy=".5ex" font-family="sans-serif" font-size="9.677" opacity="1" text-anchor="end">70.0</text><polyline fill="none" stroke="#000" stroke-width="1" points="81 129 86 129" opacity="1"/><text x="77" y="79" fill="#000" dy=".5ex" font-family="sans-serif" font-size="9.677" opacity="1" text-anchor="end">80.0</text><polyline fill="none" stroke="#000" stroke-width="1" points="81 79 86 79" opacity="1"/><polyline fill="none" stroke="#000" stroke-width="1" points="87 473 933 473" opacity="1"/><text x="159" y="483" fill="#000" dy=".76em" font-family="sans-serif" font-size="9.677" opacity="1" text-anchor="middle">0.5</text><polyline fill="none" stroke="#000" stroke-width="1" points="159 473 159 478" opacity="1"/><text x="239" y="483" fill="#000" dy=".76em" font-family="sans-serif" font-size="9.677" opacity="1" text-anchor="middle">1</text><polyline fill="none" stroke="#000" stroke-width="1" points="239 473 239 478" opacity="1"/><text x="320" y="483" fill="#000" dy=".76em" font-family="sans-serif" font-size="9.677" opacity="1" text-anchor="middle">1.5</text><polyline fill="none" stroke="#000" stroke-width="1" points="320 473 320 478" opacity="1"/><text x="400" y="483" fill="#000" dy=".76em" font-family="sans-serif" font-size="9.677" opacity="1" text-anchor="middle">2</text><polyline fill="none" stroke="#000" stroke-width="1" points="400 473 400 478" opacity="1"/><text x="481" y="483" fill="#000" dy=".76em" font-family="sans-serif" font-size="9.677" opacity="1" text-anchor="middle">2.5</text><polyline fill="none" stroke="#000" stroke-width="1" points="481 473 481 478" opacity="1"/><text x="562" y="483" fill="#000" dy=".76em" font-family="sans-serif" font-size="9.677" opacity="1" text-anchor="middle">3</text><polyline fill="none" stroke="#000" stroke-width="1" points="562 473 562 478" opacity="1"/><text x="642" y="483" fill="#000" dy=".76em" font-family="sans-serif" font-size="9.677" opacity="1" text-anchor="middle">3.5</text><polyline fill="none" stroke="#000" stroke-width="1" points="642 473 642 478" opacity="1"/><text x="723" y="483" fill="#000" dy=".76em" font-family="sans-serif" font-size="9.677" opacity="1" text-anchor="middle">4</text><polyline fill="none" stroke="#000" stroke-width="1" points="723 473 723 478" opacity="1"/><text x="804" y="483" fill="#000" dy=".76em" font-family="sans-serif" font-size="9.677" opacity="1" text-anchor="middle">4.5</text><polyline fill="none" stroke="#000" stroke-width="1" points="804 473 804 478" opacity="1"/><text x="884" y="483" fill="#000" dy=".76em" font-family="sans-serif" font-size="9.677" opacity="1" text-anchor="middle">5</text><polyline fill="none" stroke="#000" stroke-width="1" points="884 473 884 478" opacity="1"/><circle cx="87" cy="472" r="3" fill="#1F78B4" stroke="none" opacity="1"/><circle cx="95" cy="467" r="3" fill="#1F78B4" stroke="none" opacity="1"/><circle cx="104" cy="463" r="3" fill="#1F78B4" stroke="none" opacity="1"/><circle cx="112" cy="459" r="3" fill="#1F78B4" stroke="none" opacity="1"/><circle cx="121" cy="455" r="3" fill="#1F78B4" stroke="none" opacity="1"/><circle cx="129" cy="450" r="3" fill="#1F78B4" stroke="none" opacity="1"/><circle cx="138" cy="445" r="3" fill="#1F78B4" stroke="none" opacity="1"/><circle cx="146" cy="442" r="3" fill="#1F78B4" stroke="none" opacity="1"/><circle cx="155" cy="438" r="3" fill="#1F78B4" stroke="none" opacity="1"/><circle cx="163" cy="433" r="3" fill="#1F78B4" stroke="none" opacity="1"/><circle cx="172" cy="429" r="3" fill="#1F78B4" stroke="none" opacity="1"/><circle cx="181" cy="425" r="3" fill="#1F78B4" stroke="none" opacity="1"/><circle cx="189" cy="421" r="3" fill="#1F78B4" stroke="none" opacity="1"/><circle cx="198" cy="417" r="3" fill="#1F78B4" stroke="none" opacity="1"/><circle cx="206" cy="409" r="3" fill="#1F78B4" stroke="none" opacity="1"/><circle cx="215" cy="408" r="3" fill="#1F78B4" stroke="none" opacity="1"/><circle cx="223" cy="405" r="3" fill="#1F78B4" stroke="none" opacity="1"/><circle cx="232" cy="394" r="3" fill="#1F78B4" stroke="none" opacity="1"/><circle cx="240" cy="396" r="3" fill="#1F78B4" stroke="none" opacity="1"/><circle cx="249" cy="391" r="3" fill="#1F78B4" stroke="none" opacity="1"/><circle cx="257" cy="388" r="3" fill="#1F78B4" stroke="none" opacity="1"/><circle cx="266" cy="376" r="3" fill="#1F78B4" stroke="none" opacity="1"/><circle cx="275" cy="379" r="3" fill="#1F78B4" stroke="none" opacity="1"/><circle cx="283" cy="375" r="3" fill="#1F78B4" stroke="none" opacity="1"/><circle cx="292" cy="372" r="3" fill="#1F78B4" stroke="none" opacity="1"/><circle cx="300" cy="367" r="3" fill="#1F78B4" stroke="none" opacity="1"/><circle cx="309" cy="364" r="3" fill="#1F78B4" stroke="none" opacity="1"/><circle cx="317" cy="359" r="3" fill="#1F78B4" stroke="none" opacity="1"/><circle cx="326" cy="353" r="3" fill="#1F78B4" stroke="none" opacity="1"/><circle cx="334" cy="340" r="3" fill="#1F78B4" stroke="none" opacity="1"/><circle cx="343" cy="343" r="3" fill="#1F78B4" stroke="none" opacity="1"/><circle cx="351" cy="341" r="3" fill="#1F78B4" stroke="none" opacity="1"/><circle cx="360" cy="337" r="3" fill="#1F78B4" stroke="none" opacity="1"/><circle cx="369" cy="332" r="3" fill="#1F78B4" stroke="none" opacity="1"/><circle cx="377" cy="297" r="3" fill="#1F78B4" stroke="none" opacity="1"/><circle cx="386" cy="314" r="3" fill="#1F78B4" stroke="none" opacity="1"/><circle cx="394" cy="322" r="3" fill="#1F78B4" stroke="none" opacity="1"/><circle cx="403" cy="317" r="3" fill="#1F78B4" stroke="none" opacity="1"/><circle cx="411" cy="311" r="3" fill="#1F78B4" stroke="none" opacity="1"/><circle cx="420" cy="306" r="3" fill="#1F78B4" stroke="none" opacity="1"/><circle cx="428" cy="291" r="3" fill="#1F78B4" stroke="none" opacity="1"/><circle cx="437" cy="300" r="3" fill="#1F78B4" stroke="none" opacity="1"/><circle cx="445" cy="299" r="3" fill="#1F78B4" stroke="none" opacity="1"/><circle cx="454" cy="279" r="3" fill="#1F78B4" stroke="none" opacity="1"/><circle cx="463" cy="290" r="3" fill="#1F78B4" stroke="none" opacity="1"/><circle cx="471" cy="284" r="3" fill="#1F78B4" stroke="none" opacity="1"/><circle cx="480" cy="282" r="3" fill="#1F78B4" stroke="none" opacity="1"/><circle cx="488" cy="277" r="3" fill="#1F78B4" stroke="none" opacity="1"/><circle cx="497" cy="273" r="3" fill="#1F78B4" stroke="none" opacity="1"/><circle cx="505" cy="268" r="3" fill="#1F78B4" stroke="none" opacity="1"/><circle cx="514" cy="195" r="3" fill="#1F78B4" stroke="none" opacity="1"/><circle cx="522" cy="244" r="3" fill="#1F78B4" stroke="none" opacity="1"/><circle cx="531" cy="255" r="3" fill="#1F78B4" stroke="none" opacity="1"/><circle cx="539" cy="251" r="3" fill="#1F78B4" stroke="none" opacity="1"/><circle cx="548" cy="244" r="3" fill="#1F78B4" stroke="none" opacity="1"/><circle cx="557" cy="225" r="3" fill="#1F78B4" stroke="none" opacity="1"/><circle cx="565" cy="240" r="3" fill="#1F78B4" stroke="none" opacity="1"/><circle cx="574" cy="232" r="3" fill="#1F78B4" stroke="none" opacity="1"/><circle cx="582" cy="211" r="3" fill="#1F78B4" stroke="none" opacity="1"/><circle cx="591" cy="208" r="3" fill="#1F78B4" stroke="none" opacity="1"/><circle cx="599" cy="224" r="3" fill="#1F78B4" stroke="none" opacity="1"/><circle cx="608" cy="219" r="3" fill="#1F78B4" stroke="none" opacity="1"/><circle cx="616" cy="195" r="3" fill="#1F78B4" stroke="none" opacity="1"/><circle cx="625" cy="213" r="3" fill="#1F78B4" stroke="none" opacity="1"/><circle cx="633" cy="204" r="3" fill="#1F78B4" stroke="none" opacity="1"/><circle cx="642" cy="202" r="3" fill="#1F78B4" stroke="none" opacity="1"/><circle cx="651" cy="199" r="3" fill="#1F78B4" stroke="none" opacity="1"/><circle cx="659" cy="194" r="3" fill="#1F78B4" stroke="none" opacity="1"/><circle cx="668" cy="190" r="3" fill="#1F78B4" stroke="none" opacity="1"/><circle cx="676" cy="164" r="3" fill="#1F78B4" stroke="none" opacity="1"/><circle cx="685" cy="182" r="3" fill="#1F78B4" stroke="none" opacity="1"/><circle cx="693" cy="178" r="3" fill="#1F78B4" stroke="none" opacity="1"/><circle cx="702" cy="122" r="3" fill="#1F78B4" stroke="none" opacity="1"/><circle cx="710" cy="168" r="3" fill="#1F78B4" stroke="none" opacity="1"/><circle cx="719" cy="167" r="3" fill="#1F78B4" stroke="none" opacity="1"/><circle cx="727" cy="163" r="3" fill="#1F78B4" stroke="none" opacity="1"/><circle cx="736" cy="152" r="3" fill="#1F78B4" stroke="none" opacity="1"/><circle cx="745" cy="127" r="3" fill="#1F78B4" stroke="none" opacity="1"/><circle cx="753" cy="151" r="3" fill="#1F78B4" stroke="none" opacity="1"/><circle cx="762" cy="147" r="3" fill="#1F78B4" stroke="none" opacity="1"/><circle cx="770" cy="114" r="3" fill="#1F78B4" stroke="none" opacity="1"/><circle cx="779" cy="86" r="3" fill="#1F78B4" stroke="none" opacity="1"/><circle cx="787" cy="134" r="3" fill="#1F78B4" stroke="none" opacity="1"/><circle cx="796" cy="129" r="3" fill="#1F78B4" stroke="none" opacity="1"/><circle cx="804" cy="126" r="3" fill="#1F78B4" stroke="none" opacity="1"/><circle cx="813" cy="120" r="3" fill="#1F78B4" stroke="none" opacity="1"/><circle cx="821" cy="111" r="3" fill="#1F78B4" stroke="none" opacity="1"/><circle cx="830" cy="113" r="3" fill="#1F78B4" stroke="none" opacity="1"/><circle cx="839" cy="110" r="3" fill="#1F78B4" stroke="none" opacity="1"/><circle cx="847" cy="53" r="3" fill="#1F78B4" stroke="none" opacity="1"/><circle cx="856" cy="100" r="3" fill="#1F78B4" stroke="none" opacity="1"/><circle cx="864" cy="89" r="3" fill="#1F78B4" stroke="none" opacity="1"/><circle cx="873" cy="92" r="3" fill="#1F78B4" stroke="none" opacity="1"/><circle cx="881" cy="86" r="3" fill="#1F78B4" stroke="none" opacity="1"/><circle cx="890" cy="77" r="3" fill="#1F78B4" stroke="none" opacity="1"/><circle cx="898" cy="83" r="3" fill="#1F78B4" stroke="none" opacity="1"/><circle cx="907" cy="72" r="3" fill="#1F78B4" stroke="none" opacity="1"/><circle cx="915" cy="64" r="3" fill="#1F78B4" stroke="none" opacity="1"/><circle cx="924" cy="61" r="3" fill="#1F78B4" stroke="none" opacity="1"/><circle cx="933" cy="59" r="3" fill="#1F78B4" stroke="none" opacity="1"/><polyline fill="none" stroke="#1F78B4" stroke-width="1" points="87 473 933 53" opacity="1"/><polygon fill="#1F78B4" points="87 473 933 56 933 53" opacity=".25"/><text x="132" y="68" fill="#000" dy=".76em" font-family="sans-serif" font-size="9.677" opacity="1" text-anchor="start">Sample</text><text x="132" y="83" fill="#000" dy=".76em" font-family="sans-serif" font-size="9.677" opacity="1" text-anchor="start">Linear regression</text><text x="132" y="98" fill="#000" dy=".76em" font-family="sans-serif" font-size="9.677" opacity="1" text-anchor="start">Confidence interval</text><circle cx="112" cy="73" r="3" fill="#1F78B4" stroke="none" opacity="1"/><polyline fill="none" stroke="#1F78B4" stroke-width="2" points="102 88 122 88" opacity="1"/><rect width="20" height="10" x="102" y="98" fill="#1F78B4" stroke="none" opacity=".25"/></svg>