<svg xmlns="http://www.w3.org/2000/svg" width="450" height="300"><text x="15" y="130" fill="#000" dy=".76em" font-family="sans-serif" font-size="9.677" opacity="1" text-anchor="middle" transform="rotate(270, 15, 130)">Total sample time (ms)</text><text x="255" y="285" fill="#000" dy="-.5ex" font-family="sans-serif" font-size="9.677" opacity="1" text-anchor="middle">Iterations (x 10^3)</text><line x1="105" x2="105" y1="244" y2="14" stroke="#000" stroke-width="1" opacity=".2"/><line x1="139" x2="139" y1="244" y2="14" stroke="#000" stroke-width="1" opacity=".2"/><line x1="174" x2="174" y1="244" y2="14" stroke="#000" stroke-width="1" opacity=".2"/><line x1="208" x2="208" y1="244" y2="14" stroke="#000" stroke-width="1" opacity=".2"/><line x1="242" x2="242" y1="244" y2="14" stroke="#000" stroke-width="1" opacity=".2"/><line x1="277" x2="277" y1="244" y2="14" stroke="#000" stroke-width="1" opacity=".2"/><line x1="311" x2="311" y1="244" y2="14" stroke="#000" stroke-width="1" opacity=".2"/><line x1="345" x2="345" y1="244" y2="14" stroke="#000" stroke-width="1" opacity=".2"/><line x1="380" x2="380" y1="244" y2="14" stroke="#000" stroke-width="1" opacity=".2"/><line x1="414" x2="414" y1="244" y2="14" stroke="#000" stroke-width="1" opacity=".2"/><line x1="75" x2="435" y1="219" y2="219" stroke="#000" stroke-width="1" opacity=".2"/><line x1="75" x2="435" y1="192" y2="192" stroke="#000" stroke-width="1" opacity=".2"/><line x1="75" x2="435" y1="164" y2="164" stroke="#000" stroke-width="1" opacity=".2"/><line x1="75" x2="435" y1="137" y2="137" stroke="#000" stroke-width="1" opacity=".2"/><line x1="75" x2="435" y1="110" y2="110" stroke="#000" stroke-width="1" opacity=".2"/><line x1="75" x2="435" y1="83" y2="83" stroke="#000" stroke-width="1" opacity=".2"/><line x1="75" x2="435" y1="56" y2="56" stroke="#000" stroke-width="1" opacity=".2"/><line x1="75" x2="435" y1="29" y2="29" stroke="#000" stroke-width="1" opacity=".2"/><polyline fill="none" stroke="#000" stroke-width="1" points="74 15 74 245" opacity="1"/><text x="65" y="219" fill="#000" dy=".5ex" font-family="sans-serif" font-size="9.677" opacity="1" text-anchor="end">10.0</text><polyline fill="none" stroke="#000" stroke-width="1" points="69 219 74 219" opacity="1"/><text x="65" y="192" fill="#000" dy=".5ex" font-family="sans-serif" font-size="9.677" opacity="1" text-anchor="end">20.0</text><polyline fill="none" stroke="#000" stroke-width="1" points="69 192 74 192" opacity="1"/><text x="65" y="164" fill="#000" dy=".5ex" font-family="sans-serif" font-size="9.677" opacity="1" text-anchor="end">30.0</text><polyline fill="none" stroke="#000" stroke-width="1" points="69 164 74 164" opacity="1"/><text x="65" y="137" fill="#000" dy=".5ex" font-family="sans-serif" font-size="9.677" opacity="1" text-anchor="end">40.0</text><polyline fill="none" stroke="#000" stroke-width="1" points="69 137 74 137" opacity="1"/><text x="65" y="110" fill="#000" dy=".5ex" font-family="sans-serif" font-size="9.677" opacity="1" text-anchor="end">50.0</text><polyline fill="none" stroke="#000" stroke-width="1" points="69 110 74 110" opacity="1"/><text x="65" y="83" fill="#000" dy=".5ex" font-family="sans-serif" font-size="9.677" opacity="1" text-anchor="end">60.0</text><polyline fill="none" stroke="#000" stroke-width="1" points="69 83 74 83" opacity="1"/><text x="65" y="56" fill="#000" dy=".5ex" font-family="sans-serif" font-size="9.677" opacity="1" text-anchor="end">70.0</text><polyline fill="none" stroke="#000" stroke-width="1" points="69 56 74 56" opacity="1"/><text x="65" y="29" fill="#000" dy=".5ex" font-family="sans-serif" font-size="9.677" opacity="1" text-anchor="end">80.0</text><polyline fill="none" stroke="#000" stroke-width="1" points="69 29 74 29" opacity="1"/><polyline fill="none" stroke="#000" stroke-width="1" points="75 245 435 245" opacity="1"/><text x="105" y="255" fill="#000" dy=".76em" font-family="sans-serif" font-size="9.677" opacity="1" text-anchor="middle">0.5</text><polyline fill="none" stroke="#000" stroke-width="1" points="105 245 105 250" opacity="1"/><text x="139" y="255" fill="#000" dy=".76em" font-family="sans-serif" font-size="9.677" opacity="1" text-anchor="middle">1</text><polyline fill="none" stroke="#000" stroke-width="1" points="139 245 139 250" opacity="1"/><text x="174" y="255" fill="#000" dy=".76em" font-family="sans-serif" font-size="9.677" opacity="1" text-anchor="middle">1.5</text><polyline fill="none" stroke="#000" stroke-width="1" points="174 245 174 250" opacity="1"/><text x="208" y="255" fill="#000" dy=".76em" font-family="sans-serif" font-size="9.677" opacity="1" text-anchor="middle">2</text><polyline fill="none" stroke="#000" stroke-width="1" points="208 245 208 250" opacity="1"/><text x="242" y="255" fill="#000" dy=".76em" font-family="sans-serif" font-size="9.677" opacity="1" text-anchor="middle">2.5</text><polyline fill="none" stroke="#000" stroke-width="1" points="242 245 242 250" opacity="1"/><text x="277" y="255" fill="#000" dy=".76em" font-family="sans-serif" font-size="9.677" opacity="1" text-anchor="middle">3</text><polyline fill="none" stroke="#000" stroke-width="1" points="277 245 277 250" opacity="1"/><text x="311" y="255" fill="#000" dy=".76em" font-family="sans-serif" font-size="9.677" opacity="1" text-anchor="middle">3.5</text><polyline fill="none" stroke="#000" stroke-width="1" points="311 245 311 250" opacity="1"/><text x="345" y="255" fill="#000" dy=".76em" font-family="sans-serif" font-size="9.677" opacity="1" text-anchor="middle">4</text><polyline fill="none" stroke="#000" stroke-width="1" points="345 245 345 250" opacity="1"/><text x="380" y="255" fill="#000" dy=".76em" font-family="sans-serif" font-size="9.677" opacity="1" text-anchor="middle">4.5</text><polyline fill="none" stroke="#000" stroke-width="1" points="380 245 380 250" opacity="1"/><text x="414" y="255" fill="#000" dy=".76em" font-family="sans-serif" font-size="9.677" opacity="1" text-anchor="middle">5</text><polyline fill="none" stroke="#000" stroke-width="1" points="414 245 414 250" opacity="1"/><circle cx="75" cy="244" r="3" fill="#1F78B4" stroke="none" opacity="1"/><circle cx="78" cy="241" r="3" fill="#1F78B4" stroke="none" opacity="1"/><circle cx="82" cy="239" r="3" fill="#1F78B4" stroke="none" opacity="1"/><circle cx="85" cy="236" r="3" fill="#1F78B4" stroke="none" opacity="1"/><circle cx="89" cy="234" r="3" fill="#1F78B4" stroke="none" opacity="1"/><circle cx="93" cy="232" r="3" fill="#1F78B4" stroke="none" opacity="1"/><circle cx="96" cy="229" r="3" fill="#1F78B4" stroke="none" opacity="1"/><circle cx="100" cy="227" r="3" fill="#1F78B4" stroke="none" opacity="1"/><circle cx="104" cy="225" r="3" fill="#1F78B4" stroke="none" opacity="1"/><circle cx="107" cy="223" r="3" fill="#1F78B4" stroke="none" opacity="1"/><circle cx="111" cy="220" r="3" fill="#1F78B4" stroke="none" opacity="1"/><circle cx="115" cy="218" r="3" fill="#1F78B4" stroke="none" opacity="1"/><circle cx="118" cy="216" r="3" fill="#1F78B4" stroke="none" opacity="1"/><circle cx="122" cy="214" r="3" fill="#1F78B4" stroke="none" opacity="1"/><circle cx="125" cy="209" r="3" fill="#1F78B4" stroke="none" opacity="1"/><circle cx="129" cy="209" r="3" fill="#1F78B4" stroke="none" opacity="1"/><circle cx="133" cy="207" r="3" fill="#1F78B4" stroke="none" opacity="1"/><circle cx="136" cy="201" r="3" fill="#1F78B4" stroke="none" opacity="1"/><circle cx="140" cy="202" r="3" fill="#1F78B4" stroke="none" opacity="1"/><circle cx="144" cy="200" r="3" fill="#1F78B4" stroke="none" opacity="1"/><circle cx="147" cy="198" r="3" fill="#1F78B4" stroke="none" opacity="1"/><circle cx="151" cy="191" r="3" fill="#1F78B4" stroke="none" opacity="1"/><circle cx="155" cy="193" r="3" fill="#1F78B4" stroke="none" opacity="1"/><circle cx="158" cy="191" r="3" fill="#1F78B4" stroke="none" opacity="1"/><circle cx="162" cy="189" r="3" fill="#1F78B4" stroke="none" opacity="1"/><circle cx="165" cy="186" r="3" fill="#1F78B4" stroke="none" opacity="1"/><circle cx="169" cy="185" r="3" fill="#1F78B4" stroke="none" opacity="1"/><circle cx="173" cy="182" r="3" fill="#1F78B4" stroke="none" opacity="1"/><circle cx="176" cy="179" r="3" fill="#1F78B4" stroke="none" opacity="1"/><circle cx="180" cy="171" r="3" fill="#1F78B4" stroke="none" opacity="1"/><circle cx="184" cy="173" r="3" fill="#1F78B4" stroke="none" opacity="1"/><circle cx="187" cy="172" r="3" fill="#1F78B4" stroke="none" opacity="1"/><circle cx="191" cy="170" r="3" fill="#1F78B4" stroke="none" opacity="1"/><circle cx="195" cy="167" r="3" fill="#1F78B4" stroke="none" opacity="1"/><circle cx="198" cy="148" r="3" fill="#1F78B4" stroke="none" opacity="1"/><circle cx="202" cy="157" r="3" fill="#1F78B4" stroke="none" opacity="1"/><circle cx="205" cy="162" r="3" fill="#1F78B4" stroke="none" opacity="1"/><circle cx="209" cy="159" r="3" fill="#1F78B4" stroke="none" opacity="1"/><circle cx="213" cy="155" r="3" fill="#1F78B4" stroke="none" opacity="1"/><circle cx="216" cy="153" r="3" fill="#1F78B4" stroke="none" opacity="1"/><circle cx="220" cy="145" r="3" fill="#1F78B4" stroke="none" opacity="1"/><circle cx="224" cy="150" r="3" fill="#1F78B4" stroke="none" opacity="1"/><circle cx="227" cy="149" r="3" fill="#1F78B4" stroke="none" opacity="1"/><circle cx="231" cy="138" r="3" fill="#1F78B4" stroke="none" opacity="1"/><circle cx="235" cy="144" r="3" fill="#1F78B4" stroke="none" opacity="1"/><circle cx="238" cy="141" r="3" fill="#1F78B4" stroke="none" opacity="1"/><circle cx="242" cy="140" r="3" fill="#1F78B4" stroke="none" opacity="1"/><circle cx="245" cy="137" r="3" fill="#1F78B4" stroke="none" opacity="1"/><circle cx="249" cy="135" r="3" fill="#1F78B4" stroke="none" opacity="1"/><circle cx="253" cy="132" r="3" fill="#1F78B4" stroke="none" opacity="1"/><circle cx="256" cy="92" r="3" fill="#1F78B4" stroke="none" opacity="1"/><circle cx="260" cy="119" r="3" fill="#1F78B4" stroke="none" opacity="1"/><circle cx="264" cy="125" r="3" fill="#1F78B4" stroke="none" opacity="1"/><circle cx="267" cy="123" r="3" fill="#1F78B4" stroke="none" opacity="1"/><circle cx="271" cy="119" r="3" fill="#1F78B4" stroke="none" opacity="1"/><circle cx="275" cy="108" r="3" fill="#1F78B4" stroke="none" opacity="1"/><circle cx="278" cy="117" r="3" fill="#1F78B4" stroke="none" opacity="1"/><circle cx="282" cy="112" r="3" fill="#1F78B4" stroke="none" opacity="1"/><circle cx="285" cy="101" r="3" fill="#1F78B4" stroke="none" opacity="1"/><circle cx="289" cy="99" r="3" fill="#1F78B4" stroke="none" opacity="1"/><circle cx="293" cy="108" r="3" fill="#1F78B4" stroke="none" opacity="1"/><circle cx="296" cy="105" r="3" fill="#1F78B4" stroke="none" opacity="1"/><circle cx="300" cy="92" r="3" fill="#1F78B4" stroke="none" opacity="1"/><circle cx="304" cy="102" r="3" fill="#1F78B4" stroke="none" opacity="1"/><circle cx="307" cy="97" r="3" fill="#1F78B4" stroke="none" opacity="1"/><circle cx="311" cy="96" r="3" fill="#1F78B4" stroke="none" opacity="1"/><circle cx="315" cy="94" r="3" fill="#1F78B4" stroke="none" opacity="1"/><circle cx="318" cy="92" r="3" fill="#1F78B4" stroke="none" opacity="1"/><circle cx="322" cy="89" r="3" fill="#1F78B4" stroke="none" opacity="1"/><circle cx="325" cy="75" r="3" fill="#1F78B4" stroke="none" opacity="1"/><circle cx="329" cy="85" r="3" fill="#1F78B4" stroke="none" opacity="1"/><circle cx="333" cy="83" r="3" fill="#1F78B4" stroke="none" opacity="1"/><circle cx="336" cy="52" r="3" fill="#1F78B4" stroke="none" opacity="1"/><circle cx="340" cy="77" r="3" fill="#1F78B4" stroke="none" opacity="1"/><circle cx="344" cy="77" r="3" fill="#1F78B4" stroke="none" opacity="1"/><circle cx="347" cy="75" r="3" fill="#1F78B4" stroke="none" opacity="1"/><circle cx="351" cy="68" r="3" fill="#1F78B4" stroke="none" opacity="1"/><circle cx="355" cy="55" r="3" fill="#1F78B4" stroke="none" opacity="1"/><circle cx="358" cy="68" r="3" fill="#1F78B4" stroke="none" opacity="1"/><circle cx="362" cy="66" r="3" fill="#1F78B4" stroke="none" opacity="1"/><circle cx="365" cy="48" r="3" fill="#1F78B4" stroke="none" opacity="1"/><circle cx="369" cy="32" r="3" fill="#1F78B4" stroke="none" opacity="1"/><circle cx="373" cy="59" r="3" fill="#1F78B4" stroke="none" opacity="1"/><circle cx="376" cy="56" r="3" fill="#1F78B4" stroke="none" opacity="1"/><circle cx="380" cy="54" r="3" fill="#1F78B4" stroke="none" opacity="1"/><circle cx="384" cy="51" r="3" fill="#1F78B4" stroke="none" opacity="1"/><circle cx="387" cy="46" r="3" fill="#1F78B4" stroke="none" opacity="1"/><circle cx="391" cy="47" r="3" fill="#1F78B4" stroke="none" opacity="1"/><circle cx="395" cy="45" r="3" fill="#1F78B4" stroke="none" opacity="1"/><circle cx="398" cy="15" r="3" fill="#1F78B4" stroke="none" opacity="1"/><circle cx="402" cy="40" r="3" fill="#1F78B4" stroke="none" opacity="1"/><circle cx="405" cy="34" r="3" fill="#1F78B4" stroke="none" opacity="1"/><circle cx="409" cy="36" r="3" fill="#1F78B4" stroke="none" opacity="1"/><circle cx="413" cy="32" r="3" fill="#1F78B4" stroke="none" opacity="1"/><circle cx="416" cy="28" r="3" fill="#1F78B4" stroke="none" opacity="1"/><circle cx="420" cy="31" r="3" fill="#1F78B4" stroke="none" opacity="1"/><circle cx="424" cy="25" r="3" fill="#1F78B4" stroke="none" opacity="1"/><circle cx="427" cy="20" r="3" fill="#1F78B4" stroke="none" opacity="1"/><circle cx="431" cy="19" r="3" fill="#1F78B4" stroke="none" opacity="1"/><circle cx="435" cy="18" r="3" fill="#1F78B4" stroke="none" opacity="1"/><polyline fill="none" stroke="#1F78B4" stroke-width="1" points="75 245 435 15" opacity="1"/><polygon fill="#1F78B4" points="75 245 435 16 435 15" opacity=".25"/></svg>