<svg xmlns="http://www.w3.org/2000/svg" width="960" height="540"><text x="480" y="32" fill="#000" dy=".76em" font-family="sans-serif" font-size="16.129" opacity="1" text-anchor="middle">bench_group/blake3/786432</text><text x="27" y="263" fill="#000" dy=".76em" font-family="sans-serif" font-size="9.677" opacity="1" text-anchor="middle" transform="rotate(270, 27, 263)">Iterations</text><text x="480" y="513" fill="#000" dy="-.5ex" font-family="sans-serif" font-size="9.677" opacity="1" text-anchor="middle">Average Time (us)</text><polyline fill="none" stroke="#000" stroke-width="1" points="86 53 86 473" opacity="1"/><text x="77" y="419" fill="#000" dy=".5ex" font-family="sans-serif" font-size="9.677" opacity="1" text-anchor="end">100</text><polyline fill="none" stroke="#000" stroke-width="1" points="81 419 86 419" opacity="1"/><text x="77" y="367" fill="#000" dy=".5ex" font-family="sans-serif" font-size="9.677" opacity="1" text-anchor="end">200</text><polyline fill="none" stroke="#000" stroke-width="1" points="81 367 86 367" opacity="1"/><text x="77" y="314" fill="#000" dy=".5ex" font-family="sans-serif" font-size="9.677" opacity="1" text-anchor="end">300</text><polyline fill="none" stroke="#000" stroke-width="1" points="81 314 86 314" opacity="1"/><text x="77" y="262" fill="#000" dy=".5ex" font-family="sans-serif" font-size="9.677" opacity="1" text-anchor="end">400</text><polyline fill="none" stroke="#000" stroke-width="1" points="81 262 86 262" opacity="1"/><text x="77" y="209" fill="#000" dy=".5ex" font-family="sans-serif" font-size="9.677" opacity="1" text-anchor="end">500</text><polyline fill="none" stroke="#000" stroke-width="1" points="81 209 86 209" opacity="1"/><text x="77" y="157" fill="#000" dy=".5ex" font-family="sans-serif" font-size="9.677" opacity="1" text-anchor="end">600</text><polyline fill="none" stroke="#000" stroke-width="1" points="81 157 86 157" opacity="1"/><text x="77" y="104" fill="#000" dy=".5ex" font-family="sans-serif" font-size="9.677" opacity="1" text-anchor="end">700</text><polyline fill="none" stroke="#000" stroke-width="1" points="81 104 86 104" opacity="1"/><polyline fill="none" stroke="#000" stroke-width="1" points="87 473 873 473" opacity="1"/><text x="208" y="483" fill="#000" dy=".76em" font-family="sans-serif" font-size="9.677" opacity="1" text-anchor="middle">128</text><polyline fill="none" stroke="#000" stroke-width="1" points="208 473 208 478" opacity="1"/><text x="342" y="483" fill="#000" dy=".76em" font-family="sans-serif" font-size="9.677" opacity="1" text-anchor="middle">129</text><polyline fill="none" stroke="#000" stroke-width="1" points="342 473 342 478" opacity="1"/><text x="477" y="483" fill="#000" dy=".76em" font-family="sans-serif" font-size="9.677" opacity="1" text-anchor="middle">130</text><polyline fill="none" stroke="#000" stroke-width="1" points="477 473 477 478" opacity="1"/><text x="612" y="483" fill="#000" dy=".76em" font-family="sans-serif" font-size="9.677" opacity="1" text-anchor="middle">131</text><polyline fill="none" stroke="#000" stroke-width="1" points="612 473 612 478" opacity="1"/><text x="747" y="483" fill="#000" dy=".76em" font-family="sans-serif" font-size="9.677" opacity="1" text-anchor="middle">132</text><polyline fill="none" stroke="#000" stroke-width="1" points="747 473 747 478" opacity="1"/><text x="933" y="263" fill="#000" dy=".76em" font-family="sans-serif" font-size="9.677" opacity="1" text-anchor="middle" transform="rotate(90, 933, 263)">Density (a.u.)</text><polyline fill="none" stroke="#000" stroke-width="1" points="873 54 873 473" opacity="1"/><text x="883" y="416" fill="#000" dy=".5ex" font-family="sans-serif" font-size="9.677" opacity="1" text-anchor="start">0.2</text><polyline fill="none" stroke="#000" stroke-width="1" points="873 416 878 416" opacity="1"/><text x="883" y="360" fill="#000" dy=".5ex" font-family="sans-serif" font-size="9.677" opacity="1" text-anchor="start">0.4</text><polyline fill="none" stroke="#000" stroke-width="1" points="873 360 878 360" opacity="1"/><text x="883" y="304" fill="#000" dy=".5ex" font-family="sans-serif" font-size="9.677" opacity="1" text-anchor="start">0.6</text><polyline fill="none" stroke="#000" stroke-width="1" points="873 304 878 304" opacity="1"/><text x="883" y="248" fill="#000" dy=".5ex" font-family="sans-serif" font-size="9.677" opacity="1" text-anchor="start">0.8</text><polyline fill="none" stroke="#000" stroke-width="1" points="873 248 878 248" opacity="1"/><text x="883" y="192" fill="#000" dy=".5ex" font-family="sans-serif" font-size="9.677" opacity="1" text-anchor="start">1</text><polyline fill="none" stroke="#000" stroke-width="1" points="873 192 878 192" opacity="1"/><text x="883" y="136" fill="#000" dy=".5ex" font-family="sans-serif" font-size="9.677" opacity="1" text-anchor="start">1.2</text><polyline fill="none" stroke="#000" stroke-width="1" points="873 136 878 136" opacity="1"/><text x="883" y="80" fill="#000" dy=".5ex" font-family="sans-serif" font-size="9.677" opacity="1" text-anchor="start">1.4</text><polyline fill="none" stroke="#000" stroke-width="1" points="873 80 878 80" opacity="1"/><polygon fill="#1F78B4" points="87 471 88 471 90 471 91 470 93 470 94 470 96 469 98 469 99 468 101 467 102 467 104 466 105 465 107 464 109 462 110 461 112 460 113 458 115 456 116 454 118 452 120 449 121 446 123 443 124 440 126 436 127 432 129 428 131 423 132 418 134 413 135 407 137 401 138 394 140 387 142 380 143 372 145 364 146 355 148 346 150 336 151 326 153 316 154 306 156 295 157 284 159 272 161 261 162 249 164 237 165 225 167 213 168 201 170 189 172 178 173 166 175 155 176 144 178 133 179 123 181 113 183 104 184 96 186 88 187 81 189 74 190 69 192 64 194 60 195 57 197 54 198 53 200 53 201 53 203 54 205 56 206 59 208 63 209 68 211 73 213 79 214 86 216 94 217 102 219 111 220 120 222 129 224 139 225 149 227 160 228 171 230 182 231 193 233 204 235 215 236 226 238 237 239 247 241 258 242 269 244 279 246 289 247 298 249 308 250 317 252 326 253 334 255 342 257 350 258 357 260 364 261 371 263 377 264 383 266 389 268 394 269 399 271 404 272 409 274 413 276 417 277 421 279 424 280 427 282 430 283 433 285 436 287 439 288 441 290 443 291 445 293 447 294 449 296 450 298 452 299 454 301 455 302 456 304 457 305 459 307 460 309 461 310 461 312 462 313 463 315 464 316 465 318 465 320 466 321 466 323 467 324 467 326 468 327 468 329 469 331 469 332 469 334 470 335 470 337 470 339 470 340 471 342 471 343 471 345 471 346 471 348 471 350 472 351 472 353 472 354 472 356 472 357 472 359 472 361 472 362 472 364 472 365 472 367 472 368 472 370 472 372 472 373 472 375 472 376 472 378 472 379 472 381 472 383 472 384 472 386 472 387 472 389 472 391 472 392 472 394 472 395 472 397 472 398 472 400 472 402 472 403 472 405 472 406 472 408 472 409 472 411 472 413 472 414 472 416 472 417 473 419 473 420 473 422 473 424 473 425 473 427 473 428 473 430 473 431 473 433 473 435 473 436 473 438 473 439 473 441 473 442 473 444 473 446 473 447 473 449 473 450 473 452 473 454 473 455 473 457 473 458 473 460 473 461 473 463 473 465 473 466 473 468 473 469 473 471 473 472 473 474 473 476 473 477 473 479 473 480 473 482 473 483 473 485 473 487 473 488 473 490 473 491 473 493 473 494 473 496 473 498 473 499 473 501 473 502 473 504 473 505 473 507 473 509 473 510 473 512 473 513 473 515 473 517 473 518 473 520 473 521 473 523 473 524 473 526 473 528 473 529 473 531 473 532 473 534 473 535 473 537 473 539 473 540 473 542 473 543 473 545 473 546 473 548 473 550 473 551 473 553 473 554 473 556 473 557 473 559 473 561 473 562 473 564 473 565 473 567 473 568 473 570 473 572 473 573 473 575 473 576 472 578 472 580 472 581 472 583 472 584 472 586 472 587 472 589 472 591 472 592 472 594 472 595 472 597 472 598 472 600 472 602 472 603 472 605 472 606 472 608 472 609 472 611 472 613 472 614 472 616 472 617 472 619 472 620 472 622 472 624 472 625 472 627 472 628 472 630 472 632 472 633 472 635 472 636 472 638 472 639 472 641 472 643 472 644 472 646 472 647 472 649 472 650 472 652 472 654 471 655 471 657 471 658 471 660 471 661 471 663 471 665 471 666 471 668 470 669 470 671 470 672 470 674 470 676 470 677 470 679 469 680 469 682 469 683 469 685 469 687 469 688 469 690 468 691 468 693 468 695 468 696 468 698 468 699 468 701 468 702 468 704 468 706 467 707 467 709 467 710 467 712 467 713 467 715 467 717 467 718 467 720 467 721 467 723 467 724 467 726 467 728 467 729 467 731 467 732 467 734 467 735 467 737 467 739 467 740 467 742 467 743 467 745 467 746 467 748 467 750 467 751 467 753 467 754 467 756 467 758 467 759 467 761 467 762 467 764 467 765 467 767 467 769 467 770 467 772 467 773 467 775 467 776 467 778 467 780 467 781 468 783 468 784 468 786 468 787 468 789 468 791 468 792 468 794 468 795 469 797 469 798 469 800 469 802 469 803 469 805 469 806 470 808 470 809 470 811 470 813 470 814 470 816 470 817 471 819 471 821 471 822 471 824 471 825 471 827 471 828 471 830 471 832 471 833 472 835 472 836 472 838 472 839 472 841 472 843 472 844 472 846 472 847 472 849 472 850 472 852 472 854 472 855 472 857 472 858 472 860 472 861 472 863 472 865 472 866 472 868 472 869 472 871 472 873 472 873 473 87 473" opacity=".5"/><polyline fill="none" stroke="#1F78B4" stroke-width="1" points="214 472 214 53" opacity="1"/><polyline fill="none" stroke="#FF7F00" stroke-width="1" points="188 472 188 53" opacity="1"/><polyline fill="none" stroke="#FF7F00" stroke-width="1" points="211 472 211 53" opacity="1"/><polyline fill="none" stroke="#E31A1C" stroke-width="1" points="180 472 180 53" opacity="1"/><polyline fill="none" stroke="#E31A1C" stroke-width="1" points="219 472 219 53" opacity="1"/><circle cx="199" cy="451" r="3" fill="#1F78B4" stroke="none" opacity="1"/><circle cx="199" cy="438" r="3" fill="#1F78B4" stroke="none" opacity="1"/><circle cx="203" cy="434" r="3" fill="#1F78B4" stroke="none" opacity="1"/><circle cx="189" cy="430" r="3" fill="#1F78B4" stroke="none" opacity="1"/><circle cx="204" cy="417" r="3" fill="#1F78B4" stroke="none" opacity="1"/><circle cx="194" cy="413" r="3" fill="#1F78B4" stroke="none" opacity="1"/><circle cx="193" cy="409" r="3" fill="#1F78B4" stroke="none" opacity="1"/><circle cx="195" cy="404" r="3" fill="#1F78B4" stroke="none" opacity="1"/><circle cx="195" cy="400" r="3" fill="#1F78B4" stroke="none" opacity="1"/><circle cx="202" cy="396" r="3" fill="#1F78B4" stroke="none" opacity="1"/><circle cx="207" cy="392" r="3" fill="#1F78B4" stroke="none" opacity="1"/><circle cx="204" cy="388" r="3" fill="#1F78B4" stroke="none" opacity="1"/><circle cx="203" cy="383" r="3" fill="#1F78B4" stroke="none" opacity="1"/><circle cx="198" cy="379" r="3" fill="#1F78B4" stroke="none" opacity="1"/><circle cx="193" cy="375" r="3" fill="#1F78B4" stroke="none" opacity="1"/><circle cx="195" cy="371" r="3" fill="#1F78B4" stroke="none" opacity="1"/><circle cx="203" cy="367" r="3" fill="#1F78B4" stroke="none" opacity="1"/><circle cx="201" cy="362" r="3" fill="#1F78B4" stroke="none" opacity="1"/><circle cx="198" cy="358" r="3" fill="#1F78B4" stroke="none" opacity="1"/><circle cx="194" cy="350" r="3" fill="#1F78B4" stroke="none" opacity="1"/><circle cx="197" cy="346" r="3" fill="#1F78B4" stroke="none" opacity="1"/><circle cx="200" cy="337" r="3" fill="#1F78B4" stroke="none" opacity="1"/><circle cx="208" cy="333" r="3" fill="#1F78B4" stroke="none" opacity="1"/><circle cx="198" cy="329" r="3" fill="#1F78B4" stroke="none" opacity="1"/><circle cx="193" cy="325" r="3" fill="#1F78B4" stroke="none" opacity="1"/><circle cx="198" cy="320" r="3" fill="#1F78B4" stroke="none" opacity="1"/><circle cx="199" cy="316" r="3" fill="#1F78B4" stroke="none" opacity="1"/><circle cx="198" cy="312" r="3" fill="#1F78B4" stroke="none" opacity="1"/><circle cx="196" cy="308" r="3" fill="#1F78B4" stroke="none" opacity="1"/><circle cx="206" cy="304" r="3" fill="#1F78B4" stroke="none" opacity="1"/><circle cx="199" cy="299" r="3" fill="#1F78B4" stroke="none" opacity="1"/><circle cx="197" cy="295" r="3" fill="#1F78B4" stroke="none" opacity="1"/><circle cx="199" cy="291" r="3" fill="#1F78B4" stroke="none" opacity="1"/><circle cx="198" cy="287" r="3" fill="#1F78B4" stroke="none" opacity="1"/><circle cx="197" cy="278" r="3" fill="#1F78B4" stroke="none" opacity="1"/><circle cx="199" cy="274" r="3" fill="#1F78B4" stroke="none" opacity="1"/><circle cx="201" cy="270" r="3" fill="#1F78B4" stroke="none" opacity="1"/><circle cx="198" cy="266" r="3" fill="#1F78B4" stroke="none" opacity="1"/><circle cx="200" cy="262" r="3" fill="#1F78B4" stroke="none" opacity="1"/><circle cx="195" cy="257" r="3" fill="#1F78B4" stroke="none" opacity="1"/><circle cx="199" cy="253" r="3" fill="#1F78B4" stroke="none" opacity="1"/><circle cx="196" cy="249" r="3" fill="#1F78B4" stroke="none" opacity="1"/><circle cx="198" cy="245" r="3" fill="#1F78B4" stroke="none" opacity="1"/><circle cx="207" cy="241" r="3" fill="#1F78B4" stroke="none" opacity="1"/><circle cx="198" cy="236" r="3" fill="#1F78B4" stroke="none" opacity="1"/><circle cx="204" cy="232" r="3" fill="#1F78B4" stroke="none" opacity="1"/><circle cx="200" cy="228" r="3" fill="#1F78B4" stroke="none" opacity="1"/><circle cx="198" cy="224" r="3" fill="#1F78B4" stroke="none" opacity="1"/><circle cx="198" cy="220" r="3" fill="#1F78B4" stroke="none" opacity="1"/><circle cx="201" cy="215" r="3" fill="#1F78B4" stroke="none" opacity="1"/><circle cx="196" cy="211" r="3" fill="#1F78B4" stroke="none" opacity="1"/><circle cx="204" cy="207" r="3" fill="#1F78B4" stroke="none" opacity="1"/><circle cx="203" cy="199" r="3" fill="#1F78B4" stroke="none" opacity="1"/><circle cx="201" cy="194" r="3" fill="#1F78B4" stroke="none" opacity="1"/><circle cx="197" cy="190" r="3" fill="#1F78B4" stroke="none" opacity="1"/><circle cx="193" cy="186" r="3" fill="#1F78B4" stroke="none" opacity="1"/><circle cx="202" cy="182" r="3" fill="#1F78B4" stroke="none" opacity="1"/><circle cx="198" cy="178" r="3" fill="#1F78B4" stroke="none" opacity="1"/><circle cx="202" cy="173" r="3" fill="#1F78B4" stroke="none" opacity="1"/><circle cx="198" cy="169" r="3" fill="#1F78B4" stroke="none" opacity="1"/><circle cx="196" cy="165" r="3" fill="#1F78B4" stroke="none" opacity="1"/><circle cx="198" cy="161" r="3" fill="#1F78B4" stroke="none" opacity="1"/><circle cx="196" cy="157" r="3" fill="#1F78B4" stroke="none" opacity="1"/><circle cx="196" cy="152" r="3" fill="#1F78B4" stroke="none" opacity="1"/><circle cx="200" cy="148" r="3" fill="#1F78B4" stroke="none" opacity="1"/><circle cx="197" cy="140" r="3" fill="#1F78B4" stroke="none" opacity="1"/><circle cx="194" cy="136" r="3" fill="#1F78B4" stroke="none" opacity="1"/><circle cx="199" cy="131" r="3" fill="#1F78B4" stroke="none" opacity="1"/><circle cx="196" cy="127" r="3" fill="#1F78B4" stroke="none" opacity="1"/><circle cx="201" cy="123" r="3" fill="#1F78B4" stroke="none" opacity="1"/><circle cx="196" cy="119" r="3" fill="#1F78B4" stroke="none" opacity="1"/><circle cx="199" cy="115" r="3" fill="#1F78B4" stroke="none" opacity="1"/><circle cx="202" cy="110" r="3" fill="#1F78B4" stroke="none" opacity="1"/><circle cx="200" cy="106" r="3" fill="#1F78B4" stroke="none" opacity="1"/><circle cx="192" cy="102" r="3" fill="#1F78B4" stroke="none" opacity="1"/><circle cx="201" cy="98" r="3" fill="#1F78B4" stroke="none" opacity="1"/><circle cx="197" cy="89" r="3" fill="#1F78B4" stroke="none" opacity="1"/><circle cx="198" cy="85" r="3" fill="#1F78B4" stroke="none" opacity="1"/><circle cx="197" cy="81" r="3" fill="#1F78B4" stroke="none" opacity="1"/><circle cx="202" cy="77" r="3" fill="#1F78B4" stroke="none" opacity="1"/><circle cx="198" cy="73" r="3" fill="#1F78B4" stroke="none" opacity="1"/><circle cx="199" cy="68" r="3" fill="#1F78B4" stroke="none" opacity="1"/><circle cx="200" cy="64" r="3" fill="#1F78B4" stroke="none" opacity="1"/><circle cx="196" cy="60" r="3" fill="#1F78B4" stroke="none" opacity="1"/><circle cx="198" cy="56" r="3" fill="#1F78B4" stroke="none" opacity="1"/><circle cx="185" cy="446" r="3" fill="#FF7F00" stroke="none" opacity="1"/><circle cx="186" cy="425" r="3" fill="#FF7F00" stroke="none" opacity="1"/><circle cx="217" cy="421" r="3" fill="#FF7F00" stroke="none" opacity="1"/><circle cx="186" cy="341" r="3" fill="#FF7F00" stroke="none" opacity="1"/><circle cx="774" cy="467" r="3" fill="#E31A1C" stroke="none" opacity="1"/><circle cx="240" cy="463" r="3" fill="#E31A1C" stroke="none" opacity="1"/><circle cx="255" cy="459" r="3" fill="#E31A1C" stroke="none" opacity="1"/><circle cx="235" cy="455" r="3" fill="#E31A1C" stroke="none" opacity="1"/><circle cx="709" cy="442" r="3" fill="#E31A1C" stroke="none" opacity="1"/><circle cx="275" cy="354" r="3" fill="#E31A1C" stroke="none" opacity="1"/><circle cx="276" cy="283" r="3" fill="#E31A1C" stroke="none" opacity="1"/><circle cx="258" cy="203" r="3" fill="#E31A1C" stroke="none" opacity="1"/><circle cx="239" cy="144" r="3" fill="#E31A1C" stroke="none" opacity="1"/><circle cx="240" cy="94" r="3" fill="#E31A1C" stroke="none" opacity="1"/><circle cx="234" cy="53" r="3" fill="#E31A1C" stroke="none" opacity="1"/><text x="776" y="228" fill="#000" dy=".76em" font-family="sans-serif" font-size="9.677" opacity="1" text-anchor="start">PDF</text><text x="776" y="243" fill="#000" dy=".76em" font-family="sans-serif" font-size="9.677" opacity="1" text-anchor="start">Mean</text><text x="776" y="258" fill="#000" dy=".76em" font-family="sans-serif" font-size="9.677" opacity="1" text-anchor="start">&quot;Clean&quot; sample</text><text x="776" y="273" fill="#000" dy=".76em" font-family="sans-serif" font-size="9.677" opacity="1" text-anchor="start">Mild outliers</text><text x="776" y="288" fill="#000" dy=".76em" font-family="sans-serif" font-size="9.677" opacity="1" text-anchor="start">Severe outliers</text><rect width="20" height="10" x="746" y="228" fill="#1F78B4" stroke="none" opacity=".5"/><polyline fill="none" stroke="#1F78B4" stroke-width="1" points="746 248 766 248" opacity="1"/><circle cx="756" cy="263" r="3" fill="#1F78B4" stroke="none" opacity="1"/><circle cx="756" cy="278" r="3" fill="#FF7F00" stroke="none" opacity="1"/><circle cx="756" cy="293" r="3" fill="#E31A1C" stroke="none" opacity="1"/></svg>