<svg xmlns="http://www.w3.org/2000/svg" width="960" height="540"><text x="480" y="32" fill="#000" dy=".76em" font-family="sans-serif" font-size="16.129" opacity="1" text-anchor="middle">bench_group/threads_16/4194304</text><text x="27" y="263" fill="#000" dy=".76em" font-family="sans-serif" font-size="9.677" opacity="1" text-anchor="middle" transform="rotate(270, 27, 263)">Total sample time (ms)</text><text x="510" y="513" fill="#000" dy="-.5ex" font-family="sans-serif" font-size="9.677" opacity="1" text-anchor="middle">Iterations (x 10^3)</text><line x1="185" x2="185" y1="472" y2="52" stroke="#000" stroke-width="1" opacity=".2"/><line x1="292" x2="292" y1="472" y2="52" stroke="#000" stroke-width="1" opacity=".2"/><line x1="398" x2="398" y1="472" y2="52" stroke="#000" stroke-width="1" opacity=".2"/><line x1="505" x2="505" y1="472" y2="52" stroke="#000" stroke-width="1" opacity=".2"/><line x1="612" x2="612" y1="472" y2="52" stroke="#000" stroke-width="1" opacity=".2"/><line x1="719" x2="719" y1="472" y2="52" stroke="#000" stroke-width="1" opacity=".2"/><line x1="826" x2="826" y1="472" y2="52" stroke="#000" stroke-width="1" opacity=".2"/><line x1="933" x2="933" y1="472" y2="52" stroke="#000" stroke-width="1" opacity=".2"/><line x1="87" x2="933" y1="395" y2="395" stroke="#000" stroke-width="1" opacity=".2"/><line x1="87" x2="933" y1="314" y2="314" stroke="#000" stroke-width="1" opacity=".2"/><line x1="87" x2="933" y1="233" y2="233" stroke="#000" stroke-width="1" opacity=".2"/><line x1="87" x2="933" y1="152" y2="152" stroke="#000" stroke-width="1" opacity=".2"/><line x1="87" x2="933" y1="71" y2="71" stroke="#000" stroke-width="1" opacity=".2"/><polyline fill="none" stroke="#000" stroke-width="1" points="86 53 86 473" opacity="1"/><text x="77" y="395" fill="#000" dy=".5ex" font-family="sans-serif" font-size="9.677" opacity="1" text-anchor="end">20.0</text><polyline fill="none" stroke="#000" stroke-width="1" points="81 395 86 395" opacity="1"/><text x="77" y="314" fill="#000" dy=".5ex" font-family="sans-serif" font-size="9.677" opacity="1" text-anchor="end">40.0</text><polyline fill="none" stroke="#000" stroke-width="1" points="81 314 86 314" opacity="1"/><text x="77" y="233" fill="#000" dy=".5ex" font-family="sans-serif" font-size="9.677" opacity="1" text-anchor="end">60.0</text><polyline fill="none" stroke="#000" stroke-width="1" points="81 233 86 233" opacity="1"/><text x="77" y="152" fill="#000" dy=".5ex" font-family="sans-serif" font-size="9.677" opacity="1" text-anchor="end">80.0</text><polyline fill="none" stroke="#000" stroke-width="1" points="81 152 86 152" opacity="1"/><text x="77" y="71" fill="#000" dy=".5ex" font-family="sans-serif" font-size="9.677" opacity="1" text-anchor="end">100.0</text><polyline fill="none" stroke="#000" stroke-width="1" points="81 71 86 71" opacity="1"/><polyline fill="none" stroke="#000" stroke-width="1" points="87 473 933 473" opacity="1"/><text x="185" y="483" fill="#000" dy=".76em" font-family="sans-serif" font-size="9.677" opacity="1" text-anchor="middle">0.2</text><polyline fill="none" stroke="#000" stroke-width="1" points="185 473 185 478" opacity="1"/><text x="292" y="483" fill="#000" dy=".76em" font-family="sans-serif" font-size="9.677" opacity="1" text-anchor="middle">0.4</text><polyline fill="none" stroke="#000" stroke-width="1" points="292 473 292 478" opacity="1"/><text x="398" y="483" fill="#000" dy=".76em" font-family="sans-serif" font-size="9.677" opacity="1" text-anchor="middle">0.6</text><polyline fill="none" stroke="#000" stroke-width="1" points="398 473 398 478" opacity="1"/><text x="505" y="483" fill="#000" dy=".76em" font-family="sans-serif" font-size="9.677" opacity="1" text-anchor="middle">0.8</text><polyline fill="none" stroke="#000" stroke-width="1" points="505 473 505 478" opacity="1"/><text x="612" y="483" fill="#000" dy=".76em" font-family="sans-serif" font-size="9.677" opacity="1" text-anchor="middle">1</text><polyline fill="none" stroke="#000" stroke-width="1" points="612 473 612 478" opacity="1"/><text x="719" y="483" fill="#000" dy=".76em" font-family="sans-serif" font-size="9.677" opacity="1" text-anchor="middle">1.2</text><polyline fill="none" stroke="#000" stroke-width="1" points="719 473 719 478" opacity="1"/><text x="826" y="483" fill="#000" dy=".76em" font-family="sans-serif" font-size="9.677" opacity="1" text-anchor="middle">1.4</text><polyline fill="none" stroke="#000" stroke-width="1" points="826 473 826 478" opacity="1"/><text x="933" y="483" fill="#000" dy=".76em" font-family="sans-serif" font-size="9.677" opacity="1" text-anchor="middle">1.6</text><polyline fill="none" stroke="#000" stroke-width="1" points="933 473 933 478" opacity="1"/><circle cx="87" cy="472" r="3" fill="#1F78B4" stroke="none" opacity="1"/><circle cx="95" cy="467" r="3" fill="#1F78B4" stroke="none" opacity="1"/><circle cx="104" cy="463" r="3" fill="#1F78B4" stroke="none" opacity="1"/><circle cx="112" cy="459" r="3" fill="#1F78B4" stroke="none" opacity="1"/><circle cx="121" cy="454" r="3" fill="#1F78B4" stroke="none" opacity="1"/><circle cx="129" cy="453" r="3" fill="#1F78B4" stroke="none" opacity="1"/><circle cx="138" cy="447" r="3" fill="#1F78B4" stroke="none" opacity="1"/><circle cx="146" cy="442" r="3" fill="#1F78B4" stroke="none" opacity="1"/><circle cx="155" cy="438" r="3" fill="#1F78B4" stroke="none" opacity="1"/><circle cx="163" cy="434" r="3" fill="#1F78B4" stroke="none" opacity="1"/><circle cx="172" cy="430" r="3" fill="#1F78B4" stroke="none" opacity="1"/><circle cx="181" cy="426" r="3" fill="#1F78B4" stroke="none" opacity="1"/><circle cx="189" cy="426" r="3" fill="#1F78B4" stroke="none" opacity="1"/><circle cx="198" cy="417" r="3" fill="#1F78B4" stroke="none" opacity="1"/><circle cx="206" cy="413" r="3" fill="#1F78B4" stroke="none" opacity="1"/><circle cx="215" cy="409" r="3" fill="#1F78B4" stroke="none" opacity="1"/><circle cx="223" cy="406" r="3" fill="#1F78B4" stroke="none" opacity="1"/><circle cx="232" cy="401" r="3" fill="#1F78B4" stroke="none" opacity="1"/><circle cx="240" cy="397" r="3" fill="#1F78B4" stroke="none" opacity="1"/><circle cx="249" cy="392" r="3" fill="#1F78B4" stroke="none" opacity="1"/><circle cx="257" cy="389" r="3" fill="#1F78B4" stroke="none" opacity="1"/><circle cx="266" cy="385" r="3" fill="#1F78B4" stroke="none" opacity="1"/><circle cx="275" cy="377" r="3" fill="#1F78B4" stroke="none" opacity="1"/><circle cx="283" cy="377" r="3" fill="#1F78B4" stroke="none" opacity="1"/><circle cx="292" cy="373" r="3" fill="#1F78B4" stroke="none" opacity="1"/><circle cx="300" cy="369" r="3" fill="#1F78B4" stroke="none" opacity="1"/><circle cx="309" cy="364" r="3" fill="#1F78B4" stroke="none" opacity="1"/><circle cx="317" cy="361" r="3" fill="#1F78B4" stroke="none" opacity="1"/><circle cx="326" cy="357" r="3" fill="#1F78B4" stroke="none" opacity="1"/><circle cx="334" cy="352" r="3" fill="#1F78B4" stroke="none" opacity="1"/><circle cx="343" cy="348" r="3" fill="#1F78B4" stroke="none" opacity="1"/><circle cx="351" cy="336" r="3" fill="#1F78B4" stroke="none" opacity="1"/><circle cx="360" cy="340" r="3" fill="#1F78B4" stroke="none" opacity="1"/><circle cx="369" cy="337" r="3" fill="#1F78B4" stroke="none" opacity="1"/><circle cx="377" cy="332" r="3" fill="#1F78B4" stroke="none" opacity="1"/><circle cx="386" cy="328" r="3" fill="#1F78B4" stroke="none" opacity="1"/><circle cx="394" cy="325" r="3" fill="#1F78B4" stroke="none" opacity="1"/><circle cx="403" cy="333" r="3" fill="#1F78B4" stroke="none" opacity="1"/><circle cx="411" cy="310" r="3" fill="#1F78B4" stroke="none" opacity="1"/><circle cx="420" cy="311" r="3" fill="#1F78B4" stroke="none" opacity="1"/><circle cx="428" cy="307" r="3" fill="#1F78B4" stroke="none" opacity="1"/><circle cx="437" cy="303" r="3" fill="#1F78B4" stroke="none" opacity="1"/><circle cx="445" cy="299" r="3" fill="#1F78B4" stroke="none" opacity="1"/><circle cx="454" cy="296" r="3" fill="#1F78B4" stroke="none" opacity="1"/><circle cx="463" cy="292" r="3" fill="#1F78B4" stroke="none" opacity="1"/><circle cx="471" cy="280" r="3" fill="#1F78B4" stroke="none" opacity="1"/><circle cx="480" cy="299" r="3" fill="#1F78B4" stroke="none" opacity="1"/><circle cx="488" cy="296" r="3" fill="#1F78B4" stroke="none" opacity="1"/><circle cx="497" cy="274" r="3" fill="#1F78B4" stroke="none" opacity="1"/><circle cx="505" cy="271" r="3" fill="#1F78B4" stroke="none" opacity="1"/><circle cx="514" cy="266" r="3" fill="#1F78B4" stroke="none" opacity="1"/><circle cx="522" cy="263" r="3" fill="#1F78B4" stroke="none" opacity="1"/><circle cx="531" cy="257" r="3" fill="#1F78B4" stroke="none" opacity="1"/><circle cx="539" cy="274" r="3" fill="#1F78B4" stroke="none" opacity="1"/><circle cx="548" cy="241" r="3" fill="#1F78B4" stroke="none" opacity="1"/><circle cx="557" cy="244" r="3" fill="#1F78B4" stroke="none" opacity="1"/><circle cx="565" cy="242" r="3" fill="#1F78B4" stroke="none" opacity="1"/><circle cx="574" cy="259" r="3" fill="#1F78B4" stroke="none" opacity="1"/><circle cx="582" cy="234" r="3" fill="#1F78B4" stroke="none" opacity="1"/><circle cx="591" cy="216" r="3" fill="#1F78B4" stroke="none" opacity="1"/><circle cx="599" cy="226" r="3" fill="#1F78B4" stroke="none" opacity="1"/><circle cx="608" cy="221" r="3" fill="#1F78B4" stroke="none" opacity="1"/><circle cx="616" cy="240" r="3" fill="#1F78B4" stroke="none" opacity="1"/><circle cx="625" cy="234" r="3" fill="#1F78B4" stroke="none" opacity="1"/><circle cx="633" cy="232" r="3" fill="#1F78B4" stroke="none" opacity="1"/><circle cx="642" cy="229" r="3" fill="#1F78B4" stroke="none" opacity="1"/><circle cx="651" cy="201" r="3" fill="#1F78B4" stroke="none" opacity="1"/><circle cx="659" cy="220" r="3" fill="#1F78B4" stroke="none" opacity="1"/><circle cx="668" cy="188" r="3" fill="#1F78B4" stroke="none" opacity="1"/><circle cx="676" cy="189" r="3" fill="#1F78B4" stroke="none" opacity="1"/><circle cx="685" cy="210" r="3" fill="#1F78B4" stroke="none" opacity="1"/><circle cx="693" cy="180" r="3" fill="#1F78B4" stroke="none" opacity="1"/><circle cx="702" cy="203" r="3" fill="#1F78B4" stroke="none" opacity="1"/><circle cx="710" cy="172" r="3" fill="#1F78B4" stroke="none" opacity="1"/><circle cx="719" cy="169" r="3" fill="#1F78B4" stroke="none" opacity="1"/><circle cx="727" cy="158" r="3" fill="#1F78B4" stroke="none" opacity="1"/><circle cx="736" cy="186" r="3" fill="#1F78B4" stroke="none" opacity="1"/><circle cx="745" cy="182" r="3" fill="#1F78B4" stroke="none" opacity="1"/><circle cx="753" cy="150" r="3" fill="#1F78B4" stroke="none" opacity="1"/><circle cx="762" cy="148" r="3" fill="#1F78B4" stroke="none" opacity="1"/><circle cx="770" cy="172" r="3" fill="#1F78B4" stroke="none" opacity="1"/><circle cx="779" cy="139" r="3" fill="#1F78B4" stroke="none" opacity="1"/><circle cx="787" cy="135" r="3" fill="#1F78B4" stroke="none" opacity="1"/><circle cx="796" cy="131" r="3" fill="#1F78B4" stroke="none" opacity="1"/><circle cx="804" cy="156" r="3" fill="#1F78B4" stroke="none" opacity="1"/><circle cx="813" cy="111" r="3" fill="#1F78B4" stroke="none" opacity="1"/><circle cx="821" cy="148" r="3" fill="#1F78B4" stroke="none" opacity="1"/><circle cx="830" cy="144" r="3" fill="#1F78B4" stroke="none" opacity="1"/><circle cx="839" cy="141" r="3" fill="#1F78B4" stroke="none" opacity="1"/><circle cx="847" cy="104" r="3" fill="#1F78B4" stroke="none" opacity="1"/><circle cx="856" cy="103" r="3" fill="#1F78B4" stroke="none" opacity="1"/><circle cx="864" cy="81" r="3" fill="#1F78B4" stroke="none" opacity="1"/><circle cx="873" cy="95" r="3" fill="#1F78B4" stroke="none" opacity="1"/><circle cx="881" cy="122" r="3" fill="#1F78B4" stroke="none" opacity="1"/><circle cx="890" cy="86" r="3" fill="#1F78B4" stroke="none" opacity="1"/><circle cx="898" cy="82" r="3" fill="#1F78B4" stroke="none" opacity="1"/><circle cx="907" cy="110" r="3" fill="#1F78B4" stroke="none" opacity="1"/><circle cx="915" cy="72" r="3" fill="#1F78B4" stroke="none" opacity="1"/><circle cx="924" cy="68" r="3" fill="#1F78B4" stroke="none" opacity="1"/><circle cx="933" cy="53" r="3" fill="#1F78B4" stroke="none" opacity="1"/><polyline fill="none" stroke="#1F78B4" stroke-width="1" points="87 473 933 74" opacity="1"/><polygon fill="#1F78B4" points="87 473 933 79 933 70" opacity=".25"/><text x="132" y="68" fill="#000" dy=".76em" font-family="sans-serif" font-size="9.677" opacity="1" text-anchor="start">Sample</text><text x="132" y="83" fill="#000" dy=".76em" font-family="sans-serif" font-size="9.677" opacity="1" text-anchor="start">Linear regression</text><text x="132" y="98" fill="#000" dy=".76em" font-family="sans-serif" font-size="9.677" opacity="1" text-anchor="start">Confidence interval</text><circle cx="112" cy="73" r="3" fill="#1F78B4" stroke="none" opacity="1"/><polyline fill="none" stroke="#1F78B4" stroke-width="2" points="102 88 122 88" opacity="1"/><rect width="20" height="10" x="102" y="98" fill="#1F78B4" stroke="none" opacity=".25"/></svg>