<svg xmlns="http://www.w3.org/2000/svg" width="960" height="540"><text x="480" y="32" fill="#000" dy=".76em" font-family="sans-serif" font-size="16.129" opacity="1" text-anchor="middle">bench_group/threads_32/32768</text><text x="27" y="263" fill="#000" dy=".76em" font-family="sans-serif" font-size="9.677" opacity="1" text-anchor="middle" transform="rotate(270, 27, 263)">Total sample time (ms)</text><text x="510" y="513" fill="#000" dy="-.5ex" font-family="sans-serif" font-size="9.677" opacity="1" text-anchor="middle">Iterations (x 10^3)</text><line x1="165" x2="165" y1="472" y2="52" stroke="#000" stroke-width="1" opacity=".2"/><line x1="252" x2="252" y1="472" y2="52" stroke="#000" stroke-width="1" opacity=".2"/><line x1="340" x2="340" y1="472" y2="52" stroke="#000" stroke-width="1" opacity=".2"/><line x1="427" x2="427" y1="472" y2="52" stroke="#000" stroke-width="1" opacity=".2"/><line x1="514" x2="514" y1="472" y2="52" stroke="#000" stroke-width="1" opacity=".2"/><line x1="601" x2="601" y1="472" y2="52" stroke="#000" stroke-width="1" opacity=".2"/><line x1="688" x2="688" y1="472" y2="52" stroke="#000" stroke-width="1" opacity=".2"/><line x1="776" x2="776" y1="472" y2="52" stroke="#000" stroke-width="1" opacity=".2"/><line x1="863" x2="863" y1="472" y2="52" stroke="#000" stroke-width="1" opacity=".2"/><line x1="87" x2="933" y1="408" y2="408" stroke="#000" stroke-width="1" opacity=".2"/><line x1="87" x2="933" y1="339" y2="339" stroke="#000" stroke-width="1" opacity=".2"/><line x1="87" x2="933" y1="270" y2="270" stroke="#000" stroke-width="1" opacity=".2"/><line x1="87" x2="933" y1="201" y2="201" stroke="#000" stroke-width="1" opacity=".2"/><line x1="87" x2="933" y1="132" y2="132" stroke="#000" stroke-width="1" opacity=".2"/><line x1="87" x2="933" y1="63" y2="63" stroke="#000" stroke-width="1" opacity=".2"/><polyline fill="none" stroke="#000" stroke-width="1" points="86 53 86 473" opacity="1"/><text x="77" y="408" fill="#000" dy=".5ex" font-family="sans-serif" font-size="9.677" opacity="1" text-anchor="end">20.0</text><polyline fill="none" stroke="#000" stroke-width="1" points="81 408 86 408" opacity="1"/><text x="77" y="339" fill="#000" dy=".5ex" font-family="sans-serif" font-size="9.677" opacity="1" text-anchor="end">40.0</text><polyline fill="none" stroke="#000" stroke-width="1" points="81 339 86 339" opacity="1"/><text x="77" y="270" fill="#000" dy=".5ex" font-family="sans-serif" font-size="9.677" opacity="1" text-anchor="end">60.0</text><polyline fill="none" stroke="#000" stroke-width="1" points="81 270 86 270" opacity="1"/><text x="77" y="201" fill="#000" dy=".5ex" font-family="sans-serif" font-size="9.677" opacity="1" text-anchor="end">80.0</text><polyline fill="none" stroke="#000" stroke-width="1" points="81 201 86 201" opacity="1"/><text x="77" y="132" fill="#000" dy=".5ex" font-family="sans-serif" font-size="9.677" opacity="1" text-anchor="end">100.0</text><polyline fill="none" stroke="#000" stroke-width="1" points="81 132 86 132" opacity="1"/><text x="77" y="63" fill="#000" dy=".5ex" font-family="sans-serif" font-size="9.677" opacity="1" text-anchor="end">120.0</text><polyline fill="none" stroke="#000" stroke-width="1" points="81 63 86 63" opacity="1"/><polyline fill="none" stroke="#000" stroke-width="1" points="87 473 933 473" opacity="1"/><text x="165" y="483" fill="#000" dy=".76em" font-family="sans-serif" font-size="9.677" opacity="1" text-anchor="middle">1</text><polyline fill="none" stroke="#000" stroke-width="1" points="165 473 165 478" opacity="1"/><text x="252" y="483" fill="#000" dy=".76em" font-family="sans-serif" font-size="9.677" opacity="1" text-anchor="middle">2</text><polyline fill="none" stroke="#000" stroke-width="1" points="252 473 252 478" opacity="1"/><text x="340" y="483" fill="#000" dy=".76em" font-family="sans-serif" font-size="9.677" opacity="1" text-anchor="middle">3</text><polyline fill="none" stroke="#000" stroke-width="1" points="340 473 340 478" opacity="1"/><text x="427" y="483" fill="#000" dy=".76em" font-family="sans-serif" font-size="9.677" opacity="1" text-anchor="middle">4</text><polyline fill="none" stroke="#000" stroke-width="1" points="427 473 427 478" opacity="1"/><text x="514" y="483" fill="#000" dy=".76em" font-family="sans-serif" font-size="9.677" opacity="1" text-anchor="middle">5</text><polyline fill="none" stroke="#000" stroke-width="1" points="514 473 514 478" opacity="1"/><text x="601" y="483" fill="#000" dy=".76em" font-family="sans-serif" font-size="9.677" opacity="1" text-anchor="middle">6</text><polyline fill="none" stroke="#000" stroke-width="1" points="601 473 601 478" opacity="1"/><text x="688" y="483" fill="#000" dy=".76em" font-family="sans-serif" font-size="9.677" opacity="1" text-anchor="middle">7</text><polyline fill="none" stroke="#000" stroke-width="1" points="688 473 688 478" opacity="1"/><text x="776" y="483" fill="#000" dy=".76em" font-family="sans-serif" font-size="9.677" opacity="1" text-anchor="middle">8</text><polyline fill="none" stroke="#000" stroke-width="1" points="776 473 776 478" opacity="1"/><text x="863" y="483" fill="#000" dy=".76em" font-family="sans-serif" font-size="9.677" opacity="1" text-anchor="middle">9</text><polyline fill="none" stroke="#000" stroke-width="1" points="863 473 863 478" opacity="1"/><circle cx="87" cy="472" r="3" fill="#1F78B4" stroke="none" opacity="1"/><circle cx="95" cy="469" r="3" fill="#1F78B4" stroke="none" opacity="1"/><circle cx="104" cy="465" r="3" fill="#1F78B4" stroke="none" opacity="1"/><circle cx="112" cy="462" r="3" fill="#1F78B4" stroke="none" opacity="1"/><circle cx="121" cy="452" r="3" fill="#1F78B4" stroke="none" opacity="1"/><circle cx="129" cy="458" r="3" fill="#1F78B4" stroke="none" opacity="1"/><circle cx="138" cy="454" r="3" fill="#1F78B4" stroke="none" opacity="1"/><circle cx="146" cy="438" r="3" fill="#1F78B4" stroke="none" opacity="1"/><circle cx="155" cy="445" r="3" fill="#1F78B4" stroke="none" opacity="1"/><circle cx="163" cy="445" r="3" fill="#1F78B4" stroke="none" opacity="1"/><circle cx="172" cy="435" r="3" fill="#1F78B4" stroke="none" opacity="1"/><circle cx="181" cy="430" r="3" fill="#1F78B4" stroke="none" opacity="1"/><circle cx="189" cy="432" r="3" fill="#1F78B4" stroke="none" opacity="1"/><circle cx="198" cy="431" r="3" fill="#1F78B4" stroke="none" opacity="1"/><circle cx="206" cy="414" r="3" fill="#1F78B4" stroke="none" opacity="1"/><circle cx="215" cy="422" r="3" fill="#1F78B4" stroke="none" opacity="1"/><circle cx="223" cy="404" r="3" fill="#1F78B4" stroke="none" opacity="1"/><circle cx="232" cy="408" r="3" fill="#1F78B4" stroke="none" opacity="1"/><circle cx="240" cy="417" r="3" fill="#1F78B4" stroke="none" opacity="1"/><circle cx="249" cy="397" r="3" fill="#1F78B4" stroke="none" opacity="1"/><circle cx="257" cy="393" r="3" fill="#1F78B4" stroke="none" opacity="1"/><circle cx="266" cy="405" r="3" fill="#1F78B4" stroke="none" opacity="1"/><circle cx="275" cy="399" r="3" fill="#1F78B4" stroke="none" opacity="1"/><circle cx="283" cy="398" r="3" fill="#1F78B4" stroke="none" opacity="1"/><circle cx="292" cy="391" r="3" fill="#1F78B4" stroke="none" opacity="1"/><circle cx="300" cy="389" r="3" fill="#1F78B4" stroke="none" opacity="1"/><circle cx="309" cy="344" r="3" fill="#1F78B4" stroke="none" opacity="1"/><circle cx="317" cy="391" r="3" fill="#1F78B4" stroke="none" opacity="1"/><circle cx="326" cy="364" r="3" fill="#1F78B4" stroke="none" opacity="1"/><circle cx="334" cy="372" r="3" fill="#1F78B4" stroke="none" opacity="1"/><circle cx="343" cy="373" r="3" fill="#1F78B4" stroke="none" opacity="1"/><circle cx="351" cy="356" r="3" fill="#1F78B4" stroke="none" opacity="1"/><circle cx="360" cy="308" r="3" fill="#1F78B4" stroke="none" opacity="1"/><circle cx="369" cy="376" r="3" fill="#1F78B4" stroke="none" opacity="1"/><circle cx="377" cy="333" r="3" fill="#1F78B4" stroke="none" opacity="1"/><circle cx="386" cy="360" r="3" fill="#1F78B4" stroke="none" opacity="1"/><circle cx="394" cy="316" r="3" fill="#1F78B4" stroke="none" opacity="1"/><circle cx="403" cy="358" r="3" fill="#1F78B4" stroke="none" opacity="1"/><circle cx="411" cy="324" r="3" fill="#1F78B4" stroke="none" opacity="1"/><circle cx="420" cy="324" r="3" fill="#1F78B4" stroke="none" opacity="1"/><circle cx="428" cy="336" r="3" fill="#1F78B4" stroke="none" opacity="1"/><circle cx="437" cy="335" r="3" fill="#1F78B4" stroke="none" opacity="1"/><circle cx="445" cy="343" r="3" fill="#1F78B4" stroke="none" opacity="1"/><circle cx="454" cy="329" r="3" fill="#1F78B4" stroke="none" opacity="1"/><circle cx="463" cy="337" r="3" fill="#1F78B4" stroke="none" opacity="1"/><circle cx="471" cy="309" r="3" fill="#1F78B4" stroke="none" opacity="1"/><circle cx="480" cy="277" r="3" fill="#1F78B4" stroke="none" opacity="1"/><circle cx="488" cy="281" r="3" fill="#1F78B4" stroke="none" opacity="1"/><circle cx="497" cy="284" r="3" fill="#1F78B4" stroke="none" opacity="1"/><circle cx="505" cy="322" r="3" fill="#1F78B4" stroke="none" opacity="1"/><circle cx="514" cy="301" r="3" fill="#1F78B4" stroke="none" opacity="1"/><circle cx="522" cy="218" r="3" fill="#1F78B4" stroke="none" opacity="1"/><circle cx="531" cy="282" r="3" fill="#1F78B4" stroke="none" opacity="1"/><circle cx="539" cy="175" r="3" fill="#1F78B4" stroke="none" opacity="1"/><circle cx="548" cy="302" r="3" fill="#1F78B4" stroke="none" opacity="1"/><circle cx="557" cy="305" r="3" fill="#1F78B4" stroke="none" opacity="1"/><circle cx="565" cy="263" r="3" fill="#1F78B4" stroke="none" opacity="1"/><circle cx="574" cy="288" r="3" fill="#1F78B4" stroke="none" opacity="1"/><circle cx="582" cy="285" r="3" fill="#1F78B4" stroke="none" opacity="1"/><circle cx="591" cy="274" r="3" fill="#1F78B4" stroke="none" opacity="1"/><circle cx="599" cy="286" r="3" fill="#1F78B4" stroke="none" opacity="1"/><circle cx="608" cy="222" r="3" fill="#1F78B4" stroke="none" opacity="1"/><circle cx="616" cy="251" r="3" fill="#1F78B4" stroke="none" opacity="1"/><circle cx="625" cy="197" r="3" fill="#1F78B4" stroke="none" opacity="1"/><circle cx="633" cy="234" r="3" fill="#1F78B4" stroke="none" opacity="1"/><circle cx="642" cy="260" r="3" fill="#1F78B4" stroke="none" opacity="1"/><circle cx="651" cy="253" r="3" fill="#1F78B4" stroke="none" opacity="1"/><circle cx="659" cy="246" r="3" fill="#1F78B4" stroke="none" opacity="1"/><circle cx="668" cy="254" r="3" fill="#1F78B4" stroke="none" opacity="1"/><circle cx="676" cy="262" r="3" fill="#1F78B4" stroke="none" opacity="1"/><circle cx="685" cy="262" r="3" fill="#1F78B4" stroke="none" opacity="1"/><circle cx="693" cy="201" r="3" fill="#1F78B4" stroke="none" opacity="1"/><circle cx="702" cy="171" r="3" fill="#1F78B4" stroke="none" opacity="1"/><circle cx="710" cy="103" r="3" fill="#1F78B4" stroke="none" opacity="1"/><circle cx="719" cy="106" r="3" fill="#1F78B4" stroke="none" opacity="1"/><circle cx="727" cy="248" r="3" fill="#1F78B4" stroke="none" opacity="1"/><circle cx="736" cy="253" r="3" fill="#1F78B4" stroke="none" opacity="1"/><circle cx="745" cy="130" r="3" fill="#1F78B4" stroke="none" opacity="1"/><circle cx="753" cy="181" r="3" fill="#1F78B4" stroke="none" opacity="1"/><circle cx="762" cy="211" r="3" fill="#1F78B4" stroke="none" opacity="1"/><circle cx="770" cy="98" r="3" fill="#1F78B4" stroke="none" opacity="1"/><circle cx="779" cy="238" r="3" fill="#1F78B4" stroke="none" opacity="1"/><circle cx="787" cy="170" r="3" fill="#1F78B4" stroke="none" opacity="1"/><circle cx="796" cy="208" r="3" fill="#1F78B4" stroke="none" opacity="1"/><circle cx="804" cy="188" r="3" fill="#1F78B4" stroke="none" opacity="1"/><circle cx="813" cy="135" r="3" fill="#1F78B4" stroke="none" opacity="1"/><circle cx="821" cy="183" r="3" fill="#1F78B4" stroke="none" opacity="1"/><circle cx="830" cy="191" r="3" fill="#1F78B4" stroke="none" opacity="1"/><circle cx="839" cy="184" r="3" fill="#1F78B4" stroke="none" opacity="1"/><circle cx="847" cy="211" r="3" fill="#1F78B4" stroke="none" opacity="1"/><circle cx="856" cy="53" r="3" fill="#1F78B4" stroke="none" opacity="1"/><circle cx="864" cy="179" r="3" fill="#1F78B4" stroke="none" opacity="1"/><circle cx="873" cy="155" r="3" fill="#1F78B4" stroke="none" opacity="1"/><circle cx="881" cy="168" r="3" fill="#1F78B4" stroke="none" opacity="1"/><circle cx="890" cy="163" r="3" fill="#1F78B4" stroke="none" opacity="1"/><circle cx="898" cy="124" r="3" fill="#1F78B4" stroke="none" opacity="1"/><circle cx="907" cy="161" r="3" fill="#1F78B4" stroke="none" opacity="1"/><circle cx="915" cy="114" r="3" fill="#1F78B4" stroke="none" opacity="1"/><circle cx="924" cy="146" r="3" fill="#1F78B4" stroke="none" opacity="1"/><circle cx="933" cy="56" r="3" fill="#1F78B4" stroke="none" opacity="1"/><polyline fill="none" stroke="#1F78B4" stroke-width="1" points="87 473 933 115" opacity="1"/><polygon fill="#1F78B4" points="87 473 933 129 933 100" opacity=".25"/><text x="132" y="68" fill="#000" dy=".76em" font-family="sans-serif" font-size="9.677" opacity="1" text-anchor="start">Sample</text><text x="132" y="83" fill="#000" dy=".76em" font-family="sans-serif" font-size="9.677" opacity="1" text-anchor="start">Linear regression</text><text x="132" y="98" fill="#000" dy=".76em" font-family="sans-serif" font-size="9.677" opacity="1" text-anchor="start">Confidence interval</text><circle cx="112" cy="73" r="3" fill="#1F78B4" stroke="none" opacity="1"/><polyline fill="none" stroke="#1F78B4" stroke-width="2" points="102 88 122 88" opacity="1"/><rect width="20" height="10" x="102" y="98" fill="#1F78B4" stroke="none" opacity=".25"/></svg>