<svg xmlns="http://www.w3.org/2000/svg" width="960" height="540"><text x="480" y="32" fill="#000" dy=".76em" font-family="sans-serif" font-size="16.129" opacity="1" text-anchor="middle">bench_group/threads_08/67108864</text><text x="27" y="263" fill="#000" dy=".76em" font-family="sans-serif" font-size="9.677" opacity="1" text-anchor="middle" transform="rotate(270, 27, 263)">Total sample time (ms)</text><text x="510" y="513" fill="#000" dy="-.5ex" font-family="sans-serif" font-size="9.677" opacity="1" text-anchor="middle">Iterations</text><line x1="163" x2="163" y1="472" y2="52" stroke="#000" stroke-width="1" opacity=".2"/><line x1="249" x2="249" y1="472" y2="52" stroke="#000" stroke-width="1" opacity=".2"/><line x1="334" x2="334" y1="472" y2="52" stroke="#000" stroke-width="1" opacity=".2"/><line x1="420" x2="420" y1="472" y2="52" stroke="#000" stroke-width="1" opacity=".2"/><line x1="505" x2="505" y1="472" y2="52" stroke="#000" stroke-width="1" opacity=".2"/><line x1="591" x2="591" y1="472" y2="52" stroke="#000" stroke-width="1" opacity=".2"/><line x1="676" x2="676" y1="472" y2="52" stroke="#000" stroke-width="1" opacity=".2"/><line x1="762" x2="762" y1="472" y2="52" stroke="#000" stroke-width="1" opacity=".2"/><line x1="847" x2="847" y1="472" y2="52" stroke="#000" stroke-width="1" opacity=".2"/><line x1="933" x2="933" y1="472" y2="52" stroke="#000" stroke-width="1" opacity=".2"/><line x1="87" x2="933" y1="418" y2="418" stroke="#000" stroke-width="1" opacity=".2"/><line x1="87" x2="933" y1="361" y2="361" stroke="#000" stroke-width="1" opacity=".2"/><line x1="87" x2="933" y1="303" y2="303" stroke="#000" stroke-width="1" opacity=".2"/><line x1="87" x2="933" y1="246" y2="246" stroke="#000" stroke-width="1" opacity=".2"/><line x1="87" x2="933" y1="188" y2="188" stroke="#000" stroke-width="1" opacity=".2"/><line x1="87" x2="933" y1="131" y2="131" stroke="#000" stroke-width="1" opacity=".2"/><line x1="87" x2="933" y1="73" y2="73" stroke="#000" stroke-width="1" opacity=".2"/><polyline fill="none" stroke="#000" stroke-width="1" points="86 53 86 473" opacity="1"/><text x="77" y="418" fill="#000" dy=".5ex" font-family="sans-serif" font-size="9.677" opacity="1" text-anchor="end">20.0</text><polyline fill="none" stroke="#000" stroke-width="1" points="81 418 86 418" opacity="1"/><text x="77" y="361" fill="#000" dy=".5ex" font-family="sans-serif" font-size="9.677" opacity="1" text-anchor="end">40.0</text><polyline fill="none" stroke="#000" stroke-width="1" points="81 361 86 361" opacity="1"/><text x="77" y="303" fill="#000" dy=".5ex" font-family="sans-serif" font-size="9.677" opacity="1" text-anchor="end">60.0</text><polyline fill="none" stroke="#000" stroke-width="1" points="81 303 86 303" opacity="1"/><text x="77" y="246" fill="#000" dy=".5ex" font-family="sans-serif" font-size="9.677" opacity="1" text-anchor="end">80.0</text><polyline fill="none" stroke="#000" stroke-width="1" points="81 246 86 246" opacity="1"/><text x="77" y="188" fill="#000" dy=".5ex" font-family="sans-serif" font-size="9.677" opacity="1" text-anchor="end">100.0</text><polyline fill="none" stroke="#000" stroke-width="1" points="81 188 86 188" opacity="1"/><text x="77" y="131" fill="#000" dy=".5ex" font-family="sans-serif" font-size="9.677" opacity="1" text-anchor="end">120.0</text><polyline fill="none" stroke="#000" stroke-width="1" points="81 131 86 131" opacity="1"/><text x="77" y="73" fill="#000" dy=".5ex" font-family="sans-serif" font-size="9.677" opacity="1" text-anchor="end">140.0</text><polyline fill="none" stroke="#000" stroke-width="1" points="81 73 86 73" opacity="1"/><polyline fill="none" stroke="#000" stroke-width="1" points="87 473 933 473" opacity="1"/><text x="163" y="483" fill="#000" dy=".76em" font-family="sans-serif" font-size="9.677" opacity="1" text-anchor="middle">10</text><polyline fill="none" stroke="#000" stroke-width="1" points="163 473 163 478" opacity="1"/><text x="249" y="483" fill="#000" dy=".76em" font-family="sans-serif" font-size="9.677" opacity="1" text-anchor="middle">20</text><polyline fill="none" stroke="#000" stroke-width="1" points="249 473 249 478" opacity="1"/><text x="334" y="483" fill="#000" dy=".76em" font-family="sans-serif" font-size="9.677" opacity="1" text-anchor="middle">30</text><polyline fill="none" stroke="#000" stroke-width="1" points="334 473 334 478" opacity="1"/><text x="420" y="483" fill="#000" dy=".76em" font-family="sans-serif" font-size="9.677" opacity="1" text-anchor="middle">40</text><polyline fill="none" stroke="#000" stroke-width="1" points="420 473 420 478" opacity="1"/><text x="505" y="483" fill="#000" dy=".76em" font-family="sans-serif" font-size="9.677" opacity="1" text-anchor="middle">50</text><polyline fill="none" stroke="#000" stroke-width="1" points="505 473 505 478" opacity="1"/><text x="591" y="483" fill="#000" dy=".76em" font-family="sans-serif" font-size="9.677" opacity="1" text-anchor="middle">60</text><polyline fill="none" stroke="#000" stroke-width="1" points="591 473 591 478" opacity="1"/><text x="676" y="483" fill="#000" dy=".76em" font-family="sans-serif" font-size="9.677" opacity="1" text-anchor="middle">70</text><polyline fill="none" stroke="#000" stroke-width="1" points="676 473 676 478" opacity="1"/><text x="762" y="483" fill="#000" dy=".76em" font-family="sans-serif" font-size="9.677" opacity="1" text-anchor="middle">80</text><polyline fill="none" stroke="#000" stroke-width="1" points="762 473 762 478" opacity="1"/><text x="847" y="483" fill="#000" dy=".76em" font-family="sans-serif" font-size="9.677" opacity="1" text-anchor="middle">90</text><polyline fill="none" stroke="#000" stroke-width="1" points="847 473 847 478" opacity="1"/><text x="933" y="483" fill="#000" dy=".76em" font-family="sans-serif" font-size="9.677" opacity="1" text-anchor="middle">100</text><polyline fill="none" stroke="#000" stroke-width="1" points="933 473 933 478" opacity="1"/><circle cx="87" cy="472" r="3" fill="#1F78B4" stroke="none" opacity="1"/><circle cx="95" cy="467" r="3" fill="#1F78B4" stroke="none" opacity="1"/><circle cx="104" cy="463" r="3" fill="#1F78B4" stroke="none" opacity="1"/><circle cx="112" cy="459" r="3" fill="#1F78B4" stroke="none" opacity="1"/><circle cx="121" cy="455" r="3" fill="#1F78B4" stroke="none" opacity="1"/><circle cx="129" cy="451" r="3" fill="#1F78B4" stroke="none" opacity="1"/><circle cx="138" cy="447" r="3" fill="#1F78B4" stroke="none" opacity="1"/><circle cx="146" cy="443" r="3" fill="#1F78B4" stroke="none" opacity="1"/><circle cx="155" cy="438" r="3" fill="#1F78B4" stroke="none" opacity="1"/><circle cx="163" cy="434" r="3" fill="#1F78B4" stroke="none" opacity="1"/><circle cx="172" cy="430" r="3" fill="#1F78B4" stroke="none" opacity="1"/><circle cx="181" cy="426" r="3" fill="#1F78B4" stroke="none" opacity="1"/><circle cx="189" cy="421" r="3" fill="#1F78B4" stroke="none" opacity="1"/><circle cx="198" cy="417" r="3" fill="#1F78B4" stroke="none" opacity="1"/><circle cx="206" cy="413" r="3" fill="#1F78B4" stroke="none" opacity="1"/><circle cx="215" cy="409" r="3" fill="#1F78B4" stroke="none" opacity="1"/><circle cx="223" cy="405" r="3" fill="#1F78B4" stroke="none" opacity="1"/><circle cx="232" cy="401" r="3" fill="#1F78B4" stroke="none" opacity="1"/><circle cx="240" cy="397" r="3" fill="#1F78B4" stroke="none" opacity="1"/><circle cx="249" cy="393" r="3" fill="#1F78B4" stroke="none" opacity="1"/><circle cx="257" cy="388" r="3" fill="#1F78B4" stroke="none" opacity="1"/><circle cx="266" cy="385" r="3" fill="#1F78B4" stroke="none" opacity="1"/><circle cx="275" cy="380" r="3" fill="#1F78B4" stroke="none" opacity="1"/><circle cx="283" cy="376" r="3" fill="#1F78B4" stroke="none" opacity="1"/><circle cx="292" cy="372" r="3" fill="#1F78B4" stroke="none" opacity="1"/><circle cx="300" cy="368" r="3" fill="#1F78B4" stroke="none" opacity="1"/><circle cx="309" cy="364" r="3" fill="#1F78B4" stroke="none" opacity="1"/><circle cx="317" cy="356" r="3" fill="#1F78B4" stroke="none" opacity="1"/><circle cx="326" cy="355" r="3" fill="#1F78B4" stroke="none" opacity="1"/><circle cx="334" cy="351" r="3" fill="#1F78B4" stroke="none" opacity="1"/><circle cx="343" cy="347" r="3" fill="#1F78B4" stroke="none" opacity="1"/><circle cx="351" cy="342" r="3" fill="#1F78B4" stroke="none" opacity="1"/><circle cx="360" cy="339" r="3" fill="#1F78B4" stroke="none" opacity="1"/><circle cx="369" cy="335" r="3" fill="#1F78B4" stroke="none" opacity="1"/><circle cx="377" cy="330" r="3" fill="#1F78B4" stroke="none" opacity="1"/><circle cx="386" cy="326" r="3" fill="#1F78B4" stroke="none" opacity="1"/><circle cx="394" cy="323" r="3" fill="#1F78B4" stroke="none" opacity="1"/><circle cx="403" cy="318" r="3" fill="#1F78B4" stroke="none" opacity="1"/><circle cx="411" cy="313" r="3" fill="#1F78B4" stroke="none" opacity="1"/><circle cx="420" cy="309" r="3" fill="#1F78B4" stroke="none" opacity="1"/><circle cx="428" cy="305" r="3" fill="#1F78B4" stroke="none" opacity="1"/><circle cx="437" cy="301" r="3" fill="#1F78B4" stroke="none" opacity="1"/><circle cx="445" cy="296" r="3" fill="#1F78B4" stroke="none" opacity="1"/><circle cx="454" cy="294" r="3" fill="#1F78B4" stroke="none" opacity="1"/><circle cx="463" cy="289" r="3" fill="#1F78B4" stroke="none" opacity="1"/><circle cx="471" cy="285" r="3" fill="#1F78B4" stroke="none" opacity="1"/><circle cx="480" cy="277" r="3" fill="#1F78B4" stroke="none" opacity="1"/><circle cx="488" cy="277" r="3" fill="#1F78B4" stroke="none" opacity="1"/><circle cx="497" cy="272" r="3" fill="#1F78B4" stroke="none" opacity="1"/><circle cx="505" cy="268" r="3" fill="#1F78B4" stroke="none" opacity="1"/><circle cx="514" cy="264" r="3" fill="#1F78B4" stroke="none" opacity="1"/><circle cx="522" cy="259" r="3" fill="#1F78B4" stroke="none" opacity="1"/><circle cx="531" cy="255" r="3" fill="#1F78B4" stroke="none" opacity="1"/><circle cx="539" cy="252" r="3" fill="#1F78B4" stroke="none" opacity="1"/><circle cx="548" cy="247" r="3" fill="#1F78B4" stroke="none" opacity="1"/><circle cx="557" cy="238" r="3" fill="#1F78B4" stroke="none" opacity="1"/><circle cx="565" cy="240" r="3" fill="#1F78B4" stroke="none" opacity="1"/><circle cx="574" cy="234" r="3" fill="#1F78B4" stroke="none" opacity="1"/><circle cx="582" cy="230" r="3" fill="#1F78B4" stroke="none" opacity="1"/><circle cx="591" cy="226" r="3" fill="#1F78B4" stroke="none" opacity="1"/><circle cx="599" cy="221" r="3" fill="#1F78B4" stroke="none" opacity="1"/><circle cx="608" cy="219" r="3" fill="#1F78B4" stroke="none" opacity="1"/><circle cx="616" cy="215" r="3" fill="#1F78B4" stroke="none" opacity="1"/><circle cx="625" cy="209" r="3" fill="#1F78B4" stroke="none" opacity="1"/><circle cx="633" cy="199" r="3" fill="#1F78B4" stroke="none" opacity="1"/><circle cx="642" cy="200" r="3" fill="#1F78B4" stroke="none" opacity="1"/><circle cx="651" cy="196" r="3" fill="#1F78B4" stroke="none" opacity="1"/><circle cx="659" cy="192" r="3" fill="#1F78B4" stroke="none" opacity="1"/><circle cx="668" cy="189" r="3" fill="#1F78B4" stroke="none" opacity="1"/><circle cx="676" cy="184" r="3" fill="#1F78B4" stroke="none" opacity="1"/><circle cx="685" cy="180" r="3" fill="#1F78B4" stroke="none" opacity="1"/><circle cx="693" cy="175" r="3" fill="#1F78B4" stroke="none" opacity="1"/><circle cx="702" cy="172" r="3" fill="#1F78B4" stroke="none" opacity="1"/><circle cx="710" cy="167" r="3" fill="#1F78B4" stroke="none" opacity="1"/><circle cx="719" cy="164" r="3" fill="#1F78B4" stroke="none" opacity="1"/><circle cx="727" cy="159" r="3" fill="#1F78B4" stroke="none" opacity="1"/><circle cx="736" cy="156" r="3" fill="#1F78B4" stroke="none" opacity="1"/><circle cx="745" cy="153" r="3" fill="#1F78B4" stroke="none" opacity="1"/><circle cx="753" cy="148" r="3" fill="#1F78B4" stroke="none" opacity="1"/><circle cx="762" cy="144" r="3" fill="#1F78B4" stroke="none" opacity="1"/><circle cx="770" cy="139" r="3" fill="#1F78B4" stroke="none" opacity="1"/><circle cx="779" cy="137" r="3" fill="#1F78B4" stroke="none" opacity="1"/><circle cx="787" cy="132" r="3" fill="#1F78B4" stroke="none" opacity="1"/><circle cx="796" cy="128" r="3" fill="#1F78B4" stroke="none" opacity="1"/><circle cx="804" cy="121" r="3" fill="#1F78B4" stroke="none" opacity="1"/><circle cx="813" cy="118" r="3" fill="#1F78B4" stroke="none" opacity="1"/><circle cx="821" cy="115" r="3" fill="#1F78B4" stroke="none" opacity="1"/><circle cx="830" cy="109" r="3" fill="#1F78B4" stroke="none" opacity="1"/><circle cx="839" cy="106" r="3" fill="#1F78B4" stroke="none" opacity="1"/><circle cx="847" cy="103" r="3" fill="#1F78B4" stroke="none" opacity="1"/><circle cx="856" cy="99" r="3" fill="#1F78B4" stroke="none" opacity="1"/><circle cx="864" cy="94" r="3" fill="#1F78B4" stroke="none" opacity="1"/><circle cx="873" cy="82" r="3" fill="#1F78B4" stroke="none" opacity="1"/><circle cx="881" cy="85" r="3" fill="#1F78B4" stroke="none" opacity="1"/><circle cx="890" cy="79" r="3" fill="#1F78B4" stroke="none" opacity="1"/><circle cx="898" cy="76" r="3" fill="#1F78B4" stroke="none" opacity="1"/><circle cx="907" cy="72" r="3" fill="#1F78B4" stroke="none" opacity="1"/><circle cx="915" cy="68" r="3" fill="#1F78B4" stroke="none" opacity="1"/><circle cx="924" cy="62" r="3" fill="#1F78B4" stroke="none" opacity="1"/><circle cx="933" cy="53" r="3" fill="#1F78B4" stroke="none" opacity="1"/><polyline fill="none" stroke="#1F78B4" stroke-width="1" points="87 473 933 59" opacity="1"/><polygon fill="#1F78B4" points="87 473 933 60 933 58" opacity=".25"/><text x="132" y="68" fill="#000" dy=".76em" font-family="sans-serif" font-size="9.677" opacity="1" text-anchor="start">Sample</text><text x="132" y="83" fill="#000" dy=".76em" font-family="sans-serif" font-size="9.677" opacity="1" text-anchor="start">Linear regression</text><text x="132" y="98" fill="#000" dy=".76em" font-family="sans-serif" font-size="9.677" opacity="1" text-anchor="start">Confidence interval</text><circle cx="112" cy="73" r="3" fill="#1F78B4" stroke="none" opacity="1"/><polyline fill="none" stroke="#1F78B4" stroke-width="2" points="102 88 122 88" opacity="1"/><rect width="20" height="10" x="102" y="98" fill="#1F78B4" stroke="none" opacity=".25"/></svg>