<svg xmlns="http://www.w3.org/2000/svg" width="960" height="540"><text x="480" y="32" fill="#000" dy=".76em" font-family="sans-serif" font-size="16.129" opacity="1" text-anchor="middle">bench_group/blake3/1280:median</text><text x="27" y="263" fill="#000" dy=".76em" font-family="sans-serif" font-size="9.677" opacity="1" text-anchor="middle" transform="rotate(270, 27, 263)">Density (a.u.)</text><text x="510" y="513" fill="#000" dy="-.5ex" font-family="sans-serif" font-size="9.677" opacity="1" text-anchor="middle">Average time (us)</text><polyline fill="none" stroke="#000" stroke-width="1" points="86 53 86 473" opacity="1"/><text x="77" y="432" fill="#000" dy=".5ex" font-family="sans-serif" font-size="9.677" opacity="1" text-anchor="end">2000</text><polyline fill="none" stroke="#000" stroke-width="1" points="81 432 86 432" opacity="1"/><text x="77" y="389" fill="#000" dy=".5ex" font-family="sans-serif" font-size="9.677" opacity="1" text-anchor="end">4000</text><polyline fill="none" stroke="#000" stroke-width="1" points="81 389 86 389" opacity="1"/><text x="77" y="347" fill="#000" dy=".5ex" font-family="sans-serif" font-size="9.677" opacity="1" text-anchor="end">6000</text><polyline fill="none" stroke="#000" stroke-width="1" points="81 347 86 347" opacity="1"/><text x="77" y="304" fill="#000" dy=".5ex" font-family="sans-serif" font-size="9.677" opacity="1" text-anchor="end">8000</text><polyline fill="none" stroke="#000" stroke-width="1" points="81 304 86 304" opacity="1"/><text x="77" y="261" fill="#000" dy=".5ex" font-family="sans-serif" font-size="9.677" opacity="1" text-anchor="end">1e4</text><polyline fill="none" stroke="#000" stroke-width="1" points="81 261 86 261" opacity="1"/><text x="77" y="218" fill="#000" dy=".5ex" font-family="sans-serif" font-size="9.677" opacity="1" text-anchor="end">12000</text><polyline fill="none" stroke="#000" stroke-width="1" points="81 218 86 218" opacity="1"/><text x="77" y="176" fill="#000" dy=".5ex" font-family="sans-serif" font-size="9.677" opacity="1" text-anchor="end">14000</text><polyline fill="none" stroke="#000" stroke-width="1" points="81 176 86 176" opacity="1"/><text x="77" y="133" fill="#000" dy=".5ex" font-family="sans-serif" font-size="9.677" opacity="1" text-anchor="end">16000</text><polyline fill="none" stroke="#000" stroke-width="1" points="81 133 86 133" opacity="1"/><text x="77" y="90" fill="#000" dy=".5ex" font-family="sans-serif" font-size="9.677" opacity="1" text-anchor="end">18000</text><polyline fill="none" stroke="#000" stroke-width="1" points="81 90 86 90" opacity="1"/><polyline fill="none" stroke="#000" stroke-width="1" points="87 473 933 473" opacity="1"/><text x="126" y="483" fill="#000" dy=".76em" font-family="sans-serif" font-size="9.677" opacity="1" text-anchor="middle">1.26256</text><polyline fill="none" stroke="#000" stroke-width="1" points="126 473 126 478" opacity="1"/><text x="218" y="483" fill="#000" dy=".76em" font-family="sans-serif" font-size="9.677" opacity="1" text-anchor="middle">1.26258</text><polyline fill="none" stroke="#000" stroke-width="1" points="218 473 218 478" opacity="1"/><text x="311" y="483" fill="#000" dy=".76em" font-family="sans-serif" font-size="9.677" opacity="1" text-anchor="middle">1.2626</text><polyline fill="none" stroke="#000" stroke-width="1" points="311 473 311 478" opacity="1"/><text x="403" y="483" fill="#000" dy=".76em" font-family="sans-serif" font-size="9.677" opacity="1" text-anchor="middle">1.26262</text><polyline fill="none" stroke="#000" stroke-width="1" points="403 473 403 478" opacity="1"/><text x="496" y="483" fill="#000" dy=".76em" font-family="sans-serif" font-size="9.677" opacity="1" text-anchor="middle">1.26264</text><polyline fill="none" stroke="#000" stroke-width="1" points="496 473 496 478" opacity="1"/><text x="588" y="483" fill="#000" dy=".76em" font-family="sans-serif" font-size="9.677" opacity="1" text-anchor="middle">1.26266</text><polyline fill="none" stroke="#000" stroke-width="1" points="588 473 588 478" opacity="1"/><text x="680" y="483" fill="#000" dy=".76em" font-family="sans-serif" font-size="9.677" opacity="1" text-anchor="middle">1.26268</text><polyline fill="none" stroke="#000" stroke-width="1" points="680 473 680 478" opacity="1"/><text x="773" y="483" fill="#000" dy=".76em" font-family="sans-serif" font-size="9.677" opacity="1" text-anchor="middle">1.2627</text><polyline fill="none" stroke="#000" stroke-width="1" points="773 473 773 478" opacity="1"/><text x="865" y="483" fill="#000" dy=".76em" font-family="sans-serif" font-size="9.677" opacity="1" text-anchor="middle">1.26272</text><polyline fill="none" stroke="#000" stroke-width="1" points="865 473 865 478" opacity="1"/><polyline fill="none" stroke="#1F78B4" stroke-width="1" points="87 472 88 471 90 471 92 471 93 470 95 470 97 469 98 469 100 468 102 467 103 467 105 466 107 465 109 464 110 464 112 463 114 462 115 460 117 459 119 458 120 456 122 455 124 453 125 451 127 449 129 447 131 445 132 443 134 440 136 437 137 435 139 431 141 428 142 425 144 421 146 417 148 414 149 409 151 405 153 401 154 396 156 392 158 387 159 382 161 377 163 373 164 368 166 363 168 358 170 353 171 349 173 344 175 339 176 335 178 331 180 326 181 322 183 319 185 315 187 312 188 308 190 305 192 303 193 300 195 298 197 296 198 294 200 293 202 291 203 290 205 290 207 289 209 289 210 290 212 290 214 291 215 293 217 295 219 297 220 299 222 302 224 305 226 308 227 312 229 316 231 321 232 326 234 331 236 336 237 341 239 347 241 352 242 358 244 364 246 370 248 375 249 381 251 386 253 391 254 396 256 401 258 405 259 409 261 413 263 416 265 419 266 422 268 424 270 426 271 427 273 428 275 429 276 429 278 429 280 429 281 429 283 428 285 427 287 426 288 425 290 424 292 423 293 421 295 420 297 419 298 418 300 417 302 416 304 416 305 415 307 415 309 415 310 415 312 415 314 415 315 416 317 416 319 417 320 418 322 418 324 419 326 420 327 421 329 422 331 423 332 424 334 425 336 425 337 426 339 426 341 427 343 427 344 427 346 427 348 427 349 426 351 426 353 425 354 425 356 424 358 423 359 423 361 422 363 421 365 420 366 420 368 419 370 418 371 418 373 417 375 417 376 416 378 416 380 415 381 415 383 415 385 415 387 415 388 415 390 415 392 415 393 415 395 415 397 415 398 415 400 414 402 414 404 414 405 414 407 414 409 413 410 413 412 412 414 412 415 412 417 411 419 411 420 410 422 410 424 410 426 409 427 409 429 409 431 409 432 409 434 409 436 409 437 409 439 409 441 409 443 410 444 410 446 410 448 410 449 410 451 410 453 410 454 410 456 410 458 410 459 409 461 409 463 409 465 408 466 408 468 407 470 407 471 406 473 406 475 406 476 405 478 405 480 405 482 405 483 405 485 405 487 405 488 406 490 406 492 407 493 407 495 408 497 409 498 409 500 410 502 410 504 411 505 412 507 412 509 412 510 412 512 412 514 412 515 412 517 412 519 411 521 411 522 410 524 410 526 409 527 408 529 407 531 406 532 406 534 405 536 404 537 403 539 403 541 402 543 402 544 401 546 401 548 401 549 401 551 401 553 401 554 401 556 401 558 401 560 402 561 402 563 402 565 402 566 402 568 402 570 402 571 402 573 402 575 401 576 401 578 400 580 399 582 398 583 397 585 395 587 394 588 392 590 390 592 388 593 386 595 383 597 381 599 378 600 376 602 373 604 371 605 368 607 365 609 362 610 359 612 356 614 353 615 350 617 347 619 344 621 341 622 338 624 335 626 332 627 329 629 326 631 322 632 319 634 315 636 312 638 308 639 304 641 300 643 296 644 292 646 287 648 283 649 278 651 273 653 268 654 262 656 256 658 250 660 244 661 238 663 231 665 224 666 217 668 209 670 201 671 194 673 186 675 177 676 169 678 161 680 153 682 145 683 138 685 130 687 123 688 117 690 111 692 105 693 101 695 97 697 94 699 92 700 90 702 90 704 91 705 92 707 95 709 99 710 103 712 109 714 115 715 122 717 130 719 139 721 148 722 157 724 167 726 177 727 187 729 198 731 208 732 218 734 228 736 237 738 246 739 255 741 263 743 271 744 278 746 285 748 291 749 297 751 302 753 306 754 310 756 313 758 316 760 319 761 320 763 322 765 323 766 323 768 323 770 322 771 321 773 320 775 318 777 315 778 312 780 309 782 306 783 302 785 298 787 293 788 289 790 284 792 279 793 274 795 269 797 264 799 259 800 254 802 250 804 246 805 243 807 240 809 237 810 235 812 234 814 234 816 234 817 235 819 236 821 238 822 241 824 245 826 249 827 254 829 259 831 265 832 271 834 278 836 284 838 292 839 299 841 306 843 314 844 321 846 329 848 336 849 343 851 351 853 357 855 364 856 371 858 377 860 383 861 388 863 394 865 399 866 403 868 408 870 412 871 416 873 420 875 423 877 426 878 429 880 432 882 434 883 437 885 439 887 441 888 443 890 444 892 446 894 447 895 448 897 449 899 450 900 451 902 452 904 453 905 454 907 454 909 455 910 456 912 456 914 457 916 457 917 458 919 458 921 459 922 459 924 460 926 461 927 461 929 462 931 462 933 463" opacity="1"/><polygon fill="#1F78B4" points="164 368 166 363 168 358 170 353 171 349 173 344 175 339 176 335 178 331 180 326 181 322 183 319 185 315 187 312 188 308 190 305 192 303 193 300 195 298 197 296 198 294 200 293 202 291 203 290 205 290 207 289 209 289 210 290 212 290 214 291 215 293 217 295 219 297 220 299 222 302 224 305 226 308 227 312 229 316 231 321 232 326 234 331 236 336 237 341 239 347 241 352 242 358 244 364 246 370 248 375 249 381 251 386 253 391 254 396 256 401 258 405 259 409 261 413 263 416 265 419 266 422 268 424 270 426 271 427 273 428 275 429 276 429 278 429 280 429 281 429 283 428 285 427 287 426 288 425 290 424 292 423 293 421 295 420 297 419 298 418 300 417 302 416 304 416 305 415 307 415 309 415 310 415 312 415 314 415 315 416 317 416 319 417 320 418 322 418 324 419 326 420 327 421 329 422 331 423 332 424 334 425 336 425 337 426 339 426 341 427 343 427 344 427 346 427 348 427 349 426 351 426 353 425 354 425 356 424 358 423 359 423 361 422 363 421 365 420 366 420 368 419 370 418 371 418 373 417 375 417 376 416 378 416 380 415 381 415 383 415 385 415 387 415 388 415 390 415 392 415 393 415 395 415 397 415 398 415 400 414 402 414 404 414 405 414 407 414 409 413 410 413 412 412 414 412 415 412 417 411 419 411 420 410 422 410 424 410 426 409 427 409 429 409 431 409 432 409 434 409 436 409 437 409 439 409 441 409 443 410 444 410 446 410 448 410 449 410 451 410 453 410 454 410 456 410 458 410 459 409 461 409 463 409 465 408 466 408 468 407 470 407 471 406 473 406 475 406 476 405 478 405 480 405 482 405 483 405 485 405 487 405 488 406 490 406 492 407 493 407 495 408 497 409 498 409 500 410 502 410 504 411 505 412 507 412 509 412 510 412 512 412 514 412 515 412 517 412 519 411 521 411 522 410 524 410 526 409 527 408 529 407 531 406 532 406 534 405 536 404 537 403 539 403 541 402 543 402 544 401 546 401 548 401 549 401 551 401 553 401 554 401 556 401 558 401 560 402 561 402 563 402 565 402 566 402 568 402 570 402 571 402 573 402 575 401 576 401 578 400 580 399 582 398 583 397 585 395 587 394 588 392 590 390 592 388 593 386 595 383 597 381 599 378 600 376 602 373 604 371 605 368 607 365 609 362 610 359 612 356 614 353 615 350 617 347 619 344 621 341 622 338 624 335 626 332 627 329 629 326 631 322 632 319 634 315 636 312 638 308 639 304 641 300 643 296 644 292 646 287 648 283 649 278 651 273 653 268 654 262 656 256 658 250 660 244 661 238 663 231 665 224 666 217 668 209 670 201 671 194 673 186 675 177 676 169 678 161 680 153 682 145 683 138 685 130 687 123 688 117 690 111 692 105 693 101 695 97 697 94 699 92 700 90 702 90 704 91 705 92 707 95 709 99 710 103 712 109 714 115 715 122 717 130 719 139 721 148 722 157 724 167 726 177 727 187 729 198 731 208 732 218 734 228 736 237 738 246 739 255 741 263 743 271 744 278 746 285 748 291 749 297 751 302 753 306 754 310 756 313 758 316 760 319 761 320 763 322 765 323 766 323 768 323 770 322 771 321 773 320 775 318 777 315 778 312 780 309 782 306 783 302 785 298 787 293 788 289 790 284 792 279 793 274 795 269 797 264 799 259 800 254 802 250 804 246 805 243 807 240 809 237 810 235 812 234 814 234 816 234 817 235 819 236 821 238 822 241 824 245 826 249 827 254 829 259 831 265 832 271 834 278 836 284 838 292 839 299 841 306 843 314 844 321 846 329 848 336 849 343 851 351 853 357 853 473 164 473" opacity=".25"/><polyline fill="none" stroke="#1F78B4" stroke-width="3" points="672 473 672 191" opacity="1"/><text x="798" y="68" fill="#000" dy=".76em" font-family="sans-serif" font-size="9.677" opacity="1" text-anchor="start">Bootstrap distribution</text><text x="798" y="83" fill="#000" dy=".76em" font-family="sans-serif" font-size="9.677" opacity="1" text-anchor="start">Confidence interval</text><text x="798" y="98" fill="#000" dy=".76em" font-family="sans-serif" font-size="9.677" opacity="1" text-anchor="start">Point estimate</text><polyline fill="none" stroke="#1F78B4" stroke-width="1" points="768 73 788 73" opacity="1"/><rect width="20" height="10" x="768" y="83" fill="#1F78B4" stroke="none" opacity=".25"/><polyline fill="none" stroke="#1F78B4" stroke-width="1" points="768 103 788 103" opacity="1"/></svg>