<svg xmlns="http://www.w3.org/2000/svg" width="960" height="540"><text x="480" y="32" fill="#000" dy=".76em" font-family="sans-serif" font-size="16.129" opacity="1" text-anchor="middle">bench_group/threads_08/2097152</text><text x="27" y="263" fill="#000" dy=".76em" font-family="sans-serif" font-size="9.677" opacity="1" text-anchor="middle" transform="rotate(270, 27, 263)">Total sample time (ms)</text><text x="510" y="513" fill="#000" dy="-.5ex" font-family="sans-serif" font-size="9.677" opacity="1" text-anchor="middle">Iterations (x 10^3)</text><line x1="168" x2="168" y1="472" y2="52" stroke="#000" stroke-width="1" opacity=".2"/><line x1="258" x2="258" y1="472" y2="52" stroke="#000" stroke-width="1" opacity=".2"/><line x1="348" x2="348" y1="472" y2="52" stroke="#000" stroke-width="1" opacity=".2"/><line x1="438" x2="438" y1="472" y2="52" stroke="#000" stroke-width="1" opacity=".2"/><line x1="528" x2="528" y1="472" y2="52" stroke="#000" stroke-width="1" opacity=".2"/><line x1="618" x2="618" y1="472" y2="52" stroke="#000" stroke-width="1" opacity=".2"/><line x1="708" x2="708" y1="472" y2="52" stroke="#000" stroke-width="1" opacity=".2"/><line x1="798" x2="798" y1="472" y2="52" stroke="#000" stroke-width="1" opacity=".2"/><line x1="888" x2="888" y1="472" y2="52" stroke="#000" stroke-width="1" opacity=".2"/><line x1="87" x2="933" y1="433" y2="433" stroke="#000" stroke-width="1" opacity=".2"/><line x1="87" x2="933" y1="390" y2="390" stroke="#000" stroke-width="1" opacity=".2"/><line x1="87" x2="933" y1="346" y2="346" stroke="#000" stroke-width="1" opacity=".2"/><line x1="87" x2="933" y1="303" y2="303" stroke="#000" stroke-width="1" opacity=".2"/><line x1="87" x2="933" y1="259" y2="259" stroke="#000" stroke-width="1" opacity=".2"/><line x1="87" x2="933" y1="216" y2="216" stroke="#000" stroke-width="1" opacity=".2"/><line x1="87" x2="933" y1="173" y2="173" stroke="#000" stroke-width="1" opacity=".2"/><line x1="87" x2="933" y1="129" y2="129" stroke="#000" stroke-width="1" opacity=".2"/><line x1="87" x2="933" y1="86" y2="86" stroke="#000" stroke-width="1" opacity=".2"/><polyline fill="none" stroke="#000" stroke-width="1" points="86 53 86 473" opacity="1"/><text x="77" y="433" fill="#000" dy=".5ex" font-family="sans-serif" font-size="9.677" opacity="1" text-anchor="end">10.0</text><polyline fill="none" stroke="#000" stroke-width="1" points="81 433 86 433" opacity="1"/><text x="77" y="390" fill="#000" dy=".5ex" font-family="sans-serif" font-size="9.677" opacity="1" text-anchor="end">20.0</text><polyline fill="none" stroke="#000" stroke-width="1" points="81 390 86 390" opacity="1"/><text x="77" y="346" fill="#000" dy=".5ex" font-family="sans-serif" font-size="9.677" opacity="1" text-anchor="end">30.0</text><polyline fill="none" stroke="#000" stroke-width="1" points="81 346 86 346" opacity="1"/><text x="77" y="303" fill="#000" dy=".5ex" font-family="sans-serif" font-size="9.677" opacity="1" text-anchor="end">40.0</text><polyline fill="none" stroke="#000" stroke-width="1" points="81 303 86 303" opacity="1"/><text x="77" y="259" fill="#000" dy=".5ex" font-family="sans-serif" font-size="9.677" opacity="1" text-anchor="end">50.0</text><polyline fill="none" stroke="#000" stroke-width="1" points="81 259 86 259" opacity="1"/><text x="77" y="216" fill="#000" dy=".5ex" font-family="sans-serif" font-size="9.677" opacity="1" text-anchor="end">60.0</text><polyline fill="none" stroke="#000" stroke-width="1" points="81 216 86 216" opacity="1"/><text x="77" y="173" fill="#000" dy=".5ex" font-family="sans-serif" font-size="9.677" opacity="1" text-anchor="end">70.0</text><polyline fill="none" stroke="#000" stroke-width="1" points="81 173 86 173" opacity="1"/><text x="77" y="129" fill="#000" dy=".5ex" font-family="sans-serif" font-size="9.677" opacity="1" text-anchor="end">80.0</text><polyline fill="none" stroke="#000" stroke-width="1" points="81 129 86 129" opacity="1"/><text x="77" y="86" fill="#000" dy=".5ex" font-family="sans-serif" font-size="9.677" opacity="1" text-anchor="end">90.0</text><polyline fill="none" stroke="#000" stroke-width="1" points="81 86 86 86" opacity="1"/><polyline fill="none" stroke="#000" stroke-width="1" points="87 473 933 473" opacity="1"/><text x="168" y="483" fill="#000" dy=".76em" font-family="sans-serif" font-size="9.677" opacity="1" text-anchor="middle">0.2</text><polyline fill="none" stroke="#000" stroke-width="1" points="168 473 168 478" opacity="1"/><text x="258" y="483" fill="#000" dy=".76em" font-family="sans-serif" font-size="9.677" opacity="1" text-anchor="middle">0.4</text><polyline fill="none" stroke="#000" stroke-width="1" points="258 473 258 478" opacity="1"/><text x="348" y="483" fill="#000" dy=".76em" font-family="sans-serif" font-size="9.677" opacity="1" text-anchor="middle">0.6</text><polyline fill="none" stroke="#000" stroke-width="1" points="348 473 348 478" opacity="1"/><text x="438" y="483" fill="#000" dy=".76em" font-family="sans-serif" font-size="9.677" opacity="1" text-anchor="middle">0.8</text><polyline fill="none" stroke="#000" stroke-width="1" points="438 473 438 478" opacity="1"/><text x="528" y="483" fill="#000" dy=".76em" font-family="sans-serif" font-size="9.677" opacity="1" text-anchor="middle">1</text><polyline fill="none" stroke="#000" stroke-width="1" points="528 473 528 478" opacity="1"/><text x="618" y="483" fill="#000" dy=".76em" font-family="sans-serif" font-size="9.677" opacity="1" text-anchor="middle">1.2</text><polyline fill="none" stroke="#000" stroke-width="1" points="618 473 618 478" opacity="1"/><text x="708" y="483" fill="#000" dy=".76em" font-family="sans-serif" font-size="9.677" opacity="1" text-anchor="middle">1.4</text><polyline fill="none" stroke="#000" stroke-width="1" points="708 473 708 478" opacity="1"/><text x="798" y="483" fill="#000" dy=".76em" font-family="sans-serif" font-size="9.677" opacity="1" text-anchor="middle">1.6</text><polyline fill="none" stroke="#000" stroke-width="1" points="798 473 798 478" opacity="1"/><text x="888" y="483" fill="#000" dy=".76em" font-family="sans-serif" font-size="9.677" opacity="1" text-anchor="middle">1.8</text><polyline fill="none" stroke="#000" stroke-width="1" points="888 473 888 478" opacity="1"/><circle cx="87" cy="472" r="3" fill="#1F78B4" stroke="none" opacity="1"/><circle cx="95" cy="467" r="3" fill="#1F78B4" stroke="none" opacity="1"/><circle cx="104" cy="463" r="3" fill="#1F78B4" stroke="none" opacity="1"/><circle cx="112" cy="459" r="3" fill="#1F78B4" stroke="none" opacity="1"/><circle cx="121" cy="455" r="3" fill="#1F78B4" stroke="none" opacity="1"/><circle cx="129" cy="451" r="3" fill="#1F78B4" stroke="none" opacity="1"/><circle cx="138" cy="447" r="3" fill="#1F78B4" stroke="none" opacity="1"/><circle cx="146" cy="442" r="3" fill="#1F78B4" stroke="none" opacity="1"/><circle cx="155" cy="438" r="3" fill="#1F78B4" stroke="none" opacity="1"/><circle cx="163" cy="434" r="3" fill="#1F78B4" stroke="none" opacity="1"/><circle cx="172" cy="430" r="3" fill="#1F78B4" stroke="none" opacity="1"/><circle cx="181" cy="426" r="3" fill="#1F78B4" stroke="none" opacity="1"/><circle cx="189" cy="421" r="3" fill="#1F78B4" stroke="none" opacity="1"/><circle cx="198" cy="417" r="3" fill="#1F78B4" stroke="none" opacity="1"/><circle cx="206" cy="413" r="3" fill="#1F78B4" stroke="none" opacity="1"/><circle cx="215" cy="409" r="3" fill="#1F78B4" stroke="none" opacity="1"/><circle cx="223" cy="405" r="3" fill="#1F78B4" stroke="none" opacity="1"/><circle cx="232" cy="401" r="3" fill="#1F78B4" stroke="none" opacity="1"/><circle cx="240" cy="396" r="3" fill="#1F78B4" stroke="none" opacity="1"/><circle cx="249" cy="392" r="3" fill="#1F78B4" stroke="none" opacity="1"/><circle cx="257" cy="388" r="3" fill="#1F78B4" stroke="none" opacity="1"/><circle cx="266" cy="384" r="3" fill="#1F78B4" stroke="none" opacity="1"/><circle cx="275" cy="380" r="3" fill="#1F78B4" stroke="none" opacity="1"/><circle cx="283" cy="376" r="3" fill="#1F78B4" stroke="none" opacity="1"/><circle cx="292" cy="371" r="3" fill="#1F78B4" stroke="none" opacity="1"/><circle cx="300" cy="367" r="3" fill="#1F78B4" stroke="none" opacity="1"/><circle cx="309" cy="363" r="3" fill="#1F78B4" stroke="none" opacity="1"/><circle cx="317" cy="358" r="3" fill="#1F78B4" stroke="none" opacity="1"/><circle cx="326" cy="354" r="3" fill="#1F78B4" stroke="none" opacity="1"/><circle cx="334" cy="350" r="3" fill="#1F78B4" stroke="none" opacity="1"/><circle cx="343" cy="346" r="3" fill="#1F78B4" stroke="none" opacity="1"/><circle cx="351" cy="342" r="3" fill="#1F78B4" stroke="none" opacity="1"/><circle cx="360" cy="338" r="3" fill="#1F78B4" stroke="none" opacity="1"/><circle cx="369" cy="325" r="3" fill="#1F78B4" stroke="none" opacity="1"/><circle cx="377" cy="329" r="3" fill="#1F78B4" stroke="none" opacity="1"/><circle cx="386" cy="324" r="3" fill="#1F78B4" stroke="none" opacity="1"/><circle cx="394" cy="321" r="3" fill="#1F78B4" stroke="none" opacity="1"/><circle cx="403" cy="317" r="3" fill="#1F78B4" stroke="none" opacity="1"/><circle cx="411" cy="313" r="3" fill="#1F78B4" stroke="none" opacity="1"/><circle cx="420" cy="308" r="3" fill="#1F78B4" stroke="none" opacity="1"/><circle cx="428" cy="305" r="3" fill="#1F78B4" stroke="none" opacity="1"/><circle cx="437" cy="300" r="3" fill="#1F78B4" stroke="none" opacity="1"/><circle cx="445" cy="296" r="3" fill="#1F78B4" stroke="none" opacity="1"/><circle cx="454" cy="291" r="3" fill="#1F78B4" stroke="none" opacity="1"/><circle cx="463" cy="287" r="3" fill="#1F78B4" stroke="none" opacity="1"/><circle cx="471" cy="283" r="3" fill="#1F78B4" stroke="none" opacity="1"/><circle cx="480" cy="279" r="3" fill="#1F78B4" stroke="none" opacity="1"/><circle cx="488" cy="271" r="3" fill="#1F78B4" stroke="none" opacity="1"/><circle cx="497" cy="270" r="3" fill="#1F78B4" stroke="none" opacity="1"/><circle cx="505" cy="266" r="3" fill="#1F78B4" stroke="none" opacity="1"/><circle cx="514" cy="262" r="3" fill="#1F78B4" stroke="none" opacity="1"/><circle cx="522" cy="257" r="3" fill="#1F78B4" stroke="none" opacity="1"/><circle cx="531" cy="254" r="3" fill="#1F78B4" stroke="none" opacity="1"/><circle cx="539" cy="250" r="3" fill="#1F78B4" stroke="none" opacity="1"/><circle cx="548" cy="245" r="3" fill="#1F78B4" stroke="none" opacity="1"/><circle cx="557" cy="241" r="3" fill="#1F78B4" stroke="none" opacity="1"/><circle cx="565" cy="238" r="3" fill="#1F78B4" stroke="none" opacity="1"/><circle cx="574" cy="233" r="3" fill="#1F78B4" stroke="none" opacity="1"/><circle cx="582" cy="226" r="3" fill="#1F78B4" stroke="none" opacity="1"/><circle cx="591" cy="224" r="3" fill="#1F78B4" stroke="none" opacity="1"/><circle cx="599" cy="221" r="3" fill="#1F78B4" stroke="none" opacity="1"/><circle cx="608" cy="216" r="3" fill="#1F78B4" stroke="none" opacity="1"/><circle cx="616" cy="212" r="3" fill="#1F78B4" stroke="none" opacity="1"/><circle cx="625" cy="208" r="3" fill="#1F78B4" stroke="none" opacity="1"/><circle cx="633" cy="204" r="3" fill="#1F78B4" stroke="none" opacity="1"/><circle cx="642" cy="199" r="3" fill="#1F78B4" stroke="none" opacity="1"/><circle cx="651" cy="195" r="3" fill="#1F78B4" stroke="none" opacity="1"/><circle cx="659" cy="191" r="3" fill="#1F78B4" stroke="none" opacity="1"/><circle cx="668" cy="172" r="3" fill="#1F78B4" stroke="none" opacity="1"/><circle cx="676" cy="182" r="3" fill="#1F78B4" stroke="none" opacity="1"/><circle cx="685" cy="178" r="3" fill="#1F78B4" stroke="none" opacity="1"/><circle cx="693" cy="174" r="3" fill="#1F78B4" stroke="none" opacity="1"/><circle cx="702" cy="170" r="3" fill="#1F78B4" stroke="none" opacity="1"/><circle cx="710" cy="167" r="3" fill="#1F78B4" stroke="none" opacity="1"/><circle cx="719" cy="161" r="3" fill="#1F78B4" stroke="none" opacity="1"/><circle cx="727" cy="157" r="3" fill="#1F78B4" stroke="none" opacity="1"/><circle cx="736" cy="144" r="3" fill="#1F78B4" stroke="none" opacity="1"/><circle cx="745" cy="150" r="3" fill="#1F78B4" stroke="none" opacity="1"/><circle cx="753" cy="144" r="3" fill="#1F78B4" stroke="none" opacity="1"/><circle cx="762" cy="140" r="3" fill="#1F78B4" stroke="none" opacity="1"/><circle cx="770" cy="136" r="3" fill="#1F78B4" stroke="none" opacity="1"/><circle cx="779" cy="134" r="3" fill="#1F78B4" stroke="none" opacity="1"/><circle cx="787" cy="128" r="3" fill="#1F78B4" stroke="none" opacity="1"/><circle cx="796" cy="124" r="3" fill="#1F78B4" stroke="none" opacity="1"/><circle cx="804" cy="97" r="3" fill="#1F78B4" stroke="none" opacity="1"/><circle cx="813" cy="116" r="3" fill="#1F78B4" stroke="none" opacity="1"/><circle cx="821" cy="111" r="3" fill="#1F78B4" stroke="none" opacity="1"/><circle cx="830" cy="108" r="3" fill="#1F78B4" stroke="none" opacity="1"/><circle cx="839" cy="103" r="3" fill="#1F78B4" stroke="none" opacity="1"/><circle cx="847" cy="99" r="3" fill="#1F78B4" stroke="none" opacity="1"/><circle cx="856" cy="95" r="3" fill="#1F78B4" stroke="none" opacity="1"/><circle cx="864" cy="65" r="3" fill="#1F78B4" stroke="none" opacity="1"/><circle cx="873" cy="87" r="3" fill="#1F78B4" stroke="none" opacity="1"/><circle cx="881" cy="83" r="3" fill="#1F78B4" stroke="none" opacity="1"/><circle cx="890" cy="78" r="3" fill="#1F78B4" stroke="none" opacity="1"/><circle cx="898" cy="74" r="3" fill="#1F78B4" stroke="none" opacity="1"/><circle cx="907" cy="70" r="3" fill="#1F78B4" stroke="none" opacity="1"/><circle cx="915" cy="53" r="3" fill="#1F78B4" stroke="none" opacity="1"/><circle cx="924" cy="62" r="3" fill="#1F78B4" stroke="none" opacity="1"/><circle cx="933" cy="57" r="3" fill="#1F78B4" stroke="none" opacity="1"/><polyline fill="none" stroke="#1F78B4" stroke-width="1" points="87 473 933 54" opacity="1"/><polygon fill="#1F78B4" points="87 473 933 56 933 53" opacity=".25"/><text x="132" y="68" fill="#000" dy=".76em" font-family="sans-serif" font-size="9.677" opacity="1" text-anchor="start">Sample</text><text x="132" y="83" fill="#000" dy=".76em" font-family="sans-serif" font-size="9.677" opacity="1" text-anchor="start">Linear regression</text><text x="132" y="98" fill="#000" dy=".76em" font-family="sans-serif" font-size="9.677" opacity="1" text-anchor="start">Confidence interval</text><circle cx="112" cy="73" r="3" fill="#1F78B4" stroke="none" opacity="1"/><polyline fill="none" stroke="#1F78B4" stroke-width="2" points="102 88 122 88" opacity="1"/><rect width="20" height="10" x="102" y="98" fill="#1F78B4" stroke="none" opacity=".25"/></svg>