<svg xmlns="http://www.w3.org/2000/svg" width="960" height="540"><text x="480" y="5" fill="#000" dy=".76em" font-family="sans-serif" font-size="16.129" opacity="1" text-anchor="middle">bench_group: Comparision</text><text x="26" y="263" fill="#000" dy=".76em" font-family="sans-serif" font-size="9.677" opacity="1" text-anchor="middle" transform="rotate(270, 26, 263)">Average time (ms)</text><text x="510" y="514" fill="#000" dy="-.5ex" font-family="sans-serif" font-size="9.677" opacity="1" text-anchor="middle">Input Size (Bytes)</text><polyline fill="none" stroke="#000" stroke-width="1" points="85 52 85 474" opacity="1"/><text x="76" y="425" fill="#000" dy=".5ex" font-family="sans-serif" font-size="9.677" opacity="1" text-anchor="end">20.0</text><polyline fill="none" stroke="#000" stroke-width="1" points="80 425 85 425" opacity="1"/><text x="76" y="378" fill="#000" dy=".5ex" font-family="sans-serif" font-size="9.677" opacity="1" text-anchor="end">40.0</text><polyline fill="none" stroke="#000" stroke-width="1" points="80 378 85 378" opacity="1"/><text x="76" y="331" fill="#000" dy=".5ex" font-family="sans-serif" font-size="9.677" opacity="1" text-anchor="end">60.0</text><polyline fill="none" stroke="#000" stroke-width="1" points="80 331 85 331" opacity="1"/><text x="76" y="284" fill="#000" dy=".5ex" font-family="sans-serif" font-size="9.677" opacity="1" text-anchor="end">80.0</text><polyline fill="none" stroke="#000" stroke-width="1" points="80 284 85 284" opacity="1"/><text x="76" y="236" fill="#000" dy=".5ex" font-family="sans-serif" font-size="9.677" opacity="1" text-anchor="end">100.0</text><polyline fill="none" stroke="#000" stroke-width="1" points="80 236 85 236" opacity="1"/><text x="76" y="189" fill="#000" dy=".5ex" font-family="sans-serif" font-size="9.677" opacity="1" text-anchor="end">120.0</text><polyline fill="none" stroke="#000" stroke-width="1" points="80 189 85 189" opacity="1"/><text x="76" y="142" fill="#000" dy=".5ex" font-family="sans-serif" font-size="9.677" opacity="1" text-anchor="end">140.0</text><polyline fill="none" stroke="#000" stroke-width="1" points="80 142 85 142" opacity="1"/><text x="76" y="95" fill="#000" dy=".5ex" font-family="sans-serif" font-size="9.677" opacity="1" text-anchor="end">160.0</text><polyline fill="none" stroke="#000" stroke-width="1" points="80 95 85 95" opacity="1"/><polyline fill="none" stroke="#000" stroke-width="1" points="86 474 934 474" opacity="1"/><text x="243" y="484" fill="#000" dy=".76em" font-family="sans-serif" font-size="9.677" opacity="1" text-anchor="middle">200000000.0</text><polyline fill="none" stroke="#000" stroke-width="1" points="243 474 243 479" opacity="1"/><text x="401" y="484" fill="#000" dy=".76em" font-family="sans-serif" font-size="9.677" opacity="1" text-anchor="middle">400000000.0</text><polyline fill="none" stroke="#000" stroke-width="1" points="401 474 401 479" opacity="1"/><text x="559" y="484" fill="#000" dy=".76em" font-family="sans-serif" font-size="9.677" opacity="1" text-anchor="middle">600000000.0</text><polyline fill="none" stroke="#000" stroke-width="1" points="559 474 559 479" opacity="1"/><text x="717" y="484" fill="#000" dy=".76em" font-family="sans-serif" font-size="9.677" opacity="1" text-anchor="middle">800000000.0</text><polyline fill="none" stroke="#000" stroke-width="1" points="717 474 717 479" opacity="1"/><text x="875" y="484" fill="#000" dy=".76em" font-family="sans-serif" font-size="9.677" opacity="1" text-anchor="middle">1000000000.0</text><polyline fill="none" stroke="#000" stroke-width="1" points="875 474 875 479" opacity="1"/><circle cx="86" cy="472" r="3" fill="#B22222" stroke="none" opacity="1"/><circle cx="86" cy="472" r="3" fill="#B22222" stroke="none" opacity="1"/><circle cx="86" cy="472" r="3" fill="#B22222" stroke="none" opacity="1"/><circle cx="86" cy="472" r="3" fill="#B22222" stroke="none" opacity="1"/><circle cx="86" cy="472" r="3" fill="#B22222" stroke="none" opacity="1"/><circle cx="86" cy="472" r="3" fill="#B22222" stroke="none" opacity="1"/><circle cx="87" cy="472" r="3" fill="#B22222" stroke="none" opacity="1"/><circle cx="89" cy="471" r="3" fill="#B22222" stroke="none" opacity="1"/><circle cx="92" cy="470" r="3" fill="#B22222" stroke="none" opacity="1"/><circle cx="99" cy="467" r="3" fill="#B22222" stroke="none" opacity="1"/><circle cx="112" cy="461" r="3" fill="#B22222" stroke="none" opacity="1"/><circle cx="138" cy="448" r="3" fill="#B22222" stroke="none" opacity="1"/><circle cx="191" cy="422" r="3" fill="#B22222" stroke="none" opacity="1"/><circle cx="297" cy="369" r="3" fill="#B22222" stroke="none" opacity="1"/><circle cx="509" cy="263" r="3" fill="#B22222" stroke="none" opacity="1"/><circle cx="934" cy="52" r="3" fill="#B22222" stroke="none" opacity="1"/><polyline fill="none" stroke="#B22222" stroke-width="1" points="86 472 86 472 86 472 86 472 86 472 86 472 87 472 89 471 92 470 99 467 112 461 138 448 191 422 297 369 509 263 934 52" opacity="1"/><circle cx="86" cy="473" r="3" fill="#2E8B57" stroke="none" opacity="1"/><circle cx="86" cy="472" r="3" fill="#2E8B57" stroke="none" opacity="1"/><circle cx="86" cy="472" r="3" fill="#2E8B57" stroke="none" opacity="1"/><circle cx="86" cy="472" r="3" fill="#2E8B57" stroke="none" opacity="1"/><circle cx="86" cy="472" r="3" fill="#2E8B57" stroke="none" opacity="1"/><circle cx="86" cy="472" r="3" fill="#2E8B57" stroke="none" opacity="1"/><circle cx="87" cy="472" r="3" fill="#2E8B57" stroke="none" opacity="1"/><circle cx="89" cy="472" r="3" fill="#2E8B57" stroke="none" opacity="1"/><circle cx="92" cy="471" r="3" fill="#2E8B57" stroke="none" opacity="1"/><circle cx="99" cy="470" r="3" fill="#2E8B57" stroke="none" opacity="1"/><circle cx="112" cy="467" r="3" fill="#2E8B57" stroke="none" opacity="1"/><circle cx="138" cy="460" r="3" fill="#2E8B57" stroke="none" opacity="1"/><circle cx="191" cy="447" r="3" fill="#2E8B57" stroke="none" opacity="1"/><circle cx="297" cy="420" r="3" fill="#2E8B57" stroke="none" opacity="1"/><circle cx="509" cy="364" r="3" fill="#2E8B57" stroke="none" opacity="1"/><circle cx="934" cy="243" r="3" fill="#2E8B57" stroke="none" opacity="1"/><polyline fill="none" stroke="#2E8B57" stroke-width="1" points="86 473 86 472 86 472 86 472 86 472 86 472 87 472 89 472 92 471 99 470 112 467 138 460 191 447 297 420 509 364 934 243" opacity="1"/><circle cx="86" cy="473" r="3" fill="#008B8B" stroke="none" opacity="1"/><circle cx="86" cy="472" r="3" fill="#008B8B" stroke="none" opacity="1"/><circle cx="86" cy="472" r="3" fill="#008B8B" stroke="none" opacity="1"/><circle cx="86" cy="472" r="3" fill="#008B8B" stroke="none" opacity="1"/><circle cx="86" cy="472" r="3" fill="#008B8B" stroke="none" opacity="1"/><circle cx="86" cy="472" r="3" fill="#008B8B" stroke="none" opacity="1"/><circle cx="87" cy="472" r="3" fill="#008B8B" stroke="none" opacity="1"/><circle cx="89" cy="472" r="3" fill="#008B8B" stroke="none" opacity="1"/><circle cx="92" cy="472" r="3" fill="#008B8B" stroke="none" opacity="1"/><circle cx="99" cy="471" r="3" fill="#008B8B" stroke="none" opacity="1"/><circle cx="112" cy="469" r="3" fill="#008B8B" stroke="none" opacity="1"/><circle cx="138" cy="466" r="3" fill="#008B8B" stroke="none" opacity="1"/><circle cx="191" cy="459" r="3" fill="#008B8B" stroke="none" opacity="1"/><circle cx="297" cy="445" r="3" fill="#008B8B" stroke="none" opacity="1"/><circle cx="509" cy="417" r="3" fill="#008B8B" stroke="none" opacity="1"/><circle cx="934" cy="357" r="3" fill="#008B8B" stroke="none" opacity="1"/><polyline fill="none" stroke="#008B8B" stroke-width="1" points="86 473 86 472 86 472 86 472 86 472 86 472 87 472 89 472 92 472 99 471 112 469 138 466 191 459 297 445 509 417 934 357" opacity="1"/><circle cx="86" cy="472" r="3" fill="gold" stroke="none" opacity="1"/><circle cx="86" cy="472" r="3" fill="gold" stroke="none" opacity="1"/><circle cx="86" cy="472" r="3" fill="gold" stroke="none" opacity="1"/><circle cx="86" cy="472" r="3" fill="gold" stroke="none" opacity="1"/><circle cx="86" cy="472" r="3" fill="gold" stroke="none" opacity="1"/><circle cx="86" cy="472" r="3" fill="gold" stroke="none" opacity="1"/><circle cx="87" cy="472" r="3" fill="gold" stroke="none" opacity="1"/><circle cx="89" cy="472" r="3" fill="gold" stroke="none" opacity="1"/><circle cx="92" cy="472" r="3" fill="gold" stroke="none" opacity="1"/><circle cx="99" cy="472" r="3" fill="gold" stroke="none" opacity="1"/><circle cx="112" cy="471" r="3" fill="gold" stroke="none" opacity="1"/><circle cx="138" cy="469" r="3" fill="gold" stroke="none" opacity="1"/><circle cx="191" cy="465" r="3" fill="gold" stroke="none" opacity="1"/><circle cx="297" cy="458" r="3" fill="gold" stroke="none" opacity="1"/><circle cx="509" cy="444" r="3" fill="gold" stroke="none" opacity="1"/><circle cx="934" cy="414" r="3" fill="gold" stroke="none" opacity="1"/><polyline fill="none" stroke="gold" stroke-width="1" points="86 472 86 472 86 472 86 472 86 472 86 472 87 472 89 472 92 472 99 472 112 471 138 469 191 465 297 458 509 444 934 414" opacity="1"/><circle cx="86" cy="472" r="3" fill="#00008B" stroke="none" opacity="1"/><circle cx="86" cy="472" r="3" fill="#00008B" stroke="none" opacity="1"/><circle cx="86" cy="472" r="3" fill="#00008B" stroke="none" opacity="1"/><circle cx="86" cy="472" r="3" fill="#00008B" stroke="none" opacity="1"/><circle cx="86" cy="472" r="3" fill="#00008B" stroke="none" opacity="1"/><circle cx="86" cy="472" r="3" fill="#00008B" stroke="none" opacity="1"/><circle cx="87" cy="472" r="3" fill="#00008B" stroke="none" opacity="1"/><circle cx="89" cy="472" r="3" fill="#00008B" stroke="none" opacity="1"/><circle cx="92" cy="472" r="3" fill="#00008B" stroke="none" opacity="1"/><circle cx="99" cy="472" r="3" fill="#00008B" stroke="none" opacity="1"/><circle cx="112" cy="472" r="3" fill="#00008B" stroke="none" opacity="1"/><circle cx="138" cy="471" r="3" fill="#00008B" stroke="none" opacity="1"/><circle cx="191" cy="469" r="3" fill="#00008B" stroke="none" opacity="1"/><circle cx="297" cy="465" r="3" fill="#00008B" stroke="none" opacity="1"/><circle cx="509" cy="458" r="3" fill="#00008B" stroke="none" opacity="1"/><circle cx="934" cy="443" r="3" fill="#00008B" stroke="none" opacity="1"/><polyline fill="none" stroke="#00008B" stroke-width="1" points="86 472 86 472 86 472 86 472 86 472 86 472 87 472 89 472 92 472 99 472 112 472 138 471 191 469 297 465 509 458 934 443" opacity="1"/><circle cx="86" cy="472" r="3" fill="#DC143C" stroke="none" opacity="1"/><circle cx="86" cy="472" r="3" fill="#DC143C" stroke="none" opacity="1"/><circle cx="86" cy="472" r="3" fill="#DC143C" stroke="none" opacity="1"/><circle cx="86" cy="472" r="3" fill="#DC143C" stroke="none" opacity="1"/><circle cx="86" cy="472" r="3" fill="#DC143C" stroke="none" opacity="1"/><circle cx="86" cy="472" r="3" fill="#DC143C" stroke="none" opacity="1"/><circle cx="87" cy="472" r="3" fill="#DC143C" stroke="none" opacity="1"/><circle cx="89" cy="472" r="3" fill="#DC143C" stroke="none" opacity="1"/><circle cx="92" cy="472" r="3" fill="#DC143C" stroke="none" opacity="1"/><circle cx="99" cy="472" r="3" fill="#DC143C" stroke="none" opacity="1"/><circle cx="112" cy="472" r="3" fill="#DC143C" stroke="none" opacity="1"/><circle cx="138" cy="471" r="3" fill="#DC143C" stroke="none" opacity="1"/><circle cx="191" cy="469" r="3" fill="#DC143C" stroke="none" opacity="1"/><circle cx="297" cy="466" r="3" fill="#DC143C" stroke="none" opacity="1"/><circle cx="509" cy="459" r="3" fill="#DC143C" stroke="none" opacity="1"/><circle cx="934" cy="444" r="3" fill="#DC143C" stroke="none" opacity="1"/><polyline fill="none" stroke="#DC143C" stroke-width="1" points="86 472 86 472 86 472 86 472 86 472 86 472 87 472 89 472 92 472 99 472 112 472 138 471 191 469 297 466 509 459 934 444" opacity="1"/><circle cx="86" cy="472" r="3" fill="#8B008B" stroke="none" opacity="1"/><circle cx="86" cy="472" r="3" fill="#8B008B" stroke="none" opacity="1"/><circle cx="86" cy="472" r="3" fill="#8B008B" stroke="none" opacity="1"/><circle cx="86" cy="472" r="3" fill="#8B008B" stroke="none" opacity="1"/><circle cx="86" cy="472" r="3" fill="#8B008B" stroke="none" opacity="1"/><circle cx="86" cy="472" r="3" fill="#8B008B" stroke="none" opacity="1"/><circle cx="87" cy="472" r="3" fill="#8B008B" stroke="none" opacity="1"/><circle cx="89" cy="472" r="3" fill="#8B008B" stroke="none" opacity="1"/><circle cx="92" cy="472" r="3" fill="#8B008B" stroke="none" opacity="1"/><circle cx="99" cy="472" r="3" fill="#8B008B" stroke="none" opacity="1"/><circle cx="112" cy="472" r="3" fill="#8B008B" stroke="none" opacity="1"/><circle cx="138" cy="471" r="3" fill="#8B008B" stroke="none" opacity="1"/><circle cx="191" cy="469" r="3" fill="#8B008B" stroke="none" opacity="1"/><circle cx="297" cy="465" r="3" fill="#8B008B" stroke="none" opacity="1"/><circle cx="509" cy="457" r="3" fill="#8B008B" stroke="none" opacity="1"/><circle cx="934" cy="440" r="3" fill="#8B008B" stroke="none" opacity="1"/><polyline fill="none" stroke="#8B008B" stroke-width="1" points="86 472 86 472 86 472 86 472 86 472 86 472 87 472 89 472 92 472 99 472 112 472 138 471 191 469 297 465 509 457 934 440" opacity="1"/><text x="131" y="67" fill="#000" dy=".76em" font-family="sans-serif" font-size="9.677" opacity="1" text-anchor="start">threads_01</text><text x="131" y="82" fill="#000" dy=".76em" font-family="sans-serif" font-size="9.677" opacity="1" text-anchor="start">threads_02</text><text x="131" y="97" fill="#000" dy=".76em" font-family="sans-serif" font-size="9.677" opacity="1" text-anchor="start">threads_04</text><text x="131" y="112" fill="#000" dy=".76em" font-family="sans-serif" font-size="9.677" opacity="1" text-anchor="start">threads_08</text><text x="131" y="127" fill="#000" dy=".76em" font-family="sans-serif" font-size="9.677" opacity="1" text-anchor="start">threads_16</text><text x="131" y="142" fill="#000" dy=".76em" font-family="sans-serif" font-size="9.677" opacity="1" text-anchor="start">threads_32</text><text x="131" y="157" fill="#000" dy=".76em" font-family="sans-serif" font-size="9.677" opacity="1" text-anchor="start">threads_48</text><rect width="20" height="10" x="101" y="67" fill="#B22222" stroke="none" opacity="1"/><rect width="20" height="10" x="101" y="82" fill="#2E8B57" stroke="none" opacity="1"/><rect width="20" height="10" x="101" y="97" fill="#008B8B" stroke="none" opacity="1"/><rect width="20" height="10" x="101" y="112" fill="gold" stroke="none" opacity="1"/><rect width="20" height="10" x="101" y="127" fill="#00008B" stroke="none" opacity="1"/><rect width="20" height="10" x="101" y="142" fill="#DC143C" stroke="none" opacity="1"/><rect width="20" height="10" x="101" y="157" fill="#8B008B" stroke="none" opacity="1"/></svg>