<svg xmlns="http://www.w3.org/2000/svg" width="960" height="540"><text x="480" y="32" fill="#000" dy=".76em" font-family="sans-serif" font-size="16.129" opacity="1" text-anchor="middle">bench_group/threads_48/1073741824</text><text x="27" y="263" fill="#000" dy=".76em" font-family="sans-serif" font-size="9.677" opacity="1" text-anchor="middle" transform="rotate(270, 27, 263)">Total sample time (s)</text><text x="510" y="513" fill="#000" dy="-.5ex" font-family="sans-serif" font-size="9.677" opacity="1" text-anchor="middle">Iterations</text><line x1="163" x2="163" y1="472" y2="52" stroke="#000" stroke-width="1" opacity=".2"/><line x1="249" x2="249" y1="472" y2="52" stroke="#000" stroke-width="1" opacity=".2"/><line x1="334" x2="334" y1="472" y2="52" stroke="#000" stroke-width="1" opacity=".2"/><line x1="420" x2="420" y1="472" y2="52" stroke="#000" stroke-width="1" opacity=".2"/><line x1="505" x2="505" y1="472" y2="52" stroke="#000" stroke-width="1" opacity=".2"/><line x1="591" x2="591" y1="472" y2="52" stroke="#000" stroke-width="1" opacity=".2"/><line x1="676" x2="676" y1="472" y2="52" stroke="#000" stroke-width="1" opacity=".2"/><line x1="762" x2="762" y1="472" y2="52" stroke="#000" stroke-width="1" opacity=".2"/><line x1="847" x2="847" y1="472" y2="52" stroke="#000" stroke-width="1" opacity=".2"/><line x1="933" x2="933" y1="472" y2="52" stroke="#000" stroke-width="1" opacity=".2"/><line x1="87" x2="933" y1="414" y2="414" stroke="#000" stroke-width="1" opacity=".2"/><line x1="87" x2="933" y1="351" y2="351" stroke="#000" stroke-width="1" opacity=".2"/><line x1="87" x2="933" y1="289" y2="289" stroke="#000" stroke-width="1" opacity=".2"/><line x1="87" x2="933" y1="227" y2="227" stroke="#000" stroke-width="1" opacity=".2"/><line x1="87" x2="933" y1="165" y2="165" stroke="#000" stroke-width="1" opacity=".2"/><line x1="87" x2="933" y1="103" y2="103" stroke="#000" stroke-width="1" opacity=".2"/><polyline fill="none" stroke="#000" stroke-width="1" points="86 53 86 473" opacity="1"/><text x="77" y="414" fill="#000" dy=".5ex" font-family="sans-serif" font-size="9.677" opacity="1" text-anchor="end">0.2</text><polyline fill="none" stroke="#000" stroke-width="1" points="81 414 86 414" opacity="1"/><text x="77" y="351" fill="#000" dy=".5ex" font-family="sans-serif" font-size="9.677" opacity="1" text-anchor="end">0.4</text><polyline fill="none" stroke="#000" stroke-width="1" points="81 351 86 351" opacity="1"/><text x="77" y="289" fill="#000" dy=".5ex" font-family="sans-serif" font-size="9.677" opacity="1" text-anchor="end">0.6</text><polyline fill="none" stroke="#000" stroke-width="1" points="81 289 86 289" opacity="1"/><text x="77" y="227" fill="#000" dy=".5ex" font-family="sans-serif" font-size="9.677" opacity="1" text-anchor="end">0.8</text><polyline fill="none" stroke="#000" stroke-width="1" points="81 227 86 227" opacity="1"/><text x="77" y="165" fill="#000" dy=".5ex" font-family="sans-serif" font-size="9.677" opacity="1" text-anchor="end">1.0</text><polyline fill="none" stroke="#000" stroke-width="1" points="81 165 86 165" opacity="1"/><text x="77" y="103" fill="#000" dy=".5ex" font-family="sans-serif" font-size="9.677" opacity="1" text-anchor="end">1.2</text><polyline fill="none" stroke="#000" stroke-width="1" points="81 103 86 103" opacity="1"/><polyline fill="none" stroke="#000" stroke-width="1" points="87 473 933 473" opacity="1"/><text x="163" y="483" fill="#000" dy=".76em" font-family="sans-serif" font-size="9.677" opacity="1" text-anchor="middle">10</text><polyline fill="none" stroke="#000" stroke-width="1" points="163 473 163 478" opacity="1"/><text x="249" y="483" fill="#000" dy=".76em" font-family="sans-serif" font-size="9.677" opacity="1" text-anchor="middle">20</text><polyline fill="none" stroke="#000" stroke-width="1" points="249 473 249 478" opacity="1"/><text x="334" y="483" fill="#000" dy=".76em" font-family="sans-serif" font-size="9.677" opacity="1" text-anchor="middle">30</text><polyline fill="none" stroke="#000" stroke-width="1" points="334 473 334 478" opacity="1"/><text x="420" y="483" fill="#000" dy=".76em" font-family="sans-serif" font-size="9.677" opacity="1" text-anchor="middle">40</text><polyline fill="none" stroke="#000" stroke-width="1" points="420 473 420 478" opacity="1"/><text x="505" y="483" fill="#000" dy=".76em" font-family="sans-serif" font-size="9.677" opacity="1" text-anchor="middle">50</text><polyline fill="none" stroke="#000" stroke-width="1" points="505 473 505 478" opacity="1"/><text x="591" y="483" fill="#000" dy=".76em" font-family="sans-serif" font-size="9.677" opacity="1" text-anchor="middle">60</text><polyline fill="none" stroke="#000" stroke-width="1" points="591 473 591 478" opacity="1"/><text x="676" y="483" fill="#000" dy=".76em" font-family="sans-serif" font-size="9.677" opacity="1" text-anchor="middle">70</text><polyline fill="none" stroke="#000" stroke-width="1" points="676 473 676 478" opacity="1"/><text x="762" y="483" fill="#000" dy=".76em" font-family="sans-serif" font-size="9.677" opacity="1" text-anchor="middle">80</text><polyline fill="none" stroke="#000" stroke-width="1" points="762 473 762 478" opacity="1"/><text x="847" y="483" fill="#000" dy=".76em" font-family="sans-serif" font-size="9.677" opacity="1" text-anchor="middle">90</text><polyline fill="none" stroke="#000" stroke-width="1" points="847 473 847 478" opacity="1"/><text x="933" y="483" fill="#000" dy=".76em" font-family="sans-serif" font-size="9.677" opacity="1" text-anchor="middle">100</text><polyline fill="none" stroke="#000" stroke-width="1" points="933 473 933 478" opacity="1"/><circle cx="87" cy="472" r="3" fill="#1F78B4" stroke="none" opacity="1"/><circle cx="95" cy="467" r="3" fill="#1F78B4" stroke="none" opacity="1"/><circle cx="104" cy="463" r="3" fill="#1F78B4" stroke="none" opacity="1"/><circle cx="112" cy="458" r="3" fill="#1F78B4" stroke="none" opacity="1"/><circle cx="121" cy="454" r="3" fill="#1F78B4" stroke="none" opacity="1"/><circle cx="129" cy="449" r="3" fill="#1F78B4" stroke="none" opacity="1"/><circle cx="138" cy="445" r="3" fill="#1F78B4" stroke="none" opacity="1"/><circle cx="146" cy="441" r="3" fill="#1F78B4" stroke="none" opacity="1"/><circle cx="155" cy="437" r="3" fill="#1F78B4" stroke="none" opacity="1"/><circle cx="163" cy="432" r="3" fill="#1F78B4" stroke="none" opacity="1"/><circle cx="172" cy="428" r="3" fill="#1F78B4" stroke="none" opacity="1"/><circle cx="181" cy="424" r="3" fill="#1F78B4" stroke="none" opacity="1"/><circle cx="189" cy="420" r="3" fill="#1F78B4" stroke="none" opacity="1"/><circle cx="198" cy="415" r="3" fill="#1F78B4" stroke="none" opacity="1"/><circle cx="206" cy="411" r="3" fill="#1F78B4" stroke="none" opacity="1"/><circle cx="215" cy="407" r="3" fill="#1F78B4" stroke="none" opacity="1"/><circle cx="223" cy="403" r="3" fill="#1F78B4" stroke="none" opacity="1"/><circle cx="232" cy="398" r="3" fill="#1F78B4" stroke="none" opacity="1"/><circle cx="240" cy="394" r="3" fill="#1F78B4" stroke="none" opacity="1"/><circle cx="249" cy="390" r="3" fill="#1F78B4" stroke="none" opacity="1"/><circle cx="257" cy="385" r="3" fill="#1F78B4" stroke="none" opacity="1"/><circle cx="266" cy="382" r="3" fill="#1F78B4" stroke="none" opacity="1"/><circle cx="275" cy="378" r="3" fill="#1F78B4" stroke="none" opacity="1"/><circle cx="283" cy="373" r="3" fill="#1F78B4" stroke="none" opacity="1"/><circle cx="292" cy="369" r="3" fill="#1F78B4" stroke="none" opacity="1"/><circle cx="300" cy="364" r="3" fill="#1F78B4" stroke="none" opacity="1"/><circle cx="309" cy="360" r="3" fill="#1F78B4" stroke="none" opacity="1"/><circle cx="317" cy="356" r="3" fill="#1F78B4" stroke="none" opacity="1"/><circle cx="326" cy="351" r="3" fill="#1F78B4" stroke="none" opacity="1"/><circle cx="334" cy="347" r="3" fill="#1F78B4" stroke="none" opacity="1"/><circle cx="343" cy="344" r="3" fill="#1F78B4" stroke="none" opacity="1"/><circle cx="351" cy="339" r="3" fill="#1F78B4" stroke="none" opacity="1"/><circle cx="360" cy="336" r="3" fill="#1F78B4" stroke="none" opacity="1"/><circle cx="369" cy="331" r="3" fill="#1F78B4" stroke="none" opacity="1"/><circle cx="377" cy="327" r="3" fill="#1F78B4" stroke="none" opacity="1"/><circle cx="386" cy="323" r="3" fill="#1F78B4" stroke="none" opacity="1"/><circle cx="394" cy="318" r="3" fill="#1F78B4" stroke="none" opacity="1"/><circle cx="403" cy="314" r="3" fill="#1F78B4" stroke="none" opacity="1"/><circle cx="411" cy="308" r="3" fill="#1F78B4" stroke="none" opacity="1"/><circle cx="420" cy="305" r="3" fill="#1F78B4" stroke="none" opacity="1"/><circle cx="428" cy="302" r="3" fill="#1F78B4" stroke="none" opacity="1"/><circle cx="437" cy="296" r="3" fill="#1F78B4" stroke="none" opacity="1"/><circle cx="445" cy="293" r="3" fill="#1F78B4" stroke="none" opacity="1"/><circle cx="454" cy="288" r="3" fill="#1F78B4" stroke="none" opacity="1"/><circle cx="463" cy="281" r="3" fill="#1F78B4" stroke="none" opacity="1"/><circle cx="471" cy="279" r="3" fill="#1F78B4" stroke="none" opacity="1"/><circle cx="480" cy="276" r="3" fill="#1F78B4" stroke="none" opacity="1"/><circle cx="488" cy="273" r="3" fill="#1F78B4" stroke="none" opacity="1"/><circle cx="497" cy="269" r="3" fill="#1F78B4" stroke="none" opacity="1"/><circle cx="505" cy="265" r="3" fill="#1F78B4" stroke="none" opacity="1"/><circle cx="514" cy="261" r="3" fill="#1F78B4" stroke="none" opacity="1"/><circle cx="522" cy="254" r="3" fill="#1F78B4" stroke="none" opacity="1"/><circle cx="531" cy="252" r="3" fill="#1F78B4" stroke="none" opacity="1"/><circle cx="539" cy="245" r="3" fill="#1F78B4" stroke="none" opacity="1"/><circle cx="548" cy="241" r="3" fill="#1F78B4" stroke="none" opacity="1"/><circle cx="557" cy="237" r="3" fill="#1F78B4" stroke="none" opacity="1"/><circle cx="565" cy="234" r="3" fill="#1F78B4" stroke="none" opacity="1"/><circle cx="574" cy="229" r="3" fill="#1F78B4" stroke="none" opacity="1"/><circle cx="582" cy="225" r="3" fill="#1F78B4" stroke="none" opacity="1"/><circle cx="591" cy="221" r="3" fill="#1F78B4" stroke="none" opacity="1"/><circle cx="599" cy="216" r="3" fill="#1F78B4" stroke="none" opacity="1"/><circle cx="608" cy="211" r="3" fill="#1F78B4" stroke="none" opacity="1"/><circle cx="616" cy="208" r="3" fill="#1F78B4" stroke="none" opacity="1"/><circle cx="625" cy="204" r="3" fill="#1F78B4" stroke="none" opacity="1"/><circle cx="633" cy="198" r="3" fill="#1F78B4" stroke="none" opacity="1"/><circle cx="642" cy="197" r="3" fill="#1F78B4" stroke="none" opacity="1"/><circle cx="651" cy="192" r="3" fill="#1F78B4" stroke="none" opacity="1"/><circle cx="659" cy="188" r="3" fill="#1F78B4" stroke="none" opacity="1"/><circle cx="668" cy="182" r="3" fill="#1F78B4" stroke="none" opacity="1"/><circle cx="676" cy="179" r="3" fill="#1F78B4" stroke="none" opacity="1"/><circle cx="685" cy="175" r="3" fill="#1F78B4" stroke="none" opacity="1"/><circle cx="693" cy="173" r="3" fill="#1F78B4" stroke="none" opacity="1"/><circle cx="702" cy="169" r="3" fill="#1F78B4" stroke="none" opacity="1"/><circle cx="710" cy="164" r="3" fill="#1F78B4" stroke="none" opacity="1"/><circle cx="719" cy="158" r="3" fill="#1F78B4" stroke="none" opacity="1"/><circle cx="727" cy="153" r="3" fill="#1F78B4" stroke="none" opacity="1"/><circle cx="736" cy="148" r="3" fill="#1F78B4" stroke="none" opacity="1"/><circle cx="745" cy="144" r="3" fill="#1F78B4" stroke="none" opacity="1"/><circle cx="753" cy="142" r="3" fill="#1F78B4" stroke="none" opacity="1"/><circle cx="762" cy="136" r="3" fill="#1F78B4" stroke="none" opacity="1"/><circle cx="770" cy="135" r="3" fill="#1F78B4" stroke="none" opacity="1"/><circle cx="779" cy="128" r="3" fill="#1F78B4" stroke="none" opacity="1"/><circle cx="787" cy="126" r="3" fill="#1F78B4" stroke="none" opacity="1"/><circle cx="796" cy="120" r="3" fill="#1F78B4" stroke="none" opacity="1"/><circle cx="804" cy="116" r="3" fill="#1F78B4" stroke="none" opacity="1"/><circle cx="813" cy="111" r="3" fill="#1F78B4" stroke="none" opacity="1"/><circle cx="821" cy="110" r="3" fill="#1F78B4" stroke="none" opacity="1"/><circle cx="830" cy="105" r="3" fill="#1F78B4" stroke="none" opacity="1"/><circle cx="839" cy="101" r="3" fill="#1F78B4" stroke="none" opacity="1"/><circle cx="847" cy="96" r="3" fill="#1F78B4" stroke="none" opacity="1"/><circle cx="856" cy="92" r="3" fill="#1F78B4" stroke="none" opacity="1"/><circle cx="864" cy="86" r="3" fill="#1F78B4" stroke="none" opacity="1"/><circle cx="873" cy="84" r="3" fill="#1F78B4" stroke="none" opacity="1"/><circle cx="881" cy="79" r="3" fill="#1F78B4" stroke="none" opacity="1"/><circle cx="890" cy="76" r="3" fill="#1F78B4" stroke="none" opacity="1"/><circle cx="898" cy="77" r="3" fill="#1F78B4" stroke="none" opacity="1"/><circle cx="907" cy="65" r="3" fill="#1F78B4" stroke="none" opacity="1"/><circle cx="915" cy="65" r="3" fill="#1F78B4" stroke="none" opacity="1"/><circle cx="924" cy="60" r="3" fill="#1F78B4" stroke="none" opacity="1"/><circle cx="933" cy="53" r="3" fill="#1F78B4" stroke="none" opacity="1"/><polyline fill="none" stroke="#1F78B4" stroke-width="1" points="87 473 933 53" opacity="1"/><polygon fill="#1F78B4" points="87 473 933 53 933 53" opacity=".25"/><text x="132" y="68" fill="#000" dy=".76em" font-family="sans-serif" font-size="9.677" opacity="1" text-anchor="start">Sample</text><text x="132" y="83" fill="#000" dy=".76em" font-family="sans-serif" font-size="9.677" opacity="1" text-anchor="start">Linear regression</text><text x="132" y="98" fill="#000" dy=".76em" font-family="sans-serif" font-size="9.677" opacity="1" text-anchor="start">Confidence interval</text><circle cx="112" cy="73" r="3" fill="#1F78B4" stroke="none" opacity="1"/><polyline fill="none" stroke="#1F78B4" stroke-width="2" points="102 88 122 88" opacity="1"/><rect width="20" height="10" x="102" y="98" fill="#1F78B4" stroke="none" opacity=".25"/></svg>