<svg xmlns="http://www.w3.org/2000/svg" width="960" height="540"><text x="480" y="32" fill="#000" dy=".76em" font-family="sans-serif" font-size="16.129" opacity="1" text-anchor="middle">bench_group/blake3/114688</text><text x="27" y="263" fill="#000" dy=".76em" font-family="sans-serif" font-size="9.677" opacity="1" text-anchor="middle" transform="rotate(270, 27, 263)">Total sample time (ms)</text><text x="510" y="513" fill="#000" dy="-.5ex" font-family="sans-serif" font-size="9.677" opacity="1" text-anchor="middle">Iterations (x 10^3)</text><line x1="159" x2="159" y1="472" y2="52" stroke="#000" stroke-width="1" opacity=".2"/><line x1="239" x2="239" y1="472" y2="52" stroke="#000" stroke-width="1" opacity=".2"/><line x1="320" x2="320" y1="472" y2="52" stroke="#000" stroke-width="1" opacity=".2"/><line x1="400" x2="400" y1="472" y2="52" stroke="#000" stroke-width="1" opacity=".2"/><line x1="481" x2="481" y1="472" y2="52" stroke="#000" stroke-width="1" opacity=".2"/><line x1="562" x2="562" y1="472" y2="52" stroke="#000" stroke-width="1" opacity=".2"/><line x1="642" x2="642" y1="472" y2="52" stroke="#000" stroke-width="1" opacity=".2"/><line x1="723" x2="723" y1="472" y2="52" stroke="#000" stroke-width="1" opacity=".2"/><line x1="804" x2="804" y1="472" y2="52" stroke="#000" stroke-width="1" opacity=".2"/><line x1="884" x2="884" y1="472" y2="52" stroke="#000" stroke-width="1" opacity=".2"/><line x1="87" x2="933" y1="433" y2="433" stroke="#000" stroke-width="1" opacity=".2"/><line x1="87" x2="933" y1="390" y2="390" stroke="#000" stroke-width="1" opacity=".2"/><line x1="87" x2="933" y1="348" y2="348" stroke="#000" stroke-width="1" opacity=".2"/><line x1="87" x2="933" y1="305" y2="305" stroke="#000" stroke-width="1" opacity=".2"/><line x1="87" x2="933" y1="262" y2="262" stroke="#000" stroke-width="1" opacity=".2"/><line x1="87" x2="933" y1="220" y2="220" stroke="#000" stroke-width="1" opacity=".2"/><line x1="87" x2="933" y1="177" y2="177" stroke="#000" stroke-width="1" opacity=".2"/><line x1="87" x2="933" y1="134" y2="134" stroke="#000" stroke-width="1" opacity=".2"/><line x1="87" x2="933" y1="91" y2="91" stroke="#000" stroke-width="1" opacity=".2"/><polyline fill="none" stroke="#000" stroke-width="1" points="86 53 86 473" opacity="1"/><text x="77" y="433" fill="#000" dy=".5ex" font-family="sans-serif" font-size="9.677" opacity="1" text-anchor="end">10.0</text><polyline fill="none" stroke="#000" stroke-width="1" points="81 433 86 433" opacity="1"/><text x="77" y="390" fill="#000" dy=".5ex" font-family="sans-serif" font-size="9.677" opacity="1" text-anchor="end">20.0</text><polyline fill="none" stroke="#000" stroke-width="1" points="81 390 86 390" opacity="1"/><text x="77" y="348" fill="#000" dy=".5ex" font-family="sans-serif" font-size="9.677" opacity="1" text-anchor="end">30.0</text><polyline fill="none" stroke="#000" stroke-width="1" points="81 348 86 348" opacity="1"/><text x="77" y="305" fill="#000" dy=".5ex" font-family="sans-serif" font-size="9.677" opacity="1" text-anchor="end">40.0</text><polyline fill="none" stroke="#000" stroke-width="1" points="81 305 86 305" opacity="1"/><text x="77" y="262" fill="#000" dy=".5ex" font-family="sans-serif" font-size="9.677" opacity="1" text-anchor="end">50.0</text><polyline fill="none" stroke="#000" stroke-width="1" points="81 262 86 262" opacity="1"/><text x="77" y="220" fill="#000" dy=".5ex" font-family="sans-serif" font-size="9.677" opacity="1" text-anchor="end">60.0</text><polyline fill="none" stroke="#000" stroke-width="1" points="81 220 86 220" opacity="1"/><text x="77" y="177" fill="#000" dy=".5ex" font-family="sans-serif" font-size="9.677" opacity="1" text-anchor="end">70.0</text><polyline fill="none" stroke="#000" stroke-width="1" points="81 177 86 177" opacity="1"/><text x="77" y="134" fill="#000" dy=".5ex" font-family="sans-serif" font-size="9.677" opacity="1" text-anchor="end">80.0</text><polyline fill="none" stroke="#000" stroke-width="1" points="81 134 86 134" opacity="1"/><text x="77" y="91" fill="#000" dy=".5ex" font-family="sans-serif" font-size="9.677" opacity="1" text-anchor="end">90.0</text><polyline fill="none" stroke="#000" stroke-width="1" points="81 91 86 91" opacity="1"/><polyline fill="none" stroke="#000" stroke-width="1" points="87 473 933 473" opacity="1"/><text x="159" y="483" fill="#000" dy=".76em" font-family="sans-serif" font-size="9.677" opacity="1" text-anchor="middle">0.5</text><polyline fill="none" stroke="#000" stroke-width="1" points="159 473 159 478" opacity="1"/><text x="239" y="483" fill="#000" dy=".76em" font-family="sans-serif" font-size="9.677" opacity="1" text-anchor="middle">1</text><polyline fill="none" stroke="#000" stroke-width="1" points="239 473 239 478" opacity="1"/><text x="320" y="483" fill="#000" dy=".76em" font-family="sans-serif" font-size="9.677" opacity="1" text-anchor="middle">1.5</text><polyline fill="none" stroke="#000" stroke-width="1" points="320 473 320 478" opacity="1"/><text x="400" y="483" fill="#000" dy=".76em" font-family="sans-serif" font-size="9.677" opacity="1" text-anchor="middle">2</text><polyline fill="none" stroke="#000" stroke-width="1" points="400 473 400 478" opacity="1"/><text x="481" y="483" fill="#000" dy=".76em" font-family="sans-serif" font-size="9.677" opacity="1" text-anchor="middle">2.5</text><polyline fill="none" stroke="#000" stroke-width="1" points="481 473 481 478" opacity="1"/><text x="562" y="483" fill="#000" dy=".76em" font-family="sans-serif" font-size="9.677" opacity="1" text-anchor="middle">3</text><polyline fill="none" stroke="#000" stroke-width="1" points="562 473 562 478" opacity="1"/><text x="642" y="483" fill="#000" dy=".76em" font-family="sans-serif" font-size="9.677" opacity="1" text-anchor="middle">3.5</text><polyline fill="none" stroke="#000" stroke-width="1" points="642 473 642 478" opacity="1"/><text x="723" y="483" fill="#000" dy=".76em" font-family="sans-serif" font-size="9.677" opacity="1" text-anchor="middle">4</text><polyline fill="none" stroke="#000" stroke-width="1" points="723 473 723 478" opacity="1"/><text x="804" y="483" fill="#000" dy=".76em" font-family="sans-serif" font-size="9.677" opacity="1" text-anchor="middle">4.5</text><polyline fill="none" stroke="#000" stroke-width="1" points="804 473 804 478" opacity="1"/><text x="884" y="483" fill="#000" dy=".76em" font-family="sans-serif" font-size="9.677" opacity="1" text-anchor="middle">5</text><polyline fill="none" stroke="#000" stroke-width="1" points="884 473 884 478" opacity="1"/><circle cx="87" cy="472" r="3" fill="#1F78B4" stroke="none" opacity="1"/><circle cx="95" cy="467" r="3" fill="#1F78B4" stroke="none" opacity="1"/><circle cx="104" cy="463" r="3" fill="#1F78B4" stroke="none" opacity="1"/><circle cx="112" cy="459" r="3" fill="#1F78B4" stroke="none" opacity="1"/><circle cx="121" cy="455" r="3" fill="#1F78B4" stroke="none" opacity="1"/><circle cx="129" cy="450" r="3" fill="#1F78B4" stroke="none" opacity="1"/><circle cx="138" cy="446" r="3" fill="#1F78B4" stroke="none" opacity="1"/><circle cx="146" cy="442" r="3" fill="#1F78B4" stroke="none" opacity="1"/><circle cx="155" cy="438" r="3" fill="#1F78B4" stroke="none" opacity="1"/><circle cx="163" cy="433" r="3" fill="#1F78B4" stroke="none" opacity="1"/><circle cx="172" cy="429" r="3" fill="#1F78B4" stroke="none" opacity="1"/><circle cx="181" cy="425" r="3" fill="#1F78B4" stroke="none" opacity="1"/><circle cx="189" cy="421" r="3" fill="#1F78B4" stroke="none" opacity="1"/><circle cx="198" cy="416" r="3" fill="#1F78B4" stroke="none" opacity="1"/><circle cx="206" cy="412" r="3" fill="#1F78B4" stroke="none" opacity="1"/><circle cx="215" cy="408" r="3" fill="#1F78B4" stroke="none" opacity="1"/><circle cx="223" cy="404" r="3" fill="#1F78B4" stroke="none" opacity="1"/><circle cx="232" cy="399" r="3" fill="#1F78B4" stroke="none" opacity="1"/><circle cx="240" cy="395" r="3" fill="#1F78B4" stroke="none" opacity="1"/><circle cx="249" cy="391" r="3" fill="#1F78B4" stroke="none" opacity="1"/><circle cx="257" cy="387" r="3" fill="#1F78B4" stroke="none" opacity="1"/><circle cx="266" cy="383" r="3" fill="#1F78B4" stroke="none" opacity="1"/><circle cx="275" cy="378" r="3" fill="#1F78B4" stroke="none" opacity="1"/><circle cx="283" cy="374" r="3" fill="#1F78B4" stroke="none" opacity="1"/><circle cx="292" cy="370" r="3" fill="#1F78B4" stroke="none" opacity="1"/><circle cx="300" cy="366" r="3" fill="#1F78B4" stroke="none" opacity="1"/><circle cx="309" cy="361" r="3" fill="#1F78B4" stroke="none" opacity="1"/><circle cx="317" cy="357" r="3" fill="#1F78B4" stroke="none" opacity="1"/><circle cx="326" cy="353" r="3" fill="#1F78B4" stroke="none" opacity="1"/><circle cx="334" cy="349" r="3" fill="#1F78B4" stroke="none" opacity="1"/><circle cx="343" cy="344" r="3" fill="#1F78B4" stroke="none" opacity="1"/><circle cx="351" cy="340" r="3" fill="#1F78B4" stroke="none" opacity="1"/><circle cx="360" cy="336" r="3" fill="#1F78B4" stroke="none" opacity="1"/><circle cx="369" cy="332" r="3" fill="#1F78B4" stroke="none" opacity="1"/><circle cx="377" cy="327" r="3" fill="#1F78B4" stroke="none" opacity="1"/><circle cx="386" cy="323" r="3" fill="#1F78B4" stroke="none" opacity="1"/><circle cx="394" cy="319" r="3" fill="#1F78B4" stroke="none" opacity="1"/><circle cx="403" cy="315" r="3" fill="#1F78B4" stroke="none" opacity="1"/><circle cx="411" cy="309" r="3" fill="#1F78B4" stroke="none" opacity="1"/><circle cx="420" cy="306" r="3" fill="#1F78B4" stroke="none" opacity="1"/><circle cx="428" cy="302" r="3" fill="#1F78B4" stroke="none" opacity="1"/><circle cx="437" cy="298" r="3" fill="#1F78B4" stroke="none" opacity="1"/><circle cx="445" cy="294" r="3" fill="#1F78B4" stroke="none" opacity="1"/><circle cx="454" cy="289" r="3" fill="#1F78B4" stroke="none" opacity="1"/><circle cx="463" cy="285" r="3" fill="#1F78B4" stroke="none" opacity="1"/><circle cx="471" cy="281" r="3" fill="#1F78B4" stroke="none" opacity="1"/><circle cx="480" cy="277" r="3" fill="#1F78B4" stroke="none" opacity="1"/><circle cx="488" cy="272" r="3" fill="#1F78B4" stroke="none" opacity="1"/><circle cx="497" cy="268" r="3" fill="#1F78B4" stroke="none" opacity="1"/><circle cx="505" cy="264" r="3" fill="#1F78B4" stroke="none" opacity="1"/><circle cx="514" cy="260" r="3" fill="#1F78B4" stroke="none" opacity="1"/><circle cx="522" cy="255" r="3" fill="#1F78B4" stroke="none" opacity="1"/><circle cx="531" cy="251" r="3" fill="#1F78B4" stroke="none" opacity="1"/><circle cx="539" cy="247" r="3" fill="#1F78B4" stroke="none" opacity="1"/><circle cx="548" cy="243" r="3" fill="#1F78B4" stroke="none" opacity="1"/><circle cx="557" cy="238" r="3" fill="#1F78B4" stroke="none" opacity="1"/><circle cx="565" cy="234" r="3" fill="#1F78B4" stroke="none" opacity="1"/><circle cx="574" cy="230" r="3" fill="#1F78B4" stroke="none" opacity="1"/><circle cx="582" cy="226" r="3" fill="#1F78B4" stroke="none" opacity="1"/><circle cx="591" cy="220" r="3" fill="#1F78B4" stroke="none" opacity="1"/><circle cx="599" cy="217" r="3" fill="#1F78B4" stroke="none" opacity="1"/><circle cx="608" cy="213" r="3" fill="#1F78B4" stroke="none" opacity="1"/><circle cx="616" cy="209" r="3" fill="#1F78B4" stroke="none" opacity="1"/><circle cx="625" cy="205" r="3" fill="#1F78B4" stroke="none" opacity="1"/><circle cx="633" cy="200" r="3" fill="#1F78B4" stroke="none" opacity="1"/><circle cx="642" cy="196" r="3" fill="#1F78B4" stroke="none" opacity="1"/><circle cx="651" cy="192" r="3" fill="#1F78B4" stroke="none" opacity="1"/><circle cx="659" cy="188" r="3" fill="#1F78B4" stroke="none" opacity="1"/><circle cx="668" cy="183" r="3" fill="#1F78B4" stroke="none" opacity="1"/><circle cx="676" cy="179" r="3" fill="#1F78B4" stroke="none" opacity="1"/><circle cx="685" cy="175" r="3" fill="#1F78B4" stroke="none" opacity="1"/><circle cx="693" cy="171" r="3" fill="#1F78B4" stroke="none" opacity="1"/><circle cx="702" cy="166" r="3" fill="#1F78B4" stroke="none" opacity="1"/><circle cx="710" cy="162" r="3" fill="#1F78B4" stroke="none" opacity="1"/><circle cx="719" cy="158" r="3" fill="#1F78B4" stroke="none" opacity="1"/><circle cx="727" cy="150" r="3" fill="#1F78B4" stroke="none" opacity="1"/><circle cx="736" cy="149" r="3" fill="#1F78B4" stroke="none" opacity="1"/><circle cx="745" cy="145" r="3" fill="#1F78B4" stroke="none" opacity="1"/><circle cx="753" cy="141" r="3" fill="#1F78B4" stroke="none" opacity="1"/><circle cx="762" cy="137" r="3" fill="#1F78B4" stroke="none" opacity="1"/><circle cx="770" cy="132" r="3" fill="#1F78B4" stroke="none" opacity="1"/><circle cx="779" cy="128" r="3" fill="#1F78B4" stroke="none" opacity="1"/><circle cx="787" cy="124" r="3" fill="#1F78B4" stroke="none" opacity="1"/><circle cx="796" cy="120" r="3" fill="#1F78B4" stroke="none" opacity="1"/><circle cx="804" cy="115" r="3" fill="#1F78B4" stroke="none" opacity="1"/><circle cx="813" cy="111" r="3" fill="#1F78B4" stroke="none" opacity="1"/><circle cx="821" cy="107" r="3" fill="#1F78B4" stroke="none" opacity="1"/><circle cx="830" cy="102" r="3" fill="#1F78B4" stroke="none" opacity="1"/><circle cx="839" cy="99" r="3" fill="#1F78B4" stroke="none" opacity="1"/><circle cx="847" cy="94" r="3" fill="#1F78B4" stroke="none" opacity="1"/><circle cx="856" cy="90" r="3" fill="#1F78B4" stroke="none" opacity="1"/><circle cx="864" cy="85" r="3" fill="#1F78B4" stroke="none" opacity="1"/><circle cx="873" cy="81" r="3" fill="#1F78B4" stroke="none" opacity="1"/><circle cx="881" cy="77" r="3" fill="#1F78B4" stroke="none" opacity="1"/><circle cx="890" cy="73" r="3" fill="#1F78B4" stroke="none" opacity="1"/><circle cx="898" cy="69" r="3" fill="#1F78B4" stroke="none" opacity="1"/><circle cx="907" cy="65" r="3" fill="#1F78B4" stroke="none" opacity="1"/><circle cx="915" cy="60" r="3" fill="#1F78B4" stroke="none" opacity="1"/><circle cx="924" cy="55" r="3" fill="#1F78B4" stroke="none" opacity="1"/><circle cx="933" cy="53" r="3" fill="#1F78B4" stroke="none" opacity="1"/><polyline fill="none" stroke="#1F78B4" stroke-width="1" points="87 473 933 53" opacity="1"/><polygon fill="#1F78B4" points="87 473 933 53 933 53" opacity=".25"/><text x="132" y="68" fill="#000" dy=".76em" font-family="sans-serif" font-size="9.677" opacity="1" text-anchor="start">Sample</text><text x="132" y="83" fill="#000" dy=".76em" font-family="sans-serif" font-size="9.677" opacity="1" text-anchor="start">Linear regression</text><text x="132" y="98" fill="#000" dy=".76em" font-family="sans-serif" font-size="9.677" opacity="1" text-anchor="start">Confidence interval</text><circle cx="112" cy="73" r="3" fill="#1F78B4" stroke="none" opacity="1"/><polyline fill="none" stroke="#1F78B4" stroke-width="2" points="102 88 122 88" opacity="1"/><rect width="20" height="10" x="102" y="98" fill="#1F78B4" stroke="none" opacity=".25"/></svg>