<svg xmlns="http://www.w3.org/2000/svg" width="960" height="540"><text x="480" y="32" fill="#000" dy=".76em" font-family="sans-serif" font-size="16.129" opacity="1" text-anchor="middle">bench_group/blake3/80:SD</text><text x="27" y="263" fill="#000" dy=".76em" font-family="sans-serif" font-size="9.677" opacity="1" text-anchor="middle" transform="rotate(270, 27, 263)">Density (a.u.)</text><text x="510" y="513" fill="#000" dy="-.5ex" font-family="sans-serif" font-size="9.677" opacity="1" text-anchor="middle">Average time (ps)</text><polyline fill="none" stroke="#000" stroke-width="1" points="86 53 86 473" opacity="1"/><text x="77" y="446" fill="#000" dy=".5ex" font-family="sans-serif" font-size="9.677" opacity="1" text-anchor="end">0.001</text><polyline fill="none" stroke="#000" stroke-width="1" points="81 446 86 446" opacity="1"/><text x="77" y="398" fill="#000" dy=".5ex" font-family="sans-serif" font-size="9.677" opacity="1" text-anchor="end">0.002</text><polyline fill="none" stroke="#000" stroke-width="1" points="81 398 86 398" opacity="1"/><text x="77" y="350" fill="#000" dy=".5ex" font-family="sans-serif" font-size="9.677" opacity="1" text-anchor="end">0.003</text><polyline fill="none" stroke="#000" stroke-width="1" points="81 350 86 350" opacity="1"/><text x="77" y="301" fill="#000" dy=".5ex" font-family="sans-serif" font-size="9.677" opacity="1" text-anchor="end">0.004</text><polyline fill="none" stroke="#000" stroke-width="1" points="81 301 86 301" opacity="1"/><text x="77" y="253" fill="#000" dy=".5ex" font-family="sans-serif" font-size="9.677" opacity="1" text-anchor="end">0.005</text><polyline fill="none" stroke="#000" stroke-width="1" points="81 253 86 253" opacity="1"/><text x="77" y="204" fill="#000" dy=".5ex" font-family="sans-serif" font-size="9.677" opacity="1" text-anchor="end">0.006</text><polyline fill="none" stroke="#000" stroke-width="1" points="81 204 86 204" opacity="1"/><text x="77" y="156" fill="#000" dy=".5ex" font-family="sans-serif" font-size="9.677" opacity="1" text-anchor="end">0.007</text><polyline fill="none" stroke="#000" stroke-width="1" points="81 156 86 156" opacity="1"/><text x="77" y="108" fill="#000" dy=".5ex" font-family="sans-serif" font-size="9.677" opacity="1" text-anchor="end">0.008</text><polyline fill="none" stroke="#000" stroke-width="1" points="81 108 86 108" opacity="1"/><text x="77" y="59" fill="#000" dy=".5ex" font-family="sans-serif" font-size="9.677" opacity="1" text-anchor="end">0.009</text><polyline fill="none" stroke="#000" stroke-width="1" points="81 59 86 59" opacity="1"/><polyline fill="none" stroke="#000" stroke-width="1" points="87 473 933 473" opacity="1"/><text x="257" y="483" fill="#000" dy=".76em" font-family="sans-serif" font-size="9.677" opacity="1" text-anchor="middle">100</text><polyline fill="none" stroke="#000" stroke-width="1" points="257 473 257 478" opacity="1"/><text x="441" y="483" fill="#000" dy=".76em" font-family="sans-serif" font-size="9.677" opacity="1" text-anchor="middle">150</text><polyline fill="none" stroke="#000" stroke-width="1" points="441 473 441 478" opacity="1"/><text x="624" y="483" fill="#000" dy=".76em" font-family="sans-serif" font-size="9.677" opacity="1" text-anchor="middle">200</text><polyline fill="none" stroke="#000" stroke-width="1" points="624 473 624 478" opacity="1"/><text x="808" y="483" fill="#000" dy=".76em" font-family="sans-serif" font-size="9.677" opacity="1" text-anchor="middle">250</text><polyline fill="none" stroke="#000" stroke-width="1" points="808 473 808 478" opacity="1"/><polyline fill="none" stroke="#1F78B4" stroke-width="1" points="87 468 88 467 90 467 92 466 93 465 95 465 97 464 98 463 100 463 102 462 103 461 105 461 107 460 109 459 110 458 112 457 114 456 115 455 117 454 119 453 120 452 122 451 124 450 125 449 127 447 129 446 131 445 132 444 134 443 136 442 137 442 139 441 141 440 142 439 144 438 146 437 148 436 149 435 151 434 153 433 154 432 156 431 158 430 159 429 161 428 163 427 164 425 166 424 168 423 170 422 171 421 173 420 175 419 176 417 178 416 180 415 181 414 183 413 185 412 187 411 188 410 190 409 192 408 193 407 195 406 197 405 198 404 200 403 202 402 203 402 205 401 207 400 209 399 210 399 212 398 214 397 215 397 217 396 219 396 220 395 222 394 224 394 226 393 227 393 229 392 231 391 232 391 234 390 236 390 237 389 239 388 241 387 242 387 244 386 246 385 248 384 249 383 251 382 253 381 254 380 256 379 258 378 259 377 261 375 263 374 265 373 266 372 268 370 270 369 271 367 273 366 275 364 276 363 278 361 280 359 281 358 283 356 285 354 287 352 288 351 290 349 292 347 293 345 295 344 297 342 298 340 300 339 302 337 304 335 305 334 307 332 309 331 310 329 312 327 314 326 315 324 317 323 319 321 320 320 322 318 324 317 326 315 327 313 329 312 331 310 332 308 334 306 336 304 337 302 339 300 341 298 343 296 344 293 346 291 348 288 349 286 351 283 353 280 354 278 356 275 358 272 359 269 361 266 363 262 365 259 366 256 368 253 370 250 371 246 373 243 375 240 376 237 378 233 380 230 381 227 383 224 385 221 387 218 388 215 390 212 392 209 393 206 395 203 397 201 398 198 400 195 402 193 404 190 405 187 407 185 409 182 410 180 412 178 414 175 415 173 417 171 419 169 420 167 422 164 424 163 426 161 427 159 429 157 431 156 432 154 434 153 436 151 437 150 439 149 441 148 443 147 444 146 446 146 448 145 449 144 451 144 453 143 454 143 456 142 458 142 459 141 461 140 463 140 465 139 466 139 468 138 470 137 471 136 473 135 475 134 476 133 478 132 480 131 482 130 483 129 485 128 487 127 488 126 490 125 492 124 493 123 495 121 497 120 498 119 500 118 502 118 504 117 505 116 507 115 509 114 510 113 512 112 514 112 515 111 517 110 519 109 521 108 522 108 524 107 526 106 527 105 529 104 531 104 532 103 534 102 536 101 537 100 539 100 541 99 543 98 544 98 546 97 548 97 549 96 551 96 553 95 554 95 556 94 558 94 560 94 561 93 563 93 565 93 566 92 568 92 570 92 571 92 573 92 575 92 576 92 578 92 580 92 582 93 583 93 585 94 587 94 588 95 590 96 592 97 593 99 595 100 597 101 599 103 600 105 602 107 604 108 605 110 607 112 609 115 610 117 612 119 614 121 615 123 617 125 619 128 621 130 622 132 624 134 626 136 627 138 629 140 631 142 632 144 634 145 636 147 638 149 639 151 641 153 643 154 644 156 646 158 648 160 649 162 651 163 653 165 654 167 656 169 658 171 660 173 661 175 663 177 665 179 666 181 668 183 670 185 671 187 673 190 675 192 676 194 678 197 680 199 682 201 683 204 685 206 687 209 688 211 690 214 692 216 693 219 695 221 697 224 699 226 700 229 702 231 704 234 705 236 707 239 709 241 710 244 712 246 714 249 715 251 717 254 719 256 721 259 722 261 724 263 726 266 727 268 729 271 731 273 732 276 734 278 736 281 738 283 739 285 741 288 743 290 744 292 746 295 748 297 749 299 751 302 753 304 754 306 756 309 758 311 760 313 761 316 763 318 765 320 766 323 768 325 770 327 771 330 773 332 775 335 777 337 778 340 780 342 782 344 783 347 785 349 787 352 788 354 790 357 792 359 793 362 795 364 797 366 799 369 800 371 802 373 804 375 805 378 807 380 809 382 810 384 812 386 814 388 816 390 817 391 819 393 821 395 822 397 824 398 826 400 827 402 829 404 831 405 832 407 834 408 836 410 838 412 839 413 841 415 843 416 844 418 846 419 848 421 849 422 851 424 853 425 855 427 856 428 858 429 860 431 861 432 863 433 865 434 866 436 868 437 870 438 871 439 873 440 875 442 877 443 878 444 880 445 882 446 883 447 885 448 887 449 888 450 890 451 892 452 894 453 895 454 897 455 899 456 900 457 902 457 904 458 905 459 907 460 909 461 910 462 912 463 914 463 916 464 917 465 919 466 921 467 922 467 924 468 926 469 927 469 929 470 931 471 933 472" opacity="1"/><polygon fill="#1F78B4" points="164 425 166 424 168 423 170 422 171 421 173 420 175 419 176 417 178 416 180 415 181 414 183 413 185 412 187 411 188 410 190 409 192 408 193 407 195 406 197 405 198 404 200 403 202 402 203 402 205 401 207 400 209 399 210 399 212 398 214 397 215 397 217 396 219 396 220 395 222 394 224 394 226 393 227 393 229 392 231 391 232 391 234 390 236 390 237 389 239 388 241 387 242 387 244 386 246 385 248 384 249 383 251 382 253 381 254 380 256 379 258 378 259 377 261 375 263 374 265 373 266 372 268 370 270 369 271 367 273 366 275 364 276 363 278 361 280 359 281 358 283 356 285 354 287 352 288 351 290 349 292 347 293 345 295 344 297 342 298 340 300 339 302 337 304 335 305 334 307 332 309 331 310 329 312 327 314 326 315 324 317 323 319 321 320 320 322 318 324 317 326 315 327 313 329 312 331 310 332 308 334 306 336 304 337 302 339 300 341 298 343 296 344 293 346 291 348 288 349 286 351 283 353 280 354 278 356 275 358 272 359 269 361 266 363 262 365 259 366 256 368 253 370 250 371 246 373 243 375 240 376 237 378 233 380 230 381 227 383 224 385 221 387 218 388 215 390 212 392 209 393 206 395 203 397 201 398 198 400 195 402 193 404 190 405 187 407 185 409 182 410 180 412 178 414 175 415 173 417 171 419 169 420 167 422 164 424 163 426 161 427 159 429 157 431 156 432 154 434 153 436 151 437 150 439 149 441 148 443 147 444 146 446 146 448 145 449 144 451 144 453 143 454 143 456 142 458 142 459 141 461 140 463 140 465 139 466 139 468 138 470 137 471 136 473 135 475 134 476 133 478 132 480 131 482 130 483 129 485 128 487 127 488 126 490 125 492 124 493 123 495 121 497 120 498 119 500 118 502 118 504 117 505 116 507 115 509 114 510 113 512 112 514 112 515 111 517 110 519 109 521 108 522 108 524 107 526 106 527 105 529 104 531 104 532 103 534 102 536 101 537 100 539 100 541 99 543 98 544 98 546 97 548 97 549 96 551 96 553 95 554 95 556 94 558 94 560 94 561 93 563 93 565 93 566 92 568 92 570 92 571 92 573 92 575 92 576 92 578 92 580 92 582 93 583 93 585 94 587 94 588 95 590 96 592 97 593 99 595 100 597 101 599 103 600 105 602 107 604 108 605 110 607 112 609 115 610 117 612 119 614 121 615 123 617 125 619 128 621 130 622 132 624 134 626 136 627 138 629 140 631 142 632 144 634 145 636 147 638 149 639 151 641 153 643 154 644 156 646 158 648 160 649 162 651 163 653 165 654 167 656 169 658 171 660 173 661 175 663 177 665 179 666 181 668 183 670 185 671 187 673 190 675 192 676 194 678 197 680 199 682 201 683 204 685 206 687 209 688 211 690 214 692 216 693 219 695 221 697 224 699 226 700 229 702 231 704 234 705 236 707 239 709 241 710 244 712 246 714 249 715 251 717 254 719 256 721 259 722 261 724 263 726 266 727 268 729 271 731 273 732 276 734 278 736 281 738 283 739 285 741 288 743 290 744 292 746 295 748 297 749 299 751 302 753 304 754 306 756 309 758 311 760 313 761 316 763 318 765 320 766 323 768 325 770 327 771 330 773 332 775 335 777 337 778 340 780 342 782 344 783 347 785 349 787 352 788 354 790 357 792 359 793 362 795 364 797 366 799 369 800 371 802 373 804 375 805 378 807 380 809 382 810 384 812 386 814 388 816 390 817 391 819 393 821 395 822 397 824 398 826 400 827 402 829 404 831 405 832 407 834 408 836 410 838 412 839 413 841 415 843 416 844 418 846 419 848 421 849 422 851 424 853 425 853 473 164 473" opacity=".25"/><polyline fill="none" stroke="#1F78B4" stroke-width="3" points="554 473 554 95" opacity="1"/><text x="798" y="68" fill="#000" dy=".76em" font-family="sans-serif" font-size="9.677" opacity="1" text-anchor="start">Bootstrap distribution</text><text x="798" y="83" fill="#000" dy=".76em" font-family="sans-serif" font-size="9.677" opacity="1" text-anchor="start">Confidence interval</text><text x="798" y="98" fill="#000" dy=".76em" font-family="sans-serif" font-size="9.677" opacity="1" text-anchor="start">Point estimate</text><polyline fill="none" stroke="#1F78B4" stroke-width="1" points="768 73 788 73" opacity="1"/><rect width="20" height="10" x="768" y="83" fill="#1F78B4" stroke="none" opacity=".25"/><polyline fill="none" stroke="#1F78B4" stroke-width="1" points="768 103 788 103" opacity="1"/></svg>