<svg xmlns="http://www.w3.org/2000/svg" width="960" height="540"><text x="480" y="32" fill="#000" dy=".76em" font-family="sans-serif" font-size="16.129" opacity="1" text-anchor="middle">bench_group/threads_48/134217728</text><text x="27" y="263" fill="#000" dy=".76em" font-family="sans-serif" font-size="9.677" opacity="1" text-anchor="middle" transform="rotate(270, 27, 263)">Total sample time (ms)</text><text x="510" y="513" fill="#000" dy="-.5ex" font-family="sans-serif" font-size="9.677" opacity="1" text-anchor="middle">Iterations</text><line x1="163" x2="163" y1="472" y2="52" stroke="#000" stroke-width="1" opacity=".2"/><line x1="249" x2="249" y1="472" y2="52" stroke="#000" stroke-width="1" opacity=".2"/><line x1="334" x2="334" y1="472" y2="52" stroke="#000" stroke-width="1" opacity=".2"/><line x1="420" x2="420" y1="472" y2="52" stroke="#000" stroke-width="1" opacity=".2"/><line x1="505" x2="505" y1="472" y2="52" stroke="#000" stroke-width="1" opacity=".2"/><line x1="591" x2="591" y1="472" y2="52" stroke="#000" stroke-width="1" opacity=".2"/><line x1="676" x2="676" y1="472" y2="52" stroke="#000" stroke-width="1" opacity=".2"/><line x1="762" x2="762" y1="472" y2="52" stroke="#000" stroke-width="1" opacity=".2"/><line x1="847" x2="847" y1="472" y2="52" stroke="#000" stroke-width="1" opacity=".2"/><line x1="933" x2="933" y1="472" y2="52" stroke="#000" stroke-width="1" opacity=".2"/><line x1="87" x2="933" y1="410" y2="410" stroke="#000" stroke-width="1" opacity=".2"/><line x1="87" x2="933" y1="343" y2="343" stroke="#000" stroke-width="1" opacity=".2"/><line x1="87" x2="933" y1="275" y2="275" stroke="#000" stroke-width="1" opacity=".2"/><line x1="87" x2="933" y1="208" y2="208" stroke="#000" stroke-width="1" opacity=".2"/><line x1="87" x2="933" y1="141" y2="141" stroke="#000" stroke-width="1" opacity=".2"/><line x1="87" x2="933" y1="74" y2="74" stroke="#000" stroke-width="1" opacity=".2"/><polyline fill="none" stroke="#000" stroke-width="1" points="86 53 86 473" opacity="1"/><text x="77" y="410" fill="#000" dy=".5ex" font-family="sans-serif" font-size="9.677" opacity="1" text-anchor="end">20.0</text><polyline fill="none" stroke="#000" stroke-width="1" points="81 410 86 410" opacity="1"/><text x="77" y="343" fill="#000" dy=".5ex" font-family="sans-serif" font-size="9.677" opacity="1" text-anchor="end">40.0</text><polyline fill="none" stroke="#000" stroke-width="1" points="81 343 86 343" opacity="1"/><text x="77" y="275" fill="#000" dy=".5ex" font-family="sans-serif" font-size="9.677" opacity="1" text-anchor="end">60.0</text><polyline fill="none" stroke="#000" stroke-width="1" points="81 275 86 275" opacity="1"/><text x="77" y="208" fill="#000" dy=".5ex" font-family="sans-serif" font-size="9.677" opacity="1" text-anchor="end">80.0</text><polyline fill="none" stroke="#000" stroke-width="1" points="81 208 86 208" opacity="1"/><text x="77" y="141" fill="#000" dy=".5ex" font-family="sans-serif" font-size="9.677" opacity="1" text-anchor="end">100.0</text><polyline fill="none" stroke="#000" stroke-width="1" points="81 141 86 141" opacity="1"/><text x="77" y="74" fill="#000" dy=".5ex" font-family="sans-serif" font-size="9.677" opacity="1" text-anchor="end">120.0</text><polyline fill="none" stroke="#000" stroke-width="1" points="81 74 86 74" opacity="1"/><polyline fill="none" stroke="#000" stroke-width="1" points="87 473 933 473" opacity="1"/><text x="163" y="483" fill="#000" dy=".76em" font-family="sans-serif" font-size="9.677" opacity="1" text-anchor="middle">10</text><polyline fill="none" stroke="#000" stroke-width="1" points="163 473 163 478" opacity="1"/><text x="249" y="483" fill="#000" dy=".76em" font-family="sans-serif" font-size="9.677" opacity="1" text-anchor="middle">20</text><polyline fill="none" stroke="#000" stroke-width="1" points="249 473 249 478" opacity="1"/><text x="334" y="483" fill="#000" dy=".76em" font-family="sans-serif" font-size="9.677" opacity="1" text-anchor="middle">30</text><polyline fill="none" stroke="#000" stroke-width="1" points="334 473 334 478" opacity="1"/><text x="420" y="483" fill="#000" dy=".76em" font-family="sans-serif" font-size="9.677" opacity="1" text-anchor="middle">40</text><polyline fill="none" stroke="#000" stroke-width="1" points="420 473 420 478" opacity="1"/><text x="505" y="483" fill="#000" dy=".76em" font-family="sans-serif" font-size="9.677" opacity="1" text-anchor="middle">50</text><polyline fill="none" stroke="#000" stroke-width="1" points="505 473 505 478" opacity="1"/><text x="591" y="483" fill="#000" dy=".76em" font-family="sans-serif" font-size="9.677" opacity="1" text-anchor="middle">60</text><polyline fill="none" stroke="#000" stroke-width="1" points="591 473 591 478" opacity="1"/><text x="676" y="483" fill="#000" dy=".76em" font-family="sans-serif" font-size="9.677" opacity="1" text-anchor="middle">70</text><polyline fill="none" stroke="#000" stroke-width="1" points="676 473 676 478" opacity="1"/><text x="762" y="483" fill="#000" dy=".76em" font-family="sans-serif" font-size="9.677" opacity="1" text-anchor="middle">80</text><polyline fill="none" stroke="#000" stroke-width="1" points="762 473 762 478" opacity="1"/><text x="847" y="483" fill="#000" dy=".76em" font-family="sans-serif" font-size="9.677" opacity="1" text-anchor="middle">90</text><polyline fill="none" stroke="#000" stroke-width="1" points="847 473 847 478" opacity="1"/><text x="933" y="483" fill="#000" dy=".76em" font-family="sans-serif" font-size="9.677" opacity="1" text-anchor="middle">100</text><polyline fill="none" stroke="#000" stroke-width="1" points="933 473 933 478" opacity="1"/><circle cx="87" cy="472" r="3" fill="#1F78B4" stroke="none" opacity="1"/><circle cx="95" cy="467" r="3" fill="#1F78B4" stroke="none" opacity="1"/><circle cx="104" cy="462" r="3" fill="#1F78B4" stroke="none" opacity="1"/><circle cx="112" cy="456" r="3" fill="#1F78B4" stroke="none" opacity="1"/><circle cx="121" cy="452" r="3" fill="#1F78B4" stroke="none" opacity="1"/><circle cx="129" cy="446" r="3" fill="#1F78B4" stroke="none" opacity="1"/><circle cx="138" cy="442" r="3" fill="#1F78B4" stroke="none" opacity="1"/><circle cx="146" cy="438" r="3" fill="#1F78B4" stroke="none" opacity="1"/><circle cx="155" cy="433" r="3" fill="#1F78B4" stroke="none" opacity="1"/><circle cx="163" cy="428" r="3" fill="#1F78B4" stroke="none" opacity="1"/><circle cx="172" cy="423" r="3" fill="#1F78B4" stroke="none" opacity="1"/><circle cx="181" cy="419" r="3" fill="#1F78B4" stroke="none" opacity="1"/><circle cx="189" cy="415" r="3" fill="#1F78B4" stroke="none" opacity="1"/><circle cx="198" cy="411" r="3" fill="#1F78B4" stroke="none" opacity="1"/><circle cx="206" cy="406" r="3" fill="#1F78B4" stroke="none" opacity="1"/><circle cx="215" cy="403" r="3" fill="#1F78B4" stroke="none" opacity="1"/><circle cx="223" cy="397" r="3" fill="#1F78B4" stroke="none" opacity="1"/><circle cx="232" cy="393" r="3" fill="#1F78B4" stroke="none" opacity="1"/><circle cx="240" cy="388" r="3" fill="#1F78B4" stroke="none" opacity="1"/><circle cx="249" cy="384" r="3" fill="#1F78B4" stroke="none" opacity="1"/><circle cx="257" cy="379" r="3" fill="#1F78B4" stroke="none" opacity="1"/><circle cx="266" cy="376" r="3" fill="#1F78B4" stroke="none" opacity="1"/><circle cx="275" cy="371" r="3" fill="#1F78B4" stroke="none" opacity="1"/><circle cx="283" cy="366" r="3" fill="#1F78B4" stroke="none" opacity="1"/><circle cx="292" cy="363" r="3" fill="#1F78B4" stroke="none" opacity="1"/><circle cx="300" cy="358" r="3" fill="#1F78B4" stroke="none" opacity="1"/><circle cx="309" cy="353" r="3" fill="#1F78B4" stroke="none" opacity="1"/><circle cx="317" cy="348" r="3" fill="#1F78B4" stroke="none" opacity="1"/><circle cx="326" cy="344" r="3" fill="#1F78B4" stroke="none" opacity="1"/><circle cx="334" cy="343" r="3" fill="#1F78B4" stroke="none" opacity="1"/><circle cx="343" cy="335" r="3" fill="#1F78B4" stroke="none" opacity="1"/><circle cx="351" cy="333" r="3" fill="#1F78B4" stroke="none" opacity="1"/><circle cx="360" cy="329" r="3" fill="#1F78B4" stroke="none" opacity="1"/><circle cx="369" cy="323" r="3" fill="#1F78B4" stroke="none" opacity="1"/><circle cx="377" cy="321" r="3" fill="#1F78B4" stroke="none" opacity="1"/><circle cx="386" cy="317" r="3" fill="#1F78B4" stroke="none" opacity="1"/><circle cx="394" cy="313" r="3" fill="#1F78B4" stroke="none" opacity="1"/><circle cx="403" cy="308" r="3" fill="#1F78B4" stroke="none" opacity="1"/><circle cx="411" cy="304" r="3" fill="#1F78B4" stroke="none" opacity="1"/><circle cx="420" cy="299" r="3" fill="#1F78B4" stroke="none" opacity="1"/><circle cx="428" cy="296" r="3" fill="#1F78B4" stroke="none" opacity="1"/><circle cx="437" cy="289" r="3" fill="#1F78B4" stroke="none" opacity="1"/><circle cx="445" cy="287" r="3" fill="#1F78B4" stroke="none" opacity="1"/><circle cx="454" cy="283" r="3" fill="#1F78B4" stroke="none" opacity="1"/><circle cx="463" cy="277" r="3" fill="#1F78B4" stroke="none" opacity="1"/><circle cx="471" cy="274" r="3" fill="#1F78B4" stroke="none" opacity="1"/><circle cx="480" cy="272" r="3" fill="#1F78B4" stroke="none" opacity="1"/><circle cx="488" cy="264" r="3" fill="#1F78B4" stroke="none" opacity="1"/><circle cx="497" cy="263" r="3" fill="#1F78B4" stroke="none" opacity="1"/><circle cx="505" cy="257" r="3" fill="#1F78B4" stroke="none" opacity="1"/><circle cx="514" cy="252" r="3" fill="#1F78B4" stroke="none" opacity="1"/><circle cx="522" cy="248" r="3" fill="#1F78B4" stroke="none" opacity="1"/><circle cx="531" cy="247" r="3" fill="#1F78B4" stroke="none" opacity="1"/><circle cx="539" cy="239" r="3" fill="#1F78B4" stroke="none" opacity="1"/><circle cx="548" cy="236" r="3" fill="#1F78B4" stroke="none" opacity="1"/><circle cx="557" cy="231" r="3" fill="#1F78B4" stroke="none" opacity="1"/><circle cx="565" cy="227" r="3" fill="#1F78B4" stroke="none" opacity="1"/><circle cx="574" cy="223" r="3" fill="#1F78B4" stroke="none" opacity="1"/><circle cx="582" cy="220" r="3" fill="#1F78B4" stroke="none" opacity="1"/><circle cx="591" cy="212" r="3" fill="#1F78B4" stroke="none" opacity="1"/><circle cx="599" cy="209" r="3" fill="#1F78B4" stroke="none" opacity="1"/><circle cx="608" cy="204" r="3" fill="#1F78B4" stroke="none" opacity="1"/><circle cx="616" cy="200" r="3" fill="#1F78B4" stroke="none" opacity="1"/><circle cx="625" cy="197" r="3" fill="#1F78B4" stroke="none" opacity="1"/><circle cx="633" cy="196" r="3" fill="#1F78B4" stroke="none" opacity="1"/><circle cx="642" cy="185" r="3" fill="#1F78B4" stroke="none" opacity="1"/><circle cx="651" cy="187" r="3" fill="#1F78B4" stroke="none" opacity="1"/><circle cx="659" cy="186" r="3" fill="#1F78B4" stroke="none" opacity="1"/><circle cx="668" cy="180" r="3" fill="#1F78B4" stroke="none" opacity="1"/><circle cx="676" cy="176" r="3" fill="#1F78B4" stroke="none" opacity="1"/><circle cx="685" cy="169" r="3" fill="#1F78B4" stroke="none" opacity="1"/><circle cx="693" cy="167" r="3" fill="#1F78B4" stroke="none" opacity="1"/><circle cx="702" cy="163" r="3" fill="#1F78B4" stroke="none" opacity="1"/><circle cx="710" cy="160" r="3" fill="#1F78B4" stroke="none" opacity="1"/><circle cx="719" cy="147" r="3" fill="#1F78B4" stroke="none" opacity="1"/><circle cx="727" cy="147" r="3" fill="#1F78B4" stroke="none" opacity="1"/><circle cx="736" cy="146" r="3" fill="#1F78B4" stroke="none" opacity="1"/><circle cx="745" cy="144" r="3" fill="#1F78B4" stroke="none" opacity="1"/><circle cx="753" cy="139" r="3" fill="#1F78B4" stroke="none" opacity="1"/><circle cx="762" cy="133" r="3" fill="#1F78B4" stroke="none" opacity="1"/><circle cx="770" cy="127" r="3" fill="#1F78B4" stroke="none" opacity="1"/><circle cx="779" cy="130" r="3" fill="#1F78B4" stroke="none" opacity="1"/><circle cx="787" cy="121" r="3" fill="#1F78B4" stroke="none" opacity="1"/><circle cx="796" cy="114" r="3" fill="#1F78B4" stroke="none" opacity="1"/><circle cx="804" cy="112" r="3" fill="#1F78B4" stroke="none" opacity="1"/><circle cx="813" cy="108" r="3" fill="#1F78B4" stroke="none" opacity="1"/><circle cx="821" cy="105" r="3" fill="#1F78B4" stroke="none" opacity="1"/><circle cx="830" cy="96" r="3" fill="#1F78B4" stroke="none" opacity="1"/><circle cx="839" cy="98" r="3" fill="#1F78B4" stroke="none" opacity="1"/><circle cx="847" cy="95" r="3" fill="#1F78B4" stroke="none" opacity="1"/><circle cx="856" cy="86" r="3" fill="#1F78B4" stroke="none" opacity="1"/><circle cx="864" cy="84" r="3" fill="#1F78B4" stroke="none" opacity="1"/><circle cx="873" cy="81" r="3" fill="#1F78B4" stroke="none" opacity="1"/><circle cx="881" cy="70" r="3" fill="#1F78B4" stroke="none" opacity="1"/><circle cx="890" cy="68" r="3" fill="#1F78B4" stroke="none" opacity="1"/><circle cx="898" cy="74" r="3" fill="#1F78B4" stroke="none" opacity="1"/><circle cx="907" cy="69" r="3" fill="#1F78B4" stroke="none" opacity="1"/><circle cx="915" cy="53" r="3" fill="#1F78B4" stroke="none" opacity="1"/><circle cx="924" cy="59" r="3" fill="#1F78B4" stroke="none" opacity="1"/><circle cx="933" cy="53" r="3" fill="#1F78B4" stroke="none" opacity="1"/><polyline fill="none" stroke="#1F78B4" stroke-width="1" points="87 473 933 53" opacity="1"/><polygon fill="#1F78B4" points="87 473 933 53 933 53" opacity=".25"/><text x="132" y="68" fill="#000" dy=".76em" font-family="sans-serif" font-size="9.677" opacity="1" text-anchor="start">Sample</text><text x="132" y="83" fill="#000" dy=".76em" font-family="sans-serif" font-size="9.677" opacity="1" text-anchor="start">Linear regression</text><text x="132" y="98" fill="#000" dy=".76em" font-family="sans-serif" font-size="9.677" opacity="1" text-anchor="start">Confidence interval</text><circle cx="112" cy="73" r="3" fill="#1F78B4" stroke="none" opacity="1"/><polyline fill="none" stroke="#1F78B4" stroke-width="2" points="102 88 122 88" opacity="1"/><rect width="20" height="10" x="102" y="98" fill="#1F78B4" stroke="none" opacity=".25"/></svg>