<svg xmlns="http://www.w3.org/2000/svg" width="960" height="540"><text x="480" y="32" fill="#000" dy=".76em" font-family="sans-serif" font-size="16.129" opacity="1" text-anchor="middle">bench_group/threads_08/131072</text><text x="27" y="263" fill="#000" dy=".76em" font-family="sans-serif" font-size="9.677" opacity="1" text-anchor="middle" transform="rotate(270, 27, 263)">Total sample time (ms)</text><text x="510" y="513" fill="#000" dy="-.5ex" font-family="sans-serif" font-size="9.677" opacity="1" text-anchor="middle">Iterations (x 10^3)</text><line x1="244" x2="244" y1="472" y2="52" stroke="#000" stroke-width="1" opacity=".2"/><line x1="410" x2="410" y1="472" y2="52" stroke="#000" stroke-width="1" opacity=".2"/><line x1="576" x2="576" y1="472" y2="52" stroke="#000" stroke-width="1" opacity=".2"/><line x1="742" x2="742" y1="472" y2="52" stroke="#000" stroke-width="1" opacity=".2"/><line x1="908" x2="908" y1="472" y2="52" stroke="#000" stroke-width="1" opacity=".2"/><line x1="87" x2="933" y1="431" y2="431" stroke="#000" stroke-width="1" opacity=".2"/><line x1="87" x2="933" y1="384" y2="384" stroke="#000" stroke-width="1" opacity=".2"/><line x1="87" x2="933" y1="337" y2="337" stroke="#000" stroke-width="1" opacity=".2"/><line x1="87" x2="933" y1="291" y2="291" stroke="#000" stroke-width="1" opacity=".2"/><line x1="87" x2="933" y1="244" y2="244" stroke="#000" stroke-width="1" opacity=".2"/><line x1="87" x2="933" y1="197" y2="197" stroke="#000" stroke-width="1" opacity=".2"/><line x1="87" x2="933" y1="151" y2="151" stroke="#000" stroke-width="1" opacity=".2"/><line x1="87" x2="933" y1="104" y2="104" stroke="#000" stroke-width="1" opacity=".2"/><line x1="87" x2="933" y1="57" y2="57" stroke="#000" stroke-width="1" opacity=".2"/><polyline fill="none" stroke="#000" stroke-width="1" points="86 53 86 473" opacity="1"/><text x="77" y="431" fill="#000" dy=".5ex" font-family="sans-serif" font-size="9.677" opacity="1" text-anchor="end">10.0</text><polyline fill="none" stroke="#000" stroke-width="1" points="81 431 86 431" opacity="1"/><text x="77" y="384" fill="#000" dy=".5ex" font-family="sans-serif" font-size="9.677" opacity="1" text-anchor="end">20.0</text><polyline fill="none" stroke="#000" stroke-width="1" points="81 384 86 384" opacity="1"/><text x="77" y="337" fill="#000" dy=".5ex" font-family="sans-serif" font-size="9.677" opacity="1" text-anchor="end">30.0</text><polyline fill="none" stroke="#000" stroke-width="1" points="81 337 86 337" opacity="1"/><text x="77" y="291" fill="#000" dy=".5ex" font-family="sans-serif" font-size="9.677" opacity="1" text-anchor="end">40.0</text><polyline fill="none" stroke="#000" stroke-width="1" points="81 291 86 291" opacity="1"/><text x="77" y="244" fill="#000" dy=".5ex" font-family="sans-serif" font-size="9.677" opacity="1" text-anchor="end">50.0</text><polyline fill="none" stroke="#000" stroke-width="1" points="81 244 86 244" opacity="1"/><text x="77" y="197" fill="#000" dy=".5ex" font-family="sans-serif" font-size="9.677" opacity="1" text-anchor="end">60.0</text><polyline fill="none" stroke="#000" stroke-width="1" points="81 197 86 197" opacity="1"/><text x="77" y="151" fill="#000" dy=".5ex" font-family="sans-serif" font-size="9.677" opacity="1" text-anchor="end">70.0</text><polyline fill="none" stroke="#000" stroke-width="1" points="81 151 86 151" opacity="1"/><text x="77" y="104" fill="#000" dy=".5ex" font-family="sans-serif" font-size="9.677" opacity="1" text-anchor="end">80.0</text><polyline fill="none" stroke="#000" stroke-width="1" points="81 104 86 104" opacity="1"/><text x="77" y="57" fill="#000" dy=".5ex" font-family="sans-serif" font-size="9.677" opacity="1" text-anchor="end">90.0</text><polyline fill="none" stroke="#000" stroke-width="1" points="81 57 86 57" opacity="1"/><polyline fill="none" stroke="#000" stroke-width="1" points="87 473 933 473" opacity="1"/><text x="244" y="483" fill="#000" dy=".76em" font-family="sans-serif" font-size="9.677" opacity="1" text-anchor="middle">2</text><polyline fill="none" stroke="#000" stroke-width="1" points="244 473 244 478" opacity="1"/><text x="410" y="483" fill="#000" dy=".76em" font-family="sans-serif" font-size="9.677" opacity="1" text-anchor="middle">4</text><polyline fill="none" stroke="#000" stroke-width="1" points="410 473 410 478" opacity="1"/><text x="576" y="483" fill="#000" dy=".76em" font-family="sans-serif" font-size="9.677" opacity="1" text-anchor="middle">6</text><polyline fill="none" stroke="#000" stroke-width="1" points="576 473 576 478" opacity="1"/><text x="742" y="483" fill="#000" dy=".76em" font-family="sans-serif" font-size="9.677" opacity="1" text-anchor="middle">8</text><polyline fill="none" stroke="#000" stroke-width="1" points="742 473 742 478" opacity="1"/><text x="908" y="483" fill="#000" dy=".76em" font-family="sans-serif" font-size="9.677" opacity="1" text-anchor="middle">10</text><polyline fill="none" stroke="#000" stroke-width="1" points="908 473 908 478" opacity="1"/><circle cx="87" cy="472" r="3" fill="#1F78B4" stroke="none" opacity="1"/><circle cx="95" cy="469" r="3" fill="#1F78B4" stroke="none" opacity="1"/><circle cx="104" cy="466" r="3" fill="#1F78B4" stroke="none" opacity="1"/><circle cx="112" cy="462" r="3" fill="#1F78B4" stroke="none" opacity="1"/><circle cx="121" cy="458" r="3" fill="#1F78B4" stroke="none" opacity="1"/><circle cx="129" cy="454" r="3" fill="#1F78B4" stroke="none" opacity="1"/><circle cx="138" cy="450" r="3" fill="#1F78B4" stroke="none" opacity="1"/><circle cx="146" cy="446" r="3" fill="#1F78B4" stroke="none" opacity="1"/><circle cx="155" cy="442" r="3" fill="#1F78B4" stroke="none" opacity="1"/><circle cx="163" cy="438" r="3" fill="#1F78B4" stroke="none" opacity="1"/><circle cx="172" cy="435" r="3" fill="#1F78B4" stroke="none" opacity="1"/><circle cx="181" cy="430" r="3" fill="#1F78B4" stroke="none" opacity="1"/><circle cx="189" cy="426" r="3" fill="#1F78B4" stroke="none" opacity="1"/><circle cx="198" cy="422" r="3" fill="#1F78B4" stroke="none" opacity="1"/><circle cx="206" cy="418" r="3" fill="#1F78B4" stroke="none" opacity="1"/><circle cx="215" cy="414" r="3" fill="#1F78B4" stroke="none" opacity="1"/><circle cx="223" cy="411" r="3" fill="#1F78B4" stroke="none" opacity="1"/><circle cx="232" cy="406" r="3" fill="#1F78B4" stroke="none" opacity="1"/><circle cx="240" cy="402" r="3" fill="#1F78B4" stroke="none" opacity="1"/><circle cx="249" cy="399" r="3" fill="#1F78B4" stroke="none" opacity="1"/><circle cx="257" cy="394" r="3" fill="#1F78B4" stroke="none" opacity="1"/><circle cx="266" cy="391" r="3" fill="#1F78B4" stroke="none" opacity="1"/><circle cx="275" cy="387" r="3" fill="#1F78B4" stroke="none" opacity="1"/><circle cx="283" cy="383" r="3" fill="#1F78B4" stroke="none" opacity="1"/><circle cx="292" cy="379" r="3" fill="#1F78B4" stroke="none" opacity="1"/><circle cx="300" cy="375" r="3" fill="#1F78B4" stroke="none" opacity="1"/><circle cx="309" cy="370" r="3" fill="#1F78B4" stroke="none" opacity="1"/><circle cx="317" cy="367" r="3" fill="#1F78B4" stroke="none" opacity="1"/><circle cx="326" cy="364" r="3" fill="#1F78B4" stroke="none" opacity="1"/><circle cx="334" cy="359" r="3" fill="#1F78B4" stroke="none" opacity="1"/><circle cx="343" cy="355" r="3" fill="#1F78B4" stroke="none" opacity="1"/><circle cx="351" cy="352" r="3" fill="#1F78B4" stroke="none" opacity="1"/><circle cx="360" cy="348" r="3" fill="#1F78B4" stroke="none" opacity="1"/><circle cx="369" cy="343" r="3" fill="#1F78B4" stroke="none" opacity="1"/><circle cx="377" cy="340" r="3" fill="#1F78B4" stroke="none" opacity="1"/><circle cx="386" cy="336" r="3" fill="#1F78B4" stroke="none" opacity="1"/><circle cx="394" cy="331" r="3" fill="#1F78B4" stroke="none" opacity="1"/><circle cx="403" cy="316" r="3" fill="#1F78B4" stroke="none" opacity="1"/><circle cx="411" cy="324" r="3" fill="#1F78B4" stroke="none" opacity="1"/><circle cx="420" cy="318" r="3" fill="#1F78B4" stroke="none" opacity="1"/><circle cx="428" cy="316" r="3" fill="#1F78B4" stroke="none" opacity="1"/><circle cx="437" cy="311" r="3" fill="#1F78B4" stroke="none" opacity="1"/><circle cx="445" cy="308" r="3" fill="#1F78B4" stroke="none" opacity="1"/><circle cx="454" cy="304" r="3" fill="#1F78B4" stroke="none" opacity="1"/><circle cx="463" cy="299" r="3" fill="#1F78B4" stroke="none" opacity="1"/><circle cx="471" cy="295" r="3" fill="#1F78B4" stroke="none" opacity="1"/><circle cx="480" cy="291" r="3" fill="#1F78B4" stroke="none" opacity="1"/><circle cx="488" cy="287" r="3" fill="#1F78B4" stroke="none" opacity="1"/><circle cx="497" cy="284" r="3" fill="#1F78B4" stroke="none" opacity="1"/><circle cx="505" cy="279" r="3" fill="#1F78B4" stroke="none" opacity="1"/><circle cx="514" cy="275" r="3" fill="#1F78B4" stroke="none" opacity="1"/><circle cx="522" cy="270" r="3" fill="#1F78B4" stroke="none" opacity="1"/><circle cx="531" cy="268" r="3" fill="#1F78B4" stroke="none" opacity="1"/><circle cx="539" cy="263" r="3" fill="#1F78B4" stroke="none" opacity="1"/><circle cx="548" cy="260" r="3" fill="#1F78B4" stroke="none" opacity="1"/><circle cx="557" cy="255" r="3" fill="#1F78B4" stroke="none" opacity="1"/><circle cx="565" cy="252" r="3" fill="#1F78B4" stroke="none" opacity="1"/><circle cx="574" cy="219" r="3" fill="#1F78B4" stroke="none" opacity="1"/><circle cx="582" cy="245" r="3" fill="#1F78B4" stroke="none" opacity="1"/><circle cx="591" cy="241" r="3" fill="#1F78B4" stroke="none" opacity="1"/><circle cx="599" cy="235" r="3" fill="#1F78B4" stroke="none" opacity="1"/><circle cx="608" cy="231" r="3" fill="#1F78B4" stroke="none" opacity="1"/><circle cx="616" cy="227" r="3" fill="#1F78B4" stroke="none" opacity="1"/><circle cx="625" cy="224" r="3" fill="#1F78B4" stroke="none" opacity="1"/><circle cx="633" cy="219" r="3" fill="#1F78B4" stroke="none" opacity="1"/><circle cx="642" cy="215" r="3" fill="#1F78B4" stroke="none" opacity="1"/><circle cx="651" cy="212" r="3" fill="#1F78B4" stroke="none" opacity="1"/><circle cx="659" cy="208" r="3" fill="#1F78B4" stroke="none" opacity="1"/><circle cx="668" cy="170" r="3" fill="#1F78B4" stroke="none" opacity="1"/><circle cx="676" cy="200" r="3" fill="#1F78B4" stroke="none" opacity="1"/><circle cx="685" cy="199" r="3" fill="#1F78B4" stroke="none" opacity="1"/><circle cx="693" cy="192" r="3" fill="#1F78B4" stroke="none" opacity="1"/><circle cx="702" cy="190" r="3" fill="#1F78B4" stroke="none" opacity="1"/><circle cx="710" cy="184" r="3" fill="#1F78B4" stroke="none" opacity="1"/><circle cx="719" cy="178" r="3" fill="#1F78B4" stroke="none" opacity="1"/><circle cx="727" cy="176" r="3" fill="#1F78B4" stroke="none" opacity="1"/><circle cx="736" cy="175" r="3" fill="#1F78B4" stroke="none" opacity="1"/><circle cx="745" cy="171" r="3" fill="#1F78B4" stroke="none" opacity="1"/><circle cx="753" cy="115" r="3" fill="#1F78B4" stroke="none" opacity="1"/><circle cx="762" cy="160" r="3" fill="#1F78B4" stroke="none" opacity="1"/><circle cx="770" cy="156" r="3" fill="#1F78B4" stroke="none" opacity="1"/><circle cx="779" cy="152" r="3" fill="#1F78B4" stroke="none" opacity="1"/><circle cx="787" cy="146" r="3" fill="#1F78B4" stroke="none" opacity="1"/><circle cx="796" cy="143" r="3" fill="#1F78B4" stroke="none" opacity="1"/><circle cx="804" cy="141" r="3" fill="#1F78B4" stroke="none" opacity="1"/><circle cx="813" cy="135" r="3" fill="#1F78B4" stroke="none" opacity="1"/><circle cx="821" cy="103" r="3" fill="#1F78B4" stroke="none" opacity="1"/><circle cx="830" cy="131" r="3" fill="#1F78B4" stroke="none" opacity="1"/><circle cx="839" cy="127" r="3" fill="#1F78B4" stroke="none" opacity="1"/><circle cx="847" cy="119" r="3" fill="#1F78B4" stroke="none" opacity="1"/><circle cx="856" cy="117" r="3" fill="#1F78B4" stroke="none" opacity="1"/><circle cx="864" cy="112" r="3" fill="#1F78B4" stroke="none" opacity="1"/><circle cx="873" cy="108" r="3" fill="#1F78B4" stroke="none" opacity="1"/><circle cx="881" cy="102" r="3" fill="#1F78B4" stroke="none" opacity="1"/><circle cx="890" cy="53" r="3" fill="#1F78B4" stroke="none" opacity="1"/><circle cx="898" cy="95" r="3" fill="#1F78B4" stroke="none" opacity="1"/><circle cx="907" cy="93" r="3" fill="#1F78B4" stroke="none" opacity="1"/><circle cx="915" cy="89" r="3" fill="#1F78B4" stroke="none" opacity="1"/><circle cx="924" cy="85" r="3" fill="#1F78B4" stroke="none" opacity="1"/><circle cx="933" cy="83" r="3" fill="#1F78B4" stroke="none" opacity="1"/><polyline fill="none" stroke="#1F78B4" stroke-width="1" points="87 473 933 77" opacity="1"/><polygon fill="#1F78B4" points="87 473 933 80 933 72" opacity=".25"/><text x="132" y="68" fill="#000" dy=".76em" font-family="sans-serif" font-size="9.677" opacity="1" text-anchor="start">Sample</text><text x="132" y="83" fill="#000" dy=".76em" font-family="sans-serif" font-size="9.677" opacity="1" text-anchor="start">Linear regression</text><text x="132" y="98" fill="#000" dy=".76em" font-family="sans-serif" font-size="9.677" opacity="1" text-anchor="start">Confidence interval</text><circle cx="112" cy="73" r="3" fill="#1F78B4" stroke="none" opacity="1"/><polyline fill="none" stroke="#1F78B4" stroke-width="2" points="102 88 122 88" opacity="1"/><rect width="20" height="10" x="102" y="98" fill="#1F78B4" stroke="none" opacity=".25"/></svg>