<svg xmlns="http://www.w3.org/2000/svg" width="450" height="300"><text x="15" y="130" fill="#000" dy=".76em" font-family="sans-serif" font-size="9.677" opacity="1" text-anchor="middle" transform="rotate(270, 15, 130)">Total sample time (ms)</text><text x="255" y="285" fill="#000" dy="-.5ex" font-family="sans-serif" font-size="9.677" opacity="1" text-anchor="middle">Iterations (x 10^3)</text><line x1="141" x2="141" y1="244" y2="14" stroke="#000" stroke-width="1" opacity=".2"/><line x1="212" x2="212" y1="244" y2="14" stroke="#000" stroke-width="1" opacity=".2"/><line x1="283" x2="283" y1="244" y2="14" stroke="#000" stroke-width="1" opacity=".2"/><line x1="353" x2="353" y1="244" y2="14" stroke="#000" stroke-width="1" opacity=".2"/><line x1="424" x2="424" y1="244" y2="14" stroke="#000" stroke-width="1" opacity=".2"/><line x1="75" x2="435" y1="221" y2="221" stroke="#000" stroke-width="1" opacity=".2"/><line x1="75" x2="435" y1="196" y2="196" stroke="#000" stroke-width="1" opacity=".2"/><line x1="75" x2="435" y1="170" y2="170" stroke="#000" stroke-width="1" opacity=".2"/><line x1="75" x2="435" y1="145" y2="145" stroke="#000" stroke-width="1" opacity=".2"/><line x1="75" x2="435" y1="119" y2="119" stroke="#000" stroke-width="1" opacity=".2"/><line x1="75" x2="435" y1="93" y2="93" stroke="#000" stroke-width="1" opacity=".2"/><line x1="75" x2="435" y1="68" y2="68" stroke="#000" stroke-width="1" opacity=".2"/><line x1="75" x2="435" y1="42" y2="42" stroke="#000" stroke-width="1" opacity=".2"/><line x1="75" x2="435" y1="17" y2="17" stroke="#000" stroke-width="1" opacity=".2"/><polyline fill="none" stroke="#000" stroke-width="1" points="74 15 74 245" opacity="1"/><text x="65" y="221" fill="#000" dy=".5ex" font-family="sans-serif" font-size="9.677" opacity="1" text-anchor="end">10.0</text><polyline fill="none" stroke="#000" stroke-width="1" points="69 221 74 221" opacity="1"/><text x="65" y="196" fill="#000" dy=".5ex" font-family="sans-serif" font-size="9.677" opacity="1" text-anchor="end">20.0</text><polyline fill="none" stroke="#000" stroke-width="1" points="69 196 74 196" opacity="1"/><text x="65" y="170" fill="#000" dy=".5ex" font-family="sans-serif" font-size="9.677" opacity="1" text-anchor="end">30.0</text><polyline fill="none" stroke="#000" stroke-width="1" points="69 170 74 170" opacity="1"/><text x="65" y="145" fill="#000" dy=".5ex" font-family="sans-serif" font-size="9.677" opacity="1" text-anchor="end">40.0</text><polyline fill="none" stroke="#000" stroke-width="1" points="69 145 74 145" opacity="1"/><text x="65" y="119" fill="#000" dy=".5ex" font-family="sans-serif" font-size="9.677" opacity="1" text-anchor="end">50.0</text><polyline fill="none" stroke="#000" stroke-width="1" points="69 119 74 119" opacity="1"/><text x="65" y="93" fill="#000" dy=".5ex" font-family="sans-serif" font-size="9.677" opacity="1" text-anchor="end">60.0</text><polyline fill="none" stroke="#000" stroke-width="1" points="69 93 74 93" opacity="1"/><text x="65" y="68" fill="#000" dy=".5ex" font-family="sans-serif" font-size="9.677" opacity="1" text-anchor="end">70.0</text><polyline fill="none" stroke="#000" stroke-width="1" points="69 68 74 68" opacity="1"/><text x="65" y="42" fill="#000" dy=".5ex" font-family="sans-serif" font-size="9.677" opacity="1" text-anchor="end">80.0</text><polyline fill="none" stroke="#000" stroke-width="1" points="69 42 74 42" opacity="1"/><text x="65" y="17" fill="#000" dy=".5ex" font-family="sans-serif" font-size="9.677" opacity="1" text-anchor="end">90.0</text><polyline fill="none" stroke="#000" stroke-width="1" points="69 17 74 17" opacity="1"/><polyline fill="none" stroke="#000" stroke-width="1" points="75 245 435 245" opacity="1"/><text x="141" y="255" fill="#000" dy=".76em" font-family="sans-serif" font-size="9.677" opacity="1" text-anchor="middle">2</text><polyline fill="none" stroke="#000" stroke-width="1" points="141 245 141 250" opacity="1"/><text x="212" y="255" fill="#000" dy=".76em" font-family="sans-serif" font-size="9.677" opacity="1" text-anchor="middle">4</text><polyline fill="none" stroke="#000" stroke-width="1" points="212 245 212 250" opacity="1"/><text x="283" y="255" fill="#000" dy=".76em" font-family="sans-serif" font-size="9.677" opacity="1" text-anchor="middle">6</text><polyline fill="none" stroke="#000" stroke-width="1" points="283 245 283 250" opacity="1"/><text x="353" y="255" fill="#000" dy=".76em" font-family="sans-serif" font-size="9.677" opacity="1" text-anchor="middle">8</text><polyline fill="none" stroke="#000" stroke-width="1" points="353 245 353 250" opacity="1"/><text x="424" y="255" fill="#000" dy=".76em" font-family="sans-serif" font-size="9.677" opacity="1" text-anchor="middle">10</text><polyline fill="none" stroke="#000" stroke-width="1" points="424 245 424 250" opacity="1"/><circle cx="75" cy="244" r="3" fill="#1F78B4" stroke="none" opacity="1"/><circle cx="78" cy="242" r="3" fill="#1F78B4" stroke="none" opacity="1"/><circle cx="82" cy="240" r="3" fill="#1F78B4" stroke="none" opacity="1"/><circle cx="85" cy="238" r="3" fill="#1F78B4" stroke="none" opacity="1"/><circle cx="89" cy="236" r="3" fill="#1F78B4" stroke="none" opacity="1"/><circle cx="93" cy="234" r="3" fill="#1F78B4" stroke="none" opacity="1"/><circle cx="96" cy="231" r="3" fill="#1F78B4" stroke="none" opacity="1"/><circle cx="100" cy="229" r="3" fill="#1F78B4" stroke="none" opacity="1"/><circle cx="104" cy="227" r="3" fill="#1F78B4" stroke="none" opacity="1"/><circle cx="107" cy="225" r="3" fill="#1F78B4" stroke="none" opacity="1"/><circle cx="111" cy="223" r="3" fill="#1F78B4" stroke="none" opacity="1"/><circle cx="115" cy="221" r="3" fill="#1F78B4" stroke="none" opacity="1"/><circle cx="118" cy="219" r="3" fill="#1F78B4" stroke="none" opacity="1"/><circle cx="122" cy="216" r="3" fill="#1F78B4" stroke="none" opacity="1"/><circle cx="125" cy="214" r="3" fill="#1F78B4" stroke="none" opacity="1"/><circle cx="129" cy="212" r="3" fill="#1F78B4" stroke="none" opacity="1"/><circle cx="133" cy="210" r="3" fill="#1F78B4" stroke="none" opacity="1"/><circle cx="136" cy="208" r="3" fill="#1F78B4" stroke="none" opacity="1"/><circle cx="140" cy="206" r="3" fill="#1F78B4" stroke="none" opacity="1"/><circle cx="144" cy="204" r="3" fill="#1F78B4" stroke="none" opacity="1"/><circle cx="147" cy="201" r="3" fill="#1F78B4" stroke="none" opacity="1"/><circle cx="151" cy="199" r="3" fill="#1F78B4" stroke="none" opacity="1"/><circle cx="155" cy="197" r="3" fill="#1F78B4" stroke="none" opacity="1"/><circle cx="158" cy="195" r="3" fill="#1F78B4" stroke="none" opacity="1"/><circle cx="162" cy="193" r="3" fill="#1F78B4" stroke="none" opacity="1"/><circle cx="165" cy="190" r="3" fill="#1F78B4" stroke="none" opacity="1"/><circle cx="169" cy="188" r="3" fill="#1F78B4" stroke="none" opacity="1"/><circle cx="173" cy="186" r="3" fill="#1F78B4" stroke="none" opacity="1"/><circle cx="176" cy="184" r="3" fill="#1F78B4" stroke="none" opacity="1"/><circle cx="180" cy="182" r="3" fill="#1F78B4" stroke="none" opacity="1"/><circle cx="184" cy="180" r="3" fill="#1F78B4" stroke="none" opacity="1"/><circle cx="187" cy="178" r="3" fill="#1F78B4" stroke="none" opacity="1"/><circle cx="191" cy="176" r="3" fill="#1F78B4" stroke="none" opacity="1"/><circle cx="195" cy="173" r="3" fill="#1F78B4" stroke="none" opacity="1"/><circle cx="198" cy="171" r="3" fill="#1F78B4" stroke="none" opacity="1"/><circle cx="202" cy="169" r="3" fill="#1F78B4" stroke="none" opacity="1"/><circle cx="205" cy="167" r="3" fill="#1F78B4" stroke="none" opacity="1"/><circle cx="209" cy="158" r="3" fill="#1F78B4" stroke="none" opacity="1"/><circle cx="213" cy="163" r="3" fill="#1F78B4" stroke="none" opacity="1"/><circle cx="216" cy="160" r="3" fill="#1F78B4" stroke="none" opacity="1"/><circle cx="220" cy="158" r="3" fill="#1F78B4" stroke="none" opacity="1"/><circle cx="224" cy="155" r="3" fill="#1F78B4" stroke="none" opacity="1"/><circle cx="227" cy="154" r="3" fill="#1F78B4" stroke="none" opacity="1"/><circle cx="231" cy="152" r="3" fill="#1F78B4" stroke="none" opacity="1"/><circle cx="235" cy="149" r="3" fill="#1F78B4" stroke="none" opacity="1"/><circle cx="238" cy="147" r="3" fill="#1F78B4" stroke="none" opacity="1"/><circle cx="242" cy="145" r="3" fill="#1F78B4" stroke="none" opacity="1"/><circle cx="245" cy="143" r="3" fill="#1F78B4" stroke="none" opacity="1"/><circle cx="249" cy="141" r="3" fill="#1F78B4" stroke="none" opacity="1"/><circle cx="253" cy="138" r="3" fill="#1F78B4" stroke="none" opacity="1"/><circle cx="256" cy="136" r="3" fill="#1F78B4" stroke="none" opacity="1"/><circle cx="260" cy="133" r="3" fill="#1F78B4" stroke="none" opacity="1"/><circle cx="264" cy="132" r="3" fill="#1F78B4" stroke="none" opacity="1"/><circle cx="267" cy="129" r="3" fill="#1F78B4" stroke="none" opacity="1"/><circle cx="271" cy="128" r="3" fill="#1F78B4" stroke="none" opacity="1"/><circle cx="275" cy="125" r="3" fill="#1F78B4" stroke="none" opacity="1"/><circle cx="278" cy="123" r="3" fill="#1F78B4" stroke="none" opacity="1"/><circle cx="282" cy="105" r="3" fill="#1F78B4" stroke="none" opacity="1"/><circle cx="285" cy="119" r="3" fill="#1F78B4" stroke="none" opacity="1"/><circle cx="289" cy="117" r="3" fill="#1F78B4" stroke="none" opacity="1"/><circle cx="293" cy="114" r="3" fill="#1F78B4" stroke="none" opacity="1"/><circle cx="296" cy="112" r="3" fill="#1F78B4" stroke="none" opacity="1"/><circle cx="300" cy="110" r="3" fill="#1F78B4" stroke="none" opacity="1"/><circle cx="304" cy="108" r="3" fill="#1F78B4" stroke="none" opacity="1"/><circle cx="307" cy="105" r="3" fill="#1F78B4" stroke="none" opacity="1"/><circle cx="311" cy="103" r="3" fill="#1F78B4" stroke="none" opacity="1"/><circle cx="315" cy="102" r="3" fill="#1F78B4" stroke="none" opacity="1"/><circle cx="318" cy="99" r="3" fill="#1F78B4" stroke="none" opacity="1"/><circle cx="322" cy="78" r="3" fill="#1F78B4" stroke="none" opacity="1"/><circle cx="325" cy="95" r="3" fill="#1F78B4" stroke="none" opacity="1"/><circle cx="329" cy="94" r="3" fill="#1F78B4" stroke="none" opacity="1"/><circle cx="333" cy="90" r="3" fill="#1F78B4" stroke="none" opacity="1"/><circle cx="336" cy="89" r="3" fill="#1F78B4" stroke="none" opacity="1"/><circle cx="340" cy="86" r="3" fill="#1F78B4" stroke="none" opacity="1"/><circle cx="344" cy="83" r="3" fill="#1F78B4" stroke="none" opacity="1"/><circle cx="347" cy="82" r="3" fill="#1F78B4" stroke="none" opacity="1"/><circle cx="351" cy="81" r="3" fill="#1F78B4" stroke="none" opacity="1"/><circle cx="355" cy="79" r="3" fill="#1F78B4" stroke="none" opacity="1"/><circle cx="358" cy="48" r="3" fill="#1F78B4" stroke="none" opacity="1"/><circle cx="362" cy="73" r="3" fill="#1F78B4" stroke="none" opacity="1"/><circle cx="365" cy="71" r="3" fill="#1F78B4" stroke="none" opacity="1"/><circle cx="369" cy="69" r="3" fill="#1F78B4" stroke="none" opacity="1"/><circle cx="373" cy="65" r="3" fill="#1F78B4" stroke="none" opacity="1"/><circle cx="376" cy="64" r="3" fill="#1F78B4" stroke="none" opacity="1"/><circle cx="380" cy="62" r="3" fill="#1F78B4" stroke="none" opacity="1"/><circle cx="384" cy="59" r="3" fill="#1F78B4" stroke="none" opacity="1"/><circle cx="387" cy="42" r="3" fill="#1F78B4" stroke="none" opacity="1"/><circle cx="391" cy="57" r="3" fill="#1F78B4" stroke="none" opacity="1"/><circle cx="395" cy="55" r="3" fill="#1F78B4" stroke="none" opacity="1"/><circle cx="398" cy="50" r="3" fill="#1F78B4" stroke="none" opacity="1"/><circle cx="402" cy="49" r="3" fill="#1F78B4" stroke="none" opacity="1"/><circle cx="405" cy="46" r="3" fill="#1F78B4" stroke="none" opacity="1"/><circle cx="409" cy="44" r="3" fill="#1F78B4" stroke="none" opacity="1"/><circle cx="413" cy="41" r="3" fill="#1F78B4" stroke="none" opacity="1"/><circle cx="416" cy="15" r="3" fill="#1F78B4" stroke="none" opacity="1"/><circle cx="420" cy="38" r="3" fill="#1F78B4" stroke="none" opacity="1"/><circle cx="424" cy="36" r="3" fill="#1F78B4" stroke="none" opacity="1"/><circle cx="427" cy="34" r="3" fill="#1F78B4" stroke="none" opacity="1"/><circle cx="431" cy="32" r="3" fill="#1F78B4" stroke="none" opacity="1"/><circle cx="435" cy="31" r="3" fill="#1F78B4" stroke="none" opacity="1"/><polyline fill="none" stroke="#1F78B4" stroke-width="1" points="75 245 435 27" opacity="1"/><polygon fill="#1F78B4" points="75 245 435 29 435 25" opacity=".25"/></svg>