<svg xmlns="http://www.w3.org/2000/svg" width="960" height="540"><text x="480" y="32" fill="#000" dy=".76em" font-family="sans-serif" font-size="16.129" opacity="1" text-anchor="middle">bench_group/threads_08/131072:slope</text><text x="27" y="263" fill="#000" dy=".76em" font-family="sans-serif" font-size="9.677" opacity="1" text-anchor="middle" transform="rotate(270, 27, 263)">Density (a.u.)</text><text x="510" y="513" fill="#000" dy="-.5ex" font-family="sans-serif" font-size="9.677" opacity="1" text-anchor="middle">Average time (us)</text><polyline fill="none" stroke="#000" stroke-width="1" points="86 53 86 473" opacity="1"/><text x="77" y="450" fill="#000" dy=".5ex" font-family="sans-serif" font-size="9.677" opacity="1" text-anchor="end">1</text><polyline fill="none" stroke="#000" stroke-width="1" points="81 450 86 450" opacity="1"/><text x="77" y="407" fill="#000" dy=".5ex" font-family="sans-serif" font-size="9.677" opacity="1" text-anchor="end">2</text><polyline fill="none" stroke="#000" stroke-width="1" points="81 407 86 407" opacity="1"/><text x="77" y="364" fill="#000" dy=".5ex" font-family="sans-serif" font-size="9.677" opacity="1" text-anchor="end">3</text><polyline fill="none" stroke="#000" stroke-width="1" points="81 364 86 364" opacity="1"/><text x="77" y="321" fill="#000" dy=".5ex" font-family="sans-serif" font-size="9.677" opacity="1" text-anchor="end">4</text><polyline fill="none" stroke="#000" stroke-width="1" points="81 321 86 321" opacity="1"/><text x="77" y="277" fill="#000" dy=".5ex" font-family="sans-serif" font-size="9.677" opacity="1" text-anchor="end">5</text><polyline fill="none" stroke="#000" stroke-width="1" points="81 277 86 277" opacity="1"/><text x="77" y="234" fill="#000" dy=".5ex" font-family="sans-serif" font-size="9.677" opacity="1" text-anchor="end">6</text><polyline fill="none" stroke="#000" stroke-width="1" points="81 234 86 234" opacity="1"/><text x="77" y="191" fill="#000" dy=".5ex" font-family="sans-serif" font-size="9.677" opacity="1" text-anchor="end">7</text><polyline fill="none" stroke="#000" stroke-width="1" points="81 191 86 191" opacity="1"/><text x="77" y="148" fill="#000" dy=".5ex" font-family="sans-serif" font-size="9.677" opacity="1" text-anchor="end">8</text><polyline fill="none" stroke="#000" stroke-width="1" points="81 148 86 148" opacity="1"/><text x="77" y="105" fill="#000" dy=".5ex" font-family="sans-serif" font-size="9.677" opacity="1" text-anchor="end">9</text><polyline fill="none" stroke="#000" stroke-width="1" points="81 105 86 105" opacity="1"/><text x="77" y="62" fill="#000" dy=".5ex" font-family="sans-serif" font-size="9.677" opacity="1" text-anchor="end">10</text><polyline fill="none" stroke="#000" stroke-width="1" points="81 62 86 62" opacity="1"/><polyline fill="none" stroke="#000" stroke-width="1" points="87 473 933 473" opacity="1"/><text x="164" y="483" fill="#000" dy=".76em" font-family="sans-serif" font-size="9.677" opacity="1" text-anchor="middle">8.26</text><polyline fill="none" stroke="#000" stroke-width="1" points="164 473 164 478" opacity="1"/><text x="248" y="483" fill="#000" dy=".76em" font-family="sans-serif" font-size="9.677" opacity="1" text-anchor="middle">8.28</text><polyline fill="none" stroke="#000" stroke-width="1" points="248 473 248 478" opacity="1"/><text x="332" y="483" fill="#000" dy=".76em" font-family="sans-serif" font-size="9.677" opacity="1" text-anchor="middle">8.3</text><polyline fill="none" stroke="#000" stroke-width="1" points="332 473 332 478" opacity="1"/><text x="416" y="483" fill="#000" dy=".76em" font-family="sans-serif" font-size="9.677" opacity="1" text-anchor="middle">8.32</text><polyline fill="none" stroke="#000" stroke-width="1" points="416 473 416 478" opacity="1"/><text x="500" y="483" fill="#000" dy=".76em" font-family="sans-serif" font-size="9.677" opacity="1" text-anchor="middle">8.34</text><polyline fill="none" stroke="#000" stroke-width="1" points="500 473 500 478" opacity="1"/><text x="585" y="483" fill="#000" dy=".76em" font-family="sans-serif" font-size="9.677" opacity="1" text-anchor="middle">8.36</text><polyline fill="none" stroke="#000" stroke-width="1" points="585 473 585 478" opacity="1"/><text x="669" y="483" fill="#000" dy=".76em" font-family="sans-serif" font-size="9.677" opacity="1" text-anchor="middle">8.38</text><polyline fill="none" stroke="#000" stroke-width="1" points="669 473 669 478" opacity="1"/><text x="753" y="483" fill="#000" dy=".76em" font-family="sans-serif" font-size="9.677" opacity="1" text-anchor="middle">8.4</text><polyline fill="none" stroke="#000" stroke-width="1" points="753 473 753 478" opacity="1"/><text x="837" y="483" fill="#000" dy=".76em" font-family="sans-serif" font-size="9.677" opacity="1" text-anchor="middle">8.42</text><polyline fill="none" stroke="#000" stroke-width="1" points="837 473 837 478" opacity="1"/><text x="921" y="483" fill="#000" dy=".76em" font-family="sans-serif" font-size="9.677" opacity="1" text-anchor="middle">8.44</text><polyline fill="none" stroke="#000" stroke-width="1" points="921 473 921 478" opacity="1"/><polyline fill="none" stroke="#1F78B4" stroke-width="1" points="87 472 88 471 90 470 92 469 93 468 95 467 97 466 98 465 100 463 102 462 103 461 105 460 107 458 109 457 110 455 112 454 114 452 115 451 117 449 119 448 120 446 122 445 124 443 125 441 127 440 129 438 131 436 132 435 134 433 136 431 137 430 139 428 141 426 142 425 144 423 146 422 148 420 149 418 151 416 153 415 154 413 156 411 158 410 159 408 161 406 163 404 164 403 166 401 168 399 170 397 171 395 173 393 175 391 176 389 178 387 180 384 181 382 183 380 185 377 187 375 188 373 190 370 192 367 193 365 195 362 197 360 198 357 200 354 202 352 203 349 205 346 207 344 209 341 210 338 212 336 214 333 215 330 217 328 219 325 220 323 222 320 224 318 226 315 227 313 229 311 231 308 232 306 234 303 236 301 237 298 239 296 241 293 242 291 244 288 246 286 248 283 249 281 251 278 253 276 254 273 256 271 258 268 259 266 261 264 263 261 265 259 266 257 268 255 270 253 271 250 273 248 275 246 276 244 278 241 280 239 281 237 283 234 285 232 287 229 288 227 290 224 292 221 293 219 295 216 297 213 298 210 300 207 302 204 304 201 305 198 307 195 309 192 310 189 312 186 314 183 315 180 317 177 319 174 320 172 322 169 324 166 326 164 327 162 329 159 331 157 332 155 334 153 336 151 337 149 339 148 341 146 343 144 344 143 346 142 348 141 349 139 351 138 353 137 354 136 356 135 358 134 359 133 361 132 363 131 365 130 366 129 368 128 370 127 371 126 373 125 375 124 376 123 378 122 380 121 381 120 383 118 385 117 387 116 388 115 390 114 392 113 393 112 395 111 397 110 398 109 400 108 402 107 404 106 405 106 407 105 409 105 410 104 412 104 414 103 415 103 417 103 419 103 420 102 422 102 424 102 426 102 427 101 429 101 431 101 432 101 434 100 436 100 437 99 439 99 441 98 443 97 444 97 446 96 448 95 449 95 451 94 453 93 454 93 456 93 458 92 459 92 461 92 463 92 465 92 466 92 468 92 470 93 471 93 473 94 475 95 476 95 478 96 480 97 482 98 483 99 485 100 487 102 488 103 490 104 492 105 493 106 495 107 497 108 498 109 500 110 502 111 504 112 505 113 507 114 509 115 510 115 512 116 514 117 515 118 517 119 519 120 521 122 522 123 524 124 526 125 527 126 529 127 531 129 532 130 534 131 536 133 537 134 539 136 541 137 543 139 544 140 546 142 548 143 549 145 551 147 553 148 554 150 556 152 558 153 560 155 561 157 563 159 565 161 566 163 568 165 570 167 571 169 573 171 575 173 576 175 578 178 580 180 582 183 583 185 585 188 587 190 588 193 590 195 592 198 593 200 595 203 597 206 599 208 600 211 602 213 604 215 605 218 607 220 609 222 610 224 612 227 614 229 615 231 617 233 619 235 621 237 622 238 624 240 626 242 627 244 629 246 631 248 632 250 634 252 636 253 638 255 639 257 641 259 643 261 644 263 646 265 648 266 649 268 651 270 653 272 654 274 656 275 658 277 660 279 661 281 663 282 665 284 666 286 668 288 670 290 671 291 673 293 675 295 676 297 678 299 680 300 682 302 683 304 685 306 687 308 688 310 690 312 692 314 693 316 695 318 697 320 699 323 700 325 702 327 704 329 705 331 707 333 709 335 710 337 712 339 714 341 715 343 717 345 719 347 721 349 722 351 724 353 726 354 727 356 729 358 731 359 732 361 734 362 736 364 738 365 739 366 741 368 743 369 744 370 746 371 748 372 749 373 751 374 753 375 754 375 756 376 758 377 760 378 761 379 763 380 765 381 766 382 768 383 770 384 771 385 773 387 775 388 777 389 778 390 780 392 782 393 783 394 785 396 787 397 788 398 790 400 792 401 793 402 795 404 797 405 799 407 800 408 802 409 804 411 805 412 807 414 809 415 810 416 812 418 814 419 816 420 817 422 819 423 821 424 822 425 824 427 826 428 827 429 829 430 831 431 832 432 834 433 836 434 838 435 839 436 841 437 843 438 844 439 846 440 848 441 849 442 851 442 853 443 855 444 856 445 858 445 860 446 861 447 863 448 865 448 866 449 868 450 870 451 871 451 873 452 875 453 877 453 878 454 880 455 882 455 883 456 885 456 887 457 888 458 890 458 892 459 894 459 895 460 897 460 899 461 900 461 902 462 904 462 905 463 907 464 909 464 910 465 912 465 914 466 916 466 917 467 919 467 921 468 922 468 924 469 926 469 927 470 929 470 931 471 933 471" opacity="1"/><polygon fill="#1F78B4" points="164 403 166 401 168 399 170 397 171 395 173 393 175 391 176 389 178 387 180 384 181 382 183 380 185 377 187 375 188 373 190 370 192 367 193 365 195 362 197 360 198 357 200 354 202 352 203 349 205 346 207 344 209 341 210 338 212 336 214 333 215 330 217 328 219 325 220 323 222 320 224 318 226 315 227 313 229 311 231 308 232 306 234 303 236 301 237 298 239 296 241 293 242 291 244 288 246 286 248 283 249 281 251 278 253 276 254 273 256 271 258 268 259 266 261 264 263 261 265 259 266 257 268 255 270 253 271 250 273 248 275 246 276 244 278 241 280 239 281 237 283 234 285 232 287 229 288 227 290 224 292 221 293 219 295 216 297 213 298 210 300 207 302 204 304 201 305 198 307 195 309 192 310 189 312 186 314 183 315 180 317 177 319 174 320 172 322 169 324 166 326 164 327 162 329 159 331 157 332 155 334 153 336 151 337 149 339 148 341 146 343 144 344 143 346 142 348 141 349 139 351 138 353 137 354 136 356 135 358 134 359 133 361 132 363 131 365 130 366 129 368 128 370 127 371 126 373 125 375 124 376 123 378 122 380 121 381 120 383 118 385 117 387 116 388 115 390 114 392 113 393 112 395 111 397 110 398 109 400 108 402 107 404 106 405 106 407 105 409 105 410 104 412 104 414 103 415 103 417 103 419 103 420 102 422 102 424 102 426 102 427 101 429 101 431 101 432 101 434 100 436 100 437 99 439 99 441 98 443 97 444 97 446 96 448 95 449 95 451 94 453 93 454 93 456 93 458 92 459 92 461 92 463 92 465 92 466 92 468 92 470 93 471 93 473 94 475 95 476 95 478 96 480 97 482 98 483 99 485 100 487 102 488 103 490 104 492 105 493 106 495 107 497 108 498 109 500 110 502 111 504 112 505 113 507 114 509 115 510 115 512 116 514 117 515 118 517 119 519 120 521 122 522 123 524 124 526 125 527 126 529 127 531 129 532 130 534 131 536 133 537 134 539 136 541 137 543 139 544 140 546 142 548 143 549 145 551 147 553 148 554 150 556 152 558 153 560 155 561 157 563 159 565 161 566 163 568 165 570 167 571 169 573 171 575 173 576 175 578 178 580 180 582 183 583 185 585 188 587 190 588 193 590 195 592 198 593 200 595 203 597 206 599 208 600 211 602 213 604 215 605 218 607 220 609 222 610 224 612 227 614 229 615 231 617 233 619 235 621 237 622 238 624 240 626 242 627 244 629 246 631 248 632 250 634 252 636 253 638 255 639 257 641 259 643 261 644 263 646 265 648 266 649 268 651 270 653 272 654 274 656 275 658 277 660 279 661 281 663 282 665 284 666 286 668 288 670 290 671 291 673 293 675 295 676 297 678 299 680 300 682 302 683 304 685 306 687 308 688 310 690 312 692 314 693 316 695 318 697 320 699 323 700 325 702 327 704 329 705 331 707 333 709 335 710 337 712 339 714 341 715 343 717 345 719 347 721 349 722 351 724 353 726 354 727 356 729 358 731 359 732 361 734 362 736 364 738 365 739 366 741 368 743 369 744 370 746 371 748 372 749 373 751 374 753 375 754 375 756 376 758 377 760 378 761 379 763 380 765 381 766 382 768 383 770 384 771 385 773 387 775 388 777 389 778 390 780 392 782 393 783 394 785 396 787 397 788 398 790 400 792 401 793 402 795 404 797 405 799 407 800 408 802 409 804 411 805 412 807 414 809 415 810 416 812 418 814 419 816 420 817 422 819 423 821 424 822 425 824 427 826 428 827 429 829 430 831 431 832 432 834 433 836 434 838 435 839 436 841 437 843 438 844 439 846 440 848 441 849 442 851 442 853 443 853 473 164 473" opacity=".25"/><polyline fill="none" stroke="#1F78B4" stroke-width="3" points="477 473 477 96" opacity="1"/><text x="798" y="68" fill="#000" dy=".76em" font-family="sans-serif" font-size="9.677" opacity="1" text-anchor="start">Bootstrap distribution</text><text x="798" y="83" fill="#000" dy=".76em" font-family="sans-serif" font-size="9.677" opacity="1" text-anchor="start">Confidence interval</text><text x="798" y="98" fill="#000" dy=".76em" font-family="sans-serif" font-size="9.677" opacity="1" text-anchor="start">Point estimate</text><polyline fill="none" stroke="#1F78B4" stroke-width="1" points="768 73 788 73" opacity="1"/><rect width="20" height="10" x="768" y="83" fill="#1F78B4" stroke="none" opacity=".25"/><polyline fill="none" stroke="#1F78B4" stroke-width="1" points="768 103 788 103" opacity="1"/></svg>