<svg xmlns="http://www.w3.org/2000/svg" width="960" height="540"><text x="480" y="32" fill="#000" dy=".76em" font-family="sans-serif" font-size="16.129" opacity="1" text-anchor="middle">bench_group/blake3/917504:median</text><text x="27" y="263" fill="#000" dy=".76em" font-family="sans-serif" font-size="9.677" opacity="1" text-anchor="middle" transform="rotate(270, 27, 263)">Density (a.u.)</text><text x="510" y="513" fill="#000" dy="-.5ex" font-family="sans-serif" font-size="9.677" opacity="1" text-anchor="middle">Average time (us)</text><polyline fill="none" stroke="#000" stroke-width="1" points="86 53 86 473" opacity="1"/><text x="77" y="432" fill="#000" dy=".5ex" font-family="sans-serif" font-size="9.677" opacity="1" text-anchor="end">5</text><polyline fill="none" stroke="#000" stroke-width="1" points="81 432 86 432" opacity="1"/><text x="77" y="388" fill="#000" dy=".5ex" font-family="sans-serif" font-size="9.677" opacity="1" text-anchor="end">10</text><polyline fill="none" stroke="#000" stroke-width="1" points="81 388 86 388" opacity="1"/><text x="77" y="344" fill="#000" dy=".5ex" font-family="sans-serif" font-size="9.677" opacity="1" text-anchor="end">15</text><polyline fill="none" stroke="#000" stroke-width="1" points="81 344 86 344" opacity="1"/><text x="77" y="301" fill="#000" dy=".5ex" font-family="sans-serif" font-size="9.677" opacity="1" text-anchor="end">20</text><polyline fill="none" stroke="#000" stroke-width="1" points="81 301 86 301" opacity="1"/><text x="77" y="257" fill="#000" dy=".5ex" font-family="sans-serif" font-size="9.677" opacity="1" text-anchor="end">25</text><polyline fill="none" stroke="#000" stroke-width="1" points="81 257 86 257" opacity="1"/><text x="77" y="214" fill="#000" dy=".5ex" font-family="sans-serif" font-size="9.677" opacity="1" text-anchor="end">30</text><polyline fill="none" stroke="#000" stroke-width="1" points="81 214 86 214" opacity="1"/><text x="77" y="170" fill="#000" dy=".5ex" font-family="sans-serif" font-size="9.677" opacity="1" text-anchor="end">35</text><polyline fill="none" stroke="#000" stroke-width="1" points="81 170 86 170" opacity="1"/><text x="77" y="126" fill="#000" dy=".5ex" font-family="sans-serif" font-size="9.677" opacity="1" text-anchor="end">40</text><polyline fill="none" stroke="#000" stroke-width="1" points="81 126 86 126" opacity="1"/><text x="77" y="83" fill="#000" dy=".5ex" font-family="sans-serif" font-size="9.677" opacity="1" text-anchor="end">45</text><polyline fill="none" stroke="#000" stroke-width="1" points="81 83 86 83" opacity="1"/><polyline fill="none" stroke="#000" stroke-width="1" points="87 473 933 473" opacity="1"/><text x="141" y="483" fill="#000" dy=".76em" font-family="sans-serif" font-size="9.677" opacity="1" text-anchor="middle">150.28</text><polyline fill="none" stroke="#000" stroke-width="1" points="141 473 141 478" opacity="1"/><text x="259" y="483" fill="#000" dy=".76em" font-family="sans-serif" font-size="9.677" opacity="1" text-anchor="middle">150.29</text><polyline fill="none" stroke="#000" stroke-width="1" points="259 473 259 478" opacity="1"/><text x="377" y="483" fill="#000" dy=".76em" font-family="sans-serif" font-size="9.677" opacity="1" text-anchor="middle">150.3</text><polyline fill="none" stroke="#000" stroke-width="1" points="377 473 377 478" opacity="1"/><text x="495" y="483" fill="#000" dy=".76em" font-family="sans-serif" font-size="9.677" opacity="1" text-anchor="middle">150.31</text><polyline fill="none" stroke="#000" stroke-width="1" points="495 473 495 478" opacity="1"/><text x="613" y="483" fill="#000" dy=".76em" font-family="sans-serif" font-size="9.677" opacity="1" text-anchor="middle">150.32</text><polyline fill="none" stroke="#000" stroke-width="1" points="613 473 613 478" opacity="1"/><text x="731" y="483" fill="#000" dy=".76em" font-family="sans-serif" font-size="9.677" opacity="1" text-anchor="middle">150.33</text><polyline fill="none" stroke="#000" stroke-width="1" points="731 473 731 478" opacity="1"/><text x="849" y="483" fill="#000" dy=".76em" font-family="sans-serif" font-size="9.677" opacity="1" text-anchor="middle">150.34</text><polyline fill="none" stroke="#000" stroke-width="1" points="849 473 849 478" opacity="1"/><polyline fill="none" stroke="#1F78B4" stroke-width="1" points="87 472 88 471 90 471 92 471 93 471 95 470 97 470 98 470 100 469 102 469 103 468 105 468 107 467 109 467 110 466 112 465 114 465 115 464 117 463 119 462 120 460 122 459 124 458 125 456 127 455 129 453 131 452 132 450 134 448 136 446 137 445 139 443 141 441 142 439 144 438 146 436 148 435 149 434 151 433 153 432 154 432 156 431 158 431 159 431 161 432 163 432 164 433 166 435 168 436 170 437 171 439 173 441 175 442 176 444 178 446 180 448 181 449 183 451 185 453 187 454 188 455 190 456 192 457 193 458 195 458 197 458 198 458 200 458 202 457 203 457 205 456 207 455 209 454 210 453 212 452 214 451 215 450 217 449 219 448 220 447 222 446 224 445 226 445 227 444 229 444 231 444 232 444 234 444 236 445 237 445 239 446 241 446 242 447 244 447 246 448 248 448 249 448 251 448 253 448 254 447 256 446 258 444 259 442 261 439 263 435 265 431 266 426 268 420 270 413 271 406 273 397 275 388 276 378 278 368 280 356 281 344 283 332 285 319 287 306 288 293 290 280 292 268 293 255 295 244 297 233 298 223 300 214 302 207 304 200 305 195 307 192 309 190 310 189 312 189 314 191 315 194 317 199 319 204 320 210 322 216 324 223 326 231 327 238 329 246 331 253 332 260 334 267 336 274 337 280 339 285 341 290 343 294 344 298 346 301 348 304 349 306 351 308 353 309 354 309 356 309 358 309 359 308 361 306 363 304 365 302 366 299 368 295 370 291 371 287 373 282 375 276 376 270 378 264 380 257 381 250 383 242 385 235 387 226 388 218 390 209 392 200 393 192 395 183 397 174 398 165 400 157 402 148 404 140 405 133 407 125 409 119 410 112 412 107 414 102 415 98 417 95 419 92 420 91 422 90 424 90 426 92 427 94 429 97 431 101 432 107 434 113 436 120 437 127 439 136 441 145 443 155 444 166 446 177 448 188 449 200 451 212 453 224 454 236 456 248 458 261 459 273 461 284 463 296 465 307 466 317 468 327 470 337 471 345 473 354 475 361 476 368 478 373 480 378 482 383 483 386 485 389 487 391 488 392 490 392 492 392 493 391 495 390 497 389 498 387 500 384 502 382 504 379 505 377 507 374 509 371 510 369 512 367 514 365 515 364 517 363 519 362 521 362 522 362 524 362 526 363 527 364 529 366 531 368 532 370 534 372 536 374 537 377 539 379 541 381 543 384 544 386 546 388 548 390 549 391 551 392 553 393 554 394 556 394 558 394 560 393 561 393 563 392 565 390 566 389 568 387 570 385 571 382 573 380 575 378 576 375 578 373 580 370 582 368 583 366 585 363 587 361 588 359 590 357 592 355 593 354 595 352 597 350 599 349 600 348 602 347 604 346 605 345 607 344 609 343 610 343 612 342 614 342 615 341 617 341 619 341 621 340 622 340 624 340 626 341 627 341 629 341 631 341 632 342 634 342 636 343 638 344 639 344 641 345 643 346 644 346 646 347 648 348 649 349 651 349 653 350 654 351 656 351 658 352 660 352 661 353 663 353 665 353 666 354 668 354 670 354 671 354 673 355 675 355 676 355 678 355 680 356 682 356 683 356 685 357 687 357 688 358 690 358 692 359 693 360 695 360 697 361 699 362 700 362 702 363 704 364 705 364 707 365 709 365 710 366 712 366 714 366 715 367 717 367 719 367 721 367 722 367 724 367 726 367 727 366 729 366 731 366 732 365 734 364 736 364 738 363 739 362 741 361 743 359 744 358 746 356 748 355 749 353 751 351 753 349 754 347 756 345 758 343 760 340 761 338 763 335 765 332 766 329 768 326 770 323 771 319 773 316 775 312 777 309 778 305 780 302 782 298 783 295 785 292 787 289 788 286 790 283 792 281 793 279 795 277 797 276 799 275 800 275 802 275 804 276 805 278 807 280 809 282 810 285 812 289 814 293 816 298 817 303 819 309 821 315 822 321 824 328 826 335 827 342 829 349 831 356 832 363 834 370 836 376 838 383 839 389 841 395 843 401 844 406 846 411 848 416 849 420 851 424 853 427 855 431 856 434 858 436 860 439 861 441 863 443 865 444 866 446 868 447 870 448 871 449 873 450 875 451 877 452 878 452 880 453 882 454 883 454 885 455 887 455 888 455 890 456 892 456 894 456 895 457 897 457 899 457 900 457 902 458 904 458 905 458 907 458 909 458 910 458 912 458 914 459 916 459 917 459 919 459 921 459 922 459 924 459 926 459 927 459 929 459 931 459 933 459" opacity="1"/><polygon fill="#1F78B4" points="164 433 166 435 168 436 170 437 171 439 173 441 175 442 176 444 178 446 180 448 181 449 183 451 185 453 187 454 188 455 190 456 192 457 193 458 195 458 197 458 198 458 200 458 202 457 203 457 205 456 207 455 209 454 210 453 212 452 214 451 215 450 217 449 219 448 220 447 222 446 224 445 226 445 227 444 229 444 231 444 232 444 234 444 236 445 237 445 239 446 241 446 242 447 244 447 246 448 248 448 249 448 251 448 253 448 254 447 256 446 258 444 259 442 261 439 263 435 265 431 266 426 268 420 270 413 271 406 273 397 275 388 276 378 278 368 280 356 281 344 283 332 285 319 287 306 288 293 290 280 292 268 293 255 295 244 297 233 298 223 300 214 302 207 304 200 305 195 307 192 309 190 310 189 312 189 314 191 315 194 317 199 319 204 320 210 322 216 324 223 326 231 327 238 329 246 331 253 332 260 334 267 336 274 337 280 339 285 341 290 343 294 344 298 346 301 348 304 349 306 351 308 353 309 354 309 356 309 358 309 359 308 361 306 363 304 365 302 366 299 368 295 370 291 371 287 373 282 375 276 376 270 378 264 380 257 381 250 383 242 385 235 387 226 388 218 390 209 392 200 393 192 395 183 397 174 398 165 400 157 402 148 404 140 405 133 407 125 409 119 410 112 412 107 414 102 415 98 417 95 419 92 420 91 422 90 424 90 426 92 427 94 429 97 431 101 432 107 434 113 436 120 437 127 439 136 441 145 443 155 444 166 446 177 448 188 449 200 451 212 453 224 454 236 456 248 458 261 459 273 461 284 463 296 465 307 466 317 468 327 470 337 471 345 473 354 475 361 476 368 478 373 480 378 482 383 483 386 485 389 487 391 488 392 490 392 492 392 493 391 495 390 497 389 498 387 500 384 502 382 504 379 505 377 507 374 509 371 510 369 512 367 514 365 515 364 517 363 519 362 521 362 522 362 524 362 526 363 527 364 529 366 531 368 532 370 534 372 536 374 537 377 539 379 541 381 543 384 544 386 546 388 548 390 549 391 551 392 553 393 554 394 556 394 558 394 560 393 561 393 563 392 565 390 566 389 568 387 570 385 571 382 573 380 575 378 576 375 578 373 580 370 582 368 583 366 585 363 587 361 588 359 590 357 592 355 593 354 595 352 597 350 599 349 600 348 602 347 604 346 605 345 607 344 609 343 610 343 612 342 614 342 615 341 617 341 619 341 621 340 622 340 624 340 626 341 627 341 629 341 631 341 632 342 634 342 636 343 638 344 639 344 641 345 643 346 644 346 646 347 648 348 649 349 651 349 653 350 654 351 656 351 658 352 660 352 661 353 663 353 665 353 666 354 668 354 670 354 671 354 673 355 675 355 676 355 678 355 680 356 682 356 683 356 685 357 687 357 688 358 690 358 692 359 693 360 695 360 697 361 699 362 700 362 702 363 704 364 705 364 707 365 709 365 710 366 712 366 714 366 715 367 717 367 719 367 721 367 722 367 724 367 726 367 727 366 729 366 731 366 732 365 734 364 736 364 738 363 739 362 741 361 743 359 744 358 746 356 748 355 749 353 751 351 753 349 754 347 756 345 758 343 760 340 761 338 763 335 765 332 766 329 768 326 770 323 771 319 773 316 775 312 777 309 778 305 780 302 782 298 783 295 785 292 787 289 788 286 790 283 792 281 793 279 795 277 797 276 799 275 800 275 802 275 804 276 805 278 807 280 809 282 810 285 812 289 814 293 816 298 817 303 819 309 821 315 822 321 824 328 826 335 827 342 829 349 831 356 832 363 834 370 836 376 838 383 839 389 841 395 843 401 844 406 846 411 848 416 849 420 851 424 853 427 853 473 164 473" opacity=".25"/><polyline fill="none" stroke="#1F78B4" stroke-width="3" points="446 473 446 180" opacity="1"/><text x="798" y="68" fill="#000" dy=".76em" font-family="sans-serif" font-size="9.677" opacity="1" text-anchor="start">Bootstrap distribution</text><text x="798" y="83" fill="#000" dy=".76em" font-family="sans-serif" font-size="9.677" opacity="1" text-anchor="start">Confidence interval</text><text x="798" y="98" fill="#000" dy=".76em" font-family="sans-serif" font-size="9.677" opacity="1" text-anchor="start">Point estimate</text><polyline fill="none" stroke="#1F78B4" stroke-width="1" points="768 73 788 73" opacity="1"/><rect width="20" height="10" x="768" y="83" fill="#1F78B4" stroke="none" opacity=".25"/><polyline fill="none" stroke="#1F78B4" stroke-width="1" points="768 103 788 103" opacity="1"/></svg>