<svg xmlns="http://www.w3.org/2000/svg" width="960" height="540"><text x="480" y="32" fill="#000" dy=".76em" font-family="sans-serif" font-size="16.129" opacity="1" text-anchor="middle">bench_group/threads_04/262144</text><text x="27" y="263" fill="#000" dy=".76em" font-family="sans-serif" font-size="9.677" opacity="1" text-anchor="middle" transform="rotate(270, 27, 263)">Total sample time (ms)</text><text x="510" y="513" fill="#000" dy="-.5ex" font-family="sans-serif" font-size="9.677" opacity="1" text-anchor="middle">Iterations (x 10^3)</text><line x1="209" x2="209" y1="472" y2="52" stroke="#000" stroke-width="1" opacity=".2"/><line x1="341" x2="341" y1="472" y2="52" stroke="#000" stroke-width="1" opacity=".2"/><line x1="472" x2="472" y1="472" y2="52" stroke="#000" stroke-width="1" opacity=".2"/><line x1="604" x2="604" y1="472" y2="52" stroke="#000" stroke-width="1" opacity=".2"/><line x1="735" x2="735" y1="472" y2="52" stroke="#000" stroke-width="1" opacity=".2"/><line x1="867" x2="867" y1="472" y2="52" stroke="#000" stroke-width="1" opacity=".2"/><line x1="87" x2="933" y1="432" y2="432" stroke="#000" stroke-width="1" opacity=".2"/><line x1="87" x2="933" y1="388" y2="388" stroke="#000" stroke-width="1" opacity=".2"/><line x1="87" x2="933" y1="344" y2="344" stroke="#000" stroke-width="1" opacity=".2"/><line x1="87" x2="933" y1="300" y2="300" stroke="#000" stroke-width="1" opacity=".2"/><line x1="87" x2="933" y1="256" y2="256" stroke="#000" stroke-width="1" opacity=".2"/><line x1="87" x2="933" y1="212" y2="212" stroke="#000" stroke-width="1" opacity=".2"/><line x1="87" x2="933" y1="168" y2="168" stroke="#000" stroke-width="1" opacity=".2"/><line x1="87" x2="933" y1="124" y2="124" stroke="#000" stroke-width="1" opacity=".2"/><line x1="87" x2="933" y1="80" y2="80" stroke="#000" stroke-width="1" opacity=".2"/><polyline fill="none" stroke="#000" stroke-width="1" points="86 53 86 473" opacity="1"/><text x="77" y="432" fill="#000" dy=".5ex" font-family="sans-serif" font-size="9.677" opacity="1" text-anchor="end">10.0</text><polyline fill="none" stroke="#000" stroke-width="1" points="81 432 86 432" opacity="1"/><text x="77" y="388" fill="#000" dy=".5ex" font-family="sans-serif" font-size="9.677" opacity="1" text-anchor="end">20.0</text><polyline fill="none" stroke="#000" stroke-width="1" points="81 388 86 388" opacity="1"/><text x="77" y="344" fill="#000" dy=".5ex" font-family="sans-serif" font-size="9.677" opacity="1" text-anchor="end">30.0</text><polyline fill="none" stroke="#000" stroke-width="1" points="81 344 86 344" opacity="1"/><text x="77" y="300" fill="#000" dy=".5ex" font-family="sans-serif" font-size="9.677" opacity="1" text-anchor="end">40.0</text><polyline fill="none" stroke="#000" stroke-width="1" points="81 300 86 300" opacity="1"/><text x="77" y="256" fill="#000" dy=".5ex" font-family="sans-serif" font-size="9.677" opacity="1" text-anchor="end">50.0</text><polyline fill="none" stroke="#000" stroke-width="1" points="81 256 86 256" opacity="1"/><text x="77" y="212" fill="#000" dy=".5ex" font-family="sans-serif" font-size="9.677" opacity="1" text-anchor="end">60.0</text><polyline fill="none" stroke="#000" stroke-width="1" points="81 212 86 212" opacity="1"/><text x="77" y="168" fill="#000" dy=".5ex" font-family="sans-serif" font-size="9.677" opacity="1" text-anchor="end">70.0</text><polyline fill="none" stroke="#000" stroke-width="1" points="81 168 86 168" opacity="1"/><text x="77" y="124" fill="#000" dy=".5ex" font-family="sans-serif" font-size="9.677" opacity="1" text-anchor="end">80.0</text><polyline fill="none" stroke="#000" stroke-width="1" points="81 124 86 124" opacity="1"/><text x="77" y="80" fill="#000" dy=".5ex" font-family="sans-serif" font-size="9.677" opacity="1" text-anchor="end">90.0</text><polyline fill="none" stroke="#000" stroke-width="1" points="81 80 86 80" opacity="1"/><polyline fill="none" stroke="#000" stroke-width="1" points="87 473 933 473" opacity="1"/><text x="209" y="483" fill="#000" dy=".76em" font-family="sans-serif" font-size="9.677" opacity="1" text-anchor="middle">1</text><polyline fill="none" stroke="#000" stroke-width="1" points="209 473 209 478" opacity="1"/><text x="341" y="483" fill="#000" dy=".76em" font-family="sans-serif" font-size="9.677" opacity="1" text-anchor="middle">2</text><polyline fill="none" stroke="#000" stroke-width="1" points="341 473 341 478" opacity="1"/><text x="472" y="483" fill="#000" dy=".76em" font-family="sans-serif" font-size="9.677" opacity="1" text-anchor="middle">3</text><polyline fill="none" stroke="#000" stroke-width="1" points="472 473 472 478" opacity="1"/><text x="604" y="483" fill="#000" dy=".76em" font-family="sans-serif" font-size="9.677" opacity="1" text-anchor="middle">4</text><polyline fill="none" stroke="#000" stroke-width="1" points="604 473 604 478" opacity="1"/><text x="735" y="483" fill="#000" dy=".76em" font-family="sans-serif" font-size="9.677" opacity="1" text-anchor="middle">5</text><polyline fill="none" stroke="#000" stroke-width="1" points="735 473 735 478" opacity="1"/><text x="867" y="483" fill="#000" dy=".76em" font-family="sans-serif" font-size="9.677" opacity="1" text-anchor="middle">6</text><polyline fill="none" stroke="#000" stroke-width="1" points="867 473 867 478" opacity="1"/><circle cx="87" cy="472" r="3" fill="#1F78B4" stroke="none" opacity="1"/><circle cx="95" cy="468" r="3" fill="#1F78B4" stroke="none" opacity="1"/><circle cx="104" cy="464" r="3" fill="#1F78B4" stroke="none" opacity="1"/><circle cx="112" cy="460" r="3" fill="#1F78B4" stroke="none" opacity="1"/><circle cx="121" cy="455" r="3" fill="#1F78B4" stroke="none" opacity="1"/><circle cx="129" cy="452" r="3" fill="#1F78B4" stroke="none" opacity="1"/><circle cx="138" cy="448" r="3" fill="#1F78B4" stroke="none" opacity="1"/><circle cx="146" cy="444" r="3" fill="#1F78B4" stroke="none" opacity="1"/><circle cx="155" cy="440" r="3" fill="#1F78B4" stroke="none" opacity="1"/><circle cx="163" cy="435" r="3" fill="#1F78B4" stroke="none" opacity="1"/><circle cx="172" cy="432" r="3" fill="#1F78B4" stroke="none" opacity="1"/><circle cx="181" cy="428" r="3" fill="#1F78B4" stroke="none" opacity="1"/><circle cx="189" cy="423" r="3" fill="#1F78B4" stroke="none" opacity="1"/><circle cx="198" cy="420" r="3" fill="#1F78B4" stroke="none" opacity="1"/><circle cx="206" cy="416" r="3" fill="#1F78B4" stroke="none" opacity="1"/><circle cx="215" cy="412" r="3" fill="#1F78B4" stroke="none" opacity="1"/><circle cx="223" cy="408" r="3" fill="#1F78B4" stroke="none" opacity="1"/><circle cx="232" cy="405" r="3" fill="#1F78B4" stroke="none" opacity="1"/><circle cx="240" cy="401" r="3" fill="#1F78B4" stroke="none" opacity="1"/><circle cx="249" cy="396" r="3" fill="#1F78B4" stroke="none" opacity="1"/><circle cx="257" cy="392" r="3" fill="#1F78B4" stroke="none" opacity="1"/><circle cx="266" cy="388" r="3" fill="#1F78B4" stroke="none" opacity="1"/><circle cx="275" cy="385" r="3" fill="#1F78B4" stroke="none" opacity="1"/><circle cx="283" cy="381" r="3" fill="#1F78B4" stroke="none" opacity="1"/><circle cx="292" cy="376" r="3" fill="#1F78B4" stroke="none" opacity="1"/><circle cx="300" cy="373" r="3" fill="#1F78B4" stroke="none" opacity="1"/><circle cx="309" cy="369" r="3" fill="#1F78B4" stroke="none" opacity="1"/><circle cx="317" cy="365" r="3" fill="#1F78B4" stroke="none" opacity="1"/><circle cx="326" cy="361" r="3" fill="#1F78B4" stroke="none" opacity="1"/><circle cx="334" cy="341" r="3" fill="#1F78B4" stroke="none" opacity="1"/><circle cx="343" cy="353" r="3" fill="#1F78B4" stroke="none" opacity="1"/><circle cx="351" cy="350" r="3" fill="#1F78B4" stroke="none" opacity="1"/><circle cx="360" cy="346" r="3" fill="#1F78B4" stroke="none" opacity="1"/><circle cx="369" cy="342" r="3" fill="#1F78B4" stroke="none" opacity="1"/><circle cx="377" cy="337" r="3" fill="#1F78B4" stroke="none" opacity="1"/><circle cx="386" cy="333" r="3" fill="#1F78B4" stroke="none" opacity="1"/><circle cx="394" cy="329" r="3" fill="#1F78B4" stroke="none" opacity="1"/><circle cx="403" cy="325" r="3" fill="#1F78B4" stroke="none" opacity="1"/><circle cx="411" cy="322" r="3" fill="#1F78B4" stroke="none" opacity="1"/><circle cx="420" cy="317" r="3" fill="#1F78B4" stroke="none" opacity="1"/><circle cx="428" cy="314" r="3" fill="#1F78B4" stroke="none" opacity="1"/><circle cx="437" cy="308" r="3" fill="#1F78B4" stroke="none" opacity="1"/><circle cx="445" cy="306" r="3" fill="#1F78B4" stroke="none" opacity="1"/><circle cx="454" cy="302" r="3" fill="#1F78B4" stroke="none" opacity="1"/><circle cx="463" cy="299" r="3" fill="#1F78B4" stroke="none" opacity="1"/><circle cx="471" cy="294" r="3" fill="#1F78B4" stroke="none" opacity="1"/><circle cx="480" cy="270" r="3" fill="#1F78B4" stroke="none" opacity="1"/><circle cx="488" cy="286" r="3" fill="#1F78B4" stroke="none" opacity="1"/><circle cx="497" cy="282" r="3" fill="#1F78B4" stroke="none" opacity="1"/><circle cx="505" cy="278" r="3" fill="#1F78B4" stroke="none" opacity="1"/><circle cx="514" cy="274" r="3" fill="#1F78B4" stroke="none" opacity="1"/><circle cx="522" cy="271" r="3" fill="#1F78B4" stroke="none" opacity="1"/><circle cx="531" cy="266" r="3" fill="#1F78B4" stroke="none" opacity="1"/><circle cx="539" cy="261" r="3" fill="#1F78B4" stroke="none" opacity="1"/><circle cx="548" cy="259" r="3" fill="#1F78B4" stroke="none" opacity="1"/><circle cx="557" cy="255" r="3" fill="#1F78B4" stroke="none" opacity="1"/><circle cx="565" cy="251" r="3" fill="#1F78B4" stroke="none" opacity="1"/><circle cx="574" cy="247" r="3" fill="#1F78B4" stroke="none" opacity="1"/><circle cx="582" cy="242" r="3" fill="#1F78B4" stroke="none" opacity="1"/><circle cx="591" cy="239" r="3" fill="#1F78B4" stroke="none" opacity="1"/><circle cx="599" cy="235" r="3" fill="#1F78B4" stroke="none" opacity="1"/><circle cx="608" cy="230" r="3" fill="#1F78B4" stroke="none" opacity="1"/><circle cx="616" cy="226" r="3" fill="#1F78B4" stroke="none" opacity="1"/><circle cx="625" cy="223" r="3" fill="#1F78B4" stroke="none" opacity="1"/><circle cx="633" cy="187" r="3" fill="#1F78B4" stroke="none" opacity="1"/><circle cx="642" cy="214" r="3" fill="#1F78B4" stroke="none" opacity="1"/><circle cx="651" cy="210" r="3" fill="#1F78B4" stroke="none" opacity="1"/><circle cx="659" cy="207" r="3" fill="#1F78B4" stroke="none" opacity="1"/><circle cx="668" cy="205" r="3" fill="#1F78B4" stroke="none" opacity="1"/><circle cx="676" cy="199" r="3" fill="#1F78B4" stroke="none" opacity="1"/><circle cx="685" cy="195" r="3" fill="#1F78B4" stroke="none" opacity="1"/><circle cx="693" cy="191" r="3" fill="#1F78B4" stroke="none" opacity="1"/><circle cx="702" cy="186" r="3" fill="#1F78B4" stroke="none" opacity="1"/><circle cx="710" cy="175" r="3" fill="#1F78B4" stroke="none" opacity="1"/><circle cx="719" cy="179" r="3" fill="#1F78B4" stroke="none" opacity="1"/><circle cx="727" cy="175" r="3" fill="#1F78B4" stroke="none" opacity="1"/><circle cx="736" cy="171" r="3" fill="#1F78B4" stroke="none" opacity="1"/><circle cx="745" cy="167" r="3" fill="#1F78B4" stroke="none" opacity="1"/><circle cx="753" cy="164" r="3" fill="#1F78B4" stroke="none" opacity="1"/><circle cx="762" cy="160" r="3" fill="#1F78B4" stroke="none" opacity="1"/><circle cx="770" cy="155" r="3" fill="#1F78B4" stroke="none" opacity="1"/><circle cx="779" cy="152" r="3" fill="#1F78B4" stroke="none" opacity="1"/><circle cx="787" cy="149" r="3" fill="#1F78B4" stroke="none" opacity="1"/><circle cx="796" cy="143" r="3" fill="#1F78B4" stroke="none" opacity="1"/><circle cx="804" cy="142" r="3" fill="#1F78B4" stroke="none" opacity="1"/><circle cx="813" cy="89" r="3" fill="#1F78B4" stroke="none" opacity="1"/><circle cx="821" cy="131" r="3" fill="#1F78B4" stroke="none" opacity="1"/><circle cx="830" cy="127" r="3" fill="#1F78B4" stroke="none" opacity="1"/><circle cx="839" cy="124" r="3" fill="#1F78B4" stroke="none" opacity="1"/><circle cx="847" cy="120" r="3" fill="#1F78B4" stroke="none" opacity="1"/><circle cx="856" cy="117" r="3" fill="#1F78B4" stroke="none" opacity="1"/><circle cx="864" cy="112" r="3" fill="#1F78B4" stroke="none" opacity="1"/><circle cx="873" cy="83" r="3" fill="#1F78B4" stroke="none" opacity="1"/><circle cx="881" cy="105" r="3" fill="#1F78B4" stroke="none" opacity="1"/><circle cx="890" cy="100" r="3" fill="#1F78B4" stroke="none" opacity="1"/><circle cx="898" cy="96" r="3" fill="#1F78B4" stroke="none" opacity="1"/><circle cx="907" cy="92" r="3" fill="#1F78B4" stroke="none" opacity="1"/><circle cx="915" cy="89" r="3" fill="#1F78B4" stroke="none" opacity="1"/><circle cx="924" cy="84" r="3" fill="#1F78B4" stroke="none" opacity="1"/><circle cx="933" cy="53" r="3" fill="#1F78B4" stroke="none" opacity="1"/><polyline fill="none" stroke="#1F78B4" stroke-width="1" points="87 473 933 77" opacity="1"/><polygon fill="#1F78B4" points="87 473 933 79 933 73" opacity=".25"/><text x="132" y="68" fill="#000" dy=".76em" font-family="sans-serif" font-size="9.677" opacity="1" text-anchor="start">Sample</text><text x="132" y="83" fill="#000" dy=".76em" font-family="sans-serif" font-size="9.677" opacity="1" text-anchor="start">Linear regression</text><text x="132" y="98" fill="#000" dy=".76em" font-family="sans-serif" font-size="9.677" opacity="1" text-anchor="start">Confidence interval</text><circle cx="112" cy="73" r="3" fill="#1F78B4" stroke="none" opacity="1"/><polyline fill="none" stroke="#1F78B4" stroke-width="2" points="102 88 122 88" opacity="1"/><rect width="20" height="10" x="102" y="98" fill="#1F78B4" stroke="none" opacity=".25"/></svg>