<svg xmlns="http://www.w3.org/2000/svg" width="450" height="300"><text x="15" y="130" fill="#000" dy=".76em" font-family="sans-serif" font-size="9.677" opacity="1" text-anchor="middle" transform="rotate(270, 15, 130)">Total sample time (ms)</text><text x="255" y="285" fill="#000" dy="-.5ex" font-family="sans-serif" font-size="9.677" opacity="1" text-anchor="middle">Iterations (x 10^3)</text><line x1="119" x2="119" y1="244" y2="14" stroke="#000" stroke-width="1" opacity=".2"/><line x1="167" x2="167" y1="244" y2="14" stroke="#000" stroke-width="1" opacity=".2"/><line x1="214" x2="214" y1="244" y2="14" stroke="#000" stroke-width="1" opacity=".2"/><line x1="262" x2="262" y1="244" y2="14" stroke="#000" stroke-width="1" opacity=".2"/><line x1="310" x2="310" y1="244" y2="14" stroke="#000" stroke-width="1" opacity=".2"/><line x1="358" x2="358" y1="244" y2="14" stroke="#000" stroke-width="1" opacity=".2"/><line x1="406" x2="406" y1="244" y2="14" stroke="#000" stroke-width="1" opacity=".2"/><line x1="75" x2="435" y1="221" y2="221" stroke="#000" stroke-width="1" opacity=".2"/><line x1="75" x2="435" y1="197" y2="197" stroke="#000" stroke-width="1" opacity=".2"/><line x1="75" x2="435" y1="173" y2="173" stroke="#000" stroke-width="1" opacity=".2"/><line x1="75" x2="435" y1="148" y2="148" stroke="#000" stroke-width="1" opacity=".2"/><line x1="75" x2="435" y1="124" y2="124" stroke="#000" stroke-width="1" opacity=".2"/><line x1="75" x2="435" y1="100" y2="100" stroke="#000" stroke-width="1" opacity=".2"/><line x1="75" x2="435" y1="75" y2="75" stroke="#000" stroke-width="1" opacity=".2"/><line x1="75" x2="435" y1="51" y2="51" stroke="#000" stroke-width="1" opacity=".2"/><line x1="75" x2="435" y1="27" y2="27" stroke="#000" stroke-width="1" opacity=".2"/><polyline fill="none" stroke="#000" stroke-width="1" points="74 15 74 245" opacity="1"/><text x="65" y="221" fill="#000" dy=".5ex" font-family="sans-serif" font-size="9.677" opacity="1" text-anchor="end">10.0</text><polyline fill="none" stroke="#000" stroke-width="1" points="69 221 74 221" opacity="1"/><text x="65" y="197" fill="#000" dy=".5ex" font-family="sans-serif" font-size="9.677" opacity="1" text-anchor="end">20.0</text><polyline fill="none" stroke="#000" stroke-width="1" points="69 197 74 197" opacity="1"/><text x="65" y="173" fill="#000" dy=".5ex" font-family="sans-serif" font-size="9.677" opacity="1" text-anchor="end">30.0</text><polyline fill="none" stroke="#000" stroke-width="1" points="69 173 74 173" opacity="1"/><text x="65" y="148" fill="#000" dy=".5ex" font-family="sans-serif" font-size="9.677" opacity="1" text-anchor="end">40.0</text><polyline fill="none" stroke="#000" stroke-width="1" points="69 148 74 148" opacity="1"/><text x="65" y="124" fill="#000" dy=".5ex" font-family="sans-serif" font-size="9.677" opacity="1" text-anchor="end">50.0</text><polyline fill="none" stroke="#000" stroke-width="1" points="69 124 74 124" opacity="1"/><text x="65" y="100" fill="#000" dy=".5ex" font-family="sans-serif" font-size="9.677" opacity="1" text-anchor="end">60.0</text><polyline fill="none" stroke="#000" stroke-width="1" points="69 100 74 100" opacity="1"/><text x="65" y="75" fill="#000" dy=".5ex" font-family="sans-serif" font-size="9.677" opacity="1" text-anchor="end">70.0</text><polyline fill="none" stroke="#000" stroke-width="1" points="69 75 74 75" opacity="1"/><text x="65" y="51" fill="#000" dy=".5ex" font-family="sans-serif" font-size="9.677" opacity="1" text-anchor="end">80.0</text><polyline fill="none" stroke="#000" stroke-width="1" points="69 51 74 51" opacity="1"/><text x="65" y="27" fill="#000" dy=".5ex" font-family="sans-serif" font-size="9.677" opacity="1" text-anchor="end">90.0</text><polyline fill="none" stroke="#000" stroke-width="1" points="69 27 74 27" opacity="1"/><polyline fill="none" stroke="#000" stroke-width="1" points="75 245 435 245" opacity="1"/><text x="119" y="255" fill="#000" dy=".76em" font-family="sans-serif" font-size="9.677" opacity="1" text-anchor="middle">0.5</text><polyline fill="none" stroke="#000" stroke-width="1" points="119 245 119 250" opacity="1"/><text x="167" y="255" fill="#000" dy=".76em" font-family="sans-serif" font-size="9.677" opacity="1" text-anchor="middle">1</text><polyline fill="none" stroke="#000" stroke-width="1" points="167 245 167 250" opacity="1"/><text x="214" y="255" fill="#000" dy=".76em" font-family="sans-serif" font-size="9.677" opacity="1" text-anchor="middle">1.5</text><polyline fill="none" stroke="#000" stroke-width="1" points="214 245 214 250" opacity="1"/><text x="262" y="255" fill="#000" dy=".76em" font-family="sans-serif" font-size="9.677" opacity="1" text-anchor="middle">2</text><polyline fill="none" stroke="#000" stroke-width="1" points="262 245 262 250" opacity="1"/><text x="310" y="255" fill="#000" dy=".76em" font-family="sans-serif" font-size="9.677" opacity="1" text-anchor="middle">2.5</text><polyline fill="none" stroke="#000" stroke-width="1" points="310 245 310 250" opacity="1"/><text x="358" y="255" fill="#000" dy=".76em" font-family="sans-serif" font-size="9.677" opacity="1" text-anchor="middle">3</text><polyline fill="none" stroke="#000" stroke-width="1" points="358 245 358 250" opacity="1"/><text x="406" y="255" fill="#000" dy=".76em" font-family="sans-serif" font-size="9.677" opacity="1" text-anchor="middle">3.5</text><polyline fill="none" stroke="#000" stroke-width="1" points="406 245 406 250" opacity="1"/><circle cx="75" cy="244" r="3" fill="#1F78B4" stroke="none" opacity="1"/><circle cx="78" cy="241" r="3" fill="#1F78B4" stroke="none" opacity="1"/><circle cx="82" cy="239" r="3" fill="#1F78B4" stroke="none" opacity="1"/><circle cx="85" cy="237" r="3" fill="#1F78B4" stroke="none" opacity="1"/><circle cx="89" cy="235" r="3" fill="#1F78B4" stroke="none" opacity="1"/><circle cx="93" cy="233" r="3" fill="#1F78B4" stroke="none" opacity="1"/><circle cx="96" cy="230" r="3" fill="#1F78B4" stroke="none" opacity="1"/><circle cx="100" cy="228" r="3" fill="#1F78B4" stroke="none" opacity="1"/><circle cx="104" cy="226" r="3" fill="#1F78B4" stroke="none" opacity="1"/><circle cx="107" cy="223" r="3" fill="#1F78B4" stroke="none" opacity="1"/><circle cx="111" cy="222" r="3" fill="#1F78B4" stroke="none" opacity="1"/><circle cx="115" cy="220" r="3" fill="#1F78B4" stroke="none" opacity="1"/><circle cx="118" cy="218" r="3" fill="#1F78B4" stroke="none" opacity="1"/><circle cx="122" cy="216" r="3" fill="#1F78B4" stroke="none" opacity="1"/><circle cx="125" cy="213" r="3" fill="#1F78B4" stroke="none" opacity="1"/><circle cx="129" cy="211" r="3" fill="#1F78B4" stroke="none" opacity="1"/><circle cx="133" cy="209" r="3" fill="#1F78B4" stroke="none" opacity="1"/><circle cx="136" cy="207" r="3" fill="#1F78B4" stroke="none" opacity="1"/><circle cx="140" cy="205" r="3" fill="#1F78B4" stroke="none" opacity="1"/><circle cx="144" cy="203" r="3" fill="#1F78B4" stroke="none" opacity="1"/><circle cx="147" cy="200" r="3" fill="#1F78B4" stroke="none" opacity="1"/><circle cx="151" cy="198" r="3" fill="#1F78B4" stroke="none" opacity="1"/><circle cx="155" cy="195" r="3" fill="#1F78B4" stroke="none" opacity="1"/><circle cx="158" cy="194" r="3" fill="#1F78B4" stroke="none" opacity="1"/><circle cx="162" cy="192" r="3" fill="#1F78B4" stroke="none" opacity="1"/><circle cx="165" cy="190" r="3" fill="#1F78B4" stroke="none" opacity="1"/><circle cx="169" cy="187" r="3" fill="#1F78B4" stroke="none" opacity="1"/><circle cx="173" cy="185" r="3" fill="#1F78B4" stroke="none" opacity="1"/><circle cx="176" cy="177" r="3" fill="#1F78B4" stroke="none" opacity="1"/><circle cx="180" cy="182" r="3" fill="#1F78B4" stroke="none" opacity="1"/><circle cx="184" cy="180" r="3" fill="#1F78B4" stroke="none" opacity="1"/><circle cx="187" cy="177" r="3" fill="#1F78B4" stroke="none" opacity="1"/><circle cx="191" cy="176" r="3" fill="#1F78B4" stroke="none" opacity="1"/><circle cx="195" cy="174" r="3" fill="#1F78B4" stroke="none" opacity="1"/><circle cx="198" cy="172" r="3" fill="#1F78B4" stroke="none" opacity="1"/><circle cx="202" cy="170" r="3" fill="#1F78B4" stroke="none" opacity="1"/><circle cx="205" cy="167" r="3" fill="#1F78B4" stroke="none" opacity="1"/><circle cx="209" cy="164" r="3" fill="#1F78B4" stroke="none" opacity="1"/><circle cx="213" cy="161" r="3" fill="#1F78B4" stroke="none" opacity="1"/><circle cx="216" cy="160" r="3" fill="#1F78B4" stroke="none" opacity="1"/><circle cx="220" cy="159" r="3" fill="#1F78B4" stroke="none" opacity="1"/><circle cx="224" cy="155" r="3" fill="#1F78B4" stroke="none" opacity="1"/><circle cx="227" cy="155" r="3" fill="#1F78B4" stroke="none" opacity="1"/><circle cx="231" cy="152" r="3" fill="#1F78B4" stroke="none" opacity="1"/><circle cx="235" cy="150" r="3" fill="#1F78B4" stroke="none" opacity="1"/><circle cx="238" cy="147" r="3" fill="#1F78B4" stroke="none" opacity="1"/><circle cx="242" cy="146" r="3" fill="#1F78B4" stroke="none" opacity="1"/><circle cx="245" cy="143" r="3" fill="#1F78B4" stroke="none" opacity="1"/><circle cx="249" cy="143" r="3" fill="#1F78B4" stroke="none" opacity="1"/><circle cx="253" cy="138" r="3" fill="#1F78B4" stroke="none" opacity="1"/><circle cx="256" cy="137" r="3" fill="#1F78B4" stroke="none" opacity="1"/><circle cx="260" cy="131" r="3" fill="#1F78B4" stroke="none" opacity="1"/><circle cx="264" cy="133" r="3" fill="#1F78B4" stroke="none" opacity="1"/><circle cx="267" cy="131" r="3" fill="#1F78B4" stroke="none" opacity="1"/><circle cx="271" cy="129" r="3" fill="#1F78B4" stroke="none" opacity="1"/><circle cx="275" cy="126" r="3" fill="#1F78B4" stroke="none" opacity="1"/><circle cx="278" cy="124" r="3" fill="#1F78B4" stroke="none" opacity="1"/><circle cx="282" cy="111" r="3" fill="#1F78B4" stroke="none" opacity="1"/><circle cx="285" cy="120" r="3" fill="#1F78B4" stroke="none" opacity="1"/><circle cx="289" cy="119" r="3" fill="#1F78B4" stroke="none" opacity="1"/><circle cx="293" cy="117" r="3" fill="#1F78B4" stroke="none" opacity="1"/><circle cx="296" cy="114" r="3" fill="#1F78B4" stroke="none" opacity="1"/><circle cx="300" cy="112" r="3" fill="#1F78B4" stroke="none" opacity="1"/><circle cx="304" cy="109" r="3" fill="#1F78B4" stroke="none" opacity="1"/><circle cx="307" cy="105" r="3" fill="#1F78B4" stroke="none" opacity="1"/><circle cx="311" cy="106" r="3" fill="#1F78B4" stroke="none" opacity="1"/><circle cx="315" cy="100" r="3" fill="#1F78B4" stroke="none" opacity="1"/><circle cx="318" cy="101" r="3" fill="#1F78B4" stroke="none" opacity="1"/><circle cx="322" cy="75" r="3" fill="#1F78B4" stroke="none" opacity="1"/><circle cx="325" cy="97" r="3" fill="#1F78B4" stroke="none" opacity="1"/><circle cx="329" cy="96" r="3" fill="#1F78B4" stroke="none" opacity="1"/><circle cx="333" cy="93" r="3" fill="#1F78B4" stroke="none" opacity="1"/><circle cx="336" cy="92" r="3" fill="#1F78B4" stroke="none" opacity="1"/><circle cx="340" cy="85" r="3" fill="#1F78B4" stroke="none" opacity="1"/><circle cx="344" cy="86" r="3" fill="#1F78B4" stroke="none" opacity="1"/><circle cx="347" cy="82" r="3" fill="#1F78B4" stroke="none" opacity="1"/><circle cx="351" cy="79" r="3" fill="#1F78B4" stroke="none" opacity="1"/><circle cx="355" cy="53" r="3" fill="#1F78B4" stroke="none" opacity="1"/><circle cx="358" cy="77" r="3" fill="#1F78B4" stroke="none" opacity="1"/><circle cx="362" cy="73" r="3" fill="#1F78B4" stroke="none" opacity="1"/><circle cx="365" cy="75" r="3" fill="#1F78B4" stroke="none" opacity="1"/><circle cx="369" cy="71" r="3" fill="#1F78B4" stroke="none" opacity="1"/><circle cx="373" cy="70" r="3" fill="#1F78B4" stroke="none" opacity="1"/><circle cx="376" cy="68" r="3" fill="#1F78B4" stroke="none" opacity="1"/><circle cx="380" cy="65" r="3" fill="#1F78B4" stroke="none" opacity="1"/><circle cx="384" cy="63" r="3" fill="#1F78B4" stroke="none" opacity="1"/><circle cx="387" cy="61" r="3" fill="#1F78B4" stroke="none" opacity="1"/><circle cx="391" cy="58" r="3" fill="#1F78B4" stroke="none" opacity="1"/><circle cx="395" cy="57" r="3" fill="#1F78B4" stroke="none" opacity="1"/><circle cx="398" cy="55" r="3" fill="#1F78B4" stroke="none" opacity="1"/><circle cx="402" cy="53" r="3" fill="#1F78B4" stroke="none" opacity="1"/><circle cx="405" cy="50" r="3" fill="#1F78B4" stroke="none" opacity="1"/><circle cx="409" cy="48" r="3" fill="#1F78B4" stroke="none" opacity="1"/><circle cx="413" cy="42" r="3" fill="#1F78B4" stroke="none" opacity="1"/><circle cx="416" cy="44" r="3" fill="#1F78B4" stroke="none" opacity="1"/><circle cx="420" cy="15" r="3" fill="#1F78B4" stroke="none" opacity="1"/><circle cx="424" cy="40" r="3" fill="#1F78B4" stroke="none" opacity="1"/><circle cx="427" cy="37" r="3" fill="#1F78B4" stroke="none" opacity="1"/><circle cx="431" cy="31" r="3" fill="#1F78B4" stroke="none" opacity="1"/><circle cx="435" cy="33" r="3" fill="#1F78B4" stroke="none" opacity="1"/><polyline fill="none" stroke="#1F78B4" stroke-width="1" points="75 245 435 30" opacity="1"/><polygon fill="#1F78B4" points="75 245 435 32 435 28" opacity=".25"/></svg>