<svg xmlns="http://www.w3.org/2000/svg" width="960" height="540"><text x="480" y="32" fill="#000" dy=".76em" font-family="sans-serif" font-size="16.129" opacity="1" text-anchor="middle">bench_group/threads_16/1048576</text><text x="27" y="263" fill="#000" dy=".76em" font-family="sans-serif" font-size="9.677" opacity="1" text-anchor="middle" transform="rotate(270, 27, 263)">Total sample time (ms)</text><text x="510" y="513" fill="#000" dy="-.5ex" font-family="sans-serif" font-size="9.677" opacity="1" text-anchor="middle">Iterations (x 10^3)</text><line x1="190" x2="190" y1="472" y2="52" stroke="#000" stroke-width="1" opacity=".2"/><line x1="303" x2="303" y1="472" y2="52" stroke="#000" stroke-width="1" opacity=".2"/><line x1="415" x2="415" y1="472" y2="52" stroke="#000" stroke-width="1" opacity=".2"/><line x1="528" x2="528" y1="472" y2="52" stroke="#000" stroke-width="1" opacity=".2"/><line x1="640" x2="640" y1="472" y2="52" stroke="#000" stroke-width="1" opacity=".2"/><line x1="753" x2="753" y1="472" y2="52" stroke="#000" stroke-width="1" opacity=".2"/><line x1="865" x2="865" y1="472" y2="52" stroke="#000" stroke-width="1" opacity=".2"/><line x1="87" x2="933" y1="431" y2="431" stroke="#000" stroke-width="1" opacity=".2"/><line x1="87" x2="933" y1="387" y2="387" stroke="#000" stroke-width="1" opacity=".2"/><line x1="87" x2="933" y1="342" y2="342" stroke="#000" stroke-width="1" opacity=".2"/><line x1="87" x2="933" y1="298" y2="298" stroke="#000" stroke-width="1" opacity=".2"/><line x1="87" x2="933" y1="253" y2="253" stroke="#000" stroke-width="1" opacity=".2"/><line x1="87" x2="933" y1="209" y2="209" stroke="#000" stroke-width="1" opacity=".2"/><line x1="87" x2="933" y1="164" y2="164" stroke="#000" stroke-width="1" opacity=".2"/><line x1="87" x2="933" y1="120" y2="120" stroke="#000" stroke-width="1" opacity=".2"/><line x1="87" x2="933" y1="75" y2="75" stroke="#000" stroke-width="1" opacity=".2"/><polyline fill="none" stroke="#000" stroke-width="1" points="86 53 86 473" opacity="1"/><text x="77" y="431" fill="#000" dy=".5ex" font-family="sans-serif" font-size="9.677" opacity="1" text-anchor="end">10.0</text><polyline fill="none" stroke="#000" stroke-width="1" points="81 431 86 431" opacity="1"/><text x="77" y="387" fill="#000" dy=".5ex" font-family="sans-serif" font-size="9.677" opacity="1" text-anchor="end">20.0</text><polyline fill="none" stroke="#000" stroke-width="1" points="81 387 86 387" opacity="1"/><text x="77" y="342" fill="#000" dy=".5ex" font-family="sans-serif" font-size="9.677" opacity="1" text-anchor="end">30.0</text><polyline fill="none" stroke="#000" stroke-width="1" points="81 342 86 342" opacity="1"/><text x="77" y="298" fill="#000" dy=".5ex" font-family="sans-serif" font-size="9.677" opacity="1" text-anchor="end">40.0</text><polyline fill="none" stroke="#000" stroke-width="1" points="81 298 86 298" opacity="1"/><text x="77" y="253" fill="#000" dy=".5ex" font-family="sans-serif" font-size="9.677" opacity="1" text-anchor="end">50.0</text><polyline fill="none" stroke="#000" stroke-width="1" points="81 253 86 253" opacity="1"/><text x="77" y="209" fill="#000" dy=".5ex" font-family="sans-serif" font-size="9.677" opacity="1" text-anchor="end">60.0</text><polyline fill="none" stroke="#000" stroke-width="1" points="81 209 86 209" opacity="1"/><text x="77" y="164" fill="#000" dy=".5ex" font-family="sans-serif" font-size="9.677" opacity="1" text-anchor="end">70.0</text><polyline fill="none" stroke="#000" stroke-width="1" points="81 164 86 164" opacity="1"/><text x="77" y="120" fill="#000" dy=".5ex" font-family="sans-serif" font-size="9.677" opacity="1" text-anchor="end">80.0</text><polyline fill="none" stroke="#000" stroke-width="1" points="81 120 86 120" opacity="1"/><text x="77" y="75" fill="#000" dy=".5ex" font-family="sans-serif" font-size="9.677" opacity="1" text-anchor="end">90.0</text><polyline fill="none" stroke="#000" stroke-width="1" points="81 75 86 75" opacity="1"/><polyline fill="none" stroke="#000" stroke-width="1" points="87 473 933 473" opacity="1"/><text x="190" y="483" fill="#000" dy=".76em" font-family="sans-serif" font-size="9.677" opacity="1" text-anchor="middle">0.5</text><polyline fill="none" stroke="#000" stroke-width="1" points="190 473 190 478" opacity="1"/><text x="303" y="483" fill="#000" dy=".76em" font-family="sans-serif" font-size="9.677" opacity="1" text-anchor="middle">1</text><polyline fill="none" stroke="#000" stroke-width="1" points="303 473 303 478" opacity="1"/><text x="415" y="483" fill="#000" dy=".76em" font-family="sans-serif" font-size="9.677" opacity="1" text-anchor="middle">1.5</text><polyline fill="none" stroke="#000" stroke-width="1" points="415 473 415 478" opacity="1"/><text x="528" y="483" fill="#000" dy=".76em" font-family="sans-serif" font-size="9.677" opacity="1" text-anchor="middle">2</text><polyline fill="none" stroke="#000" stroke-width="1" points="528 473 528 478" opacity="1"/><text x="640" y="483" fill="#000" dy=".76em" font-family="sans-serif" font-size="9.677" opacity="1" text-anchor="middle">2.5</text><polyline fill="none" stroke="#000" stroke-width="1" points="640 473 640 478" opacity="1"/><text x="753" y="483" fill="#000" dy=".76em" font-family="sans-serif" font-size="9.677" opacity="1" text-anchor="middle">3</text><polyline fill="none" stroke="#000" stroke-width="1" points="753 473 753 478" opacity="1"/><text x="865" y="483" fill="#000" dy=".76em" font-family="sans-serif" font-size="9.677" opacity="1" text-anchor="middle">3.5</text><polyline fill="none" stroke="#000" stroke-width="1" points="865 473 865 478" opacity="1"/><circle cx="87" cy="472" r="3" fill="#1F78B4" stroke="none" opacity="1"/><circle cx="95" cy="467" r="3" fill="#1F78B4" stroke="none" opacity="1"/><circle cx="104" cy="464" r="3" fill="#1F78B4" stroke="none" opacity="1"/><circle cx="112" cy="459" r="3" fill="#1F78B4" stroke="none" opacity="1"/><circle cx="121" cy="456" r="3" fill="#1F78B4" stroke="none" opacity="1"/><circle cx="129" cy="452" r="3" fill="#1F78B4" stroke="none" opacity="1"/><circle cx="138" cy="448" r="3" fill="#1F78B4" stroke="none" opacity="1"/><circle cx="146" cy="444" r="3" fill="#1F78B4" stroke="none" opacity="1"/><circle cx="155" cy="439" r="3" fill="#1F78B4" stroke="none" opacity="1"/><circle cx="163" cy="435" r="3" fill="#1F78B4" stroke="none" opacity="1"/><circle cx="172" cy="432" r="3" fill="#1F78B4" stroke="none" opacity="1"/><circle cx="181" cy="428" r="3" fill="#1F78B4" stroke="none" opacity="1"/><circle cx="189" cy="425" r="3" fill="#1F78B4" stroke="none" opacity="1"/><circle cx="198" cy="421" r="3" fill="#1F78B4" stroke="none" opacity="1"/><circle cx="206" cy="417" r="3" fill="#1F78B4" stroke="none" opacity="1"/><circle cx="215" cy="412" r="3" fill="#1F78B4" stroke="none" opacity="1"/><circle cx="223" cy="408" r="3" fill="#1F78B4" stroke="none" opacity="1"/><circle cx="232" cy="405" r="3" fill="#1F78B4" stroke="none" opacity="1"/><circle cx="240" cy="401" r="3" fill="#1F78B4" stroke="none" opacity="1"/><circle cx="249" cy="398" r="3" fill="#1F78B4" stroke="none" opacity="1"/><circle cx="257" cy="392" r="3" fill="#1F78B4" stroke="none" opacity="1"/><circle cx="266" cy="389" r="3" fill="#1F78B4" stroke="none" opacity="1"/><circle cx="275" cy="383" r="3" fill="#1F78B4" stroke="none" opacity="1"/><circle cx="283" cy="381" r="3" fill="#1F78B4" stroke="none" opacity="1"/><circle cx="292" cy="377" r="3" fill="#1F78B4" stroke="none" opacity="1"/><circle cx="300" cy="374" r="3" fill="#1F78B4" stroke="none" opacity="1"/><circle cx="309" cy="369" r="3" fill="#1F78B4" stroke="none" opacity="1"/><circle cx="317" cy="365" r="3" fill="#1F78B4" stroke="none" opacity="1"/><circle cx="326" cy="349" r="3" fill="#1F78B4" stroke="none" opacity="1"/><circle cx="334" cy="359" r="3" fill="#1F78B4" stroke="none" opacity="1"/><circle cx="343" cy="356" r="3" fill="#1F78B4" stroke="none" opacity="1"/><circle cx="351" cy="349" r="3" fill="#1F78B4" stroke="none" opacity="1"/><circle cx="360" cy="347" r="3" fill="#1F78B4" stroke="none" opacity="1"/><circle cx="369" cy="344" r="3" fill="#1F78B4" stroke="none" opacity="1"/><circle cx="377" cy="340" r="3" fill="#1F78B4" stroke="none" opacity="1"/><circle cx="386" cy="337" r="3" fill="#1F78B4" stroke="none" opacity="1"/><circle cx="394" cy="331" r="3" fill="#1F78B4" stroke="none" opacity="1"/><circle cx="403" cy="326" r="3" fill="#1F78B4" stroke="none" opacity="1"/><circle cx="411" cy="320" r="3" fill="#1F78B4" stroke="none" opacity="1"/><circle cx="420" cy="320" r="3" fill="#1F78B4" stroke="none" opacity="1"/><circle cx="428" cy="317" r="3" fill="#1F78B4" stroke="none" opacity="1"/><circle cx="437" cy="310" r="3" fill="#1F78B4" stroke="none" opacity="1"/><circle cx="445" cy="310" r="3" fill="#1F78B4" stroke="none" opacity="1"/><circle cx="454" cy="305" r="3" fill="#1F78B4" stroke="none" opacity="1"/><circle cx="463" cy="300" r="3" fill="#1F78B4" stroke="none" opacity="1"/><circle cx="471" cy="295" r="3" fill="#1F78B4" stroke="none" opacity="1"/><circle cx="480" cy="293" r="3" fill="#1F78B4" stroke="none" opacity="1"/><circle cx="488" cy="288" r="3" fill="#1F78B4" stroke="none" opacity="1"/><circle cx="497" cy="287" r="3" fill="#1F78B4" stroke="none" opacity="1"/><circle cx="505" cy="278" r="3" fill="#1F78B4" stroke="none" opacity="1"/><circle cx="514" cy="278" r="3" fill="#1F78B4" stroke="none" opacity="1"/><circle cx="522" cy="266" r="3" fill="#1F78B4" stroke="none" opacity="1"/><circle cx="531" cy="270" r="3" fill="#1F78B4" stroke="none" opacity="1"/><circle cx="539" cy="266" r="3" fill="#1F78B4" stroke="none" opacity="1"/><circle cx="548" cy="262" r="3" fill="#1F78B4" stroke="none" opacity="1"/><circle cx="557" cy="256" r="3" fill="#1F78B4" stroke="none" opacity="1"/><circle cx="565" cy="252" r="3" fill="#1F78B4" stroke="none" opacity="1"/><circle cx="574" cy="230" r="3" fill="#1F78B4" stroke="none" opacity="1"/><circle cx="582" cy="246" r="3" fill="#1F78B4" stroke="none" opacity="1"/><circle cx="591" cy="244" r="3" fill="#1F78B4" stroke="none" opacity="1"/><circle cx="599" cy="240" r="3" fill="#1F78B4" stroke="none" opacity="1"/><circle cx="608" cy="235" r="3" fill="#1F78B4" stroke="none" opacity="1"/><circle cx="616" cy="231" r="3" fill="#1F78B4" stroke="none" opacity="1"/><circle cx="625" cy="227" r="3" fill="#1F78B4" stroke="none" opacity="1"/><circle cx="633" cy="219" r="3" fill="#1F78B4" stroke="none" opacity="1"/><circle cx="642" cy="221" r="3" fill="#1F78B4" stroke="none" opacity="1"/><circle cx="651" cy="210" r="3" fill="#1F78B4" stroke="none" opacity="1"/><circle cx="659" cy="212" r="3" fill="#1F78B4" stroke="none" opacity="1"/><circle cx="668" cy="165" r="3" fill="#1F78B4" stroke="none" opacity="1"/><circle cx="676" cy="203" r="3" fill="#1F78B4" stroke="none" opacity="1"/><circle cx="685" cy="201" r="3" fill="#1F78B4" stroke="none" opacity="1"/><circle cx="693" cy="196" r="3" fill="#1F78B4" stroke="none" opacity="1"/><circle cx="702" cy="194" r="3" fill="#1F78B4" stroke="none" opacity="1"/><circle cx="710" cy="182" r="3" fill="#1F78B4" stroke="none" opacity="1"/><circle cx="719" cy="184" r="3" fill="#1F78B4" stroke="none" opacity="1"/><circle cx="727" cy="177" r="3" fill="#1F78B4" stroke="none" opacity="1"/><circle cx="736" cy="171" r="3" fill="#1F78B4" stroke="none" opacity="1"/><circle cx="745" cy="123" r="3" fill="#1F78B4" stroke="none" opacity="1"/><circle cx="753" cy="168" r="3" fill="#1F78B4" stroke="none" opacity="1"/><circle cx="762" cy="160" r="3" fill="#1F78B4" stroke="none" opacity="1"/><circle cx="770" cy="163" r="3" fill="#1F78B4" stroke="none" opacity="1"/><circle cx="779" cy="157" r="3" fill="#1F78B4" stroke="none" opacity="1"/><circle cx="787" cy="154" r="3" fill="#1F78B4" stroke="none" opacity="1"/><circle cx="796" cy="152" r="3" fill="#1F78B4" stroke="none" opacity="1"/><circle cx="804" cy="146" r="3" fill="#1F78B4" stroke="none" opacity="1"/><circle cx="813" cy="141" r="3" fill="#1F78B4" stroke="none" opacity="1"/><circle cx="821" cy="139" r="3" fill="#1F78B4" stroke="none" opacity="1"/><circle cx="830" cy="132" r="3" fill="#1F78B4" stroke="none" opacity="1"/><circle cx="839" cy="131" r="3" fill="#1F78B4" stroke="none" opacity="1"/><circle cx="847" cy="127" r="3" fill="#1F78B4" stroke="none" opacity="1"/><circle cx="856" cy="124" r="3" fill="#1F78B4" stroke="none" opacity="1"/><circle cx="864" cy="118" r="3" fill="#1F78B4" stroke="none" opacity="1"/><circle cx="873" cy="114" r="3" fill="#1F78B4" stroke="none" opacity="1"/><circle cx="881" cy="104" r="3" fill="#1F78B4" stroke="none" opacity="1"/><circle cx="890" cy="108" r="3" fill="#1F78B4" stroke="none" opacity="1"/><circle cx="898" cy="53" r="3" fill="#1F78B4" stroke="none" opacity="1"/><circle cx="907" cy="99" r="3" fill="#1F78B4" stroke="none" opacity="1"/><circle cx="915" cy="94" r="3" fill="#1F78B4" stroke="none" opacity="1"/><circle cx="924" cy="83" r="3" fill="#1F78B4" stroke="none" opacity="1"/><circle cx="933" cy="88" r="3" fill="#1F78B4" stroke="none" opacity="1"/><polyline fill="none" stroke="#1F78B4" stroke-width="1" points="87 473 933 82" opacity="1"/><polygon fill="#1F78B4" points="87 473 933 86 933 78" opacity=".25"/><text x="132" y="68" fill="#000" dy=".76em" font-family="sans-serif" font-size="9.677" opacity="1" text-anchor="start">Sample</text><text x="132" y="83" fill="#000" dy=".76em" font-family="sans-serif" font-size="9.677" opacity="1" text-anchor="start">Linear regression</text><text x="132" y="98" fill="#000" dy=".76em" font-family="sans-serif" font-size="9.677" opacity="1" text-anchor="start">Confidence interval</text><circle cx="112" cy="73" r="3" fill="#1F78B4" stroke="none" opacity="1"/><polyline fill="none" stroke="#1F78B4" stroke-width="2" points="102 88 122 88" opacity="1"/><rect width="20" height="10" x="102" y="98" fill="#1F78B4" stroke="none" opacity=".25"/></svg>