<svg xmlns="http://www.w3.org/2000/svg" width="960" height="540"><text x="480" y="32" fill="#000" dy=".76em" font-family="sans-serif" font-size="16.129" opacity="1" text-anchor="middle">bench_group/threads_32/131072:MAD</text><text x="27" y="263" fill="#000" dy=".76em" font-family="sans-serif" font-size="9.677" opacity="1" text-anchor="middle" transform="rotate(270, 27, 263)">Density (a.u.)</text><text x="510" y="513" fill="#000" dy="-.5ex" font-family="sans-serif" font-size="9.677" opacity="1" text-anchor="middle">Average time (us)</text><polyline fill="none" stroke="#000" stroke-width="1" points="86 53 86 473" opacity="1"/><text x="77" y="436" fill="#000" dy=".5ex" font-family="sans-serif" font-size="9.677" opacity="1" text-anchor="end">0.5</text><polyline fill="none" stroke="#000" stroke-width="1" points="81 436 86 436" opacity="1"/><text x="77" y="382" fill="#000" dy=".5ex" font-family="sans-serif" font-size="9.677" opacity="1" text-anchor="end">1</text><polyline fill="none" stroke="#000" stroke-width="1" points="81 382 86 382" opacity="1"/><text x="77" y="328" fill="#000" dy=".5ex" font-family="sans-serif" font-size="9.677" opacity="1" text-anchor="end">1.5</text><polyline fill="none" stroke="#000" stroke-width="1" points="81 328 86 328" opacity="1"/><text x="77" y="274" fill="#000" dy=".5ex" font-family="sans-serif" font-size="9.677" opacity="1" text-anchor="end">2</text><polyline fill="none" stroke="#000" stroke-width="1" points="81 274 86 274" opacity="1"/><text x="77" y="219" fill="#000" dy=".5ex" font-family="sans-serif" font-size="9.677" opacity="1" text-anchor="end">2.5</text><polyline fill="none" stroke="#000" stroke-width="1" points="81 219 86 219" opacity="1"/><text x="77" y="165" fill="#000" dy=".5ex" font-family="sans-serif" font-size="9.677" opacity="1" text-anchor="end">3</text><polyline fill="none" stroke="#000" stroke-width="1" points="81 165 86 165" opacity="1"/><text x="77" y="111" fill="#000" dy=".5ex" font-family="sans-serif" font-size="9.677" opacity="1" text-anchor="end">3.5</text><polyline fill="none" stroke="#000" stroke-width="1" points="81 111 86 111" opacity="1"/><text x="77" y="57" fill="#000" dy=".5ex" font-family="sans-serif" font-size="9.677" opacity="1" text-anchor="end">4</text><polyline fill="none" stroke="#000" stroke-width="1" points="81 57 86 57" opacity="1"/><polyline fill="none" stroke="#000" stroke-width="1" points="87 473 933 473" opacity="1"/><text x="175" y="483" fill="#000" dy=".76em" font-family="sans-serif" font-size="9.677" opacity="1" text-anchor="middle">0.6</text><polyline fill="none" stroke="#000" stroke-width="1" points="175 473 175 478" opacity="1"/><text x="319" y="483" fill="#000" dy=".76em" font-family="sans-serif" font-size="9.677" opacity="1" text-anchor="middle">0.7</text><polyline fill="none" stroke="#000" stroke-width="1" points="319 473 319 478" opacity="1"/><text x="462" y="483" fill="#000" dy=".76em" font-family="sans-serif" font-size="9.677" opacity="1" text-anchor="middle">0.8</text><polyline fill="none" stroke="#000" stroke-width="1" points="462 473 462 478" opacity="1"/><text x="606" y="483" fill="#000" dy=".76em" font-family="sans-serif" font-size="9.677" opacity="1" text-anchor="middle">0.9</text><polyline fill="none" stroke="#000" stroke-width="1" points="606 473 606 478" opacity="1"/><text x="750" y="483" fill="#000" dy=".76em" font-family="sans-serif" font-size="9.677" opacity="1" text-anchor="middle">1</text><polyline fill="none" stroke="#000" stroke-width="1" points="750 473 750 478" opacity="1"/><text x="893" y="483" fill="#000" dy=".76em" font-family="sans-serif" font-size="9.677" opacity="1" text-anchor="middle">1.1</text><polyline fill="none" stroke="#000" stroke-width="1" points="893 473 893 478" opacity="1"/><polyline fill="none" stroke="#1F78B4" stroke-width="1" points="87 471 88 470 90 470 92 469 93 468 95 468 97 467 98 466 100 466 102 465 103 464 105 463 107 462 109 461 110 460 112 459 114 458 115 457 117 456 119 454 120 453 122 452 124 451 125 449 127 448 129 446 131 445 132 444 134 442 136 441 137 439 139 438 141 436 142 435 144 433 146 432 148 430 149 428 151 427 153 425 154 424 156 422 158 420 159 418 161 417 163 415 164 413 166 412 168 410 170 408 171 407 173 405 175 404 176 402 178 401 180 399 181 398 183 396 185 395 187 394 188 392 190 391 192 390 193 389 195 387 197 386 198 385 200 383 202 382 203 381 205 379 207 377 209 376 210 374 212 372 214 370 215 367 217 365 219 362 220 359 222 356 224 353 226 349 227 346 229 342 231 338 232 333 234 329 236 324 237 320 239 315 241 310 242 306 244 301 246 297 248 292 249 288 251 283 253 279 254 276 256 272 258 269 259 265 261 262 263 260 265 257 266 255 268 253 270 251 271 249 273 248 275 247 276 245 278 244 280 244 281 243 283 242 285 242 287 241 288 240 290 240 292 239 293 238 295 238 297 237 298 236 300 235 302 233 304 232 305 230 307 229 309 227 310 225 312 223 314 221 315 219 317 217 319 216 320 214 322 212 324 211 326 210 327 209 329 208 331 208 332 208 334 208 336 208 337 208 339 209 341 209 343 209 344 210 346 210 348 210 349 211 351 210 353 210 354 210 356 209 358 208 359 207 361 205 363 204 365 202 366 200 368 198 370 196 371 194 373 192 375 190 376 188 378 186 380 183 381 181 383 179 385 177 387 174 388 171 390 168 392 165 393 162 395 158 397 154 398 150 400 146 402 141 404 136 405 131 407 126 409 121 410 116 412 111 414 107 415 103 417 100 419 97 420 94 422 93 424 92 426 91 427 92 429 93 431 95 432 97 434 100 436 103 437 107 439 110 441 115 443 119 444 123 446 127 448 131 449 134 451 138 453 141 454 144 456 147 458 149 459 151 461 152 463 154 465 155 466 156 468 157 470 157 471 158 473 158 475 158 476 159 478 159 480 159 482 159 483 159 485 159 487 160 488 160 490 160 492 160 493 160 495 160 497 160 498 160 500 161 502 161 504 161 505 161 507 162 509 162 510 162 512 163 514 163 515 164 517 165 519 166 521 167 522 168 524 169 526 170 527 171 529 173 531 174 532 175 534 177 536 178 537 180 539 181 541 183 543 184 544 185 546 186 548 187 549 188 551 188 553 189 554 189 556 189 558 189 560 189 561 188 563 188 565 188 566 188 568 187 570 187 571 187 573 188 575 188 576 189 578 190 580 191 582 192 583 194 585 196 587 198 588 201 590 203 592 206 593 210 595 213 597 217 599 221 600 225 602 229 604 233 605 237 607 242 609 246 610 251 612 256 614 260 615 265 617 270 619 274 621 279 622 283 624 287 626 291 627 295 629 299 631 302 632 306 634 309 636 311 638 314 639 316 641 318 643 320 644 322 646 323 648 325 649 326 651 327 653 328 654 329 656 331 658 332 660 333 661 334 663 336 665 337 666 338 668 340 670 341 671 342 673 344 675 345 676 346 678 347 680 348 682 349 683 350 685 351 687 352 688 352 690 353 692 353 693 354 695 354 697 355 699 355 700 355 702 356 704 356 705 357 707 357 709 358 710 358 712 359 714 360 715 361 717 362 719 363 721 364 722 365 724 367 726 369 727 370 729 372 731 374 732 376 734 379 736 381 738 383 739 386 741 388 743 391 744 393 746 396 748 398 749 400 751 403 753 405 754 407 756 409 758 411 760 412 761 414 763 415 765 417 766 418 768 419 770 420 771 421 773 422 775 423 777 424 778 425 780 425 782 426 783 427 785 428 787 428 788 429 790 430 792 431 793 432 795 432 797 433 799 434 800 435 802 435 804 436 805 437 807 437 809 438 810 438 812 439 814 439 816 440 817 440 819 440 821 441 822 441 824 442 826 442 827 442 829 443 831 443 832 444 834 444 836 445 838 445 839 446 841 446 843 447 844 447 846 448 848 449 849 449 851 450 853 450 855 451 856 452 858 453 860 453 861 454 863 455 865 456 866 456 868 457 870 458 871 459 873 460 875 460 877 461 878 462 880 463 882 463 883 464 885 465 887 465 888 466 890 466 892 467 894 467 895 468 897 468 899 468 900 469 902 469 904 469 905 469 907 470 909 470 910 470 912 470 914 470 916 470 917 470 919 470 921 471 922 471 924 471 926 471 927 471 929 471 931 471 933 472" opacity="1"/><polygon fill="#1F78B4" points="164 413 166 412 168 410 170 408 171 407 173 405 175 404 176 402 178 401 180 399 181 398 183 396 185 395 187 394 188 392 190 391 192 390 193 389 195 387 197 386 198 385 200 383 202 382 203 381 205 379 207 377 209 376 210 374 212 372 214 370 215 367 217 365 219 362 220 359 222 356 224 353 226 349 227 346 229 342 231 338 232 333 234 329 236 324 237 320 239 315 241 310 242 306 244 301 246 297 248 292 249 288 251 283 253 279 254 276 256 272 258 269 259 265 261 262 263 260 265 257 266 255 268 253 270 251 271 249 273 248 275 247 276 245 278 244 280 244 281 243 283 242 285 242 287 241 288 240 290 240 292 239 293 238 295 238 297 237 298 236 300 235 302 233 304 232 305 230 307 229 309 227 310 225 312 223 314 221 315 219 317 217 319 216 320 214 322 212 324 211 326 210 327 209 329 208 331 208 332 208 334 208 336 208 337 208 339 209 341 209 343 209 344 210 346 210 348 210 349 211 351 210 353 210 354 210 356 209 358 208 359 207 361 205 363 204 365 202 366 200 368 198 370 196 371 194 373 192 375 190 376 188 378 186 380 183 381 181 383 179 385 177 387 174 388 171 390 168 392 165 393 162 395 158 397 154 398 150 400 146 402 141 404 136 405 131 407 126 409 121 410 116 412 111 414 107 415 103 417 100 419 97 420 94 422 93 424 92 426 91 427 92 429 93 431 95 432 97 434 100 436 103 437 107 439 110 441 115 443 119 444 123 446 127 448 131 449 134 451 138 453 141 454 144 456 147 458 149 459 151 461 152 463 154 465 155 466 156 468 157 470 157 471 158 473 158 475 158 476 159 478 159 480 159 482 159 483 159 485 159 487 160 488 160 490 160 492 160 493 160 495 160 497 160 498 160 500 161 502 161 504 161 505 161 507 162 509 162 510 162 512 163 514 163 515 164 517 165 519 166 521 167 522 168 524 169 526 170 527 171 529 173 531 174 532 175 534 177 536 178 537 180 539 181 541 183 543 184 544 185 546 186 548 187 549 188 551 188 553 189 554 189 556 189 558 189 560 189 561 188 563 188 565 188 566 188 568 187 570 187 571 187 573 188 575 188 576 189 578 190 580 191 582 192 583 194 585 196 587 198 588 201 590 203 592 206 593 210 595 213 597 217 599 221 600 225 602 229 604 233 605 237 607 242 609 246 610 251 612 256 614 260 615 265 617 270 619 274 621 279 622 283 624 287 626 291 627 295 629 299 631 302 632 306 634 309 636 311 638 314 639 316 641 318 643 320 644 322 646 323 648 325 649 326 651 327 653 328 654 329 656 331 658 332 660 333 661 334 663 336 665 337 666 338 668 340 670 341 671 342 673 344 675 345 676 346 678 347 680 348 682 349 683 350 685 351 687 352 688 352 690 353 692 353 693 354 695 354 697 355 699 355 700 355 702 356 704 356 705 357 707 357 709 358 710 358 712 359 714 360 715 361 717 362 719 363 721 364 722 365 724 367 726 369 727 370 729 372 731 374 732 376 734 379 736 381 738 383 739 386 741 388 743 391 744 393 746 396 748 398 749 400 751 403 753 405 754 407 756 409 758 411 760 412 761 414 763 415 765 417 766 418 768 419 770 420 771 421 773 422 775 423 777 424 778 425 780 425 782 426 783 427 785 428 787 428 788 429 790 430 792 431 793 432 795 432 797 433 799 434 800 435 802 435 804 436 805 437 807 437 809 438 810 438 812 439 814 439 816 440 817 440 819 440 821 441 822 441 824 442 826 442 827 442 829 443 831 443 832 444 834 444 836 445 838 445 839 446 841 446 843 447 844 447 846 448 848 449 849 449 851 450 853 450 853 473 164 473" opacity=".25"/><polyline fill="none" stroke="#1F78B4" stroke-width="3" points="469 473 469 157" opacity="1"/><text x="798" y="68" fill="#000" dy=".76em" font-family="sans-serif" font-size="9.677" opacity="1" text-anchor="start">Bootstrap distribution</text><text x="798" y="83" fill="#000" dy=".76em" font-family="sans-serif" font-size="9.677" opacity="1" text-anchor="start">Confidence interval</text><text x="798" y="98" fill="#000" dy=".76em" font-family="sans-serif" font-size="9.677" opacity="1" text-anchor="start">Point estimate</text><polyline fill="none" stroke="#1F78B4" stroke-width="1" points="768 73 788 73" opacity="1"/><rect width="20" height="10" x="768" y="83" fill="#1F78B4" stroke="none" opacity=".25"/><polyline fill="none" stroke="#1F78B4" stroke-width="1" points="768 103 788 103" opacity="1"/></svg>