<svg xmlns="http://www.w3.org/2000/svg" width="450" height="300"><text x="15" y="130" fill="#000" dy=".76em" font-family="sans-serif" font-size="9.677" opacity="1" text-anchor="middle" transform="rotate(270, 15, 130)">Total sample time (ms)</text><text x="255" y="285" fill="#000" dy="-.5ex" font-family="sans-serif" font-size="9.677" opacity="1" text-anchor="middle">Iterations (x 10^3)</text><line x1="106" x2="106" y1="244" y2="14" stroke="#000" stroke-width="1" opacity=".2"/><line x1="141" x2="141" y1="244" y2="14" stroke="#000" stroke-width="1" opacity=".2"/><line x1="176" x2="176" y1="244" y2="14" stroke="#000" stroke-width="1" opacity=".2"/><line x1="211" x2="211" y1="244" y2="14" stroke="#000" stroke-width="1" opacity=".2"/><line x1="246" x2="246" y1="244" y2="14" stroke="#000" stroke-width="1" opacity=".2"/><line x1="281" x2="281" y1="244" y2="14" stroke="#000" stroke-width="1" opacity=".2"/><line x1="316" x2="316" y1="244" y2="14" stroke="#000" stroke-width="1" opacity=".2"/><line x1="351" x2="351" y1="244" y2="14" stroke="#000" stroke-width="1" opacity=".2"/><line x1="386" x2="386" y1="244" y2="14" stroke="#000" stroke-width="1" opacity=".2"/><line x1="421" x2="421" y1="244" y2="14" stroke="#000" stroke-width="1" opacity=".2"/><line x1="75" x2="435" y1="202" y2="202" stroke="#000" stroke-width="1" opacity=".2"/><line x1="75" x2="435" y1="159" y2="159" stroke="#000" stroke-width="1" opacity=".2"/><line x1="75" x2="435" y1="115" y2="115" stroke="#000" stroke-width="1" opacity=".2"/><line x1="75" x2="435" y1="71" y2="71" stroke="#000" stroke-width="1" opacity=".2"/><line x1="75" x2="435" y1="27" y2="27" stroke="#000" stroke-width="1" opacity=".2"/><polyline fill="none" stroke="#000" stroke-width="1" points="74 15 74 245" opacity="1"/><text x="65" y="202" fill="#000" dy=".5ex" font-family="sans-serif" font-size="9.677" opacity="1" text-anchor="end">20.0</text><polyline fill="none" stroke="#000" stroke-width="1" points="69 202 74 202" opacity="1"/><text x="65" y="159" fill="#000" dy=".5ex" font-family="sans-serif" font-size="9.677" opacity="1" text-anchor="end">40.0</text><polyline fill="none" stroke="#000" stroke-width="1" points="69 159 74 159" opacity="1"/><text x="65" y="115" fill="#000" dy=".5ex" font-family="sans-serif" font-size="9.677" opacity="1" text-anchor="end">60.0</text><polyline fill="none" stroke="#000" stroke-width="1" points="69 115 74 115" opacity="1"/><text x="65" y="71" fill="#000" dy=".5ex" font-family="sans-serif" font-size="9.677" opacity="1" text-anchor="end">80.0</text><polyline fill="none" stroke="#000" stroke-width="1" points="69 71 74 71" opacity="1"/><text x="65" y="27" fill="#000" dy=".5ex" font-family="sans-serif" font-size="9.677" opacity="1" text-anchor="end">100.0</text><polyline fill="none" stroke="#000" stroke-width="1" points="69 27 74 27" opacity="1"/><polyline fill="none" stroke="#000" stroke-width="1" points="75 245 435 245" opacity="1"/><text x="106" y="255" fill="#000" dy=".76em" font-family="sans-serif" font-size="9.677" opacity="1" text-anchor="middle">0.5</text><polyline fill="none" stroke="#000" stroke-width="1" points="106 245 106 250" opacity="1"/><text x="141" y="255" fill="#000" dy=".76em" font-family="sans-serif" font-size="9.677" opacity="1" text-anchor="middle">1</text><polyline fill="none" stroke="#000" stroke-width="1" points="141 245 141 250" opacity="1"/><text x="176" y="255" fill="#000" dy=".76em" font-family="sans-serif" font-size="9.677" opacity="1" text-anchor="middle">1.5</text><polyline fill="none" stroke="#000" stroke-width="1" points="176 245 176 250" opacity="1"/><text x="211" y="255" fill="#000" dy=".76em" font-family="sans-serif" font-size="9.677" opacity="1" text-anchor="middle">2</text><polyline fill="none" stroke="#000" stroke-width="1" points="211 245 211 250" opacity="1"/><text x="246" y="255" fill="#000" dy=".76em" font-family="sans-serif" font-size="9.677" opacity="1" text-anchor="middle">2.5</text><polyline fill="none" stroke="#000" stroke-width="1" points="246 245 246 250" opacity="1"/><text x="281" y="255" fill="#000" dy=".76em" font-family="sans-serif" font-size="9.677" opacity="1" text-anchor="middle">3</text><polyline fill="none" stroke="#000" stroke-width="1" points="281 245 281 250" opacity="1"/><text x="316" y="255" fill="#000" dy=".76em" font-family="sans-serif" font-size="9.677" opacity="1" text-anchor="middle">3.5</text><polyline fill="none" stroke="#000" stroke-width="1" points="316 245 316 250" opacity="1"/><text x="351" y="255" fill="#000" dy=".76em" font-family="sans-serif" font-size="9.677" opacity="1" text-anchor="middle">4</text><polyline fill="none" stroke="#000" stroke-width="1" points="351 245 351 250" opacity="1"/><text x="386" y="255" fill="#000" dy=".76em" font-family="sans-serif" font-size="9.677" opacity="1" text-anchor="middle">4.5</text><polyline fill="none" stroke="#000" stroke-width="1" points="386 245 386 250" opacity="1"/><text x="421" y="255" fill="#000" dy=".76em" font-family="sans-serif" font-size="9.677" opacity="1" text-anchor="middle">5</text><polyline fill="none" stroke="#000" stroke-width="1" points="421 245 421 250" opacity="1"/><circle cx="75" cy="244" r="3" fill="#1F78B4" stroke="none" opacity="1"/><circle cx="78" cy="241" r="3" fill="#1F78B4" stroke="none" opacity="1"/><circle cx="82" cy="239" r="3" fill="#1F78B4" stroke="none" opacity="1"/><circle cx="85" cy="237" r="3" fill="#1F78B4" stroke="none" opacity="1"/><circle cx="89" cy="235" r="3" fill="#1F78B4" stroke="none" opacity="1"/><circle cx="93" cy="234" r="3" fill="#1F78B4" stroke="none" opacity="1"/><circle cx="96" cy="231" r="3" fill="#1F78B4" stroke="none" opacity="1"/><circle cx="100" cy="228" r="3" fill="#1F78B4" stroke="none" opacity="1"/><circle cx="104" cy="226" r="3" fill="#1F78B4" stroke="none" opacity="1"/><circle cx="107" cy="222" r="3" fill="#1F78B4" stroke="none" opacity="1"/><circle cx="111" cy="221" r="3" fill="#1F78B4" stroke="none" opacity="1"/><circle cx="115" cy="220" r="3" fill="#1F78B4" stroke="none" opacity="1"/><circle cx="118" cy="216" r="3" fill="#1F78B4" stroke="none" opacity="1"/><circle cx="122" cy="214" r="3" fill="#1F78B4" stroke="none" opacity="1"/><circle cx="125" cy="212" r="3" fill="#1F78B4" stroke="none" opacity="1"/><circle cx="129" cy="212" r="3" fill="#1F78B4" stroke="none" opacity="1"/><circle cx="133" cy="210" r="3" fill="#1F78B4" stroke="none" opacity="1"/><circle cx="136" cy="208" r="3" fill="#1F78B4" stroke="none" opacity="1"/><circle cx="140" cy="203" r="3" fill="#1F78B4" stroke="none" opacity="1"/><circle cx="144" cy="203" r="3" fill="#1F78B4" stroke="none" opacity="1"/><circle cx="147" cy="201" r="3" fill="#1F78B4" stroke="none" opacity="1"/><circle cx="151" cy="200" r="3" fill="#1F78B4" stroke="none" opacity="1"/><circle cx="155" cy="197" r="3" fill="#1F78B4" stroke="none" opacity="1"/><circle cx="158" cy="191" r="3" fill="#1F78B4" stroke="none" opacity="1"/><circle cx="162" cy="193" r="3" fill="#1F78B4" stroke="none" opacity="1"/><circle cx="165" cy="191" r="3" fill="#1F78B4" stroke="none" opacity="1"/><circle cx="169" cy="187" r="3" fill="#1F78B4" stroke="none" opacity="1"/><circle cx="173" cy="185" r="3" fill="#1F78B4" stroke="none" opacity="1"/><circle cx="176" cy="184" r="3" fill="#1F78B4" stroke="none" opacity="1"/><circle cx="180" cy="179" r="3" fill="#1F78B4" stroke="none" opacity="1"/><circle cx="184" cy="177" r="3" fill="#1F78B4" stroke="none" opacity="1"/><circle cx="187" cy="163" r="3" fill="#1F78B4" stroke="none" opacity="1"/><circle cx="191" cy="167" r="3" fill="#1F78B4" stroke="none" opacity="1"/><circle cx="195" cy="173" r="3" fill="#1F78B4" stroke="none" opacity="1"/><circle cx="198" cy="168" r="3" fill="#1F78B4" stroke="none" opacity="1"/><circle cx="202" cy="169" r="3" fill="#1F78B4" stroke="none" opacity="1"/><circle cx="205" cy="162" r="3" fill="#1F78B4" stroke="none" opacity="1"/><circle cx="209" cy="162" r="3" fill="#1F78B4" stroke="none" opacity="1"/><circle cx="213" cy="162" r="3" fill="#1F78B4" stroke="none" opacity="1"/><circle cx="216" cy="156" r="3" fill="#1F78B4" stroke="none" opacity="1"/><circle cx="220" cy="161" r="3" fill="#1F78B4" stroke="none" opacity="1"/><circle cx="224" cy="158" r="3" fill="#1F78B4" stroke="none" opacity="1"/><circle cx="227" cy="148" r="3" fill="#1F78B4" stroke="none" opacity="1"/><circle cx="231" cy="143" r="3" fill="#1F78B4" stroke="none" opacity="1"/><circle cx="235" cy="152" r="3" fill="#1F78B4" stroke="none" opacity="1"/><circle cx="238" cy="147" r="3" fill="#1F78B4" stroke="none" opacity="1"/><circle cx="242" cy="143" r="3" fill="#1F78B4" stroke="none" opacity="1"/><circle cx="245" cy="146" r="3" fill="#1F78B4" stroke="none" opacity="1"/><circle cx="249" cy="140" r="3" fill="#1F78B4" stroke="none" opacity="1"/><circle cx="253" cy="139" r="3" fill="#1F78B4" stroke="none" opacity="1"/><circle cx="256" cy="134" r="3" fill="#1F78B4" stroke="none" opacity="1"/><circle cx="260" cy="134" r="3" fill="#1F78B4" stroke="none" opacity="1"/><circle cx="264" cy="129" r="3" fill="#1F78B4" stroke="none" opacity="1"/><circle cx="267" cy="132" r="3" fill="#1F78B4" stroke="none" opacity="1"/><circle cx="271" cy="127" r="3" fill="#1F78B4" stroke="none" opacity="1"/><circle cx="275" cy="120" r="3" fill="#1F78B4" stroke="none" opacity="1"/><circle cx="278" cy="124" r="3" fill="#1F78B4" stroke="none" opacity="1"/><circle cx="282" cy="111" r="3" fill="#1F78B4" stroke="none" opacity="1"/><circle cx="285" cy="102" r="3" fill="#1F78B4" stroke="none" opacity="1"/><circle cx="289" cy="103" r="3" fill="#1F78B4" stroke="none" opacity="1"/><circle cx="293" cy="103" r="3" fill="#1F78B4" stroke="none" opacity="1"/><circle cx="296" cy="113" r="3" fill="#1F78B4" stroke="none" opacity="1"/><circle cx="300" cy="98" r="3" fill="#1F78B4" stroke="none" opacity="1"/><circle cx="304" cy="102" r="3" fill="#1F78B4" stroke="none" opacity="1"/><circle cx="307" cy="109" r="3" fill="#1F78B4" stroke="none" opacity="1"/><circle cx="311" cy="106" r="3" fill="#1F78B4" stroke="none" opacity="1"/><circle cx="315" cy="105" r="3" fill="#1F78B4" stroke="none" opacity="1"/><circle cx="318" cy="102" r="3" fill="#1F78B4" stroke="none" opacity="1"/><circle cx="322" cy="95" r="3" fill="#1F78B4" stroke="none" opacity="1"/><circle cx="325" cy="101" r="3" fill="#1F78B4" stroke="none" opacity="1"/><circle cx="329" cy="94" r="3" fill="#1F78B4" stroke="none" opacity="1"/><circle cx="333" cy="94" r="3" fill="#1F78B4" stroke="none" opacity="1"/><circle cx="336" cy="92" r="3" fill="#1F78B4" stroke="none" opacity="1"/><circle cx="340" cy="88" r="3" fill="#1F78B4" stroke="none" opacity="1"/><circle cx="344" cy="80" r="3" fill="#1F78B4" stroke="none" opacity="1"/><circle cx="347" cy="78" r="3" fill="#1F78B4" stroke="none" opacity="1"/><circle cx="351" cy="85" r="3" fill="#1F78B4" stroke="none" opacity="1"/><circle cx="355" cy="80" r="3" fill="#1F78B4" stroke="none" opacity="1"/><circle cx="358" cy="71" r="3" fill="#1F78B4" stroke="none" opacity="1"/><circle cx="362" cy="78" r="3" fill="#1F78B4" stroke="none" opacity="1"/><circle cx="365" cy="57" r="3" fill="#1F78B4" stroke="none" opacity="1"/><circle cx="369" cy="54" r="3" fill="#1F78B4" stroke="none" opacity="1"/><circle cx="373" cy="75" r="3" fill="#1F78B4" stroke="none" opacity="1"/><circle cx="376" cy="71" r="3" fill="#1F78B4" stroke="none" opacity="1"/><circle cx="380" cy="67" r="3" fill="#1F78B4" stroke="none" opacity="1"/><circle cx="384" cy="66" r="3" fill="#1F78B4" stroke="none" opacity="1"/><circle cx="387" cy="49" r="3" fill="#1F78B4" stroke="none" opacity="1"/><circle cx="391" cy="61" r="3" fill="#1F78B4" stroke="none" opacity="1"/><circle cx="395" cy="62" r="3" fill="#1F78B4" stroke="none" opacity="1"/><circle cx="398" cy="58" r="3" fill="#1F78B4" stroke="none" opacity="1"/><circle cx="402" cy="45" r="3" fill="#1F78B4" stroke="none" opacity="1"/><circle cx="405" cy="46" r="3" fill="#1F78B4" stroke="none" opacity="1"/><circle cx="409" cy="45" r="3" fill="#1F78B4" stroke="none" opacity="1"/><circle cx="413" cy="36" r="3" fill="#1F78B4" stroke="none" opacity="1"/><circle cx="416" cy="41" r="3" fill="#1F78B4" stroke="none" opacity="1"/><circle cx="420" cy="41" r="3" fill="#1F78B4" stroke="none" opacity="1"/><circle cx="424" cy="15" r="3" fill="#1F78B4" stroke="none" opacity="1"/><circle cx="427" cy="45" r="3" fill="#1F78B4" stroke="none" opacity="1"/><circle cx="431" cy="19" r="3" fill="#1F78B4" stroke="none" opacity="1"/><circle cx="435" cy="36" r="3" fill="#1F78B4" stroke="none" opacity="1"/><polyline fill="none" stroke="#1F78B4" stroke-width="1" points="75 245 435 28" opacity="1"/><polygon fill="#1F78B4" points="75 245 435 31 435 26" opacity=".25"/></svg>