<svg xmlns="http://www.w3.org/2000/svg" width="960" height="540"><text x="480" y="32" fill="#000" dy=".76em" font-family="sans-serif" font-size="16.129" opacity="1" text-anchor="middle">bench_group/threads_32/131072</text><text x="27" y="263" fill="#000" dy=".76em" font-family="sans-serif" font-size="9.677" opacity="1" text-anchor="middle" transform="rotate(270, 27, 263)">Total sample time (ms)</text><text x="510" y="513" fill="#000" dy="-.5ex" font-family="sans-serif" font-size="9.677" opacity="1" text-anchor="middle">Iterations (x 10^3)</text><line x1="160" x2="160" y1="472" y2="52" stroke="#000" stroke-width="1" opacity=".2"/><line x1="242" x2="242" y1="472" y2="52" stroke="#000" stroke-width="1" opacity=".2"/><line x1="324" x2="324" y1="472" y2="52" stroke="#000" stroke-width="1" opacity=".2"/><line x1="407" x2="407" y1="472" y2="52" stroke="#000" stroke-width="1" opacity=".2"/><line x1="489" x2="489" y1="472" y2="52" stroke="#000" stroke-width="1" opacity=".2"/><line x1="571" x2="571" y1="472" y2="52" stroke="#000" stroke-width="1" opacity=".2"/><line x1="653" x2="653" y1="472" y2="52" stroke="#000" stroke-width="1" opacity=".2"/><line x1="735" x2="735" y1="472" y2="52" stroke="#000" stroke-width="1" opacity=".2"/><line x1="817" x2="817" y1="472" y2="52" stroke="#000" stroke-width="1" opacity=".2"/><line x1="900" x2="900" y1="472" y2="52" stroke="#000" stroke-width="1" opacity=".2"/><line x1="87" x2="933" y1="396" y2="396" stroke="#000" stroke-width="1" opacity=".2"/><line x1="87" x2="933" y1="316" y2="316" stroke="#000" stroke-width="1" opacity=".2"/><line x1="87" x2="933" y1="236" y2="236" stroke="#000" stroke-width="1" opacity=".2"/><line x1="87" x2="933" y1="156" y2="156" stroke="#000" stroke-width="1" opacity=".2"/><line x1="87" x2="933" y1="76" y2="76" stroke="#000" stroke-width="1" opacity=".2"/><polyline fill="none" stroke="#000" stroke-width="1" points="86 53 86 473" opacity="1"/><text x="77" y="396" fill="#000" dy=".5ex" font-family="sans-serif" font-size="9.677" opacity="1" text-anchor="end">20.0</text><polyline fill="none" stroke="#000" stroke-width="1" points="81 396 86 396" opacity="1"/><text x="77" y="316" fill="#000" dy=".5ex" font-family="sans-serif" font-size="9.677" opacity="1" text-anchor="end">40.0</text><polyline fill="none" stroke="#000" stroke-width="1" points="81 316 86 316" opacity="1"/><text x="77" y="236" fill="#000" dy=".5ex" font-family="sans-serif" font-size="9.677" opacity="1" text-anchor="end">60.0</text><polyline fill="none" stroke="#000" stroke-width="1" points="81 236 86 236" opacity="1"/><text x="77" y="156" fill="#000" dy=".5ex" font-family="sans-serif" font-size="9.677" opacity="1" text-anchor="end">80.0</text><polyline fill="none" stroke="#000" stroke-width="1" points="81 156 86 156" opacity="1"/><text x="77" y="76" fill="#000" dy=".5ex" font-family="sans-serif" font-size="9.677" opacity="1" text-anchor="end">100.0</text><polyline fill="none" stroke="#000" stroke-width="1" points="81 76 86 76" opacity="1"/><polyline fill="none" stroke="#000" stroke-width="1" points="87 473 933 473" opacity="1"/><text x="160" y="483" fill="#000" dy=".76em" font-family="sans-serif" font-size="9.677" opacity="1" text-anchor="middle">0.5</text><polyline fill="none" stroke="#000" stroke-width="1" points="160 473 160 478" opacity="1"/><text x="242" y="483" fill="#000" dy=".76em" font-family="sans-serif" font-size="9.677" opacity="1" text-anchor="middle">1</text><polyline fill="none" stroke="#000" stroke-width="1" points="242 473 242 478" opacity="1"/><text x="324" y="483" fill="#000" dy=".76em" font-family="sans-serif" font-size="9.677" opacity="1" text-anchor="middle">1.5</text><polyline fill="none" stroke="#000" stroke-width="1" points="324 473 324 478" opacity="1"/><text x="407" y="483" fill="#000" dy=".76em" font-family="sans-serif" font-size="9.677" opacity="1" text-anchor="middle">2</text><polyline fill="none" stroke="#000" stroke-width="1" points="407 473 407 478" opacity="1"/><text x="489" y="483" fill="#000" dy=".76em" font-family="sans-serif" font-size="9.677" opacity="1" text-anchor="middle">2.5</text><polyline fill="none" stroke="#000" stroke-width="1" points="489 473 489 478" opacity="1"/><text x="571" y="483" fill="#000" dy=".76em" font-family="sans-serif" font-size="9.677" opacity="1" text-anchor="middle">3</text><polyline fill="none" stroke="#000" stroke-width="1" points="571 473 571 478" opacity="1"/><text x="653" y="483" fill="#000" dy=".76em" font-family="sans-serif" font-size="9.677" opacity="1" text-anchor="middle">3.5</text><polyline fill="none" stroke="#000" stroke-width="1" points="653 473 653 478" opacity="1"/><text x="735" y="483" fill="#000" dy=".76em" font-family="sans-serif" font-size="9.677" opacity="1" text-anchor="middle">4</text><polyline fill="none" stroke="#000" stroke-width="1" points="735 473 735 478" opacity="1"/><text x="817" y="483" fill="#000" dy=".76em" font-family="sans-serif" font-size="9.677" opacity="1" text-anchor="middle">4.5</text><polyline fill="none" stroke="#000" stroke-width="1" points="817 473 817 478" opacity="1"/><text x="900" y="483" fill="#000" dy=".76em" font-family="sans-serif" font-size="9.677" opacity="1" text-anchor="middle">5</text><polyline fill="none" stroke="#000" stroke-width="1" points="900 473 900 478" opacity="1"/><circle cx="87" cy="472" r="3" fill="#1F78B4" stroke="none" opacity="1"/><circle cx="95" cy="468" r="3" fill="#1F78B4" stroke="none" opacity="1"/><circle cx="104" cy="464" r="3" fill="#1F78B4" stroke="none" opacity="1"/><circle cx="112" cy="460" r="3" fill="#1F78B4" stroke="none" opacity="1"/><circle cx="121" cy="456" r="3" fill="#1F78B4" stroke="none" opacity="1"/><circle cx="129" cy="454" r="3" fill="#1F78B4" stroke="none" opacity="1"/><circle cx="138" cy="449" r="3" fill="#1F78B4" stroke="none" opacity="1"/><circle cx="146" cy="443" r="3" fill="#1F78B4" stroke="none" opacity="1"/><circle cx="155" cy="440" r="3" fill="#1F78B4" stroke="none" opacity="1"/><circle cx="163" cy="433" r="3" fill="#1F78B4" stroke="none" opacity="1"/><circle cx="172" cy="430" r="3" fill="#1F78B4" stroke="none" opacity="1"/><circle cx="181" cy="428" r="3" fill="#1F78B4" stroke="none" opacity="1"/><circle cx="189" cy="421" r="3" fill="#1F78B4" stroke="none" opacity="1"/><circle cx="198" cy="417" r="3" fill="#1F78B4" stroke="none" opacity="1"/><circle cx="206" cy="413" r="3" fill="#1F78B4" stroke="none" opacity="1"/><circle cx="215" cy="414" r="3" fill="#1F78B4" stroke="none" opacity="1"/><circle cx="223" cy="410" r="3" fill="#1F78B4" stroke="none" opacity="1"/><circle cx="232" cy="407" r="3" fill="#1F78B4" stroke="none" opacity="1"/><circle cx="240" cy="398" r="3" fill="#1F78B4" stroke="none" opacity="1"/><circle cx="249" cy="398" r="3" fill="#1F78B4" stroke="none" opacity="1"/><circle cx="257" cy="393" r="3" fill="#1F78B4" stroke="none" opacity="1"/><circle cx="266" cy="391" r="3" fill="#1F78B4" stroke="none" opacity="1"/><circle cx="275" cy="387" r="3" fill="#1F78B4" stroke="none" opacity="1"/><circle cx="283" cy="375" r="3" fill="#1F78B4" stroke="none" opacity="1"/><circle cx="292" cy="379" r="3" fill="#1F78B4" stroke="none" opacity="1"/><circle cx="300" cy="375" r="3" fill="#1F78B4" stroke="none" opacity="1"/><circle cx="309" cy="369" r="3" fill="#1F78B4" stroke="none" opacity="1"/><circle cx="317" cy="365" r="3" fill="#1F78B4" stroke="none" opacity="1"/><circle cx="326" cy="364" r="3" fill="#1F78B4" stroke="none" opacity="1"/><circle cx="334" cy="355" r="3" fill="#1F78B4" stroke="none" opacity="1"/><circle cx="343" cy="350" r="3" fill="#1F78B4" stroke="none" opacity="1"/><circle cx="351" cy="325" r="3" fill="#1F78B4" stroke="none" opacity="1"/><circle cx="360" cy="333" r="3" fill="#1F78B4" stroke="none" opacity="1"/><circle cx="369" cy="343" r="3" fill="#1F78B4" stroke="none" opacity="1"/><circle cx="377" cy="333" r="3" fill="#1F78B4" stroke="none" opacity="1"/><circle cx="386" cy="335" r="3" fill="#1F78B4" stroke="none" opacity="1"/><circle cx="394" cy="323" r="3" fill="#1F78B4" stroke="none" opacity="1"/><circle cx="403" cy="323" r="3" fill="#1F78B4" stroke="none" opacity="1"/><circle cx="411" cy="322" r="3" fill="#1F78B4" stroke="none" opacity="1"/><circle cx="420" cy="312" r="3" fill="#1F78B4" stroke="none" opacity="1"/><circle cx="428" cy="320" r="3" fill="#1F78B4" stroke="none" opacity="1"/><circle cx="437" cy="315" r="3" fill="#1F78B4" stroke="none" opacity="1"/><circle cx="445" cy="298" r="3" fill="#1F78B4" stroke="none" opacity="1"/><circle cx="454" cy="288" r="3" fill="#1F78B4" stroke="none" opacity="1"/><circle cx="463" cy="304" r="3" fill="#1F78B4" stroke="none" opacity="1"/><circle cx="471" cy="296" r="3" fill="#1F78B4" stroke="none" opacity="1"/><circle cx="480" cy="287" r="3" fill="#1F78B4" stroke="none" opacity="1"/><circle cx="488" cy="293" r="3" fill="#1F78B4" stroke="none" opacity="1"/><circle cx="497" cy="282" r="3" fill="#1F78B4" stroke="none" opacity="1"/><circle cx="505" cy="281" r="3" fill="#1F78B4" stroke="none" opacity="1"/><circle cx="514" cy="272" r="3" fill="#1F78B4" stroke="none" opacity="1"/><circle cx="522" cy="272" r="3" fill="#1F78B4" stroke="none" opacity="1"/><circle cx="531" cy="263" r="3" fill="#1F78B4" stroke="none" opacity="1"/><circle cx="539" cy="267" r="3" fill="#1F78B4" stroke="none" opacity="1"/><circle cx="548" cy="259" r="3" fill="#1F78B4" stroke="none" opacity="1"/><circle cx="557" cy="247" r="3" fill="#1F78B4" stroke="none" opacity="1"/><circle cx="565" cy="254" r="3" fill="#1F78B4" stroke="none" opacity="1"/><circle cx="574" cy="230" r="3" fill="#1F78B4" stroke="none" opacity="1"/><circle cx="582" cy="214" r="3" fill="#1F78B4" stroke="none" opacity="1"/><circle cx="591" cy="216" r="3" fill="#1F78B4" stroke="none" opacity="1"/><circle cx="599" cy="215" r="3" fill="#1F78B4" stroke="none" opacity="1"/><circle cx="608" cy="233" r="3" fill="#1F78B4" stroke="none" opacity="1"/><circle cx="616" cy="206" r="3" fill="#1F78B4" stroke="none" opacity="1"/><circle cx="625" cy="213" r="3" fill="#1F78B4" stroke="none" opacity="1"/><circle cx="633" cy="225" r="3" fill="#1F78B4" stroke="none" opacity="1"/><circle cx="642" cy="220" r="3" fill="#1F78B4" stroke="none" opacity="1"/><circle cx="651" cy="219" r="3" fill="#1F78B4" stroke="none" opacity="1"/><circle cx="659" cy="213" r="3" fill="#1F78B4" stroke="none" opacity="1"/><circle cx="668" cy="200" r="3" fill="#1F78B4" stroke="none" opacity="1"/><circle cx="676" cy="212" r="3" fill="#1F78B4" stroke="none" opacity="1"/><circle cx="685" cy="198" r="3" fill="#1F78B4" stroke="none" opacity="1"/><circle cx="693" cy="199" r="3" fill="#1F78B4" stroke="none" opacity="1"/><circle cx="702" cy="194" r="3" fill="#1F78B4" stroke="none" opacity="1"/><circle cx="710" cy="188" r="3" fill="#1F78B4" stroke="none" opacity="1"/><circle cx="719" cy="173" r="3" fill="#1F78B4" stroke="none" opacity="1"/><circle cx="727" cy="169" r="3" fill="#1F78B4" stroke="none" opacity="1"/><circle cx="736" cy="182" r="3" fill="#1F78B4" stroke="none" opacity="1"/><circle cx="745" cy="173" r="3" fill="#1F78B4" stroke="none" opacity="1"/><circle cx="753" cy="156" r="3" fill="#1F78B4" stroke="none" opacity="1"/><circle cx="762" cy="169" r="3" fill="#1F78B4" stroke="none" opacity="1"/><circle cx="770" cy="130" r="3" fill="#1F78B4" stroke="none" opacity="1"/><circle cx="779" cy="126" r="3" fill="#1F78B4" stroke="none" opacity="1"/><circle cx="787" cy="164" r="3" fill="#1F78B4" stroke="none" opacity="1"/><circle cx="796" cy="157" r="3" fill="#1F78B4" stroke="none" opacity="1"/><circle cx="804" cy="149" r="3" fill="#1F78B4" stroke="none" opacity="1"/><circle cx="813" cy="148" r="3" fill="#1F78B4" stroke="none" opacity="1"/><circle cx="821" cy="116" r="3" fill="#1F78B4" stroke="none" opacity="1"/><circle cx="830" cy="138" r="3" fill="#1F78B4" stroke="none" opacity="1"/><circle cx="839" cy="140" r="3" fill="#1F78B4" stroke="none" opacity="1"/><circle cx="847" cy="132" r="3" fill="#1F78B4" stroke="none" opacity="1"/><circle cx="856" cy="109" r="3" fill="#1F78B4" stroke="none" opacity="1"/><circle cx="864" cy="110" r="3" fill="#1F78B4" stroke="none" opacity="1"/><circle cx="873" cy="109" r="3" fill="#1F78B4" stroke="none" opacity="1"/><circle cx="881" cy="92" r="3" fill="#1F78B4" stroke="none" opacity="1"/><circle cx="890" cy="101" r="3" fill="#1F78B4" stroke="none" opacity="1"/><circle cx="898" cy="102" r="3" fill="#1F78B4" stroke="none" opacity="1"/><circle cx="907" cy="53" r="3" fill="#1F78B4" stroke="none" opacity="1"/><circle cx="915" cy="109" r="3" fill="#1F78B4" stroke="none" opacity="1"/><circle cx="924" cy="62" r="3" fill="#1F78B4" stroke="none" opacity="1"/><circle cx="933" cy="93" r="3" fill="#1F78B4" stroke="none" opacity="1"/><polyline fill="none" stroke="#1F78B4" stroke-width="1" points="87 473 933 78" opacity="1"/><polygon fill="#1F78B4" points="87 473 933 83 933 73" opacity=".25"/><text x="132" y="68" fill="#000" dy=".76em" font-family="sans-serif" font-size="9.677" opacity="1" text-anchor="start">Sample</text><text x="132" y="83" fill="#000" dy=".76em" font-family="sans-serif" font-size="9.677" opacity="1" text-anchor="start">Linear regression</text><text x="132" y="98" fill="#000" dy=".76em" font-family="sans-serif" font-size="9.677" opacity="1" text-anchor="start">Confidence interval</text><circle cx="112" cy="73" r="3" fill="#1F78B4" stroke="none" opacity="1"/><polyline fill="none" stroke="#1F78B4" stroke-width="2" points="102 88 122 88" opacity="1"/><rect width="20" height="10" x="102" y="98" fill="#1F78B4" stroke="none" opacity=".25"/></svg>