<svg xmlns="http://www.w3.org/2000/svg" width="960" height="540"><text x="480" y="32" fill="#000" dy=".76em" font-family="sans-serif" font-size="16.129" opacity="1" text-anchor="middle">bench_group/threads_48/32768</text><text x="27" y="263" fill="#000" dy=".76em" font-family="sans-serif" font-size="9.677" opacity="1" text-anchor="middle" transform="rotate(270, 27, 263)">Total sample time (ms)</text><text x="510" y="513" fill="#000" dy="-.5ex" font-family="sans-serif" font-size="9.677" opacity="1" text-anchor="middle">Iterations (x 10^3)</text><line x1="204" x2="204" y1="472" y2="52" stroke="#000" stroke-width="1" opacity=".2"/><line x1="329" x2="329" y1="472" y2="52" stroke="#000" stroke-width="1" opacity=".2"/><line x1="455" x2="455" y1="472" y2="52" stroke="#000" stroke-width="1" opacity=".2"/><line x1="581" x2="581" y1="472" y2="52" stroke="#000" stroke-width="1" opacity=".2"/><line x1="706" x2="706" y1="472" y2="52" stroke="#000" stroke-width="1" opacity=".2"/><line x1="832" x2="832" y1="472" y2="52" stroke="#000" stroke-width="1" opacity=".2"/><line x1="87" x2="933" y1="417" y2="417" stroke="#000" stroke-width="1" opacity=".2"/><line x1="87" x2="933" y1="358" y2="358" stroke="#000" stroke-width="1" opacity=".2"/><line x1="87" x2="933" y1="299" y2="299" stroke="#000" stroke-width="1" opacity=".2"/><line x1="87" x2="933" y1="240" y2="240" stroke="#000" stroke-width="1" opacity=".2"/><line x1="87" x2="933" y1="181" y2="181" stroke="#000" stroke-width="1" opacity=".2"/><line x1="87" x2="933" y1="122" y2="122" stroke="#000" stroke-width="1" opacity=".2"/><line x1="87" x2="933" y1="63" y2="63" stroke="#000" stroke-width="1" opacity=".2"/><polyline fill="none" stroke="#000" stroke-width="1" points="86 53 86 473" opacity="1"/><text x="77" y="417" fill="#000" dy=".5ex" font-family="sans-serif" font-size="9.677" opacity="1" text-anchor="end">20.0</text><polyline fill="none" stroke="#000" stroke-width="1" points="81 417 86 417" opacity="1"/><text x="77" y="358" fill="#000" dy=".5ex" font-family="sans-serif" font-size="9.677" opacity="1" text-anchor="end">40.0</text><polyline fill="none" stroke="#000" stroke-width="1" points="81 358 86 358" opacity="1"/><text x="77" y="299" fill="#000" dy=".5ex" font-family="sans-serif" font-size="9.677" opacity="1" text-anchor="end">60.0</text><polyline fill="none" stroke="#000" stroke-width="1" points="81 299 86 299" opacity="1"/><text x="77" y="240" fill="#000" dy=".5ex" font-family="sans-serif" font-size="9.677" opacity="1" text-anchor="end">80.0</text><polyline fill="none" stroke="#000" stroke-width="1" points="81 240 86 240" opacity="1"/><text x="77" y="181" fill="#000" dy=".5ex" font-family="sans-serif" font-size="9.677" opacity="1" text-anchor="end">100.0</text><polyline fill="none" stroke="#000" stroke-width="1" points="81 181 86 181" opacity="1"/><text x="77" y="122" fill="#000" dy=".5ex" font-family="sans-serif" font-size="9.677" opacity="1" text-anchor="end">120.0</text><polyline fill="none" stroke="#000" stroke-width="1" points="81 122 86 122" opacity="1"/><text x="77" y="63" fill="#000" dy=".5ex" font-family="sans-serif" font-size="9.677" opacity="1" text-anchor="end">140.0</text><polyline fill="none" stroke="#000" stroke-width="1" points="81 63 86 63" opacity="1"/><polyline fill="none" stroke="#000" stroke-width="1" points="87 473 933 473" opacity="1"/><text x="204" y="483" fill="#000" dy=".76em" font-family="sans-serif" font-size="9.677" opacity="1" text-anchor="middle">1</text><polyline fill="none" stroke="#000" stroke-width="1" points="204 473 204 478" opacity="1"/><text x="329" y="483" fill="#000" dy=".76em" font-family="sans-serif" font-size="9.677" opacity="1" text-anchor="middle">2</text><polyline fill="none" stroke="#000" stroke-width="1" points="329 473 329 478" opacity="1"/><text x="455" y="483" fill="#000" dy=".76em" font-family="sans-serif" font-size="9.677" opacity="1" text-anchor="middle">3</text><polyline fill="none" stroke="#000" stroke-width="1" points="455 473 455 478" opacity="1"/><text x="581" y="483" fill="#000" dy=".76em" font-family="sans-serif" font-size="9.677" opacity="1" text-anchor="middle">4</text><polyline fill="none" stroke="#000" stroke-width="1" points="581 473 581 478" opacity="1"/><text x="706" y="483" fill="#000" dy=".76em" font-family="sans-serif" font-size="9.677" opacity="1" text-anchor="middle">5</text><polyline fill="none" stroke="#000" stroke-width="1" points="706 473 706 478" opacity="1"/><text x="832" y="483" fill="#000" dy=".76em" font-family="sans-serif" font-size="9.677" opacity="1" text-anchor="middle">6</text><polyline fill="none" stroke="#000" stroke-width="1" points="832 473 832 478" opacity="1"/><circle cx="87" cy="472" r="3" fill="#1F78B4" stroke="none" opacity="1"/><circle cx="95" cy="469" r="3" fill="#1F78B4" stroke="none" opacity="1"/><circle cx="104" cy="467" r="3" fill="#1F78B4" stroke="none" opacity="1"/><circle cx="112" cy="462" r="3" fill="#1F78B4" stroke="none" opacity="1"/><circle cx="121" cy="461" r="3" fill="#1F78B4" stroke="none" opacity="1"/><circle cx="129" cy="457" r="3" fill="#1F78B4" stroke="none" opacity="1"/><circle cx="138" cy="449" r="3" fill="#1F78B4" stroke="none" opacity="1"/><circle cx="146" cy="446" r="3" fill="#1F78B4" stroke="none" opacity="1"/><circle cx="155" cy="446" r="3" fill="#1F78B4" stroke="none" opacity="1"/><circle cx="163" cy="450" r="3" fill="#1F78B4" stroke="none" opacity="1"/><circle cx="172" cy="440" r="3" fill="#1F78B4" stroke="none" opacity="1"/><circle cx="181" cy="445" r="3" fill="#1F78B4" stroke="none" opacity="1"/><circle cx="189" cy="442" r="3" fill="#1F78B4" stroke="none" opacity="1"/><circle cx="198" cy="433" r="3" fill="#1F78B4" stroke="none" opacity="1"/><circle cx="206" cy="428" r="3" fill="#1F78B4" stroke="none" opacity="1"/><circle cx="215" cy="433" r="3" fill="#1F78B4" stroke="none" opacity="1"/><circle cx="223" cy="410" r="3" fill="#1F78B4" stroke="none" opacity="1"/><circle cx="232" cy="417" r="3" fill="#1F78B4" stroke="none" opacity="1"/><circle cx="240" cy="409" r="3" fill="#1F78B4" stroke="none" opacity="1"/><circle cx="249" cy="418" r="3" fill="#1F78B4" stroke="none" opacity="1"/><circle cx="257" cy="414" r="3" fill="#1F78B4" stroke="none" opacity="1"/><circle cx="266" cy="397" r="3" fill="#1F78B4" stroke="none" opacity="1"/><circle cx="275" cy="402" r="3" fill="#1F78B4" stroke="none" opacity="1"/><circle cx="283" cy="410" r="3" fill="#1F78B4" stroke="none" opacity="1"/><circle cx="292" cy="399" r="3" fill="#1F78B4" stroke="none" opacity="1"/><circle cx="300" cy="387" r="3" fill="#1F78B4" stroke="none" opacity="1"/><circle cx="309" cy="390" r="3" fill="#1F78B4" stroke="none" opacity="1"/><circle cx="317" cy="358" r="3" fill="#1F78B4" stroke="none" opacity="1"/><circle cx="326" cy="374" r="3" fill="#1F78B4" stroke="none" opacity="1"/><circle cx="334" cy="387" r="3" fill="#1F78B4" stroke="none" opacity="1"/><circle cx="343" cy="362" r="3" fill="#1F78B4" stroke="none" opacity="1"/><circle cx="351" cy="382" r="3" fill="#1F78B4" stroke="none" opacity="1"/><circle cx="360" cy="371" r="3" fill="#1F78B4" stroke="none" opacity="1"/><circle cx="369" cy="381" r="3" fill="#1F78B4" stroke="none" opacity="1"/><circle cx="377" cy="388" r="3" fill="#1F78B4" stroke="none" opacity="1"/><circle cx="386" cy="380" r="3" fill="#1F78B4" stroke="none" opacity="1"/><circle cx="394" cy="361" r="3" fill="#1F78B4" stroke="none" opacity="1"/><circle cx="403" cy="339" r="3" fill="#1F78B4" stroke="none" opacity="1"/><circle cx="411" cy="339" r="3" fill="#1F78B4" stroke="none" opacity="1"/><circle cx="420" cy="346" r="3" fill="#1F78B4" stroke="none" opacity="1"/><circle cx="428" cy="367" r="3" fill="#1F78B4" stroke="none" opacity="1"/><circle cx="437" cy="329" r="3" fill="#1F78B4" stroke="none" opacity="1"/><circle cx="445" cy="328" r="3" fill="#1F78B4" stroke="none" opacity="1"/><circle cx="454" cy="339" r="3" fill="#1F78B4" stroke="none" opacity="1"/><circle cx="463" cy="353" r="3" fill="#1F78B4" stroke="none" opacity="1"/><circle cx="471" cy="353" r="3" fill="#1F78B4" stroke="none" opacity="1"/><circle cx="480" cy="326" r="3" fill="#1F78B4" stroke="none" opacity="1"/><circle cx="488" cy="336" r="3" fill="#1F78B4" stroke="none" opacity="1"/><circle cx="497" cy="303" r="3" fill="#1F78B4" stroke="none" opacity="1"/><circle cx="505" cy="351" r="3" fill="#1F78B4" stroke="none" opacity="1"/><circle cx="514" cy="278" r="3" fill="#1F78B4" stroke="none" opacity="1"/><circle cx="522" cy="338" r="3" fill="#1F78B4" stroke="none" opacity="1"/><circle cx="531" cy="271" r="3" fill="#1F78B4" stroke="none" opacity="1"/><circle cx="539" cy="351" r="3" fill="#1F78B4" stroke="none" opacity="1"/><circle cx="548" cy="302" r="3" fill="#1F78B4" stroke="none" opacity="1"/><circle cx="557" cy="261" r="3" fill="#1F78B4" stroke="none" opacity="1"/><circle cx="565" cy="317" r="3" fill="#1F78B4" stroke="none" opacity="1"/><circle cx="574" cy="271" r="3" fill="#1F78B4" stroke="none" opacity="1"/><circle cx="582" cy="267" r="3" fill="#1F78B4" stroke="none" opacity="1"/><circle cx="591" cy="277" r="3" fill="#1F78B4" stroke="none" opacity="1"/><circle cx="599" cy="310" r="3" fill="#1F78B4" stroke="none" opacity="1"/><circle cx="608" cy="313" r="3" fill="#1F78B4" stroke="none" opacity="1"/><circle cx="616" cy="291" r="3" fill="#1F78B4" stroke="none" opacity="1"/><circle cx="625" cy="265" r="3" fill="#1F78B4" stroke="none" opacity="1"/><circle cx="633" cy="268" r="3" fill="#1F78B4" stroke="none" opacity="1"/><circle cx="642" cy="293" r="3" fill="#1F78B4" stroke="none" opacity="1"/><circle cx="651" cy="305" r="3" fill="#1F78B4" stroke="none" opacity="1"/><circle cx="659" cy="309" r="3" fill="#1F78B4" stroke="none" opacity="1"/><circle cx="668" cy="305" r="3" fill="#1F78B4" stroke="none" opacity="1"/><circle cx="676" cy="280" r="3" fill="#1F78B4" stroke="none" opacity="1"/><circle cx="685" cy="232" r="3" fill="#1F78B4" stroke="none" opacity="1"/><circle cx="693" cy="192" r="3" fill="#1F78B4" stroke="none" opacity="1"/><circle cx="702" cy="254" r="3" fill="#1F78B4" stroke="none" opacity="1"/><circle cx="710" cy="291" r="3" fill="#1F78B4" stroke="none" opacity="1"/><circle cx="719" cy="290" r="3" fill="#1F78B4" stroke="none" opacity="1"/><circle cx="727" cy="212" r="3" fill="#1F78B4" stroke="none" opacity="1"/><circle cx="736" cy="241" r="3" fill="#1F78B4" stroke="none" opacity="1"/><circle cx="745" cy="223" r="3" fill="#1F78B4" stroke="none" opacity="1"/><circle cx="753" cy="145" r="3" fill="#1F78B4" stroke="none" opacity="1"/><circle cx="762" cy="264" r="3" fill="#1F78B4" stroke="none" opacity="1"/><circle cx="770" cy="182" r="3" fill="#1F78B4" stroke="none" opacity="1"/><circle cx="779" cy="159" r="3" fill="#1F78B4" stroke="none" opacity="1"/><circle cx="787" cy="245" r="3" fill="#1F78B4" stroke="none" opacity="1"/><circle cx="796" cy="263" r="3" fill="#1F78B4" stroke="none" opacity="1"/><circle cx="804" cy="179" r="3" fill="#1F78B4" stroke="none" opacity="1"/><circle cx="813" cy="209" r="3" fill="#1F78B4" stroke="none" opacity="1"/><circle cx="821" cy="180" r="3" fill="#1F78B4" stroke="none" opacity="1"/><circle cx="830" cy="269" r="3" fill="#1F78B4" stroke="none" opacity="1"/><circle cx="839" cy="188" r="3" fill="#1F78B4" stroke="none" opacity="1"/><circle cx="847" cy="192" r="3" fill="#1F78B4" stroke="none" opacity="1"/><circle cx="856" cy="121" r="3" fill="#1F78B4" stroke="none" opacity="1"/><circle cx="864" cy="53" r="3" fill="#1F78B4" stroke="none" opacity="1"/><circle cx="873" cy="162" r="3" fill="#1F78B4" stroke="none" opacity="1"/><circle cx="881" cy="164" r="3" fill="#1F78B4" stroke="none" opacity="1"/><circle cx="890" cy="243" r="3" fill="#1F78B4" stroke="none" opacity="1"/><circle cx="898" cy="182" r="3" fill="#1F78B4" stroke="none" opacity="1"/><circle cx="907" cy="118" r="3" fill="#1F78B4" stroke="none" opacity="1"/><circle cx="915" cy="196" r="3" fill="#1F78B4" stroke="none" opacity="1"/><circle cx="924" cy="245" r="3" fill="#1F78B4" stroke="none" opacity="1"/><circle cx="933" cy="257" r="3" fill="#1F78B4" stroke="none" opacity="1"/><polyline fill="none" stroke="#1F78B4" stroke-width="1" points="87 473 933 164" opacity="1"/><polygon fill="#1F78B4" points="87 473 933 180 933 149" opacity=".25"/><text x="132" y="68" fill="#000" dy=".76em" font-family="sans-serif" font-size="9.677" opacity="1" text-anchor="start">Sample</text><text x="132" y="83" fill="#000" dy=".76em" font-family="sans-serif" font-size="9.677" opacity="1" text-anchor="start">Linear regression</text><text x="132" y="98" fill="#000" dy=".76em" font-family="sans-serif" font-size="9.677" opacity="1" text-anchor="start">Confidence interval</text><circle cx="112" cy="73" r="3" fill="#1F78B4" stroke="none" opacity="1"/><polyline fill="none" stroke="#1F78B4" stroke-width="2" points="102 88 122 88" opacity="1"/><rect width="20" height="10" x="102" y="98" fill="#1F78B4" stroke="none" opacity=".25"/></svg>