<svg xmlns="http://www.w3.org/2000/svg" width="450" height="300"><text x="15" y="130" fill="#000" dy=".76em" font-family="sans-serif" font-size="9.677" opacity="1" text-anchor="middle" transform="rotate(270, 15, 130)">Total sample time (ms)</text><text x="255" y="285" fill="#000" dy="-.5ex" font-family="sans-serif" font-size="9.677" opacity="1" text-anchor="middle">Iterations (x 10^3)</text><line x1="141" x2="141" y1="244" y2="14" stroke="#000" stroke-width="1" opacity=".2"/><line x1="211" x2="211" y1="244" y2="14" stroke="#000" stroke-width="1" opacity=".2"/><line x1="281" x2="281" y1="244" y2="14" stroke="#000" stroke-width="1" opacity=".2"/><line x1="351" x2="351" y1="244" y2="14" stroke="#000" stroke-width="1" opacity=".2"/><line x1="421" x2="421" y1="244" y2="14" stroke="#000" stroke-width="1" opacity=".2"/><line x1="75" x2="435" y1="200" y2="200" stroke="#000" stroke-width="1" opacity=".2"/><line x1="75" x2="435" y1="155" y2="155" stroke="#000" stroke-width="1" opacity=".2"/><line x1="75" x2="435" y1="109" y2="109" stroke="#000" stroke-width="1" opacity=".2"/><line x1="75" x2="435" y1="64" y2="64" stroke="#000" stroke-width="1" opacity=".2"/><line x1="75" x2="435" y1="18" y2="18" stroke="#000" stroke-width="1" opacity=".2"/><polyline fill="none" stroke="#000" stroke-width="1" points="74 15 74 245" opacity="1"/><text x="65" y="200" fill="#000" dy=".5ex" font-family="sans-serif" font-size="9.677" opacity="1" text-anchor="end">20.0</text><polyline fill="none" stroke="#000" stroke-width="1" points="69 200 74 200" opacity="1"/><text x="65" y="155" fill="#000" dy=".5ex" font-family="sans-serif" font-size="9.677" opacity="1" text-anchor="end">40.0</text><polyline fill="none" stroke="#000" stroke-width="1" points="69 155 74 155" opacity="1"/><text x="65" y="109" fill="#000" dy=".5ex" font-family="sans-serif" font-size="9.677" opacity="1" text-anchor="end">60.0</text><polyline fill="none" stroke="#000" stroke-width="1" points="69 109 74 109" opacity="1"/><text x="65" y="64" fill="#000" dy=".5ex" font-family="sans-serif" font-size="9.677" opacity="1" text-anchor="end">80.0</text><polyline fill="none" stroke="#000" stroke-width="1" points="69 64 74 64" opacity="1"/><text x="65" y="18" fill="#000" dy=".5ex" font-family="sans-serif" font-size="9.677" opacity="1" text-anchor="end">100.0</text><polyline fill="none" stroke="#000" stroke-width="1" points="69 18 74 18" opacity="1"/><polyline fill="none" stroke="#000" stroke-width="1" points="75 245 435 245" opacity="1"/><text x="141" y="255" fill="#000" dy=".76em" font-family="sans-serif" font-size="9.677" opacity="1" text-anchor="middle">0.5</text><polyline fill="none" stroke="#000" stroke-width="1" points="141 245 141 250" opacity="1"/><text x="211" y="255" fill="#000" dy=".76em" font-family="sans-serif" font-size="9.677" opacity="1" text-anchor="middle">1</text><polyline fill="none" stroke="#000" stroke-width="1" points="211 245 211 250" opacity="1"/><text x="281" y="255" fill="#000" dy=".76em" font-family="sans-serif" font-size="9.677" opacity="1" text-anchor="middle">1.5</text><polyline fill="none" stroke="#000" stroke-width="1" points="281 245 281 250" opacity="1"/><text x="351" y="255" fill="#000" dy=".76em" font-family="sans-serif" font-size="9.677" opacity="1" text-anchor="middle">2</text><polyline fill="none" stroke="#000" stroke-width="1" points="351 245 351 250" opacity="1"/><text x="421" y="255" fill="#000" dy=".76em" font-family="sans-serif" font-size="9.677" opacity="1" text-anchor="middle">2.5</text><polyline fill="none" stroke="#000" stroke-width="1" points="421 245 421 250" opacity="1"/><circle cx="75" cy="244" r="3" fill="#1F78B4" stroke="none" opacity="1"/><circle cx="78" cy="241" r="3" fill="#1F78B4" stroke="none" opacity="1"/><circle cx="82" cy="239" r="3" fill="#1F78B4" stroke="none" opacity="1"/><circle cx="85" cy="236" r="3" fill="#1F78B4" stroke="none" opacity="1"/><circle cx="89" cy="234" r="3" fill="#1F78B4" stroke="none" opacity="1"/><circle cx="93" cy="231" r="3" fill="#1F78B4" stroke="none" opacity="1"/><circle cx="96" cy="231" r="3" fill="#1F78B4" stroke="none" opacity="1"/><circle cx="100" cy="227" r="3" fill="#1F78B4" stroke="none" opacity="1"/><circle cx="104" cy="224" r="3" fill="#1F78B4" stroke="none" opacity="1"/><circle cx="107" cy="225" r="3" fill="#1F78B4" stroke="none" opacity="1"/><circle cx="111" cy="220" r="3" fill="#1F78B4" stroke="none" opacity="1"/><circle cx="115" cy="217" r="3" fill="#1F78B4" stroke="none" opacity="1"/><circle cx="118" cy="215" r="3" fill="#1F78B4" stroke="none" opacity="1"/><circle cx="122" cy="212" r="3" fill="#1F78B4" stroke="none" opacity="1"/><circle cx="125" cy="210" r="3" fill="#1F78B4" stroke="none" opacity="1"/><circle cx="129" cy="207" r="3" fill="#1F78B4" stroke="none" opacity="1"/><circle cx="133" cy="205" r="3" fill="#1F78B4" stroke="none" opacity="1"/><circle cx="136" cy="203" r="3" fill="#1F78B4" stroke="none" opacity="1"/><circle cx="140" cy="201" r="3" fill="#1F78B4" stroke="none" opacity="1"/><circle cx="144" cy="198" r="3" fill="#1F78B4" stroke="none" opacity="1"/><circle cx="147" cy="202" r="3" fill="#1F78B4" stroke="none" opacity="1"/><circle cx="151" cy="200" r="3" fill="#1F78B4" stroke="none" opacity="1"/><circle cx="155" cy="192" r="3" fill="#1F78B4" stroke="none" opacity="1"/><circle cx="158" cy="189" r="3" fill="#1F78B4" stroke="none" opacity="1"/><circle cx="162" cy="187" r="3" fill="#1F78B4" stroke="none" opacity="1"/><circle cx="165" cy="181" r="3" fill="#1F78B4" stroke="none" opacity="1"/><circle cx="169" cy="179" r="3" fill="#1F78B4" stroke="none" opacity="1"/><circle cx="173" cy="179" r="3" fill="#1F78B4" stroke="none" opacity="1"/><circle cx="176" cy="175" r="3" fill="#1F78B4" stroke="none" opacity="1"/><circle cx="180" cy="175" r="3" fill="#1F78B4" stroke="none" opacity="1"/><circle cx="184" cy="173" r="3" fill="#1F78B4" stroke="none" opacity="1"/><circle cx="187" cy="170" r="3" fill="#1F78B4" stroke="none" opacity="1"/><circle cx="191" cy="177" r="3" fill="#1F78B4" stroke="none" opacity="1"/><circle cx="195" cy="175" r="3" fill="#1F78B4" stroke="none" opacity="1"/><circle cx="198" cy="173" r="3" fill="#1F78B4" stroke="none" opacity="1"/><circle cx="202" cy="157" r="3" fill="#1F78B4" stroke="none" opacity="1"/><circle cx="205" cy="169" r="3" fill="#1F78B4" stroke="none" opacity="1"/><circle cx="209" cy="157" r="3" fill="#1F78B4" stroke="none" opacity="1"/><circle cx="213" cy="150" r="3" fill="#1F78B4" stroke="none" opacity="1"/><circle cx="216" cy="163" r="3" fill="#1F78B4" stroke="none" opacity="1"/><circle cx="220" cy="145" r="3" fill="#1F78B4" stroke="none" opacity="1"/><circle cx="224" cy="147" r="3" fill="#1F78B4" stroke="none" opacity="1"/><circle cx="227" cy="157" r="3" fill="#1F78B4" stroke="none" opacity="1"/><circle cx="231" cy="155" r="3" fill="#1F78B4" stroke="none" opacity="1"/><circle cx="235" cy="140" r="3" fill="#1F78B4" stroke="none" opacity="1"/><circle cx="238" cy="138" r="3" fill="#1F78B4" stroke="none" opacity="1"/><circle cx="242" cy="144" r="3" fill="#1F78B4" stroke="none" opacity="1"/><circle cx="245" cy="133" r="3" fill="#1F78B4" stroke="none" opacity="1"/><circle cx="249" cy="130" r="3" fill="#1F78B4" stroke="none" opacity="1"/><circle cx="253" cy="128" r="3" fill="#1F78B4" stroke="none" opacity="1"/><circle cx="256" cy="126" r="3" fill="#1F78B4" stroke="none" opacity="1"/><circle cx="260" cy="123" r="3" fill="#1F78B4" stroke="none" opacity="1"/><circle cx="264" cy="121" r="3" fill="#1F78B4" stroke="none" opacity="1"/><circle cx="267" cy="134" r="3" fill="#1F78B4" stroke="none" opacity="1"/><circle cx="271" cy="116" r="3" fill="#1F78B4" stroke="none" opacity="1"/><circle cx="275" cy="130" r="3" fill="#1F78B4" stroke="none" opacity="1"/><circle cx="278" cy="128" r="3" fill="#1F78B4" stroke="none" opacity="1"/><circle cx="282" cy="110" r="3" fill="#1F78B4" stroke="none" opacity="1"/><circle cx="285" cy="100" r="3" fill="#1F78B4" stroke="none" opacity="1"/><circle cx="289" cy="105" r="3" fill="#1F78B4" stroke="none" opacity="1"/><circle cx="293" cy="103" r="3" fill="#1F78B4" stroke="none" opacity="1"/><circle cx="296" cy="100" r="3" fill="#1F78B4" stroke="none" opacity="1"/><circle cx="300" cy="98" r="3" fill="#1F78B4" stroke="none" opacity="1"/><circle cx="304" cy="96" r="3" fill="#1F78B4" stroke="none" opacity="1"/><circle cx="307" cy="93" r="3" fill="#1F78B4" stroke="none" opacity="1"/><circle cx="311" cy="91" r="3" fill="#1F78B4" stroke="none" opacity="1"/><circle cx="315" cy="89" r="3" fill="#1F78B4" stroke="none" opacity="1"/><circle cx="318" cy="86" r="3" fill="#1F78B4" stroke="none" opacity="1"/><circle cx="322" cy="84" r="3" fill="#1F78B4" stroke="none" opacity="1"/><circle cx="325" cy="82" r="3" fill="#1F78B4" stroke="none" opacity="1"/><circle cx="329" cy="78" r="3" fill="#1F78B4" stroke="none" opacity="1"/><circle cx="333" cy="77" r="3" fill="#1F78B4" stroke="none" opacity="1"/><circle cx="336" cy="95" r="3" fill="#1F78B4" stroke="none" opacity="1"/><circle cx="340" cy="71" r="3" fill="#1F78B4" stroke="none" opacity="1"/><circle cx="344" cy="91" r="3" fill="#1F78B4" stroke="none" opacity="1"/><circle cx="347" cy="67" r="3" fill="#1F78B4" stroke="none" opacity="1"/><circle cx="351" cy="86" r="3" fill="#1F78B4" stroke="none" opacity="1"/><circle cx="355" cy="85" r="3" fill="#1F78B4" stroke="none" opacity="1"/><circle cx="358" cy="61" r="3" fill="#1F78B4" stroke="none" opacity="1"/><circle cx="362" cy="57" r="3" fill="#1F78B4" stroke="none" opacity="1"/><circle cx="365" cy="55" r="3" fill="#1F78B4" stroke="none" opacity="1"/><circle cx="369" cy="50" r="3" fill="#1F78B4" stroke="none" opacity="1"/><circle cx="373" cy="51" r="3" fill="#1F78B4" stroke="none" opacity="1"/><circle cx="376" cy="48" r="3" fill="#1F78B4" stroke="none" opacity="1"/><circle cx="380" cy="46" r="3" fill="#1F78B4" stroke="none" opacity="1"/><circle cx="384" cy="44" r="3" fill="#1F78B4" stroke="none" opacity="1"/><circle cx="387" cy="65" r="3" fill="#1F78B4" stroke="none" opacity="1"/><circle cx="391" cy="64" r="3" fill="#1F78B4" stroke="none" opacity="1"/><circle cx="395" cy="33" r="3" fill="#1F78B4" stroke="none" opacity="1"/><circle cx="398" cy="60" r="3" fill="#1F78B4" stroke="none" opacity="1"/><circle cx="402" cy="32" r="3" fill="#1F78B4" stroke="none" opacity="1"/><circle cx="405" cy="29" r="3" fill="#1F78B4" stroke="none" opacity="1"/><circle cx="409" cy="28" r="3" fill="#1F78B4" stroke="none" opacity="1"/><circle cx="413" cy="25" r="3" fill="#1F78B4" stroke="none" opacity="1"/><circle cx="416" cy="21" r="3" fill="#1F78B4" stroke="none" opacity="1"/><circle cx="420" cy="22" r="3" fill="#1F78B4" stroke="none" opacity="1"/><circle cx="424" cy="45" r="3" fill="#1F78B4" stroke="none" opacity="1"/><circle cx="427" cy="15" r="3" fill="#1F78B4" stroke="none" opacity="1"/><circle cx="431" cy="15" r="3" fill="#1F78B4" stroke="none" opacity="1"/><circle cx="435" cy="39" r="3" fill="#1F78B4" stroke="none" opacity="1"/><polyline fill="none" stroke="#1F78B4" stroke-width="1" points="75 245 435 18" opacity="1"/><polygon fill="#1F78B4" points="75 245 435 21 435 15" opacity=".25"/></svg>