<svg xmlns="http://www.w3.org/2000/svg" width="960" height="540"><text x="480" y="32" fill="#000" dy=".76em" font-family="sans-serif" font-size="16.129" opacity="1" text-anchor="middle">bench_group/threads_08/1073741824</text><text x="27" y="263" fill="#000" dy=".76em" font-family="sans-serif" font-size="9.677" opacity="1" text-anchor="middle" transform="rotate(270, 27, 263)">Total sample time (s)</text><text x="510" y="513" fill="#000" dy="-.5ex" font-family="sans-serif" font-size="9.677" opacity="1" text-anchor="middle">Iterations</text><line x1="163" x2="163" y1="472" y2="52" stroke="#000" stroke-width="1" opacity=".2"/><line x1="249" x2="249" y1="472" y2="52" stroke="#000" stroke-width="1" opacity=".2"/><line x1="334" x2="334" y1="472" y2="52" stroke="#000" stroke-width="1" opacity=".2"/><line x1="420" x2="420" y1="472" y2="52" stroke="#000" stroke-width="1" opacity=".2"/><line x1="505" x2="505" y1="472" y2="52" stroke="#000" stroke-width="1" opacity=".2"/><line x1="591" x2="591" y1="472" y2="52" stroke="#000" stroke-width="1" opacity=".2"/><line x1="676" x2="676" y1="472" y2="52" stroke="#000" stroke-width="1" opacity=".2"/><line x1="762" x2="762" y1="472" y2="52" stroke="#000" stroke-width="1" opacity=".2"/><line x1="847" x2="847" y1="472" y2="52" stroke="#000" stroke-width="1" opacity=".2"/><line x1="933" x2="933" y1="472" y2="52" stroke="#000" stroke-width="1" opacity=".2"/><line x1="87" x2="933" y1="392" y2="392" stroke="#000" stroke-width="1" opacity=".2"/><line x1="87" x2="933" y1="309" y2="309" stroke="#000" stroke-width="1" opacity=".2"/><line x1="87" x2="933" y1="226" y2="226" stroke="#000" stroke-width="1" opacity=".2"/><line x1="87" x2="933" y1="143" y2="143" stroke="#000" stroke-width="1" opacity=".2"/><line x1="87" x2="933" y1="60" y2="60" stroke="#000" stroke-width="1" opacity=".2"/><polyline fill="none" stroke="#000" stroke-width="1" points="86 53 86 473" opacity="1"/><text x="77" y="392" fill="#000" dy=".5ex" font-family="sans-serif" font-size="9.677" opacity="1" text-anchor="end">0.5</text><polyline fill="none" stroke="#000" stroke-width="1" points="81 392 86 392" opacity="1"/><text x="77" y="309" fill="#000" dy=".5ex" font-family="sans-serif" font-size="9.677" opacity="1" text-anchor="end">1.0</text><polyline fill="none" stroke="#000" stroke-width="1" points="81 309 86 309" opacity="1"/><text x="77" y="226" fill="#000" dy=".5ex" font-family="sans-serif" font-size="9.677" opacity="1" text-anchor="end">1.5</text><polyline fill="none" stroke="#000" stroke-width="1" points="81 226 86 226" opacity="1"/><text x="77" y="143" fill="#000" dy=".5ex" font-family="sans-serif" font-size="9.677" opacity="1" text-anchor="end">2.0</text><polyline fill="none" stroke="#000" stroke-width="1" points="81 143 86 143" opacity="1"/><text x="77" y="60" fill="#000" dy=".5ex" font-family="sans-serif" font-size="9.677" opacity="1" text-anchor="end">2.5</text><polyline fill="none" stroke="#000" stroke-width="1" points="81 60 86 60" opacity="1"/><polyline fill="none" stroke="#000" stroke-width="1" points="87 473 933 473" opacity="1"/><text x="163" y="483" fill="#000" dy=".76em" font-family="sans-serif" font-size="9.677" opacity="1" text-anchor="middle">10</text><polyline fill="none" stroke="#000" stroke-width="1" points="163 473 163 478" opacity="1"/><text x="249" y="483" fill="#000" dy=".76em" font-family="sans-serif" font-size="9.677" opacity="1" text-anchor="middle">20</text><polyline fill="none" stroke="#000" stroke-width="1" points="249 473 249 478" opacity="1"/><text x="334" y="483" fill="#000" dy=".76em" font-family="sans-serif" font-size="9.677" opacity="1" text-anchor="middle">30</text><polyline fill="none" stroke="#000" stroke-width="1" points="334 473 334 478" opacity="1"/><text x="420" y="483" fill="#000" dy=".76em" font-family="sans-serif" font-size="9.677" opacity="1" text-anchor="middle">40</text><polyline fill="none" stroke="#000" stroke-width="1" points="420 473 420 478" opacity="1"/><text x="505" y="483" fill="#000" dy=".76em" font-family="sans-serif" font-size="9.677" opacity="1" text-anchor="middle">50</text><polyline fill="none" stroke="#000" stroke-width="1" points="505 473 505 478" opacity="1"/><text x="591" y="483" fill="#000" dy=".76em" font-family="sans-serif" font-size="9.677" opacity="1" text-anchor="middle">60</text><polyline fill="none" stroke="#000" stroke-width="1" points="591 473 591 478" opacity="1"/><text x="676" y="483" fill="#000" dy=".76em" font-family="sans-serif" font-size="9.677" opacity="1" text-anchor="middle">70</text><polyline fill="none" stroke="#000" stroke-width="1" points="676 473 676 478" opacity="1"/><text x="762" y="483" fill="#000" dy=".76em" font-family="sans-serif" font-size="9.677" opacity="1" text-anchor="middle">80</text><polyline fill="none" stroke="#000" stroke-width="1" points="762 473 762 478" opacity="1"/><text x="847" y="483" fill="#000" dy=".76em" font-family="sans-serif" font-size="9.677" opacity="1" text-anchor="middle">90</text><polyline fill="none" stroke="#000" stroke-width="1" points="847 473 847 478" opacity="1"/><text x="933" y="483" fill="#000" dy=".76em" font-family="sans-serif" font-size="9.677" opacity="1" text-anchor="middle">100</text><polyline fill="none" stroke="#000" stroke-width="1" points="933 473 933 478" opacity="1"/><circle cx="87" cy="472" r="3" fill="#1F78B4" stroke="none" opacity="1"/><circle cx="95" cy="468" r="3" fill="#1F78B4" stroke="none" opacity="1"/><circle cx="104" cy="464" r="3" fill="#1F78B4" stroke="none" opacity="1"/><circle cx="112" cy="460" r="3" fill="#1F78B4" stroke="none" opacity="1"/><circle cx="121" cy="456" r="3" fill="#1F78B4" stroke="none" opacity="1"/><circle cx="129" cy="452" r="3" fill="#1F78B4" stroke="none" opacity="1"/><circle cx="138" cy="448" r="3" fill="#1F78B4" stroke="none" opacity="1"/><circle cx="146" cy="444" r="3" fill="#1F78B4" stroke="none" opacity="1"/><circle cx="155" cy="440" r="3" fill="#1F78B4" stroke="none" opacity="1"/><circle cx="163" cy="435" r="3" fill="#1F78B4" stroke="none" opacity="1"/><circle cx="172" cy="432" r="3" fill="#1F78B4" stroke="none" opacity="1"/><circle cx="181" cy="428" r="3" fill="#1F78B4" stroke="none" opacity="1"/><circle cx="189" cy="424" r="3" fill="#1F78B4" stroke="none" opacity="1"/><circle cx="198" cy="419" r="3" fill="#1F78B4" stroke="none" opacity="1"/><circle cx="206" cy="416" r="3" fill="#1F78B4" stroke="none" opacity="1"/><circle cx="215" cy="412" r="3" fill="#1F78B4" stroke="none" opacity="1"/><circle cx="223" cy="408" r="3" fill="#1F78B4" stroke="none" opacity="1"/><circle cx="232" cy="404" r="3" fill="#1F78B4" stroke="none" opacity="1"/><circle cx="240" cy="400" r="3" fill="#1F78B4" stroke="none" opacity="1"/><circle cx="249" cy="396" r="3" fill="#1F78B4" stroke="none" opacity="1"/><circle cx="257" cy="391" r="3" fill="#1F78B4" stroke="none" opacity="1"/><circle cx="266" cy="388" r="3" fill="#1F78B4" stroke="none" opacity="1"/><circle cx="275" cy="384" r="3" fill="#1F78B4" stroke="none" opacity="1"/><circle cx="283" cy="380" r="3" fill="#1F78B4" stroke="none" opacity="1"/><circle cx="292" cy="376" r="3" fill="#1F78B4" stroke="none" opacity="1"/><circle cx="300" cy="372" r="3" fill="#1F78B4" stroke="none" opacity="1"/><circle cx="309" cy="367" r="3" fill="#1F78B4" stroke="none" opacity="1"/><circle cx="317" cy="364" r="3" fill="#1F78B4" stroke="none" opacity="1"/><circle cx="326" cy="359" r="3" fill="#1F78B4" stroke="none" opacity="1"/><circle cx="334" cy="356" r="3" fill="#1F78B4" stroke="none" opacity="1"/><circle cx="343" cy="351" r="3" fill="#1F78B4" stroke="none" opacity="1"/><circle cx="351" cy="347" r="3" fill="#1F78B4" stroke="none" opacity="1"/><circle cx="360" cy="344" r="3" fill="#1F78B4" stroke="none" opacity="1"/><circle cx="369" cy="339" r="3" fill="#1F78B4" stroke="none" opacity="1"/><circle cx="377" cy="335" r="3" fill="#1F78B4" stroke="none" opacity="1"/><circle cx="386" cy="332" r="3" fill="#1F78B4" stroke="none" opacity="1"/><circle cx="394" cy="327" r="3" fill="#1F78B4" stroke="none" opacity="1"/><circle cx="403" cy="322" r="3" fill="#1F78B4" stroke="none" opacity="1"/><circle cx="411" cy="319" r="3" fill="#1F78B4" stroke="none" opacity="1"/><circle cx="420" cy="315" r="3" fill="#1F78B4" stroke="none" opacity="1"/><circle cx="428" cy="310" r="3" fill="#1F78B4" stroke="none" opacity="1"/><circle cx="437" cy="306" r="3" fill="#1F78B4" stroke="none" opacity="1"/><circle cx="445" cy="303" r="3" fill="#1F78B4" stroke="none" opacity="1"/><circle cx="454" cy="298" r="3" fill="#1F78B4" stroke="none" opacity="1"/><circle cx="463" cy="294" r="3" fill="#1F78B4" stroke="none" opacity="1"/><circle cx="471" cy="285" r="3" fill="#1F78B4" stroke="none" opacity="1"/><circle cx="480" cy="282" r="3" fill="#1F78B4" stroke="none" opacity="1"/><circle cx="488" cy="280" r="3" fill="#1F78B4" stroke="none" opacity="1"/><circle cx="497" cy="278" r="3" fill="#1F78B4" stroke="none" opacity="1"/><circle cx="505" cy="272" r="3" fill="#1F78B4" stroke="none" opacity="1"/><circle cx="514" cy="265" r="3" fill="#1F78B4" stroke="none" opacity="1"/><circle cx="522" cy="265" r="3" fill="#1F78B4" stroke="none" opacity="1"/><circle cx="531" cy="260" r="3" fill="#1F78B4" stroke="none" opacity="1"/><circle cx="539" cy="256" r="3" fill="#1F78B4" stroke="none" opacity="1"/><circle cx="548" cy="252" r="3" fill="#1F78B4" stroke="none" opacity="1"/><circle cx="557" cy="245" r="3" fill="#1F78B4" stroke="none" opacity="1"/><circle cx="565" cy="239" r="3" fill="#1F78B4" stroke="none" opacity="1"/><circle cx="574" cy="238" r="3" fill="#1F78B4" stroke="none" opacity="1"/><circle cx="582" cy="230" r="3" fill="#1F78B4" stroke="none" opacity="1"/><circle cx="591" cy="226" r="3" fill="#1F78B4" stroke="none" opacity="1"/><circle cx="599" cy="223" r="3" fill="#1F78B4" stroke="none" opacity="1"/><circle cx="608" cy="218" r="3" fill="#1F78B4" stroke="none" opacity="1"/><circle cx="616" cy="218" r="3" fill="#1F78B4" stroke="none" opacity="1"/><circle cx="625" cy="211" r="3" fill="#1F78B4" stroke="none" opacity="1"/><circle cx="633" cy="206" r="3" fill="#1F78B4" stroke="none" opacity="1"/><circle cx="642" cy="201" r="3" fill="#1F78B4" stroke="none" opacity="1"/><circle cx="651" cy="202" r="3" fill="#1F78B4" stroke="none" opacity="1"/><circle cx="659" cy="193" r="3" fill="#1F78B4" stroke="none" opacity="1"/><circle cx="668" cy="186" r="3" fill="#1F78B4" stroke="none" opacity="1"/><circle cx="676" cy="184" r="3" fill="#1F78B4" stroke="none" opacity="1"/><circle cx="685" cy="182" r="3" fill="#1F78B4" stroke="none" opacity="1"/><circle cx="693" cy="180" r="3" fill="#1F78B4" stroke="none" opacity="1"/><circle cx="702" cy="170" r="3" fill="#1F78B4" stroke="none" opacity="1"/><circle cx="710" cy="165" r="3" fill="#1F78B4" stroke="none" opacity="1"/><circle cx="719" cy="169" r="3" fill="#1F78B4" stroke="none" opacity="1"/><circle cx="727" cy="161" r="3" fill="#1F78B4" stroke="none" opacity="1"/><circle cx="736" cy="153" r="3" fill="#1F78B4" stroke="none" opacity="1"/><circle cx="745" cy="151" r="3" fill="#1F78B4" stroke="none" opacity="1"/><circle cx="753" cy="142" r="3" fill="#1F78B4" stroke="none" opacity="1"/><circle cx="762" cy="135" r="3" fill="#1F78B4" stroke="none" opacity="1"/><circle cx="770" cy="133" r="3" fill="#1F78B4" stroke="none" opacity="1"/><circle cx="779" cy="130" r="3" fill="#1F78B4" stroke="none" opacity="1"/><circle cx="787" cy="135" r="3" fill="#1F78B4" stroke="none" opacity="1"/><circle cx="796" cy="124" r="3" fill="#1F78B4" stroke="none" opacity="1"/><circle cx="804" cy="113" r="3" fill="#1F78B4" stroke="none" opacity="1"/><circle cx="813" cy="110" r="3" fill="#1F78B4" stroke="none" opacity="1"/><circle cx="821" cy="119" r="3" fill="#1F78B4" stroke="none" opacity="1"/><circle cx="830" cy="103" r="3" fill="#1F78B4" stroke="none" opacity="1"/><circle cx="839" cy="87" r="3" fill="#1F78B4" stroke="none" opacity="1"/><circle cx="847" cy="94" r="3" fill="#1F78B4" stroke="none" opacity="1"/><circle cx="856" cy="86" r="3" fill="#1F78B4" stroke="none" opacity="1"/><circle cx="864" cy="86" r="3" fill="#1F78B4" stroke="none" opacity="1"/><circle cx="873" cy="81" r="3" fill="#1F78B4" stroke="none" opacity="1"/><circle cx="881" cy="73" r="3" fill="#1F78B4" stroke="none" opacity="1"/><circle cx="890" cy="80" r="3" fill="#1F78B4" stroke="none" opacity="1"/><circle cx="898" cy="72" r="3" fill="#1F78B4" stroke="none" opacity="1"/><circle cx="907" cy="64" r="3" fill="#1F78B4" stroke="none" opacity="1"/><circle cx="915" cy="60" r="3" fill="#1F78B4" stroke="none" opacity="1"/><circle cx="924" cy="53" r="3" fill="#1F78B4" stroke="none" opacity="1"/><circle cx="933" cy="53" r="3" fill="#1F78B4" stroke="none" opacity="1"/><polyline fill="none" stroke="#1F78B4" stroke-width="1" points="87 473 933 58" opacity="1"/><polygon fill="#1F78B4" points="87 473 933 60 933 56" opacity=".25"/><text x="132" y="68" fill="#000" dy=".76em" font-family="sans-serif" font-size="9.677" opacity="1" text-anchor="start">Sample</text><text x="132" y="83" fill="#000" dy=".76em" font-family="sans-serif" font-size="9.677" opacity="1" text-anchor="start">Linear regression</text><text x="132" y="98" fill="#000" dy=".76em" font-family="sans-serif" font-size="9.677" opacity="1" text-anchor="start">Confidence interval</text><circle cx="112" cy="73" r="3" fill="#1F78B4" stroke="none" opacity="1"/><polyline fill="none" stroke="#1F78B4" stroke-width="2" points="102 88 122 88" opacity="1"/><rect width="20" height="10" x="102" y="98" fill="#1F78B4" stroke="none" opacity=".25"/></svg>