<svg xmlns="http://www.w3.org/2000/svg" width="960" height="540"><text x="480" y="32" fill="#000" dy=".76em" font-family="sans-serif" font-size="16.129" opacity="1" text-anchor="middle">bench_group/threads_48/65536</text><text x="27" y="263" fill="#000" dy=".76em" font-family="sans-serif" font-size="9.677" opacity="1" text-anchor="middle" transform="rotate(270, 27, 263)">Total sample time (ms)</text><text x="510" y="513" fill="#000" dy="-.5ex" font-family="sans-serif" font-size="9.677" opacity="1" text-anchor="middle">Iterations (x 10^3)</text><line x1="188" x2="188" y1="472" y2="52" stroke="#000" stroke-width="1" opacity=".2"/><line x1="297" x2="297" y1="472" y2="52" stroke="#000" stroke-width="1" opacity=".2"/><line x1="407" x2="407" y1="472" y2="52" stroke="#000" stroke-width="1" opacity=".2"/><line x1="516" x2="516" y1="472" y2="52" stroke="#000" stroke-width="1" opacity=".2"/><line x1="626" x2="626" y1="472" y2="52" stroke="#000" stroke-width="1" opacity=".2"/><line x1="735" x2="735" y1="472" y2="52" stroke="#000" stroke-width="1" opacity=".2"/><line x1="845" x2="845" y1="472" y2="52" stroke="#000" stroke-width="1" opacity=".2"/><line x1="87" x2="933" y1="431" y2="431" stroke="#000" stroke-width="1" opacity=".2"/><line x1="87" x2="933" y1="386" y2="386" stroke="#000" stroke-width="1" opacity=".2"/><line x1="87" x2="933" y1="342" y2="342" stroke="#000" stroke-width="1" opacity=".2"/><line x1="87" x2="933" y1="297" y2="297" stroke="#000" stroke-width="1" opacity=".2"/><line x1="87" x2="933" y1="252" y2="252" stroke="#000" stroke-width="1" opacity=".2"/><line x1="87" x2="933" y1="208" y2="208" stroke="#000" stroke-width="1" opacity=".2"/><line x1="87" x2="933" y1="163" y2="163" stroke="#000" stroke-width="1" opacity=".2"/><line x1="87" x2="933" y1="119" y2="119" stroke="#000" stroke-width="1" opacity=".2"/><line x1="87" x2="933" y1="74" y2="74" stroke="#000" stroke-width="1" opacity=".2"/><polyline fill="none" stroke="#000" stroke-width="1" points="86 53 86 473" opacity="1"/><text x="77" y="431" fill="#000" dy=".5ex" font-family="sans-serif" font-size="9.677" opacity="1" text-anchor="end">10.0</text><polyline fill="none" stroke="#000" stroke-width="1" points="81 431 86 431" opacity="1"/><text x="77" y="386" fill="#000" dy=".5ex" font-family="sans-serif" font-size="9.677" opacity="1" text-anchor="end">20.0</text><polyline fill="none" stroke="#000" stroke-width="1" points="81 386 86 386" opacity="1"/><text x="77" y="342" fill="#000" dy=".5ex" font-family="sans-serif" font-size="9.677" opacity="1" text-anchor="end">30.0</text><polyline fill="none" stroke="#000" stroke-width="1" points="81 342 86 342" opacity="1"/><text x="77" y="297" fill="#000" dy=".5ex" font-family="sans-serif" font-size="9.677" opacity="1" text-anchor="end">40.0</text><polyline fill="none" stroke="#000" stroke-width="1" points="81 297 86 297" opacity="1"/><text x="77" y="252" fill="#000" dy=".5ex" font-family="sans-serif" font-size="9.677" opacity="1" text-anchor="end">50.0</text><polyline fill="none" stroke="#000" stroke-width="1" points="81 252 86 252" opacity="1"/><text x="77" y="208" fill="#000" dy=".5ex" font-family="sans-serif" font-size="9.677" opacity="1" text-anchor="end">60.0</text><polyline fill="none" stroke="#000" stroke-width="1" points="81 208 86 208" opacity="1"/><text x="77" y="163" fill="#000" dy=".5ex" font-family="sans-serif" font-size="9.677" opacity="1" text-anchor="end">70.0</text><polyline fill="none" stroke="#000" stroke-width="1" points="81 163 86 163" opacity="1"/><text x="77" y="119" fill="#000" dy=".5ex" font-family="sans-serif" font-size="9.677" opacity="1" text-anchor="end">80.0</text><polyline fill="none" stroke="#000" stroke-width="1" points="81 119 86 119" opacity="1"/><text x="77" y="74" fill="#000" dy=".5ex" font-family="sans-serif" font-size="9.677" opacity="1" text-anchor="end">90.0</text><polyline fill="none" stroke="#000" stroke-width="1" points="81 74 86 74" opacity="1"/><polyline fill="none" stroke="#000" stroke-width="1" points="87 473 933 473" opacity="1"/><text x="188" y="483" fill="#000" dy=".76em" font-family="sans-serif" font-size="9.677" opacity="1" text-anchor="middle">0.5</text><polyline fill="none" stroke="#000" stroke-width="1" points="188 473 188 478" opacity="1"/><text x="297" y="483" fill="#000" dy=".76em" font-family="sans-serif" font-size="9.677" opacity="1" text-anchor="middle">1</text><polyline fill="none" stroke="#000" stroke-width="1" points="297 473 297 478" opacity="1"/><text x="407" y="483" fill="#000" dy=".76em" font-family="sans-serif" font-size="9.677" opacity="1" text-anchor="middle">1.5</text><polyline fill="none" stroke="#000" stroke-width="1" points="407 473 407 478" opacity="1"/><text x="516" y="483" fill="#000" dy=".76em" font-family="sans-serif" font-size="9.677" opacity="1" text-anchor="middle">2</text><polyline fill="none" stroke="#000" stroke-width="1" points="516 473 516 478" opacity="1"/><text x="626" y="483" fill="#000" dy=".76em" font-family="sans-serif" font-size="9.677" opacity="1" text-anchor="middle">2.5</text><polyline fill="none" stroke="#000" stroke-width="1" points="626 473 626 478" opacity="1"/><text x="735" y="483" fill="#000" dy=".76em" font-family="sans-serif" font-size="9.677" opacity="1" text-anchor="middle">3</text><polyline fill="none" stroke="#000" stroke-width="1" points="735 473 735 478" opacity="1"/><text x="845" y="483" fill="#000" dy=".76em" font-family="sans-serif" font-size="9.677" opacity="1" text-anchor="middle">3.5</text><polyline fill="none" stroke="#000" stroke-width="1" points="845 473 845 478" opacity="1"/><circle cx="87" cy="472" r="3" fill="#1F78B4" stroke="none" opacity="1"/><circle cx="95" cy="466" r="3" fill="#1F78B4" stroke="none" opacity="1"/><circle cx="104" cy="462" r="3" fill="#1F78B4" stroke="none" opacity="1"/><circle cx="112" cy="461" r="3" fill="#1F78B4" stroke="none" opacity="1"/><circle cx="121" cy="454" r="3" fill="#1F78B4" stroke="none" opacity="1"/><circle cx="129" cy="453" r="3" fill="#1F78B4" stroke="none" opacity="1"/><circle cx="138" cy="451" r="3" fill="#1F78B4" stroke="none" opacity="1"/><circle cx="146" cy="446" r="3" fill="#1F78B4" stroke="none" opacity="1"/><circle cx="155" cy="442" r="3" fill="#1F78B4" stroke="none" opacity="1"/><circle cx="163" cy="429" r="3" fill="#1F78B4" stroke="none" opacity="1"/><circle cx="172" cy="438" r="3" fill="#1F78B4" stroke="none" opacity="1"/><circle cx="181" cy="424" r="3" fill="#1F78B4" stroke="none" opacity="1"/><circle cx="189" cy="426" r="3" fill="#1F78B4" stroke="none" opacity="1"/><circle cx="198" cy="419" r="3" fill="#1F78B4" stroke="none" opacity="1"/><circle cx="206" cy="414" r="3" fill="#1F78B4" stroke="none" opacity="1"/><circle cx="215" cy="417" r="3" fill="#1F78B4" stroke="none" opacity="1"/><circle cx="223" cy="420" r="3" fill="#1F78B4" stroke="none" opacity="1"/><circle cx="232" cy="409" r="3" fill="#1F78B4" stroke="none" opacity="1"/><circle cx="240" cy="387" r="3" fill="#1F78B4" stroke="none" opacity="1"/><circle cx="249" cy="398" r="3" fill="#1F78B4" stroke="none" opacity="1"/><circle cx="257" cy="391" r="3" fill="#1F78B4" stroke="none" opacity="1"/><circle cx="266" cy="389" r="3" fill="#1F78B4" stroke="none" opacity="1"/><circle cx="275" cy="398" r="3" fill="#1F78B4" stroke="none" opacity="1"/><circle cx="283" cy="387" r="3" fill="#1F78B4" stroke="none" opacity="1"/><circle cx="292" cy="371" r="3" fill="#1F78B4" stroke="none" opacity="1"/><circle cx="300" cy="369" r="3" fill="#1F78B4" stroke="none" opacity="1"/><circle cx="309" cy="372" r="3" fill="#1F78B4" stroke="none" opacity="1"/><circle cx="317" cy="361" r="3" fill="#1F78B4" stroke="none" opacity="1"/><circle cx="326" cy="379" r="3" fill="#1F78B4" stroke="none" opacity="1"/><circle cx="334" cy="343" r="3" fill="#1F78B4" stroke="none" opacity="1"/><circle cx="343" cy="359" r="3" fill="#1F78B4" stroke="none" opacity="1"/><circle cx="351" cy="367" r="3" fill="#1F78B4" stroke="none" opacity="1"/><circle cx="360" cy="316" r="3" fill="#1F78B4" stroke="none" opacity="1"/><circle cx="369" cy="353" r="3" fill="#1F78B4" stroke="none" opacity="1"/><circle cx="377" cy="324" r="3" fill="#1F78B4" stroke="none" opacity="1"/><circle cx="386" cy="340" r="3" fill="#1F78B4" stroke="none" opacity="1"/><circle cx="394" cy="327" r="3" fill="#1F78B4" stroke="none" opacity="1"/><circle cx="403" cy="315" r="3" fill="#1F78B4" stroke="none" opacity="1"/><circle cx="411" cy="321" r="3" fill="#1F78B4" stroke="none" opacity="1"/><circle cx="420" cy="336" r="3" fill="#1F78B4" stroke="none" opacity="1"/><circle cx="428" cy="318" r="3" fill="#1F78B4" stroke="none" opacity="1"/><circle cx="437" cy="307" r="3" fill="#1F78B4" stroke="none" opacity="1"/><circle cx="445" cy="320" r="3" fill="#1F78B4" stroke="none" opacity="1"/><circle cx="454" cy="310" r="3" fill="#1F78B4" stroke="none" opacity="1"/><circle cx="463" cy="280" r="3" fill="#1F78B4" stroke="none" opacity="1"/><circle cx="471" cy="287" r="3" fill="#1F78B4" stroke="none" opacity="1"/><circle cx="480" cy="319" r="3" fill="#1F78B4" stroke="none" opacity="1"/><circle cx="488" cy="273" r="3" fill="#1F78B4" stroke="none" opacity="1"/><circle cx="497" cy="291" r="3" fill="#1F78B4" stroke="none" opacity="1"/><circle cx="505" cy="300" r="3" fill="#1F78B4" stroke="none" opacity="1"/><circle cx="514" cy="278" r="3" fill="#1F78B4" stroke="none" opacity="1"/><circle cx="522" cy="314" r="3" fill="#1F78B4" stroke="none" opacity="1"/><circle cx="531" cy="303" r="3" fill="#1F78B4" stroke="none" opacity="1"/><circle cx="539" cy="266" r="3" fill="#1F78B4" stroke="none" opacity="1"/><circle cx="548" cy="280" r="3" fill="#1F78B4" stroke="none" opacity="1"/><circle cx="557" cy="286" r="3" fill="#1F78B4" stroke="none" opacity="1"/><circle cx="565" cy="256" r="3" fill="#1F78B4" stroke="none" opacity="1"/><circle cx="574" cy="275" r="3" fill="#1F78B4" stroke="none" opacity="1"/><circle cx="582" cy="242" r="3" fill="#1F78B4" stroke="none" opacity="1"/><circle cx="591" cy="235" r="3" fill="#1F78B4" stroke="none" opacity="1"/><circle cx="599" cy="264" r="3" fill="#1F78B4" stroke="none" opacity="1"/><circle cx="608" cy="269" r="3" fill="#1F78B4" stroke="none" opacity="1"/><circle cx="616" cy="240" r="3" fill="#1F78B4" stroke="none" opacity="1"/><circle cx="625" cy="229" r="3" fill="#1F78B4" stroke="none" opacity="1"/><circle cx="633" cy="234" r="3" fill="#1F78B4" stroke="none" opacity="1"/><circle cx="642" cy="210" r="3" fill="#1F78B4" stroke="none" opacity="1"/><circle cx="651" cy="193" r="3" fill="#1F78B4" stroke="none" opacity="1"/><circle cx="659" cy="254" r="3" fill="#1F78B4" stroke="none" opacity="1"/><circle cx="668" cy="183" r="3" fill="#1F78B4" stroke="none" opacity="1"/><circle cx="676" cy="207" r="3" fill="#1F78B4" stroke="none" opacity="1"/><circle cx="685" cy="108" r="3" fill="#1F78B4" stroke="none" opacity="1"/><circle cx="693" cy="196" r="3" fill="#1F78B4" stroke="none" opacity="1"/><circle cx="702" cy="228" r="3" fill="#1F78B4" stroke="none" opacity="1"/><circle cx="710" cy="240" r="3" fill="#1F78B4" stroke="none" opacity="1"/><circle cx="719" cy="236" r="3" fill="#1F78B4" stroke="none" opacity="1"/><circle cx="727" cy="180" r="3" fill="#1F78B4" stroke="none" opacity="1"/><circle cx="736" cy="194" r="3" fill="#1F78B4" stroke="none" opacity="1"/><circle cx="745" cy="234" r="3" fill="#1F78B4" stroke="none" opacity="1"/><circle cx="753" cy="197" r="3" fill="#1F78B4" stroke="none" opacity="1"/><circle cx="762" cy="129" r="3" fill="#1F78B4" stroke="none" opacity="1"/><circle cx="770" cy="138" r="3" fill="#1F78B4" stroke="none" opacity="1"/><circle cx="779" cy="159" r="3" fill="#1F78B4" stroke="none" opacity="1"/><circle cx="787" cy="146" r="3" fill="#1F78B4" stroke="none" opacity="1"/><circle cx="796" cy="173" r="3" fill="#1F78B4" stroke="none" opacity="1"/><circle cx="804" cy="197" r="3" fill="#1F78B4" stroke="none" opacity="1"/><circle cx="813" cy="171" r="3" fill="#1F78B4" stroke="none" opacity="1"/><circle cx="821" cy="152" r="3" fill="#1F78B4" stroke="none" opacity="1"/><circle cx="830" cy="89" r="3" fill="#1F78B4" stroke="none" opacity="1"/><circle cx="839" cy="53" r="3" fill="#1F78B4" stroke="none" opacity="1"/><circle cx="847" cy="141" r="3" fill="#1F78B4" stroke="none" opacity="1"/><circle cx="856" cy="98" r="3" fill="#1F78B4" stroke="none" opacity="1"/><circle cx="864" cy="156" r="3" fill="#1F78B4" stroke="none" opacity="1"/><circle cx="873" cy="117" r="3" fill="#1F78B4" stroke="none" opacity="1"/><circle cx="881" cy="163" r="3" fill="#1F78B4" stroke="none" opacity="1"/><circle cx="890" cy="140" r="3" fill="#1F78B4" stroke="none" opacity="1"/><circle cx="898" cy="160" r="3" fill="#1F78B4" stroke="none" opacity="1"/><circle cx="907" cy="150" r="3" fill="#1F78B4" stroke="none" opacity="1"/><circle cx="915" cy="141" r="3" fill="#1F78B4" stroke="none" opacity="1"/><circle cx="924" cy="128" r="3" fill="#1F78B4" stroke="none" opacity="1"/><circle cx="933" cy="97" r="3" fill="#1F78B4" stroke="none" opacity="1"/><polyline fill="none" stroke="#1F78B4" stroke-width="1" points="87 473 933 101" opacity="1"/><polygon fill="#1F78B4" points="87 473 933 112 933 90" opacity=".25"/><text x="132" y="68" fill="#000" dy=".76em" font-family="sans-serif" font-size="9.677" opacity="1" text-anchor="start">Sample</text><text x="132" y="83" fill="#000" dy=".76em" font-family="sans-serif" font-size="9.677" opacity="1" text-anchor="start">Linear regression</text><text x="132" y="98" fill="#000" dy=".76em" font-family="sans-serif" font-size="9.677" opacity="1" text-anchor="start">Confidence interval</text><circle cx="112" cy="73" r="3" fill="#1F78B4" stroke="none" opacity="1"/><polyline fill="none" stroke="#1F78B4" stroke-width="2" points="102 88 122 88" opacity="1"/><rect width="20" height="10" x="102" y="98" fill="#1F78B4" stroke="none" opacity=".25"/></svg>