<svg xmlns="http://www.w3.org/2000/svg" width="960" height="540"><text x="480" y="32" fill="#000" dy=".76em" font-family="sans-serif" font-size="16.129" opacity="1" text-anchor="middle">bench_group/threads_16/262144</text><text x="27" y="263" fill="#000" dy=".76em" font-family="sans-serif" font-size="9.677" opacity="1" text-anchor="middle" transform="rotate(270, 27, 263)">Total sample time (ms)</text><text x="510" y="513" fill="#000" dy="-.5ex" font-family="sans-serif" font-size="9.677" opacity="1" text-anchor="middle">Iterations (x 10^3)</text><line x1="195" x2="195" y1="472" y2="52" stroke="#000" stroke-width="1" opacity=".2"/><line x1="312" x2="312" y1="472" y2="52" stroke="#000" stroke-width="1" opacity=".2"/><line x1="429" x2="429" y1="472" y2="52" stroke="#000" stroke-width="1" opacity=".2"/><line x1="546" x2="546" y1="472" y2="52" stroke="#000" stroke-width="1" opacity=".2"/><line x1="663" x2="663" y1="472" y2="52" stroke="#000" stroke-width="1" opacity=".2"/><line x1="780" x2="780" y1="472" y2="52" stroke="#000" stroke-width="1" opacity=".2"/><line x1="897" x2="897" y1="472" y2="52" stroke="#000" stroke-width="1" opacity=".2"/><line x1="87" x2="933" y1="432" y2="432" stroke="#000" stroke-width="1" opacity=".2"/><line x1="87" x2="933" y1="388" y2="388" stroke="#000" stroke-width="1" opacity=".2"/><line x1="87" x2="933" y1="345" y2="345" stroke="#000" stroke-width="1" opacity=".2"/><line x1="87" x2="933" y1="301" y2="301" stroke="#000" stroke-width="1" opacity=".2"/><line x1="87" x2="933" y1="257" y2="257" stroke="#000" stroke-width="1" opacity=".2"/><line x1="87" x2="933" y1="214" y2="214" stroke="#000" stroke-width="1" opacity=".2"/><line x1="87" x2="933" y1="170" y2="170" stroke="#000" stroke-width="1" opacity=".2"/><line x1="87" x2="933" y1="126" y2="126" stroke="#000" stroke-width="1" opacity=".2"/><line x1="87" x2="933" y1="83" y2="83" stroke="#000" stroke-width="1" opacity=".2"/><polyline fill="none" stroke="#000" stroke-width="1" points="86 53 86 473" opacity="1"/><text x="77" y="432" fill="#000" dy=".5ex" font-family="sans-serif" font-size="9.677" opacity="1" text-anchor="end">10.0</text><polyline fill="none" stroke="#000" stroke-width="1" points="81 432 86 432" opacity="1"/><text x="77" y="388" fill="#000" dy=".5ex" font-family="sans-serif" font-size="9.677" opacity="1" text-anchor="end">20.0</text><polyline fill="none" stroke="#000" stroke-width="1" points="81 388 86 388" opacity="1"/><text x="77" y="345" fill="#000" dy=".5ex" font-family="sans-serif" font-size="9.677" opacity="1" text-anchor="end">30.0</text><polyline fill="none" stroke="#000" stroke-width="1" points="81 345 86 345" opacity="1"/><text x="77" y="301" fill="#000" dy=".5ex" font-family="sans-serif" font-size="9.677" opacity="1" text-anchor="end">40.0</text><polyline fill="none" stroke="#000" stroke-width="1" points="81 301 86 301" opacity="1"/><text x="77" y="257" fill="#000" dy=".5ex" font-family="sans-serif" font-size="9.677" opacity="1" text-anchor="end">50.0</text><polyline fill="none" stroke="#000" stroke-width="1" points="81 257 86 257" opacity="1"/><text x="77" y="214" fill="#000" dy=".5ex" font-family="sans-serif" font-size="9.677" opacity="1" text-anchor="end">60.0</text><polyline fill="none" stroke="#000" stroke-width="1" points="81 214 86 214" opacity="1"/><text x="77" y="170" fill="#000" dy=".5ex" font-family="sans-serif" font-size="9.677" opacity="1" text-anchor="end">70.0</text><polyline fill="none" stroke="#000" stroke-width="1" points="81 170 86 170" opacity="1"/><text x="77" y="126" fill="#000" dy=".5ex" font-family="sans-serif" font-size="9.677" opacity="1" text-anchor="end">80.0</text><polyline fill="none" stroke="#000" stroke-width="1" points="81 126 86 126" opacity="1"/><text x="77" y="83" fill="#000" dy=".5ex" font-family="sans-serif" font-size="9.677" opacity="1" text-anchor="end">90.0</text><polyline fill="none" stroke="#000" stroke-width="1" points="81 83 86 83" opacity="1"/><polyline fill="none" stroke="#000" stroke-width="1" points="87 473 933 473" opacity="1"/><text x="195" y="483" fill="#000" dy=".76em" font-family="sans-serif" font-size="9.677" opacity="1" text-anchor="middle">1</text><polyline fill="none" stroke="#000" stroke-width="1" points="195 473 195 478" opacity="1"/><text x="312" y="483" fill="#000" dy=".76em" font-family="sans-serif" font-size="9.677" opacity="1" text-anchor="middle">2</text><polyline fill="none" stroke="#000" stroke-width="1" points="312 473 312 478" opacity="1"/><text x="429" y="483" fill="#000" dy=".76em" font-family="sans-serif" font-size="9.677" opacity="1" text-anchor="middle">3</text><polyline fill="none" stroke="#000" stroke-width="1" points="429 473 429 478" opacity="1"/><text x="546" y="483" fill="#000" dy=".76em" font-family="sans-serif" font-size="9.677" opacity="1" text-anchor="middle">4</text><polyline fill="none" stroke="#000" stroke-width="1" points="546 473 546 478" opacity="1"/><text x="663" y="483" fill="#000" dy=".76em" font-family="sans-serif" font-size="9.677" opacity="1" text-anchor="middle">5</text><polyline fill="none" stroke="#000" stroke-width="1" points="663 473 663 478" opacity="1"/><text x="780" y="483" fill="#000" dy=".76em" font-family="sans-serif" font-size="9.677" opacity="1" text-anchor="middle">6</text><polyline fill="none" stroke="#000" stroke-width="1" points="780 473 780 478" opacity="1"/><text x="897" y="483" fill="#000" dy=".76em" font-family="sans-serif" font-size="9.677" opacity="1" text-anchor="middle">7</text><polyline fill="none" stroke="#000" stroke-width="1" points="897 473 897 478" opacity="1"/><circle cx="87" cy="472" r="3" fill="#1F78B4" stroke="none" opacity="1"/><circle cx="95" cy="468" r="3" fill="#1F78B4" stroke="none" opacity="1"/><circle cx="104" cy="465" r="3" fill="#1F78B4" stroke="none" opacity="1"/><circle cx="112" cy="461" r="3" fill="#1F78B4" stroke="none" opacity="1"/><circle cx="121" cy="456" r="3" fill="#1F78B4" stroke="none" opacity="1"/><circle cx="129" cy="453" r="3" fill="#1F78B4" stroke="none" opacity="1"/><circle cx="138" cy="449" r="3" fill="#1F78B4" stroke="none" opacity="1"/><circle cx="146" cy="444" r="3" fill="#1F78B4" stroke="none" opacity="1"/><circle cx="155" cy="443" r="3" fill="#1F78B4" stroke="none" opacity="1"/><circle cx="163" cy="439" r="3" fill="#1F78B4" stroke="none" opacity="1"/><circle cx="172" cy="435" r="3" fill="#1F78B4" stroke="none" opacity="1"/><circle cx="181" cy="430" r="3" fill="#1F78B4" stroke="none" opacity="1"/><circle cx="189" cy="427" r="3" fill="#1F78B4" stroke="none" opacity="1"/><circle cx="198" cy="423" r="3" fill="#1F78B4" stroke="none" opacity="1"/><circle cx="206" cy="420" r="3" fill="#1F78B4" stroke="none" opacity="1"/><circle cx="215" cy="416" r="3" fill="#1F78B4" stroke="none" opacity="1"/><circle cx="223" cy="414" r="3" fill="#1F78B4" stroke="none" opacity="1"/><circle cx="232" cy="408" r="3" fill="#1F78B4" stroke="none" opacity="1"/><circle cx="240" cy="405" r="3" fill="#1F78B4" stroke="none" opacity="1"/><circle cx="249" cy="401" r="3" fill="#1F78B4" stroke="none" opacity="1"/><circle cx="257" cy="398" r="3" fill="#1F78B4" stroke="none" opacity="1"/><circle cx="266" cy="393" r="3" fill="#1F78B4" stroke="none" opacity="1"/><circle cx="275" cy="391" r="3" fill="#1F78B4" stroke="none" opacity="1"/><circle cx="283" cy="387" r="3" fill="#1F78B4" stroke="none" opacity="1"/><circle cx="292" cy="383" r="3" fill="#1F78B4" stroke="none" opacity="1"/><circle cx="300" cy="379" r="3" fill="#1F78B4" stroke="none" opacity="1"/><circle cx="309" cy="376" r="3" fill="#1F78B4" stroke="none" opacity="1"/><circle cx="317" cy="372" r="3" fill="#1F78B4" stroke="none" opacity="1"/><circle cx="326" cy="369" r="3" fill="#1F78B4" stroke="none" opacity="1"/><circle cx="334" cy="366" r="3" fill="#1F78B4" stroke="none" opacity="1"/><circle cx="343" cy="361" r="3" fill="#1F78B4" stroke="none" opacity="1"/><circle cx="351" cy="330" r="3" fill="#1F78B4" stroke="none" opacity="1"/><circle cx="360" cy="352" r="3" fill="#1F78B4" stroke="none" opacity="1"/><circle cx="369" cy="349" r="3" fill="#1F78B4" stroke="none" opacity="1"/><circle cx="377" cy="341" r="3" fill="#1F78B4" stroke="none" opacity="1"/><circle cx="386" cy="338" r="3" fill="#1F78B4" stroke="none" opacity="1"/><circle cx="394" cy="339" r="3" fill="#1F78B4" stroke="none" opacity="1"/><circle cx="403" cy="336" r="3" fill="#1F78B4" stroke="none" opacity="1"/><circle cx="411" cy="332" r="3" fill="#1F78B4" stroke="none" opacity="1"/><circle cx="420" cy="329" r="3" fill="#1F78B4" stroke="none" opacity="1"/><circle cx="428" cy="322" r="3" fill="#1F78B4" stroke="none" opacity="1"/><circle cx="437" cy="319" r="3" fill="#1F78B4" stroke="none" opacity="1"/><circle cx="445" cy="316" r="3" fill="#1F78B4" stroke="none" opacity="1"/><circle cx="454" cy="312" r="3" fill="#1F78B4" stroke="none" opacity="1"/><circle cx="463" cy="311" r="3" fill="#1F78B4" stroke="none" opacity="1"/><circle cx="471" cy="305" r="3" fill="#1F78B4" stroke="none" opacity="1"/><circle cx="480" cy="300" r="3" fill="#1F78B4" stroke="none" opacity="1"/><circle cx="488" cy="299" r="3" fill="#1F78B4" stroke="none" opacity="1"/><circle cx="497" cy="256" r="3" fill="#1F78B4" stroke="none" opacity="1"/><circle cx="505" cy="293" r="3" fill="#1F78B4" stroke="none" opacity="1"/><circle cx="514" cy="288" r="3" fill="#1F78B4" stroke="none" opacity="1"/><circle cx="522" cy="282" r="3" fill="#1F78B4" stroke="none" opacity="1"/><circle cx="531" cy="284" r="3" fill="#1F78B4" stroke="none" opacity="1"/><circle cx="539" cy="280" r="3" fill="#1F78B4" stroke="none" opacity="1"/><circle cx="548" cy="276" r="3" fill="#1F78B4" stroke="none" opacity="1"/><circle cx="557" cy="267" r="3" fill="#1F78B4" stroke="none" opacity="1"/><circle cx="565" cy="263" r="3" fill="#1F78B4" stroke="none" opacity="1"/><circle cx="574" cy="264" r="3" fill="#1F78B4" stroke="none" opacity="1"/><circle cx="582" cy="262" r="3" fill="#1F78B4" stroke="none" opacity="1"/><circle cx="591" cy="257" r="3" fill="#1F78B4" stroke="none" opacity="1"/><circle cx="599" cy="254" r="3" fill="#1F78B4" stroke="none" opacity="1"/><circle cx="608" cy="194" r="3" fill="#1F78B4" stroke="none" opacity="1"/><circle cx="616" cy="239" r="3" fill="#1F78B4" stroke="none" opacity="1"/><circle cx="625" cy="243" r="3" fill="#1F78B4" stroke="none" opacity="1"/><circle cx="633" cy="232" r="3" fill="#1F78B4" stroke="none" opacity="1"/><circle cx="642" cy="234" r="3" fill="#1F78B4" stroke="none" opacity="1"/><circle cx="651" cy="232" r="3" fill="#1F78B4" stroke="none" opacity="1"/><circle cx="659" cy="222" r="3" fill="#1F78B4" stroke="none" opacity="1"/><circle cx="668" cy="219" r="3" fill="#1F78B4" stroke="none" opacity="1"/><circle cx="676" cy="217" r="3" fill="#1F78B4" stroke="none" opacity="1"/><circle cx="685" cy="214" r="3" fill="#1F78B4" stroke="none" opacity="1"/><circle cx="693" cy="173" r="3" fill="#1F78B4" stroke="none" opacity="1"/><circle cx="702" cy="208" r="3" fill="#1F78B4" stroke="none" opacity="1"/><circle cx="710" cy="206" r="3" fill="#1F78B4" stroke="none" opacity="1"/><circle cx="719" cy="196" r="3" fill="#1F78B4" stroke="none" opacity="1"/><circle cx="727" cy="197" r="3" fill="#1F78B4" stroke="none" opacity="1"/><circle cx="736" cy="192" r="3" fill="#1F78B4" stroke="none" opacity="1"/><circle cx="745" cy="188" r="3" fill="#1F78B4" stroke="none" opacity="1"/><circle cx="753" cy="181" r="3" fill="#1F78B4" stroke="none" opacity="1"/><circle cx="762" cy="177" r="3" fill="#1F78B4" stroke="none" opacity="1"/><circle cx="770" cy="153" r="3" fill="#1F78B4" stroke="none" opacity="1"/><circle cx="779" cy="176" r="3" fill="#1F78B4" stroke="none" opacity="1"/><circle cx="787" cy="174" r="3" fill="#1F78B4" stroke="none" opacity="1"/><circle cx="796" cy="167" r="3" fill="#1F78B4" stroke="none" opacity="1"/><circle cx="804" cy="166" r="3" fill="#1F78B4" stroke="none" opacity="1"/><circle cx="813" cy="164" r="3" fill="#1F78B4" stroke="none" opacity="1"/><circle cx="821" cy="158" r="3" fill="#1F78B4" stroke="none" opacity="1"/><circle cx="830" cy="152" r="3" fill="#1F78B4" stroke="none" opacity="1"/><circle cx="839" cy="146" r="3" fill="#1F78B4" stroke="none" opacity="1"/><circle cx="847" cy="53" r="3" fill="#1F78B4" stroke="none" opacity="1"/><circle cx="856" cy="141" r="3" fill="#1F78B4" stroke="none" opacity="1"/><circle cx="864" cy="142" r="3" fill="#1F78B4" stroke="none" opacity="1"/><circle cx="873" cy="136" r="3" fill="#1F78B4" stroke="none" opacity="1"/><circle cx="881" cy="128" r="3" fill="#1F78B4" stroke="none" opacity="1"/><circle cx="890" cy="123" r="3" fill="#1F78B4" stroke="none" opacity="1"/><circle cx="898" cy="121" r="3" fill="#1F78B4" stroke="none" opacity="1"/><circle cx="907" cy="59" r="3" fill="#1F78B4" stroke="none" opacity="1"/><circle cx="915" cy="119" r="3" fill="#1F78B4" stroke="none" opacity="1"/><circle cx="924" cy="115" r="3" fill="#1F78B4" stroke="none" opacity="1"/><circle cx="933" cy="112" r="3" fill="#1F78B4" stroke="none" opacity="1"/><polyline fill="none" stroke="#1F78B4" stroke-width="1" points="87 473 933 100" opacity="1"/><polygon fill="#1F78B4" points="87 473 933 106 933 93" opacity=".25"/><text x="132" y="68" fill="#000" dy=".76em" font-family="sans-serif" font-size="9.677" opacity="1" text-anchor="start">Sample</text><text x="132" y="83" fill="#000" dy=".76em" font-family="sans-serif" font-size="9.677" opacity="1" text-anchor="start">Linear regression</text><text x="132" y="98" fill="#000" dy=".76em" font-family="sans-serif" font-size="9.677" opacity="1" text-anchor="start">Confidence interval</text><circle cx="112" cy="73" r="3" fill="#1F78B4" stroke="none" opacity="1"/><polyline fill="none" stroke="#1F78B4" stroke-width="2" points="102 88 122 88" opacity="1"/><rect width="20" height="10" x="102" y="98" fill="#1F78B4" stroke="none" opacity=".25"/></svg>