<svg xmlns="http://www.w3.org/2000/svg" width="960" height="540"><text x="480" y="32" fill="#000" dy=".76em" font-family="sans-serif" font-size="16.129" opacity="1" text-anchor="middle">bench_group/threads_02/2097152</text><text x="27" y="263" fill="#000" dy=".76em" font-family="sans-serif" font-size="9.677" opacity="1" text-anchor="middle" transform="rotate(270, 27, 263)">Total sample time (ms)</text><text x="510" y="513" fill="#000" dy="-.5ex" font-family="sans-serif" font-size="9.677" opacity="1" text-anchor="middle">Iterations</text><line x1="200" x2="200" y1="472" y2="52" stroke="#000" stroke-width="1" opacity=".2"/><line x1="322" x2="322" y1="472" y2="52" stroke="#000" stroke-width="1" opacity=".2"/><line x1="444" x2="444" y1="472" y2="52" stroke="#000" stroke-width="1" opacity=".2"/><line x1="566" x2="566" y1="472" y2="52" stroke="#000" stroke-width="1" opacity=".2"/><line x1="688" x2="688" y1="472" y2="52" stroke="#000" stroke-width="1" opacity=".2"/><line x1="810" x2="810" y1="472" y2="52" stroke="#000" stroke-width="1" opacity=".2"/><line x1="933" x2="933" y1="472" y2="52" stroke="#000" stroke-width="1" opacity=".2"/><line x1="87" x2="933" y1="434" y2="434" stroke="#000" stroke-width="1" opacity=".2"/><line x1="87" x2="933" y1="392" y2="392" stroke="#000" stroke-width="1" opacity=".2"/><line x1="87" x2="933" y1="350" y2="350" stroke="#000" stroke-width="1" opacity=".2"/><line x1="87" x2="933" y1="307" y2="307" stroke="#000" stroke-width="1" opacity=".2"/><line x1="87" x2="933" y1="265" y2="265" stroke="#000" stroke-width="1" opacity=".2"/><line x1="87" x2="933" y1="223" y2="223" stroke="#000" stroke-width="1" opacity=".2"/><line x1="87" x2="933" y1="180" y2="180" stroke="#000" stroke-width="1" opacity=".2"/><line x1="87" x2="933" y1="138" y2="138" stroke="#000" stroke-width="1" opacity=".2"/><line x1="87" x2="933" y1="96" y2="96" stroke="#000" stroke-width="1" opacity=".2"/><line x1="87" x2="933" y1="54" y2="54" stroke="#000" stroke-width="1" opacity=".2"/><polyline fill="none" stroke="#000" stroke-width="1" points="86 53 86 473" opacity="1"/><text x="77" y="434" fill="#000" dy=".5ex" font-family="sans-serif" font-size="9.677" opacity="1" text-anchor="end">10.0</text><polyline fill="none" stroke="#000" stroke-width="1" points="81 434 86 434" opacity="1"/><text x="77" y="392" fill="#000" dy=".5ex" font-family="sans-serif" font-size="9.677" opacity="1" text-anchor="end">20.0</text><polyline fill="none" stroke="#000" stroke-width="1" points="81 392 86 392" opacity="1"/><text x="77" y="350" fill="#000" dy=".5ex" font-family="sans-serif" font-size="9.677" opacity="1" text-anchor="end">30.0</text><polyline fill="none" stroke="#000" stroke-width="1" points="81 350 86 350" opacity="1"/><text x="77" y="307" fill="#000" dy=".5ex" font-family="sans-serif" font-size="9.677" opacity="1" text-anchor="end">40.0</text><polyline fill="none" stroke="#000" stroke-width="1" points="81 307 86 307" opacity="1"/><text x="77" y="265" fill="#000" dy=".5ex" font-family="sans-serif" font-size="9.677" opacity="1" text-anchor="end">50.0</text><polyline fill="none" stroke="#000" stroke-width="1" points="81 265 86 265" opacity="1"/><text x="77" y="223" fill="#000" dy=".5ex" font-family="sans-serif" font-size="9.677" opacity="1" text-anchor="end">60.0</text><polyline fill="none" stroke="#000" stroke-width="1" points="81 223 86 223" opacity="1"/><text x="77" y="180" fill="#000" dy=".5ex" font-family="sans-serif" font-size="9.677" opacity="1" text-anchor="end">70.0</text><polyline fill="none" stroke="#000" stroke-width="1" points="81 180 86 180" opacity="1"/><text x="77" y="138" fill="#000" dy=".5ex" font-family="sans-serif" font-size="9.677" opacity="1" text-anchor="end">80.0</text><polyline fill="none" stroke="#000" stroke-width="1" points="81 138 86 138" opacity="1"/><text x="77" y="96" fill="#000" dy=".5ex" font-family="sans-serif" font-size="9.677" opacity="1" text-anchor="end">90.0</text><polyline fill="none" stroke="#000" stroke-width="1" points="81 96 86 96" opacity="1"/><text x="77" y="54" fill="#000" dy=".5ex" font-family="sans-serif" font-size="9.677" opacity="1" text-anchor="end">100.0</text><polyline fill="none" stroke="#000" stroke-width="1" points="81 54 86 54" opacity="1"/><polyline fill="none" stroke="#000" stroke-width="1" points="87 473 933 473" opacity="1"/><text x="200" y="483" fill="#000" dy=".76em" font-family="sans-serif" font-size="9.677" opacity="1" text-anchor="middle">100</text><polyline fill="none" stroke="#000" stroke-width="1" points="200 473 200 478" opacity="1"/><text x="322" y="483" fill="#000" dy=".76em" font-family="sans-serif" font-size="9.677" opacity="1" text-anchor="middle">200</text><polyline fill="none" stroke="#000" stroke-width="1" points="322 473 322 478" opacity="1"/><text x="444" y="483" fill="#000" dy=".76em" font-family="sans-serif" font-size="9.677" opacity="1" text-anchor="middle">300</text><polyline fill="none" stroke="#000" stroke-width="1" points="444 473 444 478" opacity="1"/><text x="566" y="483" fill="#000" dy=".76em" font-family="sans-serif" font-size="9.677" opacity="1" text-anchor="middle">400</text><polyline fill="none" stroke="#000" stroke-width="1" points="566 473 566 478" opacity="1"/><text x="688" y="483" fill="#000" dy=".76em" font-family="sans-serif" font-size="9.677" opacity="1" text-anchor="middle">500</text><polyline fill="none" stroke="#000" stroke-width="1" points="688 473 688 478" opacity="1"/><text x="810" y="483" fill="#000" dy=".76em" font-family="sans-serif" font-size="9.677" opacity="1" text-anchor="middle">600</text><polyline fill="none" stroke="#000" stroke-width="1" points="810 473 810 478" opacity="1"/><text x="933" y="483" fill="#000" dy=".76em" font-family="sans-serif" font-size="9.677" opacity="1" text-anchor="middle">700</text><polyline fill="none" stroke="#000" stroke-width="1" points="933 473 933 478" opacity="1"/><circle cx="87" cy="472" r="3" fill="#1F78B4" stroke="none" opacity="1"/><circle cx="95" cy="467" r="3" fill="#1F78B4" stroke="none" opacity="1"/><circle cx="104" cy="463" r="3" fill="#1F78B4" stroke="none" opacity="1"/><circle cx="112" cy="458" r="3" fill="#1F78B4" stroke="none" opacity="1"/><circle cx="121" cy="455" r="3" fill="#1F78B4" stroke="none" opacity="1"/><circle cx="129" cy="450" r="3" fill="#1F78B4" stroke="none" opacity="1"/><circle cx="138" cy="446" r="3" fill="#1F78B4" stroke="none" opacity="1"/><circle cx="146" cy="441" r="3" fill="#1F78B4" stroke="none" opacity="1"/><circle cx="155" cy="437" r="3" fill="#1F78B4" stroke="none" opacity="1"/><circle cx="163" cy="433" r="3" fill="#1F78B4" stroke="none" opacity="1"/><circle cx="172" cy="429" r="3" fill="#1F78B4" stroke="none" opacity="1"/><circle cx="181" cy="424" r="3" fill="#1F78B4" stroke="none" opacity="1"/><circle cx="189" cy="420" r="3" fill="#1F78B4" stroke="none" opacity="1"/><circle cx="198" cy="415" r="3" fill="#1F78B4" stroke="none" opacity="1"/><circle cx="206" cy="412" r="3" fill="#1F78B4" stroke="none" opacity="1"/><circle cx="215" cy="408" r="3" fill="#1F78B4" stroke="none" opacity="1"/><circle cx="223" cy="403" r="3" fill="#1F78B4" stroke="none" opacity="1"/><circle cx="232" cy="399" r="3" fill="#1F78B4" stroke="none" opacity="1"/><circle cx="240" cy="394" r="3" fill="#1F78B4" stroke="none" opacity="1"/><circle cx="249" cy="391" r="3" fill="#1F78B4" stroke="none" opacity="1"/><circle cx="257" cy="386" r="3" fill="#1F78B4" stroke="none" opacity="1"/><circle cx="266" cy="382" r="3" fill="#1F78B4" stroke="none" opacity="1"/><circle cx="275" cy="378" r="3" fill="#1F78B4" stroke="none" opacity="1"/><circle cx="283" cy="373" r="3" fill="#1F78B4" stroke="none" opacity="1"/><circle cx="292" cy="369" r="3" fill="#1F78B4" stroke="none" opacity="1"/><circle cx="300" cy="365" r="3" fill="#1F78B4" stroke="none" opacity="1"/><circle cx="309" cy="361" r="3" fill="#1F78B4" stroke="none" opacity="1"/><circle cx="317" cy="357" r="3" fill="#1F78B4" stroke="none" opacity="1"/><circle cx="326" cy="353" r="3" fill="#1F78B4" stroke="none" opacity="1"/><circle cx="334" cy="349" r="3" fill="#1F78B4" stroke="none" opacity="1"/><circle cx="343" cy="344" r="3" fill="#1F78B4" stroke="none" opacity="1"/><circle cx="351" cy="340" r="3" fill="#1F78B4" stroke="none" opacity="1"/><circle cx="360" cy="335" r="3" fill="#1F78B4" stroke="none" opacity="1"/><circle cx="369" cy="332" r="3" fill="#1F78B4" stroke="none" opacity="1"/><circle cx="377" cy="327" r="3" fill="#1F78B4" stroke="none" opacity="1"/><circle cx="386" cy="323" r="3" fill="#1F78B4" stroke="none" opacity="1"/><circle cx="394" cy="318" r="3" fill="#1F78B4" stroke="none" opacity="1"/><circle cx="403" cy="314" r="3" fill="#1F78B4" stroke="none" opacity="1"/><circle cx="411" cy="310" r="3" fill="#1F78B4" stroke="none" opacity="1"/><circle cx="420" cy="306" r="3" fill="#1F78B4" stroke="none" opacity="1"/><circle cx="428" cy="302" r="3" fill="#1F78B4" stroke="none" opacity="1"/><circle cx="437" cy="298" r="3" fill="#1F78B4" stroke="none" opacity="1"/><circle cx="445" cy="293" r="3" fill="#1F78B4" stroke="none" opacity="1"/><circle cx="454" cy="289" r="3" fill="#1F78B4" stroke="none" opacity="1"/><circle cx="463" cy="285" r="3" fill="#1F78B4" stroke="none" opacity="1"/><circle cx="471" cy="281" r="3" fill="#1F78B4" stroke="none" opacity="1"/><circle cx="480" cy="276" r="3" fill="#1F78B4" stroke="none" opacity="1"/><circle cx="488" cy="268" r="3" fill="#1F78B4" stroke="none" opacity="1"/><circle cx="497" cy="268" r="3" fill="#1F78B4" stroke="none" opacity="1"/><circle cx="505" cy="264" r="3" fill="#1F78B4" stroke="none" opacity="1"/><circle cx="514" cy="259" r="3" fill="#1F78B4" stroke="none" opacity="1"/><circle cx="522" cy="255" r="3" fill="#1F78B4" stroke="none" opacity="1"/><circle cx="531" cy="251" r="3" fill="#1F78B4" stroke="none" opacity="1"/><circle cx="539" cy="247" r="3" fill="#1F78B4" stroke="none" opacity="1"/><circle cx="548" cy="242" r="3" fill="#1F78B4" stroke="none" opacity="1"/><circle cx="557" cy="238" r="3" fill="#1F78B4" stroke="none" opacity="1"/><circle cx="565" cy="234" r="3" fill="#1F78B4" stroke="none" opacity="1"/><circle cx="574" cy="228" r="3" fill="#1F78B4" stroke="none" opacity="1"/><circle cx="582" cy="221" r="3" fill="#1F78B4" stroke="none" opacity="1"/><circle cx="591" cy="221" r="3" fill="#1F78B4" stroke="none" opacity="1"/><circle cx="599" cy="217" r="3" fill="#1F78B4" stroke="none" opacity="1"/><circle cx="608" cy="213" r="3" fill="#1F78B4" stroke="none" opacity="1"/><circle cx="616" cy="209" r="3" fill="#1F78B4" stroke="none" opacity="1"/><circle cx="625" cy="204" r="3" fill="#1F78B4" stroke="none" opacity="1"/><circle cx="633" cy="200" r="3" fill="#1F78B4" stroke="none" opacity="1"/><circle cx="642" cy="196" r="3" fill="#1F78B4" stroke="none" opacity="1"/><circle cx="651" cy="191" r="3" fill="#1F78B4" stroke="none" opacity="1"/><circle cx="659" cy="182" r="3" fill="#1F78B4" stroke="none" opacity="1"/><circle cx="668" cy="183" r="3" fill="#1F78B4" stroke="none" opacity="1"/><circle cx="676" cy="176" r="3" fill="#1F78B4" stroke="none" opacity="1"/><circle cx="685" cy="174" r="3" fill="#1F78B4" stroke="none" opacity="1"/><circle cx="693" cy="170" r="3" fill="#1F78B4" stroke="none" opacity="1"/><circle cx="702" cy="166" r="3" fill="#1F78B4" stroke="none" opacity="1"/><circle cx="710" cy="162" r="3" fill="#1F78B4" stroke="none" opacity="1"/><circle cx="719" cy="158" r="3" fill="#1F78B4" stroke="none" opacity="1"/><circle cx="727" cy="151" r="3" fill="#1F78B4" stroke="none" opacity="1"/><circle cx="736" cy="149" r="3" fill="#1F78B4" stroke="none" opacity="1"/><circle cx="745" cy="145" r="3" fill="#1F78B4" stroke="none" opacity="1"/><circle cx="753" cy="139" r="3" fill="#1F78B4" stroke="none" opacity="1"/><circle cx="762" cy="136" r="3" fill="#1F78B4" stroke="none" opacity="1"/><circle cx="770" cy="131" r="3" fill="#1F78B4" stroke="none" opacity="1"/><circle cx="779" cy="128" r="3" fill="#1F78B4" stroke="none" opacity="1"/><circle cx="787" cy="121" r="3" fill="#1F78B4" stroke="none" opacity="1"/><circle cx="796" cy="119" r="3" fill="#1F78B4" stroke="none" opacity="1"/><circle cx="804" cy="115" r="3" fill="#1F78B4" stroke="none" opacity="1"/><circle cx="813" cy="111" r="3" fill="#1F78B4" stroke="none" opacity="1"/><circle cx="821" cy="107" r="3" fill="#1F78B4" stroke="none" opacity="1"/><circle cx="830" cy="102" r="3" fill="#1F78B4" stroke="none" opacity="1"/><circle cx="839" cy="97" r="3" fill="#1F78B4" stroke="none" opacity="1"/><circle cx="847" cy="90" r="3" fill="#1F78B4" stroke="none" opacity="1"/><circle cx="856" cy="90" r="3" fill="#1F78B4" stroke="none" opacity="1"/><circle cx="864" cy="85" r="3" fill="#1F78B4" stroke="none" opacity="1"/><circle cx="873" cy="81" r="3" fill="#1F78B4" stroke="none" opacity="1"/><circle cx="881" cy="77" r="3" fill="#1F78B4" stroke="none" opacity="1"/><circle cx="890" cy="73" r="3" fill="#1F78B4" stroke="none" opacity="1"/><circle cx="898" cy="66" r="3" fill="#1F78B4" stroke="none" opacity="1"/><circle cx="907" cy="65" r="3" fill="#1F78B4" stroke="none" opacity="1"/><circle cx="915" cy="60" r="3" fill="#1F78B4" stroke="none" opacity="1"/><circle cx="924" cy="55" r="3" fill="#1F78B4" stroke="none" opacity="1"/><circle cx="933" cy="53" r="3" fill="#1F78B4" stroke="none" opacity="1"/><polyline fill="none" stroke="#1F78B4" stroke-width="1" points="87 473 933 53" opacity="1"/><polygon fill="#1F78B4" points="87 473 933 53 933 53" opacity=".25"/><text x="132" y="68" fill="#000" dy=".76em" font-family="sans-serif" font-size="9.677" opacity="1" text-anchor="start">Sample</text><text x="132" y="83" fill="#000" dy=".76em" font-family="sans-serif" font-size="9.677" opacity="1" text-anchor="start">Linear regression</text><text x="132" y="98" fill="#000" dy=".76em" font-family="sans-serif" font-size="9.677" opacity="1" text-anchor="start">Confidence interval</text><circle cx="112" cy="73" r="3" fill="#1F78B4" stroke="none" opacity="1"/><polyline fill="none" stroke="#1F78B4" stroke-width="2" points="102 88 122 88" opacity="1"/><rect width="20" height="10" x="102" y="98" fill="#1F78B4" stroke="none" opacity=".25"/></svg>