<svg xmlns="http://www.w3.org/2000/svg" width="960" height="540"><text x="480" y="32" fill="#000" dy=".76em" font-family="sans-serif" font-size="16.129" opacity="1" text-anchor="middle">bench_group/threads_04/65536</text><text x="27" y="263" fill="#000" dy=".76em" font-family="sans-serif" font-size="9.677" opacity="1" text-anchor="middle" transform="rotate(270, 27, 263)">Total sample time (ms)</text><text x="510" y="513" fill="#000" dy="-.5ex" font-family="sans-serif" font-size="9.677" opacity="1" text-anchor="middle">Iterations (x 10^3)</text><line x1="188" x2="188" y1="472" y2="52" stroke="#000" stroke-width="1" opacity=".2"/><line x1="297" x2="297" y1="472" y2="52" stroke="#000" stroke-width="1" opacity=".2"/><line x1="407" x2="407" y1="472" y2="52" stroke="#000" stroke-width="1" opacity=".2"/><line x1="516" x2="516" y1="472" y2="52" stroke="#000" stroke-width="1" opacity=".2"/><line x1="626" x2="626" y1="472" y2="52" stroke="#000" stroke-width="1" opacity=".2"/><line x1="735" x2="735" y1="472" y2="52" stroke="#000" stroke-width="1" opacity=".2"/><line x1="845" x2="845" y1="472" y2="52" stroke="#000" stroke-width="1" opacity=".2"/><line x1="87" x2="933" y1="430" y2="430" stroke="#000" stroke-width="1" opacity=".2"/><line x1="87" x2="933" y1="383" y2="383" stroke="#000" stroke-width="1" opacity=".2"/><line x1="87" x2="933" y1="337" y2="337" stroke="#000" stroke-width="1" opacity=".2"/><line x1="87" x2="933" y1="291" y2="291" stroke="#000" stroke-width="1" opacity=".2"/><line x1="87" x2="933" y1="245" y2="245" stroke="#000" stroke-width="1" opacity=".2"/><line x1="87" x2="933" y1="199" y2="199" stroke="#000" stroke-width="1" opacity=".2"/><line x1="87" x2="933" y1="152" y2="152" stroke="#000" stroke-width="1" opacity=".2"/><line x1="87" x2="933" y1="106" y2="106" stroke="#000" stroke-width="1" opacity=".2"/><line x1="87" x2="933" y1="60" y2="60" stroke="#000" stroke-width="1" opacity=".2"/><polyline fill="none" stroke="#000" stroke-width="1" points="86 53 86 473" opacity="1"/><text x="77" y="430" fill="#000" dy=".5ex" font-family="sans-serif" font-size="9.677" opacity="1" text-anchor="end">10.0</text><polyline fill="none" stroke="#000" stroke-width="1" points="81 430 86 430" opacity="1"/><text x="77" y="383" fill="#000" dy=".5ex" font-family="sans-serif" font-size="9.677" opacity="1" text-anchor="end">20.0</text><polyline fill="none" stroke="#000" stroke-width="1" points="81 383 86 383" opacity="1"/><text x="77" y="337" fill="#000" dy=".5ex" font-family="sans-serif" font-size="9.677" opacity="1" text-anchor="end">30.0</text><polyline fill="none" stroke="#000" stroke-width="1" points="81 337 86 337" opacity="1"/><text x="77" y="291" fill="#000" dy=".5ex" font-family="sans-serif" font-size="9.677" opacity="1" text-anchor="end">40.0</text><polyline fill="none" stroke="#000" stroke-width="1" points="81 291 86 291" opacity="1"/><text x="77" y="245" fill="#000" dy=".5ex" font-family="sans-serif" font-size="9.677" opacity="1" text-anchor="end">50.0</text><polyline fill="none" stroke="#000" stroke-width="1" points="81 245 86 245" opacity="1"/><text x="77" y="199" fill="#000" dy=".5ex" font-family="sans-serif" font-size="9.677" opacity="1" text-anchor="end">60.0</text><polyline fill="none" stroke="#000" stroke-width="1" points="81 199 86 199" opacity="1"/><text x="77" y="152" fill="#000" dy=".5ex" font-family="sans-serif" font-size="9.677" opacity="1" text-anchor="end">70.0</text><polyline fill="none" stroke="#000" stroke-width="1" points="81 152 86 152" opacity="1"/><text x="77" y="106" fill="#000" dy=".5ex" font-family="sans-serif" font-size="9.677" opacity="1" text-anchor="end">80.0</text><polyline fill="none" stroke="#000" stroke-width="1" points="81 106 86 106" opacity="1"/><text x="77" y="60" fill="#000" dy=".5ex" font-family="sans-serif" font-size="9.677" opacity="1" text-anchor="end">90.0</text><polyline fill="none" stroke="#000" stroke-width="1" points="81 60 86 60" opacity="1"/><polyline fill="none" stroke="#000" stroke-width="1" points="87 473 933 473" opacity="1"/><text x="188" y="483" fill="#000" dy=".76em" font-family="sans-serif" font-size="9.677" opacity="1" text-anchor="middle">2</text><polyline fill="none" stroke="#000" stroke-width="1" points="188 473 188 478" opacity="1"/><text x="297" y="483" fill="#000" dy=".76em" font-family="sans-serif" font-size="9.677" opacity="1" text-anchor="middle">4</text><polyline fill="none" stroke="#000" stroke-width="1" points="297 473 297 478" opacity="1"/><text x="407" y="483" fill="#000" dy=".76em" font-family="sans-serif" font-size="9.677" opacity="1" text-anchor="middle">6</text><polyline fill="none" stroke="#000" stroke-width="1" points="407 473 407 478" opacity="1"/><text x="516" y="483" fill="#000" dy=".76em" font-family="sans-serif" font-size="9.677" opacity="1" text-anchor="middle">8</text><polyline fill="none" stroke="#000" stroke-width="1" points="516 473 516 478" opacity="1"/><text x="626" y="483" fill="#000" dy=".76em" font-family="sans-serif" font-size="9.677" opacity="1" text-anchor="middle">10</text><polyline fill="none" stroke="#000" stroke-width="1" points="626 473 626 478" opacity="1"/><text x="735" y="483" fill="#000" dy=".76em" font-family="sans-serif" font-size="9.677" opacity="1" text-anchor="middle">12</text><polyline fill="none" stroke="#000" stroke-width="1" points="735 473 735 478" opacity="1"/><text x="845" y="483" fill="#000" dy=".76em" font-family="sans-serif" font-size="9.677" opacity="1" text-anchor="middle">14</text><polyline fill="none" stroke="#000" stroke-width="1" points="845 473 845 478" opacity="1"/><circle cx="87" cy="472" r="3" fill="#1F78B4" stroke="none" opacity="1"/><circle cx="95" cy="468" r="3" fill="#1F78B4" stroke="none" opacity="1"/><circle cx="104" cy="463" r="3" fill="#1F78B4" stroke="none" opacity="1"/><circle cx="112" cy="460" r="3" fill="#1F78B4" stroke="none" opacity="1"/><circle cx="121" cy="455" r="3" fill="#1F78B4" stroke="none" opacity="1"/><circle cx="129" cy="451" r="3" fill="#1F78B4" stroke="none" opacity="1"/><circle cx="138" cy="448" r="3" fill="#1F78B4" stroke="none" opacity="1"/><circle cx="146" cy="444" r="3" fill="#1F78B4" stroke="none" opacity="1"/><circle cx="155" cy="440" r="3" fill="#1F78B4" stroke="none" opacity="1"/><circle cx="163" cy="435" r="3" fill="#1F78B4" stroke="none" opacity="1"/><circle cx="172" cy="432" r="3" fill="#1F78B4" stroke="none" opacity="1"/><circle cx="181" cy="428" r="3" fill="#1F78B4" stroke="none" opacity="1"/><circle cx="189" cy="424" r="3" fill="#1F78B4" stroke="none" opacity="1"/><circle cx="198" cy="419" r="3" fill="#1F78B4" stroke="none" opacity="1"/><circle cx="206" cy="416" r="3" fill="#1F78B4" stroke="none" opacity="1"/><circle cx="215" cy="412" r="3" fill="#1F78B4" stroke="none" opacity="1"/><circle cx="223" cy="408" r="3" fill="#1F78B4" stroke="none" opacity="1"/><circle cx="232" cy="404" r="3" fill="#1F78B4" stroke="none" opacity="1"/><circle cx="240" cy="400" r="3" fill="#1F78B4" stroke="none" opacity="1"/><circle cx="249" cy="396" r="3" fill="#1F78B4" stroke="none" opacity="1"/><circle cx="257" cy="392" r="3" fill="#1F78B4" stroke="none" opacity="1"/><circle cx="266" cy="389" r="3" fill="#1F78B4" stroke="none" opacity="1"/><circle cx="275" cy="386" r="3" fill="#1F78B4" stroke="none" opacity="1"/><circle cx="283" cy="379" r="3" fill="#1F78B4" stroke="none" opacity="1"/><circle cx="292" cy="376" r="3" fill="#1F78B4" stroke="none" opacity="1"/><circle cx="300" cy="372" r="3" fill="#1F78B4" stroke="none" opacity="1"/><circle cx="309" cy="369" r="3" fill="#1F78B4" stroke="none" opacity="1"/><circle cx="317" cy="365" r="3" fill="#1F78B4" stroke="none" opacity="1"/><circle cx="326" cy="360" r="3" fill="#1F78B4" stroke="none" opacity="1"/><circle cx="334" cy="357" r="3" fill="#1F78B4" stroke="none" opacity="1"/><circle cx="343" cy="330" r="3" fill="#1F78B4" stroke="none" opacity="1"/><circle cx="351" cy="349" r="3" fill="#1F78B4" stroke="none" opacity="1"/><circle cx="360" cy="344" r="3" fill="#1F78B4" stroke="none" opacity="1"/><circle cx="369" cy="340" r="3" fill="#1F78B4" stroke="none" opacity="1"/><circle cx="377" cy="336" r="3" fill="#1F78B4" stroke="none" opacity="1"/><circle cx="386" cy="331" r="3" fill="#1F78B4" stroke="none" opacity="1"/><circle cx="394" cy="328" r="3" fill="#1F78B4" stroke="none" opacity="1"/><circle cx="403" cy="323" r="3" fill="#1F78B4" stroke="none" opacity="1"/><circle cx="411" cy="321" r="3" fill="#1F78B4" stroke="none" opacity="1"/><circle cx="420" cy="318" r="3" fill="#1F78B4" stroke="none" opacity="1"/><circle cx="428" cy="314" r="3" fill="#1F78B4" stroke="none" opacity="1"/><circle cx="437" cy="309" r="3" fill="#1F78B4" stroke="none" opacity="1"/><circle cx="445" cy="305" r="3" fill="#1F78B4" stroke="none" opacity="1"/><circle cx="454" cy="301" r="3" fill="#1F78B4" stroke="none" opacity="1"/><circle cx="463" cy="296" r="3" fill="#1F78B4" stroke="none" opacity="1"/><circle cx="471" cy="293" r="3" fill="#1F78B4" stroke="none" opacity="1"/><circle cx="480" cy="290" r="3" fill="#1F78B4" stroke="none" opacity="1"/><circle cx="488" cy="281" r="3" fill="#1F78B4" stroke="none" opacity="1"/><circle cx="497" cy="281" r="3" fill="#1F78B4" stroke="none" opacity="1"/><circle cx="505" cy="276" r="3" fill="#1F78B4" stroke="none" opacity="1"/><circle cx="514" cy="273" r="3" fill="#1F78B4" stroke="none" opacity="1"/><circle cx="522" cy="269" r="3" fill="#1F78B4" stroke="none" opacity="1"/><circle cx="531" cy="265" r="3" fill="#1F78B4" stroke="none" opacity="1"/><circle cx="539" cy="262" r="3" fill="#1F78B4" stroke="none" opacity="1"/><circle cx="548" cy="258" r="3" fill="#1F78B4" stroke="none" opacity="1"/><circle cx="557" cy="252" r="3" fill="#1F78B4" stroke="none" opacity="1"/><circle cx="565" cy="248" r="3" fill="#1F78B4" stroke="none" opacity="1"/><circle cx="574" cy="245" r="3" fill="#1F78B4" stroke="none" opacity="1"/><circle cx="582" cy="241" r="3" fill="#1F78B4" stroke="none" opacity="1"/><circle cx="591" cy="239" r="3" fill="#1F78B4" stroke="none" opacity="1"/><circle cx="599" cy="233" r="3" fill="#1F78B4" stroke="none" opacity="1"/><circle cx="608" cy="179" r="3" fill="#1F78B4" stroke="none" opacity="1"/><circle cx="616" cy="226" r="3" fill="#1F78B4" stroke="none" opacity="1"/><circle cx="625" cy="222" r="3" fill="#1F78B4" stroke="none" opacity="1"/><circle cx="633" cy="218" r="3" fill="#1F78B4" stroke="none" opacity="1"/><circle cx="642" cy="215" r="3" fill="#1F78B4" stroke="none" opacity="1"/><circle cx="651" cy="209" r="3" fill="#1F78B4" stroke="none" opacity="1"/><circle cx="659" cy="206" r="3" fill="#1F78B4" stroke="none" opacity="1"/><circle cx="668" cy="201" r="3" fill="#1F78B4" stroke="none" opacity="1"/><circle cx="676" cy="199" r="3" fill="#1F78B4" stroke="none" opacity="1"/><circle cx="685" cy="195" r="3" fill="#1F78B4" stroke="none" opacity="1"/><circle cx="693" cy="167" r="3" fill="#1F78B4" stroke="none" opacity="1"/><circle cx="702" cy="188" r="3" fill="#1F78B4" stroke="none" opacity="1"/><circle cx="710" cy="184" r="3" fill="#1F78B4" stroke="none" opacity="1"/><circle cx="719" cy="179" r="3" fill="#1F78B4" stroke="none" opacity="1"/><circle cx="727" cy="176" r="3" fill="#1F78B4" stroke="none" opacity="1"/><circle cx="736" cy="170" r="3" fill="#1F78B4" stroke="none" opacity="1"/><circle cx="745" cy="168" r="3" fill="#1F78B4" stroke="none" opacity="1"/><circle cx="753" cy="161" r="3" fill="#1F78B4" stroke="none" opacity="1"/><circle cx="762" cy="158" r="3" fill="#1F78B4" stroke="none" opacity="1"/><circle cx="770" cy="132" r="3" fill="#1F78B4" stroke="none" opacity="1"/><circle cx="779" cy="150" r="3" fill="#1F78B4" stroke="none" opacity="1"/><circle cx="787" cy="146" r="3" fill="#1F78B4" stroke="none" opacity="1"/><circle cx="796" cy="143" r="3" fill="#1F78B4" stroke="none" opacity="1"/><circle cx="804" cy="139" r="3" fill="#1F78B4" stroke="none" opacity="1"/><circle cx="813" cy="135" r="3" fill="#1F78B4" stroke="none" opacity="1"/><circle cx="821" cy="129" r="3" fill="#1F78B4" stroke="none" opacity="1"/><circle cx="830" cy="128" r="3" fill="#1F78B4" stroke="none" opacity="1"/><circle cx="839" cy="102" r="3" fill="#1F78B4" stroke="none" opacity="1"/><circle cx="847" cy="119" r="3" fill="#1F78B4" stroke="none" opacity="1"/><circle cx="856" cy="114" r="3" fill="#1F78B4" stroke="none" opacity="1"/><circle cx="864" cy="110" r="3" fill="#1F78B4" stroke="none" opacity="1"/><circle cx="873" cy="107" r="3" fill="#1F78B4" stroke="none" opacity="1"/><circle cx="881" cy="102" r="3" fill="#1F78B4" stroke="none" opacity="1"/><circle cx="890" cy="100" r="3" fill="#1F78B4" stroke="none" opacity="1"/><circle cx="898" cy="95" r="3" fill="#1F78B4" stroke="none" opacity="1"/><circle cx="907" cy="53" r="3" fill="#1F78B4" stroke="none" opacity="1"/><circle cx="915" cy="85" r="3" fill="#1F78B4" stroke="none" opacity="1"/><circle cx="924" cy="83" r="3" fill="#1F78B4" stroke="none" opacity="1"/><circle cx="933" cy="79" r="3" fill="#1F78B4" stroke="none" opacity="1"/><polyline fill="none" stroke="#1F78B4" stroke-width="1" points="87 473 933 75" opacity="1"/><polygon fill="#1F78B4" points="87 473 933 78 933 71" opacity=".25"/><text x="132" y="68" fill="#000" dy=".76em" font-family="sans-serif" font-size="9.677" opacity="1" text-anchor="start">Sample</text><text x="132" y="83" fill="#000" dy=".76em" font-family="sans-serif" font-size="9.677" opacity="1" text-anchor="start">Linear regression</text><text x="132" y="98" fill="#000" dy=".76em" font-family="sans-serif" font-size="9.677" opacity="1" text-anchor="start">Confidence interval</text><circle cx="112" cy="73" r="3" fill="#1F78B4" stroke="none" opacity="1"/><polyline fill="none" stroke="#1F78B4" stroke-width="2" points="102 88 122 88" opacity="1"/><rect width="20" height="10" x="102" y="98" fill="#1F78B4" stroke="none" opacity=".25"/></svg>