<svg xmlns="http://www.w3.org/2000/svg" width="450" height="300"><text x="15" y="130" fill="#000" dy=".76em" font-family="sans-serif" font-size="9.677" opacity="1" text-anchor="middle" transform="rotate(270, 15, 130)">Total sample time (ms)</text><text x="255" y="285" fill="#000" dy="-.5ex" font-family="sans-serif" font-size="9.677" opacity="1" text-anchor="middle">Iterations (x 10^3)</text><line x1="117" x2="117" y1="244" y2="14" stroke="#000" stroke-width="1" opacity=".2"/><line x1="164" x2="164" y1="244" y2="14" stroke="#000" stroke-width="1" opacity=".2"/><line x1="211" x2="211" y1="244" y2="14" stroke="#000" stroke-width="1" opacity=".2"/><line x1="257" x2="257" y1="244" y2="14" stroke="#000" stroke-width="1" opacity=".2"/><line x1="304" x2="304" y1="244" y2="14" stroke="#000" stroke-width="1" opacity=".2"/><line x1="351" x2="351" y1="244" y2="14" stroke="#000" stroke-width="1" opacity=".2"/><line x1="397" x2="397" y1="244" y2="14" stroke="#000" stroke-width="1" opacity=".2"/><line x1="75" x2="435" y1="221" y2="221" stroke="#000" stroke-width="1" opacity=".2"/><line x1="75" x2="435" y1="195" y2="195" stroke="#000" stroke-width="1" opacity=".2"/><line x1="75" x2="435" y1="170" y2="170" stroke="#000" stroke-width="1" opacity=".2"/><line x1="75" x2="435" y1="145" y2="145" stroke="#000" stroke-width="1" opacity=".2"/><line x1="75" x2="435" y1="119" y2="119" stroke="#000" stroke-width="1" opacity=".2"/><line x1="75" x2="435" y1="94" y2="94" stroke="#000" stroke-width="1" opacity=".2"/><line x1="75" x2="435" y1="69" y2="69" stroke="#000" stroke-width="1" opacity=".2"/><line x1="75" x2="435" y1="43" y2="43" stroke="#000" stroke-width="1" opacity=".2"/><line x1="75" x2="435" y1="18" y2="18" stroke="#000" stroke-width="1" opacity=".2"/><polyline fill="none" stroke="#000" stroke-width="1" points="74 15 74 245" opacity="1"/><text x="65" y="221" fill="#000" dy=".5ex" font-family="sans-serif" font-size="9.677" opacity="1" text-anchor="end">10.0</text><polyline fill="none" stroke="#000" stroke-width="1" points="69 221 74 221" opacity="1"/><text x="65" y="195" fill="#000" dy=".5ex" font-family="sans-serif" font-size="9.677" opacity="1" text-anchor="end">20.0</text><polyline fill="none" stroke="#000" stroke-width="1" points="69 195 74 195" opacity="1"/><text x="65" y="170" fill="#000" dy=".5ex" font-family="sans-serif" font-size="9.677" opacity="1" text-anchor="end">30.0</text><polyline fill="none" stroke="#000" stroke-width="1" points="69 170 74 170" opacity="1"/><text x="65" y="145" fill="#000" dy=".5ex" font-family="sans-serif" font-size="9.677" opacity="1" text-anchor="end">40.0</text><polyline fill="none" stroke="#000" stroke-width="1" points="69 145 74 145" opacity="1"/><text x="65" y="119" fill="#000" dy=".5ex" font-family="sans-serif" font-size="9.677" opacity="1" text-anchor="end">50.0</text><polyline fill="none" stroke="#000" stroke-width="1" points="69 119 74 119" opacity="1"/><text x="65" y="94" fill="#000" dy=".5ex" font-family="sans-serif" font-size="9.677" opacity="1" text-anchor="end">60.0</text><polyline fill="none" stroke="#000" stroke-width="1" points="69 94 74 94" opacity="1"/><text x="65" y="69" fill="#000" dy=".5ex" font-family="sans-serif" font-size="9.677" opacity="1" text-anchor="end">70.0</text><polyline fill="none" stroke="#000" stroke-width="1" points="69 69 74 69" opacity="1"/><text x="65" y="43" fill="#000" dy=".5ex" font-family="sans-serif" font-size="9.677" opacity="1" text-anchor="end">80.0</text><polyline fill="none" stroke="#000" stroke-width="1" points="69 43 74 43" opacity="1"/><text x="65" y="18" fill="#000" dy=".5ex" font-family="sans-serif" font-size="9.677" opacity="1" text-anchor="end">90.0</text><polyline fill="none" stroke="#000" stroke-width="1" points="69 18 74 18" opacity="1"/><polyline fill="none" stroke="#000" stroke-width="1" points="75 245 435 245" opacity="1"/><text x="117" y="255" fill="#000" dy=".76em" font-family="sans-serif" font-size="9.677" opacity="1" text-anchor="middle">2</text><polyline fill="none" stroke="#000" stroke-width="1" points="117 245 117 250" opacity="1"/><text x="164" y="255" fill="#000" dy=".76em" font-family="sans-serif" font-size="9.677" opacity="1" text-anchor="middle">4</text><polyline fill="none" stroke="#000" stroke-width="1" points="164 245 164 250" opacity="1"/><text x="211" y="255" fill="#000" dy=".76em" font-family="sans-serif" font-size="9.677" opacity="1" text-anchor="middle">6</text><polyline fill="none" stroke="#000" stroke-width="1" points="211 245 211 250" opacity="1"/><text x="257" y="255" fill="#000" dy=".76em" font-family="sans-serif" font-size="9.677" opacity="1" text-anchor="middle">8</text><polyline fill="none" stroke="#000" stroke-width="1" points="257 245 257 250" opacity="1"/><text x="304" y="255" fill="#000" dy=".76em" font-family="sans-serif" font-size="9.677" opacity="1" text-anchor="middle">10</text><polyline fill="none" stroke="#000" stroke-width="1" points="304 245 304 250" opacity="1"/><text x="351" y="255" fill="#000" dy=".76em" font-family="sans-serif" font-size="9.677" opacity="1" text-anchor="middle">12</text><polyline fill="none" stroke="#000" stroke-width="1" points="351 245 351 250" opacity="1"/><text x="397" y="255" fill="#000" dy=".76em" font-family="sans-serif" font-size="9.677" opacity="1" text-anchor="middle">14</text><polyline fill="none" stroke="#000" stroke-width="1" points="397 245 397 250" opacity="1"/><circle cx="75" cy="244" r="3" fill="#1F78B4" stroke="none" opacity="1"/><circle cx="78" cy="241" r="3" fill="#1F78B4" stroke="none" opacity="1"/><circle cx="82" cy="239" r="3" fill="#1F78B4" stroke="none" opacity="1"/><circle cx="85" cy="237" r="3" fill="#1F78B4" stroke="none" opacity="1"/><circle cx="89" cy="235" r="3" fill="#1F78B4" stroke="none" opacity="1"/><circle cx="93" cy="232" r="3" fill="#1F78B4" stroke="none" opacity="1"/><circle cx="96" cy="231" r="3" fill="#1F78B4" stroke="none" opacity="1"/><circle cx="100" cy="228" r="3" fill="#1F78B4" stroke="none" opacity="1"/><circle cx="104" cy="226" r="3" fill="#1F78B4" stroke="none" opacity="1"/><circle cx="107" cy="223" r="3" fill="#1F78B4" stroke="none" opacity="1"/><circle cx="111" cy="222" r="3" fill="#1F78B4" stroke="none" opacity="1"/><circle cx="115" cy="220" r="3" fill="#1F78B4" stroke="none" opacity="1"/><circle cx="118" cy="217" r="3" fill="#1F78B4" stroke="none" opacity="1"/><circle cx="122" cy="215" r="3" fill="#1F78B4" stroke="none" opacity="1"/><circle cx="125" cy="213" r="3" fill="#1F78B4" stroke="none" opacity="1"/><circle cx="129" cy="211" r="3" fill="#1F78B4" stroke="none" opacity="1"/><circle cx="133" cy="209" r="3" fill="#1F78B4" stroke="none" opacity="1"/><circle cx="136" cy="207" r="3" fill="#1F78B4" stroke="none" opacity="1"/><circle cx="140" cy="204" r="3" fill="#1F78B4" stroke="none" opacity="1"/><circle cx="144" cy="202" r="3" fill="#1F78B4" stroke="none" opacity="1"/><circle cx="147" cy="200" r="3" fill="#1F78B4" stroke="none" opacity="1"/><circle cx="151" cy="198" r="3" fill="#1F78B4" stroke="none" opacity="1"/><circle cx="155" cy="196" r="3" fill="#1F78B4" stroke="none" opacity="1"/><circle cx="158" cy="193" r="3" fill="#1F78B4" stroke="none" opacity="1"/><circle cx="162" cy="191" r="3" fill="#1F78B4" stroke="none" opacity="1"/><circle cx="165" cy="189" r="3" fill="#1F78B4" stroke="none" opacity="1"/><circle cx="169" cy="187" r="3" fill="#1F78B4" stroke="none" opacity="1"/><circle cx="173" cy="185" r="3" fill="#1F78B4" stroke="none" opacity="1"/><circle cx="176" cy="183" r="3" fill="#1F78B4" stroke="none" opacity="1"/><circle cx="180" cy="181" r="3" fill="#1F78B4" stroke="none" opacity="1"/><circle cx="184" cy="166" r="3" fill="#1F78B4" stroke="none" opacity="1"/><circle cx="187" cy="176" r="3" fill="#1F78B4" stroke="none" opacity="1"/><circle cx="191" cy="174" r="3" fill="#1F78B4" stroke="none" opacity="1"/><circle cx="195" cy="172" r="3" fill="#1F78B4" stroke="none" opacity="1"/><circle cx="198" cy="169" r="3" fill="#1F78B4" stroke="none" opacity="1"/><circle cx="202" cy="167" r="3" fill="#1F78B4" stroke="none" opacity="1"/><circle cx="205" cy="165" r="3" fill="#1F78B4" stroke="none" opacity="1"/><circle cx="209" cy="162" r="3" fill="#1F78B4" stroke="none" opacity="1"/><circle cx="213" cy="161" r="3" fill="#1F78B4" stroke="none" opacity="1"/><circle cx="216" cy="160" r="3" fill="#1F78B4" stroke="none" opacity="1"/><circle cx="220" cy="157" r="3" fill="#1F78B4" stroke="none" opacity="1"/><circle cx="224" cy="154" r="3" fill="#1F78B4" stroke="none" opacity="1"/><circle cx="227" cy="152" r="3" fill="#1F78B4" stroke="none" opacity="1"/><circle cx="231" cy="150" r="3" fill="#1F78B4" stroke="none" opacity="1"/><circle cx="235" cy="148" r="3" fill="#1F78B4" stroke="none" opacity="1"/><circle cx="238" cy="146" r="3" fill="#1F78B4" stroke="none" opacity="1"/><circle cx="242" cy="144" r="3" fill="#1F78B4" stroke="none" opacity="1"/><circle cx="245" cy="139" r="3" fill="#1F78B4" stroke="none" opacity="1"/><circle cx="249" cy="139" r="3" fill="#1F78B4" stroke="none" opacity="1"/><circle cx="253" cy="137" r="3" fill="#1F78B4" stroke="none" opacity="1"/><circle cx="256" cy="135" r="3" fill="#1F78B4" stroke="none" opacity="1"/><circle cx="260" cy="133" r="3" fill="#1F78B4" stroke="none" opacity="1"/><circle cx="264" cy="130" r="3" fill="#1F78B4" stroke="none" opacity="1"/><circle cx="267" cy="129" r="3" fill="#1F78B4" stroke="none" opacity="1"/><circle cx="271" cy="127" r="3" fill="#1F78B4" stroke="none" opacity="1"/><circle cx="275" cy="123" r="3" fill="#1F78B4" stroke="none" opacity="1"/><circle cx="278" cy="121" r="3" fill="#1F78B4" stroke="none" opacity="1"/><circle cx="282" cy="120" r="3" fill="#1F78B4" stroke="none" opacity="1"/><circle cx="285" cy="117" r="3" fill="#1F78B4" stroke="none" opacity="1"/><circle cx="289" cy="116" r="3" fill="#1F78B4" stroke="none" opacity="1"/><circle cx="293" cy="113" r="3" fill="#1F78B4" stroke="none" opacity="1"/><circle cx="296" cy="83" r="3" fill="#1F78B4" stroke="none" opacity="1"/><circle cx="300" cy="109" r="3" fill="#1F78B4" stroke="none" opacity="1"/><circle cx="304" cy="107" r="3" fill="#1F78B4" stroke="none" opacity="1"/><circle cx="307" cy="105" r="3" fill="#1F78B4" stroke="none" opacity="1"/><circle cx="311" cy="103" r="3" fill="#1F78B4" stroke="none" opacity="1"/><circle cx="315" cy="100" r="3" fill="#1F78B4" stroke="none" opacity="1"/><circle cx="318" cy="98" r="3" fill="#1F78B4" stroke="none" opacity="1"/><circle cx="322" cy="95" r="3" fill="#1F78B4" stroke="none" opacity="1"/><circle cx="325" cy="94" r="3" fill="#1F78B4" stroke="none" opacity="1"/><circle cx="329" cy="92" r="3" fill="#1F78B4" stroke="none" opacity="1"/><circle cx="333" cy="77" r="3" fill="#1F78B4" stroke="none" opacity="1"/><circle cx="336" cy="89" r="3" fill="#1F78B4" stroke="none" opacity="1"/><circle cx="340" cy="86" r="3" fill="#1F78B4" stroke="none" opacity="1"/><circle cx="344" cy="83" r="3" fill="#1F78B4" stroke="none" opacity="1"/><circle cx="347" cy="82" r="3" fill="#1F78B4" stroke="none" opacity="1"/><circle cx="351" cy="78" r="3" fill="#1F78B4" stroke="none" opacity="1"/><circle cx="355" cy="77" r="3" fill="#1F78B4" stroke="none" opacity="1"/><circle cx="358" cy="74" r="3" fill="#1F78B4" stroke="none" opacity="1"/><circle cx="362" cy="72" r="3" fill="#1F78B4" stroke="none" opacity="1"/><circle cx="365" cy="57" r="3" fill="#1F78B4" stroke="none" opacity="1"/><circle cx="369" cy="67" r="3" fill="#1F78B4" stroke="none" opacity="1"/><circle cx="373" cy="65" r="3" fill="#1F78B4" stroke="none" opacity="1"/><circle cx="376" cy="64" r="3" fill="#1F78B4" stroke="none" opacity="1"/><circle cx="380" cy="61" r="3" fill="#1F78B4" stroke="none" opacity="1"/><circle cx="384" cy="59" r="3" fill="#1F78B4" stroke="none" opacity="1"/><circle cx="387" cy="56" r="3" fill="#1F78B4" stroke="none" opacity="1"/><circle cx="391" cy="55" r="3" fill="#1F78B4" stroke="none" opacity="1"/><circle cx="395" cy="41" r="3" fill="#1F78B4" stroke="none" opacity="1"/><circle cx="398" cy="50" r="3" fill="#1F78B4" stroke="none" opacity="1"/><circle cx="402" cy="48" r="3" fill="#1F78B4" stroke="none" opacity="1"/><circle cx="405" cy="45" r="3" fill="#1F78B4" stroke="none" opacity="1"/><circle cx="409" cy="44" r="3" fill="#1F78B4" stroke="none" opacity="1"/><circle cx="413" cy="41" r="3" fill="#1F78B4" stroke="none" opacity="1"/><circle cx="416" cy="40" r="3" fill="#1F78B4" stroke="none" opacity="1"/><circle cx="420" cy="37" r="3" fill="#1F78B4" stroke="none" opacity="1"/><circle cx="424" cy="15" r="3" fill="#1F78B4" stroke="none" opacity="1"/><circle cx="427" cy="32" r="3" fill="#1F78B4" stroke="none" opacity="1"/><circle cx="431" cy="31" r="3" fill="#1F78B4" stroke="none" opacity="1"/><circle cx="435" cy="29" r="3" fill="#1F78B4" stroke="none" opacity="1"/><polyline fill="none" stroke="#1F78B4" stroke-width="1" points="75 245 435 26" opacity="1"/><polygon fill="#1F78B4" points="75 245 435 28 435 24" opacity=".25"/></svg>