<svg xmlns="http://www.w3.org/2000/svg" width="960" height="540"><text x="480" y="32" fill="#000" dy=".76em" font-family="sans-serif" font-size="16.129" opacity="1" text-anchor="middle">bench_group/threads_02/65536</text><text x="27" y="263" fill="#000" dy=".76em" font-family="sans-serif" font-size="9.677" opacity="1" text-anchor="middle" transform="rotate(270, 27, 263)">Total sample time (ms)</text><text x="510" y="513" fill="#000" dy="-.5ex" font-family="sans-serif" font-size="9.677" opacity="1" text-anchor="middle">Iterations (x 10^3)</text><line x1="187" x2="187" y1="472" y2="52" stroke="#000" stroke-width="1" opacity=".2"/><line x1="296" x2="296" y1="472" y2="52" stroke="#000" stroke-width="1" opacity=".2"/><line x1="405" x2="405" y1="472" y2="52" stroke="#000" stroke-width="1" opacity=".2"/><line x1="513" x2="513" y1="472" y2="52" stroke="#000" stroke-width="1" opacity=".2"/><line x1="622" x2="622" y1="472" y2="52" stroke="#000" stroke-width="1" opacity=".2"/><line x1="731" x2="731" y1="472" y2="52" stroke="#000" stroke-width="1" opacity=".2"/><line x1="840" x2="840" y1="472" y2="52" stroke="#000" stroke-width="1" opacity=".2"/><line x1="87" x2="933" y1="434" y2="434" stroke="#000" stroke-width="1" opacity=".2"/><line x1="87" x2="933" y1="392" y2="392" stroke="#000" stroke-width="1" opacity=".2"/><line x1="87" x2="933" y1="350" y2="350" stroke="#000" stroke-width="1" opacity=".2"/><line x1="87" x2="933" y1="308" y2="308" stroke="#000" stroke-width="1" opacity=".2"/><line x1="87" x2="933" y1="267" y2="267" stroke="#000" stroke-width="1" opacity=".2"/><line x1="87" x2="933" y1="225" y2="225" stroke="#000" stroke-width="1" opacity=".2"/><line x1="87" x2="933" y1="183" y2="183" stroke="#000" stroke-width="1" opacity=".2"/><line x1="87" x2="933" y1="141" y2="141" stroke="#000" stroke-width="1" opacity=".2"/><line x1="87" x2="933" y1="99" y2="99" stroke="#000" stroke-width="1" opacity=".2"/><line x1="87" x2="933" y1="58" y2="58" stroke="#000" stroke-width="1" opacity=".2"/><polyline fill="none" stroke="#000" stroke-width="1" points="86 53 86 473" opacity="1"/><text x="77" y="434" fill="#000" dy=".5ex" font-family="sans-serif" font-size="9.677" opacity="1" text-anchor="end">10.0</text><polyline fill="none" stroke="#000" stroke-width="1" points="81 434 86 434" opacity="1"/><text x="77" y="392" fill="#000" dy=".5ex" font-family="sans-serif" font-size="9.677" opacity="1" text-anchor="end">20.0</text><polyline fill="none" stroke="#000" stroke-width="1" points="81 392 86 392" opacity="1"/><text x="77" y="350" fill="#000" dy=".5ex" font-family="sans-serif" font-size="9.677" opacity="1" text-anchor="end">30.0</text><polyline fill="none" stroke="#000" stroke-width="1" points="81 350 86 350" opacity="1"/><text x="77" y="308" fill="#000" dy=".5ex" font-family="sans-serif" font-size="9.677" opacity="1" text-anchor="end">40.0</text><polyline fill="none" stroke="#000" stroke-width="1" points="81 308 86 308" opacity="1"/><text x="77" y="267" fill="#000" dy=".5ex" font-family="sans-serif" font-size="9.677" opacity="1" text-anchor="end">50.0</text><polyline fill="none" stroke="#000" stroke-width="1" points="81 267 86 267" opacity="1"/><text x="77" y="225" fill="#000" dy=".5ex" font-family="sans-serif" font-size="9.677" opacity="1" text-anchor="end">60.0</text><polyline fill="none" stroke="#000" stroke-width="1" points="81 225 86 225" opacity="1"/><text x="77" y="183" fill="#000" dy=".5ex" font-family="sans-serif" font-size="9.677" opacity="1" text-anchor="end">70.0</text><polyline fill="none" stroke="#000" stroke-width="1" points="81 183 86 183" opacity="1"/><text x="77" y="141" fill="#000" dy=".5ex" font-family="sans-serif" font-size="9.677" opacity="1" text-anchor="end">80.0</text><polyline fill="none" stroke="#000" stroke-width="1" points="81 141 86 141" opacity="1"/><text x="77" y="99" fill="#000" dy=".5ex" font-family="sans-serif" font-size="9.677" opacity="1" text-anchor="end">90.0</text><polyline fill="none" stroke="#000" stroke-width="1" points="81 99 86 99" opacity="1"/><text x="77" y="58" fill="#000" dy=".5ex" font-family="sans-serif" font-size="9.677" opacity="1" text-anchor="end">100.0</text><polyline fill="none" stroke="#000" stroke-width="1" points="81 58 86 58" opacity="1"/><polyline fill="none" stroke="#000" stroke-width="1" points="87 473 933 473" opacity="1"/><text x="187" y="483" fill="#000" dy=".76em" font-family="sans-serif" font-size="9.677" opacity="1" text-anchor="middle">2</text><polyline fill="none" stroke="#000" stroke-width="1" points="187 473 187 478" opacity="1"/><text x="296" y="483" fill="#000" dy=".76em" font-family="sans-serif" font-size="9.677" opacity="1" text-anchor="middle">4</text><polyline fill="none" stroke="#000" stroke-width="1" points="296 473 296 478" opacity="1"/><text x="405" y="483" fill="#000" dy=".76em" font-family="sans-serif" font-size="9.677" opacity="1" text-anchor="middle">6</text><polyline fill="none" stroke="#000" stroke-width="1" points="405 473 405 478" opacity="1"/><text x="513" y="483" fill="#000" dy=".76em" font-family="sans-serif" font-size="9.677" opacity="1" text-anchor="middle">8</text><polyline fill="none" stroke="#000" stroke-width="1" points="513 473 513 478" opacity="1"/><text x="622" y="483" fill="#000" dy=".76em" font-family="sans-serif" font-size="9.677" opacity="1" text-anchor="middle">10</text><polyline fill="none" stroke="#000" stroke-width="1" points="622 473 622 478" opacity="1"/><text x="731" y="483" fill="#000" dy=".76em" font-family="sans-serif" font-size="9.677" opacity="1" text-anchor="middle">12</text><polyline fill="none" stroke="#000" stroke-width="1" points="731 473 731 478" opacity="1"/><text x="840" y="483" fill="#000" dy=".76em" font-family="sans-serif" font-size="9.677" opacity="1" text-anchor="middle">14</text><polyline fill="none" stroke="#000" stroke-width="1" points="840 473 840 478" opacity="1"/><circle cx="87" cy="472" r="3" fill="#1F78B4" stroke="none" opacity="1"/><circle cx="95" cy="468" r="3" fill="#1F78B4" stroke="none" opacity="1"/><circle cx="104" cy="464" r="3" fill="#1F78B4" stroke="none" opacity="1"/><circle cx="112" cy="460" r="3" fill="#1F78B4" stroke="none" opacity="1"/><circle cx="121" cy="457" r="3" fill="#1F78B4" stroke="none" opacity="1"/><circle cx="129" cy="453" r="3" fill="#1F78B4" stroke="none" opacity="1"/><circle cx="138" cy="450" r="3" fill="#1F78B4" stroke="none" opacity="1"/><circle cx="146" cy="446" r="3" fill="#1F78B4" stroke="none" opacity="1"/><circle cx="155" cy="441" r="3" fill="#1F78B4" stroke="none" opacity="1"/><circle cx="163" cy="438" r="3" fill="#1F78B4" stroke="none" opacity="1"/><circle cx="172" cy="434" r="3" fill="#1F78B4" stroke="none" opacity="1"/><circle cx="181" cy="431" r="3" fill="#1F78B4" stroke="none" opacity="1"/><circle cx="189" cy="427" r="3" fill="#1F78B4" stroke="none" opacity="1"/><circle cx="198" cy="423" r="3" fill="#1F78B4" stroke="none" opacity="1"/><circle cx="206" cy="420" r="3" fill="#1F78B4" stroke="none" opacity="1"/><circle cx="215" cy="416" r="3" fill="#1F78B4" stroke="none" opacity="1"/><circle cx="223" cy="412" r="3" fill="#1F78B4" stroke="none" opacity="1"/><circle cx="232" cy="409" r="3" fill="#1F78B4" stroke="none" opacity="1"/><circle cx="240" cy="405" r="3" fill="#1F78B4" stroke="none" opacity="1"/><circle cx="249" cy="400" r="3" fill="#1F78B4" stroke="none" opacity="1"/><circle cx="257" cy="397" r="3" fill="#1F78B4" stroke="none" opacity="1"/><circle cx="266" cy="393" r="3" fill="#1F78B4" stroke="none" opacity="1"/><circle cx="275" cy="390" r="3" fill="#1F78B4" stroke="none" opacity="1"/><circle cx="283" cy="387" r="3" fill="#1F78B4" stroke="none" opacity="1"/><circle cx="292" cy="383" r="3" fill="#1F78B4" stroke="none" opacity="1"/><circle cx="300" cy="378" r="3" fill="#1F78B4" stroke="none" opacity="1"/><circle cx="309" cy="374" r="3" fill="#1F78B4" stroke="none" opacity="1"/><circle cx="317" cy="372" r="3" fill="#1F78B4" stroke="none" opacity="1"/><circle cx="326" cy="369" r="3" fill="#1F78B4" stroke="none" opacity="1"/><circle cx="334" cy="346" r="3" fill="#1F78B4" stroke="none" opacity="1"/><circle cx="343" cy="360" r="3" fill="#1F78B4" stroke="none" opacity="1"/><circle cx="351" cy="356" r="3" fill="#1F78B4" stroke="none" opacity="1"/><circle cx="360" cy="351" r="3" fill="#1F78B4" stroke="none" opacity="1"/><circle cx="369" cy="345" r="3" fill="#1F78B4" stroke="none" opacity="1"/><circle cx="377" cy="342" r="3" fill="#1F78B4" stroke="none" opacity="1"/><circle cx="386" cy="344" r="3" fill="#1F78B4" stroke="none" opacity="1"/><circle cx="394" cy="340" r="3" fill="#1F78B4" stroke="none" opacity="1"/><circle cx="403" cy="336" r="3" fill="#1F78B4" stroke="none" opacity="1"/><circle cx="411" cy="332" r="3" fill="#1F78B4" stroke="none" opacity="1"/><circle cx="420" cy="329" r="3" fill="#1F78B4" stroke="none" opacity="1"/><circle cx="428" cy="325" r="3" fill="#1F78B4" stroke="none" opacity="1"/><circle cx="437" cy="320" r="3" fill="#1F78B4" stroke="none" opacity="1"/><circle cx="445" cy="318" r="3" fill="#1F78B4" stroke="none" opacity="1"/><circle cx="454" cy="312" r="3" fill="#1F78B4" stroke="none" opacity="1"/><circle cx="463" cy="310" r="3" fill="#1F78B4" stroke="none" opacity="1"/><circle cx="471" cy="306" r="3" fill="#1F78B4" stroke="none" opacity="1"/><circle cx="480" cy="303" r="3" fill="#1F78B4" stroke="none" opacity="1"/><circle cx="488" cy="261" r="3" fill="#1F78B4" stroke="none" opacity="1"/><circle cx="497" cy="295" r="3" fill="#1F78B4" stroke="none" opacity="1"/><circle cx="505" cy="291" r="3" fill="#1F78B4" stroke="none" opacity="1"/><circle cx="514" cy="288" r="3" fill="#1F78B4" stroke="none" opacity="1"/><circle cx="522" cy="284" r="3" fill="#1F78B4" stroke="none" opacity="1"/><circle cx="531" cy="279" r="3" fill="#1F78B4" stroke="none" opacity="1"/><circle cx="539" cy="277" r="3" fill="#1F78B4" stroke="none" opacity="1"/><circle cx="548" cy="272" r="3" fill="#1F78B4" stroke="none" opacity="1"/><circle cx="557" cy="269" r="3" fill="#1F78B4" stroke="none" opacity="1"/><circle cx="565" cy="266" r="3" fill="#1F78B4" stroke="none" opacity="1"/><circle cx="574" cy="262" r="3" fill="#1F78B4" stroke="none" opacity="1"/><circle cx="582" cy="258" r="3" fill="#1F78B4" stroke="none" opacity="1"/><circle cx="591" cy="235" r="3" fill="#1F78B4" stroke="none" opacity="1"/><circle cx="599" cy="248" r="3" fill="#1F78B4" stroke="none" opacity="1"/><circle cx="608" cy="246" r="3" fill="#1F78B4" stroke="none" opacity="1"/><circle cx="616" cy="241" r="3" fill="#1F78B4" stroke="none" opacity="1"/><circle cx="625" cy="238" r="3" fill="#1F78B4" stroke="none" opacity="1"/><circle cx="633" cy="237" r="3" fill="#1F78B4" stroke="none" opacity="1"/><circle cx="642" cy="234" r="3" fill="#1F78B4" stroke="none" opacity="1"/><circle cx="651" cy="229" r="3" fill="#1F78B4" stroke="none" opacity="1"/><circle cx="659" cy="224" r="3" fill="#1F78B4" stroke="none" opacity="1"/><circle cx="668" cy="223" r="3" fill="#1F78B4" stroke="none" opacity="1"/><circle cx="676" cy="213" r="3" fill="#1F78B4" stroke="none" opacity="1"/><circle cx="685" cy="215" r="3" fill="#1F78B4" stroke="none" opacity="1"/><circle cx="693" cy="211" r="3" fill="#1F78B4" stroke="none" opacity="1"/><circle cx="702" cy="207" r="3" fill="#1F78B4" stroke="none" opacity="1"/><circle cx="710" cy="204" r="3" fill="#1F78B4" stroke="none" opacity="1"/><circle cx="719" cy="200" r="3" fill="#1F78B4" stroke="none" opacity="1"/><circle cx="727" cy="197" r="3" fill="#1F78B4" stroke="none" opacity="1"/><circle cx="736" cy="193" r="3" fill="#1F78B4" stroke="none" opacity="1"/><circle cx="745" cy="189" r="3" fill="#1F78B4" stroke="none" opacity="1"/><circle cx="753" cy="184" r="3" fill="#1F78B4" stroke="none" opacity="1"/><circle cx="762" cy="182" r="3" fill="#1F78B4" stroke="none" opacity="1"/><circle cx="770" cy="179" r="3" fill="#1F78B4" stroke="none" opacity="1"/><circle cx="779" cy="174" r="3" fill="#1F78B4" stroke="none" opacity="1"/><circle cx="787" cy="172" r="3" fill="#1F78B4" stroke="none" opacity="1"/><circle cx="796" cy="168" r="3" fill="#1F78B4" stroke="none" opacity="1"/><circle cx="804" cy="165" r="3" fill="#1F78B4" stroke="none" opacity="1"/><circle cx="813" cy="160" r="3" fill="#1F78B4" stroke="none" opacity="1"/><circle cx="821" cy="156" r="3" fill="#1F78B4" stroke="none" opacity="1"/><circle cx="830" cy="73" r="3" fill="#1F78B4" stroke="none" opacity="1"/><circle cx="839" cy="149" r="3" fill="#1F78B4" stroke="none" opacity="1"/><circle cx="847" cy="141" r="3" fill="#1F78B4" stroke="none" opacity="1"/><circle cx="856" cy="141" r="3" fill="#1F78B4" stroke="none" opacity="1"/><circle cx="864" cy="138" r="3" fill="#1F78B4" stroke="none" opacity="1"/><circle cx="873" cy="134" r="3" fill="#1F78B4" stroke="none" opacity="1"/><circle cx="881" cy="130" r="3" fill="#1F78B4" stroke="none" opacity="1"/><circle cx="890" cy="53" r="3" fill="#1F78B4" stroke="none" opacity="1"/><circle cx="898" cy="122" r="3" fill="#1F78B4" stroke="none" opacity="1"/><circle cx="907" cy="119" r="3" fill="#1F78B4" stroke="none" opacity="1"/><circle cx="915" cy="115" r="3" fill="#1F78B4" stroke="none" opacity="1"/><circle cx="924" cy="113" r="3" fill="#1F78B4" stroke="none" opacity="1"/><circle cx="933" cy="106" r="3" fill="#1F78B4" stroke="none" opacity="1"/><polyline fill="none" stroke="#1F78B4" stroke-width="1" points="87 473 933 102" opacity="1"/><polygon fill="#1F78B4" points="87 473 933 107 933 96" opacity=".25"/><text x="132" y="68" fill="#000" dy=".76em" font-family="sans-serif" font-size="9.677" opacity="1" text-anchor="start">Sample</text><text x="132" y="83" fill="#000" dy=".76em" font-family="sans-serif" font-size="9.677" opacity="1" text-anchor="start">Linear regression</text><text x="132" y="98" fill="#000" dy=".76em" font-family="sans-serif" font-size="9.677" opacity="1" text-anchor="start">Confidence interval</text><circle cx="112" cy="73" r="3" fill="#1F78B4" stroke="none" opacity="1"/><polyline fill="none" stroke="#1F78B4" stroke-width="2" points="102 88 122 88" opacity="1"/><rect width="20" height="10" x="102" y="98" fill="#1F78B4" stroke="none" opacity=".25"/></svg>