<svg xmlns="http://www.w3.org/2000/svg" width="450" height="300"><text x="15" y="130" fill="#000" dy=".76em" font-family="sans-serif" font-size="9.677" opacity="1" text-anchor="middle" transform="rotate(270, 15, 130)">Total sample time (ms)</text><text x="255" y="285" fill="#000" dy="-.5ex" font-family="sans-serif" font-size="9.677" opacity="1" text-anchor="middle">Iterations (x 10^3)</text><line x1="117" x2="117" y1="244" y2="14" stroke="#000" stroke-width="1" opacity=".2"/><line x1="164" x2="164" y1="244" y2="14" stroke="#000" stroke-width="1" opacity=".2"/><line x1="210" x2="210" y1="244" y2="14" stroke="#000" stroke-width="1" opacity=".2"/><line x1="256" x2="256" y1="244" y2="14" stroke="#000" stroke-width="1" opacity=".2"/><line x1="302" x2="302" y1="244" y2="14" stroke="#000" stroke-width="1" opacity=".2"/><line x1="349" x2="349" y1="244" y2="14" stroke="#000" stroke-width="1" opacity=".2"/><line x1="395" x2="395" y1="244" y2="14" stroke="#000" stroke-width="1" opacity=".2"/><line x1="75" x2="435" y1="223" y2="223" stroke="#000" stroke-width="1" opacity=".2"/><line x1="75" x2="435" y1="200" y2="200" stroke="#000" stroke-width="1" opacity=".2"/><line x1="75" x2="435" y1="177" y2="177" stroke="#000" stroke-width="1" opacity=".2"/><line x1="75" x2="435" y1="154" y2="154" stroke="#000" stroke-width="1" opacity=".2"/><line x1="75" x2="435" y1="131" y2="131" stroke="#000" stroke-width="1" opacity=".2"/><line x1="75" x2="435" y1="108" y2="108" stroke="#000" stroke-width="1" opacity=".2"/><line x1="75" x2="435" y1="86" y2="86" stroke="#000" stroke-width="1" opacity=".2"/><line x1="75" x2="435" y1="63" y2="63" stroke="#000" stroke-width="1" opacity=".2"/><line x1="75" x2="435" y1="40" y2="40" stroke="#000" stroke-width="1" opacity=".2"/><line x1="75" x2="435" y1="17" y2="17" stroke="#000" stroke-width="1" opacity=".2"/><polyline fill="none" stroke="#000" stroke-width="1" points="74 15 74 245" opacity="1"/><text x="65" y="223" fill="#000" dy=".5ex" font-family="sans-serif" font-size="9.677" opacity="1" text-anchor="end">10.0</text><polyline fill="none" stroke="#000" stroke-width="1" points="69 223 74 223" opacity="1"/><text x="65" y="200" fill="#000" dy=".5ex" font-family="sans-serif" font-size="9.677" opacity="1" text-anchor="end">20.0</text><polyline fill="none" stroke="#000" stroke-width="1" points="69 200 74 200" opacity="1"/><text x="65" y="177" fill="#000" dy=".5ex" font-family="sans-serif" font-size="9.677" opacity="1" text-anchor="end">30.0</text><polyline fill="none" stroke="#000" stroke-width="1" points="69 177 74 177" opacity="1"/><text x="65" y="154" fill="#000" dy=".5ex" font-family="sans-serif" font-size="9.677" opacity="1" text-anchor="end">40.0</text><polyline fill="none" stroke="#000" stroke-width="1" points="69 154 74 154" opacity="1"/><text x="65" y="131" fill="#000" dy=".5ex" font-family="sans-serif" font-size="9.677" opacity="1" text-anchor="end">50.0</text><polyline fill="none" stroke="#000" stroke-width="1" points="69 131 74 131" opacity="1"/><text x="65" y="108" fill="#000" dy=".5ex" font-family="sans-serif" font-size="9.677" opacity="1" text-anchor="end">60.0</text><polyline fill="none" stroke="#000" stroke-width="1" points="69 108 74 108" opacity="1"/><text x="65" y="86" fill="#000" dy=".5ex" font-family="sans-serif" font-size="9.677" opacity="1" text-anchor="end">70.0</text><polyline fill="none" stroke="#000" stroke-width="1" points="69 86 74 86" opacity="1"/><text x="65" y="63" fill="#000" dy=".5ex" font-family="sans-serif" font-size="9.677" opacity="1" text-anchor="end">80.0</text><polyline fill="none" stroke="#000" stroke-width="1" points="69 63 74 63" opacity="1"/><text x="65" y="40" fill="#000" dy=".5ex" font-family="sans-serif" font-size="9.677" opacity="1" text-anchor="end">90.0</text><polyline fill="none" stroke="#000" stroke-width="1" points="69 40 74 40" opacity="1"/><text x="65" y="17" fill="#000" dy=".5ex" font-family="sans-serif" font-size="9.677" opacity="1" text-anchor="end">100.0</text><polyline fill="none" stroke="#000" stroke-width="1" points="69 17 74 17" opacity="1"/><polyline fill="none" stroke="#000" stroke-width="1" points="75 245 435 245" opacity="1"/><text x="117" y="255" fill="#000" dy=".76em" font-family="sans-serif" font-size="9.677" opacity="1" text-anchor="middle">2</text><polyline fill="none" stroke="#000" stroke-width="1" points="117 245 117 250" opacity="1"/><text x="164" y="255" fill="#000" dy=".76em" font-family="sans-serif" font-size="9.677" opacity="1" text-anchor="middle">4</text><polyline fill="none" stroke="#000" stroke-width="1" points="164 245 164 250" opacity="1"/><text x="210" y="255" fill="#000" dy=".76em" font-family="sans-serif" font-size="9.677" opacity="1" text-anchor="middle">6</text><polyline fill="none" stroke="#000" stroke-width="1" points="210 245 210 250" opacity="1"/><text x="256" y="255" fill="#000" dy=".76em" font-family="sans-serif" font-size="9.677" opacity="1" text-anchor="middle">8</text><polyline fill="none" stroke="#000" stroke-width="1" points="256 245 256 250" opacity="1"/><text x="302" y="255" fill="#000" dy=".76em" font-family="sans-serif" font-size="9.677" opacity="1" text-anchor="middle">10</text><polyline fill="none" stroke="#000" stroke-width="1" points="302 245 302 250" opacity="1"/><text x="349" y="255" fill="#000" dy=".76em" font-family="sans-serif" font-size="9.677" opacity="1" text-anchor="middle">12</text><polyline fill="none" stroke="#000" stroke-width="1" points="349 245 349 250" opacity="1"/><text x="395" y="255" fill="#000" dy=".76em" font-family="sans-serif" font-size="9.677" opacity="1" text-anchor="middle">14</text><polyline fill="none" stroke="#000" stroke-width="1" points="395 245 395 250" opacity="1"/><circle cx="75" cy="244" r="3" fill="#1F78B4" stroke="none" opacity="1"/><circle cx="78" cy="241" r="3" fill="#1F78B4" stroke="none" opacity="1"/><circle cx="82" cy="240" r="3" fill="#1F78B4" stroke="none" opacity="1"/><circle cx="85" cy="237" r="3" fill="#1F78B4" stroke="none" opacity="1"/><circle cx="89" cy="235" r="3" fill="#1F78B4" stroke="none" opacity="1"/><circle cx="93" cy="233" r="3" fill="#1F78B4" stroke="none" opacity="1"/><circle cx="96" cy="232" r="3" fill="#1F78B4" stroke="none" opacity="1"/><circle cx="100" cy="229" r="3" fill="#1F78B4" stroke="none" opacity="1"/><circle cx="104" cy="227" r="3" fill="#1F78B4" stroke="none" opacity="1"/><circle cx="107" cy="225" r="3" fill="#1F78B4" stroke="none" opacity="1"/><circle cx="111" cy="223" r="3" fill="#1F78B4" stroke="none" opacity="1"/><circle cx="115" cy="221" r="3" fill="#1F78B4" stroke="none" opacity="1"/><circle cx="118" cy="219" r="3" fill="#1F78B4" stroke="none" opacity="1"/><circle cx="122" cy="217" r="3" fill="#1F78B4" stroke="none" opacity="1"/><circle cx="125" cy="215" r="3" fill="#1F78B4" stroke="none" opacity="1"/><circle cx="129" cy="213" r="3" fill="#1F78B4" stroke="none" opacity="1"/><circle cx="133" cy="211" r="3" fill="#1F78B4" stroke="none" opacity="1"/><circle cx="136" cy="209" r="3" fill="#1F78B4" stroke="none" opacity="1"/><circle cx="140" cy="207" r="3" fill="#1F78B4" stroke="none" opacity="1"/><circle cx="144" cy="205" r="3" fill="#1F78B4" stroke="none" opacity="1"/><circle cx="147" cy="203" r="3" fill="#1F78B4" stroke="none" opacity="1"/><circle cx="151" cy="201" r="3" fill="#1F78B4" stroke="none" opacity="1"/><circle cx="155" cy="199" r="3" fill="#1F78B4" stroke="none" opacity="1"/><circle cx="158" cy="197" r="3" fill="#1F78B4" stroke="none" opacity="1"/><circle cx="162" cy="195" r="3" fill="#1F78B4" stroke="none" opacity="1"/><circle cx="165" cy="192" r="3" fill="#1F78B4" stroke="none" opacity="1"/><circle cx="169" cy="190" r="3" fill="#1F78B4" stroke="none" opacity="1"/><circle cx="173" cy="189" r="3" fill="#1F78B4" stroke="none" opacity="1"/><circle cx="176" cy="188" r="3" fill="#1F78B4" stroke="none" opacity="1"/><circle cx="180" cy="175" r="3" fill="#1F78B4" stroke="none" opacity="1"/><circle cx="184" cy="182" r="3" fill="#1F78B4" stroke="none" opacity="1"/><circle cx="187" cy="180" r="3" fill="#1F78B4" stroke="none" opacity="1"/><circle cx="191" cy="178" r="3" fill="#1F78B4" stroke="none" opacity="1"/><circle cx="195" cy="174" r="3" fill="#1F78B4" stroke="none" opacity="1"/><circle cx="198" cy="172" r="3" fill="#1F78B4" stroke="none" opacity="1"/><circle cx="202" cy="174" r="3" fill="#1F78B4" stroke="none" opacity="1"/><circle cx="205" cy="171" r="3" fill="#1F78B4" stroke="none" opacity="1"/><circle cx="209" cy="169" r="3" fill="#1F78B4" stroke="none" opacity="1"/><circle cx="213" cy="167" r="3" fill="#1F78B4" stroke="none" opacity="1"/><circle cx="216" cy="166" r="3" fill="#1F78B4" stroke="none" opacity="1"/><circle cx="220" cy="163" r="3" fill="#1F78B4" stroke="none" opacity="1"/><circle cx="224" cy="161" r="3" fill="#1F78B4" stroke="none" opacity="1"/><circle cx="227" cy="159" r="3" fill="#1F78B4" stroke="none" opacity="1"/><circle cx="231" cy="156" r="3" fill="#1F78B4" stroke="none" opacity="1"/><circle cx="235" cy="155" r="3" fill="#1F78B4" stroke="none" opacity="1"/><circle cx="238" cy="153" r="3" fill="#1F78B4" stroke="none" opacity="1"/><circle cx="242" cy="151" r="3" fill="#1F78B4" stroke="none" opacity="1"/><circle cx="245" cy="128" r="3" fill="#1F78B4" stroke="none" opacity="1"/><circle cx="249" cy="147" r="3" fill="#1F78B4" stroke="none" opacity="1"/><circle cx="253" cy="145" r="3" fill="#1F78B4" stroke="none" opacity="1"/><circle cx="256" cy="143" r="3" fill="#1F78B4" stroke="none" opacity="1"/><circle cx="260" cy="141" r="3" fill="#1F78B4" stroke="none" opacity="1"/><circle cx="264" cy="138" r="3" fill="#1F78B4" stroke="none" opacity="1"/><circle cx="267" cy="137" r="3" fill="#1F78B4" stroke="none" opacity="1"/><circle cx="271" cy="134" r="3" fill="#1F78B4" stroke="none" opacity="1"/><circle cx="275" cy="132" r="3" fill="#1F78B4" stroke="none" opacity="1"/><circle cx="278" cy="131" r="3" fill="#1F78B4" stroke="none" opacity="1"/><circle cx="282" cy="129" r="3" fill="#1F78B4" stroke="none" opacity="1"/><circle cx="285" cy="127" r="3" fill="#1F78B4" stroke="none" opacity="1"/><circle cx="289" cy="114" r="3" fill="#1F78B4" stroke="none" opacity="1"/><circle cx="293" cy="121" r="3" fill="#1F78B4" stroke="none" opacity="1"/><circle cx="296" cy="120" r="3" fill="#1F78B4" stroke="none" opacity="1"/><circle cx="300" cy="117" r="3" fill="#1F78B4" stroke="none" opacity="1"/><circle cx="304" cy="115" r="3" fill="#1F78B4" stroke="none" opacity="1"/><circle cx="307" cy="115" r="3" fill="#1F78B4" stroke="none" opacity="1"/><circle cx="311" cy="114" r="3" fill="#1F78B4" stroke="none" opacity="1"/><circle cx="315" cy="111" r="3" fill="#1F78B4" stroke="none" opacity="1"/><circle cx="318" cy="108" r="3" fill="#1F78B4" stroke="none" opacity="1"/><circle cx="322" cy="107" r="3" fill="#1F78B4" stroke="none" opacity="1"/><circle cx="325" cy="102" r="3" fill="#1F78B4" stroke="none" opacity="1"/><circle cx="329" cy="103" r="3" fill="#1F78B4" stroke="none" opacity="1"/><circle cx="333" cy="101" r="3" fill="#1F78B4" stroke="none" opacity="1"/><circle cx="336" cy="99" r="3" fill="#1F78B4" stroke="none" opacity="1"/><circle cx="340" cy="97" r="3" fill="#1F78B4" stroke="none" opacity="1"/><circle cx="344" cy="95" r="3" fill="#1F78B4" stroke="none" opacity="1"/><circle cx="347" cy="93" r="3" fill="#1F78B4" stroke="none" opacity="1"/><circle cx="351" cy="91" r="3" fill="#1F78B4" stroke="none" opacity="1"/><circle cx="355" cy="89" r="3" fill="#1F78B4" stroke="none" opacity="1"/><circle cx="358" cy="86" r="3" fill="#1F78B4" stroke="none" opacity="1"/><circle cx="362" cy="85" r="3" fill="#1F78B4" stroke="none" opacity="1"/><circle cx="365" cy="84" r="3" fill="#1F78B4" stroke="none" opacity="1"/><circle cx="369" cy="81" r="3" fill="#1F78B4" stroke="none" opacity="1"/><circle cx="373" cy="79" r="3" fill="#1F78B4" stroke="none" opacity="1"/><circle cx="376" cy="78" r="3" fill="#1F78B4" stroke="none" opacity="1"/><circle cx="380" cy="75" r="3" fill="#1F78B4" stroke="none" opacity="1"/><circle cx="384" cy="73" r="3" fill="#1F78B4" stroke="none" opacity="1"/><circle cx="387" cy="71" r="3" fill="#1F78B4" stroke="none" opacity="1"/><circle cx="391" cy="25" r="3" fill="#1F78B4" stroke="none" opacity="1"/><circle cx="395" cy="67" r="3" fill="#1F78B4" stroke="none" opacity="1"/><circle cx="398" cy="62" r="3" fill="#1F78B4" stroke="none" opacity="1"/><circle cx="402" cy="63" r="3" fill="#1F78B4" stroke="none" opacity="1"/><circle cx="405" cy="61" r="3" fill="#1F78B4" stroke="none" opacity="1"/><circle cx="409" cy="59" r="3" fill="#1F78B4" stroke="none" opacity="1"/><circle cx="413" cy="57" r="3" fill="#1F78B4" stroke="none" opacity="1"/><circle cx="416" cy="15" r="3" fill="#1F78B4" stroke="none" opacity="1"/><circle cx="420" cy="52" r="3" fill="#1F78B4" stroke="none" opacity="1"/><circle cx="424" cy="50" r="3" fill="#1F78B4" stroke="none" opacity="1"/><circle cx="427" cy="48" r="3" fill="#1F78B4" stroke="none" opacity="1"/><circle cx="431" cy="47" r="3" fill="#1F78B4" stroke="none" opacity="1"/><circle cx="435" cy="43" r="3" fill="#1F78B4" stroke="none" opacity="1"/><polyline fill="none" stroke="#1F78B4" stroke-width="1" points="75 245 435 41" opacity="1"/><polygon fill="#1F78B4" points="75 245 435 44 435 38" opacity=".25"/></svg>