<svg xmlns="http://www.w3.org/2000/svg" width="960" height="540"><text x="480" y="5" fill="#000" dy=".76em" font-family="sans-serif" font-size="16.129" opacity="1" text-anchor="middle">bench_group/threads_08: Comparision</text><text x="26" y="263" fill="#000" dy=".76em" font-family="sans-serif" font-size="9.677" opacity="1" text-anchor="middle" transform="rotate(270, 26, 263)">Average time (ms)</text><text x="510" y="514" fill="#000" dy="-.5ex" font-family="sans-serif" font-size="9.677" opacity="1" text-anchor="middle">Input Size (Bytes)</text><polyline fill="none" stroke="#000" stroke-width="1" points="85 52 85 474" opacity="1"/><text x="76" y="387" fill="#000" dy=".5ex" font-family="sans-serif" font-size="9.677" opacity="1" text-anchor="end">5.0</text><polyline fill="none" stroke="#000" stroke-width="1" points="80 387 85 387" opacity="1"/><text x="76" y="301" fill="#000" dy=".5ex" font-family="sans-serif" font-size="9.677" opacity="1" text-anchor="end">10.0</text><polyline fill="none" stroke="#000" stroke-width="1" points="80 301 85 301" opacity="1"/><text x="76" y="215" fill="#000" dy=".5ex" font-family="sans-serif" font-size="9.677" opacity="1" text-anchor="end">15.0</text><polyline fill="none" stroke="#000" stroke-width="1" points="80 215 85 215" opacity="1"/><text x="76" y="129" fill="#000" dy=".5ex" font-family="sans-serif" font-size="9.677" opacity="1" text-anchor="end">20.0</text><polyline fill="none" stroke="#000" stroke-width="1" points="80 129 85 129" opacity="1"/><polyline fill="none" stroke="#000" stroke-width="1" points="86 474 934 474" opacity="1"/><text x="243" y="484" fill="#000" dy=".76em" font-family="sans-serif" font-size="9.677" opacity="1" text-anchor="middle">200000000.0</text><polyline fill="none" stroke="#000" stroke-width="1" points="243 474 243 479" opacity="1"/><text x="401" y="484" fill="#000" dy=".76em" font-family="sans-serif" font-size="9.677" opacity="1" text-anchor="middle">400000000.0</text><polyline fill="none" stroke="#000" stroke-width="1" points="401 474 401 479" opacity="1"/><text x="559" y="484" fill="#000" dy=".76em" font-family="sans-serif" font-size="9.677" opacity="1" text-anchor="middle">600000000.0</text><polyline fill="none" stroke="#000" stroke-width="1" points="559 474 559 479" opacity="1"/><text x="717" y="484" fill="#000" dy=".76em" font-family="sans-serif" font-size="9.677" opacity="1" text-anchor="middle">800000000.0</text><polyline fill="none" stroke="#000" stroke-width="1" points="717 474 717 479" opacity="1"/><text x="875" y="484" fill="#000" dy=".76em" font-family="sans-serif" font-size="9.677" opacity="1" text-anchor="middle">1000000000.0</text><polyline fill="none" stroke="#000" stroke-width="1" points="875 474 875 479" opacity="1"/><circle cx="86" cy="473" r="3" fill="#B22222" stroke="none" opacity="1"/><circle cx="86" cy="472" r="3" fill="#B22222" stroke="none" opacity="1"/><circle cx="86" cy="472" r="3" fill="#B22222" stroke="none" opacity="1"/><circle cx="86" cy="472" r="3" fill="#B22222" stroke="none" opacity="1"/><circle cx="86" cy="472" r="3" fill="#B22222" stroke="none" opacity="1"/><circle cx="86" cy="472" r="3" fill="#B22222" stroke="none" opacity="1"/><circle cx="87" cy="472" r="3" fill="#B22222" stroke="none" opacity="1"/><circle cx="89" cy="471" r="3" fill="#B22222" stroke="none" opacity="1"/><circle cx="92" cy="470" r="3" fill="#B22222" stroke="none" opacity="1"/><circle cx="99" cy="467" r="3" fill="#B22222" stroke="none" opacity="1"/><circle cx="112" cy="461" r="3" fill="#B22222" stroke="none" opacity="1"/><circle cx="138" cy="448" r="3" fill="#B22222" stroke="none" opacity="1"/><circle cx="191" cy="422" r="3" fill="#B22222" stroke="none" opacity="1"/><circle cx="297" cy="370" r="3" fill="#B22222" stroke="none" opacity="1"/><circle cx="509" cy="266" r="3" fill="#B22222" stroke="none" opacity="1"/><circle cx="934" cy="52" r="3" fill="#B22222" stroke="none" opacity="1"/><polyline fill="none" stroke="#B22222" stroke-width="1" points="86 473 86 472 86 472 86 472 86 472 86 472 87 472 89 471 92 470 99 467 112 461 138 448 191 422 297 370 509 266 934 52" opacity="1"/><text x="131" y="67" fill="#000" dy=".76em" font-family="sans-serif" font-size="9.677" opacity="1" text-anchor="start">threads_08</text><rect width="20" height="10" x="101" y="67" fill="#B22222" stroke="none" opacity="1"/></svg>