<svg xmlns="http://www.w3.org/2000/svg" width="960" height="540"><text x="480" y="32" fill="#000" dy=".76em" font-family="sans-serif" font-size="16.129" opacity="1" text-anchor="middle">bench_group/threads_04/1073741824</text><text x="27" y="263" fill="#000" dy=".76em" font-family="sans-serif" font-size="9.677" opacity="1" text-anchor="middle" transform="rotate(270, 27, 263)">Iterations</text><text x="480" y="513" fill="#000" dy="-.5ex" font-family="sans-serif" font-size="9.677" opacity="1" text-anchor="middle">Average Time (ms)</text><polyline fill="none" stroke="#000" stroke-width="1" points="86 53 86 473" opacity="1"/><text x="77" y="430" fill="#000" dy=".5ex" font-family="sans-serif" font-size="9.677" opacity="1" text-anchor="end">10</text><polyline fill="none" stroke="#000" stroke-width="1" points="81 430 86 430" opacity="1"/><text x="77" y="388" fill="#000" dy=".5ex" font-family="sans-serif" font-size="9.677" opacity="1" text-anchor="end">20</text><polyline fill="none" stroke="#000" stroke-width="1" points="81 388 86 388" opacity="1"/><text x="77" y="346" fill="#000" dy=".5ex" font-family="sans-serif" font-size="9.677" opacity="1" text-anchor="end">30</text><polyline fill="none" stroke="#000" stroke-width="1" points="81 346 86 346" opacity="1"/><text x="77" y="304" fill="#000" dy=".5ex" font-family="sans-serif" font-size="9.677" opacity="1" text-anchor="end">40</text><polyline fill="none" stroke="#000" stroke-width="1" points="81 304 86 304" opacity="1"/><text x="77" y="262" fill="#000" dy=".5ex" font-family="sans-serif" font-size="9.677" opacity="1" text-anchor="end">50</text><polyline fill="none" stroke="#000" stroke-width="1" points="81 262 86 262" opacity="1"/><text x="77" y="220" fill="#000" dy=".5ex" font-family="sans-serif" font-size="9.677" opacity="1" text-anchor="end">60</text><polyline fill="none" stroke="#000" stroke-width="1" points="81 220 86 220" opacity="1"/><text x="77" y="178" fill="#000" dy=".5ex" font-family="sans-serif" font-size="9.677" opacity="1" text-anchor="end">70</text><polyline fill="none" stroke="#000" stroke-width="1" points="81 178 86 178" opacity="1"/><text x="77" y="136" fill="#000" dy=".5ex" font-family="sans-serif" font-size="9.677" opacity="1" text-anchor="end">80</text><polyline fill="none" stroke="#000" stroke-width="1" points="81 136 86 136" opacity="1"/><text x="77" y="94" fill="#000" dy=".5ex" font-family="sans-serif" font-size="9.677" opacity="1" text-anchor="end">90</text><polyline fill="none" stroke="#000" stroke-width="1" points="81 94 86 94" opacity="1"/><polyline fill="none" stroke="#000" stroke-width="1" points="87 473 873 473" opacity="1"/><text x="110" y="483" fill="#000" dy=".76em" font-family="sans-serif" font-size="9.677" opacity="1" text-anchor="middle">44</text><polyline fill="none" stroke="#000" stroke-width="1" points="110 473 110 478" opacity="1"/><text x="257" y="483" fill="#000" dy=".76em" font-family="sans-serif" font-size="9.677" opacity="1" text-anchor="middle">46</text><polyline fill="none" stroke="#000" stroke-width="1" points="257 473 257 478" opacity="1"/><text x="404" y="483" fill="#000" dy=".76em" font-family="sans-serif" font-size="9.677" opacity="1" text-anchor="middle">48</text><polyline fill="none" stroke="#000" stroke-width="1" points="404 473 404 478" opacity="1"/><text x="551" y="483" fill="#000" dy=".76em" font-family="sans-serif" font-size="9.677" opacity="1" text-anchor="middle">50</text><polyline fill="none" stroke="#000" stroke-width="1" points="551 473 551 478" opacity="1"/><text x="697" y="483" fill="#000" dy=".76em" font-family="sans-serif" font-size="9.677" opacity="1" text-anchor="middle">52</text><polyline fill="none" stroke="#000" stroke-width="1" points="697 473 697 478" opacity="1"/><text x="844" y="483" fill="#000" dy=".76em" font-family="sans-serif" font-size="9.677" opacity="1" text-anchor="middle">54</text><polyline fill="none" stroke="#000" stroke-width="1" points="844 473 844 478" opacity="1"/><text x="933" y="263" fill="#000" dy=".76em" font-family="sans-serif" font-size="9.677" opacity="1" text-anchor="middle" transform="rotate(90, 933, 263)">Density (a.u.)</text><polyline fill="none" stroke="#000" stroke-width="1" points="873 54 873 473" opacity="1"/><text x="883" y="382" fill="#000" dy=".5ex" font-family="sans-serif" font-size="9.677" opacity="1" text-anchor="start">0.05</text><polyline fill="none" stroke="#000" stroke-width="1" points="873 382 878 382" opacity="1"/><text x="905" y="292" fill="#000" dy=".5ex" font-family="sans-serif" font-size="9.677" opacity="1" text-anchor="end">0.1</text><polyline fill="none" stroke="#000" stroke-width="1" points="873 292 878 292" opacity="1"/><text x="883" y="202" fill="#000" dy=".5ex" font-family="sans-serif" font-size="9.677" opacity="1" text-anchor="start">0.15</text><polyline fill="none" stroke="#000" stroke-width="1" points="873 202 878 202" opacity="1"/><text x="905" y="112" fill="#000" dy=".5ex" font-family="sans-serif" font-size="9.677" opacity="1" text-anchor="end">0.2</text><polyline fill="none" stroke="#000" stroke-width="1" points="873 112 878 112" opacity="1"/><polygon fill="#1F78B4" points="87 472 88 472 90 472 91 472 93 472 94 472 96 472 98 472 99 471 101 471 102 471 104 471 105 471 107 471 109 471 110 470 112 470 113 470 115 470 116 470 118 469 120 469 121 469 123 469 124 468 126 468 127 467 129 467 131 467 132 466 134 466 135 465 137 465 138 464 140 463 142 463 143 462 145 461 146 461 148 460 150 459 151 458 153 457 154 456 156 455 157 454 159 453 161 451 162 450 164 449 165 447 167 446 168 444 170 443 172 441 173 439 175 438 176 436 178 434 179 432 181 430 183 428 184 426 186 423 187 421 189 419 190 416 192 414 194 411 195 408 197 406 198 403 200 400 201 397 203 394 205 391 206 388 208 385 209 382 211 379 213 376 214 373 216 369 217 366 219 363 220 360 222 356 224 353 225 350 227 346 228 343 230 340 231 337 233 333 235 330 236 327 238 324 239 321 241 318 242 315 244 312 246 309 247 307 249 304 250 301 252 299 253 296 255 294 257 292 258 290 260 287 261 286 263 284 264 282 266 280 268 279 269 277 271 276 272 275 274 274 276 273 277 272 279 271 280 270 282 270 283 269 285 269 287 269 288 268 290 268 291 268 293 268 294 268 296 269 298 269 299 269 301 270 302 270 304 271 305 271 307 272 309 273 310 273 312 274 313 275 315 275 316 276 318 277 320 278 321 278 323 279 324 280 326 281 327 281 329 282 331 282 332 283 334 284 335 284 337 284 339 285 340 285 342 285 343 285 345 286 346 286 348 286 350 285 351 285 353 285 354 285 356 284 357 284 359 283 361 282 362 282 364 281 365 280 367 279 368 278 370 277 372 276 373 274 375 273 376 272 378 270 379 268 381 267 383 265 384 263 386 261 387 260 389 258 391 256 392 254 394 251 395 249 397 247 398 245 400 242 402 240 403 238 405 235 406 233 408 230 409 228 411 225 413 222 414 220 416 217 417 214 419 212 420 209 422 206 424 204 425 201 427 198 428 195 430 192 431 190 433 187 435 184 436 181 438 178 439 176 441 173 442 170 444 167 446 164 447 162 449 159 450 156 452 153 454 151 455 148 457 145 458 143 460 140 461 137 463 135 465 132 466 129 468 127 469 124 471 122 472 119 474 117 476 114 477 112 479 109 480 107 482 105 483 102 485 100 487 98 488 96 490 93 491 91 493 89 494 87 496 85 498 83 499 81 501 79 502 77 504 76 505 74 507 72 509 71 510 69 512 68 513 66 515 65 517 63 518 62 520 61 521 60 523 59 524 58 526 57 528 56 529 55 531 55 532 54 534 54 535 53 537 53 539 53 540 53 542 53 543 53 545 53 546 53 548 54 550 54 551 55 553 55 554 56 556 57 557 58 559 60 561 61 562 62 564 64 565 66 567 67 568 69 570 71 572 74 573 76 575 78 576 81 578 84 580 86 581 89 583 92 584 95 586 98 587 102 589 105 591 109 592 112 594 116 595 120 597 124 598 128 600 132 602 136 603 140 605 145 606 149 608 153 609 158 611 162 613 167 614 172 616 176 617 181 619 186 620 191 622 195 624 200 625 205 627 210 628 215 630 220 632 225 633 230 635 234 636 239 638 244 639 249 641 254 643 258 644 263 646 268 647 273 649 277 650 282 652 286 654 291 655 295 657 300 658 304 660 308 661 312 663 317 665 321 666 325 668 329 669 333 671 336 672 340 674 344 676 347 677 351 679 354 680 358 682 361 683 364 685 368 687 371 688 374 690 377 691 380 693 383 695 385 696 388 698 391 699 393 701 396 702 398 704 401 706 403 707 405 709 407 710 410 712 412 713 414 715 416 717 418 718 419 720 421 721 423 723 425 724 426 726 428 728 430 729 431 731 433 732 434 734 435 735 437 737 438 739 439 740 441 742 442 743 443 745 444 746 445 748 446 750 447 751 448 753 449 754 450 756 451 758 452 759 453 761 454 762 455 764 455 765 456 767 457 769 458 770 458 772 459 773 460 775 460 776 461 778 461 780 462 781 462 783 463 784 463 786 464 787 464 789 465 791 465 792 466 794 466 795 466 797 467 798 467 800 467 802 468 803 468 805 468 806 468 808 469 809 469 811 469 813 469 814 469 816 470 817 470 819 470 821 470 822 470 824 470 825 471 827 471 828 471 830 471 832 471 833 471 835 471 836 471 838 471 839 472 841 472 843 472 844 472 846 472 847 472 849 472 850 472 852 472 854 472 855 472 857 472 858 472 860 472 861 472 863 472 865 472 866 472 868 472 869 472 871 472 873 472 873 473 87 473" opacity=".5"/><polyline fill="none" stroke="#1F78B4" stroke-width="1" points="474 472 474 53" opacity="1"/><polyline fill="none" stroke="#FF7F00" stroke-width="1" points="123 472 123 53" opacity="1"/><polyline fill="none" stroke="#FF7F00" stroke-width="1" points="833 472 833 53" opacity="1"/><polyline fill="none" stroke="#E31A1C" stroke-width="1" points="87 472 87 53" opacity="1"/><polyline fill="none" stroke="#E31A1C" stroke-width="1" points="873 472 873 53" opacity="1"/><circle cx="294" cy="467" r="3" fill="#1F78B4" stroke="none" opacity="1"/><circle cx="272" cy="463" r="3" fill="#1F78B4" stroke="none" opacity="1"/><circle cx="283" cy="459" r="3" fill="#1F78B4" stroke="none" opacity="1"/><circle cx="278" cy="455" r="3" fill="#1F78B4" stroke="none" opacity="1"/><circle cx="269" cy="451" r="3" fill="#1F78B4" stroke="none" opacity="1"/><circle cx="250" cy="446" r="3" fill="#1F78B4" stroke="none" opacity="1"/><circle cx="267" cy="442" r="3" fill="#1F78B4" stroke="none" opacity="1"/><circle cx="247" cy="438" r="3" fill="#1F78B4" stroke="none" opacity="1"/><circle cx="242" cy="434" r="3" fill="#1F78B4" stroke="none" opacity="1"/><circle cx="267" cy="430" r="3" fill="#1F78B4" stroke="none" opacity="1"/><circle cx="274" cy="425" r="3" fill="#1F78B4" stroke="none" opacity="1"/><circle cx="283" cy="421" r="3" fill="#1F78B4" stroke="none" opacity="1"/><circle cx="253" cy="417" r="3" fill="#1F78B4" stroke="none" opacity="1"/><circle cx="260" cy="413" r="3" fill="#1F78B4" stroke="none" opacity="1"/><circle cx="355" cy="409" r="3" fill="#1F78B4" stroke="none" opacity="1"/><circle cx="286" cy="404" r="3" fill="#1F78B4" stroke="none" opacity="1"/><circle cx="292" cy="400" r="3" fill="#1F78B4" stroke="none" opacity="1"/><circle cx="295" cy="396" r="3" fill="#1F78B4" stroke="none" opacity="1"/><circle cx="307" cy="392" r="3" fill="#1F78B4" stroke="none" opacity="1"/><circle cx="328" cy="388" r="3" fill="#1F78B4" stroke="none" opacity="1"/><circle cx="314" cy="383" r="3" fill="#1F78B4" stroke="none" opacity="1"/><circle cx="381" cy="379" r="3" fill="#1F78B4" stroke="none" opacity="1"/><circle cx="377" cy="375" r="3" fill="#1F78B4" stroke="none" opacity="1"/><circle cx="386" cy="371" r="3" fill="#1F78B4" stroke="none" opacity="1"/><circle cx="502" cy="367" r="3" fill="#1F78B4" stroke="none" opacity="1"/><circle cx="409" cy="362" r="3" fill="#1F78B4" stroke="none" opacity="1"/><circle cx="507" cy="358" r="3" fill="#1F78B4" stroke="none" opacity="1"/><circle cx="397" cy="354" r="3" fill="#1F78B4" stroke="none" opacity="1"/><circle cx="644" cy="350" r="3" fill="#1F78B4" stroke="none" opacity="1"/><circle cx="368" cy="346" r="3" fill="#1F78B4" stroke="none" opacity="1"/><circle cx="390" cy="341" r="3" fill="#1F78B4" stroke="none" opacity="1"/><circle cx="488" cy="337" r="3" fill="#1F78B4" stroke="none" opacity="1"/><circle cx="487" cy="333" r="3" fill="#1F78B4" stroke="none" opacity="1"/><circle cx="475" cy="329" r="3" fill="#1F78B4" stroke="none" opacity="1"/><circle cx="414" cy="325" r="3" fill="#1F78B4" stroke="none" opacity="1"/><circle cx="493" cy="320" r="3" fill="#1F78B4" stroke="none" opacity="1"/><circle cx="514" cy="316" r="3" fill="#1F78B4" stroke="none" opacity="1"/><circle cx="561" cy="312" r="3" fill="#1F78B4" stroke="none" opacity="1"/><circle cx="551" cy="308" r="3" fill="#1F78B4" stroke="none" opacity="1"/><circle cx="529" cy="304" r="3" fill="#1F78B4" stroke="none" opacity="1"/><circle cx="519" cy="299" r="3" fill="#1F78B4" stroke="none" opacity="1"/><circle cx="536" cy="295" r="3" fill="#1F78B4" stroke="none" opacity="1"/><circle cx="561" cy="291" r="3" fill="#1F78B4" stroke="none" opacity="1"/><circle cx="543" cy="287" r="3" fill="#1F78B4" stroke="none" opacity="1"/><circle cx="624" cy="283" r="3" fill="#1F78B4" stroke="none" opacity="1"/><circle cx="410" cy="278" r="3" fill="#1F78B4" stroke="none" opacity="1"/><circle cx="594" cy="274" r="3" fill="#1F78B4" stroke="none" opacity="1"/><circle cx="529" cy="270" r="3" fill="#1F78B4" stroke="none" opacity="1"/><circle cx="440" cy="266" r="3" fill="#1F78B4" stroke="none" opacity="1"/><circle cx="511" cy="262" r="3" fill="#1F78B4" stroke="none" opacity="1"/><circle cx="398" cy="257" r="3" fill="#1F78B4" stroke="none" opacity="1"/><circle cx="462" cy="253" r="3" fill="#1F78B4" stroke="none" opacity="1"/><circle cx="547" cy="249" r="3" fill="#1F78B4" stroke="none" opacity="1"/><circle cx="423" cy="245" r="3" fill="#1F78B4" stroke="none" opacity="1"/><circle cx="593" cy="241" r="3" fill="#1F78B4" stroke="none" opacity="1"/><circle cx="571" cy="236" r="3" fill="#1F78B4" stroke="none" opacity="1"/><circle cx="661" cy="232" r="3" fill="#1F78B4" stroke="none" opacity="1"/><circle cx="617" cy="228" r="3" fill="#1F78B4" stroke="none" opacity="1"/><circle cx="700" cy="224" r="3" fill="#1F78B4" stroke="none" opacity="1"/><circle cx="580" cy="220" r="3" fill="#1F78B4" stroke="none" opacity="1"/><circle cx="586" cy="215" r="3" fill="#1F78B4" stroke="none" opacity="1"/><circle cx="560" cy="211" r="3" fill="#1F78B4" stroke="none" opacity="1"/><circle cx="530" cy="207" r="3" fill="#1F78B4" stroke="none" opacity="1"/><circle cx="470" cy="203" r="3" fill="#1F78B4" stroke="none" opacity="1"/><circle cx="619" cy="199" r="3" fill="#1F78B4" stroke="none" opacity="1"/><circle cx="599" cy="194" r="3" fill="#1F78B4" stroke="none" opacity="1"/><circle cx="656" cy="190" r="3" fill="#1F78B4" stroke="none" opacity="1"/><circle cx="572" cy="186" r="3" fill="#1F78B4" stroke="none" opacity="1"/><circle cx="463" cy="182" r="3" fill="#1F78B4" stroke="none" opacity="1"/><circle cx="599" cy="178" r="3" fill="#1F78B4" stroke="none" opacity="1"/><circle cx="470" cy="173" r="3" fill="#1F78B4" stroke="none" opacity="1"/><circle cx="436" cy="169" r="3" fill="#1F78B4" stroke="none" opacity="1"/><circle cx="523" cy="165" r="3" fill="#1F78B4" stroke="none" opacity="1"/><circle cx="579" cy="161" r="3" fill="#1F78B4" stroke="none" opacity="1"/><circle cx="643" cy="157" r="3" fill="#1F78B4" stroke="none" opacity="1"/><circle cx="456" cy="152" r="3" fill="#1F78B4" stroke="none" opacity="1"/><circle cx="462" cy="148" r="3" fill="#1F78B4" stroke="none" opacity="1"/><circle cx="597" cy="144" r="3" fill="#1F78B4" stroke="none" opacity="1"/><circle cx="614" cy="140" r="3" fill="#1F78B4" stroke="none" opacity="1"/><circle cx="508" cy="136" r="3" fill="#1F78B4" stroke="none" opacity="1"/><circle cx="548" cy="131" r="3" fill="#1F78B4" stroke="none" opacity="1"/><circle cx="537" cy="127" r="3" fill="#1F78B4" stroke="none" opacity="1"/><circle cx="717" cy="123" r="3" fill="#1F78B4" stroke="none" opacity="1"/><circle cx="607" cy="119" r="3" fill="#1F78B4" stroke="none" opacity="1"/><circle cx="479" cy="115" r="3" fill="#1F78B4" stroke="none" opacity="1"/><circle cx="486" cy="110" r="3" fill="#1F78B4" stroke="none" opacity="1"/><circle cx="612" cy="106" r="3" fill="#1F78B4" stroke="none" opacity="1"/><circle cx="551" cy="102" r="3" fill="#1F78B4" stroke="none" opacity="1"/><circle cx="559" cy="98" r="3" fill="#1F78B4" stroke="none" opacity="1"/><circle cx="601" cy="94" r="3" fill="#1F78B4" stroke="none" opacity="1"/><circle cx="567" cy="89" r="3" fill="#1F78B4" stroke="none" opacity="1"/><circle cx="457" cy="85" r="3" fill="#1F78B4" stroke="none" opacity="1"/><circle cx="568" cy="81" r="3" fill="#1F78B4" stroke="none" opacity="1"/><circle cx="456" cy="77" r="3" fill="#1F78B4" stroke="none" opacity="1"/><circle cx="540" cy="73" r="3" fill="#1F78B4" stroke="none" opacity="1"/><circle cx="585" cy="68" r="3" fill="#1F78B4" stroke="none" opacity="1"/><circle cx="440" cy="64" r="3" fill="#1F78B4" stroke="none" opacity="1"/><circle cx="557" cy="60" r="3" fill="#1F78B4" stroke="none" opacity="1"/><circle cx="453" cy="56" r="3" fill="#1F78B4" stroke="none" opacity="1"/><circle cx="492" cy="53" r="3" fill="#1F78B4" stroke="none" opacity="1"/><text x="776" y="228" fill="#000" dy=".76em" font-family="sans-serif" font-size="9.677" opacity="1" text-anchor="start">PDF</text><text x="776" y="243" fill="#000" dy=".76em" font-family="sans-serif" font-size="9.677" opacity="1" text-anchor="start">Mean</text><text x="776" y="258" fill="#000" dy=".76em" font-family="sans-serif" font-size="9.677" opacity="1" text-anchor="start">&quot;Clean&quot; sample</text><text x="776" y="273" fill="#000" dy=".76em" font-family="sans-serif" font-size="9.677" opacity="1" text-anchor="start">Mild outliers</text><text x="776" y="288" fill="#000" dy=".76em" font-family="sans-serif" font-size="9.677" opacity="1" text-anchor="start">Severe outliers</text><rect width="20" height="10" x="746" y="228" fill="#1F78B4" stroke="none" opacity=".5"/><polyline fill="none" stroke="#1F78B4" stroke-width="1" points="746 248 766 248" opacity="1"/><circle cx="756" cy="263" r="3" fill="#1F78B4" stroke="none" opacity="1"/><circle cx="756" cy="278" r="3" fill="#FF7F00" stroke="none" opacity="1"/><circle cx="756" cy="293" r="3" fill="#E31A1C" stroke="none" opacity="1"/></svg>