<svg xmlns="http://www.w3.org/2000/svg" width="960" height="540"><text x="480" y="32" fill="#000" dy=".76em" font-family="sans-serif" font-size="16.129" opacity="1" text-anchor="middle">bench_group/threads_32/2097152</text><text x="27" y="263" fill="#000" dy=".76em" font-family="sans-serif" font-size="9.677" opacity="1" text-anchor="middle" transform="rotate(270, 27, 263)">Total sample time (ms)</text><text x="510" y="513" fill="#000" dy="-.5ex" font-family="sans-serif" font-size="9.677" opacity="1" text-anchor="middle">Iterations (x 10^3)</text><line x1="163" x2="163" y1="472" y2="52" stroke="#000" stroke-width="1" opacity=".2"/><line x1="249" x2="249" y1="472" y2="52" stroke="#000" stroke-width="1" opacity=".2"/><line x1="334" x2="334" y1="472" y2="52" stroke="#000" stroke-width="1" opacity=".2"/><line x1="420" x2="420" y1="472" y2="52" stroke="#000" stroke-width="1" opacity=".2"/><line x1="505" x2="505" y1="472" y2="52" stroke="#000" stroke-width="1" opacity=".2"/><line x1="591" x2="591" y1="472" y2="52" stroke="#000" stroke-width="1" opacity=".2"/><line x1="676" x2="676" y1="472" y2="52" stroke="#000" stroke-width="1" opacity=".2"/><line x1="762" x2="762" y1="472" y2="52" stroke="#000" stroke-width="1" opacity=".2"/><line x1="847" x2="847" y1="472" y2="52" stroke="#000" stroke-width="1" opacity=".2"/><line x1="933" x2="933" y1="472" y2="52" stroke="#000" stroke-width="1" opacity=".2"/><line x1="87" x2="933" y1="434" y2="434" stroke="#000" stroke-width="1" opacity=".2"/><line x1="87" x2="933" y1="391" y2="391" stroke="#000" stroke-width="1" opacity=".2"/><line x1="87" x2="933" y1="349" y2="349" stroke="#000" stroke-width="1" opacity=".2"/><line x1="87" x2="933" y1="306" y2="306" stroke="#000" stroke-width="1" opacity=".2"/><line x1="87" x2="933" y1="264" y2="264" stroke="#000" stroke-width="1" opacity=".2"/><line x1="87" x2="933" y1="222" y2="222" stroke="#000" stroke-width="1" opacity=".2"/><line x1="87" x2="933" y1="179" y2="179" stroke="#000" stroke-width="1" opacity=".2"/><line x1="87" x2="933" y1="137" y2="137" stroke="#000" stroke-width="1" opacity=".2"/><line x1="87" x2="933" y1="94" y2="94" stroke="#000" stroke-width="1" opacity=".2"/><line x1="87" x2="933" y1="52" y2="52" stroke="#000" stroke-width="1" opacity=".2"/><polyline fill="none" stroke="#000" stroke-width="1" points="86 53 86 473" opacity="1"/><text x="77" y="434" fill="#000" dy=".5ex" font-family="sans-serif" font-size="9.677" opacity="1" text-anchor="end">10.0</text><polyline fill="none" stroke="#000" stroke-width="1" points="81 434 86 434" opacity="1"/><text x="77" y="391" fill="#000" dy=".5ex" font-family="sans-serif" font-size="9.677" opacity="1" text-anchor="end">20.0</text><polyline fill="none" stroke="#000" stroke-width="1" points="81 391 86 391" opacity="1"/><text x="77" y="349" fill="#000" dy=".5ex" font-family="sans-serif" font-size="9.677" opacity="1" text-anchor="end">30.0</text><polyline fill="none" stroke="#000" stroke-width="1" points="81 349 86 349" opacity="1"/><text x="77" y="306" fill="#000" dy=".5ex" font-family="sans-serif" font-size="9.677" opacity="1" text-anchor="end">40.0</text><polyline fill="none" stroke="#000" stroke-width="1" points="81 306 86 306" opacity="1"/><text x="77" y="264" fill="#000" dy=".5ex" font-family="sans-serif" font-size="9.677" opacity="1" text-anchor="end">50.0</text><polyline fill="none" stroke="#000" stroke-width="1" points="81 264 86 264" opacity="1"/><text x="77" y="222" fill="#000" dy=".5ex" font-family="sans-serif" font-size="9.677" opacity="1" text-anchor="end">60.0</text><polyline fill="none" stroke="#000" stroke-width="1" points="81 222 86 222" opacity="1"/><text x="77" y="179" fill="#000" dy=".5ex" font-family="sans-serif" font-size="9.677" opacity="1" text-anchor="end">70.0</text><polyline fill="none" stroke="#000" stroke-width="1" points="81 179 86 179" opacity="1"/><text x="77" y="137" fill="#000" dy=".5ex" font-family="sans-serif" font-size="9.677" opacity="1" text-anchor="end">80.0</text><polyline fill="none" stroke="#000" stroke-width="1" points="81 137 86 137" opacity="1"/><text x="77" y="94" fill="#000" dy=".5ex" font-family="sans-serif" font-size="9.677" opacity="1" text-anchor="end">90.0</text><polyline fill="none" stroke="#000" stroke-width="1" points="81 94 86 94" opacity="1"/><polyline fill="none" stroke="#000" stroke-width="1" points="87 473 933 473" opacity="1"/><text x="163" y="483" fill="#000" dy=".76em" font-family="sans-serif" font-size="9.677" opacity="1" text-anchor="middle">0.2</text><polyline fill="none" stroke="#000" stroke-width="1" points="163 473 163 478" opacity="1"/><text x="249" y="483" fill="#000" dy=".76em" font-family="sans-serif" font-size="9.677" opacity="1" text-anchor="middle">0.4</text><polyline fill="none" stroke="#000" stroke-width="1" points="249 473 249 478" opacity="1"/><text x="334" y="483" fill="#000" dy=".76em" font-family="sans-serif" font-size="9.677" opacity="1" text-anchor="middle">0.6</text><polyline fill="none" stroke="#000" stroke-width="1" points="334 473 334 478" opacity="1"/><text x="420" y="483" fill="#000" dy=".76em" font-family="sans-serif" font-size="9.677" opacity="1" text-anchor="middle">0.8</text><polyline fill="none" stroke="#000" stroke-width="1" points="420 473 420 478" opacity="1"/><text x="505" y="483" fill="#000" dy=".76em" font-family="sans-serif" font-size="9.677" opacity="1" text-anchor="middle">1</text><polyline fill="none" stroke="#000" stroke-width="1" points="505 473 505 478" opacity="1"/><text x="591" y="483" fill="#000" dy=".76em" font-family="sans-serif" font-size="9.677" opacity="1" text-anchor="middle">1.2</text><polyline fill="none" stroke="#000" stroke-width="1" points="591 473 591 478" opacity="1"/><text x="676" y="483" fill="#000" dy=".76em" font-family="sans-serif" font-size="9.677" opacity="1" text-anchor="middle">1.4</text><polyline fill="none" stroke="#000" stroke-width="1" points="676 473 676 478" opacity="1"/><text x="762" y="483" fill="#000" dy=".76em" font-family="sans-serif" font-size="9.677" opacity="1" text-anchor="middle">1.6</text><polyline fill="none" stroke="#000" stroke-width="1" points="762 473 762 478" opacity="1"/><text x="847" y="483" fill="#000" dy=".76em" font-family="sans-serif" font-size="9.677" opacity="1" text-anchor="middle">1.8</text><polyline fill="none" stroke="#000" stroke-width="1" points="847 473 847 478" opacity="1"/><text x="933" y="483" fill="#000" dy=".76em" font-family="sans-serif" font-size="9.677" opacity="1" text-anchor="middle">2</text><polyline fill="none" stroke="#000" stroke-width="1" points="933 473 933 478" opacity="1"/><circle cx="87" cy="472" r="3" fill="#1F78B4" stroke="none" opacity="1"/><circle cx="95" cy="467" r="3" fill="#1F78B4" stroke="none" opacity="1"/><circle cx="104" cy="463" r="3" fill="#1F78B4" stroke="none" opacity="1"/><circle cx="112" cy="460" r="3" fill="#1F78B4" stroke="none" opacity="1"/><circle cx="121" cy="454" r="3" fill="#1F78B4" stroke="none" opacity="1"/><circle cx="129" cy="451" r="3" fill="#1F78B4" stroke="none" opacity="1"/><circle cx="138" cy="445" r="3" fill="#1F78B4" stroke="none" opacity="1"/><circle cx="146" cy="442" r="3" fill="#1F78B4" stroke="none" opacity="1"/><circle cx="155" cy="437" r="3" fill="#1F78B4" stroke="none" opacity="1"/><circle cx="163" cy="434" r="3" fill="#1F78B4" stroke="none" opacity="1"/><circle cx="172" cy="428" r="3" fill="#1F78B4" stroke="none" opacity="1"/><circle cx="181" cy="425" r="3" fill="#1F78B4" stroke="none" opacity="1"/><circle cx="189" cy="421" r="3" fill="#1F78B4" stroke="none" opacity="1"/><circle cx="198" cy="416" r="3" fill="#1F78B4" stroke="none" opacity="1"/><circle cx="206" cy="411" r="3" fill="#1F78B4" stroke="none" opacity="1"/><circle cx="215" cy="408" r="3" fill="#1F78B4" stroke="none" opacity="1"/><circle cx="223" cy="405" r="3" fill="#1F78B4" stroke="none" opacity="1"/><circle cx="232" cy="399" r="3" fill="#1F78B4" stroke="none" opacity="1"/><circle cx="240" cy="396" r="3" fill="#1F78B4" stroke="none" opacity="1"/><circle cx="249" cy="391" r="3" fill="#1F78B4" stroke="none" opacity="1"/><circle cx="257" cy="384" r="3" fill="#1F78B4" stroke="none" opacity="1"/><circle cx="266" cy="382" r="3" fill="#1F78B4" stroke="none" opacity="1"/><circle cx="275" cy="376" r="3" fill="#1F78B4" stroke="none" opacity="1"/><circle cx="283" cy="373" r="3" fill="#1F78B4" stroke="none" opacity="1"/><circle cx="292" cy="370" r="3" fill="#1F78B4" stroke="none" opacity="1"/><circle cx="300" cy="365" r="3" fill="#1F78B4" stroke="none" opacity="1"/><circle cx="309" cy="361" r="3" fill="#1F78B4" stroke="none" opacity="1"/><circle cx="317" cy="358" r="3" fill="#1F78B4" stroke="none" opacity="1"/><circle cx="326" cy="353" r="3" fill="#1F78B4" stroke="none" opacity="1"/><circle cx="334" cy="350" r="3" fill="#1F78B4" stroke="none" opacity="1"/><circle cx="343" cy="343" r="3" fill="#1F78B4" stroke="none" opacity="1"/><circle cx="351" cy="341" r="3" fill="#1F78B4" stroke="none" opacity="1"/><circle cx="360" cy="333" r="3" fill="#1F78B4" stroke="none" opacity="1"/><circle cx="369" cy="332" r="3" fill="#1F78B4" stroke="none" opacity="1"/><circle cx="377" cy="327" r="3" fill="#1F78B4" stroke="none" opacity="1"/><circle cx="386" cy="323" r="3" fill="#1F78B4" stroke="none" opacity="1"/><circle cx="394" cy="320" r="3" fill="#1F78B4" stroke="none" opacity="1"/><circle cx="403" cy="316" r="3" fill="#1F78B4" stroke="none" opacity="1"/><circle cx="411" cy="313" r="3" fill="#1F78B4" stroke="none" opacity="1"/><circle cx="420" cy="306" r="3" fill="#1F78B4" stroke="none" opacity="1"/><circle cx="428" cy="304" r="3" fill="#1F78B4" stroke="none" opacity="1"/><circle cx="437" cy="299" r="3" fill="#1F78B4" stroke="none" opacity="1"/><circle cx="445" cy="296" r="3" fill="#1F78B4" stroke="none" opacity="1"/><circle cx="454" cy="286" r="3" fill="#1F78B4" stroke="none" opacity="1"/><circle cx="463" cy="289" r="3" fill="#1F78B4" stroke="none" opacity="1"/><circle cx="471" cy="281" r="3" fill="#1F78B4" stroke="none" opacity="1"/><circle cx="480" cy="272" r="3" fill="#1F78B4" stroke="none" opacity="1"/><circle cx="488" cy="272" r="3" fill="#1F78B4" stroke="none" opacity="1"/><circle cx="497" cy="267" r="3" fill="#1F78B4" stroke="none" opacity="1"/><circle cx="505" cy="262" r="3" fill="#1F78B4" stroke="none" opacity="1"/><circle cx="514" cy="262" r="3" fill="#1F78B4" stroke="none" opacity="1"/><circle cx="522" cy="252" r="3" fill="#1F78B4" stroke="none" opacity="1"/><circle cx="531" cy="249" r="3" fill="#1F78B4" stroke="none" opacity="1"/><circle cx="539" cy="244" r="3" fill="#1F78B4" stroke="none" opacity="1"/><circle cx="548" cy="245" r="3" fill="#1F78B4" stroke="none" opacity="1"/><circle cx="557" cy="236" r="3" fill="#1F78B4" stroke="none" opacity="1"/><circle cx="565" cy="233" r="3" fill="#1F78B4" stroke="none" opacity="1"/><circle cx="574" cy="232" r="3" fill="#1F78B4" stroke="none" opacity="1"/><circle cx="582" cy="226" r="3" fill="#1F78B4" stroke="none" opacity="1"/><circle cx="591" cy="226" r="3" fill="#1F78B4" stroke="none" opacity="1"/><circle cx="599" cy="213" r="3" fill="#1F78B4" stroke="none" opacity="1"/><circle cx="608" cy="209" r="3" fill="#1F78B4" stroke="none" opacity="1"/><circle cx="616" cy="208" r="3" fill="#1F78B4" stroke="none" opacity="1"/><circle cx="625" cy="205" r="3" fill="#1F78B4" stroke="none" opacity="1"/><circle cx="633" cy="191" r="3" fill="#1F78B4" stroke="none" opacity="1"/><circle cx="642" cy="193" r="3" fill="#1F78B4" stroke="none" opacity="1"/><circle cx="651" cy="193" r="3" fill="#1F78B4" stroke="none" opacity="1"/><circle cx="659" cy="190" r="3" fill="#1F78B4" stroke="none" opacity="1"/><circle cx="668" cy="180" r="3" fill="#1F78B4" stroke="none" opacity="1"/><circle cx="676" cy="173" r="3" fill="#1F78B4" stroke="none" opacity="1"/><circle cx="685" cy="179" r="3" fill="#1F78B4" stroke="none" opacity="1"/><circle cx="693" cy="177" r="3" fill="#1F78B4" stroke="none" opacity="1"/><circle cx="702" cy="166" r="3" fill="#1F78B4" stroke="none" opacity="1"/><circle cx="710" cy="169" r="3" fill="#1F78B4" stroke="none" opacity="1"/><circle cx="719" cy="162" r="3" fill="#1F78B4" stroke="none" opacity="1"/><circle cx="727" cy="156" r="3" fill="#1F78B4" stroke="none" opacity="1"/><circle cx="736" cy="151" r="3" fill="#1F78B4" stroke="none" opacity="1"/><circle cx="745" cy="142" r="3" fill="#1F78B4" stroke="none" opacity="1"/><circle cx="753" cy="147" r="3" fill="#1F78B4" stroke="none" opacity="1"/><circle cx="762" cy="134" r="3" fill="#1F78B4" stroke="none" opacity="1"/><circle cx="770" cy="130" r="3" fill="#1F78B4" stroke="none" opacity="1"/><circle cx="779" cy="134" r="3" fill="#1F78B4" stroke="none" opacity="1"/><circle cx="787" cy="122" r="3" fill="#1F78B4" stroke="none" opacity="1"/><circle cx="796" cy="116" r="3" fill="#1F78B4" stroke="none" opacity="1"/><circle cx="804" cy="117" r="3" fill="#1F78B4" stroke="none" opacity="1"/><circle cx="813" cy="116" r="3" fill="#1F78B4" stroke="none" opacity="1"/><circle cx="821" cy="103" r="3" fill="#1F78B4" stroke="none" opacity="1"/><circle cx="830" cy="98" r="3" fill="#1F78B4" stroke="none" opacity="1"/><circle cx="839" cy="94" r="3" fill="#1F78B4" stroke="none" opacity="1"/><circle cx="847" cy="97" r="3" fill="#1F78B4" stroke="none" opacity="1"/><circle cx="856" cy="94" r="3" fill="#1F78B4" stroke="none" opacity="1"/><circle cx="864" cy="93" r="3" fill="#1F78B4" stroke="none" opacity="1"/><circle cx="873" cy="87" r="3" fill="#1F78B4" stroke="none" opacity="1"/><circle cx="881" cy="81" r="3" fill="#1F78B4" stroke="none" opacity="1"/><circle cx="890" cy="75" r="3" fill="#1F78B4" stroke="none" opacity="1"/><circle cx="898" cy="71" r="3" fill="#1F78B4" stroke="none" opacity="1"/><circle cx="907" cy="56" r="3" fill="#1F78B4" stroke="none" opacity="1"/><circle cx="915" cy="53" r="3" fill="#1F78B4" stroke="none" opacity="1"/><circle cx="924" cy="62" r="3" fill="#1F78B4" stroke="none" opacity="1"/><circle cx="933" cy="53" r="3" fill="#1F78B4" stroke="none" opacity="1"/><polyline fill="none" stroke="#1F78B4" stroke-width="1" points="87 473 933 53" opacity="1"/><polygon fill="#1F78B4" points="87 473 933 53 933 53" opacity=".25"/><text x="132" y="68" fill="#000" dy=".76em" font-family="sans-serif" font-size="9.677" opacity="1" text-anchor="start">Sample</text><text x="132" y="83" fill="#000" dy=".76em" font-family="sans-serif" font-size="9.677" opacity="1" text-anchor="start">Linear regression</text><text x="132" y="98" fill="#000" dy=".76em" font-family="sans-serif" font-size="9.677" opacity="1" text-anchor="start">Confidence interval</text><circle cx="112" cy="73" r="3" fill="#1F78B4" stroke="none" opacity="1"/><polyline fill="none" stroke="#1F78B4" stroke-width="2" points="102 88 122 88" opacity="1"/><rect width="20" height="10" x="102" y="98" fill="#1F78B4" stroke="none" opacity=".25"/></svg>