<svg xmlns="http://www.w3.org/2000/svg" width="450" height="300"><text x="15" y="130" fill="#000" dy=".76em" font-family="sans-serif" font-size="9.677" opacity="1" text-anchor="middle" transform="rotate(270, 15, 130)">Total sample time (ms)</text><text x="255" y="285" fill="#000" dy="-.5ex" font-family="sans-serif" font-size="9.677" opacity="1" text-anchor="middle">Iterations (x 10^3)</text><line x1="107" x2="107" y1="244" y2="14" stroke="#000" stroke-width="1" opacity=".2"/><line x1="144" x2="144" y1="244" y2="14" stroke="#000" stroke-width="1" opacity=".2"/><line x1="180" x2="180" y1="244" y2="14" stroke="#000" stroke-width="1" opacity=".2"/><line x1="216" x2="216" y1="244" y2="14" stroke="#000" stroke-width="1" opacity=".2"/><line x1="253" x2="253" y1="244" y2="14" stroke="#000" stroke-width="1" opacity=".2"/><line x1="289" x2="289" y1="244" y2="14" stroke="#000" stroke-width="1" opacity=".2"/><line x1="325" x2="325" y1="244" y2="14" stroke="#000" stroke-width="1" opacity=".2"/><line x1="362" x2="362" y1="244" y2="14" stroke="#000" stroke-width="1" opacity=".2"/><line x1="398" x2="398" y1="244" y2="14" stroke="#000" stroke-width="1" opacity=".2"/><line x1="435" x2="435" y1="244" y2="14" stroke="#000" stroke-width="1" opacity=".2"/><line x1="75" x2="435" y1="223" y2="223" stroke="#000" stroke-width="1" opacity=".2"/><line x1="75" x2="435" y1="200" y2="200" stroke="#000" stroke-width="1" opacity=".2"/><line x1="75" x2="435" y1="176" y2="176" stroke="#000" stroke-width="1" opacity=".2"/><line x1="75" x2="435" y1="153" y2="153" stroke="#000" stroke-width="1" opacity=".2"/><line x1="75" x2="435" y1="130" y2="130" stroke="#000" stroke-width="1" opacity=".2"/><line x1="75" x2="435" y1="107" y2="107" stroke="#000" stroke-width="1" opacity=".2"/><line x1="75" x2="435" y1="83" y2="83" stroke="#000" stroke-width="1" opacity=".2"/><line x1="75" x2="435" y1="60" y2="60" stroke="#000" stroke-width="1" opacity=".2"/><line x1="75" x2="435" y1="37" y2="37" stroke="#000" stroke-width="1" opacity=".2"/><line x1="75" x2="435" y1="14" y2="14" stroke="#000" stroke-width="1" opacity=".2"/><polyline fill="none" stroke="#000" stroke-width="1" points="74 15 74 245" opacity="1"/><text x="65" y="223" fill="#000" dy=".5ex" font-family="sans-serif" font-size="9.677" opacity="1" text-anchor="end">10.0</text><polyline fill="none" stroke="#000" stroke-width="1" points="69 223 74 223" opacity="1"/><text x="65" y="200" fill="#000" dy=".5ex" font-family="sans-serif" font-size="9.677" opacity="1" text-anchor="end">20.0</text><polyline fill="none" stroke="#000" stroke-width="1" points="69 200 74 200" opacity="1"/><text x="65" y="176" fill="#000" dy=".5ex" font-family="sans-serif" font-size="9.677" opacity="1" text-anchor="end">30.0</text><polyline fill="none" stroke="#000" stroke-width="1" points="69 176 74 176" opacity="1"/><text x="65" y="153" fill="#000" dy=".5ex" font-family="sans-serif" font-size="9.677" opacity="1" text-anchor="end">40.0</text><polyline fill="none" stroke="#000" stroke-width="1" points="69 153 74 153" opacity="1"/><text x="65" y="130" fill="#000" dy=".5ex" font-family="sans-serif" font-size="9.677" opacity="1" text-anchor="end">50.0</text><polyline fill="none" stroke="#000" stroke-width="1" points="69 130 74 130" opacity="1"/><text x="65" y="107" fill="#000" dy=".5ex" font-family="sans-serif" font-size="9.677" opacity="1" text-anchor="end">60.0</text><polyline fill="none" stroke="#000" stroke-width="1" points="69 107 74 107" opacity="1"/><text x="65" y="83" fill="#000" dy=".5ex" font-family="sans-serif" font-size="9.677" opacity="1" text-anchor="end">70.0</text><polyline fill="none" stroke="#000" stroke-width="1" points="69 83 74 83" opacity="1"/><text x="65" y="60" fill="#000" dy=".5ex" font-family="sans-serif" font-size="9.677" opacity="1" text-anchor="end">80.0</text><polyline fill="none" stroke="#000" stroke-width="1" points="69 60 74 60" opacity="1"/><text x="65" y="37" fill="#000" dy=".5ex" font-family="sans-serif" font-size="9.677" opacity="1" text-anchor="end">90.0</text><polyline fill="none" stroke="#000" stroke-width="1" points="69 37 74 37" opacity="1"/><polyline fill="none" stroke="#000" stroke-width="1" points="75 245 435 245" opacity="1"/><text x="107" y="255" fill="#000" dy=".76em" font-family="sans-serif" font-size="9.677" opacity="1" text-anchor="middle">0.2</text><polyline fill="none" stroke="#000" stroke-width="1" points="107 245 107 250" opacity="1"/><text x="144" y="255" fill="#000" dy=".76em" font-family="sans-serif" font-size="9.677" opacity="1" text-anchor="middle">0.4</text><polyline fill="none" stroke="#000" stroke-width="1" points="144 245 144 250" opacity="1"/><text x="180" y="255" fill="#000" dy=".76em" font-family="sans-serif" font-size="9.677" opacity="1" text-anchor="middle">0.6</text><polyline fill="none" stroke="#000" stroke-width="1" points="180 245 180 250" opacity="1"/><text x="216" y="255" fill="#000" dy=".76em" font-family="sans-serif" font-size="9.677" opacity="1" text-anchor="middle">0.8</text><polyline fill="none" stroke="#000" stroke-width="1" points="216 245 216 250" opacity="1"/><text x="253" y="255" fill="#000" dy=".76em" font-family="sans-serif" font-size="9.677" opacity="1" text-anchor="middle">1</text><polyline fill="none" stroke="#000" stroke-width="1" points="253 245 253 250" opacity="1"/><text x="289" y="255" fill="#000" dy=".76em" font-family="sans-serif" font-size="9.677" opacity="1" text-anchor="middle">1.2</text><polyline fill="none" stroke="#000" stroke-width="1" points="289 245 289 250" opacity="1"/><text x="325" y="255" fill="#000" dy=".76em" font-family="sans-serif" font-size="9.677" opacity="1" text-anchor="middle">1.4</text><polyline fill="none" stroke="#000" stroke-width="1" points="325 245 325 250" opacity="1"/><text x="362" y="255" fill="#000" dy=".76em" font-family="sans-serif" font-size="9.677" opacity="1" text-anchor="middle">1.6</text><polyline fill="none" stroke="#000" stroke-width="1" points="362 245 362 250" opacity="1"/><text x="398" y="255" fill="#000" dy=".76em" font-family="sans-serif" font-size="9.677" opacity="1" text-anchor="middle">1.8</text><polyline fill="none" stroke="#000" stroke-width="1" points="398 245 398 250" opacity="1"/><text x="435" y="255" fill="#000" dy=".76em" font-family="sans-serif" font-size="9.677" opacity="1" text-anchor="middle">2</text><polyline fill="none" stroke="#000" stroke-width="1" points="435 245 435 250" opacity="1"/><circle cx="75" cy="244" r="3" fill="#1F78B4" stroke="none" opacity="1"/><circle cx="78" cy="241" r="3" fill="#1F78B4" stroke="none" opacity="1"/><circle cx="82" cy="239" r="3" fill="#1F78B4" stroke="none" opacity="1"/><circle cx="85" cy="237" r="3" fill="#1F78B4" stroke="none" opacity="1"/><circle cx="89" cy="234" r="3" fill="#1F78B4" stroke="none" opacity="1"/><circle cx="93" cy="232" r="3" fill="#1F78B4" stroke="none" opacity="1"/><circle cx="96" cy="229" r="3" fill="#1F78B4" stroke="none" opacity="1"/><circle cx="100" cy="227" r="3" fill="#1F78B4" stroke="none" opacity="1"/><circle cx="104" cy="225" r="3" fill="#1F78B4" stroke="none" opacity="1"/><circle cx="107" cy="223" r="3" fill="#1F78B4" stroke="none" opacity="1"/><circle cx="111" cy="220" r="3" fill="#1F78B4" stroke="none" opacity="1"/><circle cx="115" cy="218" r="3" fill="#1F78B4" stroke="none" opacity="1"/><circle cx="118" cy="216" r="3" fill="#1F78B4" stroke="none" opacity="1"/><circle cx="122" cy="213" r="3" fill="#1F78B4" stroke="none" opacity="1"/><circle cx="125" cy="210" r="3" fill="#1F78B4" stroke="none" opacity="1"/><circle cx="129" cy="209" r="3" fill="#1F78B4" stroke="none" opacity="1"/><circle cx="133" cy="207" r="3" fill="#1F78B4" stroke="none" opacity="1"/><circle cx="136" cy="204" r="3" fill="#1F78B4" stroke="none" opacity="1"/><circle cx="140" cy="202" r="3" fill="#1F78B4" stroke="none" opacity="1"/><circle cx="144" cy="199" r="3" fill="#1F78B4" stroke="none" opacity="1"/><circle cx="147" cy="196" r="3" fill="#1F78B4" stroke="none" opacity="1"/><circle cx="151" cy="195" r="3" fill="#1F78B4" stroke="none" opacity="1"/><circle cx="155" cy="191" r="3" fill="#1F78B4" stroke="none" opacity="1"/><circle cx="158" cy="189" r="3" fill="#1F78B4" stroke="none" opacity="1"/><circle cx="162" cy="188" r="3" fill="#1F78B4" stroke="none" opacity="1"/><circle cx="165" cy="185" r="3" fill="#1F78B4" stroke="none" opacity="1"/><circle cx="169" cy="183" r="3" fill="#1F78B4" stroke="none" opacity="1"/><circle cx="173" cy="181" r="3" fill="#1F78B4" stroke="none" opacity="1"/><circle cx="176" cy="179" r="3" fill="#1F78B4" stroke="none" opacity="1"/><circle cx="180" cy="177" r="3" fill="#1F78B4" stroke="none" opacity="1"/><circle cx="184" cy="173" r="3" fill="#1F78B4" stroke="none" opacity="1"/><circle cx="187" cy="172" r="3" fill="#1F78B4" stroke="none" opacity="1"/><circle cx="191" cy="168" r="3" fill="#1F78B4" stroke="none" opacity="1"/><circle cx="195" cy="167" r="3" fill="#1F78B4" stroke="none" opacity="1"/><circle cx="198" cy="164" r="3" fill="#1F78B4" stroke="none" opacity="1"/><circle cx="202" cy="162" r="3" fill="#1F78B4" stroke="none" opacity="1"/><circle cx="205" cy="160" r="3" fill="#1F78B4" stroke="none" opacity="1"/><circle cx="209" cy="158" r="3" fill="#1F78B4" stroke="none" opacity="1"/><circle cx="213" cy="157" r="3" fill="#1F78B4" stroke="none" opacity="1"/><circle cx="216" cy="153" r="3" fill="#1F78B4" stroke="none" opacity="1"/><circle cx="220" cy="152" r="3" fill="#1F78B4" stroke="none" opacity="1"/><circle cx="224" cy="149" r="3" fill="#1F78B4" stroke="none" opacity="1"/><circle cx="227" cy="147" r="3" fill="#1F78B4" stroke="none" opacity="1"/><circle cx="231" cy="142" r="3" fill="#1F78B4" stroke="none" opacity="1"/><circle cx="235" cy="144" r="3" fill="#1F78B4" stroke="none" opacity="1"/><circle cx="238" cy="139" r="3" fill="#1F78B4" stroke="none" opacity="1"/><circle cx="242" cy="134" r="3" fill="#1F78B4" stroke="none" opacity="1"/><circle cx="245" cy="134" r="3" fill="#1F78B4" stroke="none" opacity="1"/><circle cx="249" cy="132" r="3" fill="#1F78B4" stroke="none" opacity="1"/><circle cx="253" cy="129" r="3" fill="#1F78B4" stroke="none" opacity="1"/><circle cx="256" cy="129" r="3" fill="#1F78B4" stroke="none" opacity="1"/><circle cx="260" cy="123" r="3" fill="#1F78B4" stroke="none" opacity="1"/><circle cx="264" cy="122" r="3" fill="#1F78B4" stroke="none" opacity="1"/><circle cx="267" cy="119" r="3" fill="#1F78B4" stroke="none" opacity="1"/><circle cx="271" cy="119" r="3" fill="#1F78B4" stroke="none" opacity="1"/><circle cx="275" cy="115" r="3" fill="#1F78B4" stroke="none" opacity="1"/><circle cx="278" cy="113" r="3" fill="#1F78B4" stroke="none" opacity="1"/><circle cx="282" cy="112" r="3" fill="#1F78B4" stroke="none" opacity="1"/><circle cx="285" cy="109" r="3" fill="#1F78B4" stroke="none" opacity="1"/><circle cx="289" cy="109" r="3" fill="#1F78B4" stroke="none" opacity="1"/><circle cx="293" cy="102" r="3" fill="#1F78B4" stroke="none" opacity="1"/><circle cx="296" cy="100" r="3" fill="#1F78B4" stroke="none" opacity="1"/><circle cx="300" cy="99" r="3" fill="#1F78B4" stroke="none" opacity="1"/><circle cx="304" cy="98" r="3" fill="#1F78B4" stroke="none" opacity="1"/><circle cx="307" cy="90" r="3" fill="#1F78B4" stroke="none" opacity="1"/><circle cx="311" cy="91" r="3" fill="#1F78B4" stroke="none" opacity="1"/><circle cx="315" cy="91" r="3" fill="#1F78B4" stroke="none" opacity="1"/><circle cx="318" cy="89" r="3" fill="#1F78B4" stroke="none" opacity="1"/><circle cx="322" cy="84" r="3" fill="#1F78B4" stroke="none" opacity="1"/><circle cx="325" cy="80" r="3" fill="#1F78B4" stroke="none" opacity="1"/><circle cx="329" cy="83" r="3" fill="#1F78B4" stroke="none" opacity="1"/><circle cx="333" cy="82" r="3" fill="#1F78B4" stroke="none" opacity="1"/><circle cx="336" cy="76" r="3" fill="#1F78B4" stroke="none" opacity="1"/><circle cx="340" cy="78" r="3" fill="#1F78B4" stroke="none" opacity="1"/><circle cx="344" cy="74" r="3" fill="#1F78B4" stroke="none" opacity="1"/><circle cx="347" cy="71" r="3" fill="#1F78B4" stroke="none" opacity="1"/><circle cx="351" cy="68" r="3" fill="#1F78B4" stroke="none" opacity="1"/><circle cx="355" cy="63" r="3" fill="#1F78B4" stroke="none" opacity="1"/><circle cx="358" cy="66" r="3" fill="#1F78B4" stroke="none" opacity="1"/><circle cx="362" cy="59" r="3" fill="#1F78B4" stroke="none" opacity="1"/><circle cx="365" cy="57" r="3" fill="#1F78B4" stroke="none" opacity="1"/><circle cx="369" cy="59" r="3" fill="#1F78B4" stroke="none" opacity="1"/><circle cx="373" cy="52" r="3" fill="#1F78B4" stroke="none" opacity="1"/><circle cx="376" cy="49" r="3" fill="#1F78B4" stroke="none" opacity="1"/><circle cx="380" cy="49" r="3" fill="#1F78B4" stroke="none" opacity="1"/><circle cx="384" cy="49" r="3" fill="#1F78B4" stroke="none" opacity="1"/><circle cx="387" cy="42" r="3" fill="#1F78B4" stroke="none" opacity="1"/><circle cx="391" cy="39" r="3" fill="#1F78B4" stroke="none" opacity="1"/><circle cx="395" cy="37" r="3" fill="#1F78B4" stroke="none" opacity="1"/><circle cx="398" cy="38" r="3" fill="#1F78B4" stroke="none" opacity="1"/><circle cx="402" cy="37" r="3" fill="#1F78B4" stroke="none" opacity="1"/><circle cx="405" cy="36" r="3" fill="#1F78B4" stroke="none" opacity="1"/><circle cx="409" cy="33" r="3" fill="#1F78B4" stroke="none" opacity="1"/><circle cx="413" cy="30" r="3" fill="#1F78B4" stroke="none" opacity="1"/><circle cx="416" cy="26" r="3" fill="#1F78B4" stroke="none" opacity="1"/><circle cx="420" cy="24" r="3" fill="#1F78B4" stroke="none" opacity="1"/><circle cx="424" cy="16" r="3" fill="#1F78B4" stroke="none" opacity="1"/><circle cx="427" cy="15" r="3" fill="#1F78B4" stroke="none" opacity="1"/><circle cx="431" cy="19" r="3" fill="#1F78B4" stroke="none" opacity="1"/><circle cx="435" cy="15" r="3" fill="#1F78B4" stroke="none" opacity="1"/><polyline fill="none" stroke="#1F78B4" stroke-width="1" points="75 245 435 15" opacity="1"/><polygon fill="#1F78B4" points="75 245 435 15 435 15" opacity=".25"/></svg>