<svg xmlns="http://www.w3.org/2000/svg" width="960" height="540"><text x="480" y="32" fill="#000" dy=".76em" font-family="sans-serif" font-size="16.129" opacity="1" text-anchor="middle">bench_group/threads_08/16777216</text><text x="27" y="263" fill="#000" dy=".76em" font-family="sans-serif" font-size="9.677" opacity="1" text-anchor="middle" transform="rotate(270, 27, 263)">Total sample time (ms)</text><text x="510" y="513" fill="#000" dy="-.5ex" font-family="sans-serif" font-size="9.677" opacity="1" text-anchor="middle">Iterations</text><line x1="220" x2="220" y1="472" y2="52" stroke="#000" stroke-width="1" opacity=".2"/><line x1="363" x2="363" y1="472" y2="52" stroke="#000" stroke-width="1" opacity=".2"/><line x1="505" x2="505" y1="472" y2="52" stroke="#000" stroke-width="1" opacity=".2"/><line x1="648" x2="648" y1="472" y2="52" stroke="#000" stroke-width="1" opacity=".2"/><line x1="790" x2="790" y1="472" y2="52" stroke="#000" stroke-width="1" opacity=".2"/><line x1="933" x2="933" y1="472" y2="52" stroke="#000" stroke-width="1" opacity=".2"/><line x1="87" x2="933" y1="394" y2="394" stroke="#000" stroke-width="1" opacity=".2"/><line x1="87" x2="933" y1="311" y2="311" stroke="#000" stroke-width="1" opacity=".2"/><line x1="87" x2="933" y1="228" y2="228" stroke="#000" stroke-width="1" opacity=".2"/><line x1="87" x2="933" y1="145" y2="145" stroke="#000" stroke-width="1" opacity=".2"/><line x1="87" x2="933" y1="63" y2="63" stroke="#000" stroke-width="1" opacity=".2"/><polyline fill="none" stroke="#000" stroke-width="1" points="86 53 86 473" opacity="1"/><text x="77" y="394" fill="#000" dy=".5ex" font-family="sans-serif" font-size="9.677" opacity="1" text-anchor="end">20.0</text><polyline fill="none" stroke="#000" stroke-width="1" points="81 394 86 394" opacity="1"/><text x="77" y="311" fill="#000" dy=".5ex" font-family="sans-serif" font-size="9.677" opacity="1" text-anchor="end">40.0</text><polyline fill="none" stroke="#000" stroke-width="1" points="81 311 86 311" opacity="1"/><text x="77" y="228" fill="#000" dy=".5ex" font-family="sans-serif" font-size="9.677" opacity="1" text-anchor="end">60.0</text><polyline fill="none" stroke="#000" stroke-width="1" points="81 228 86 228" opacity="1"/><text x="77" y="145" fill="#000" dy=".5ex" font-family="sans-serif" font-size="9.677" opacity="1" text-anchor="end">80.0</text><polyline fill="none" stroke="#000" stroke-width="1" points="81 145 86 145" opacity="1"/><text x="77" y="63" fill="#000" dy=".5ex" font-family="sans-serif" font-size="9.677" opacity="1" text-anchor="end">100.0</text><polyline fill="none" stroke="#000" stroke-width="1" points="81 63 86 63" opacity="1"/><polyline fill="none" stroke="#000" stroke-width="1" points="87 473 933 473" opacity="1"/><text x="220" y="483" fill="#000" dy=".76em" font-family="sans-serif" font-size="9.677" opacity="1" text-anchor="middle">50</text><polyline fill="none" stroke="#000" stroke-width="1" points="220 473 220 478" opacity="1"/><text x="363" y="483" fill="#000" dy=".76em" font-family="sans-serif" font-size="9.677" opacity="1" text-anchor="middle">100</text><polyline fill="none" stroke="#000" stroke-width="1" points="363 473 363 478" opacity="1"/><text x="505" y="483" fill="#000" dy=".76em" font-family="sans-serif" font-size="9.677" opacity="1" text-anchor="middle">150</text><polyline fill="none" stroke="#000" stroke-width="1" points="505 473 505 478" opacity="1"/><text x="648" y="483" fill="#000" dy=".76em" font-family="sans-serif" font-size="9.677" opacity="1" text-anchor="middle">200</text><polyline fill="none" stroke="#000" stroke-width="1" points="648 473 648 478" opacity="1"/><text x="790" y="483" fill="#000" dy=".76em" font-family="sans-serif" font-size="9.677" opacity="1" text-anchor="middle">250</text><polyline fill="none" stroke="#000" stroke-width="1" points="790 473 790 478" opacity="1"/><text x="933" y="483" fill="#000" dy=".76em" font-family="sans-serif" font-size="9.677" opacity="1" text-anchor="middle">300</text><polyline fill="none" stroke="#000" stroke-width="1" points="933 473 933 478" opacity="1"/><circle cx="87" cy="472" r="3" fill="#1F78B4" stroke="none" opacity="1"/><circle cx="95" cy="467" r="3" fill="#1F78B4" stroke="none" opacity="1"/><circle cx="104" cy="463" r="3" fill="#1F78B4" stroke="none" opacity="1"/><circle cx="112" cy="459" r="3" fill="#1F78B4" stroke="none" opacity="1"/><circle cx="121" cy="454" r="3" fill="#1F78B4" stroke="none" opacity="1"/><circle cx="129" cy="450" r="3" fill="#1F78B4" stroke="none" opacity="1"/><circle cx="138" cy="446" r="3" fill="#1F78B4" stroke="none" opacity="1"/><circle cx="146" cy="442" r="3" fill="#1F78B4" stroke="none" opacity="1"/><circle cx="155" cy="438" r="3" fill="#1F78B4" stroke="none" opacity="1"/><circle cx="163" cy="433" r="3" fill="#1F78B4" stroke="none" opacity="1"/><circle cx="172" cy="429" r="3" fill="#1F78B4" stroke="none" opacity="1"/><circle cx="181" cy="425" r="3" fill="#1F78B4" stroke="none" opacity="1"/><circle cx="189" cy="421" r="3" fill="#1F78B4" stroke="none" opacity="1"/><circle cx="198" cy="416" r="3" fill="#1F78B4" stroke="none" opacity="1"/><circle cx="206" cy="412" r="3" fill="#1F78B4" stroke="none" opacity="1"/><circle cx="215" cy="408" r="3" fill="#1F78B4" stroke="none" opacity="1"/><circle cx="223" cy="404" r="3" fill="#1F78B4" stroke="none" opacity="1"/><circle cx="232" cy="400" r="3" fill="#1F78B4" stroke="none" opacity="1"/><circle cx="240" cy="395" r="3" fill="#1F78B4" stroke="none" opacity="1"/><circle cx="249" cy="391" r="3" fill="#1F78B4" stroke="none" opacity="1"/><circle cx="257" cy="387" r="3" fill="#1F78B4" stroke="none" opacity="1"/><circle cx="266" cy="383" r="3" fill="#1F78B4" stroke="none" opacity="1"/><circle cx="275" cy="378" r="3" fill="#1F78B4" stroke="none" opacity="1"/><circle cx="283" cy="374" r="3" fill="#1F78B4" stroke="none" opacity="1"/><circle cx="292" cy="370" r="3" fill="#1F78B4" stroke="none" opacity="1"/><circle cx="300" cy="366" r="3" fill="#1F78B4" stroke="none" opacity="1"/><circle cx="309" cy="358" r="3" fill="#1F78B4" stroke="none" opacity="1"/><circle cx="317" cy="357" r="3" fill="#1F78B4" stroke="none" opacity="1"/><circle cx="326" cy="353" r="3" fill="#1F78B4" stroke="none" opacity="1"/><circle cx="334" cy="349" r="3" fill="#1F78B4" stroke="none" opacity="1"/><circle cx="343" cy="344" r="3" fill="#1F78B4" stroke="none" opacity="1"/><circle cx="351" cy="340" r="3" fill="#1F78B4" stroke="none" opacity="1"/><circle cx="360" cy="336" r="3" fill="#1F78B4" stroke="none" opacity="1"/><circle cx="369" cy="332" r="3" fill="#1F78B4" stroke="none" opacity="1"/><circle cx="377" cy="327" r="3" fill="#1F78B4" stroke="none" opacity="1"/><circle cx="386" cy="323" r="3" fill="#1F78B4" stroke="none" opacity="1"/><circle cx="394" cy="319" r="3" fill="#1F78B4" stroke="none" opacity="1"/><circle cx="403" cy="315" r="3" fill="#1F78B4" stroke="none" opacity="1"/><circle cx="411" cy="310" r="3" fill="#1F78B4" stroke="none" opacity="1"/><circle cx="420" cy="304" r="3" fill="#1F78B4" stroke="none" opacity="1"/><circle cx="428" cy="301" r="3" fill="#1F78B4" stroke="none" opacity="1"/><circle cx="437" cy="298" r="3" fill="#1F78B4" stroke="none" opacity="1"/><circle cx="445" cy="293" r="3" fill="#1F78B4" stroke="none" opacity="1"/><circle cx="454" cy="289" r="3" fill="#1F78B4" stroke="none" opacity="1"/><circle cx="463" cy="284" r="3" fill="#1F78B4" stroke="none" opacity="1"/><circle cx="471" cy="280" r="3" fill="#1F78B4" stroke="none" opacity="1"/><circle cx="480" cy="276" r="3" fill="#1F78B4" stroke="none" opacity="1"/><circle cx="488" cy="272" r="3" fill="#1F78B4" stroke="none" opacity="1"/><circle cx="497" cy="268" r="3" fill="#1F78B4" stroke="none" opacity="1"/><circle cx="505" cy="264" r="3" fill="#1F78B4" stroke="none" opacity="1"/><circle cx="514" cy="257" r="3" fill="#1F78B4" stroke="none" opacity="1"/><circle cx="522" cy="255" r="3" fill="#1F78B4" stroke="none" opacity="1"/><circle cx="531" cy="251" r="3" fill="#1F78B4" stroke="none" opacity="1"/><circle cx="539" cy="247" r="3" fill="#1F78B4" stroke="none" opacity="1"/><circle cx="548" cy="243" r="3" fill="#1F78B4" stroke="none" opacity="1"/><circle cx="557" cy="238" r="3" fill="#1F78B4" stroke="none" opacity="1"/><circle cx="565" cy="233" r="3" fill="#1F78B4" stroke="none" opacity="1"/><circle cx="574" cy="229" r="3" fill="#1F78B4" stroke="none" opacity="1"/><circle cx="582" cy="225" r="3" fill="#1F78B4" stroke="none" opacity="1"/><circle cx="591" cy="220" r="3" fill="#1F78B4" stroke="none" opacity="1"/><circle cx="599" cy="217" r="3" fill="#1F78B4" stroke="none" opacity="1"/><circle cx="608" cy="213" r="3" fill="#1F78B4" stroke="none" opacity="1"/><circle cx="616" cy="209" r="3" fill="#1F78B4" stroke="none" opacity="1"/><circle cx="625" cy="204" r="3" fill="#1F78B4" stroke="none" opacity="1"/><circle cx="633" cy="200" r="3" fill="#1F78B4" stroke="none" opacity="1"/><circle cx="642" cy="195" r="3" fill="#1F78B4" stroke="none" opacity="1"/><circle cx="651" cy="191" r="3" fill="#1F78B4" stroke="none" opacity="1"/><circle cx="659" cy="184" r="3" fill="#1F78B4" stroke="none" opacity="1"/><circle cx="668" cy="183" r="3" fill="#1F78B4" stroke="none" opacity="1"/><circle cx="676" cy="179" r="3" fill="#1F78B4" stroke="none" opacity="1"/><circle cx="685" cy="175" r="3" fill="#1F78B4" stroke="none" opacity="1"/><circle cx="693" cy="171" r="3" fill="#1F78B4" stroke="none" opacity="1"/><circle cx="702" cy="166" r="3" fill="#1F78B4" stroke="none" opacity="1"/><circle cx="710" cy="162" r="3" fill="#1F78B4" stroke="none" opacity="1"/><circle cx="719" cy="156" r="3" fill="#1F78B4" stroke="none" opacity="1"/><circle cx="727" cy="154" r="3" fill="#1F78B4" stroke="none" opacity="1"/><circle cx="736" cy="149" r="3" fill="#1F78B4" stroke="none" opacity="1"/><circle cx="745" cy="145" r="3" fill="#1F78B4" stroke="none" opacity="1"/><circle cx="753" cy="141" r="3" fill="#1F78B4" stroke="none" opacity="1"/><circle cx="762" cy="136" r="3" fill="#1F78B4" stroke="none" opacity="1"/><circle cx="770" cy="132" r="3" fill="#1F78B4" stroke="none" opacity="1"/><circle cx="779" cy="125" r="3" fill="#1F78B4" stroke="none" opacity="1"/><circle cx="787" cy="124" r="3" fill="#1F78B4" stroke="none" opacity="1"/><circle cx="796" cy="120" r="3" fill="#1F78B4" stroke="none" opacity="1"/><circle cx="804" cy="115" r="3" fill="#1F78B4" stroke="none" opacity="1"/><circle cx="813" cy="111" r="3" fill="#1F78B4" stroke="none" opacity="1"/><circle cx="821" cy="107" r="3" fill="#1F78B4" stroke="none" opacity="1"/><circle cx="830" cy="100" r="3" fill="#1F78B4" stroke="none" opacity="1"/><circle cx="839" cy="98" r="3" fill="#1F78B4" stroke="none" opacity="1"/><circle cx="847" cy="94" r="3" fill="#1F78B4" stroke="none" opacity="1"/><circle cx="856" cy="90" r="3" fill="#1F78B4" stroke="none" opacity="1"/><circle cx="864" cy="86" r="3" fill="#1F78B4" stroke="none" opacity="1"/><circle cx="873" cy="82" r="3" fill="#1F78B4" stroke="none" opacity="1"/><circle cx="881" cy="73" r="3" fill="#1F78B4" stroke="none" opacity="1"/><circle cx="890" cy="73" r="3" fill="#1F78B4" stroke="none" opacity="1"/><circle cx="898" cy="69" r="3" fill="#1F78B4" stroke="none" opacity="1"/><circle cx="907" cy="64" r="3" fill="#1F78B4" stroke="none" opacity="1"/><circle cx="915" cy="60" r="3" fill="#1F78B4" stroke="none" opacity="1"/><circle cx="924" cy="56" r="3" fill="#1F78B4" stroke="none" opacity="1"/><circle cx="933" cy="53" r="3" fill="#1F78B4" stroke="none" opacity="1"/><polyline fill="none" stroke="#1F78B4" stroke-width="1" points="87 473 933 53" opacity="1"/><polygon fill="#1F78B4" points="87 473 933 53 933 53" opacity=".25"/><text x="132" y="68" fill="#000" dy=".76em" font-family="sans-serif" font-size="9.677" opacity="1" text-anchor="start">Sample</text><text x="132" y="83" fill="#000" dy=".76em" font-family="sans-serif" font-size="9.677" opacity="1" text-anchor="start">Linear regression</text><text x="132" y="98" fill="#000" dy=".76em" font-family="sans-serif" font-size="9.677" opacity="1" text-anchor="start">Confidence interval</text><circle cx="112" cy="73" r="3" fill="#1F78B4" stroke="none" opacity="1"/><polyline fill="none" stroke="#1F78B4" stroke-width="2" points="102 88 122 88" opacity="1"/><rect width="20" height="10" x="102" y="98" fill="#1F78B4" stroke="none" opacity=".25"/></svg>