<svg xmlns="http://www.w3.org/2000/svg" width="960" height="540"><text x="480" y="32" fill="#000" dy=".76em" font-family="sans-serif" font-size="16.129" opacity="1" text-anchor="middle">bench_group/threads_04/131072</text><text x="27" y="263" fill="#000" dy=".76em" font-family="sans-serif" font-size="9.677" opacity="1" text-anchor="middle" transform="rotate(270, 27, 263)">Total sample time (ms)</text><text x="510" y="513" fill="#000" dy="-.5ex" font-family="sans-serif" font-size="9.677" opacity="1" text-anchor="middle">Iterations (x 10^3)</text><line x1="163" x2="163" y1="472" y2="52" stroke="#000" stroke-width="1" opacity=".2"/><line x1="247" x2="247" y1="472" y2="52" stroke="#000" stroke-width="1" opacity=".2"/><line x1="332" x2="332" y1="472" y2="52" stroke="#000" stroke-width="1" opacity=".2"/><line x1="416" x2="416" y1="472" y2="52" stroke="#000" stroke-width="1" opacity=".2"/><line x1="501" x2="501" y1="472" y2="52" stroke="#000" stroke-width="1" opacity=".2"/><line x1="586" x2="586" y1="472" y2="52" stroke="#000" stroke-width="1" opacity=".2"/><line x1="670" x2="670" y1="472" y2="52" stroke="#000" stroke-width="1" opacity=".2"/><line x1="755" x2="755" y1="472" y2="52" stroke="#000" stroke-width="1" opacity=".2"/><line x1="839" x2="839" y1="472" y2="52" stroke="#000" stroke-width="1" opacity=".2"/><line x1="924" x2="924" y1="472" y2="52" stroke="#000" stroke-width="1" opacity=".2"/><line x1="87" x2="933" y1="393" y2="393" stroke="#000" stroke-width="1" opacity=".2"/><line x1="87" x2="933" y1="311" y2="311" stroke="#000" stroke-width="1" opacity=".2"/><line x1="87" x2="933" y1="229" y2="229" stroke="#000" stroke-width="1" opacity=".2"/><line x1="87" x2="933" y1="146" y2="146" stroke="#000" stroke-width="1" opacity=".2"/><line x1="87" x2="933" y1="64" y2="64" stroke="#000" stroke-width="1" opacity=".2"/><polyline fill="none" stroke="#000" stroke-width="1" points="86 53 86 473" opacity="1"/><text x="77" y="393" fill="#000" dy=".5ex" font-family="sans-serif" font-size="9.677" opacity="1" text-anchor="end">20.0</text><polyline fill="none" stroke="#000" stroke-width="1" points="81 393 86 393" opacity="1"/><text x="77" y="311" fill="#000" dy=".5ex" font-family="sans-serif" font-size="9.677" opacity="1" text-anchor="end">40.0</text><polyline fill="none" stroke="#000" stroke-width="1" points="81 311 86 311" opacity="1"/><text x="77" y="229" fill="#000" dy=".5ex" font-family="sans-serif" font-size="9.677" opacity="1" text-anchor="end">60.0</text><polyline fill="none" stroke="#000" stroke-width="1" points="81 229 86 229" opacity="1"/><text x="77" y="146" fill="#000" dy=".5ex" font-family="sans-serif" font-size="9.677" opacity="1" text-anchor="end">80.0</text><polyline fill="none" stroke="#000" stroke-width="1" points="81 146 86 146" opacity="1"/><text x="77" y="64" fill="#000" dy=".5ex" font-family="sans-serif" font-size="9.677" opacity="1" text-anchor="end">100.0</text><polyline fill="none" stroke="#000" stroke-width="1" points="81 64 86 64" opacity="1"/><polyline fill="none" stroke="#000" stroke-width="1" points="87 473 933 473" opacity="1"/><text x="163" y="483" fill="#000" dy=".76em" font-family="sans-serif" font-size="9.677" opacity="1" text-anchor="middle">1</text><polyline fill="none" stroke="#000" stroke-width="1" points="163 473 163 478" opacity="1"/><text x="247" y="483" fill="#000" dy=".76em" font-family="sans-serif" font-size="9.677" opacity="1" text-anchor="middle">2</text><polyline fill="none" stroke="#000" stroke-width="1" points="247 473 247 478" opacity="1"/><text x="332" y="483" fill="#000" dy=".76em" font-family="sans-serif" font-size="9.677" opacity="1" text-anchor="middle">3</text><polyline fill="none" stroke="#000" stroke-width="1" points="332 473 332 478" opacity="1"/><text x="416" y="483" fill="#000" dy=".76em" font-family="sans-serif" font-size="9.677" opacity="1" text-anchor="middle">4</text><polyline fill="none" stroke="#000" stroke-width="1" points="416 473 416 478" opacity="1"/><text x="501" y="483" fill="#000" dy=".76em" font-family="sans-serif" font-size="9.677" opacity="1" text-anchor="middle">5</text><polyline fill="none" stroke="#000" stroke-width="1" points="501 473 501 478" opacity="1"/><text x="586" y="483" fill="#000" dy=".76em" font-family="sans-serif" font-size="9.677" opacity="1" text-anchor="middle">6</text><polyline fill="none" stroke="#000" stroke-width="1" points="586 473 586 478" opacity="1"/><text x="670" y="483" fill="#000" dy=".76em" font-family="sans-serif" font-size="9.677" opacity="1" text-anchor="middle">7</text><polyline fill="none" stroke="#000" stroke-width="1" points="670 473 670 478" opacity="1"/><text x="755" y="483" fill="#000" dy=".76em" font-family="sans-serif" font-size="9.677" opacity="1" text-anchor="middle">8</text><polyline fill="none" stroke="#000" stroke-width="1" points="755 473 755 478" opacity="1"/><text x="839" y="483" fill="#000" dy=".76em" font-family="sans-serif" font-size="9.677" opacity="1" text-anchor="middle">9</text><polyline fill="none" stroke="#000" stroke-width="1" points="839 473 839 478" opacity="1"/><text x="924" y="483" fill="#000" dy=".76em" font-family="sans-serif" font-size="9.677" opacity="1" text-anchor="middle">10</text><polyline fill="none" stroke="#000" stroke-width="1" points="924 473 924 478" opacity="1"/><circle cx="87" cy="472" r="3" fill="#1F78B4" stroke="none" opacity="1"/><circle cx="95" cy="468" r="3" fill="#1F78B4" stroke="none" opacity="1"/><circle cx="104" cy="465" r="3" fill="#1F78B4" stroke="none" opacity="1"/><circle cx="112" cy="461" r="3" fill="#1F78B4" stroke="none" opacity="1"/><circle cx="121" cy="457" r="3" fill="#1F78B4" stroke="none" opacity="1"/><circle cx="129" cy="453" r="3" fill="#1F78B4" stroke="none" opacity="1"/><circle cx="138" cy="450" r="3" fill="#1F78B4" stroke="none" opacity="1"/><circle cx="146" cy="446" r="3" fill="#1F78B4" stroke="none" opacity="1"/><circle cx="155" cy="443" r="3" fill="#1F78B4" stroke="none" opacity="1"/><circle cx="163" cy="439" r="3" fill="#1F78B4" stroke="none" opacity="1"/><circle cx="172" cy="435" r="3" fill="#1F78B4" stroke="none" opacity="1"/><circle cx="181" cy="432" r="3" fill="#1F78B4" stroke="none" opacity="1"/><circle cx="189" cy="428" r="3" fill="#1F78B4" stroke="none" opacity="1"/><circle cx="198" cy="425" r="3" fill="#1F78B4" stroke="none" opacity="1"/><circle cx="206" cy="422" r="3" fill="#1F78B4" stroke="none" opacity="1"/><circle cx="215" cy="418" r="3" fill="#1F78B4" stroke="none" opacity="1"/><circle cx="223" cy="415" r="3" fill="#1F78B4" stroke="none" opacity="1"/><circle cx="232" cy="411" r="3" fill="#1F78B4" stroke="none" opacity="1"/><circle cx="240" cy="408" r="3" fill="#1F78B4" stroke="none" opacity="1"/><circle cx="249" cy="404" r="3" fill="#1F78B4" stroke="none" opacity="1"/><circle cx="257" cy="400" r="3" fill="#1F78B4" stroke="none" opacity="1"/><circle cx="266" cy="396" r="3" fill="#1F78B4" stroke="none" opacity="1"/><circle cx="275" cy="393" r="3" fill="#1F78B4" stroke="none" opacity="1"/><circle cx="283" cy="390" r="3" fill="#1F78B4" stroke="none" opacity="1"/><circle cx="292" cy="386" r="3" fill="#1F78B4" stroke="none" opacity="1"/><circle cx="300" cy="382" r="3" fill="#1F78B4" stroke="none" opacity="1"/><circle cx="309" cy="379" r="3" fill="#1F78B4" stroke="none" opacity="1"/><circle cx="317" cy="376" r="3" fill="#1F78B4" stroke="none" opacity="1"/><circle cx="326" cy="372" r="3" fill="#1F78B4" stroke="none" opacity="1"/><circle cx="334" cy="368" r="3" fill="#1F78B4" stroke="none" opacity="1"/><circle cx="343" cy="356" r="3" fill="#1F78B4" stroke="none" opacity="1"/><circle cx="351" cy="360" r="3" fill="#1F78B4" stroke="none" opacity="1"/><circle cx="360" cy="357" r="3" fill="#1F78B4" stroke="none" opacity="1"/><circle cx="369" cy="354" r="3" fill="#1F78B4" stroke="none" opacity="1"/><circle cx="377" cy="349" r="3" fill="#1F78B4" stroke="none" opacity="1"/><circle cx="386" cy="346" r="3" fill="#1F78B4" stroke="none" opacity="1"/><circle cx="394" cy="342" r="3" fill="#1F78B4" stroke="none" opacity="1"/><circle cx="403" cy="339" r="3" fill="#1F78B4" stroke="none" opacity="1"/><circle cx="411" cy="335" r="3" fill="#1F78B4" stroke="none" opacity="1"/><circle cx="420" cy="331" r="3" fill="#1F78B4" stroke="none" opacity="1"/><circle cx="428" cy="327" r="3" fill="#1F78B4" stroke="none" opacity="1"/><circle cx="437" cy="325" r="3" fill="#1F78B4" stroke="none" opacity="1"/><circle cx="445" cy="321" r="3" fill="#1F78B4" stroke="none" opacity="1"/><circle cx="454" cy="318" r="3" fill="#1F78B4" stroke="none" opacity="1"/><circle cx="463" cy="313" r="3" fill="#1F78B4" stroke="none" opacity="1"/><circle cx="471" cy="310" r="3" fill="#1F78B4" stroke="none" opacity="1"/><circle cx="480" cy="306" r="3" fill="#1F78B4" stroke="none" opacity="1"/><circle cx="488" cy="304" r="3" fill="#1F78B4" stroke="none" opacity="1"/><circle cx="497" cy="262" r="3" fill="#1F78B4" stroke="none" opacity="1"/><circle cx="505" cy="297" r="3" fill="#1F78B4" stroke="none" opacity="1"/><circle cx="514" cy="292" r="3" fill="#1F78B4" stroke="none" opacity="1"/><circle cx="522" cy="289" r="3" fill="#1F78B4" stroke="none" opacity="1"/><circle cx="531" cy="284" r="3" fill="#1F78B4" stroke="none" opacity="1"/><circle cx="539" cy="282" r="3" fill="#1F78B4" stroke="none" opacity="1"/><circle cx="548" cy="278" r="3" fill="#1F78B4" stroke="none" opacity="1"/><circle cx="557" cy="274" r="3" fill="#1F78B4" stroke="none" opacity="1"/><circle cx="565" cy="272" r="3" fill="#1F78B4" stroke="none" opacity="1"/><circle cx="574" cy="268" r="3" fill="#1F78B4" stroke="none" opacity="1"/><circle cx="582" cy="264" r="3" fill="#1F78B4" stroke="none" opacity="1"/><circle cx="591" cy="261" r="3" fill="#1F78B4" stroke="none" opacity="1"/><circle cx="599" cy="223" r="3" fill="#1F78B4" stroke="none" opacity="1"/><circle cx="608" cy="252" r="3" fill="#1F78B4" stroke="none" opacity="1"/><circle cx="616" cy="250" r="3" fill="#1F78B4" stroke="none" opacity="1"/><circle cx="625" cy="247" r="3" fill="#1F78B4" stroke="none" opacity="1"/><circle cx="633" cy="244" r="3" fill="#1F78B4" stroke="none" opacity="1"/><circle cx="642" cy="239" r="3" fill="#1F78B4" stroke="none" opacity="1"/><circle cx="651" cy="235" r="3" fill="#1F78B4" stroke="none" opacity="1"/><circle cx="659" cy="232" r="3" fill="#1F78B4" stroke="none" opacity="1"/><circle cx="668" cy="227" r="3" fill="#1F78B4" stroke="none" opacity="1"/><circle cx="676" cy="224" r="3" fill="#1F78B4" stroke="none" opacity="1"/><circle cx="685" cy="221" r="3" fill="#1F78B4" stroke="none" opacity="1"/><circle cx="693" cy="217" r="3" fill="#1F78B4" stroke="none" opacity="1"/><circle cx="702" cy="213" r="3" fill="#1F78B4" stroke="none" opacity="1"/><circle cx="710" cy="210" r="3" fill="#1F78B4" stroke="none" opacity="1"/><circle cx="719" cy="205" r="3" fill="#1F78B4" stroke="none" opacity="1"/><circle cx="727" cy="165" r="3" fill="#1F78B4" stroke="none" opacity="1"/><circle cx="736" cy="199" r="3" fill="#1F78B4" stroke="none" opacity="1"/><circle cx="745" cy="195" r="3" fill="#1F78B4" stroke="none" opacity="1"/><circle cx="753" cy="191" r="3" fill="#1F78B4" stroke="none" opacity="1"/><circle cx="762" cy="189" r="3" fill="#1F78B4" stroke="none" opacity="1"/><circle cx="770" cy="187" r="3" fill="#1F78B4" stroke="none" opacity="1"/><circle cx="779" cy="180" r="3" fill="#1F78B4" stroke="none" opacity="1"/><circle cx="787" cy="177" r="3" fill="#1F78B4" stroke="none" opacity="1"/><circle cx="796" cy="167" r="3" fill="#1F78B4" stroke="none" opacity="1"/><circle cx="804" cy="171" r="3" fill="#1F78B4" stroke="none" opacity="1"/><circle cx="813" cy="169" r="3" fill="#1F78B4" stroke="none" opacity="1"/><circle cx="821" cy="163" r="3" fill="#1F78B4" stroke="none" opacity="1"/><circle cx="830" cy="161" r="3" fill="#1F78B4" stroke="none" opacity="1"/><circle cx="839" cy="156" r="3" fill="#1F78B4" stroke="none" opacity="1"/><circle cx="847" cy="153" r="3" fill="#1F78B4" stroke="none" opacity="1"/><circle cx="856" cy="148" r="3" fill="#1F78B4" stroke="none" opacity="1"/><circle cx="864" cy="144" r="3" fill="#1F78B4" stroke="none" opacity="1"/><circle cx="873" cy="53" r="3" fill="#1F78B4" stroke="none" opacity="1"/><circle cx="881" cy="138" r="3" fill="#1F78B4" stroke="none" opacity="1"/><circle cx="890" cy="135" r="3" fill="#1F78B4" stroke="none" opacity="1"/><circle cx="898" cy="129" r="3" fill="#1F78B4" stroke="none" opacity="1"/><circle cx="907" cy="127" r="3" fill="#1F78B4" stroke="none" opacity="1"/><circle cx="915" cy="124" r="3" fill="#1F78B4" stroke="none" opacity="1"/><circle cx="924" cy="112" r="3" fill="#1F78B4" stroke="none" opacity="1"/><circle cx="933" cy="116" r="3" fill="#1F78B4" stroke="none" opacity="1"/><polyline fill="none" stroke="#1F78B4" stroke-width="1" points="87 473 933 112" opacity="1"/><polygon fill="#1F78B4" points="87 473 933 116 933 105" opacity=".25"/><text x="132" y="68" fill="#000" dy=".76em" font-family="sans-serif" font-size="9.677" opacity="1" text-anchor="start">Sample</text><text x="132" y="83" fill="#000" dy=".76em" font-family="sans-serif" font-size="9.677" opacity="1" text-anchor="start">Linear regression</text><text x="132" y="98" fill="#000" dy=".76em" font-family="sans-serif" font-size="9.677" opacity="1" text-anchor="start">Confidence interval</text><circle cx="112" cy="73" r="3" fill="#1F78B4" stroke="none" opacity="1"/><polyline fill="none" stroke="#1F78B4" stroke-width="2" points="102 88 122 88" opacity="1"/><rect width="20" height="10" x="102" y="98" fill="#1F78B4" stroke="none" opacity=".25"/></svg>