<svg xmlns="http://www.w3.org/2000/svg" width="960" height="540"><text x="480" y="32" fill="#000" dy=".76em" font-family="sans-serif" font-size="16.129" opacity="1" text-anchor="middle">bench_group/threads_02/131072</text><text x="27" y="263" fill="#000" dy=".76em" font-family="sans-serif" font-size="9.677" opacity="1" text-anchor="middle" transform="rotate(270, 27, 263)">Total sample time (ms)</text><text x="510" y="513" fill="#000" dy="-.5ex" font-family="sans-serif" font-size="9.677" opacity="1" text-anchor="middle">Iterations (x 10^3)</text><line x1="172" x2="172" y1="472" y2="52" stroke="#000" stroke-width="1" opacity=".2"/><line x1="266" x2="266" y1="472" y2="52" stroke="#000" stroke-width="1" opacity=".2"/><line x1="360" x2="360" y1="472" y2="52" stroke="#000" stroke-width="1" opacity=".2"/><line x1="454" x2="454" y1="472" y2="52" stroke="#000" stroke-width="1" opacity=".2"/><line x1="547" x2="547" y1="472" y2="52" stroke="#000" stroke-width="1" opacity=".2"/><line x1="641" x2="641" y1="472" y2="52" stroke="#000" stroke-width="1" opacity=".2"/><line x1="735" x2="735" y1="472" y2="52" stroke="#000" stroke-width="1" opacity=".2"/><line x1="829" x2="829" y1="472" y2="52" stroke="#000" stroke-width="1" opacity=".2"/><line x1="923" x2="923" y1="472" y2="52" stroke="#000" stroke-width="1" opacity=".2"/><line x1="87" x2="933" y1="432" y2="432" stroke="#000" stroke-width="1" opacity=".2"/><line x1="87" x2="933" y1="389" y2="389" stroke="#000" stroke-width="1" opacity=".2"/><line x1="87" x2="933" y1="345" y2="345" stroke="#000" stroke-width="1" opacity=".2"/><line x1="87" x2="933" y1="301" y2="301" stroke="#000" stroke-width="1" opacity=".2"/><line x1="87" x2="933" y1="257" y2="257" stroke="#000" stroke-width="1" opacity=".2"/><line x1="87" x2="933" y1="214" y2="214" stroke="#000" stroke-width="1" opacity=".2"/><line x1="87" x2="933" y1="170" y2="170" stroke="#000" stroke-width="1" opacity=".2"/><line x1="87" x2="933" y1="126" y2="126" stroke="#000" stroke-width="1" opacity=".2"/><line x1="87" x2="933" y1="83" y2="83" stroke="#000" stroke-width="1" opacity=".2"/><polyline fill="none" stroke="#000" stroke-width="1" points="86 53 86 473" opacity="1"/><text x="77" y="432" fill="#000" dy=".5ex" font-family="sans-serif" font-size="9.677" opacity="1" text-anchor="end">10.0</text><polyline fill="none" stroke="#000" stroke-width="1" points="81 432 86 432" opacity="1"/><text x="77" y="389" fill="#000" dy=".5ex" font-family="sans-serif" font-size="9.677" opacity="1" text-anchor="end">20.0</text><polyline fill="none" stroke="#000" stroke-width="1" points="81 389 86 389" opacity="1"/><text x="77" y="345" fill="#000" dy=".5ex" font-family="sans-serif" font-size="9.677" opacity="1" text-anchor="end">30.0</text><polyline fill="none" stroke="#000" stroke-width="1" points="81 345 86 345" opacity="1"/><text x="77" y="301" fill="#000" dy=".5ex" font-family="sans-serif" font-size="9.677" opacity="1" text-anchor="end">40.0</text><polyline fill="none" stroke="#000" stroke-width="1" points="81 301 86 301" opacity="1"/><text x="77" y="257" fill="#000" dy=".5ex" font-family="sans-serif" font-size="9.677" opacity="1" text-anchor="end">50.0</text><polyline fill="none" stroke="#000" stroke-width="1" points="81 257 86 257" opacity="1"/><text x="77" y="214" fill="#000" dy=".5ex" font-family="sans-serif" font-size="9.677" opacity="1" text-anchor="end">60.0</text><polyline fill="none" stroke="#000" stroke-width="1" points="81 214 86 214" opacity="1"/><text x="77" y="170" fill="#000" dy=".5ex" font-family="sans-serif" font-size="9.677" opacity="1" text-anchor="end">70.0</text><polyline fill="none" stroke="#000" stroke-width="1" points="81 170 86 170" opacity="1"/><text x="77" y="126" fill="#000" dy=".5ex" font-family="sans-serif" font-size="9.677" opacity="1" text-anchor="end">80.0</text><polyline fill="none" stroke="#000" stroke-width="1" points="81 126 86 126" opacity="1"/><text x="77" y="83" fill="#000" dy=".5ex" font-family="sans-serif" font-size="9.677" opacity="1" text-anchor="end">90.0</text><polyline fill="none" stroke="#000" stroke-width="1" points="81 83 86 83" opacity="1"/><polyline fill="none" stroke="#000" stroke-width="1" points="87 473 933 473" opacity="1"/><text x="172" y="483" fill="#000" dy=".76em" font-family="sans-serif" font-size="9.677" opacity="1" text-anchor="middle">1</text><polyline fill="none" stroke="#000" stroke-width="1" points="172 473 172 478" opacity="1"/><text x="266" y="483" fill="#000" dy=".76em" font-family="sans-serif" font-size="9.677" opacity="1" text-anchor="middle">2</text><polyline fill="none" stroke="#000" stroke-width="1" points="266 473 266 478" opacity="1"/><text x="360" y="483" fill="#000" dy=".76em" font-family="sans-serif" font-size="9.677" opacity="1" text-anchor="middle">3</text><polyline fill="none" stroke="#000" stroke-width="1" points="360 473 360 478" opacity="1"/><text x="454" y="483" fill="#000" dy=".76em" font-family="sans-serif" font-size="9.677" opacity="1" text-anchor="middle">4</text><polyline fill="none" stroke="#000" stroke-width="1" points="454 473 454 478" opacity="1"/><text x="547" y="483" fill="#000" dy=".76em" font-family="sans-serif" font-size="9.677" opacity="1" text-anchor="middle">5</text><polyline fill="none" stroke="#000" stroke-width="1" points="547 473 547 478" opacity="1"/><text x="641" y="483" fill="#000" dy=".76em" font-family="sans-serif" font-size="9.677" opacity="1" text-anchor="middle">6</text><polyline fill="none" stroke="#000" stroke-width="1" points="641 473 641 478" opacity="1"/><text x="735" y="483" fill="#000" dy=".76em" font-family="sans-serif" font-size="9.677" opacity="1" text-anchor="middle">7</text><polyline fill="none" stroke="#000" stroke-width="1" points="735 473 735 478" opacity="1"/><text x="829" y="483" fill="#000" dy=".76em" font-family="sans-serif" font-size="9.677" opacity="1" text-anchor="middle">8</text><polyline fill="none" stroke="#000" stroke-width="1" points="829 473 829 478" opacity="1"/><text x="923" y="483" fill="#000" dy=".76em" font-family="sans-serif" font-size="9.677" opacity="1" text-anchor="middle">9</text><polyline fill="none" stroke="#000" stroke-width="1" points="923 473 923 478" opacity="1"/><circle cx="87" cy="472" r="3" fill="#1F78B4" stroke="none" opacity="1"/><circle cx="95" cy="468" r="3" fill="#1F78B4" stroke="none" opacity="1"/><circle cx="104" cy="464" r="3" fill="#1F78B4" stroke="none" opacity="1"/><circle cx="112" cy="460" r="3" fill="#1F78B4" stroke="none" opacity="1"/><circle cx="121" cy="455" r="3" fill="#1F78B4" stroke="none" opacity="1"/><circle cx="129" cy="451" r="3" fill="#1F78B4" stroke="none" opacity="1"/><circle cx="138" cy="448" r="3" fill="#1F78B4" stroke="none" opacity="1"/><circle cx="146" cy="443" r="3" fill="#1F78B4" stroke="none" opacity="1"/><circle cx="155" cy="439" r="3" fill="#1F78B4" stroke="none" opacity="1"/><circle cx="163" cy="436" r="3" fill="#1F78B4" stroke="none" opacity="1"/><circle cx="172" cy="432" r="3" fill="#1F78B4" stroke="none" opacity="1"/><circle cx="181" cy="428" r="3" fill="#1F78B4" stroke="none" opacity="1"/><circle cx="189" cy="424" r="3" fill="#1F78B4" stroke="none" opacity="1"/><circle cx="198" cy="420" r="3" fill="#1F78B4" stroke="none" opacity="1"/><circle cx="206" cy="416" r="3" fill="#1F78B4" stroke="none" opacity="1"/><circle cx="215" cy="412" r="3" fill="#1F78B4" stroke="none" opacity="1"/><circle cx="223" cy="408" r="3" fill="#1F78B4" stroke="none" opacity="1"/><circle cx="232" cy="404" r="3" fill="#1F78B4" stroke="none" opacity="1"/><circle cx="240" cy="401" r="3" fill="#1F78B4" stroke="none" opacity="1"/><circle cx="249" cy="396" r="3" fill="#1F78B4" stroke="none" opacity="1"/><circle cx="257" cy="393" r="3" fill="#1F78B4" stroke="none" opacity="1"/><circle cx="266" cy="389" r="3" fill="#1F78B4" stroke="none" opacity="1"/><circle cx="275" cy="385" r="3" fill="#1F78B4" stroke="none" opacity="1"/><circle cx="283" cy="382" r="3" fill="#1F78B4" stroke="none" opacity="1"/><circle cx="292" cy="376" r="3" fill="#1F78B4" stroke="none" opacity="1"/><circle cx="300" cy="373" r="3" fill="#1F78B4" stroke="none" opacity="1"/><circle cx="309" cy="369" r="3" fill="#1F78B4" stroke="none" opacity="1"/><circle cx="317" cy="365" r="3" fill="#1F78B4" stroke="none" opacity="1"/><circle cx="326" cy="359" r="3" fill="#1F78B4" stroke="none" opacity="1"/><circle cx="334" cy="357" r="3" fill="#1F78B4" stroke="none" opacity="1"/><circle cx="343" cy="354" r="3" fill="#1F78B4" stroke="none" opacity="1"/><circle cx="351" cy="349" r="3" fill="#1F78B4" stroke="none" opacity="1"/><circle cx="360" cy="346" r="3" fill="#1F78B4" stroke="none" opacity="1"/><circle cx="369" cy="342" r="3" fill="#1F78B4" stroke="none" opacity="1"/><circle cx="377" cy="338" r="3" fill="#1F78B4" stroke="none" opacity="1"/><circle cx="386" cy="333" r="3" fill="#1F78B4" stroke="none" opacity="1"/><circle cx="394" cy="330" r="3" fill="#1F78B4" stroke="none" opacity="1"/><circle cx="403" cy="325" r="3" fill="#1F78B4" stroke="none" opacity="1"/><circle cx="411" cy="322" r="3" fill="#1F78B4" stroke="none" opacity="1"/><circle cx="420" cy="317" r="3" fill="#1F78B4" stroke="none" opacity="1"/><circle cx="428" cy="314" r="3" fill="#1F78B4" stroke="none" opacity="1"/><circle cx="437" cy="310" r="3" fill="#1F78B4" stroke="none" opacity="1"/><circle cx="445" cy="307" r="3" fill="#1F78B4" stroke="none" opacity="1"/><circle cx="454" cy="302" r="3" fill="#1F78B4" stroke="none" opacity="1"/><circle cx="463" cy="299" r="3" fill="#1F78B4" stroke="none" opacity="1"/><circle cx="471" cy="294" r="3" fill="#1F78B4" stroke="none" opacity="1"/><circle cx="480" cy="266" r="3" fill="#1F78B4" stroke="none" opacity="1"/><circle cx="488" cy="286" r="3" fill="#1F78B4" stroke="none" opacity="1"/><circle cx="497" cy="282" r="3" fill="#1F78B4" stroke="none" opacity="1"/><circle cx="505" cy="279" r="3" fill="#1F78B4" stroke="none" opacity="1"/><circle cx="514" cy="275" r="3" fill="#1F78B4" stroke="none" opacity="1"/><circle cx="522" cy="271" r="3" fill="#1F78B4" stroke="none" opacity="1"/><circle cx="531" cy="265" r="3" fill="#1F78B4" stroke="none" opacity="1"/><circle cx="539" cy="262" r="3" fill="#1F78B4" stroke="none" opacity="1"/><circle cx="548" cy="259" r="3" fill="#1F78B4" stroke="none" opacity="1"/><circle cx="557" cy="255" r="3" fill="#1F78B4" stroke="none" opacity="1"/><circle cx="565" cy="250" r="3" fill="#1F78B4" stroke="none" opacity="1"/><circle cx="574" cy="245" r="3" fill="#1F78B4" stroke="none" opacity="1"/><circle cx="582" cy="229" r="3" fill="#1F78B4" stroke="none" opacity="1"/><circle cx="591" cy="237" r="3" fill="#1F78B4" stroke="none" opacity="1"/><circle cx="599" cy="234" r="3" fill="#1F78B4" stroke="none" opacity="1"/><circle cx="608" cy="231" r="3" fill="#1F78B4" stroke="none" opacity="1"/><circle cx="616" cy="227" r="3" fill="#1F78B4" stroke="none" opacity="1"/><circle cx="625" cy="223" r="3" fill="#1F78B4" stroke="none" opacity="1"/><circle cx="633" cy="218" r="3" fill="#1F78B4" stroke="none" opacity="1"/><circle cx="642" cy="216" r="3" fill="#1F78B4" stroke="none" opacity="1"/><circle cx="651" cy="210" r="3" fill="#1F78B4" stroke="none" opacity="1"/><circle cx="659" cy="206" r="3" fill="#1F78B4" stroke="none" opacity="1"/><circle cx="668" cy="200" r="3" fill="#1F78B4" stroke="none" opacity="1"/><circle cx="676" cy="199" r="3" fill="#1F78B4" stroke="none" opacity="1"/><circle cx="685" cy="196" r="3" fill="#1F78B4" stroke="none" opacity="1"/><circle cx="693" cy="191" r="3" fill="#1F78B4" stroke="none" opacity="1"/><circle cx="702" cy="186" r="3" fill="#1F78B4" stroke="none" opacity="1"/><circle cx="710" cy="183" r="3" fill="#1F78B4" stroke="none" opacity="1"/><circle cx="719" cy="180" r="3" fill="#1F78B4" stroke="none" opacity="1"/><circle cx="727" cy="176" r="3" fill="#1F78B4" stroke="none" opacity="1"/><circle cx="736" cy="173" r="3" fill="#1F78B4" stroke="none" opacity="1"/><circle cx="745" cy="159" r="3" fill="#1F78B4" stroke="none" opacity="1"/><circle cx="753" cy="164" r="3" fill="#1F78B4" stroke="none" opacity="1"/><circle cx="762" cy="160" r="3" fill="#1F78B4" stroke="none" opacity="1"/><circle cx="770" cy="156" r="3" fill="#1F78B4" stroke="none" opacity="1"/><circle cx="779" cy="151" r="3" fill="#1F78B4" stroke="none" opacity="1"/><circle cx="787" cy="148" r="3" fill="#1F78B4" stroke="none" opacity="1"/><circle cx="796" cy="144" r="3" fill="#1F78B4" stroke="none" opacity="1"/><circle cx="804" cy="140" r="3" fill="#1F78B4" stroke="none" opacity="1"/><circle cx="813" cy="129" r="3" fill="#1F78B4" stroke="none" opacity="1"/><circle cx="821" cy="131" r="3" fill="#1F78B4" stroke="none" opacity="1"/><circle cx="830" cy="128" r="3" fill="#1F78B4" stroke="none" opacity="1"/><circle cx="839" cy="124" r="3" fill="#1F78B4" stroke="none" opacity="1"/><circle cx="847" cy="120" r="3" fill="#1F78B4" stroke="none" opacity="1"/><circle cx="856" cy="114" r="3" fill="#1F78B4" stroke="none" opacity="1"/><circle cx="864" cy="113" r="3" fill="#1F78B4" stroke="none" opacity="1"/><circle cx="873" cy="107" r="3" fill="#1F78B4" stroke="none" opacity="1"/><circle cx="881" cy="53" r="3" fill="#1F78B4" stroke="none" opacity="1"/><circle cx="890" cy="98" r="3" fill="#1F78B4" stroke="none" opacity="1"/><circle cx="898" cy="96" r="3" fill="#1F78B4" stroke="none" opacity="1"/><circle cx="907" cy="93" r="3" fill="#1F78B4" stroke="none" opacity="1"/><circle cx="915" cy="88" r="3" fill="#1F78B4" stroke="none" opacity="1"/><circle cx="924" cy="85" r="3" fill="#1F78B4" stroke="none" opacity="1"/><circle cx="933" cy="81" r="3" fill="#1F78B4" stroke="none" opacity="1"/><polyline fill="none" stroke="#1F78B4" stroke-width="1" points="87 473 933 78" opacity="1"/><polygon fill="#1F78B4" points="87 473 933 80 933 74" opacity=".25"/><text x="132" y="68" fill="#000" dy=".76em" font-family="sans-serif" font-size="9.677" opacity="1" text-anchor="start">Sample</text><text x="132" y="83" fill="#000" dy=".76em" font-family="sans-serif" font-size="9.677" opacity="1" text-anchor="start">Linear regression</text><text x="132" y="98" fill="#000" dy=".76em" font-family="sans-serif" font-size="9.677" opacity="1" text-anchor="start">Confidence interval</text><circle cx="112" cy="73" r="3" fill="#1F78B4" stroke="none" opacity="1"/><polyline fill="none" stroke="#1F78B4" stroke-width="2" points="102 88 122 88" opacity="1"/><rect width="20" height="10" x="102" y="98" fill="#1F78B4" stroke="none" opacity=".25"/></svg>