<svg xmlns="http://www.w3.org/2000/svg" width="450" height="300"><text x="15" y="130" fill="#000" dy=".76em" font-family="sans-serif" font-size="9.677" opacity="1" text-anchor="middle" transform="rotate(270, 15, 130)">Total sample time (ms)</text><text x="255" y="285" fill="#000" dy="-.5ex" font-family="sans-serif" font-size="9.677" opacity="1" text-anchor="middle">Iterations (x 10^3)</text><line x1="111" x2="111" y1="244" y2="14" stroke="#000" stroke-width="1" opacity=".2"/><line x1="151" x2="151" y1="244" y2="14" stroke="#000" stroke-width="1" opacity=".2"/><line x1="191" x2="191" y1="244" y2="14" stroke="#000" stroke-width="1" opacity=".2"/><line x1="231" x2="231" y1="244" y2="14" stroke="#000" stroke-width="1" opacity=".2"/><line x1="271" x2="271" y1="244" y2="14" stroke="#000" stroke-width="1" opacity=".2"/><line x1="311" x2="311" y1="244" y2="14" stroke="#000" stroke-width="1" opacity=".2"/><line x1="351" x2="351" y1="244" y2="14" stroke="#000" stroke-width="1" opacity=".2"/><line x1="391" x2="391" y1="244" y2="14" stroke="#000" stroke-width="1" opacity=".2"/><line x1="431" x2="431" y1="244" y2="14" stroke="#000" stroke-width="1" opacity=".2"/><line x1="75" x2="435" y1="222" y2="222" stroke="#000" stroke-width="1" opacity=".2"/><line x1="75" x2="435" y1="198" y2="198" stroke="#000" stroke-width="1" opacity=".2"/><line x1="75" x2="435" y1="174" y2="174" stroke="#000" stroke-width="1" opacity=".2"/><line x1="75" x2="435" y1="150" y2="150" stroke="#000" stroke-width="1" opacity=".2"/><line x1="75" x2="435" y1="126" y2="126" stroke="#000" stroke-width="1" opacity=".2"/><line x1="75" x2="435" y1="102" y2="102" stroke="#000" stroke-width="1" opacity=".2"/><line x1="75" x2="435" y1="78" y2="78" stroke="#000" stroke-width="1" opacity=".2"/><line x1="75" x2="435" y1="54" y2="54" stroke="#000" stroke-width="1" opacity=".2"/><line x1="75" x2="435" y1="31" y2="31" stroke="#000" stroke-width="1" opacity=".2"/><polyline fill="none" stroke="#000" stroke-width="1" points="74 15 74 245" opacity="1"/><text x="65" y="222" fill="#000" dy=".5ex" font-family="sans-serif" font-size="9.677" opacity="1" text-anchor="end">10.0</text><polyline fill="none" stroke="#000" stroke-width="1" points="69 222 74 222" opacity="1"/><text x="65" y="198" fill="#000" dy=".5ex" font-family="sans-serif" font-size="9.677" opacity="1" text-anchor="end">20.0</text><polyline fill="none" stroke="#000" stroke-width="1" points="69 198 74 198" opacity="1"/><text x="65" y="174" fill="#000" dy=".5ex" font-family="sans-serif" font-size="9.677" opacity="1" text-anchor="end">30.0</text><polyline fill="none" stroke="#000" stroke-width="1" points="69 174 74 174" opacity="1"/><text x="65" y="150" fill="#000" dy=".5ex" font-family="sans-serif" font-size="9.677" opacity="1" text-anchor="end">40.0</text><polyline fill="none" stroke="#000" stroke-width="1" points="69 150 74 150" opacity="1"/><text x="65" y="126" fill="#000" dy=".5ex" font-family="sans-serif" font-size="9.677" opacity="1" text-anchor="end">50.0</text><polyline fill="none" stroke="#000" stroke-width="1" points="69 126 74 126" opacity="1"/><text x="65" y="102" fill="#000" dy=".5ex" font-family="sans-serif" font-size="9.677" opacity="1" text-anchor="end">60.0</text><polyline fill="none" stroke="#000" stroke-width="1" points="69 102 74 102" opacity="1"/><text x="65" y="78" fill="#000" dy=".5ex" font-family="sans-serif" font-size="9.677" opacity="1" text-anchor="end">70.0</text><polyline fill="none" stroke="#000" stroke-width="1" points="69 78 74 78" opacity="1"/><text x="65" y="54" fill="#000" dy=".5ex" font-family="sans-serif" font-size="9.677" opacity="1" text-anchor="end">80.0</text><polyline fill="none" stroke="#000" stroke-width="1" points="69 54 74 54" opacity="1"/><text x="65" y="31" fill="#000" dy=".5ex" font-family="sans-serif" font-size="9.677" opacity="1" text-anchor="end">90.0</text><polyline fill="none" stroke="#000" stroke-width="1" points="69 31 74 31" opacity="1"/><polyline fill="none" stroke="#000" stroke-width="1" points="75 245 435 245" opacity="1"/><text x="111" y="255" fill="#000" dy=".76em" font-family="sans-serif" font-size="9.677" opacity="1" text-anchor="middle">1</text><polyline fill="none" stroke="#000" stroke-width="1" points="111 245 111 250" opacity="1"/><text x="151" y="255" fill="#000" dy=".76em" font-family="sans-serif" font-size="9.677" opacity="1" text-anchor="middle">2</text><polyline fill="none" stroke="#000" stroke-width="1" points="151 245 151 250" opacity="1"/><text x="191" y="255" fill="#000" dy=".76em" font-family="sans-serif" font-size="9.677" opacity="1" text-anchor="middle">3</text><polyline fill="none" stroke="#000" stroke-width="1" points="191 245 191 250" opacity="1"/><text x="231" y="255" fill="#000" dy=".76em" font-family="sans-serif" font-size="9.677" opacity="1" text-anchor="middle">4</text><polyline fill="none" stroke="#000" stroke-width="1" points="231 245 231 250" opacity="1"/><text x="271" y="255" fill="#000" dy=".76em" font-family="sans-serif" font-size="9.677" opacity="1" text-anchor="middle">5</text><polyline fill="none" stroke="#000" stroke-width="1" points="271 245 271 250" opacity="1"/><text x="311" y="255" fill="#000" dy=".76em" font-family="sans-serif" font-size="9.677" opacity="1" text-anchor="middle">6</text><polyline fill="none" stroke="#000" stroke-width="1" points="311 245 311 250" opacity="1"/><text x="351" y="255" fill="#000" dy=".76em" font-family="sans-serif" font-size="9.677" opacity="1" text-anchor="middle">7</text><polyline fill="none" stroke="#000" stroke-width="1" points="351 245 351 250" opacity="1"/><text x="391" y="255" fill="#000" dy=".76em" font-family="sans-serif" font-size="9.677" opacity="1" text-anchor="middle">8</text><polyline fill="none" stroke="#000" stroke-width="1" points="391 245 391 250" opacity="1"/><text x="431" y="255" fill="#000" dy=".76em" font-family="sans-serif" font-size="9.677" opacity="1" text-anchor="middle">9</text><polyline fill="none" stroke="#000" stroke-width="1" points="431 245 431 250" opacity="1"/><circle cx="75" cy="244" r="3" fill="#1F78B4" stroke="none" opacity="1"/><circle cx="78" cy="241" r="3" fill="#1F78B4" stroke="none" opacity="1"/><circle cx="82" cy="239" r="3" fill="#1F78B4" stroke="none" opacity="1"/><circle cx="85" cy="237" r="3" fill="#1F78B4" stroke="none" opacity="1"/><circle cx="89" cy="235" r="3" fill="#1F78B4" stroke="none" opacity="1"/><circle cx="93" cy="232" r="3" fill="#1F78B4" stroke="none" opacity="1"/><circle cx="96" cy="231" r="3" fill="#1F78B4" stroke="none" opacity="1"/><circle cx="100" cy="228" r="3" fill="#1F78B4" stroke="none" opacity="1"/><circle cx="104" cy="226" r="3" fill="#1F78B4" stroke="none" opacity="1"/><circle cx="107" cy="224" r="3" fill="#1F78B4" stroke="none" opacity="1"/><circle cx="111" cy="222" r="3" fill="#1F78B4" stroke="none" opacity="1"/><circle cx="115" cy="220" r="3" fill="#1F78B4" stroke="none" opacity="1"/><circle cx="118" cy="218" r="3" fill="#1F78B4" stroke="none" opacity="1"/><circle cx="122" cy="216" r="3" fill="#1F78B4" stroke="none" opacity="1"/><circle cx="125" cy="213" r="3" fill="#1F78B4" stroke="none" opacity="1"/><circle cx="129" cy="211" r="3" fill="#1F78B4" stroke="none" opacity="1"/><circle cx="133" cy="209" r="3" fill="#1F78B4" stroke="none" opacity="1"/><circle cx="136" cy="207" r="3" fill="#1F78B4" stroke="none" opacity="1"/><circle cx="140" cy="205" r="3" fill="#1F78B4" stroke="none" opacity="1"/><circle cx="144" cy="202" r="3" fill="#1F78B4" stroke="none" opacity="1"/><circle cx="147" cy="200" r="3" fill="#1F78B4" stroke="none" opacity="1"/><circle cx="151" cy="198" r="3" fill="#1F78B4" stroke="none" opacity="1"/><circle cx="155" cy="196" r="3" fill="#1F78B4" stroke="none" opacity="1"/><circle cx="158" cy="194" r="3" fill="#1F78B4" stroke="none" opacity="1"/><circle cx="162" cy="191" r="3" fill="#1F78B4" stroke="none" opacity="1"/><circle cx="165" cy="190" r="3" fill="#1F78B4" stroke="none" opacity="1"/><circle cx="169" cy="187" r="3" fill="#1F78B4" stroke="none" opacity="1"/><circle cx="173" cy="185" r="3" fill="#1F78B4" stroke="none" opacity="1"/><circle cx="176" cy="182" r="3" fill="#1F78B4" stroke="none" opacity="1"/><circle cx="180" cy="181" r="3" fill="#1F78B4" stroke="none" opacity="1"/><circle cx="184" cy="179" r="3" fill="#1F78B4" stroke="none" opacity="1"/><circle cx="187" cy="176" r="3" fill="#1F78B4" stroke="none" opacity="1"/><circle cx="191" cy="175" r="3" fill="#1F78B4" stroke="none" opacity="1"/><circle cx="195" cy="172" r="3" fill="#1F78B4" stroke="none" opacity="1"/><circle cx="198" cy="170" r="3" fill="#1F78B4" stroke="none" opacity="1"/><circle cx="202" cy="168" r="3" fill="#1F78B4" stroke="none" opacity="1"/><circle cx="205" cy="166" r="3" fill="#1F78B4" stroke="none" opacity="1"/><circle cx="209" cy="163" r="3" fill="#1F78B4" stroke="none" opacity="1"/><circle cx="213" cy="162" r="3" fill="#1F78B4" stroke="none" opacity="1"/><circle cx="216" cy="159" r="3" fill="#1F78B4" stroke="none" opacity="1"/><circle cx="220" cy="157" r="3" fill="#1F78B4" stroke="none" opacity="1"/><circle cx="224" cy="155" r="3" fill="#1F78B4" stroke="none" opacity="1"/><circle cx="227" cy="153" r="3" fill="#1F78B4" stroke="none" opacity="1"/><circle cx="231" cy="151" r="3" fill="#1F78B4" stroke="none" opacity="1"/><circle cx="235" cy="149" r="3" fill="#1F78B4" stroke="none" opacity="1"/><circle cx="238" cy="146" r="3" fill="#1F78B4" stroke="none" opacity="1"/><circle cx="242" cy="131" r="3" fill="#1F78B4" stroke="none" opacity="1"/><circle cx="245" cy="142" r="3" fill="#1F78B4" stroke="none" opacity="1"/><circle cx="249" cy="140" r="3" fill="#1F78B4" stroke="none" opacity="1"/><circle cx="253" cy="138" r="3" fill="#1F78B4" stroke="none" opacity="1"/><circle cx="256" cy="136" r="3" fill="#1F78B4" stroke="none" opacity="1"/><circle cx="260" cy="134" r="3" fill="#1F78B4" stroke="none" opacity="1"/><circle cx="264" cy="131" r="3" fill="#1F78B4" stroke="none" opacity="1"/><circle cx="267" cy="129" r="3" fill="#1F78B4" stroke="none" opacity="1"/><circle cx="271" cy="127" r="3" fill="#1F78B4" stroke="none" opacity="1"/><circle cx="275" cy="125" r="3" fill="#1F78B4" stroke="none" opacity="1"/><circle cx="278" cy="122" r="3" fill="#1F78B4" stroke="none" opacity="1"/><circle cx="282" cy="120" r="3" fill="#1F78B4" stroke="none" opacity="1"/><circle cx="285" cy="111" r="3" fill="#1F78B4" stroke="none" opacity="1"/><circle cx="289" cy="115" r="3" fill="#1F78B4" stroke="none" opacity="1"/><circle cx="293" cy="114" r="3" fill="#1F78B4" stroke="none" opacity="1"/><circle cx="296" cy="112" r="3" fill="#1F78B4" stroke="none" opacity="1"/><circle cx="300" cy="110" r="3" fill="#1F78B4" stroke="none" opacity="1"/><circle cx="304" cy="107" r="3" fill="#1F78B4" stroke="none" opacity="1"/><circle cx="307" cy="104" r="3" fill="#1F78B4" stroke="none" opacity="1"/><circle cx="311" cy="103" r="3" fill="#1F78B4" stroke="none" opacity="1"/><circle cx="315" cy="100" r="3" fill="#1F78B4" stroke="none" opacity="1"/><circle cx="318" cy="98" r="3" fill="#1F78B4" stroke="none" opacity="1"/><circle cx="322" cy="95" r="3" fill="#1F78B4" stroke="none" opacity="1"/><circle cx="325" cy="94" r="3" fill="#1F78B4" stroke="none" opacity="1"/><circle cx="329" cy="93" r="3" fill="#1F78B4" stroke="none" opacity="1"/><circle cx="333" cy="90" r="3" fill="#1F78B4" stroke="none" opacity="1"/><circle cx="336" cy="87" r="3" fill="#1F78B4" stroke="none" opacity="1"/><circle cx="340" cy="86" r="3" fill="#1F78B4" stroke="none" opacity="1"/><circle cx="344" cy="84" r="3" fill="#1F78B4" stroke="none" opacity="1"/><circle cx="347" cy="82" r="3" fill="#1F78B4" stroke="none" opacity="1"/><circle cx="351" cy="80" r="3" fill="#1F78B4" stroke="none" opacity="1"/><circle cx="355" cy="72" r="3" fill="#1F78B4" stroke="none" opacity="1"/><circle cx="358" cy="75" r="3" fill="#1F78B4" stroke="none" opacity="1"/><circle cx="362" cy="73" r="3" fill="#1F78B4" stroke="none" opacity="1"/><circle cx="365" cy="71" r="3" fill="#1F78B4" stroke="none" opacity="1"/><circle cx="369" cy="68" r="3" fill="#1F78B4" stroke="none" opacity="1"/><circle cx="373" cy="66" r="3" fill="#1F78B4" stroke="none" opacity="1"/><circle cx="376" cy="64" r="3" fill="#1F78B4" stroke="none" opacity="1"/><circle cx="380" cy="62" r="3" fill="#1F78B4" stroke="none" opacity="1"/><circle cx="384" cy="56" r="3" fill="#1F78B4" stroke="none" opacity="1"/><circle cx="387" cy="57" r="3" fill="#1F78B4" stroke="none" opacity="1"/><circle cx="391" cy="55" r="3" fill="#1F78B4" stroke="none" opacity="1"/><circle cx="395" cy="53" r="3" fill="#1F78B4" stroke="none" opacity="1"/><circle cx="398" cy="51" r="3" fill="#1F78B4" stroke="none" opacity="1"/><circle cx="402" cy="48" r="3" fill="#1F78B4" stroke="none" opacity="1"/><circle cx="405" cy="47" r="3" fill="#1F78B4" stroke="none" opacity="1"/><circle cx="409" cy="44" r="3" fill="#1F78B4" stroke="none" opacity="1"/><circle cx="413" cy="15" r="3" fill="#1F78B4" stroke="none" opacity="1"/><circle cx="416" cy="39" r="3" fill="#1F78B4" stroke="none" opacity="1"/><circle cx="420" cy="38" r="3" fill="#1F78B4" stroke="none" opacity="1"/><circle cx="424" cy="36" r="3" fill="#1F78B4" stroke="none" opacity="1"/><circle cx="427" cy="34" r="3" fill="#1F78B4" stroke="none" opacity="1"/><circle cx="431" cy="32" r="3" fill="#1F78B4" stroke="none" opacity="1"/><circle cx="435" cy="29" r="3" fill="#1F78B4" stroke="none" opacity="1"/><polyline fill="none" stroke="#1F78B4" stroke-width="1" points="75 245 435 28" opacity="1"/><polygon fill="#1F78B4" points="75 245 435 29 435 26" opacity=".25"/></svg>