<svg xmlns="http://www.w3.org/2000/svg" width="960" height="540"><text x="480" y="32" fill="#000" dy=".76em" font-family="sans-serif" font-size="16.129" opacity="1" text-anchor="middle">bench_group/threads_48/131072</text><text x="27" y="263" fill="#000" dy=".76em" font-family="sans-serif" font-size="9.677" opacity="1" text-anchor="middle" transform="rotate(270, 27, 263)">Total sample time (ms)</text><text x="510" y="513" fill="#000" dy="-.5ex" font-family="sans-serif" font-size="9.677" opacity="1" text-anchor="middle">Iterations (x 10^3)</text><line x1="197" x2="197" y1="472" y2="52" stroke="#000" stroke-width="1" opacity=".2"/><line x1="315" x2="315" y1="472" y2="52" stroke="#000" stroke-width="1" opacity=".2"/><line x1="434" x2="434" y1="472" y2="52" stroke="#000" stroke-width="1" opacity=".2"/><line x1="553" x2="553" y1="472" y2="52" stroke="#000" stroke-width="1" opacity=".2"/><line x1="671" x2="671" y1="472" y2="52" stroke="#000" stroke-width="1" opacity=".2"/><line x1="790" x2="790" y1="472" y2="52" stroke="#000" stroke-width="1" opacity=".2"/><line x1="909" x2="909" y1="472" y2="52" stroke="#000" stroke-width="1" opacity=".2"/><line x1="87" x2="933" y1="395" y2="395" stroke="#000" stroke-width="1" opacity=".2"/><line x1="87" x2="933" y1="314" y2="314" stroke="#000" stroke-width="1" opacity=".2"/><line x1="87" x2="933" y1="232" y2="232" stroke="#000" stroke-width="1" opacity=".2"/><line x1="87" x2="933" y1="151" y2="151" stroke="#000" stroke-width="1" opacity=".2"/><line x1="87" x2="933" y1="70" y2="70" stroke="#000" stroke-width="1" opacity=".2"/><polyline fill="none" stroke="#000" stroke-width="1" points="86 53 86 473" opacity="1"/><text x="77" y="395" fill="#000" dy=".5ex" font-family="sans-serif" font-size="9.677" opacity="1" text-anchor="end">20.0</text><polyline fill="none" stroke="#000" stroke-width="1" points="81 395 86 395" opacity="1"/><text x="77" y="314" fill="#000" dy=".5ex" font-family="sans-serif" font-size="9.677" opacity="1" text-anchor="end">40.0</text><polyline fill="none" stroke="#000" stroke-width="1" points="81 314 86 314" opacity="1"/><text x="77" y="232" fill="#000" dy=".5ex" font-family="sans-serif" font-size="9.677" opacity="1" text-anchor="end">60.0</text><polyline fill="none" stroke="#000" stroke-width="1" points="81 232 86 232" opacity="1"/><text x="77" y="151" fill="#000" dy=".5ex" font-family="sans-serif" font-size="9.677" opacity="1" text-anchor="end">80.0</text><polyline fill="none" stroke="#000" stroke-width="1" points="81 151 86 151" opacity="1"/><text x="77" y="70" fill="#000" dy=".5ex" font-family="sans-serif" font-size="9.677" opacity="1" text-anchor="end">100.0</text><polyline fill="none" stroke="#000" stroke-width="1" points="81 70 86 70" opacity="1"/><polyline fill="none" stroke="#000" stroke-width="1" points="87 473 933 473" opacity="1"/><text x="197" y="483" fill="#000" dy=".76em" font-family="sans-serif" font-size="9.677" opacity="1" text-anchor="middle">0.5</text><polyline fill="none" stroke="#000" stroke-width="1" points="197 473 197 478" opacity="1"/><text x="315" y="483" fill="#000" dy=".76em" font-family="sans-serif" font-size="9.677" opacity="1" text-anchor="middle">1</text><polyline fill="none" stroke="#000" stroke-width="1" points="315 473 315 478" opacity="1"/><text x="434" y="483" fill="#000" dy=".76em" font-family="sans-serif" font-size="9.677" opacity="1" text-anchor="middle">1.5</text><polyline fill="none" stroke="#000" stroke-width="1" points="434 473 434 478" opacity="1"/><text x="553" y="483" fill="#000" dy=".76em" font-family="sans-serif" font-size="9.677" opacity="1" text-anchor="middle">2</text><polyline fill="none" stroke="#000" stroke-width="1" points="553 473 553 478" opacity="1"/><text x="671" y="483" fill="#000" dy=".76em" font-family="sans-serif" font-size="9.677" opacity="1" text-anchor="middle">2.5</text><polyline fill="none" stroke="#000" stroke-width="1" points="671 473 671 478" opacity="1"/><text x="790" y="483" fill="#000" dy=".76em" font-family="sans-serif" font-size="9.677" opacity="1" text-anchor="middle">3</text><polyline fill="none" stroke="#000" stroke-width="1" points="790 473 790 478" opacity="1"/><text x="909" y="483" fill="#000" dy=".76em" font-family="sans-serif" font-size="9.677" opacity="1" text-anchor="middle">3.5</text><polyline fill="none" stroke="#000" stroke-width="1" points="909 473 909 478" opacity="1"/><circle cx="87" cy="472" r="3" fill="#1F78B4" stroke="none" opacity="1"/><circle cx="95" cy="467" r="3" fill="#1F78B4" stroke="none" opacity="1"/><circle cx="104" cy="460" r="3" fill="#1F78B4" stroke="none" opacity="1"/><circle cx="112" cy="459" r="3" fill="#1F78B4" stroke="none" opacity="1"/><circle cx="121" cy="456" r="3" fill="#1F78B4" stroke="none" opacity="1"/><circle cx="129" cy="452" r="3" fill="#1F78B4" stroke="none" opacity="1"/><circle cx="138" cy="448" r="3" fill="#1F78B4" stroke="none" opacity="1"/><circle cx="146" cy="442" r="3" fill="#1F78B4" stroke="none" opacity="1"/><circle cx="155" cy="438" r="3" fill="#1F78B4" stroke="none" opacity="1"/><circle cx="163" cy="437" r="3" fill="#1F78B4" stroke="none" opacity="1"/><circle cx="172" cy="433" r="3" fill="#1F78B4" stroke="none" opacity="1"/><circle cx="181" cy="429" r="3" fill="#1F78B4" stroke="none" opacity="1"/><circle cx="189" cy="421" r="3" fill="#1F78B4" stroke="none" opacity="1"/><circle cx="198" cy="411" r="3" fill="#1F78B4" stroke="none" opacity="1"/><circle cx="206" cy="417" r="3" fill="#1F78B4" stroke="none" opacity="1"/><circle cx="215" cy="415" r="3" fill="#1F78B4" stroke="none" opacity="1"/><circle cx="223" cy="407" r="3" fill="#1F78B4" stroke="none" opacity="1"/><circle cx="232" cy="404" r="3" fill="#1F78B4" stroke="none" opacity="1"/><circle cx="240" cy="404" r="3" fill="#1F78B4" stroke="none" opacity="1"/><circle cx="249" cy="389" r="3" fill="#1F78B4" stroke="none" opacity="1"/><circle cx="257" cy="394" r="3" fill="#1F78B4" stroke="none" opacity="1"/><circle cx="266" cy="393" r="3" fill="#1F78B4" stroke="none" opacity="1"/><circle cx="275" cy="386" r="3" fill="#1F78B4" stroke="none" opacity="1"/><circle cx="283" cy="383" r="3" fill="#1F78B4" stroke="none" opacity="1"/><circle cx="292" cy="373" r="3" fill="#1F78B4" stroke="none" opacity="1"/><circle cx="300" cy="366" r="3" fill="#1F78B4" stroke="none" opacity="1"/><circle cx="309" cy="375" r="3" fill="#1F78B4" stroke="none" opacity="1"/><circle cx="317" cy="367" r="3" fill="#1F78B4" stroke="none" opacity="1"/><circle cx="326" cy="360" r="3" fill="#1F78B4" stroke="none" opacity="1"/><circle cx="334" cy="364" r="3" fill="#1F78B4" stroke="none" opacity="1"/><circle cx="343" cy="360" r="3" fill="#1F78B4" stroke="none" opacity="1"/><circle cx="351" cy="348" r="3" fill="#1F78B4" stroke="none" opacity="1"/><circle cx="360" cy="348" r="3" fill="#1F78B4" stroke="none" opacity="1"/><circle cx="369" cy="347" r="3" fill="#1F78B4" stroke="none" opacity="1"/><circle cx="377" cy="345" r="3" fill="#1F78B4" stroke="none" opacity="1"/><circle cx="386" cy="332" r="3" fill="#1F78B4" stroke="none" opacity="1"/><circle cx="394" cy="338" r="3" fill="#1F78B4" stroke="none" opacity="1"/><circle cx="403" cy="310" r="3" fill="#1F78B4" stroke="none" opacity="1"/><circle cx="411" cy="319" r="3" fill="#1F78B4" stroke="none" opacity="1"/><circle cx="420" cy="314" r="3" fill="#1F78B4" stroke="none" opacity="1"/><circle cx="428" cy="301" r="3" fill="#1F78B4" stroke="none" opacity="1"/><circle cx="437" cy="322" r="3" fill="#1F78B4" stroke="none" opacity="1"/><circle cx="445" cy="306" r="3" fill="#1F78B4" stroke="none" opacity="1"/><circle cx="454" cy="298" r="3" fill="#1F78B4" stroke="none" opacity="1"/><circle cx="463" cy="285" r="3" fill="#1F78B4" stroke="none" opacity="1"/><circle cx="471" cy="300" r="3" fill="#1F78B4" stroke="none" opacity="1"/><circle cx="480" cy="282" r="3" fill="#1F78B4" stroke="none" opacity="1"/><circle cx="488" cy="293" r="3" fill="#1F78B4" stroke="none" opacity="1"/><circle cx="497" cy="289" r="3" fill="#1F78B4" stroke="none" opacity="1"/><circle cx="505" cy="292" r="3" fill="#1F78B4" stroke="none" opacity="1"/><circle cx="514" cy="270" r="3" fill="#1F78B4" stroke="none" opacity="1"/><circle cx="522" cy="252" r="3" fill="#1F78B4" stroke="none" opacity="1"/><circle cx="531" cy="273" r="3" fill="#1F78B4" stroke="none" opacity="1"/><circle cx="539" cy="252" r="3" fill="#1F78B4" stroke="none" opacity="1"/><circle cx="548" cy="252" r="3" fill="#1F78B4" stroke="none" opacity="1"/><circle cx="557" cy="269" r="3" fill="#1F78B4" stroke="none" opacity="1"/><circle cx="565" cy="265" r="3" fill="#1F78B4" stroke="none" opacity="1"/><circle cx="574" cy="247" r="3" fill="#1F78B4" stroke="none" opacity="1"/><circle cx="582" cy="252" r="3" fill="#1F78B4" stroke="none" opacity="1"/><circle cx="591" cy="247" r="3" fill="#1F78B4" stroke="none" opacity="1"/><circle cx="599" cy="252" r="3" fill="#1F78B4" stroke="none" opacity="1"/><circle cx="608" cy="248" r="3" fill="#1F78B4" stroke="none" opacity="1"/><circle cx="616" cy="242" r="3" fill="#1F78B4" stroke="none" opacity="1"/><circle cx="625" cy="220" r="3" fill="#1F78B4" stroke="none" opacity="1"/><circle cx="633" cy="210" r="3" fill="#1F78B4" stroke="none" opacity="1"/><circle cx="642" cy="190" r="3" fill="#1F78B4" stroke="none" opacity="1"/><circle cx="651" cy="207" r="3" fill="#1F78B4" stroke="none" opacity="1"/><circle cx="659" cy="232" r="3" fill="#1F78B4" stroke="none" opacity="1"/><circle cx="668" cy="208" r="3" fill="#1F78B4" stroke="none" opacity="1"/><circle cx="676" cy="200" r="3" fill="#1F78B4" stroke="none" opacity="1"/><circle cx="685" cy="192" r="3" fill="#1F78B4" stroke="none" opacity="1"/><circle cx="693" cy="170" r="3" fill="#1F78B4" stroke="none" opacity="1"/><circle cx="702" cy="183" r="3" fill="#1F78B4" stroke="none" opacity="1"/><circle cx="710" cy="200" r="3" fill="#1F78B4" stroke="none" opacity="1"/><circle cx="719" cy="175" r="3" fill="#1F78B4" stroke="none" opacity="1"/><circle cx="727" cy="161" r="3" fill="#1F78B4" stroke="none" opacity="1"/><circle cx="736" cy="179" r="3" fill="#1F78B4" stroke="none" opacity="1"/><circle cx="745" cy="174" r="3" fill="#1F78B4" stroke="none" opacity="1"/><circle cx="753" cy="181" r="3" fill="#1F78B4" stroke="none" opacity="1"/><circle cx="762" cy="147" r="3" fill="#1F78B4" stroke="none" opacity="1"/><circle cx="770" cy="172" r="3" fill="#1F78B4" stroke="none" opacity="1"/><circle cx="779" cy="129" r="3" fill="#1F78B4" stroke="none" opacity="1"/><circle cx="787" cy="156" r="3" fill="#1F78B4" stroke="none" opacity="1"/><circle cx="796" cy="170" r="3" fill="#1F78B4" stroke="none" opacity="1"/><circle cx="804" cy="162" r="3" fill="#1F78B4" stroke="none" opacity="1"/><circle cx="813" cy="109" r="3" fill="#1F78B4" stroke="none" opacity="1"/><circle cx="821" cy="158" r="3" fill="#1F78B4" stroke="none" opacity="1"/><circle cx="830" cy="148" r="3" fill="#1F78B4" stroke="none" opacity="1"/><circle cx="839" cy="119" r="3" fill="#1F78B4" stroke="none" opacity="1"/><circle cx="847" cy="111" r="3" fill="#1F78B4" stroke="none" opacity="1"/><circle cx="856" cy="137" r="3" fill="#1F78B4" stroke="none" opacity="1"/><circle cx="864" cy="123" r="3" fill="#1F78B4" stroke="none" opacity="1"/><circle cx="873" cy="82" r="3" fill="#1F78B4" stroke="none" opacity="1"/><circle cx="881" cy="96" r="3" fill="#1F78B4" stroke="none" opacity="1"/><circle cx="890" cy="91" r="3" fill="#1F78B4" stroke="none" opacity="1"/><circle cx="898" cy="104" r="3" fill="#1F78B4" stroke="none" opacity="1"/><circle cx="907" cy="53" r="3" fill="#1F78B4" stroke="none" opacity="1"/><circle cx="915" cy="87" r="3" fill="#1F78B4" stroke="none" opacity="1"/><circle cx="924" cy="71" r="3" fill="#1F78B4" stroke="none" opacity="1"/><circle cx="933" cy="96" r="3" fill="#1F78B4" stroke="none" opacity="1"/><polyline fill="none" stroke="#1F78B4" stroke-width="1" points="87 473 933 82" opacity="1"/><polygon fill="#1F78B4" points="87 473 933 87 933 76" opacity=".25"/><text x="132" y="68" fill="#000" dy=".76em" font-family="sans-serif" font-size="9.677" opacity="1" text-anchor="start">Sample</text><text x="132" y="83" fill="#000" dy=".76em" font-family="sans-serif" font-size="9.677" opacity="1" text-anchor="start">Linear regression</text><text x="132" y="98" fill="#000" dy=".76em" font-family="sans-serif" font-size="9.677" opacity="1" text-anchor="start">Confidence interval</text><circle cx="112" cy="73" r="3" fill="#1F78B4" stroke="none" opacity="1"/><polyline fill="none" stroke="#1F78B4" stroke-width="2" points="102 88 122 88" opacity="1"/><rect width="20" height="10" x="102" y="98" fill="#1F78B4" stroke="none" opacity=".25"/></svg>