<svg xmlns="http://www.w3.org/2000/svg" width="450" height="300"><text x="15" y="130" fill="#000" dy=".76em" font-family="sans-serif" font-size="9.677" opacity="1" text-anchor="middle" transform="rotate(270, 15, 130)">Total sample time (ms)</text><text x="255" y="285" fill="#000" dy="-.5ex" font-family="sans-serif" font-size="9.677" opacity="1" text-anchor="middle">Iterations (x 10^3)</text><line x1="121" x2="121" y1="244" y2="14" stroke="#000" stroke-width="1" opacity=".2"/><line x1="172" x2="172" y1="244" y2="14" stroke="#000" stroke-width="1" opacity=".2"/><line x1="222" x2="222" y1="244" y2="14" stroke="#000" stroke-width="1" opacity=".2"/><line x1="273" x2="273" y1="244" y2="14" stroke="#000" stroke-width="1" opacity=".2"/><line x1="323" x2="323" y1="244" y2="14" stroke="#000" stroke-width="1" opacity=".2"/><line x1="374" x2="374" y1="244" y2="14" stroke="#000" stroke-width="1" opacity=".2"/><line x1="424" x2="424" y1="244" y2="14" stroke="#000" stroke-width="1" opacity=".2"/><line x1="75" x2="435" y1="201" y2="201" stroke="#000" stroke-width="1" opacity=".2"/><line x1="75" x2="435" y1="157" y2="157" stroke="#000" stroke-width="1" opacity=".2"/><line x1="75" x2="435" y1="113" y2="113" stroke="#000" stroke-width="1" opacity=".2"/><line x1="75" x2="435" y1="68" y2="68" stroke="#000" stroke-width="1" opacity=".2"/><line x1="75" x2="435" y1="24" y2="24" stroke="#000" stroke-width="1" opacity=".2"/><polyline fill="none" stroke="#000" stroke-width="1" points="74 15 74 245" opacity="1"/><text x="65" y="201" fill="#000" dy=".5ex" font-family="sans-serif" font-size="9.677" opacity="1" text-anchor="end">20.0</text><polyline fill="none" stroke="#000" stroke-width="1" points="69 201 74 201" opacity="1"/><text x="65" y="157" fill="#000" dy=".5ex" font-family="sans-serif" font-size="9.677" opacity="1" text-anchor="end">40.0</text><polyline fill="none" stroke="#000" stroke-width="1" points="69 157 74 157" opacity="1"/><text x="65" y="113" fill="#000" dy=".5ex" font-family="sans-serif" font-size="9.677" opacity="1" text-anchor="end">60.0</text><polyline fill="none" stroke="#000" stroke-width="1" points="69 113 74 113" opacity="1"/><text x="65" y="68" fill="#000" dy=".5ex" font-family="sans-serif" font-size="9.677" opacity="1" text-anchor="end">80.0</text><polyline fill="none" stroke="#000" stroke-width="1" points="69 68 74 68" opacity="1"/><text x="65" y="24" fill="#000" dy=".5ex" font-family="sans-serif" font-size="9.677" opacity="1" text-anchor="end">100.0</text><polyline fill="none" stroke="#000" stroke-width="1" points="69 24 74 24" opacity="1"/><polyline fill="none" stroke="#000" stroke-width="1" points="75 245 435 245" opacity="1"/><text x="121" y="255" fill="#000" dy=".76em" font-family="sans-serif" font-size="9.677" opacity="1" text-anchor="middle">0.5</text><polyline fill="none" stroke="#000" stroke-width="1" points="121 245 121 250" opacity="1"/><text x="172" y="255" fill="#000" dy=".76em" font-family="sans-serif" font-size="9.677" opacity="1" text-anchor="middle">1</text><polyline fill="none" stroke="#000" stroke-width="1" points="172 245 172 250" opacity="1"/><text x="222" y="255" fill="#000" dy=".76em" font-family="sans-serif" font-size="9.677" opacity="1" text-anchor="middle">1.5</text><polyline fill="none" stroke="#000" stroke-width="1" points="222 245 222 250" opacity="1"/><text x="273" y="255" fill="#000" dy=".76em" font-family="sans-serif" font-size="9.677" opacity="1" text-anchor="middle">2</text><polyline fill="none" stroke="#000" stroke-width="1" points="273 245 273 250" opacity="1"/><text x="323" y="255" fill="#000" dy=".76em" font-family="sans-serif" font-size="9.677" opacity="1" text-anchor="middle">2.5</text><polyline fill="none" stroke="#000" stroke-width="1" points="323 245 323 250" opacity="1"/><text x="374" y="255" fill="#000" dy=".76em" font-family="sans-serif" font-size="9.677" opacity="1" text-anchor="middle">3</text><polyline fill="none" stroke="#000" stroke-width="1" points="374 245 374 250" opacity="1"/><text x="424" y="255" fill="#000" dy=".76em" font-family="sans-serif" font-size="9.677" opacity="1" text-anchor="middle">3.5</text><polyline fill="none" stroke="#000" stroke-width="1" points="424 245 424 250" opacity="1"/><circle cx="75" cy="244" r="3" fill="#1F78B4" stroke="none" opacity="1"/><circle cx="78" cy="241" r="3" fill="#1F78B4" stroke="none" opacity="1"/><circle cx="82" cy="237" r="3" fill="#1F78B4" stroke="none" opacity="1"/><circle cx="85" cy="237" r="3" fill="#1F78B4" stroke="none" opacity="1"/><circle cx="89" cy="235" r="3" fill="#1F78B4" stroke="none" opacity="1"/><circle cx="93" cy="233" r="3" fill="#1F78B4" stroke="none" opacity="1"/><circle cx="96" cy="231" r="3" fill="#1F78B4" stroke="none" opacity="1"/><circle cx="100" cy="228" r="3" fill="#1F78B4" stroke="none" opacity="1"/><circle cx="104" cy="225" r="3" fill="#1F78B4" stroke="none" opacity="1"/><circle cx="107" cy="225" r="3" fill="#1F78B4" stroke="none" opacity="1"/><circle cx="111" cy="222" r="3" fill="#1F78B4" stroke="none" opacity="1"/><circle cx="115" cy="220" r="3" fill="#1F78B4" stroke="none" opacity="1"/><circle cx="118" cy="216" r="3" fill="#1F78B4" stroke="none" opacity="1"/><circle cx="122" cy="210" r="3" fill="#1F78B4" stroke="none" opacity="1"/><circle cx="125" cy="214" r="3" fill="#1F78B4" stroke="none" opacity="1"/><circle cx="129" cy="213" r="3" fill="#1F78B4" stroke="none" opacity="1"/><circle cx="133" cy="208" r="3" fill="#1F78B4" stroke="none" opacity="1"/><circle cx="136" cy="207" r="3" fill="#1F78B4" stroke="none" opacity="1"/><circle cx="140" cy="206" r="3" fill="#1F78B4" stroke="none" opacity="1"/><circle cx="144" cy="198" r="3" fill="#1F78B4" stroke="none" opacity="1"/><circle cx="147" cy="201" r="3" fill="#1F78B4" stroke="none" opacity="1"/><circle cx="151" cy="200" r="3" fill="#1F78B4" stroke="none" opacity="1"/><circle cx="155" cy="197" r="3" fill="#1F78B4" stroke="none" opacity="1"/><circle cx="158" cy="195" r="3" fill="#1F78B4" stroke="none" opacity="1"/><circle cx="162" cy="190" r="3" fill="#1F78B4" stroke="none" opacity="1"/><circle cx="165" cy="186" r="3" fill="#1F78B4" stroke="none" opacity="1"/><circle cx="169" cy="191" r="3" fill="#1F78B4" stroke="none" opacity="1"/><circle cx="173" cy="186" r="3" fill="#1F78B4" stroke="none" opacity="1"/><circle cx="176" cy="182" r="3" fill="#1F78B4" stroke="none" opacity="1"/><circle cx="180" cy="185" r="3" fill="#1F78B4" stroke="none" opacity="1"/><circle cx="184" cy="182" r="3" fill="#1F78B4" stroke="none" opacity="1"/><circle cx="187" cy="176" r="3" fill="#1F78B4" stroke="none" opacity="1"/><circle cx="191" cy="176" r="3" fill="#1F78B4" stroke="none" opacity="1"/><circle cx="195" cy="175" r="3" fill="#1F78B4" stroke="none" opacity="1"/><circle cx="198" cy="174" r="3" fill="#1F78B4" stroke="none" opacity="1"/><circle cx="202" cy="167" r="3" fill="#1F78B4" stroke="none" opacity="1"/><circle cx="205" cy="170" r="3" fill="#1F78B4" stroke="none" opacity="1"/><circle cx="209" cy="155" r="3" fill="#1F78B4" stroke="none" opacity="1"/><circle cx="213" cy="160" r="3" fill="#1F78B4" stroke="none" opacity="1"/><circle cx="216" cy="157" r="3" fill="#1F78B4" stroke="none" opacity="1"/><circle cx="220" cy="150" r="3" fill="#1F78B4" stroke="none" opacity="1"/><circle cx="224" cy="162" r="3" fill="#1F78B4" stroke="none" opacity="1"/><circle cx="227" cy="153" r="3" fill="#1F78B4" stroke="none" opacity="1"/><circle cx="231" cy="148" r="3" fill="#1F78B4" stroke="none" opacity="1"/><circle cx="235" cy="141" r="3" fill="#1F78B4" stroke="none" opacity="1"/><circle cx="238" cy="150" r="3" fill="#1F78B4" stroke="none" opacity="1"/><circle cx="242" cy="140" r="3" fill="#1F78B4" stroke="none" opacity="1"/><circle cx="245" cy="146" r="3" fill="#1F78B4" stroke="none" opacity="1"/><circle cx="249" cy="143" r="3" fill="#1F78B4" stroke="none" opacity="1"/><circle cx="253" cy="145" r="3" fill="#1F78B4" stroke="none" opacity="1"/><circle cx="256" cy="133" r="3" fill="#1F78B4" stroke="none" opacity="1"/><circle cx="260" cy="123" r="3" fill="#1F78B4" stroke="none" opacity="1"/><circle cx="264" cy="135" r="3" fill="#1F78B4" stroke="none" opacity="1"/><circle cx="267" cy="123" r="3" fill="#1F78B4" stroke="none" opacity="1"/><circle cx="271" cy="123" r="3" fill="#1F78B4" stroke="none" opacity="1"/><circle cx="275" cy="133" r="3" fill="#1F78B4" stroke="none" opacity="1"/><circle cx="278" cy="131" r="3" fill="#1F78B4" stroke="none" opacity="1"/><circle cx="282" cy="120" r="3" fill="#1F78B4" stroke="none" opacity="1"/><circle cx="285" cy="123" r="3" fill="#1F78B4" stroke="none" opacity="1"/><circle cx="289" cy="121" r="3" fill="#1F78B4" stroke="none" opacity="1"/><circle cx="293" cy="123" r="3" fill="#1F78B4" stroke="none" opacity="1"/><circle cx="296" cy="121" r="3" fill="#1F78B4" stroke="none" opacity="1"/><circle cx="300" cy="118" r="3" fill="#1F78B4" stroke="none" opacity="1"/><circle cx="304" cy="106" r="3" fill="#1F78B4" stroke="none" opacity="1"/><circle cx="307" cy="100" r="3" fill="#1F78B4" stroke="none" opacity="1"/><circle cx="311" cy="89" r="3" fill="#1F78B4" stroke="none" opacity="1"/><circle cx="315" cy="99" r="3" fill="#1F78B4" stroke="none" opacity="1"/><circle cx="318" cy="112" r="3" fill="#1F78B4" stroke="none" opacity="1"/><circle cx="322" cy="99" r="3" fill="#1F78B4" stroke="none" opacity="1"/><circle cx="325" cy="95" r="3" fill="#1F78B4" stroke="none" opacity="1"/><circle cx="329" cy="90" r="3" fill="#1F78B4" stroke="none" opacity="1"/><circle cx="333" cy="78" r="3" fill="#1F78B4" stroke="none" opacity="1"/><circle cx="336" cy="86" r="3" fill="#1F78B4" stroke="none" opacity="1"/><circle cx="340" cy="95" r="3" fill="#1F78B4" stroke="none" opacity="1"/><circle cx="344" cy="81" r="3" fill="#1F78B4" stroke="none" opacity="1"/><circle cx="347" cy="74" r="3" fill="#1F78B4" stroke="none" opacity="1"/><circle cx="351" cy="84" r="3" fill="#1F78B4" stroke="none" opacity="1"/><circle cx="355" cy="81" r="3" fill="#1F78B4" stroke="none" opacity="1"/><circle cx="358" cy="84" r="3" fill="#1F78B4" stroke="none" opacity="1"/><circle cx="362" cy="66" r="3" fill="#1F78B4" stroke="none" opacity="1"/><circle cx="365" cy="80" r="3" fill="#1F78B4" stroke="none" opacity="1"/><circle cx="369" cy="56" r="3" fill="#1F78B4" stroke="none" opacity="1"/><circle cx="373" cy="71" r="3" fill="#1F78B4" stroke="none" opacity="1"/><circle cx="376" cy="78" r="3" fill="#1F78B4" stroke="none" opacity="1"/><circle cx="380" cy="74" r="3" fill="#1F78B4" stroke="none" opacity="1"/><circle cx="384" cy="45" r="3" fill="#1F78B4" stroke="none" opacity="1"/><circle cx="387" cy="72" r="3" fill="#1F78B4" stroke="none" opacity="1"/><circle cx="391" cy="66" r="3" fill="#1F78B4" stroke="none" opacity="1"/><circle cx="395" cy="50" r="3" fill="#1F78B4" stroke="none" opacity="1"/><circle cx="398" cy="46" r="3" fill="#1F78B4" stroke="none" opacity="1"/><circle cx="402" cy="60" r="3" fill="#1F78B4" stroke="none" opacity="1"/><circle cx="405" cy="52" r="3" fill="#1F78B4" stroke="none" opacity="1"/><circle cx="409" cy="30" r="3" fill="#1F78B4" stroke="none" opacity="1"/><circle cx="413" cy="38" r="3" fill="#1F78B4" stroke="none" opacity="1"/><circle cx="416" cy="35" r="3" fill="#1F78B4" stroke="none" opacity="1"/><circle cx="420" cy="42" r="3" fill="#1F78B4" stroke="none" opacity="1"/><circle cx="424" cy="15" r="3" fill="#1F78B4" stroke="none" opacity="1"/><circle cx="427" cy="33" r="3" fill="#1F78B4" stroke="none" opacity="1"/><circle cx="431" cy="24" r="3" fill="#1F78B4" stroke="none" opacity="1"/><circle cx="435" cy="38" r="3" fill="#1F78B4" stroke="none" opacity="1"/><polyline fill="none" stroke="#1F78B4" stroke-width="1" points="75 245 435 30" opacity="1"/><polygon fill="#1F78B4" points="75 245 435 33 435 27" opacity=".25"/></svg>