<svg xmlns="http://www.w3.org/2000/svg" width="960" height="540"><text x="480" y="32" fill="#000" dy=".76em" font-family="sans-serif" font-size="16.129" opacity="1" text-anchor="middle">bench_group/blake3/1536:MAD</text><text x="27" y="263" fill="#000" dy=".76em" font-family="sans-serif" font-size="9.677" opacity="1" text-anchor="middle" transform="rotate(270, 27, 263)">Density (a.u.)</text><text x="510" y="513" fill="#000" dy="-.5ex" font-family="sans-serif" font-size="9.677" opacity="1" text-anchor="middle">Average time (ps)</text><polyline fill="none" stroke="#000" stroke-width="1" points="86 53 86 473" opacity="1"/><text x="77" y="409" fill="#000" dy=".5ex" font-family="sans-serif" font-size="9.677" opacity="1" text-anchor="end">0.002</text><polyline fill="none" stroke="#000" stroke-width="1" points="81 409 86 409" opacity="1"/><text x="77" y="328" fill="#000" dy=".5ex" font-family="sans-serif" font-size="9.677" opacity="1" text-anchor="end">0.004</text><polyline fill="none" stroke="#000" stroke-width="1" points="81 328 86 328" opacity="1"/><text x="77" y="246" fill="#000" dy=".5ex" font-family="sans-serif" font-size="9.677" opacity="1" text-anchor="end">0.006</text><polyline fill="none" stroke="#000" stroke-width="1" points="81 246 86 246" opacity="1"/><text x="77" y="165" fill="#000" dy=".5ex" font-family="sans-serif" font-size="9.677" opacity="1" text-anchor="end">0.008</text><polyline fill="none" stroke="#000" stroke-width="1" points="81 165 86 165" opacity="1"/><text x="77" y="84" fill="#000" dy=".5ex" font-family="sans-serif" font-size="9.677" opacity="1" text-anchor="end">0.01</text><polyline fill="none" stroke="#000" stroke-width="1" points="81 84 86 84" opacity="1"/><polyline fill="none" stroke="#000" stroke-width="1" points="87 473 933 473" opacity="1"/><text x="142" y="483" fill="#000" dy=".76em" font-family="sans-serif" font-size="9.677" opacity="1" text-anchor="middle">80</text><polyline fill="none" stroke="#000" stroke-width="1" points="142 473 142 478" opacity="1"/><text x="236" y="483" fill="#000" dy=".76em" font-family="sans-serif" font-size="9.677" opacity="1" text-anchor="middle">100</text><polyline fill="none" stroke="#000" stroke-width="1" points="236 473 236 478" opacity="1"/><text x="330" y="483" fill="#000" dy=".76em" font-family="sans-serif" font-size="9.677" opacity="1" text-anchor="middle">120</text><polyline fill="none" stroke="#000" stroke-width="1" points="330 473 330 478" opacity="1"/><text x="424" y="483" fill="#000" dy=".76em" font-family="sans-serif" font-size="9.677" opacity="1" text-anchor="middle">140</text><polyline fill="none" stroke="#000" stroke-width="1" points="424 473 424 478" opacity="1"/><text x="517" y="483" fill="#000" dy=".76em" font-family="sans-serif" font-size="9.677" opacity="1" text-anchor="middle">160</text><polyline fill="none" stroke="#000" stroke-width="1" points="517 473 517 478" opacity="1"/><text x="611" y="483" fill="#000" dy=".76em" font-family="sans-serif" font-size="9.677" opacity="1" text-anchor="middle">180</text><polyline fill="none" stroke="#000" stroke-width="1" points="611 473 611 478" opacity="1"/><text x="705" y="483" fill="#000" dy=".76em" font-family="sans-serif" font-size="9.677" opacity="1" text-anchor="middle">200</text><polyline fill="none" stroke="#000" stroke-width="1" points="705 473 705 478" opacity="1"/><text x="799" y="483" fill="#000" dy=".76em" font-family="sans-serif" font-size="9.677" opacity="1" text-anchor="middle">220</text><polyline fill="none" stroke="#000" stroke-width="1" points="799 473 799 478" opacity="1"/><text x="892" y="483" fill="#000" dy=".76em" font-family="sans-serif" font-size="9.677" opacity="1" text-anchor="middle">240</text><polyline fill="none" stroke="#000" stroke-width="1" points="892 473 892 478" opacity="1"/><polyline fill="none" stroke="#1F78B4" stroke-width="1" points="87 463 88 462 90 461 92 460 93 459 95 457 97 456 98 455 100 454 102 452 103 451 105 450 107 448 109 447 110 445 112 444 114 443 115 441 117 440 119 438 120 437 122 435 124 434 125 432 127 431 129 429 131 428 132 426 134 425 136 423 137 422 139 420 141 419 142 417 144 416 146 414 148 412 149 410 151 409 153 407 154 405 156 403 158 401 159 399 161 397 163 395 164 393 166 390 168 388 170 386 171 384 173 381 175 379 176 377 178 375 180 373 181 371 183 369 185 367 187 365 188 363 190 362 192 360 193 359 195 357 197 356 198 355 200 354 202 352 203 351 205 350 207 349 209 348 210 347 212 346 214 345 215 344 217 342 219 341 220 340 222 339 224 337 226 336 227 334 229 333 231 331 232 329 234 328 236 326 237 324 239 322 241 320 242 318 244 315 246 313 248 310 249 308 251 305 253 302 254 299 256 296 258 293 259 290 261 287 263 284 265 281 266 277 268 274 270 271 271 268 273 265 275 262 276 259 278 257 280 254 281 252 283 249 285 247 287 245 288 242 290 240 292 238 293 236 295 233 297 231 298 228 300 225 302 222 304 219 305 216 307 213 309 209 310 205 312 201 314 197 315 193 317 189 319 185 320 181 322 177 324 173 326 169 327 165 329 161 331 157 332 154 334 150 336 147 337 143 339 140 341 137 343 134 344 131 346 128 348 126 349 124 351 121 353 120 354 118 356 117 358 116 359 115 361 115 363 115 365 115 366 116 368 117 370 118 371 119 373 121 375 123 376 124 378 126 380 128 381 130 383 132 385 134 387 136 388 137 390 139 392 140 393 142 395 143 397 144 398 146 400 147 402 149 404 150 405 151 407 153 409 155 410 156 412 158 414 160 415 161 417 163 419 165 420 166 422 168 424 169 426 170 427 171 429 172 431 173 432 173 434 174 436 174 437 174 439 174 441 173 443 173 444 173 446 172 448 172 449 172 451 172 453 172 454 172 456 173 458 173 459 174 461 175 463 176 465 177 466 177 468 178 470 179 471 179 473 180 475 180 476 180 478 179 480 178 482 177 483 176 485 175 487 173 488 171 490 169 492 167 493 164 495 162 497 160 498 158 500 156 502 154 504 153 505 151 507 150 509 149 510 149 512 148 514 148 515 147 517 147 519 147 521 147 522 147 524 147 526 146 527 146 529 145 531 144 532 143 534 142 536 141 537 139 539 137 541 135 543 134 544 132 546 130 548 128 549 126 551 124 553 122 554 120 556 119 558 118 560 116 561 115 563 114 565 113 566 112 568 111 570 110 571 109 573 108 575 106 576 105 578 104 580 102 582 101 583 99 585 98 587 96 588 95 590 94 592 93 593 92 595 91 597 91 599 92 600 93 602 94 604 96 605 99 607 102 609 105 610 109 612 114 614 119 615 124 617 129 619 135 621 141 622 146 624 152 626 157 627 163 629 167 631 172 632 176 634 179 636 182 638 185 639 187 641 188 643 189 644 190 646 190 648 189 649 189 651 188 653 188 654 187 656 186 658 186 660 186 661 186 663 186 665 187 666 189 668 190 670 193 671 196 673 199 675 203 676 207 678 211 680 216 682 221 683 226 685 230 687 235 688 239 690 243 692 247 693 250 695 253 697 255 699 257 700 258 702 258 704 258 705 257 707 256 709 255 710 253 712 250 714 248 715 245 717 243 719 240 721 238 722 236 724 234 726 233 727 232 729 232 731 233 732 234 734 235 736 238 738 241 739 244 741 248 743 253 744 258 746 264 748 270 749 276 751 283 753 290 754 297 756 303 758 310 760 317 761 323 763 330 765 336 766 341 768 347 770 352 771 356 773 360 775 364 777 368 778 371 780 373 782 376 783 378 785 380 787 381 788 383 790 384 792 385 793 386 795 387 797 388 799 389 800 390 802 391 804 392 805 394 807 395 809 396 810 398 812 399 814 401 816 403 817 405 819 406 821 408 822 410 824 412 826 414 827 416 829 418 831 419 832 421 834 422 836 424 838 425 839 427 841 428 843 429 844 430 846 431 848 432 849 433 851 434 853 435 855 436 856 437 858 438 860 439 861 440 863 442 865 443 866 444 868 445 870 446 871 448 873 449 875 450 877 451 878 452 880 454 882 455 883 456 885 456 887 457 888 458 890 459 892 460 894 460 895 461 897 461 899 462 900 462 902 463 904 463 905 464 907 464 909 465 910 465 912 466 914 466 916 466 917 467 919 467 921 468 922 468 924 469 926 469 927 470 929 471 931 471 933 472" opacity="1"/><polygon fill="#1F78B4" points="164 393 166 390 168 388 170 386 171 384 173 381 175 379 176 377 178 375 180 373 181 371 183 369 185 367 187 365 188 363 190 362 192 360 193 359 195 357 197 356 198 355 200 354 202 352 203 351 205 350 207 349 209 348 210 347 212 346 214 345 215 344 217 342 219 341 220 340 222 339 224 337 226 336 227 334 229 333 231 331 232 329 234 328 236 326 237 324 239 322 241 320 242 318 244 315 246 313 248 310 249 308 251 305 253 302 254 299 256 296 258 293 259 290 261 287 263 284 265 281 266 277 268 274 270 271 271 268 273 265 275 262 276 259 278 257 280 254 281 252 283 249 285 247 287 245 288 242 290 240 292 238 293 236 295 233 297 231 298 228 300 225 302 222 304 219 305 216 307 213 309 209 310 205 312 201 314 197 315 193 317 189 319 185 320 181 322 177 324 173 326 169 327 165 329 161 331 157 332 154 334 150 336 147 337 143 339 140 341 137 343 134 344 131 346 128 348 126 349 124 351 121 353 120 354 118 356 117 358 116 359 115 361 115 363 115 365 115 366 116 368 117 370 118 371 119 373 121 375 123 376 124 378 126 380 128 381 130 383 132 385 134 387 136 388 137 390 139 392 140 393 142 395 143 397 144 398 146 400 147 402 149 404 150 405 151 407 153 409 155 410 156 412 158 414 160 415 161 417 163 419 165 420 166 422 168 424 169 426 170 427 171 429 172 431 173 432 173 434 174 436 174 437 174 439 174 441 173 443 173 444 173 446 172 448 172 449 172 451 172 453 172 454 172 456 173 458 173 459 174 461 175 463 176 465 177 466 177 468 178 470 179 471 179 473 180 475 180 476 180 478 179 480 178 482 177 483 176 485 175 487 173 488 171 490 169 492 167 493 164 495 162 497 160 498 158 500 156 502 154 504 153 505 151 507 150 509 149 510 149 512 148 514 148 515 147 517 147 519 147 521 147 522 147 524 147 526 146 527 146 529 145 531 144 532 143 534 142 536 141 537 139 539 137 541 135 543 134 544 132 546 130 548 128 549 126 551 124 553 122 554 120 556 119 558 118 560 116 561 115 563 114 565 113 566 112 568 111 570 110 571 109 573 108 575 106 576 105 578 104 580 102 582 101 583 99 585 98 587 96 588 95 590 94 592 93 593 92 595 91 597 91 599 92 600 93 602 94 604 96 605 99 607 102 609 105 610 109 612 114 614 119 615 124 617 129 619 135 621 141 622 146 624 152 626 157 627 163 629 167 631 172 632 176 634 179 636 182 638 185 639 187 641 188 643 189 644 190 646 190 648 189 649 189 651 188 653 188 654 187 656 186 658 186 660 186 661 186 663 186 665 187 666 189 668 190 670 193 671 196 673 199 675 203 676 207 678 211 680 216 682 221 683 226 685 230 687 235 688 239 690 243 692 247 693 250 695 253 697 255 699 257 700 258 702 258 704 258 705 257 707 256 709 255 710 253 712 250 714 248 715 245 717 243 719 240 721 238 722 236 724 234 726 233 727 232 729 232 731 233 732 234 734 235 736 238 738 241 739 244 741 248 743 253 744 258 746 264 748 270 749 276 751 283 753 290 754 297 756 303 758 310 760 317 761 323 763 330 765 336 766 341 768 347 770 352 771 356 773 360 775 364 777 368 778 371 780 373 782 376 783 378 785 380 787 381 788 383 790 384 792 385 793 386 795 387 797 388 799 389 800 390 802 391 804 392 805 394 807 395 809 396 810 398 812 399 814 401 816 403 817 405 819 406 821 408 822 410 824 412 826 414 827 416 829 418 831 419 832 421 834 422 836 424 838 425 839 427 841 428 843 429 844 430 846 431 848 432 849 433 851 434 853 435 853 473 164 473" opacity=".25"/><polyline fill="none" stroke="#1F78B4" stroke-width="3" points="520 473 520 147" opacity="1"/><text x="798" y="68" fill="#000" dy=".76em" font-family="sans-serif" font-size="9.677" opacity="1" text-anchor="start">Bootstrap distribution</text><text x="798" y="83" fill="#000" dy=".76em" font-family="sans-serif" font-size="9.677" opacity="1" text-anchor="start">Confidence interval</text><text x="798" y="98" fill="#000" dy=".76em" font-family="sans-serif" font-size="9.677" opacity="1" text-anchor="start">Point estimate</text><polyline fill="none" stroke="#1F78B4" stroke-width="1" points="768 73 788 73" opacity="1"/><rect width="20" height="10" x="768" y="83" fill="#1F78B4" stroke="none" opacity=".25"/><polyline fill="none" stroke="#1F78B4" stroke-width="1" points="768 103 788 103" opacity="1"/></svg>