<svg xmlns="http://www.w3.org/2000/svg" width="450" height="300"><text x="15" y="130" fill="#000" dy=".76em" font-family="sans-serif" font-size="9.677" opacity="1" text-anchor="middle" transform="rotate(270, 15, 130)">Total sample time (ms)</text><text x="255" y="285" fill="#000" dy="-.5ex" font-family="sans-serif" font-size="9.677" opacity="1" text-anchor="middle">Iterations</text><line x1="107" x2="107" y1="244" y2="14" stroke="#000" stroke-width="1" opacity=".2"/><line x1="144" x2="144" y1="244" y2="14" stroke="#000" stroke-width="1" opacity=".2"/><line x1="180" x2="180" y1="244" y2="14" stroke="#000" stroke-width="1" opacity=".2"/><line x1="216" x2="216" y1="244" y2="14" stroke="#000" stroke-width="1" opacity=".2"/><line x1="253" x2="253" y1="244" y2="14" stroke="#000" stroke-width="1" opacity=".2"/><line x1="289" x2="289" y1="244" y2="14" stroke="#000" stroke-width="1" opacity=".2"/><line x1="325" x2="325" y1="244" y2="14" stroke="#000" stroke-width="1" opacity=".2"/><line x1="362" x2="362" y1="244" y2="14" stroke="#000" stroke-width="1" opacity=".2"/><line x1="398" x2="398" y1="244" y2="14" stroke="#000" stroke-width="1" opacity=".2"/><line x1="435" x2="435" y1="244" y2="14" stroke="#000" stroke-width="1" opacity=".2"/><line x1="75" x2="435" y1="204" y2="204" stroke="#000" stroke-width="1" opacity=".2"/><line x1="75" x2="435" y1="161" y2="161" stroke="#000" stroke-width="1" opacity=".2"/><line x1="75" x2="435" y1="119" y2="119" stroke="#000" stroke-width="1" opacity=".2"/><line x1="75" x2="435" y1="76" y2="76" stroke="#000" stroke-width="1" opacity=".2"/><line x1="75" x2="435" y1="34" y2="34" stroke="#000" stroke-width="1" opacity=".2"/><polyline fill="none" stroke="#000" stroke-width="1" points="74 15 74 245" opacity="1"/><text x="65" y="204" fill="#000" dy=".5ex" font-family="sans-serif" font-size="9.677" opacity="1" text-anchor="end">50.0</text><polyline fill="none" stroke="#000" stroke-width="1" points="69 204 74 204" opacity="1"/><text x="65" y="161" fill="#000" dy=".5ex" font-family="sans-serif" font-size="9.677" opacity="1" text-anchor="end">100.0</text><polyline fill="none" stroke="#000" stroke-width="1" points="69 161 74 161" opacity="1"/><text x="65" y="119" fill="#000" dy=".5ex" font-family="sans-serif" font-size="9.677" opacity="1" text-anchor="end">150.0</text><polyline fill="none" stroke="#000" stroke-width="1" points="69 119 74 119" opacity="1"/><text x="65" y="76" fill="#000" dy=".5ex" font-family="sans-serif" font-size="9.677" opacity="1" text-anchor="end">200.0</text><polyline fill="none" stroke="#000" stroke-width="1" points="69 76 74 76" opacity="1"/><text x="65" y="34" fill="#000" dy=".5ex" font-family="sans-serif" font-size="9.677" opacity="1" text-anchor="end">250.0</text><polyline fill="none" stroke="#000" stroke-width="1" points="69 34 74 34" opacity="1"/><polyline fill="none" stroke="#000" stroke-width="1" points="75 245 435 245" opacity="1"/><text x="107" y="255" fill="#000" dy=".76em" font-family="sans-serif" font-size="9.677" opacity="1" text-anchor="middle">10</text><polyline fill="none" stroke="#000" stroke-width="1" points="107 245 107 250" opacity="1"/><text x="144" y="255" fill="#000" dy=".76em" font-family="sans-serif" font-size="9.677" opacity="1" text-anchor="middle">20</text><polyline fill="none" stroke="#000" stroke-width="1" points="144 245 144 250" opacity="1"/><text x="180" y="255" fill="#000" dy=".76em" font-family="sans-serif" font-size="9.677" opacity="1" text-anchor="middle">30</text><polyline fill="none" stroke="#000" stroke-width="1" points="180 245 180 250" opacity="1"/><text x="216" y="255" fill="#000" dy=".76em" font-family="sans-serif" font-size="9.677" opacity="1" text-anchor="middle">40</text><polyline fill="none" stroke="#000" stroke-width="1" points="216 245 216 250" opacity="1"/><text x="253" y="255" fill="#000" dy=".76em" font-family="sans-serif" font-size="9.677" opacity="1" text-anchor="middle">50</text><polyline fill="none" stroke="#000" stroke-width="1" points="253 245 253 250" opacity="1"/><text x="289" y="255" fill="#000" dy=".76em" font-family="sans-serif" font-size="9.677" opacity="1" text-anchor="middle">60</text><polyline fill="none" stroke="#000" stroke-width="1" points="289 245 289 250" opacity="1"/><text x="325" y="255" fill="#000" dy=".76em" font-family="sans-serif" font-size="9.677" opacity="1" text-anchor="middle">70</text><polyline fill="none" stroke="#000" stroke-width="1" points="325 245 325 250" opacity="1"/><text x="362" y="255" fill="#000" dy=".76em" font-family="sans-serif" font-size="9.677" opacity="1" text-anchor="middle">80</text><polyline fill="none" stroke="#000" stroke-width="1" points="362 245 362 250" opacity="1"/><text x="398" y="255" fill="#000" dy=".76em" font-family="sans-serif" font-size="9.677" opacity="1" text-anchor="middle">90</text><polyline fill="none" stroke="#000" stroke-width="1" points="398 245 398 250" opacity="1"/><text x="435" y="255" fill="#000" dy=".76em" font-family="sans-serif" font-size="9.677" opacity="1" text-anchor="middle">100</text><polyline fill="none" stroke="#000" stroke-width="1" points="435 245 435 250" opacity="1"/><circle cx="75" cy="244" r="3" fill="#1F78B4" stroke="none" opacity="1"/><circle cx="78" cy="241" r="3" fill="#1F78B4" stroke="none" opacity="1"/><circle cx="82" cy="239" r="3" fill="#1F78B4" stroke="none" opacity="1"/><circle cx="85" cy="236" r="3" fill="#1F78B4" stroke="none" opacity="1"/><circle cx="89" cy="234" r="3" fill="#1F78B4" stroke="none" opacity="1"/><circle cx="93" cy="232" r="3" fill="#1F78B4" stroke="none" opacity="1"/><circle cx="96" cy="230" r="3" fill="#1F78B4" stroke="none" opacity="1"/><circle cx="100" cy="227" r="3" fill="#1F78B4" stroke="none" opacity="1"/><circle cx="104" cy="225" r="3" fill="#1F78B4" stroke="none" opacity="1"/><circle cx="107" cy="222" r="3" fill="#1F78B4" stroke="none" opacity="1"/><circle cx="111" cy="220" r="3" fill="#1F78B4" stroke="none" opacity="1"/><circle cx="115" cy="218" r="3" fill="#1F78B4" stroke="none" opacity="1"/><circle cx="118" cy="215" r="3" fill="#1F78B4" stroke="none" opacity="1"/><circle cx="122" cy="213" r="3" fill="#1F78B4" stroke="none" opacity="1"/><circle cx="125" cy="211" r="3" fill="#1F78B4" stroke="none" opacity="1"/><circle cx="129" cy="208" r="3" fill="#1F78B4" stroke="none" opacity="1"/><circle cx="133" cy="206" r="3" fill="#1F78B4" stroke="none" opacity="1"/><circle cx="136" cy="204" r="3" fill="#1F78B4" stroke="none" opacity="1"/><circle cx="140" cy="201" r="3" fill="#1F78B4" stroke="none" opacity="1"/><circle cx="144" cy="198" r="3" fill="#1F78B4" stroke="none" opacity="1"/><circle cx="147" cy="197" r="3" fill="#1F78B4" stroke="none" opacity="1"/><circle cx="151" cy="194" r="3" fill="#1F78B4" stroke="none" opacity="1"/><circle cx="155" cy="192" r="3" fill="#1F78B4" stroke="none" opacity="1"/><circle cx="158" cy="190" r="3" fill="#1F78B4" stroke="none" opacity="1"/><circle cx="162" cy="187" r="3" fill="#1F78B4" stroke="none" opacity="1"/><circle cx="165" cy="183" r="3" fill="#1F78B4" stroke="none" opacity="1"/><circle cx="169" cy="183" r="3" fill="#1F78B4" stroke="none" opacity="1"/><circle cx="173" cy="181" r="3" fill="#1F78B4" stroke="none" opacity="1"/><circle cx="176" cy="178" r="3" fill="#1F78B4" stroke="none" opacity="1"/><circle cx="180" cy="176" r="3" fill="#1F78B4" stroke="none" opacity="1"/><circle cx="184" cy="175" r="3" fill="#1F78B4" stroke="none" opacity="1"/><circle cx="187" cy="171" r="3" fill="#1F78B4" stroke="none" opacity="1"/><circle cx="191" cy="169" r="3" fill="#1F78B4" stroke="none" opacity="1"/><circle cx="195" cy="166" r="3" fill="#1F78B4" stroke="none" opacity="1"/><circle cx="198" cy="164" r="3" fill="#1F78B4" stroke="none" opacity="1"/><circle cx="202" cy="163" r="3" fill="#1F78B4" stroke="none" opacity="1"/><circle cx="205" cy="159" r="3" fill="#1F78B4" stroke="none" opacity="1"/><circle cx="209" cy="157" r="3" fill="#1F78B4" stroke="none" opacity="1"/><circle cx="213" cy="155" r="3" fill="#1F78B4" stroke="none" opacity="1"/><circle cx="216" cy="153" r="3" fill="#1F78B4" stroke="none" opacity="1"/><circle cx="220" cy="150" r="3" fill="#1F78B4" stroke="none" opacity="1"/><circle cx="224" cy="147" r="3" fill="#1F78B4" stroke="none" opacity="1"/><circle cx="227" cy="145" r="3" fill="#1F78B4" stroke="none" opacity="1"/><circle cx="231" cy="143" r="3" fill="#1F78B4" stroke="none" opacity="1"/><circle cx="235" cy="141" r="3" fill="#1F78B4" stroke="none" opacity="1"/><circle cx="238" cy="139" r="3" fill="#1F78B4" stroke="none" opacity="1"/><circle cx="242" cy="137" r="3" fill="#1F78B4" stroke="none" opacity="1"/><circle cx="245" cy="134" r="3" fill="#1F78B4" stroke="none" opacity="1"/><circle cx="249" cy="132" r="3" fill="#1F78B4" stroke="none" opacity="1"/><circle cx="253" cy="128" r="3" fill="#1F78B4" stroke="none" opacity="1"/><circle cx="256" cy="127" r="3" fill="#1F78B4" stroke="none" opacity="1"/><circle cx="260" cy="124" r="3" fill="#1F78B4" stroke="none" opacity="1"/><circle cx="264" cy="120" r="3" fill="#1F78B4" stroke="none" opacity="1"/><circle cx="267" cy="119" r="3" fill="#1F78B4" stroke="none" opacity="1"/><circle cx="271" cy="117" r="3" fill="#1F78B4" stroke="none" opacity="1"/><circle cx="275" cy="113" r="3" fill="#1F78B4" stroke="none" opacity="1"/><circle cx="278" cy="113" r="3" fill="#1F78B4" stroke="none" opacity="1"/><circle cx="282" cy="110" r="3" fill="#1F78B4" stroke="none" opacity="1"/><circle cx="285" cy="106" r="3" fill="#1F78B4" stroke="none" opacity="1"/><circle cx="289" cy="106" r="3" fill="#1F78B4" stroke="none" opacity="1"/><circle cx="293" cy="103" r="3" fill="#1F78B4" stroke="none" opacity="1"/><circle cx="296" cy="101" r="3" fill="#1F78B4" stroke="none" opacity="1"/><circle cx="300" cy="99" r="3" fill="#1F78B4" stroke="none" opacity="1"/><circle cx="304" cy="96" r="3" fill="#1F78B4" stroke="none" opacity="1"/><circle cx="307" cy="94" r="3" fill="#1F78B4" stroke="none" opacity="1"/><circle cx="311" cy="91" r="3" fill="#1F78B4" stroke="none" opacity="1"/><circle cx="315" cy="90" r="3" fill="#1F78B4" stroke="none" opacity="1"/><circle cx="318" cy="88" r="3" fill="#1F78B4" stroke="none" opacity="1"/><circle cx="322" cy="87" r="3" fill="#1F78B4" stroke="none" opacity="1"/><circle cx="325" cy="83" r="3" fill="#1F78B4" stroke="none" opacity="1"/><circle cx="329" cy="81" r="3" fill="#1F78B4" stroke="none" opacity="1"/><circle cx="333" cy="78" r="3" fill="#1F78B4" stroke="none" opacity="1"/><circle cx="336" cy="76" r="3" fill="#1F78B4" stroke="none" opacity="1"/><circle cx="340" cy="74" r="3" fill="#1F78B4" stroke="none" opacity="1"/><circle cx="344" cy="70" r="3" fill="#1F78B4" stroke="none" opacity="1"/><circle cx="347" cy="69" r="3" fill="#1F78B4" stroke="none" opacity="1"/><circle cx="351" cy="66" r="3" fill="#1F78B4" stroke="none" opacity="1"/><circle cx="355" cy="64" r="3" fill="#1F78B4" stroke="none" opacity="1"/><circle cx="358" cy="62" r="3" fill="#1F78B4" stroke="none" opacity="1"/><circle cx="362" cy="59" r="3" fill="#1F78B4" stroke="none" opacity="1"/><circle cx="365" cy="62" r="3" fill="#1F78B4" stroke="none" opacity="1"/><circle cx="369" cy="55" r="3" fill="#1F78B4" stroke="none" opacity="1"/><circle cx="373" cy="53" r="3" fill="#1F78B4" stroke="none" opacity="1"/><circle cx="376" cy="55" r="3" fill="#1F78B4" stroke="none" opacity="1"/><circle cx="380" cy="48" r="3" fill="#1F78B4" stroke="none" opacity="1"/><circle cx="384" cy="45" r="3" fill="#1F78B4" stroke="none" opacity="1"/><circle cx="387" cy="47" r="3" fill="#1F78B4" stroke="none" opacity="1"/><circle cx="391" cy="41" r="3" fill="#1F78B4" stroke="none" opacity="1"/><circle cx="395" cy="38" r="3" fill="#1F78B4" stroke="none" opacity="1"/><circle cx="398" cy="36" r="3" fill="#1F78B4" stroke="none" opacity="1"/><circle cx="402" cy="33" r="3" fill="#1F78B4" stroke="none" opacity="1"/><circle cx="405" cy="32" r="3" fill="#1F78B4" stroke="none" opacity="1"/><circle cx="409" cy="28" r="3" fill="#1F78B4" stroke="none" opacity="1"/><circle cx="413" cy="24" r="3" fill="#1F78B4" stroke="none" opacity="1"/><circle cx="416" cy="24" r="3" fill="#1F78B4" stroke="none" opacity="1"/><circle cx="420" cy="22" r="3" fill="#1F78B4" stroke="none" opacity="1"/><circle cx="424" cy="20" r="3" fill="#1F78B4" stroke="none" opacity="1"/><circle cx="427" cy="18" r="3" fill="#1F78B4" stroke="none" opacity="1"/><circle cx="431" cy="15" r="3" fill="#1F78B4" stroke="none" opacity="1"/><circle cx="435" cy="15" r="3" fill="#1F78B4" stroke="none" opacity="1"/><polyline fill="none" stroke="#1F78B4" stroke-width="1" points="75 245 435 15" opacity="1"/><polygon fill="#1F78B4" points="75 245 435 15 435 15" opacity=".25"/></svg>