<svg xmlns="http://www.w3.org/2000/svg" width="450" height="300"><text x="15" y="130" fill="#000" dy=".76em" font-family="sans-serif" font-size="9.677" opacity="1" text-anchor="middle" transform="rotate(270, 15, 130)">Total sample time (ms)</text><text x="255" y="285" fill="#000" dy="-.5ex" font-family="sans-serif" font-size="9.677" opacity="1" text-anchor="middle">Iterations (x 10^3)</text><line x1="119" x2="119" y1="244" y2="14" stroke="#000" stroke-width="1" opacity=".2"/><line x1="168" x2="168" y1="244" y2="14" stroke="#000" stroke-width="1" opacity=".2"/><line x1="216" x2="216" y1="244" y2="14" stroke="#000" stroke-width="1" opacity=".2"/><line x1="265" x2="265" y1="244" y2="14" stroke="#000" stroke-width="1" opacity=".2"/><line x1="313" x2="313" y1="244" y2="14" stroke="#000" stroke-width="1" opacity=".2"/><line x1="362" x2="362" y1="244" y2="14" stroke="#000" stroke-width="1" opacity=".2"/><line x1="410" x2="410" y1="244" y2="14" stroke="#000" stroke-width="1" opacity=".2"/><line x1="75" x2="435" y1="202" y2="202" stroke="#000" stroke-width="1" opacity=".2"/><line x1="75" x2="435" y1="157" y2="157" stroke="#000" stroke-width="1" opacity=".2"/><line x1="75" x2="435" y1="113" y2="113" stroke="#000" stroke-width="1" opacity=".2"/><line x1="75" x2="435" y1="68" y2="68" stroke="#000" stroke-width="1" opacity=".2"/><line x1="75" x2="435" y1="24" y2="24" stroke="#000" stroke-width="1" opacity=".2"/><polyline fill="none" stroke="#000" stroke-width="1" points="74 15 74 245" opacity="1"/><text x="65" y="202" fill="#000" dy=".5ex" font-family="sans-serif" font-size="9.677" opacity="1" text-anchor="end">20.0</text><polyline fill="none" stroke="#000" stroke-width="1" points="69 202 74 202" opacity="1"/><text x="65" y="157" fill="#000" dy=".5ex" font-family="sans-serif" font-size="9.677" opacity="1" text-anchor="end">40.0</text><polyline fill="none" stroke="#000" stroke-width="1" points="69 157 74 157" opacity="1"/><text x="65" y="113" fill="#000" dy=".5ex" font-family="sans-serif" font-size="9.677" opacity="1" text-anchor="end">60.0</text><polyline fill="none" stroke="#000" stroke-width="1" points="69 113 74 113" opacity="1"/><text x="65" y="68" fill="#000" dy=".5ex" font-family="sans-serif" font-size="9.677" opacity="1" text-anchor="end">80.0</text><polyline fill="none" stroke="#000" stroke-width="1" points="69 68 74 68" opacity="1"/><text x="65" y="24" fill="#000" dy=".5ex" font-family="sans-serif" font-size="9.677" opacity="1" text-anchor="end">100.0</text><polyline fill="none" stroke="#000" stroke-width="1" points="69 24 74 24" opacity="1"/><polyline fill="none" stroke="#000" stroke-width="1" points="75 245 435 245" opacity="1"/><text x="119" y="255" fill="#000" dy=".76em" font-family="sans-serif" font-size="9.677" opacity="1" text-anchor="middle">0.2</text><polyline fill="none" stroke="#000" stroke-width="1" points="119 245 119 250" opacity="1"/><text x="168" y="255" fill="#000" dy=".76em" font-family="sans-serif" font-size="9.677" opacity="1" text-anchor="middle">0.4</text><polyline fill="none" stroke="#000" stroke-width="1" points="168 245 168 250" opacity="1"/><text x="216" y="255" fill="#000" dy=".76em" font-family="sans-serif" font-size="9.677" opacity="1" text-anchor="middle">0.6</text><polyline fill="none" stroke="#000" stroke-width="1" points="216 245 216 250" opacity="1"/><text x="265" y="255" fill="#000" dy=".76em" font-family="sans-serif" font-size="9.677" opacity="1" text-anchor="middle">0.8</text><polyline fill="none" stroke="#000" stroke-width="1" points="265 245 265 250" opacity="1"/><text x="313" y="255" fill="#000" dy=".76em" font-family="sans-serif" font-size="9.677" opacity="1" text-anchor="middle">1</text><polyline fill="none" stroke="#000" stroke-width="1" points="313 245 313 250" opacity="1"/><text x="362" y="255" fill="#000" dy=".76em" font-family="sans-serif" font-size="9.677" opacity="1" text-anchor="middle">1.2</text><polyline fill="none" stroke="#000" stroke-width="1" points="362 245 362 250" opacity="1"/><text x="410" y="255" fill="#000" dy=".76em" font-family="sans-serif" font-size="9.677" opacity="1" text-anchor="middle">1.4</text><polyline fill="none" stroke="#000" stroke-width="1" points="410 245 410 250" opacity="1"/><circle cx="75" cy="244" r="3" fill="#1F78B4" stroke="none" opacity="1"/><circle cx="78" cy="241" r="3" fill="#1F78B4" stroke="none" opacity="1"/><circle cx="82" cy="239" r="3" fill="#1F78B4" stroke="none" opacity="1"/><circle cx="85" cy="237" r="3" fill="#1F78B4" stroke="none" opacity="1"/><circle cx="89" cy="234" r="3" fill="#1F78B4" stroke="none" opacity="1"/><circle cx="93" cy="231" r="3" fill="#1F78B4" stroke="none" opacity="1"/><circle cx="96" cy="229" r="3" fill="#1F78B4" stroke="none" opacity="1"/><circle cx="100" cy="227" r="3" fill="#1F78B4" stroke="none" opacity="1"/><circle cx="104" cy="225" r="3" fill="#1F78B4" stroke="none" opacity="1"/><circle cx="107" cy="222" r="3" fill="#1F78B4" stroke="none" opacity="1"/><circle cx="111" cy="221" r="3" fill="#1F78B4" stroke="none" opacity="1"/><circle cx="115" cy="217" r="3" fill="#1F78B4" stroke="none" opacity="1"/><circle cx="118" cy="216" r="3" fill="#1F78B4" stroke="none" opacity="1"/><circle cx="122" cy="213" r="3" fill="#1F78B4" stroke="none" opacity="1"/><circle cx="125" cy="211" r="3" fill="#1F78B4" stroke="none" opacity="1"/><circle cx="129" cy="209" r="3" fill="#1F78B4" stroke="none" opacity="1"/><circle cx="133" cy="205" r="3" fill="#1F78B4" stroke="none" opacity="1"/><circle cx="136" cy="204" r="3" fill="#1F78B4" stroke="none" opacity="1"/><circle cx="140" cy="201" r="3" fill="#1F78B4" stroke="none" opacity="1"/><circle cx="144" cy="200" r="3" fill="#1F78B4" stroke="none" opacity="1"/><circle cx="147" cy="197" r="3" fill="#1F78B4" stroke="none" opacity="1"/><circle cx="151" cy="194" r="3" fill="#1F78B4" stroke="none" opacity="1"/><circle cx="155" cy="192" r="3" fill="#1F78B4" stroke="none" opacity="1"/><circle cx="158" cy="190" r="3" fill="#1F78B4" stroke="none" opacity="1"/><circle cx="162" cy="187" r="3" fill="#1F78B4" stroke="none" opacity="1"/><circle cx="165" cy="185" r="3" fill="#1F78B4" stroke="none" opacity="1"/><circle cx="169" cy="183" r="3" fill="#1F78B4" stroke="none" opacity="1"/><circle cx="173" cy="180" r="3" fill="#1F78B4" stroke="none" opacity="1"/><circle cx="176" cy="178" r="3" fill="#1F78B4" stroke="none" opacity="1"/><circle cx="180" cy="177" r="3" fill="#1F78B4" stroke="none" opacity="1"/><circle cx="184" cy="173" r="3" fill="#1F78B4" stroke="none" opacity="1"/><circle cx="187" cy="171" r="3" fill="#1F78B4" stroke="none" opacity="1"/><circle cx="191" cy="169" r="3" fill="#1F78B4" stroke="none" opacity="1"/><circle cx="195" cy="167" r="3" fill="#1F78B4" stroke="none" opacity="1"/><circle cx="198" cy="165" r="3" fill="#1F78B4" stroke="none" opacity="1"/><circle cx="202" cy="162" r="3" fill="#1F78B4" stroke="none" opacity="1"/><circle cx="205" cy="161" r="3" fill="#1F78B4" stroke="none" opacity="1"/><circle cx="209" cy="156" r="3" fill="#1F78B4" stroke="none" opacity="1"/><circle cx="213" cy="156" r="3" fill="#1F78B4" stroke="none" opacity="1"/><circle cx="216" cy="152" r="3" fill="#1F78B4" stroke="none" opacity="1"/><circle cx="220" cy="150" r="3" fill="#1F78B4" stroke="none" opacity="1"/><circle cx="224" cy="148" r="3" fill="#1F78B4" stroke="none" opacity="1"/><circle cx="227" cy="147" r="3" fill="#1F78B4" stroke="none" opacity="1"/><circle cx="231" cy="143" r="3" fill="#1F78B4" stroke="none" opacity="1"/><circle cx="235" cy="142" r="3" fill="#1F78B4" stroke="none" opacity="1"/><circle cx="238" cy="139" r="3" fill="#1F78B4" stroke="none" opacity="1"/><circle cx="242" cy="137" r="3" fill="#1F78B4" stroke="none" opacity="1"/><circle cx="245" cy="133" r="3" fill="#1F78B4" stroke="none" opacity="1"/><circle cx="249" cy="133" r="3" fill="#1F78B4" stroke="none" opacity="1"/><circle cx="253" cy="130" r="3" fill="#1F78B4" stroke="none" opacity="1"/><circle cx="256" cy="128" r="3" fill="#1F78B4" stroke="none" opacity="1"/><circle cx="260" cy="125" r="3" fill="#1F78B4" stroke="none" opacity="1"/><circle cx="264" cy="124" r="3" fill="#1F78B4" stroke="none" opacity="1"/><circle cx="267" cy="119" r="3" fill="#1F78B4" stroke="none" opacity="1"/><circle cx="271" cy="117" r="3" fill="#1F78B4" stroke="none" opacity="1"/><circle cx="275" cy="115" r="3" fill="#1F78B4" stroke="none" opacity="1"/><circle cx="278" cy="114" r="3" fill="#1F78B4" stroke="none" opacity="1"/><circle cx="282" cy="112" r="3" fill="#1F78B4" stroke="none" opacity="1"/><circle cx="285" cy="109" r="3" fill="#1F78B4" stroke="none" opacity="1"/><circle cx="289" cy="108" r="3" fill="#1F78B4" stroke="none" opacity="1"/><circle cx="293" cy="106" r="3" fill="#1F78B4" stroke="none" opacity="1"/><circle cx="296" cy="102" r="3" fill="#1F78B4" stroke="none" opacity="1"/><circle cx="300" cy="101" r="3" fill="#1F78B4" stroke="none" opacity="1"/><circle cx="304" cy="98" r="3" fill="#1F78B4" stroke="none" opacity="1"/><circle cx="307" cy="96" r="3" fill="#1F78B4" stroke="none" opacity="1"/><circle cx="311" cy="92" r="3" fill="#1F78B4" stroke="none" opacity="1"/><circle cx="315" cy="92" r="3" fill="#1F78B4" stroke="none" opacity="1"/><circle cx="318" cy="90" r="3" fill="#1F78B4" stroke="none" opacity="1"/><circle cx="322" cy="87" r="3" fill="#1F78B4" stroke="none" opacity="1"/><circle cx="325" cy="84" r="3" fill="#1F78B4" stroke="none" opacity="1"/><circle cx="329" cy="82" r="3" fill="#1F78B4" stroke="none" opacity="1"/><circle cx="333" cy="79" r="3" fill="#1F78B4" stroke="none" opacity="1"/><circle cx="336" cy="78" r="3" fill="#1F78B4" stroke="none" opacity="1"/><circle cx="340" cy="76" r="3" fill="#1F78B4" stroke="none" opacity="1"/><circle cx="344" cy="69" r="3" fill="#1F78B4" stroke="none" opacity="1"/><circle cx="347" cy="72" r="3" fill="#1F78B4" stroke="none" opacity="1"/><circle cx="351" cy="69" r="3" fill="#1F78B4" stroke="none" opacity="1"/><circle cx="355" cy="66" r="3" fill="#1F78B4" stroke="none" opacity="1"/><circle cx="358" cy="59" r="3" fill="#1F78B4" stroke="none" opacity="1"/><circle cx="362" cy="62" r="3" fill="#1F78B4" stroke="none" opacity="1"/><circle cx="365" cy="57" r="3" fill="#1F78B4" stroke="none" opacity="1"/><circle cx="369" cy="56" r="3" fill="#1F78B4" stroke="none" opacity="1"/><circle cx="373" cy="52" r="3" fill="#1F78B4" stroke="none" opacity="1"/><circle cx="376" cy="52" r="3" fill="#1F78B4" stroke="none" opacity="1"/><circle cx="380" cy="45" r="3" fill="#1F78B4" stroke="none" opacity="1"/><circle cx="384" cy="48" r="3" fill="#1F78B4" stroke="none" opacity="1"/><circle cx="387" cy="45" r="3" fill="#1F78B4" stroke="none" opacity="1"/><circle cx="391" cy="42" r="3" fill="#1F78B4" stroke="none" opacity="1"/><circle cx="395" cy="42" r="3" fill="#1F78B4" stroke="none" opacity="1"/><circle cx="398" cy="41" r="3" fill="#1F78B4" stroke="none" opacity="1"/><circle cx="402" cy="33" r="3" fill="#1F78B4" stroke="none" opacity="1"/><circle cx="405" cy="34" r="3" fill="#1F78B4" stroke="none" opacity="1"/><circle cx="409" cy="30" r="3" fill="#1F78B4" stroke="none" opacity="1"/><circle cx="413" cy="29" r="3" fill="#1F78B4" stroke="none" opacity="1"/><circle cx="416" cy="28" r="3" fill="#1F78B4" stroke="none" opacity="1"/><circle cx="420" cy="26" r="3" fill="#1F78B4" stroke="none" opacity="1"/><circle cx="424" cy="20" r="3" fill="#1F78B4" stroke="none" opacity="1"/><circle cx="427" cy="19" r="3" fill="#1F78B4" stroke="none" opacity="1"/><circle cx="431" cy="15" r="3" fill="#1F78B4" stroke="none" opacity="1"/><circle cx="435" cy="15" r="3" fill="#1F78B4" stroke="none" opacity="1"/><polyline fill="none" stroke="#1F78B4" stroke-width="1" points="75 245 435 15" opacity="1"/><polygon fill="#1F78B4" points="75 245 435 15 435 15" opacity=".25"/></svg>