<svg xmlns="http://www.w3.org/2000/svg" width="960" height="540"><text x="480" y="32" fill="#000" dy=".76em" font-family="sans-serif" font-size="16.129" opacity="1" text-anchor="middle">bench_group/threads_48/33554432</text><text x="27" y="263" fill="#000" dy=".76em" font-family="sans-serif" font-size="9.677" opacity="1" text-anchor="middle" transform="rotate(270, 27, 263)">Iterations</text><text x="480" y="513" fill="#000" dy="-.5ex" font-family="sans-serif" font-size="9.677" opacity="1" text-anchor="middle">Average Time (us)</text><polyline fill="none" stroke="#000" stroke-width="1" points="86 53 86 473" opacity="1"/><text x="77" y="419" fill="#000" dy=".5ex" font-family="sans-serif" font-size="9.677" opacity="1" text-anchor="end">50</text><polyline fill="none" stroke="#000" stroke-width="1" points="81 419 86 419" opacity="1"/><text x="77" y="367" fill="#000" dy=".5ex" font-family="sans-serif" font-size="9.677" opacity="1" text-anchor="end">100</text><polyline fill="none" stroke="#000" stroke-width="1" points="81 367 86 367" opacity="1"/><text x="77" y="314" fill="#000" dy=".5ex" font-family="sans-serif" font-size="9.677" opacity="1" text-anchor="end">150</text><polyline fill="none" stroke="#000" stroke-width="1" points="81 314 86 314" opacity="1"/><text x="77" y="262" fill="#000" dy=".5ex" font-family="sans-serif" font-size="9.677" opacity="1" text-anchor="end">200</text><polyline fill="none" stroke="#000" stroke-width="1" points="81 262 86 262" opacity="1"/><text x="77" y="209" fill="#000" dy=".5ex" font-family="sans-serif" font-size="9.677" opacity="1" text-anchor="end">250</text><polyline fill="none" stroke="#000" stroke-width="1" points="81 209 86 209" opacity="1"/><text x="77" y="157" fill="#000" dy=".5ex" font-family="sans-serif" font-size="9.677" opacity="1" text-anchor="end">300</text><polyline fill="none" stroke="#000" stroke-width="1" points="81 157 86 157" opacity="1"/><text x="77" y="104" fill="#000" dy=".5ex" font-family="sans-serif" font-size="9.677" opacity="1" text-anchor="end">350</text><polyline fill="none" stroke="#000" stroke-width="1" points="81 104 86 104" opacity="1"/><polyline fill="none" stroke="#000" stroke-width="1" points="87 473 873 473" opacity="1"/><text x="127" y="483" fill="#000" dy=".76em" font-family="sans-serif" font-size="9.677" opacity="1" text-anchor="middle">240</text><polyline fill="none" stroke="#000" stroke-width="1" points="127 473 127 478" opacity="1"/><text x="207" y="483" fill="#000" dy=".76em" font-family="sans-serif" font-size="9.677" opacity="1" text-anchor="middle">260</text><polyline fill="none" stroke="#000" stroke-width="1" points="207 473 207 478" opacity="1"/><text x="287" y="483" fill="#000" dy=".76em" font-family="sans-serif" font-size="9.677" opacity="1" text-anchor="middle">280</text><polyline fill="none" stroke="#000" stroke-width="1" points="287 473 287 478" opacity="1"/><text x="368" y="483" fill="#000" dy=".76em" font-family="sans-serif" font-size="9.677" opacity="1" text-anchor="middle">300</text><polyline fill="none" stroke="#000" stroke-width="1" points="368 473 368 478" opacity="1"/><text x="448" y="483" fill="#000" dy=".76em" font-family="sans-serif" font-size="9.677" opacity="1" text-anchor="middle">320</text><polyline fill="none" stroke="#000" stroke-width="1" points="448 473 448 478" opacity="1"/><text x="528" y="483" fill="#000" dy=".76em" font-family="sans-serif" font-size="9.677" opacity="1" text-anchor="middle">340</text><polyline fill="none" stroke="#000" stroke-width="1" points="528 473 528 478" opacity="1"/><text x="608" y="483" fill="#000" dy=".76em" font-family="sans-serif" font-size="9.677" opacity="1" text-anchor="middle">360</text><polyline fill="none" stroke="#000" stroke-width="1" points="608 473 608 478" opacity="1"/><text x="688" y="483" fill="#000" dy=".76em" font-family="sans-serif" font-size="9.677" opacity="1" text-anchor="middle">380</text><polyline fill="none" stroke="#000" stroke-width="1" points="688 473 688 478" opacity="1"/><text x="769" y="483" fill="#000" dy=".76em" font-family="sans-serif" font-size="9.677" opacity="1" text-anchor="middle">400</text><polyline fill="none" stroke="#000" stroke-width="1" points="769 473 769 478" opacity="1"/><text x="849" y="483" fill="#000" dy=".76em" font-family="sans-serif" font-size="9.677" opacity="1" text-anchor="middle">420</text><polyline fill="none" stroke="#000" stroke-width="1" points="849 473 849 478" opacity="1"/><text x="933" y="263" fill="#000" dy=".76em" font-family="sans-serif" font-size="9.677" opacity="1" text-anchor="middle" transform="rotate(90, 933, 263)">Density (a.u.)</text><polyline fill="none" stroke="#000" stroke-width="1" points="873 54 873 473" opacity="1"/><text x="883" y="422" fill="#000" dy=".5ex" font-family="sans-serif" font-size="9.677" opacity="1" text-anchor="start">0.005</text><polyline fill="none" stroke="#000" stroke-width="1" points="873 422 878 422" opacity="1"/><text x="910" y="371" fill="#000" dy=".5ex" font-family="sans-serif" font-size="9.677" opacity="1" text-anchor="end">0.01</text><polyline fill="none" stroke="#000" stroke-width="1" points="873 371 878 371" opacity="1"/><text x="883" y="320" fill="#000" dy=".5ex" font-family="sans-serif" font-size="9.677" opacity="1" text-anchor="start">0.015</text><polyline fill="none" stroke="#000" stroke-width="1" points="873 320 878 320" opacity="1"/><text x="910" y="269" fill="#000" dy=".5ex" font-family="sans-serif" font-size="9.677" opacity="1" text-anchor="end">0.02</text><polyline fill="none" stroke="#000" stroke-width="1" points="873 269 878 269" opacity="1"/><text x="883" y="219" fill="#000" dy=".5ex" font-family="sans-serif" font-size="9.677" opacity="1" text-anchor="start">0.025</text><polyline fill="none" stroke="#000" stroke-width="1" points="873 219 878 219" opacity="1"/><text x="910" y="168" fill="#000" dy=".5ex" font-family="sans-serif" font-size="9.677" opacity="1" text-anchor="end">0.03</text><polyline fill="none" stroke="#000" stroke-width="1" points="873 168 878 168" opacity="1"/><text x="883" y="117" fill="#000" dy=".5ex" font-family="sans-serif" font-size="9.677" opacity="1" text-anchor="start">0.035</text><polyline fill="none" stroke="#000" stroke-width="1" points="873 117 878 117" opacity="1"/><text x="910" y="66" fill="#000" dy=".5ex" font-family="sans-serif" font-size="9.677" opacity="1" text-anchor="end">0.04</text><polyline fill="none" stroke="#000" stroke-width="1" points="873 66 878 66" opacity="1"/><polygon fill="#1F78B4" points="87 472 88 472 90 472 91 472 93 472 94 472 96 472 98 471 99 471 101 471 102 471 104 470 105 470 107 470 109 469 110 469 112 468 113 467 115 467 116 466 118 465 120 464 121 462 123 461 124 459 126 458 127 456 129 454 131 451 132 449 134 446 135 443 137 439 138 436 140 432 142 427 143 423 145 418 146 412 148 407 150 400 151 394 153 387 154 380 156 372 157 364 159 355 161 346 162 337 164 327 165 317 167 306 168 296 170 285 172 273 173 262 175 250 176 239 178 227 179 215 181 203 183 191 184 180 186 168 187 157 189 146 190 136 192 126 194 116 195 107 197 98 198 90 200 83 201 77 203 71 205 66 206 61 208 58 209 55 211 54 213 53 214 53 216 53 217 55 219 57 220 60 222 64 224 69 225 74 227 80 228 87 230 94 231 102 233 110 235 119 236 128 238 137 239 147 241 156 242 166 244 176 246 187 247 197 249 207 250 217 252 227 253 237 255 247 257 256 258 266 260 275 261 284 263 292 264 301 266 309 268 317 269 324 271 331 272 338 274 345 276 351 277 357 279 363 280 369 282 374 283 379 285 384 287 388 288 393 290 397 291 401 293 404 294 408 296 411 298 414 299 417 301 420 302 423 304 426 305 428 307 430 309 433 310 435 312 437 313 439 315 441 316 442 318 444 320 445 321 447 323 448 324 450 326 451 327 452 329 453 331 454 332 455 334 456 335 457 337 458 339 458 340 459 342 460 343 460 345 461 346 461 348 461 350 462 351 462 353 462 354 463 356 463 357 463 359 463 361 463 362 464 364 464 365 464 367 464 368 464 370 464 372 464 373 464 375 464 376 464 378 464 379 464 381 464 383 464 384 464 386 464 387 464 389 464 391 464 392 464 394 464 395 464 397 464 398 464 400 464 402 464 403 464 405 465 406 465 408 465 409 465 411 465 413 465 414 465 416 465 417 465 419 465 420 465 422 466 424 466 425 466 427 466 428 466 430 466 431 466 433 466 435 466 436 467 438 467 439 467 441 467 442 467 444 467 446 467 447 467 449 467 450 467 452 467 454 467 455 467 457 467 458 467 460 467 461 467 463 467 465 467 466 467 468 467 469 467 471 467 472 467 474 467 476 467 477 467 479 467 480 467 482 467 483 467 485 467 487 467 488 467 490 467 491 467 493 467 494 467 496 467 498 467 499 467 501 467 502 467 504 467 505 468 507 468 509 468 510 468 512 468 513 468 515 469 517 469 518 469 520 469 521 469 523 469 524 470 526 470 528 470 529 470 531 470 532 470 534 471 535 471 537 471 539 471 540 471 542 471 543 471 545 471 546 472 548 472 550 472 551 472 553 472 554 472 556 472 557 472 559 472 561 472 562 472 564 472 565 472 567 472 568 472 570 472 572 472 573 472 575 472 576 472 578 472 580 472 581 472 583 472 584 472 586 472 587 472 589 472 591 472 592 472 594 472 595 472 597 472 598 472 600 472 602 472 603 472 605 472 606 472 608 472 609 472 611 472 613 472 614 472 616 473 617 473 619 473 620 473 622 473 624 473 625 473 627 473 628 473 630 473 632 473 633 473 635 473 636 473 638 473 639 473 641 473 643 473 644 473 646 473 647 473 649 473 650 473 652 473 654 473 655 473 657 473 658 472 660 472 661 472 663 472 665 472 666 472 668 472 669 472 671 472 672 472 674 472 676 472 677 472 679 472 680 472 682 472 683 472 685 472 687 472 688 472 690 472 691 472 693 472 695 472 696 472 698 472 699 472 701 472 702 472 704 472 706 472 707 472 709 472 710 472 712 472 713 472 715 472 717 472 718 472 720 472 721 472 723 472 724 472 726 472 728 471 729 471 731 471 732 471 734 471 735 471 737 471 739 471 740 470 742 470 743 470 745 470 746 470 748 470 750 470 751 469 753 469 754 469 756 469 758 469 759 469 761 468 762 468 764 468 765 468 767 468 769 468 770 468 772 467 773 467 775 467 776 467 778 467 780 467 781 467 783 467 784 467 786 467 787 467 789 467 791 467 792 467 794 467 795 468 797 468 798 468 800 468 802 468 803 468 805 468 806 469 808 469 809 469 811 469 813 469 814 469 816 470 817 470 819 470 821 470 822 470 824 470 825 471 827 471 828 471 830 471 832 471 833 471 835 471 836 471 838 472 839 472 841 472 843 472 844 472 846 472 847 472 849 472 850 472 852 472 854 472 855 472 857 472 858 472 860 472 861 472 863 472 865 472 866 472 868 472 869 472 871 472 873 472 873 473 87 473" opacity=".5"/><polyline fill="none" stroke="#1F78B4" stroke-width="1" points="231 472 231 53" opacity="1"/><polyline fill="none" stroke="#FF7F00" stroke-width="1" points="160 472 160 53" opacity="1"/><polyline fill="none" stroke="#FF7F00" stroke-width="1" points="275 472 275 53" opacity="1"/><polyline fill="none" stroke="#E31A1C" stroke-width="1" points="116 472 116 53" opacity="1"/><polyline fill="none" stroke="#E31A1C" stroke-width="1" points="318 472 318 53" opacity="1"/><circle cx="268" cy="438" r="3" fill="#1F78B4" stroke="none" opacity="1"/><circle cx="258" cy="425" r="3" fill="#1F78B4" stroke="none" opacity="1"/><circle cx="256" cy="421" r="3" fill="#1F78B4" stroke="none" opacity="1"/><circle cx="246" cy="413" r="3" fill="#1F78B4" stroke="none" opacity="1"/><circle cx="248" cy="409" r="3" fill="#1F78B4" stroke="none" opacity="1"/><circle cx="222" cy="404" r="3" fill="#1F78B4" stroke="none" opacity="1"/><circle cx="262" cy="400" r="3" fill="#1F78B4" stroke="none" opacity="1"/><circle cx="230" cy="396" r="3" fill="#1F78B4" stroke="none" opacity="1"/><circle cx="252" cy="392" r="3" fill="#1F78B4" stroke="none" opacity="1"/><circle cx="221" cy="388" r="3" fill="#1F78B4" stroke="none" opacity="1"/><circle cx="230" cy="383" r="3" fill="#1F78B4" stroke="none" opacity="1"/><circle cx="211" cy="379" r="3" fill="#1F78B4" stroke="none" opacity="1"/><circle cx="215" cy="375" r="3" fill="#1F78B4" stroke="none" opacity="1"/><circle cx="211" cy="371" r="3" fill="#1F78B4" stroke="none" opacity="1"/><circle cx="238" cy="367" r="3" fill="#1F78B4" stroke="none" opacity="1"/><circle cx="206" cy="362" r="3" fill="#1F78B4" stroke="none" opacity="1"/><circle cx="236" cy="358" r="3" fill="#1F78B4" stroke="none" opacity="1"/><circle cx="228" cy="354" r="3" fill="#1F78B4" stroke="none" opacity="1"/><circle cx="215" cy="350" r="3" fill="#1F78B4" stroke="none" opacity="1"/><circle cx="224" cy="346" r="3" fill="#1F78B4" stroke="none" opacity="1"/><circle cx="233" cy="341" r="3" fill="#1F78B4" stroke="none" opacity="1"/><circle cx="217" cy="337" r="3" fill="#1F78B4" stroke="none" opacity="1"/><circle cx="206" cy="333" r="3" fill="#1F78B4" stroke="none" opacity="1"/><circle cx="200" cy="329" r="3" fill="#1F78B4" stroke="none" opacity="1"/><circle cx="219" cy="325" r="3" fill="#1F78B4" stroke="none" opacity="1"/><circle cx="206" cy="320" r="3" fill="#1F78B4" stroke="none" opacity="1"/><circle cx="246" cy="316" r="3" fill="#1F78B4" stroke="none" opacity="1"/><circle cx="213" cy="312" r="3" fill="#1F78B4" stroke="none" opacity="1"/><circle cx="221" cy="308" r="3" fill="#1F78B4" stroke="none" opacity="1"/><circle cx="231" cy="304" r="3" fill="#1F78B4" stroke="none" opacity="1"/><circle cx="218" cy="299" r="3" fill="#1F78B4" stroke="none" opacity="1"/><circle cx="237" cy="295" r="3" fill="#1F78B4" stroke="none" opacity="1"/><circle cx="221" cy="291" r="3" fill="#1F78B4" stroke="none" opacity="1"/><circle cx="222" cy="287" r="3" fill="#1F78B4" stroke="none" opacity="1"/><circle cx="211" cy="283" r="3" fill="#1F78B4" stroke="none" opacity="1"/><circle cx="224" cy="278" r="3" fill="#1F78B4" stroke="none" opacity="1"/><circle cx="233" cy="274" r="3" fill="#1F78B4" stroke="none" opacity="1"/><circle cx="213" cy="270" r="3" fill="#1F78B4" stroke="none" opacity="1"/><circle cx="212" cy="266" r="3" fill="#1F78B4" stroke="none" opacity="1"/><circle cx="223" cy="262" r="3" fill="#1F78B4" stroke="none" opacity="1"/><circle cx="214" cy="257" r="3" fill="#1F78B4" stroke="none" opacity="1"/><circle cx="195" cy="253" r="3" fill="#1F78B4" stroke="none" opacity="1"/><circle cx="209" cy="249" r="3" fill="#1F78B4" stroke="none" opacity="1"/><circle cx="198" cy="245" r="3" fill="#1F78B4" stroke="none" opacity="1"/><circle cx="228" cy="241" r="3" fill="#1F78B4" stroke="none" opacity="1"/><circle cx="237" cy="236" r="3" fill="#1F78B4" stroke="none" opacity="1"/><circle cx="206" cy="232" r="3" fill="#1F78B4" stroke="none" opacity="1"/><circle cx="229" cy="228" r="3" fill="#1F78B4" stroke="none" opacity="1"/><circle cx="204" cy="224" r="3" fill="#1F78B4" stroke="none" opacity="1"/><circle cx="186" cy="220" r="3" fill="#1F78B4" stroke="none" opacity="1"/><circle cx="202" cy="215" r="3" fill="#1F78B4" stroke="none" opacity="1"/><circle cx="213" cy="211" r="3" fill="#1F78B4" stroke="none" opacity="1"/><circle cx="200" cy="207" r="3" fill="#1F78B4" stroke="none" opacity="1"/><circle cx="212" cy="203" r="3" fill="#1F78B4" stroke="none" opacity="1"/><circle cx="213" cy="199" r="3" fill="#1F78B4" stroke="none" opacity="1"/><circle cx="203" cy="194" r="3" fill="#1F78B4" stroke="none" opacity="1"/><circle cx="202" cy="190" r="3" fill="#1F78B4" stroke="none" opacity="1"/><circle cx="198" cy="186" r="3" fill="#1F78B4" stroke="none" opacity="1"/><circle cx="207" cy="182" r="3" fill="#1F78B4" stroke="none" opacity="1"/><circle cx="182" cy="178" r="3" fill="#1F78B4" stroke="none" opacity="1"/><circle cx="202" cy="173" r="3" fill="#1F78B4" stroke="none" opacity="1"/><circle cx="234" cy="169" r="3" fill="#1F78B4" stroke="none" opacity="1"/><circle cx="221" cy="165" r="3" fill="#1F78B4" stroke="none" opacity="1"/><circle cx="206" cy="161" r="3" fill="#1F78B4" stroke="none" opacity="1"/><circle cx="200" cy="157" r="3" fill="#1F78B4" stroke="none" opacity="1"/><circle cx="201" cy="152" r="3" fill="#1F78B4" stroke="none" opacity="1"/><circle cx="203" cy="148" r="3" fill="#1F78B4" stroke="none" opacity="1"/><circle cx="229" cy="144" r="3" fill="#1F78B4" stroke="none" opacity="1"/><circle cx="207" cy="140" r="3" fill="#1F78B4" stroke="none" opacity="1"/><circle cx="195" cy="136" r="3" fill="#1F78B4" stroke="none" opacity="1"/><circle cx="208" cy="131" r="3" fill="#1F78B4" stroke="none" opacity="1"/><circle cx="196" cy="127" r="3" fill="#1F78B4" stroke="none" opacity="1"/><circle cx="200" cy="123" r="3" fill="#1F78B4" stroke="none" opacity="1"/><circle cx="194" cy="119" r="3" fill="#1F78B4" stroke="none" opacity="1"/><circle cx="202" cy="115" r="3" fill="#1F78B4" stroke="none" opacity="1"/><circle cx="198" cy="110" r="3" fill="#1F78B4" stroke="none" opacity="1"/><circle cx="177" cy="106" r="3" fill="#1F78B4" stroke="none" opacity="1"/><circle cx="216" cy="102" r="3" fill="#1F78B4" stroke="none" opacity="1"/><circle cx="181" cy="98" r="3" fill="#1F78B4" stroke="none" opacity="1"/><circle cx="201" cy="94" r="3" fill="#1F78B4" stroke="none" opacity="1"/><circle cx="207" cy="89" r="3" fill="#1F78B4" stroke="none" opacity="1"/><circle cx="179" cy="85" r="3" fill="#1F78B4" stroke="none" opacity="1"/><circle cx="208" cy="81" r="3" fill="#1F78B4" stroke="none" opacity="1"/><circle cx="204" cy="77" r="3" fill="#1F78B4" stroke="none" opacity="1"/><circle cx="214" cy="73" r="3" fill="#1F78B4" stroke="none" opacity="1"/><circle cx="198" cy="68" r="3" fill="#1F78B4" stroke="none" opacity="1"/><circle cx="201" cy="64" r="3" fill="#1F78B4" stroke="none" opacity="1"/><circle cx="224" cy="60" r="3" fill="#1F78B4" stroke="none" opacity="1"/><circle cx="209" cy="56" r="3" fill="#1F78B4" stroke="none" opacity="1"/><circle cx="201" cy="53" r="3" fill="#1F78B4" stroke="none" opacity="1"/><circle cx="313" cy="451" r="3" fill="#FF7F00" stroke="none" opacity="1"/><circle cx="292" cy="446" r="3" fill="#FF7F00" stroke="none" opacity="1"/><circle cx="280" cy="442" r="3" fill="#FF7F00" stroke="none" opacity="1"/><circle cx="296" cy="434" r="3" fill="#FF7F00" stroke="none" opacity="1"/><circle cx="280" cy="430" r="3" fill="#FF7F00" stroke="none" opacity="1"/><circle cx="278" cy="417" r="3" fill="#FF7F00" stroke="none" opacity="1"/><circle cx="782" cy="467" r="3" fill="#E31A1C" stroke="none" opacity="1"/><circle cx="491" cy="463" r="3" fill="#E31A1C" stroke="none" opacity="1"/><circle cx="417" cy="459" r="3" fill="#E31A1C" stroke="none" opacity="1"/><circle cx="371" cy="455" r="3" fill="#E31A1C" stroke="none" opacity="1"/><text x="776" y="228" fill="#000" dy=".76em" font-family="sans-serif" font-size="9.677" opacity="1" text-anchor="start">PDF</text><text x="776" y="243" fill="#000" dy=".76em" font-family="sans-serif" font-size="9.677" opacity="1" text-anchor="start">Mean</text><text x="776" y="258" fill="#000" dy=".76em" font-family="sans-serif" font-size="9.677" opacity="1" text-anchor="start">&quot;Clean&quot; sample</text><text x="776" y="273" fill="#000" dy=".76em" font-family="sans-serif" font-size="9.677" opacity="1" text-anchor="start">Mild outliers</text><text x="776" y="288" fill="#000" dy=".76em" font-family="sans-serif" font-size="9.677" opacity="1" text-anchor="start">Severe outliers</text><rect width="20" height="10" x="746" y="228" fill="#1F78B4" stroke="none" opacity=".5"/><polyline fill="none" stroke="#1F78B4" stroke-width="1" points="746 248 766 248" opacity="1"/><circle cx="756" cy="263" r="3" fill="#1F78B4" stroke="none" opacity="1"/><circle cx="756" cy="278" r="3" fill="#FF7F00" stroke="none" opacity="1"/><circle cx="756" cy="293" r="3" fill="#E31A1C" stroke="none" opacity="1"/></svg>