<svg xmlns="http://www.w3.org/2000/svg" width="450" height="300"><text x="15" y="130" fill="#000" dy=".76em" font-family="sans-serif" font-size="9.677" opacity="1" text-anchor="middle" transform="rotate(270, 15, 130)">Total sample time (ms)</text><text x="255" y="285" fill="#000" dy="-.5ex" font-family="sans-serif" font-size="9.677" opacity="1" text-anchor="middle">Iterations</text><line x1="116" x2="116" y1="244" y2="14" stroke="#000" stroke-width="1" opacity=".2"/><line x1="162" x2="162" y1="244" y2="14" stroke="#000" stroke-width="1" opacity=".2"/><line x1="207" x2="207" y1="244" y2="14" stroke="#000" stroke-width="1" opacity=".2"/><line x1="253" x2="253" y1="244" y2="14" stroke="#000" stroke-width="1" opacity=".2"/><line x1="298" x2="298" y1="244" y2="14" stroke="#000" stroke-width="1" opacity=".2"/><line x1="344" x2="344" y1="244" y2="14" stroke="#000" stroke-width="1" opacity=".2"/><line x1="389" x2="389" y1="244" y2="14" stroke="#000" stroke-width="1" opacity=".2"/><line x1="435" x2="435" y1="244" y2="14" stroke="#000" stroke-width="1" opacity=".2"/><line x1="75" x2="435" y1="202" y2="202" stroke="#000" stroke-width="1" opacity=".2"/><line x1="75" x2="435" y1="157" y2="157" stroke="#000" stroke-width="1" opacity=".2"/><line x1="75" x2="435" y1="112" y2="112" stroke="#000" stroke-width="1" opacity=".2"/><line x1="75" x2="435" y1="67" y2="67" stroke="#000" stroke-width="1" opacity=".2"/><line x1="75" x2="435" y1="22" y2="22" stroke="#000" stroke-width="1" opacity=".2"/><polyline fill="none" stroke="#000" stroke-width="1" points="74 15 74 245" opacity="1"/><text x="65" y="202" fill="#000" dy=".5ex" font-family="sans-serif" font-size="9.677" opacity="1" text-anchor="end">20.0</text><polyline fill="none" stroke="#000" stroke-width="1" points="69 202 74 202" opacity="1"/><text x="65" y="157" fill="#000" dy=".5ex" font-family="sans-serif" font-size="9.677" opacity="1" text-anchor="end">40.0</text><polyline fill="none" stroke="#000" stroke-width="1" points="69 157 74 157" opacity="1"/><text x="65" y="112" fill="#000" dy=".5ex" font-family="sans-serif" font-size="9.677" opacity="1" text-anchor="end">60.0</text><polyline fill="none" stroke="#000" stroke-width="1" points="69 112 74 112" opacity="1"/><text x="65" y="67" fill="#000" dy=".5ex" font-family="sans-serif" font-size="9.677" opacity="1" text-anchor="end">80.0</text><polyline fill="none" stroke="#000" stroke-width="1" points="69 67 74 67" opacity="1"/><text x="65" y="22" fill="#000" dy=".5ex" font-family="sans-serif" font-size="9.677" opacity="1" text-anchor="end">100.0</text><polyline fill="none" stroke="#000" stroke-width="1" points="69 22 74 22" opacity="1"/><polyline fill="none" stroke="#000" stroke-width="1" points="75 245 435 245" opacity="1"/><text x="116" y="255" fill="#000" dy=".76em" font-family="sans-serif" font-size="9.677" opacity="1" text-anchor="middle">50</text><polyline fill="none" stroke="#000" stroke-width="1" points="116 245 116 250" opacity="1"/><text x="162" y="255" fill="#000" dy=".76em" font-family="sans-serif" font-size="9.677" opacity="1" text-anchor="middle">100</text><polyline fill="none" stroke="#000" stroke-width="1" points="162 245 162 250" opacity="1"/><text x="207" y="255" fill="#000" dy=".76em" font-family="sans-serif" font-size="9.677" opacity="1" text-anchor="middle">150</text><polyline fill="none" stroke="#000" stroke-width="1" points="207 245 207 250" opacity="1"/><text x="253" y="255" fill="#000" dy=".76em" font-family="sans-serif" font-size="9.677" opacity="1" text-anchor="middle">200</text><polyline fill="none" stroke="#000" stroke-width="1" points="253 245 253 250" opacity="1"/><text x="298" y="255" fill="#000" dy=".76em" font-family="sans-serif" font-size="9.677" opacity="1" text-anchor="middle">250</text><polyline fill="none" stroke="#000" stroke-width="1" points="298 245 298 250" opacity="1"/><text x="344" y="255" fill="#000" dy=".76em" font-family="sans-serif" font-size="9.677" opacity="1" text-anchor="middle">300</text><polyline fill="none" stroke="#000" stroke-width="1" points="344 245 344 250" opacity="1"/><text x="389" y="255" fill="#000" dy=".76em" font-family="sans-serif" font-size="9.677" opacity="1" text-anchor="middle">350</text><polyline fill="none" stroke="#000" stroke-width="1" points="389 245 389 250" opacity="1"/><text x="435" y="255" fill="#000" dy=".76em" font-family="sans-serif" font-size="9.677" opacity="1" text-anchor="middle">400</text><polyline fill="none" stroke="#000" stroke-width="1" points="435 245 435 250" opacity="1"/><circle cx="75" cy="244" r="3" fill="#1F78B4" stroke="none" opacity="1"/><circle cx="78" cy="241" r="3" fill="#1F78B4" stroke="none" opacity="1"/><circle cx="82" cy="239" r="3" fill="#1F78B4" stroke="none" opacity="1"/><circle cx="85" cy="236" r="3" fill="#1F78B4" stroke="none" opacity="1"/><circle cx="89" cy="234" r="3" fill="#1F78B4" stroke="none" opacity="1"/><circle cx="93" cy="232" r="3" fill="#1F78B4" stroke="none" opacity="1"/><circle cx="96" cy="230" r="3" fill="#1F78B4" stroke="none" opacity="1"/><circle cx="100" cy="227" r="3" fill="#1F78B4" stroke="none" opacity="1"/><circle cx="104" cy="224" r="3" fill="#1F78B4" stroke="none" opacity="1"/><circle cx="107" cy="222" r="3" fill="#1F78B4" stroke="none" opacity="1"/><circle cx="111" cy="220" r="3" fill="#1F78B4" stroke="none" opacity="1"/><circle cx="115" cy="218" r="3" fill="#1F78B4" stroke="none" opacity="1"/><circle cx="118" cy="215" r="3" fill="#1F78B4" stroke="none" opacity="1"/><circle cx="122" cy="213" r="3" fill="#1F78B4" stroke="none" opacity="1"/><circle cx="125" cy="211" r="3" fill="#1F78B4" stroke="none" opacity="1"/><circle cx="129" cy="209" r="3" fill="#1F78B4" stroke="none" opacity="1"/><circle cx="133" cy="205" r="3" fill="#1F78B4" stroke="none" opacity="1"/><circle cx="136" cy="204" r="3" fill="#1F78B4" stroke="none" opacity="1"/><circle cx="140" cy="201" r="3" fill="#1F78B4" stroke="none" opacity="1"/><circle cx="144" cy="200" r="3" fill="#1F78B4" stroke="none" opacity="1"/><circle cx="147" cy="197" r="3" fill="#1F78B4" stroke="none" opacity="1"/><circle cx="151" cy="195" r="3" fill="#1F78B4" stroke="none" opacity="1"/><circle cx="155" cy="193" r="3" fill="#1F78B4" stroke="none" opacity="1"/><circle cx="158" cy="191" r="3" fill="#1F78B4" stroke="none" opacity="1"/><circle cx="162" cy="187" r="3" fill="#1F78B4" stroke="none" opacity="1"/><circle cx="165" cy="186" r="3" fill="#1F78B4" stroke="none" opacity="1"/><circle cx="169" cy="182" r="3" fill="#1F78B4" stroke="none" opacity="1"/><circle cx="173" cy="180" r="3" fill="#1F78B4" stroke="none" opacity="1"/><circle cx="176" cy="179" r="3" fill="#1F78B4" stroke="none" opacity="1"/><circle cx="180" cy="176" r="3" fill="#1F78B4" stroke="none" opacity="1"/><circle cx="184" cy="173" r="3" fill="#1F78B4" stroke="none" opacity="1"/><circle cx="187" cy="171" r="3" fill="#1F78B4" stroke="none" opacity="1"/><circle cx="191" cy="170" r="3" fill="#1F78B4" stroke="none" opacity="1"/><circle cx="195" cy="168" r="3" fill="#1F78B4" stroke="none" opacity="1"/><circle cx="198" cy="164" r="3" fill="#1F78B4" stroke="none" opacity="1"/><circle cx="202" cy="163" r="3" fill="#1F78B4" stroke="none" opacity="1"/><circle cx="205" cy="157" r="3" fill="#1F78B4" stroke="none" opacity="1"/><circle cx="209" cy="157" r="3" fill="#1F78B4" stroke="none" opacity="1"/><circle cx="213" cy="154" r="3" fill="#1F78B4" stroke="none" opacity="1"/><circle cx="216" cy="151" r="3" fill="#1F78B4" stroke="none" opacity="1"/><circle cx="220" cy="150" r="3" fill="#1F78B4" stroke="none" opacity="1"/><circle cx="224" cy="146" r="3" fill="#1F78B4" stroke="none" opacity="1"/><circle cx="227" cy="145" r="3" fill="#1F78B4" stroke="none" opacity="1"/><circle cx="231" cy="142" r="3" fill="#1F78B4" stroke="none" opacity="1"/><circle cx="235" cy="141" r="3" fill="#1F78B4" stroke="none" opacity="1"/><circle cx="238" cy="137" r="3" fill="#1F78B4" stroke="none" opacity="1"/><circle cx="242" cy="134" r="3" fill="#1F78B4" stroke="none" opacity="1"/><circle cx="245" cy="134" r="3" fill="#1F78B4" stroke="none" opacity="1"/><circle cx="249" cy="132" r="3" fill="#1F78B4" stroke="none" opacity="1"/><circle cx="253" cy="128" r="3" fill="#1F78B4" stroke="none" opacity="1"/><circle cx="256" cy="127" r="3" fill="#1F78B4" stroke="none" opacity="1"/><circle cx="260" cy="127" r="3" fill="#1F78B4" stroke="none" opacity="1"/><circle cx="264" cy="123" r="3" fill="#1F78B4" stroke="none" opacity="1"/><circle cx="267" cy="122" r="3" fill="#1F78B4" stroke="none" opacity="1"/><circle cx="271" cy="116" r="3" fill="#1F78B4" stroke="none" opacity="1"/><circle cx="275" cy="112" r="3" fill="#1F78B4" stroke="none" opacity="1"/><circle cx="278" cy="114" r="3" fill="#1F78B4" stroke="none" opacity="1"/><circle cx="282" cy="108" r="3" fill="#1F78B4" stroke="none" opacity="1"/><circle cx="285" cy="109" r="3" fill="#1F78B4" stroke="none" opacity="1"/><circle cx="289" cy="109" r="3" fill="#1F78B4" stroke="none" opacity="1"/><circle cx="293" cy="105" r="3" fill="#1F78B4" stroke="none" opacity="1"/><circle cx="296" cy="101" r="3" fill="#1F78B4" stroke="none" opacity="1"/><circle cx="300" cy="100" r="3" fill="#1F78B4" stroke="none" opacity="1"/><circle cx="304" cy="96" r="3" fill="#1F78B4" stroke="none" opacity="1"/><circle cx="307" cy="94" r="3" fill="#1F78B4" stroke="none" opacity="1"/><circle cx="311" cy="93" r="3" fill="#1F78B4" stroke="none" opacity="1"/><circle cx="315" cy="91" r="3" fill="#1F78B4" stroke="none" opacity="1"/><circle cx="318" cy="89" r="3" fill="#1F78B4" stroke="none" opacity="1"/><circle cx="322" cy="85" r="3" fill="#1F78B4" stroke="none" opacity="1"/><circle cx="325" cy="87" r="3" fill="#1F78B4" stroke="none" opacity="1"/><circle cx="329" cy="81" r="3" fill="#1F78B4" stroke="none" opacity="1"/><circle cx="333" cy="74" r="3" fill="#1F78B4" stroke="none" opacity="1"/><circle cx="336" cy="74" r="3" fill="#1F78B4" stroke="none" opacity="1"/><circle cx="340" cy="74" r="3" fill="#1F78B4" stroke="none" opacity="1"/><circle cx="344" cy="72" r="3" fill="#1F78B4" stroke="none" opacity="1"/><circle cx="347" cy="70" r="3" fill="#1F78B4" stroke="none" opacity="1"/><circle cx="351" cy="67" r="3" fill="#1F78B4" stroke="none" opacity="1"/><circle cx="355" cy="60" r="3" fill="#1F78B4" stroke="none" opacity="1"/><circle cx="358" cy="62" r="3" fill="#1F78B4" stroke="none" opacity="1"/><circle cx="362" cy="62" r="3" fill="#1F78B4" stroke="none" opacity="1"/><circle cx="365" cy="57" r="3" fill="#1F78B4" stroke="none" opacity="1"/><circle cx="369" cy="57" r="3" fill="#1F78B4" stroke="none" opacity="1"/><circle cx="373" cy="54" r="3" fill="#1F78B4" stroke="none" opacity="1"/><circle cx="376" cy="53" r="3" fill="#1F78B4" stroke="none" opacity="1"/><circle cx="380" cy="49" r="3" fill="#1F78B4" stroke="none" opacity="1"/><circle cx="384" cy="47" r="3" fill="#1F78B4" stroke="none" opacity="1"/><circle cx="387" cy="49" r="3" fill="#1F78B4" stroke="none" opacity="1"/><circle cx="391" cy="39" r="3" fill="#1F78B4" stroke="none" opacity="1"/><circle cx="395" cy="44" r="3" fill="#1F78B4" stroke="none" opacity="1"/><circle cx="398" cy="37" r="3" fill="#1F78B4" stroke="none" opacity="1"/><circle cx="402" cy="34" r="3" fill="#1F78B4" stroke="none" opacity="1"/><circle cx="405" cy="37" r="3" fill="#1F78B4" stroke="none" opacity="1"/><circle cx="409" cy="29" r="3" fill="#1F78B4" stroke="none" opacity="1"/><circle cx="413" cy="27" r="3" fill="#1F78B4" stroke="none" opacity="1"/><circle cx="416" cy="23" r="3" fill="#1F78B4" stroke="none" opacity="1"/><circle cx="420" cy="24" r="3" fill="#1F78B4" stroke="none" opacity="1"/><circle cx="424" cy="21" r="3" fill="#1F78B4" stroke="none" opacity="1"/><circle cx="427" cy="15" r="3" fill="#1F78B4" stroke="none" opacity="1"/><circle cx="431" cy="15" r="3" fill="#1F78B4" stroke="none" opacity="1"/><circle cx="435" cy="15" r="3" fill="#1F78B4" stroke="none" opacity="1"/><polyline fill="none" stroke="#1F78B4" stroke-width="1" points="75 245 435 15" opacity="1"/><polygon fill="#1F78B4" points="75 245 435 15 435 15" opacity=".25"/></svg>