<svg xmlns="http://www.w3.org/2000/svg" width="960" height="540"><text x="480" y="32" fill="#000" dy=".76em" font-family="sans-serif" font-size="16.129" opacity="1" text-anchor="middle">bench_group/threads_48/33554432</text><text x="27" y="263" fill="#000" dy=".76em" font-family="sans-serif" font-size="9.677" opacity="1" text-anchor="middle" transform="rotate(270, 27, 263)">Total sample time (ms)</text><text x="510" y="513" fill="#000" dy="-.5ex" font-family="sans-serif" font-size="9.677" opacity="1" text-anchor="middle">Iterations</text><line x1="185" x2="185" y1="472" y2="52" stroke="#000" stroke-width="1" opacity=".2"/><line x1="292" x2="292" y1="472" y2="52" stroke="#000" stroke-width="1" opacity=".2"/><line x1="398" x2="398" y1="472" y2="52" stroke="#000" stroke-width="1" opacity=".2"/><line x1="505" x2="505" y1="472" y2="52" stroke="#000" stroke-width="1" opacity=".2"/><line x1="612" x2="612" y1="472" y2="52" stroke="#000" stroke-width="1" opacity=".2"/><line x1="719" x2="719" y1="472" y2="52" stroke="#000" stroke-width="1" opacity=".2"/><line x1="826" x2="826" y1="472" y2="52" stroke="#000" stroke-width="1" opacity=".2"/><line x1="933" x2="933" y1="472" y2="52" stroke="#000" stroke-width="1" opacity=".2"/><line x1="87" x2="933" y1="396" y2="396" stroke="#000" stroke-width="1" opacity=".2"/><line x1="87" x2="933" y1="313" y2="313" stroke="#000" stroke-width="1" opacity=".2"/><line x1="87" x2="933" y1="231" y2="231" stroke="#000" stroke-width="1" opacity=".2"/><line x1="87" x2="933" y1="149" y2="149" stroke="#000" stroke-width="1" opacity=".2"/><line x1="87" x2="933" y1="66" y2="66" stroke="#000" stroke-width="1" opacity=".2"/><polyline fill="none" stroke="#000" stroke-width="1" points="86 53 86 473" opacity="1"/><text x="77" y="396" fill="#000" dy=".5ex" font-family="sans-serif" font-size="9.677" opacity="1" text-anchor="end">20.0</text><polyline fill="none" stroke="#000" stroke-width="1" points="81 396 86 396" opacity="1"/><text x="77" y="313" fill="#000" dy=".5ex" font-family="sans-serif" font-size="9.677" opacity="1" text-anchor="end">40.0</text><polyline fill="none" stroke="#000" stroke-width="1" points="81 313 86 313" opacity="1"/><text x="77" y="231" fill="#000" dy=".5ex" font-family="sans-serif" font-size="9.677" opacity="1" text-anchor="end">60.0</text><polyline fill="none" stroke="#000" stroke-width="1" points="81 231 86 231" opacity="1"/><text x="77" y="149" fill="#000" dy=".5ex" font-family="sans-serif" font-size="9.677" opacity="1" text-anchor="end">80.0</text><polyline fill="none" stroke="#000" stroke-width="1" points="81 149 86 149" opacity="1"/><text x="77" y="66" fill="#000" dy=".5ex" font-family="sans-serif" font-size="9.677" opacity="1" text-anchor="end">100.0</text><polyline fill="none" stroke="#000" stroke-width="1" points="81 66 86 66" opacity="1"/><polyline fill="none" stroke="#000" stroke-width="1" points="87 473 933 473" opacity="1"/><text x="185" y="483" fill="#000" dy=".76em" font-family="sans-serif" font-size="9.677" opacity="1" text-anchor="middle">50</text><polyline fill="none" stroke="#000" stroke-width="1" points="185 473 185 478" opacity="1"/><text x="292" y="483" fill="#000" dy=".76em" font-family="sans-serif" font-size="9.677" opacity="1" text-anchor="middle">100</text><polyline fill="none" stroke="#000" stroke-width="1" points="292 473 292 478" opacity="1"/><text x="398" y="483" fill="#000" dy=".76em" font-family="sans-serif" font-size="9.677" opacity="1" text-anchor="middle">150</text><polyline fill="none" stroke="#000" stroke-width="1" points="398 473 398 478" opacity="1"/><text x="505" y="483" fill="#000" dy=".76em" font-family="sans-serif" font-size="9.677" opacity="1" text-anchor="middle">200</text><polyline fill="none" stroke="#000" stroke-width="1" points="505 473 505 478" opacity="1"/><text x="612" y="483" fill="#000" dy=".76em" font-family="sans-serif" font-size="9.677" opacity="1" text-anchor="middle">250</text><polyline fill="none" stroke="#000" stroke-width="1" points="612 473 612 478" opacity="1"/><text x="719" y="483" fill="#000" dy=".76em" font-family="sans-serif" font-size="9.677" opacity="1" text-anchor="middle">300</text><polyline fill="none" stroke="#000" stroke-width="1" points="719 473 719 478" opacity="1"/><text x="826" y="483" fill="#000" dy=".76em" font-family="sans-serif" font-size="9.677" opacity="1" text-anchor="middle">350</text><polyline fill="none" stroke="#000" stroke-width="1" points="826 473 826 478" opacity="1"/><text x="933" y="483" fill="#000" dy=".76em" font-family="sans-serif" font-size="9.677" opacity="1" text-anchor="middle">400</text><polyline fill="none" stroke="#000" stroke-width="1" points="933 473 933 478" opacity="1"/><circle cx="87" cy="472" r="3" fill="#1F78B4" stroke="none" opacity="1"/><circle cx="95" cy="467" r="3" fill="#1F78B4" stroke="none" opacity="1"/><circle cx="104" cy="463" r="3" fill="#1F78B4" stroke="none" opacity="1"/><circle cx="112" cy="458" r="3" fill="#1F78B4" stroke="none" opacity="1"/><circle cx="121" cy="455" r="3" fill="#1F78B4" stroke="none" opacity="1"/><circle cx="129" cy="450" r="3" fill="#1F78B4" stroke="none" opacity="1"/><circle cx="138" cy="446" r="3" fill="#1F78B4" stroke="none" opacity="1"/><circle cx="146" cy="442" r="3" fill="#1F78B4" stroke="none" opacity="1"/><circle cx="155" cy="436" r="3" fill="#1F78B4" stroke="none" opacity="1"/><circle cx="163" cy="432" r="3" fill="#1F78B4" stroke="none" opacity="1"/><circle cx="172" cy="429" r="3" fill="#1F78B4" stroke="none" opacity="1"/><circle cx="181" cy="424" r="3" fill="#1F78B4" stroke="none" opacity="1"/><circle cx="189" cy="419" r="3" fill="#1F78B4" stroke="none" opacity="1"/><circle cx="198" cy="416" r="3" fill="#1F78B4" stroke="none" opacity="1"/><circle cx="206" cy="411" r="3" fill="#1F78B4" stroke="none" opacity="1"/><circle cx="215" cy="409" r="3" fill="#1F78B4" stroke="none" opacity="1"/><circle cx="223" cy="401" r="3" fill="#1F78B4" stroke="none" opacity="1"/><circle cx="232" cy="399" r="3" fill="#1F78B4" stroke="none" opacity="1"/><circle cx="240" cy="393" r="3" fill="#1F78B4" stroke="none" opacity="1"/><circle cx="249" cy="391" r="3" fill="#1F78B4" stroke="none" opacity="1"/><circle cx="257" cy="386" r="3" fill="#1F78B4" stroke="none" opacity="1"/><circle cx="266" cy="384" r="3" fill="#1F78B4" stroke="none" opacity="1"/><circle cx="275" cy="379" r="3" fill="#1F78B4" stroke="none" opacity="1"/><circle cx="283" cy="375" r="3" fill="#1F78B4" stroke="none" opacity="1"/><circle cx="292" cy="368" r="3" fill="#1F78B4" stroke="none" opacity="1"/><circle cx="300" cy="367" r="3" fill="#1F78B4" stroke="none" opacity="1"/><circle cx="309" cy="359" r="3" fill="#1F78B4" stroke="none" opacity="1"/><circle cx="317" cy="356" r="3" fill="#1F78B4" stroke="none" opacity="1"/><circle cx="326" cy="353" r="3" fill="#1F78B4" stroke="none" opacity="1"/><circle cx="334" cy="348" r="3" fill="#1F78B4" stroke="none" opacity="1"/><circle cx="343" cy="342" r="3" fill="#1F78B4" stroke="none" opacity="1"/><circle cx="351" cy="340" r="3" fill="#1F78B4" stroke="none" opacity="1"/><circle cx="360" cy="337" r="3" fill="#1F78B4" stroke="none" opacity="1"/><circle cx="369" cy="334" r="3" fill="#1F78B4" stroke="none" opacity="1"/><circle cx="377" cy="326" r="3" fill="#1F78B4" stroke="none" opacity="1"/><circle cx="386" cy="324" r="3" fill="#1F78B4" stroke="none" opacity="1"/><circle cx="394" cy="314" r="3" fill="#1F78B4" stroke="none" opacity="1"/><circle cx="403" cy="314" r="3" fill="#1F78B4" stroke="none" opacity="1"/><circle cx="411" cy="309" r="3" fill="#1F78B4" stroke="none" opacity="1"/><circle cx="420" cy="303" r="3" fill="#1F78B4" stroke="none" opacity="1"/><circle cx="428" cy="301" r="3" fill="#1F78B4" stroke="none" opacity="1"/><circle cx="437" cy="293" r="3" fill="#1F78B4" stroke="none" opacity="1"/><circle cx="445" cy="291" r="3" fill="#1F78B4" stroke="none" opacity="1"/><circle cx="454" cy="287" r="3" fill="#1F78B4" stroke="none" opacity="1"/><circle cx="463" cy="285" r="3" fill="#1F78B4" stroke="none" opacity="1"/><circle cx="471" cy="278" r="3" fill="#1F78B4" stroke="none" opacity="1"/><circle cx="480" cy="272" r="3" fill="#1F78B4" stroke="none" opacity="1"/><circle cx="488" cy="271" r="3" fill="#1F78B4" stroke="none" opacity="1"/><circle cx="497" cy="267" r="3" fill="#1F78B4" stroke="none" opacity="1"/><circle cx="505" cy="261" r="3" fill="#1F78B4" stroke="none" opacity="1"/><circle cx="514" cy="258" r="3" fill="#1F78B4" stroke="none" opacity="1"/><circle cx="522" cy="258" r="3" fill="#1F78B4" stroke="none" opacity="1"/><circle cx="531" cy="251" r="3" fill="#1F78B4" stroke="none" opacity="1"/><circle cx="539" cy="249" r="3" fill="#1F78B4" stroke="none" opacity="1"/><circle cx="548" cy="238" r="3" fill="#1F78B4" stroke="none" opacity="1"/><circle cx="557" cy="231" r="3" fill="#1F78B4" stroke="none" opacity="1"/><circle cx="565" cy="234" r="3" fill="#1F78B4" stroke="none" opacity="1"/><circle cx="574" cy="225" r="3" fill="#1F78B4" stroke="none" opacity="1"/><circle cx="582" cy="226" r="3" fill="#1F78B4" stroke="none" opacity="1"/><circle cx="591" cy="226" r="3" fill="#1F78B4" stroke="none" opacity="1"/><circle cx="599" cy="218" r="3" fill="#1F78B4" stroke="none" opacity="1"/><circle cx="608" cy="211" r="3" fill="#1F78B4" stroke="none" opacity="1"/><circle cx="616" cy="210" r="3" fill="#1F78B4" stroke="none" opacity="1"/><circle cx="625" cy="203" r="3" fill="#1F78B4" stroke="none" opacity="1"/><circle cx="633" cy="198" r="3" fill="#1F78B4" stroke="none" opacity="1"/><circle cx="642" cy="196" r="3" fill="#1F78B4" stroke="none" opacity="1"/><circle cx="651" cy="192" r="3" fill="#1F78B4" stroke="none" opacity="1"/><circle cx="659" cy="189" r="3" fill="#1F78B4" stroke="none" opacity="1"/><circle cx="668" cy="183" r="3" fill="#1F78B4" stroke="none" opacity="1"/><circle cx="676" cy="186" r="3" fill="#1F78B4" stroke="none" opacity="1"/><circle cx="685" cy="175" r="3" fill="#1F78B4" stroke="none" opacity="1"/><circle cx="693" cy="162" r="3" fill="#1F78B4" stroke="none" opacity="1"/><circle cx="702" cy="161" r="3" fill="#1F78B4" stroke="none" opacity="1"/><circle cx="710" cy="161" r="3" fill="#1F78B4" stroke="none" opacity="1"/><circle cx="719" cy="159" r="3" fill="#1F78B4" stroke="none" opacity="1"/><circle cx="727" cy="154" r="3" fill="#1F78B4" stroke="none" opacity="1"/><circle cx="736" cy="150" r="3" fill="#1F78B4" stroke="none" opacity="1"/><circle cx="745" cy="137" r="3" fill="#1F78B4" stroke="none" opacity="1"/><circle cx="753" cy="140" r="3" fill="#1F78B4" stroke="none" opacity="1"/><circle cx="762" cy="139" r="3" fill="#1F78B4" stroke="none" opacity="1"/><circle cx="770" cy="131" r="3" fill="#1F78B4" stroke="none" opacity="1"/><circle cx="779" cy="131" r="3" fill="#1F78B4" stroke="none" opacity="1"/><circle cx="787" cy="125" r="3" fill="#1F78B4" stroke="none" opacity="1"/><circle cx="796" cy="123" r="3" fill="#1F78B4" stroke="none" opacity="1"/><circle cx="804" cy="116" r="3" fill="#1F78B4" stroke="none" opacity="1"/><circle cx="813" cy="113" r="3" fill="#1F78B4" stroke="none" opacity="1"/><circle cx="821" cy="116" r="3" fill="#1F78B4" stroke="none" opacity="1"/><circle cx="830" cy="98" r="3" fill="#1F78B4" stroke="none" opacity="1"/><circle cx="839" cy="106" r="3" fill="#1F78B4" stroke="none" opacity="1"/><circle cx="847" cy="95" r="3" fill="#1F78B4" stroke="none" opacity="1"/><circle cx="856" cy="88" r="3" fill="#1F78B4" stroke="none" opacity="1"/><circle cx="864" cy="95" r="3" fill="#1F78B4" stroke="none" opacity="1"/><circle cx="873" cy="80" r="3" fill="#1F78B4" stroke="none" opacity="1"/><circle cx="881" cy="77" r="3" fill="#1F78B4" stroke="none" opacity="1"/><circle cx="890" cy="68" r="3" fill="#1F78B4" stroke="none" opacity="1"/><circle cx="898" cy="71" r="3" fill="#1F78B4" stroke="none" opacity="1"/><circle cx="907" cy="65" r="3" fill="#1F78B4" stroke="none" opacity="1"/><circle cx="915" cy="53" r="3" fill="#1F78B4" stroke="none" opacity="1"/><circle cx="924" cy="53" r="3" fill="#1F78B4" stroke="none" opacity="1"/><circle cx="933" cy="53" r="3" fill="#1F78B4" stroke="none" opacity="1"/><polyline fill="none" stroke="#1F78B4" stroke-width="1" points="87 473 933 53" opacity="1"/><polygon fill="#1F78B4" points="87 473 933 53 933 53" opacity=".25"/><text x="132" y="68" fill="#000" dy=".76em" font-family="sans-serif" font-size="9.677" opacity="1" text-anchor="start">Sample</text><text x="132" y="83" fill="#000" dy=".76em" font-family="sans-serif" font-size="9.677" opacity="1" text-anchor="start">Linear regression</text><text x="132" y="98" fill="#000" dy=".76em" font-family="sans-serif" font-size="9.677" opacity="1" text-anchor="start">Confidence interval</text><circle cx="112" cy="73" r="3" fill="#1F78B4" stroke="none" opacity="1"/><polyline fill="none" stroke="#1F78B4" stroke-width="2" points="102 88 122 88" opacity="1"/><rect width="20" height="10" x="102" y="98" fill="#1F78B4" stroke="none" opacity=".25"/></svg>