<svg xmlns="http://www.w3.org/2000/svg" width="960" height="540"><text x="480" y="32" fill="#000" dy=".76em" font-family="sans-serif" font-size="16.129" opacity="1" text-anchor="middle">bench_group/threads_48/1048576</text><text x="27" y="263" fill="#000" dy=".76em" font-family="sans-serif" font-size="9.677" opacity="1" text-anchor="middle" transform="rotate(270, 27, 263)">Total sample time (ms)</text><text x="510" y="513" fill="#000" dy="-.5ex" font-family="sans-serif" font-size="9.677" opacity="1" text-anchor="middle">Iterations (x 10^3)</text><line x1="163" x2="163" y1="472" y2="52" stroke="#000" stroke-width="1" opacity=".2"/><line x1="249" x2="249" y1="472" y2="52" stroke="#000" stroke-width="1" opacity=".2"/><line x1="334" x2="334" y1="472" y2="52" stroke="#000" stroke-width="1" opacity=".2"/><line x1="420" x2="420" y1="472" y2="52" stroke="#000" stroke-width="1" opacity=".2"/><line x1="505" x2="505" y1="472" y2="52" stroke="#000" stroke-width="1" opacity=".2"/><line x1="591" x2="591" y1="472" y2="52" stroke="#000" stroke-width="1" opacity=".2"/><line x1="676" x2="676" y1="472" y2="52" stroke="#000" stroke-width="1" opacity=".2"/><line x1="762" x2="762" y1="472" y2="52" stroke="#000" stroke-width="1" opacity=".2"/><line x1="847" x2="847" y1="472" y2="52" stroke="#000" stroke-width="1" opacity=".2"/><line x1="933" x2="933" y1="472" y2="52" stroke="#000" stroke-width="1" opacity=".2"/><line x1="87" x2="933" y1="434" y2="434" stroke="#000" stroke-width="1" opacity=".2"/><line x1="87" x2="933" y1="392" y2="392" stroke="#000" stroke-width="1" opacity=".2"/><line x1="87" x2="933" y1="349" y2="349" stroke="#000" stroke-width="1" opacity=".2"/><line x1="87" x2="933" y1="307" y2="307" stroke="#000" stroke-width="1" opacity=".2"/><line x1="87" x2="933" y1="265" y2="265" stroke="#000" stroke-width="1" opacity=".2"/><line x1="87" x2="933" y1="223" y2="223" stroke="#000" stroke-width="1" opacity=".2"/><line x1="87" x2="933" y1="180" y2="180" stroke="#000" stroke-width="1" opacity=".2"/><line x1="87" x2="933" y1="138" y2="138" stroke="#000" stroke-width="1" opacity=".2"/><line x1="87" x2="933" y1="96" y2="96" stroke="#000" stroke-width="1" opacity=".2"/><line x1="87" x2="933" y1="54" y2="54" stroke="#000" stroke-width="1" opacity=".2"/><polyline fill="none" stroke="#000" stroke-width="1" points="86 53 86 473" opacity="1"/><text x="77" y="434" fill="#000" dy=".5ex" font-family="sans-serif" font-size="9.677" opacity="1" text-anchor="end">10.0</text><polyline fill="none" stroke="#000" stroke-width="1" points="81 434 86 434" opacity="1"/><text x="77" y="392" fill="#000" dy=".5ex" font-family="sans-serif" font-size="9.677" opacity="1" text-anchor="end">20.0</text><polyline fill="none" stroke="#000" stroke-width="1" points="81 392 86 392" opacity="1"/><text x="77" y="349" fill="#000" dy=".5ex" font-family="sans-serif" font-size="9.677" opacity="1" text-anchor="end">30.0</text><polyline fill="none" stroke="#000" stroke-width="1" points="81 349 86 349" opacity="1"/><text x="77" y="307" fill="#000" dy=".5ex" font-family="sans-serif" font-size="9.677" opacity="1" text-anchor="end">40.0</text><polyline fill="none" stroke="#000" stroke-width="1" points="81 307 86 307" opacity="1"/><text x="77" y="265" fill="#000" dy=".5ex" font-family="sans-serif" font-size="9.677" opacity="1" text-anchor="end">50.0</text><polyline fill="none" stroke="#000" stroke-width="1" points="81 265 86 265" opacity="1"/><text x="77" y="223" fill="#000" dy=".5ex" font-family="sans-serif" font-size="9.677" opacity="1" text-anchor="end">60.0</text><polyline fill="none" stroke="#000" stroke-width="1" points="81 223 86 223" opacity="1"/><text x="77" y="180" fill="#000" dy=".5ex" font-family="sans-serif" font-size="9.677" opacity="1" text-anchor="end">70.0</text><polyline fill="none" stroke="#000" stroke-width="1" points="81 180 86 180" opacity="1"/><text x="77" y="138" fill="#000" dy=".5ex" font-family="sans-serif" font-size="9.677" opacity="1" text-anchor="end">80.0</text><polyline fill="none" stroke="#000" stroke-width="1" points="81 138 86 138" opacity="1"/><text x="77" y="96" fill="#000" dy=".5ex" font-family="sans-serif" font-size="9.677" opacity="1" text-anchor="end">90.0</text><polyline fill="none" stroke="#000" stroke-width="1" points="81 96 86 96" opacity="1"/><text x="77" y="54" fill="#000" dy=".5ex" font-family="sans-serif" font-size="9.677" opacity="1" text-anchor="end">100.0</text><polyline fill="none" stroke="#000" stroke-width="1" points="81 54 86 54" opacity="1"/><polyline fill="none" stroke="#000" stroke-width="1" points="87 473 933 473" opacity="1"/><text x="163" y="483" fill="#000" dy=".76em" font-family="sans-serif" font-size="9.677" opacity="1" text-anchor="middle">0.2</text><polyline fill="none" stroke="#000" stroke-width="1" points="163 473 163 478" opacity="1"/><text x="249" y="483" fill="#000" dy=".76em" font-family="sans-serif" font-size="9.677" opacity="1" text-anchor="middle">0.4</text><polyline fill="none" stroke="#000" stroke-width="1" points="249 473 249 478" opacity="1"/><text x="334" y="483" fill="#000" dy=".76em" font-family="sans-serif" font-size="9.677" opacity="1" text-anchor="middle">0.6</text><polyline fill="none" stroke="#000" stroke-width="1" points="334 473 334 478" opacity="1"/><text x="420" y="483" fill="#000" dy=".76em" font-family="sans-serif" font-size="9.677" opacity="1" text-anchor="middle">0.8</text><polyline fill="none" stroke="#000" stroke-width="1" points="420 473 420 478" opacity="1"/><text x="505" y="483" fill="#000" dy=".76em" font-family="sans-serif" font-size="9.677" opacity="1" text-anchor="middle">1</text><polyline fill="none" stroke="#000" stroke-width="1" points="505 473 505 478" opacity="1"/><text x="591" y="483" fill="#000" dy=".76em" font-family="sans-serif" font-size="9.677" opacity="1" text-anchor="middle">1.2</text><polyline fill="none" stroke="#000" stroke-width="1" points="591 473 591 478" opacity="1"/><text x="676" y="483" fill="#000" dy=".76em" font-family="sans-serif" font-size="9.677" opacity="1" text-anchor="middle">1.4</text><polyline fill="none" stroke="#000" stroke-width="1" points="676 473 676 478" opacity="1"/><text x="762" y="483" fill="#000" dy=".76em" font-family="sans-serif" font-size="9.677" opacity="1" text-anchor="middle">1.6</text><polyline fill="none" stroke="#000" stroke-width="1" points="762 473 762 478" opacity="1"/><text x="847" y="483" fill="#000" dy=".76em" font-family="sans-serif" font-size="9.677" opacity="1" text-anchor="middle">1.8</text><polyline fill="none" stroke="#000" stroke-width="1" points="847 473 847 478" opacity="1"/><text x="933" y="483" fill="#000" dy=".76em" font-family="sans-serif" font-size="9.677" opacity="1" text-anchor="middle">2</text><polyline fill="none" stroke="#000" stroke-width="1" points="933 473 933 478" opacity="1"/><circle cx="87" cy="472" r="3" fill="#1F78B4" stroke="none" opacity="1"/><circle cx="95" cy="468" r="3" fill="#1F78B4" stroke="none" opacity="1"/><circle cx="104" cy="463" r="3" fill="#1F78B4" stroke="none" opacity="1"/><circle cx="112" cy="459" r="3" fill="#1F78B4" stroke="none" opacity="1"/><circle cx="121" cy="454" r="3" fill="#1F78B4" stroke="none" opacity="1"/><circle cx="129" cy="450" r="3" fill="#1F78B4" stroke="none" opacity="1"/><circle cx="138" cy="446" r="3" fill="#1F78B4" stroke="none" opacity="1"/><circle cx="146" cy="442" r="3" fill="#1F78B4" stroke="none" opacity="1"/><circle cx="155" cy="436" r="3" fill="#1F78B4" stroke="none" opacity="1"/><circle cx="163" cy="434" r="3" fill="#1F78B4" stroke="none" opacity="1"/><circle cx="172" cy="430" r="3" fill="#1F78B4" stroke="none" opacity="1"/><circle cx="181" cy="427" r="3" fill="#1F78B4" stroke="none" opacity="1"/><circle cx="189" cy="421" r="3" fill="#1F78B4" stroke="none" opacity="1"/><circle cx="198" cy="419" r="3" fill="#1F78B4" stroke="none" opacity="1"/><circle cx="206" cy="413" r="3" fill="#1F78B4" stroke="none" opacity="1"/><circle cx="215" cy="406" r="3" fill="#1F78B4" stroke="none" opacity="1"/><circle cx="223" cy="408" r="3" fill="#1F78B4" stroke="none" opacity="1"/><circle cx="232" cy="401" r="3" fill="#1F78B4" stroke="none" opacity="1"/><circle cx="240" cy="397" r="3" fill="#1F78B4" stroke="none" opacity="1"/><circle cx="249" cy="392" r="3" fill="#1F78B4" stroke="none" opacity="1"/><circle cx="257" cy="387" r="3" fill="#1F78B4" stroke="none" opacity="1"/><circle cx="266" cy="381" r="3" fill="#1F78B4" stroke="none" opacity="1"/><circle cx="275" cy="380" r="3" fill="#1F78B4" stroke="none" opacity="1"/><circle cx="283" cy="375" r="3" fill="#1F78B4" stroke="none" opacity="1"/><circle cx="292" cy="370" r="3" fill="#1F78B4" stroke="none" opacity="1"/><circle cx="300" cy="364" r="3" fill="#1F78B4" stroke="none" opacity="1"/><circle cx="309" cy="361" r="3" fill="#1F78B4" stroke="none" opacity="1"/><circle cx="317" cy="363" r="3" fill="#1F78B4" stroke="none" opacity="1"/><circle cx="326" cy="356" r="3" fill="#1F78B4" stroke="none" opacity="1"/><circle cx="334" cy="354" r="3" fill="#1F78B4" stroke="none" opacity="1"/><circle cx="343" cy="349" r="3" fill="#1F78B4" stroke="none" opacity="1"/><circle cx="351" cy="345" r="3" fill="#1F78B4" stroke="none" opacity="1"/><circle cx="360" cy="338" r="3" fill="#1F78B4" stroke="none" opacity="1"/><circle cx="369" cy="340" r="3" fill="#1F78B4" stroke="none" opacity="1"/><circle cx="377" cy="325" r="3" fill="#1F78B4" stroke="none" opacity="1"/><circle cx="386" cy="327" r="3" fill="#1F78B4" stroke="none" opacity="1"/><circle cx="394" cy="319" r="3" fill="#1F78B4" stroke="none" opacity="1"/><circle cx="403" cy="314" r="3" fill="#1F78B4" stroke="none" opacity="1"/><circle cx="411" cy="314" r="3" fill="#1F78B4" stroke="none" opacity="1"/><circle cx="420" cy="312" r="3" fill="#1F78B4" stroke="none" opacity="1"/><circle cx="428" cy="313" r="3" fill="#1F78B4" stroke="none" opacity="1"/><circle cx="437" cy="298" r="3" fill="#1F78B4" stroke="none" opacity="1"/><circle cx="445" cy="296" r="3" fill="#1F78B4" stroke="none" opacity="1"/><circle cx="454" cy="293" r="3" fill="#1F78B4" stroke="none" opacity="1"/><circle cx="463" cy="290" r="3" fill="#1F78B4" stroke="none" opacity="1"/><circle cx="471" cy="287" r="3" fill="#1F78B4" stroke="none" opacity="1"/><circle cx="480" cy="276" r="3" fill="#1F78B4" stroke="none" opacity="1"/><circle cx="488" cy="275" r="3" fill="#1F78B4" stroke="none" opacity="1"/><circle cx="497" cy="273" r="3" fill="#1F78B4" stroke="none" opacity="1"/><circle cx="505" cy="270" r="3" fill="#1F78B4" stroke="none" opacity="1"/><circle cx="514" cy="261" r="3" fill="#1F78B4" stroke="none" opacity="1"/><circle cx="522" cy="262" r="3" fill="#1F78B4" stroke="none" opacity="1"/><circle cx="531" cy="257" r="3" fill="#1F78B4" stroke="none" opacity="1"/><circle cx="539" cy="246" r="3" fill="#1F78B4" stroke="none" opacity="1"/><circle cx="548" cy="245" r="3" fill="#1F78B4" stroke="none" opacity="1"/><circle cx="557" cy="243" r="3" fill="#1F78B4" stroke="none" opacity="1"/><circle cx="565" cy="236" r="3" fill="#1F78B4" stroke="none" opacity="1"/><circle cx="574" cy="230" r="3" fill="#1F78B4" stroke="none" opacity="1"/><circle cx="582" cy="232" r="3" fill="#1F78B4" stroke="none" opacity="1"/><circle cx="591" cy="221" r="3" fill="#1F78B4" stroke="none" opacity="1"/><circle cx="599" cy="221" r="3" fill="#1F78B4" stroke="none" opacity="1"/><circle cx="608" cy="211" r="3" fill="#1F78B4" stroke="none" opacity="1"/><circle cx="616" cy="213" r="3" fill="#1F78B4" stroke="none" opacity="1"/><circle cx="625" cy="215" r="3" fill="#1F78B4" stroke="none" opacity="1"/><circle cx="633" cy="211" r="3" fill="#1F78B4" stroke="none" opacity="1"/><circle cx="642" cy="200" r="3" fill="#1F78B4" stroke="none" opacity="1"/><circle cx="651" cy="203" r="3" fill="#1F78B4" stroke="none" opacity="1"/><circle cx="659" cy="191" r="3" fill="#1F78B4" stroke="none" opacity="1"/><circle cx="668" cy="188" r="3" fill="#1F78B4" stroke="none" opacity="1"/><circle cx="676" cy="186" r="3" fill="#1F78B4" stroke="none" opacity="1"/><circle cx="685" cy="189" r="3" fill="#1F78B4" stroke="none" opacity="1"/><circle cx="693" cy="175" r="3" fill="#1F78B4" stroke="none" opacity="1"/><circle cx="702" cy="181" r="3" fill="#1F78B4" stroke="none" opacity="1"/><circle cx="710" cy="177" r="3" fill="#1F78B4" stroke="none" opacity="1"/><circle cx="719" cy="164" r="3" fill="#1F78B4" stroke="none" opacity="1"/><circle cx="727" cy="156" r="3" fill="#1F78B4" stroke="none" opacity="1"/><circle cx="736" cy="157" r="3" fill="#1F78B4" stroke="none" opacity="1"/><circle cx="745" cy="145" r="3" fill="#1F78B4" stroke="none" opacity="1"/><circle cx="753" cy="140" r="3" fill="#1F78B4" stroke="none" opacity="1"/><circle cx="762" cy="132" r="3" fill="#1F78B4" stroke="none" opacity="1"/><circle cx="770" cy="140" r="3" fill="#1F78B4" stroke="none" opacity="1"/><circle cx="779" cy="135" r="3" fill="#1F78B4" stroke="none" opacity="1"/><circle cx="787" cy="122" r="3" fill="#1F78B4" stroke="none" opacity="1"/><circle cx="796" cy="123" r="3" fill="#1F78B4" stroke="none" opacity="1"/><circle cx="804" cy="134" r="3" fill="#1F78B4" stroke="none" opacity="1"/><circle cx="813" cy="112" r="3" fill="#1F78B4" stroke="none" opacity="1"/><circle cx="821" cy="114" r="3" fill="#1F78B4" stroke="none" opacity="1"/><circle cx="830" cy="103" r="3" fill="#1F78B4" stroke="none" opacity="1"/><circle cx="839" cy="103" r="3" fill="#1F78B4" stroke="none" opacity="1"/><circle cx="847" cy="103" r="3" fill="#1F78B4" stroke="none" opacity="1"/><circle cx="856" cy="90" r="3" fill="#1F78B4" stroke="none" opacity="1"/><circle cx="864" cy="92" r="3" fill="#1F78B4" stroke="none" opacity="1"/><circle cx="873" cy="88" r="3" fill="#1F78B4" stroke="none" opacity="1"/><circle cx="881" cy="84" r="3" fill="#1F78B4" stroke="none" opacity="1"/><circle cx="890" cy="76" r="3" fill="#1F78B4" stroke="none" opacity="1"/><circle cx="898" cy="74" r="3" fill="#1F78B4" stroke="none" opacity="1"/><circle cx="907" cy="67" r="3" fill="#1F78B4" stroke="none" opacity="1"/><circle cx="915" cy="65" r="3" fill="#1F78B4" stroke="none" opacity="1"/><circle cx="924" cy="65" r="3" fill="#1F78B4" stroke="none" opacity="1"/><circle cx="933" cy="53" r="3" fill="#1F78B4" stroke="none" opacity="1"/><polyline fill="none" stroke="#1F78B4" stroke-width="1" points="87 473 933 58" opacity="1"/><polygon fill="#1F78B4" points="87 473 933 60 933 57" opacity=".25"/><text x="132" y="68" fill="#000" dy=".76em" font-family="sans-serif" font-size="9.677" opacity="1" text-anchor="start">Sample</text><text x="132" y="83" fill="#000" dy=".76em" font-family="sans-serif" font-size="9.677" opacity="1" text-anchor="start">Linear regression</text><text x="132" y="98" fill="#000" dy=".76em" font-family="sans-serif" font-size="9.677" opacity="1" text-anchor="start">Confidence interval</text><circle cx="112" cy="73" r="3" fill="#1F78B4" stroke="none" opacity="1"/><polyline fill="none" stroke="#1F78B4" stroke-width="2" points="102 88 122 88" opacity="1"/><rect width="20" height="10" x="102" y="98" fill="#1F78B4" stroke="none" opacity=".25"/></svg>