<svg xmlns="http://www.w3.org/2000/svg" width="960" height="540"><text x="480" y="32" fill="#000" dy=".76em" font-family="sans-serif" font-size="16.129" opacity="1" text-anchor="middle">bench_group/threads_08/65536</text><text x="27" y="263" fill="#000" dy=".76em" font-family="sans-serif" font-size="9.677" opacity="1" text-anchor="middle" transform="rotate(270, 27, 263)">Iterations (x 10^3)</text><text x="480" y="513" fill="#000" dy="-.5ex" font-family="sans-serif" font-size="9.677" opacity="1" text-anchor="middle">Average Time (us)</text><polyline fill="none" stroke="#000" stroke-width="1" points="86 53 86 473" opacity="1"/><text x="77" y="417" fill="#000" dy=".5ex" font-family="sans-serif" font-size="9.677" opacity="1" text-anchor="end">2</text><polyline fill="none" stroke="#000" stroke-width="1" points="81 417 86 417" opacity="1"/><text x="77" y="363" fill="#000" dy=".5ex" font-family="sans-serif" font-size="9.677" opacity="1" text-anchor="end">4</text><polyline fill="none" stroke="#000" stroke-width="1" points="81 363 86 363" opacity="1"/><text x="77" y="309" fill="#000" dy=".5ex" font-family="sans-serif" font-size="9.677" opacity="1" text-anchor="end">6</text><polyline fill="none" stroke="#000" stroke-width="1" points="81 309 86 309" opacity="1"/><text x="77" y="255" fill="#000" dy=".5ex" font-family="sans-serif" font-size="9.677" opacity="1" text-anchor="end">8</text><polyline fill="none" stroke="#000" stroke-width="1" points="81 255 86 255" opacity="1"/><text x="77" y="201" fill="#000" dy=".5ex" font-family="sans-serif" font-size="9.677" opacity="1" text-anchor="end">10</text><polyline fill="none" stroke="#000" stroke-width="1" points="81 201 86 201" opacity="1"/><text x="77" y="146" fill="#000" dy=".5ex" font-family="sans-serif" font-size="9.677" opacity="1" text-anchor="end">12</text><polyline fill="none" stroke="#000" stroke-width="1" points="81 146 86 146" opacity="1"/><text x="77" y="92" fill="#000" dy=".5ex" font-family="sans-serif" font-size="9.677" opacity="1" text-anchor="end">14</text><polyline fill="none" stroke="#000" stroke-width="1" points="81 92 86 92" opacity="1"/><polyline fill="none" stroke="#000" stroke-width="1" points="87 473 873 473" opacity="1"/><text x="176" y="483" fill="#000" dy=".76em" font-family="sans-serif" font-size="9.677" opacity="1" text-anchor="middle">5.4</text><polyline fill="none" stroke="#000" stroke-width="1" points="176 473 176 478" opacity="1"/><text x="280" y="483" fill="#000" dy=".76em" font-family="sans-serif" font-size="9.677" opacity="1" text-anchor="middle">5.6</text><polyline fill="none" stroke="#000" stroke-width="1" points="280 473 280 478" opacity="1"/><text x="384" y="483" fill="#000" dy=".76em" font-family="sans-serif" font-size="9.677" opacity="1" text-anchor="middle">5.8</text><polyline fill="none" stroke="#000" stroke-width="1" points="384 473 384 478" opacity="1"/><text x="489" y="483" fill="#000" dy=".76em" font-family="sans-serif" font-size="9.677" opacity="1" text-anchor="middle">6</text><polyline fill="none" stroke="#000" stroke-width="1" points="489 473 489 478" opacity="1"/><text x="593" y="483" fill="#000" dy=".76em" font-family="sans-serif" font-size="9.677" opacity="1" text-anchor="middle">6.2</text><polyline fill="none" stroke="#000" stroke-width="1" points="593 473 593 478" opacity="1"/><text x="697" y="483" fill="#000" dy=".76em" font-family="sans-serif" font-size="9.677" opacity="1" text-anchor="middle">6.4</text><polyline fill="none" stroke="#000" stroke-width="1" points="697 473 697 478" opacity="1"/><text x="801" y="483" fill="#000" dy=".76em" font-family="sans-serif" font-size="9.677" opacity="1" text-anchor="middle">6.6</text><polyline fill="none" stroke="#000" stroke-width="1" points="801 473 801 478" opacity="1"/><text x="933" y="263" fill="#000" dy=".76em" font-family="sans-serif" font-size="9.677" opacity="1" text-anchor="middle" transform="rotate(90, 933, 263)">Density (a.u.)</text><polyline fill="none" stroke="#000" stroke-width="1" points="873 54 873 473" opacity="1"/><text x="883" y="426" fill="#000" dy=".5ex" font-family="sans-serif" font-size="9.677" opacity="1" text-anchor="start">0.5</text><polyline fill="none" stroke="#000" stroke-width="1" points="873 426 878 426" opacity="1"/><text x="883" y="379" fill="#000" dy=".5ex" font-family="sans-serif" font-size="9.677" opacity="1" text-anchor="start">1</text><polyline fill="none" stroke="#000" stroke-width="1" points="873 379 878 379" opacity="1"/><text x="883" y="332" fill="#000" dy=".5ex" font-family="sans-serif" font-size="9.677" opacity="1" text-anchor="start">1.5</text><polyline fill="none" stroke="#000" stroke-width="1" points="873 332 878 332" opacity="1"/><text x="883" y="285" fill="#000" dy=".5ex" font-family="sans-serif" font-size="9.677" opacity="1" text-anchor="start">2</text><polyline fill="none" stroke="#000" stroke-width="1" points="873 285 878 285" opacity="1"/><text x="883" y="239" fill="#000" dy=".5ex" font-family="sans-serif" font-size="9.677" opacity="1" text-anchor="start">2.5</text><polyline fill="none" stroke="#000" stroke-width="1" points="873 239 878 239" opacity="1"/><text x="883" y="192" fill="#000" dy=".5ex" font-family="sans-serif" font-size="9.677" opacity="1" text-anchor="start">3</text><polyline fill="none" stroke="#000" stroke-width="1" points="873 192 878 192" opacity="1"/><text x="883" y="145" fill="#000" dy=".5ex" font-family="sans-serif" font-size="9.677" opacity="1" text-anchor="start">3.5</text><polyline fill="none" stroke="#000" stroke-width="1" points="873 145 878 145" opacity="1"/><text x="883" y="98" fill="#000" dy=".5ex" font-family="sans-serif" font-size="9.677" opacity="1" text-anchor="start">4</text><polyline fill="none" stroke="#000" stroke-width="1" points="873 98 878 98" opacity="1"/><polygon fill="#1F78B4" points="87 472 88 472 90 472 91 472 93 472 94 472 96 472 98 472 99 472 101 472 102 472 104 472 105 472 107 472 109 472 110 472 112 472 113 472 115 472 116 472 118 472 120 472 121 472 123 472 124 472 126 471 127 471 129 471 131 471 132 471 134 471 135 471 137 470 138 470 140 470 142 470 143 469 145 469 146 469 148 468 150 468 151 467 153 467 154 466 156 466 157 465 159 464 161 464 162 463 164 462 165 461 167 460 168 458 170 457 172 456 173 454 175 453 176 451 178 449 179 447 181 445 183 443 184 440 186 438 187 435 189 432 190 428 192 425 194 421 195 418 197 413 198 409 200 405 201 400 203 395 205 389 206 384 208 378 209 372 211 366 213 359 214 352 216 345 217 338 219 330 220 322 222 314 224 306 225 298 227 289 228 280 230 271 231 262 233 253 235 244 236 234 238 225 239 216 241 206 242 197 244 187 246 178 247 169 249 160 250 151 252 143 253 134 255 126 257 118 258 111 260 104 261 97 263 91 264 85 266 79 268 74 269 70 271 66 272 62 274 59 276 57 277 55 279 53 280 53 282 53 283 53 285 54 287 55 288 57 290 60 291 63 293 67 294 71 296 76 298 81 299 86 301 92 302 99 304 105 305 112 307 120 309 128 310 136 312 144 313 152 315 161 316 169 318 178 320 187 321 196 323 205 324 214 326 224 327 233 329 242 331 251 332 259 334 268 335 277 337 285 339 294 340 302 342 310 343 317 345 325 346 332 348 339 350 346 351 353 353 359 354 365 356 371 357 377 359 383 361 388 362 393 364 398 365 402 367 407 368 411 370 415 372 418 373 422 375 425 376 428 378 431 379 434 381 437 383 439 384 442 386 444 387 446 389 448 391 450 392 451 394 453 395 454 397 456 398 457 400 458 402 459 403 460 405 461 406 462 408 463 409 464 411 464 413 465 414 465 416 466 417 466 419 467 420 467 422 467 424 468 425 468 427 468 428 468 430 469 431 469 433 469 435 469 436 469 438 469 439 469 441 469 442 469 444 469 446 469 447 469 449 469 450 469 452 469 454 468 455 468 457 468 458 468 460 468 461 468 463 467 465 467 466 467 468 467 469 467 471 466 472 466 474 466 476 466 477 465 479 465 480 465 482 465 483 465 485 464 487 464 488 464 490 464 491 464 493 463 494 463 496 463 498 463 499 463 501 463 502 463 504 463 505 463 507 463 509 463 510 463 512 463 513 463 515 463 517 463 518 463 520 463 521 463 523 463 524 463 526 463 528 463 529 464 531 464 532 464 534 464 535 464 537 465 539 465 540 465 542 465 543 466 545 466 546 466 548 466 550 467 551 467 553 467 554 467 556 467 557 468 559 468 561 468 562 468 564 469 565 469 567 469 568 469 570 469 572 470 573 470 575 470 576 470 578 470 580 470 581 470 583 470 584 471 586 471 587 471 589 471 591 471 592 471 594 471 595 471 597 471 598 471 600 471 602 471 603 471 605 471 606 471 608 471 609 471 611 471 613 470 614 470 616 470 617 470 619 470 620 470 622 470 624 469 625 469 627 469 628 469 630 469 632 468 633 468 635 468 636 468 638 467 639 467 641 467 643 466 644 466 646 466 647 465 649 465 650 465 652 464 654 464 655 464 657 463 658 463 660 463 661 462 663 462 665 462 666 461 668 461 669 461 671 460 672 460 674 460 676 459 677 459 679 459 680 459 682 458 683 458 685 458 687 458 688 458 690 457 691 457 693 457 695 457 696 457 698 457 699 457 701 457 702 457 704 457 706 457 707 457 709 457 710 457 712 457 713 457 715 457 717 457 718 457 720 457 721 457 723 458 724 458 726 458 728 458 729 458 731 459 732 459 734 459 735 459 737 459 739 460 740 460 742 460 743 460 745 461 746 461 748 461 750 461 751 462 753 462 754 462 756 463 758 463 759 463 761 463 762 464 764 464 765 464 767 464 769 465 770 465 772 465 773 465 775 466 776 466 778 466 780 466 781 467 783 467 784 467 786 467 787 468 789 468 791 468 792 468 794 468 795 469 797 469 798 469 800 469 802 469 803 470 805 470 806 470 808 470 809 470 811 470 813 470 814 471 816 471 817 471 819 471 821 471 822 471 824 471 825 471 827 471 828 472 830 472 832 472 833 472 835 472 836 472 838 472 839 472 841 472 843 472 844 472 846 472 847 472 849 472 850 472 852 472 854 472 855 472 857 472 858 472 860 472 861 472 863 472 865 472 866 472 868 472 869 472 871 472 873 472 873 473 87 473" opacity=".5"/><polyline fill="none" stroke="#1F78B4" stroke-width="1" points="304 472 304 53" opacity="1"/><polyline fill="none" stroke="#FF7F00" stroke-width="1" points="232 472 232 53" opacity="1"/><polyline fill="none" stroke="#FF7F00" stroke-width="1" points="335 472 335 53" opacity="1"/><polyline fill="none" stroke="#E31A1C" stroke-width="1" points="193 472 193 53" opacity="1"/><polyline fill="none" stroke="#E31A1C" stroke-width="1" points="374 472 374 53" opacity="1"/><circle cx="289" cy="459" r="3" fill="#1F78B4" stroke="none" opacity="1"/><circle cx="297" cy="455" r="3" fill="#1F78B4" stroke="none" opacity="1"/><circle cx="334" cy="446" r="3" fill="#1F78B4" stroke="none" opacity="1"/><circle cx="330" cy="442" r="3" fill="#1F78B4" stroke="none" opacity="1"/><circle cx="309" cy="438" r="3" fill="#1F78B4" stroke="none" opacity="1"/><circle cx="286" cy="434" r="3" fill="#1F78B4" stroke="none" opacity="1"/><circle cx="254" cy="430" r="3" fill="#1F78B4" stroke="none" opacity="1"/><circle cx="318" cy="425" r="3" fill="#1F78B4" stroke="none" opacity="1"/><circle cx="299" cy="421" r="3" fill="#1F78B4" stroke="none" opacity="1"/><circle cx="300" cy="417" r="3" fill="#1F78B4" stroke="none" opacity="1"/><circle cx="282" cy="413" r="3" fill="#1F78B4" stroke="none" opacity="1"/><circle cx="291" cy="409" r="3" fill="#1F78B4" stroke="none" opacity="1"/><circle cx="276" cy="404" r="3" fill="#1F78B4" stroke="none" opacity="1"/><circle cx="266" cy="400" r="3" fill="#1F78B4" stroke="none" opacity="1"/><circle cx="298" cy="396" r="3" fill="#1F78B4" stroke="none" opacity="1"/><circle cx="320" cy="392" r="3" fill="#1F78B4" stroke="none" opacity="1"/><circle cx="307" cy="388" r="3" fill="#1F78B4" stroke="none" opacity="1"/><circle cx="270" cy="383" r="3" fill="#1F78B4" stroke="none" opacity="1"/><circle cx="292" cy="379" r="3" fill="#1F78B4" stroke="none" opacity="1"/><circle cx="333" cy="375" r="3" fill="#1F78B4" stroke="none" opacity="1"/><circle cx="257" cy="371" r="3" fill="#1F78B4" stroke="none" opacity="1"/><circle cx="312" cy="367" r="3" fill="#1F78B4" stroke="none" opacity="1"/><circle cx="301" cy="362" r="3" fill="#1F78B4" stroke="none" opacity="1"/><circle cx="261" cy="358" r="3" fill="#1F78B4" stroke="none" opacity="1"/><circle cx="283" cy="354" r="3" fill="#1F78B4" stroke="none" opacity="1"/><circle cx="296" cy="350" r="3" fill="#1F78B4" stroke="none" opacity="1"/><circle cx="306" cy="346" r="3" fill="#1F78B4" stroke="none" opacity="1"/><circle cx="283" cy="341" r="3" fill="#1F78B4" stroke="none" opacity="1"/><circle cx="271" cy="337" r="3" fill="#1F78B4" stroke="none" opacity="1"/><circle cx="279" cy="333" r="3" fill="#1F78B4" stroke="none" opacity="1"/><circle cx="268" cy="329" r="3" fill="#1F78B4" stroke="none" opacity="1"/><circle cx="289" cy="325" r="3" fill="#1F78B4" stroke="none" opacity="1"/><circle cx="274" cy="320" r="3" fill="#1F78B4" stroke="none" opacity="1"/><circle cx="295" cy="312" r="3" fill="#1F78B4" stroke="none" opacity="1"/><circle cx="292" cy="308" r="3" fill="#1F78B4" stroke="none" opacity="1"/><circle cx="286" cy="304" r="3" fill="#1F78B4" stroke="none" opacity="1"/><circle cx="289" cy="299" r="3" fill="#1F78B4" stroke="none" opacity="1"/><circle cx="293" cy="295" r="3" fill="#1F78B4" stroke="none" opacity="1"/><circle cx="257" cy="291" r="3" fill="#1F78B4" stroke="none" opacity="1"/><circle cx="289" cy="287" r="3" fill="#1F78B4" stroke="none" opacity="1"/><circle cx="295" cy="283" r="3" fill="#1F78B4" stroke="none" opacity="1"/><circle cx="278" cy="278" r="3" fill="#1F78B4" stroke="none" opacity="1"/><circle cx="282" cy="274" r="3" fill="#1F78B4" stroke="none" opacity="1"/><circle cx="277" cy="270" r="3" fill="#1F78B4" stroke="none" opacity="1"/><circle cx="291" cy="266" r="3" fill="#1F78B4" stroke="none" opacity="1"/><circle cx="265" cy="262" r="3" fill="#1F78B4" stroke="none" opacity="1"/><circle cx="267" cy="257" r="3" fill="#1F78B4" stroke="none" opacity="1"/><circle cx="279" cy="249" r="3" fill="#1F78B4" stroke="none" opacity="1"/><circle cx="299" cy="245" r="3" fill="#1F78B4" stroke="none" opacity="1"/><circle cx="276" cy="241" r="3" fill="#1F78B4" stroke="none" opacity="1"/><circle cx="267" cy="236" r="3" fill="#1F78B4" stroke="none" opacity="1"/><circle cx="283" cy="232" r="3" fill="#1F78B4" stroke="none" opacity="1"/><circle cx="252" cy="228" r="3" fill="#1F78B4" stroke="none" opacity="1"/><circle cx="269" cy="224" r="3" fill="#1F78B4" stroke="none" opacity="1"/><circle cx="265" cy="220" r="3" fill="#1F78B4" stroke="none" opacity="1"/><circle cx="292" cy="215" r="3" fill="#1F78B4" stroke="none" opacity="1"/><circle cx="275" cy="211" r="3" fill="#1F78B4" stroke="none" opacity="1"/><circle cx="272" cy="207" r="3" fill="#1F78B4" stroke="none" opacity="1"/><circle cx="296" cy="199" r="3" fill="#1F78B4" stroke="none" opacity="1"/><circle cx="277" cy="194" r="3" fill="#1F78B4" stroke="none" opacity="1"/><circle cx="271" cy="190" r="3" fill="#1F78B4" stroke="none" opacity="1"/><circle cx="280" cy="186" r="3" fill="#1F78B4" stroke="none" opacity="1"/><circle cx="269" cy="182" r="3" fill="#1F78B4" stroke="none" opacity="1"/><circle cx="264" cy="178" r="3" fill="#1F78B4" stroke="none" opacity="1"/><circle cx="274" cy="173" r="3" fill="#1F78B4" stroke="none" opacity="1"/><circle cx="262" cy="169" r="3" fill="#1F78B4" stroke="none" opacity="1"/><circle cx="274" cy="165" r="3" fill="#1F78B4" stroke="none" opacity="1"/><circle cx="251" cy="157" r="3" fill="#1F78B4" stroke="none" opacity="1"/><circle cx="278" cy="152" r="3" fill="#1F78B4" stroke="none" opacity="1"/><circle cx="273" cy="148" r="3" fill="#1F78B4" stroke="none" opacity="1"/><circle cx="258" cy="144" r="3" fill="#1F78B4" stroke="none" opacity="1"/><circle cx="295" cy="140" r="3" fill="#1F78B4" stroke="none" opacity="1"/><circle cx="276" cy="136" r="3" fill="#1F78B4" stroke="none" opacity="1"/><circle cx="268" cy="131" r="3" fill="#1F78B4" stroke="none" opacity="1"/><circle cx="299" cy="127" r="3" fill="#1F78B4" stroke="none" opacity="1"/><circle cx="270" cy="123" r="3" fill="#1F78B4" stroke="none" opacity="1"/><circle cx="267" cy="119" r="3" fill="#1F78B4" stroke="none" opacity="1"/><circle cx="300" cy="115" r="3" fill="#1F78B4" stroke="none" opacity="1"/><circle cx="272" cy="110" r="3" fill="#1F78B4" stroke="none" opacity="1"/><circle cx="283" cy="106" r="3" fill="#1F78B4" stroke="none" opacity="1"/><circle cx="282" cy="102" r="3" fill="#1F78B4" stroke="none" opacity="1"/><circle cx="264" cy="98" r="3" fill="#1F78B4" stroke="none" opacity="1"/><circle cx="315" cy="94" r="3" fill="#1F78B4" stroke="none" opacity="1"/><circle cx="294" cy="89" r="3" fill="#1F78B4" stroke="none" opacity="1"/><circle cx="288" cy="85" r="3" fill="#1F78B4" stroke="none" opacity="1"/><circle cx="280" cy="81" r="3" fill="#1F78B4" stroke="none" opacity="1"/><circle cx="272" cy="77" r="3" fill="#1F78B4" stroke="none" opacity="1"/><circle cx="266" cy="73" r="3" fill="#1F78B4" stroke="none" opacity="1"/><circle cx="273" cy="68" r="3" fill="#1F78B4" stroke="none" opacity="1"/><circle cx="253" cy="64" r="3" fill="#1F78B4" stroke="none" opacity="1"/><circle cx="284" cy="56" r="3" fill="#1F78B4" stroke="none" opacity="1"/><circle cx="264" cy="53" r="3" fill="#1F78B4" stroke="none" opacity="1"/><circle cx="203" cy="463" r="3" fill="#FF7F00" stroke="none" opacity="1"/><circle cx="366" cy="451" r="3" fill="#FF7F00" stroke="none" opacity="1"/><circle cx="514" cy="467" r="3" fill="#E31A1C" stroke="none" opacity="1"/><circle cx="715" cy="316" r="3" fill="#E31A1C" stroke="none" opacity="1"/><circle cx="506" cy="253" r="3" fill="#E31A1C" stroke="none" opacity="1"/><circle cx="756" cy="203" r="3" fill="#E31A1C" stroke="none" opacity="1"/><circle cx="690" cy="161" r="3" fill="#E31A1C" stroke="none" opacity="1"/><circle cx="684" cy="60" r="3" fill="#E31A1C" stroke="none" opacity="1"/><text x="776" y="228" fill="#000" dy=".76em" font-family="sans-serif" font-size="9.677" opacity="1" text-anchor="start">PDF</text><text x="776" y="243" fill="#000" dy=".76em" font-family="sans-serif" font-size="9.677" opacity="1" text-anchor="start">Mean</text><text x="776" y="258" fill="#000" dy=".76em" font-family="sans-serif" font-size="9.677" opacity="1" text-anchor="start">&quot;Clean&quot; sample</text><text x="776" y="273" fill="#000" dy=".76em" font-family="sans-serif" font-size="9.677" opacity="1" text-anchor="start">Mild outliers</text><text x="776" y="288" fill="#000" dy=".76em" font-family="sans-serif" font-size="9.677" opacity="1" text-anchor="start">Severe outliers</text><rect width="20" height="10" x="746" y="228" fill="#1F78B4" stroke="none" opacity=".5"/><polyline fill="none" stroke="#1F78B4" stroke-width="1" points="746 248 766 248" opacity="1"/><circle cx="756" cy="263" r="3" fill="#1F78B4" stroke="none" opacity="1"/><circle cx="756" cy="278" r="3" fill="#FF7F00" stroke="none" opacity="1"/><circle cx="756" cy="293" r="3" fill="#E31A1C" stroke="none" opacity="1"/></svg>