<svg xmlns="http://www.w3.org/2000/svg" width="450" height="300"><text x="15" y="130" fill="#000" dy=".76em" font-family="sans-serif" font-size="9.677" opacity="1" text-anchor="middle" transform="rotate(270, 15, 130)">Total sample time (ms)</text><text x="255" y="285" fill="#000" dy="-.5ex" font-family="sans-serif" font-size="9.677" opacity="1" text-anchor="middle">Iterations (x 10^3)</text><line x1="138" x2="138" y1="244" y2="14" stroke="#000" stroke-width="1" opacity=".2"/><line x1="206" x2="206" y1="244" y2="14" stroke="#000" stroke-width="1" opacity=".2"/><line x1="273" x2="273" y1="244" y2="14" stroke="#000" stroke-width="1" opacity=".2"/><line x1="340" x2="340" y1="244" y2="14" stroke="#000" stroke-width="1" opacity=".2"/><line x1="408" x2="408" y1="244" y2="14" stroke="#000" stroke-width="1" opacity=".2"/><line x1="75" x2="435" y1="201" y2="201" stroke="#000" stroke-width="1" opacity=".2"/><line x1="75" x2="435" y1="156" y2="156" stroke="#000" stroke-width="1" opacity=".2"/><line x1="75" x2="435" y1="112" y2="112" stroke="#000" stroke-width="1" opacity=".2"/><line x1="75" x2="435" y1="67" y2="67" stroke="#000" stroke-width="1" opacity=".2"/><line x1="75" x2="435" y1="22" y2="22" stroke="#000" stroke-width="1" opacity=".2"/><polyline fill="none" stroke="#000" stroke-width="1" points="74 15 74 245" opacity="1"/><text x="65" y="201" fill="#000" dy=".5ex" font-family="sans-serif" font-size="9.677" opacity="1" text-anchor="end">20.0</text><polyline fill="none" stroke="#000" stroke-width="1" points="69 201 74 201" opacity="1"/><text x="65" y="156" fill="#000" dy=".5ex" font-family="sans-serif" font-size="9.677" opacity="1" text-anchor="end">40.0</text><polyline fill="none" stroke="#000" stroke-width="1" points="69 156 74 156" opacity="1"/><text x="65" y="112" fill="#000" dy=".5ex" font-family="sans-serif" font-size="9.677" opacity="1" text-anchor="end">60.0</text><polyline fill="none" stroke="#000" stroke-width="1" points="69 112 74 112" opacity="1"/><text x="65" y="67" fill="#000" dy=".5ex" font-family="sans-serif" font-size="9.677" opacity="1" text-anchor="end">80.0</text><polyline fill="none" stroke="#000" stroke-width="1" points="69 67 74 67" opacity="1"/><text x="65" y="22" fill="#000" dy=".5ex" font-family="sans-serif" font-size="9.677" opacity="1" text-anchor="end">100.0</text><polyline fill="none" stroke="#000" stroke-width="1" points="69 22 74 22" opacity="1"/><polyline fill="none" stroke="#000" stroke-width="1" points="75 245 435 245" opacity="1"/><text x="138" y="255" fill="#000" dy=".76em" font-family="sans-serif" font-size="9.677" opacity="1" text-anchor="middle">0.5</text><polyline fill="none" stroke="#000" stroke-width="1" points="138 245 138 250" opacity="1"/><text x="206" y="255" fill="#000" dy=".76em" font-family="sans-serif" font-size="9.677" opacity="1" text-anchor="middle">1</text><polyline fill="none" stroke="#000" stroke-width="1" points="206 245 206 250" opacity="1"/><text x="273" y="255" fill="#000" dy=".76em" font-family="sans-serif" font-size="9.677" opacity="1" text-anchor="middle">1.5</text><polyline fill="none" stroke="#000" stroke-width="1" points="273 245 273 250" opacity="1"/><text x="340" y="255" fill="#000" dy=".76em" font-family="sans-serif" font-size="9.677" opacity="1" text-anchor="middle">2</text><polyline fill="none" stroke="#000" stroke-width="1" points="340 245 340 250" opacity="1"/><text x="408" y="255" fill="#000" dy=".76em" font-family="sans-serif" font-size="9.677" opacity="1" text-anchor="middle">2.5</text><polyline fill="none" stroke="#000" stroke-width="1" points="408 245 408 250" opacity="1"/><circle cx="75" cy="244" r="3" fill="#1F78B4" stroke="none" opacity="1"/><circle cx="78" cy="241" r="3" fill="#1F78B4" stroke="none" opacity="1"/><circle cx="82" cy="239" r="3" fill="#1F78B4" stroke="none" opacity="1"/><circle cx="85" cy="236" r="3" fill="#1F78B4" stroke="none" opacity="1"/><circle cx="89" cy="234" r="3" fill="#1F78B4" stroke="none" opacity="1"/><circle cx="93" cy="232" r="3" fill="#1F78B4" stroke="none" opacity="1"/><circle cx="96" cy="229" r="3" fill="#1F78B4" stroke="none" opacity="1"/><circle cx="100" cy="228" r="3" fill="#1F78B4" stroke="none" opacity="1"/><circle cx="104" cy="225" r="3" fill="#1F78B4" stroke="none" opacity="1"/><circle cx="107" cy="223" r="3" fill="#1F78B4" stroke="none" opacity="1"/><circle cx="111" cy="221" r="3" fill="#1F78B4" stroke="none" opacity="1"/><circle cx="115" cy="217" r="3" fill="#1F78B4" stroke="none" opacity="1"/><circle cx="118" cy="215" r="3" fill="#1F78B4" stroke="none" opacity="1"/><circle cx="122" cy="213" r="3" fill="#1F78B4" stroke="none" opacity="1"/><circle cx="125" cy="211" r="3" fill="#1F78B4" stroke="none" opacity="1"/><circle cx="129" cy="209" r="3" fill="#1F78B4" stroke="none" opacity="1"/><circle cx="133" cy="207" r="3" fill="#1F78B4" stroke="none" opacity="1"/><circle cx="136" cy="203" r="3" fill="#1F78B4" stroke="none" opacity="1"/><circle cx="140" cy="201" r="3" fill="#1F78B4" stroke="none" opacity="1"/><circle cx="144" cy="200" r="3" fill="#1F78B4" stroke="none" opacity="1"/><circle cx="147" cy="197" r="3" fill="#1F78B4" stroke="none" opacity="1"/><circle cx="151" cy="196" r="3" fill="#1F78B4" stroke="none" opacity="1"/><circle cx="155" cy="193" r="3" fill="#1F78B4" stroke="none" opacity="1"/><circle cx="158" cy="190" r="3" fill="#1F78B4" stroke="none" opacity="1"/><circle cx="162" cy="187" r="3" fill="#1F78B4" stroke="none" opacity="1"/><circle cx="165" cy="186" r="3" fill="#1F78B4" stroke="none" opacity="1"/><circle cx="169" cy="185" r="3" fill="#1F78B4" stroke="none" opacity="1"/><circle cx="173" cy="182" r="3" fill="#1F78B4" stroke="none" opacity="1"/><circle cx="176" cy="179" r="3" fill="#1F78B4" stroke="none" opacity="1"/><circle cx="180" cy="177" r="3" fill="#1F78B4" stroke="none" opacity="1"/><circle cx="184" cy="173" r="3" fill="#1F78B4" stroke="none" opacity="1"/><circle cx="187" cy="171" r="3" fill="#1F78B4" stroke="none" opacity="1"/><circle cx="191" cy="166" r="3" fill="#1F78B4" stroke="none" opacity="1"/><circle cx="195" cy="168" r="3" fill="#1F78B4" stroke="none" opacity="1"/><circle cx="198" cy="166" r="3" fill="#1F78B4" stroke="none" opacity="1"/><circle cx="202" cy="165" r="3" fill="#1F78B4" stroke="none" opacity="1"/><circle cx="205" cy="162" r="3" fill="#1F78B4" stroke="none" opacity="1"/><circle cx="209" cy="155" r="3" fill="#1F78B4" stroke="none" opacity="1"/><circle cx="213" cy="154" r="3" fill="#1F78B4" stroke="none" opacity="1"/><circle cx="216" cy="152" r="3" fill="#1F78B4" stroke="none" opacity="1"/><circle cx="220" cy="150" r="3" fill="#1F78B4" stroke="none" opacity="1"/><circle cx="224" cy="151" r="3" fill="#1F78B4" stroke="none" opacity="1"/><circle cx="227" cy="147" r="3" fill="#1F78B4" stroke="none" opacity="1"/><circle cx="231" cy="146" r="3" fill="#1F78B4" stroke="none" opacity="1"/><circle cx="235" cy="143" r="3" fill="#1F78B4" stroke="none" opacity="1"/><circle cx="238" cy="138" r="3" fill="#1F78B4" stroke="none" opacity="1"/><circle cx="242" cy="141" r="3" fill="#1F78B4" stroke="none" opacity="1"/><circle cx="245" cy="136" r="3" fill="#1F78B4" stroke="none" opacity="1"/><circle cx="249" cy="133" r="3" fill="#1F78B4" stroke="none" opacity="1"/><circle cx="253" cy="125" r="3" fill="#1F78B4" stroke="none" opacity="1"/><circle cx="256" cy="128" r="3" fill="#1F78B4" stroke="none" opacity="1"/><circle cx="260" cy="127" r="3" fill="#1F78B4" stroke="none" opacity="1"/><circle cx="264" cy="122" r="3" fill="#1F78B4" stroke="none" opacity="1"/><circle cx="267" cy="117" r="3" fill="#1F78B4" stroke="none" opacity="1"/><circle cx="271" cy="119" r="3" fill="#1F78B4" stroke="none" opacity="1"/><circle cx="275" cy="112" r="3" fill="#1F78B4" stroke="none" opacity="1"/><circle cx="278" cy="116" r="3" fill="#1F78B4" stroke="none" opacity="1"/><circle cx="282" cy="109" r="3" fill="#1F78B4" stroke="none" opacity="1"/><circle cx="285" cy="104" r="3" fill="#1F78B4" stroke="none" opacity="1"/><circle cx="289" cy="106" r="3" fill="#1F78B4" stroke="none" opacity="1"/><circle cx="293" cy="107" r="3" fill="#1F78B4" stroke="none" opacity="1"/><circle cx="296" cy="106" r="3" fill="#1F78B4" stroke="none" opacity="1"/><circle cx="300" cy="104" r="3" fill="#1F78B4" stroke="none" opacity="1"/><circle cx="304" cy="103" r="3" fill="#1F78B4" stroke="none" opacity="1"/><circle cx="307" cy="93" r="3" fill="#1F78B4" stroke="none" opacity="1"/><circle cx="311" cy="95" r="3" fill="#1F78B4" stroke="none" opacity="1"/><circle cx="315" cy="93" r="3" fill="#1F78B4" stroke="none" opacity="1"/><circle cx="318" cy="89" r="3" fill="#1F78B4" stroke="none" opacity="1"/><circle cx="322" cy="90" r="3" fill="#1F78B4" stroke="none" opacity="1"/><circle cx="325" cy="85" r="3" fill="#1F78B4" stroke="none" opacity="1"/><circle cx="329" cy="86" r="3" fill="#1F78B4" stroke="none" opacity="1"/><circle cx="333" cy="80" r="3" fill="#1F78B4" stroke="none" opacity="1"/><circle cx="336" cy="81" r="3" fill="#1F78B4" stroke="none" opacity="1"/><circle cx="340" cy="75" r="3" fill="#1F78B4" stroke="none" opacity="1"/><circle cx="344" cy="77" r="3" fill="#1F78B4" stroke="none" opacity="1"/><circle cx="347" cy="71" r="3" fill="#1F78B4" stroke="none" opacity="1"/><circle cx="351" cy="71" r="3" fill="#1F78B4" stroke="none" opacity="1"/><circle cx="355" cy="62" r="3" fill="#1F78B4" stroke="none" opacity="1"/><circle cx="358" cy="68" r="3" fill="#1F78B4" stroke="none" opacity="1"/><circle cx="362" cy="64" r="3" fill="#1F78B4" stroke="none" opacity="1"/><circle cx="365" cy="56" r="3" fill="#1F78B4" stroke="none" opacity="1"/><circle cx="369" cy="57" r="3" fill="#1F78B4" stroke="none" opacity="1"/><circle cx="373" cy="57" r="3" fill="#1F78B4" stroke="none" opacity="1"/><circle cx="376" cy="43" r="3" fill="#1F78B4" stroke="none" opacity="1"/><circle cx="380" cy="52" r="3" fill="#1F78B4" stroke="none" opacity="1"/><circle cx="384" cy="43" r="3" fill="#1F78B4" stroke="none" opacity="1"/><circle cx="387" cy="45" r="3" fill="#1F78B4" stroke="none" opacity="1"/><circle cx="391" cy="40" r="3" fill="#1F78B4" stroke="none" opacity="1"/><circle cx="395" cy="40" r="3" fill="#1F78B4" stroke="none" opacity="1"/><circle cx="398" cy="35" r="3" fill="#1F78B4" stroke="none" opacity="1"/><circle cx="402" cy="39" r="3" fill="#1F78B4" stroke="none" opacity="1"/><circle cx="405" cy="32" r="3" fill="#1F78B4" stroke="none" opacity="1"/><circle cx="409" cy="25" r="3" fill="#1F78B4" stroke="none" opacity="1"/><circle cx="413" cy="24" r="3" fill="#1F78B4" stroke="none" opacity="1"/><circle cx="416" cy="24" r="3" fill="#1F78B4" stroke="none" opacity="1"/><circle cx="420" cy="19" r="3" fill="#1F78B4" stroke="none" opacity="1"/><circle cx="424" cy="21" r="3" fill="#1F78B4" stroke="none" opacity="1"/><circle cx="427" cy="26" r="3" fill="#1F78B4" stroke="none" opacity="1"/><circle cx="431" cy="21" r="3" fill="#1F78B4" stroke="none" opacity="1"/><circle cx="435" cy="15" r="3" fill="#1F78B4" stroke="none" opacity="1"/><polyline fill="none" stroke="#1F78B4" stroke-width="1" points="75 245 435 15" opacity="1"/><polygon fill="#1F78B4" points="75 245 435 16 435 15" opacity=".25"/></svg>