<svg xmlns="http://www.w3.org/2000/svg" width="960" height="540"><text x="480" y="32" fill="#000" dy=".76em" font-family="sans-serif" font-size="16.129" opacity="1" text-anchor="middle">bench_group/threads_32/1048576</text><text x="27" y="263" fill="#000" dy=".76em" font-family="sans-serif" font-size="9.677" opacity="1" text-anchor="middle" transform="rotate(270, 27, 263)">Total sample time (ms)</text><text x="510" y="513" fill="#000" dy="-.5ex" font-family="sans-serif" font-size="9.677" opacity="1" text-anchor="middle">Iterations (x 10^3)</text><line x1="236" x2="236" y1="472" y2="52" stroke="#000" stroke-width="1" opacity=".2"/><line x1="394" x2="394" y1="472" y2="52" stroke="#000" stroke-width="1" opacity=".2"/><line x1="553" x2="553" y1="472" y2="52" stroke="#000" stroke-width="1" opacity=".2"/><line x1="711" x2="711" y1="472" y2="52" stroke="#000" stroke-width="1" opacity=".2"/><line x1="869" x2="869" y1="472" y2="52" stroke="#000" stroke-width="1" opacity=".2"/><line x1="87" x2="933" y1="394" y2="394" stroke="#000" stroke-width="1" opacity=".2"/><line x1="87" x2="933" y1="312" y2="312" stroke="#000" stroke-width="1" opacity=".2"/><line x1="87" x2="933" y1="230" y2="230" stroke="#000" stroke-width="1" opacity=".2"/><line x1="87" x2="933" y1="149" y2="149" stroke="#000" stroke-width="1" opacity=".2"/><line x1="87" x2="933" y1="67" y2="67" stroke="#000" stroke-width="1" opacity=".2"/><polyline fill="none" stroke="#000" stroke-width="1" points="86 53 86 473" opacity="1"/><text x="77" y="394" fill="#000" dy=".5ex" font-family="sans-serif" font-size="9.677" opacity="1" text-anchor="end">20.0</text><polyline fill="none" stroke="#000" stroke-width="1" points="81 394 86 394" opacity="1"/><text x="77" y="312" fill="#000" dy=".5ex" font-family="sans-serif" font-size="9.677" opacity="1" text-anchor="end">40.0</text><polyline fill="none" stroke="#000" stroke-width="1" points="81 312 86 312" opacity="1"/><text x="77" y="230" fill="#000" dy=".5ex" font-family="sans-serif" font-size="9.677" opacity="1" text-anchor="end">60.0</text><polyline fill="none" stroke="#000" stroke-width="1" points="81 230 86 230" opacity="1"/><text x="77" y="149" fill="#000" dy=".5ex" font-family="sans-serif" font-size="9.677" opacity="1" text-anchor="end">80.0</text><polyline fill="none" stroke="#000" stroke-width="1" points="81 149 86 149" opacity="1"/><text x="77" y="67" fill="#000" dy=".5ex" font-family="sans-serif" font-size="9.677" opacity="1" text-anchor="end">100.0</text><polyline fill="none" stroke="#000" stroke-width="1" points="81 67 86 67" opacity="1"/><polyline fill="none" stroke="#000" stroke-width="1" points="87 473 933 473" opacity="1"/><text x="236" y="483" fill="#000" dy=".76em" font-family="sans-serif" font-size="9.677" opacity="1" text-anchor="middle">0.5</text><polyline fill="none" stroke="#000" stroke-width="1" points="236 473 236 478" opacity="1"/><text x="394" y="483" fill="#000" dy=".76em" font-family="sans-serif" font-size="9.677" opacity="1" text-anchor="middle">1</text><polyline fill="none" stroke="#000" stroke-width="1" points="394 473 394 478" opacity="1"/><text x="553" y="483" fill="#000" dy=".76em" font-family="sans-serif" font-size="9.677" opacity="1" text-anchor="middle">1.5</text><polyline fill="none" stroke="#000" stroke-width="1" points="553 473 553 478" opacity="1"/><text x="711" y="483" fill="#000" dy=".76em" font-family="sans-serif" font-size="9.677" opacity="1" text-anchor="middle">2</text><polyline fill="none" stroke="#000" stroke-width="1" points="711 473 711 478" opacity="1"/><text x="869" y="483" fill="#000" dy=".76em" font-family="sans-serif" font-size="9.677" opacity="1" text-anchor="middle">2.5</text><polyline fill="none" stroke="#000" stroke-width="1" points="869 473 869 478" opacity="1"/><circle cx="87" cy="472" r="3" fill="#1F78B4" stroke="none" opacity="1"/><circle cx="95" cy="467" r="3" fill="#1F78B4" stroke="none" opacity="1"/><circle cx="104" cy="462" r="3" fill="#1F78B4" stroke="none" opacity="1"/><circle cx="112" cy="458" r="3" fill="#1F78B4" stroke="none" opacity="1"/><circle cx="121" cy="453" r="3" fill="#1F78B4" stroke="none" opacity="1"/><circle cx="129" cy="451" r="3" fill="#1F78B4" stroke="none" opacity="1"/><circle cx="138" cy="446" r="3" fill="#1F78B4" stroke="none" opacity="1"/><circle cx="146" cy="442" r="3" fill="#1F78B4" stroke="none" opacity="1"/><circle cx="155" cy="437" r="3" fill="#1F78B4" stroke="none" opacity="1"/><circle cx="163" cy="434" r="3" fill="#1F78B4" stroke="none" opacity="1"/><circle cx="172" cy="430" r="3" fill="#1F78B4" stroke="none" opacity="1"/><circle cx="181" cy="424" r="3" fill="#1F78B4" stroke="none" opacity="1"/><circle cx="189" cy="420" r="3" fill="#1F78B4" stroke="none" opacity="1"/><circle cx="198" cy="416" r="3" fill="#1F78B4" stroke="none" opacity="1"/><circle cx="206" cy="413" r="3" fill="#1F78B4" stroke="none" opacity="1"/><circle cx="215" cy="409" r="3" fill="#1F78B4" stroke="none" opacity="1"/><circle cx="223" cy="405" r="3" fill="#1F78B4" stroke="none" opacity="1"/><circle cx="232" cy="398" r="3" fill="#1F78B4" stroke="none" opacity="1"/><circle cx="240" cy="394" r="3" fill="#1F78B4" stroke="none" opacity="1"/><circle cx="249" cy="392" r="3" fill="#1F78B4" stroke="none" opacity="1"/><circle cx="257" cy="387" r="3" fill="#1F78B4" stroke="none" opacity="1"/><circle cx="266" cy="384" r="3" fill="#1F78B4" stroke="none" opacity="1"/><circle cx="275" cy="379" r="3" fill="#1F78B4" stroke="none" opacity="1"/><circle cx="283" cy="373" r="3" fill="#1F78B4" stroke="none" opacity="1"/><circle cx="292" cy="369" r="3" fill="#1F78B4" stroke="none" opacity="1"/><circle cx="300" cy="366" r="3" fill="#1F78B4" stroke="none" opacity="1"/><circle cx="309" cy="364" r="3" fill="#1F78B4" stroke="none" opacity="1"/><circle cx="317" cy="359" r="3" fill="#1F78B4" stroke="none" opacity="1"/><circle cx="326" cy="354" r="3" fill="#1F78B4" stroke="none" opacity="1"/><circle cx="334" cy="350" r="3" fill="#1F78B4" stroke="none" opacity="1"/><circle cx="343" cy="343" r="3" fill="#1F78B4" stroke="none" opacity="1"/><circle cx="351" cy="338" r="3" fill="#1F78B4" stroke="none" opacity="1"/><circle cx="360" cy="331" r="3" fill="#1F78B4" stroke="none" opacity="1"/><circle cx="369" cy="334" r="3" fill="#1F78B4" stroke="none" opacity="1"/><circle cx="377" cy="330" r="3" fill="#1F78B4" stroke="none" opacity="1"/><circle cx="386" cy="329" r="3" fill="#1F78B4" stroke="none" opacity="1"/><circle cx="394" cy="323" r="3" fill="#1F78B4" stroke="none" opacity="1"/><circle cx="403" cy="310" r="3" fill="#1F78B4" stroke="none" opacity="1"/><circle cx="411" cy="308" r="3" fill="#1F78B4" stroke="none" opacity="1"/><circle cx="420" cy="305" r="3" fill="#1F78B4" stroke="none" opacity="1"/><circle cx="428" cy="301" r="3" fill="#1F78B4" stroke="none" opacity="1"/><circle cx="437" cy="302" r="3" fill="#1F78B4" stroke="none" opacity="1"/><circle cx="445" cy="296" r="3" fill="#1F78B4" stroke="none" opacity="1"/><circle cx="454" cy="294" r="3" fill="#1F78B4" stroke="none" opacity="1"/><circle cx="463" cy="288" r="3" fill="#1F78B4" stroke="none" opacity="1"/><circle cx="471" cy="279" r="3" fill="#1F78B4" stroke="none" opacity="1"/><circle cx="480" cy="284" r="3" fill="#1F78B4" stroke="none" opacity="1"/><circle cx="488" cy="276" r="3" fill="#1F78B4" stroke="none" opacity="1"/><circle cx="497" cy="269" r="3" fill="#1F78B4" stroke="none" opacity="1"/><circle cx="505" cy="256" r="3" fill="#1F78B4" stroke="none" opacity="1"/><circle cx="514" cy="260" r="3" fill="#1F78B4" stroke="none" opacity="1"/><circle cx="522" cy="259" r="3" fill="#1F78B4" stroke="none" opacity="1"/><circle cx="531" cy="249" r="3" fill="#1F78B4" stroke="none" opacity="1"/><circle cx="539" cy="240" r="3" fill="#1F78B4" stroke="none" opacity="1"/><circle cx="548" cy="244" r="3" fill="#1F78B4" stroke="none" opacity="1"/><circle cx="557" cy="231" r="3" fill="#1F78B4" stroke="none" opacity="1"/><circle cx="565" cy="238" r="3" fill="#1F78B4" stroke="none" opacity="1"/><circle cx="574" cy="226" r="3" fill="#1F78B4" stroke="none" opacity="1"/><circle cx="582" cy="217" r="3" fill="#1F78B4" stroke="none" opacity="1"/><circle cx="591" cy="220" r="3" fill="#1F78B4" stroke="none" opacity="1"/><circle cx="599" cy="223" r="3" fill="#1F78B4" stroke="none" opacity="1"/><circle cx="608" cy="220" r="3" fill="#1F78B4" stroke="none" opacity="1"/><circle cx="616" cy="216" r="3" fill="#1F78B4" stroke="none" opacity="1"/><circle cx="625" cy="214" r="3" fill="#1F78B4" stroke="none" opacity="1"/><circle cx="633" cy="196" r="3" fill="#1F78B4" stroke="none" opacity="1"/><circle cx="642" cy="200" r="3" fill="#1F78B4" stroke="none" opacity="1"/><circle cx="651" cy="197" r="3" fill="#1F78B4" stroke="none" opacity="1"/><circle cx="659" cy="189" r="3" fill="#1F78B4" stroke="none" opacity="1"/><circle cx="668" cy="192" r="3" fill="#1F78B4" stroke="none" opacity="1"/><circle cx="676" cy="182" r="3" fill="#1F78B4" stroke="none" opacity="1"/><circle cx="685" cy="184" r="3" fill="#1F78B4" stroke="none" opacity="1"/><circle cx="693" cy="174" r="3" fill="#1F78B4" stroke="none" opacity="1"/><circle cx="702" cy="175" r="3" fill="#1F78B4" stroke="none" opacity="1"/><circle cx="710" cy="164" r="3" fill="#1F78B4" stroke="none" opacity="1"/><circle cx="719" cy="167" r="3" fill="#1F78B4" stroke="none" opacity="1"/><circle cx="727" cy="157" r="3" fill="#1F78B4" stroke="none" opacity="1"/><circle cx="736" cy="156" r="3" fill="#1F78B4" stroke="none" opacity="1"/><circle cx="745" cy="140" r="3" fill="#1F78B4" stroke="none" opacity="1"/><circle cx="753" cy="151" r="3" fill="#1F78B4" stroke="none" opacity="1"/><circle cx="762" cy="144" r="3" fill="#1F78B4" stroke="none" opacity="1"/><circle cx="770" cy="130" r="3" fill="#1F78B4" stroke="none" opacity="1"/><circle cx="779" cy="131" r="3" fill="#1F78B4" stroke="none" opacity="1"/><circle cx="787" cy="131" r="3" fill="#1F78B4" stroke="none" opacity="1"/><circle cx="796" cy="105" r="3" fill="#1F78B4" stroke="none" opacity="1"/><circle cx="804" cy="122" r="3" fill="#1F78B4" stroke="none" opacity="1"/><circle cx="813" cy="105" r="3" fill="#1F78B4" stroke="none" opacity="1"/><circle cx="821" cy="110" r="3" fill="#1F78B4" stroke="none" opacity="1"/><circle cx="830" cy="100" r="3" fill="#1F78B4" stroke="none" opacity="1"/><circle cx="839" cy="100" r="3" fill="#1F78B4" stroke="none" opacity="1"/><circle cx="847" cy="91" r="3" fill="#1F78B4" stroke="none" opacity="1"/><circle cx="856" cy="99" r="3" fill="#1F78B4" stroke="none" opacity="1"/><circle cx="864" cy="86" r="3" fill="#1F78B4" stroke="none" opacity="1"/><circle cx="873" cy="73" r="3" fill="#1F78B4" stroke="none" opacity="1"/><circle cx="881" cy="71" r="3" fill="#1F78B4" stroke="none" opacity="1"/><circle cx="890" cy="71" r="3" fill="#1F78B4" stroke="none" opacity="1"/><circle cx="898" cy="61" r="3" fill="#1F78B4" stroke="none" opacity="1"/><circle cx="907" cy="65" r="3" fill="#1F78B4" stroke="none" opacity="1"/><circle cx="915" cy="74" r="3" fill="#1F78B4" stroke="none" opacity="1"/><circle cx="924" cy="65" r="3" fill="#1F78B4" stroke="none" opacity="1"/><circle cx="933" cy="53" r="3" fill="#1F78B4" stroke="none" opacity="1"/><polyline fill="none" stroke="#1F78B4" stroke-width="1" points="87 473 933 54" opacity="1"/><polygon fill="#1F78B4" points="87 473 933 56 933 53" opacity=".25"/><text x="132" y="68" fill="#000" dy=".76em" font-family="sans-serif" font-size="9.677" opacity="1" text-anchor="start">Sample</text><text x="132" y="83" fill="#000" dy=".76em" font-family="sans-serif" font-size="9.677" opacity="1" text-anchor="start">Linear regression</text><text x="132" y="98" fill="#000" dy=".76em" font-family="sans-serif" font-size="9.677" opacity="1" text-anchor="start">Confidence interval</text><circle cx="112" cy="73" r="3" fill="#1F78B4" stroke="none" opacity="1"/><polyline fill="none" stroke="#1F78B4" stroke-width="2" points="102 88 122 88" opacity="1"/><rect width="20" height="10" x="102" y="98" fill="#1F78B4" stroke="none" opacity=".25"/></svg>