<svg xmlns="http://www.w3.org/2000/svg" width="960" height="540"><text x="480" y="32" fill="#000" dy=".76em" font-family="sans-serif" font-size="16.129" opacity="1" text-anchor="middle">bench_group/threads_32/134217728</text><text x="27" y="263" fill="#000" dy=".76em" font-family="sans-serif" font-size="9.677" opacity="1" text-anchor="middle" transform="rotate(270, 27, 263)">Total sample time (ms)</text><text x="510" y="513" fill="#000" dy="-.5ex" font-family="sans-serif" font-size="9.677" opacity="1" text-anchor="middle">Iterations</text><line x1="163" x2="163" y1="472" y2="52" stroke="#000" stroke-width="1" opacity=".2"/><line x1="249" x2="249" y1="472" y2="52" stroke="#000" stroke-width="1" opacity=".2"/><line x1="334" x2="334" y1="472" y2="52" stroke="#000" stroke-width="1" opacity=".2"/><line x1="420" x2="420" y1="472" y2="52" stroke="#000" stroke-width="1" opacity=".2"/><line x1="505" x2="505" y1="472" y2="52" stroke="#000" stroke-width="1" opacity=".2"/><line x1="591" x2="591" y1="472" y2="52" stroke="#000" stroke-width="1" opacity=".2"/><line x1="676" x2="676" y1="472" y2="52" stroke="#000" stroke-width="1" opacity=".2"/><line x1="762" x2="762" y1="472" y2="52" stroke="#000" stroke-width="1" opacity=".2"/><line x1="847" x2="847" y1="472" y2="52" stroke="#000" stroke-width="1" opacity=".2"/><line x1="933" x2="933" y1="472" y2="52" stroke="#000" stroke-width="1" opacity=".2"/><line x1="87" x2="933" y1="410" y2="410" stroke="#000" stroke-width="1" opacity=".2"/><line x1="87" x2="933" y1="344" y2="344" stroke="#000" stroke-width="1" opacity=".2"/><line x1="87" x2="933" y1="278" y2="278" stroke="#000" stroke-width="1" opacity=".2"/><line x1="87" x2="933" y1="212" y2="212" stroke="#000" stroke-width="1" opacity=".2"/><line x1="87" x2="933" y1="146" y2="146" stroke="#000" stroke-width="1" opacity=".2"/><line x1="87" x2="933" y1="80" y2="80" stroke="#000" stroke-width="1" opacity=".2"/><polyline fill="none" stroke="#000" stroke-width="1" points="86 53 86 473" opacity="1"/><text x="77" y="410" fill="#000" dy=".5ex" font-family="sans-serif" font-size="9.677" opacity="1" text-anchor="end">20.0</text><polyline fill="none" stroke="#000" stroke-width="1" points="81 410 86 410" opacity="1"/><text x="77" y="344" fill="#000" dy=".5ex" font-family="sans-serif" font-size="9.677" opacity="1" text-anchor="end">40.0</text><polyline fill="none" stroke="#000" stroke-width="1" points="81 344 86 344" opacity="1"/><text x="77" y="278" fill="#000" dy=".5ex" font-family="sans-serif" font-size="9.677" opacity="1" text-anchor="end">60.0</text><polyline fill="none" stroke="#000" stroke-width="1" points="81 278 86 278" opacity="1"/><text x="77" y="212" fill="#000" dy=".5ex" font-family="sans-serif" font-size="9.677" opacity="1" text-anchor="end">80.0</text><polyline fill="none" stroke="#000" stroke-width="1" points="81 212 86 212" opacity="1"/><text x="77" y="146" fill="#000" dy=".5ex" font-family="sans-serif" font-size="9.677" opacity="1" text-anchor="end">100.0</text><polyline fill="none" stroke="#000" stroke-width="1" points="81 146 86 146" opacity="1"/><text x="77" y="80" fill="#000" dy=".5ex" font-family="sans-serif" font-size="9.677" opacity="1" text-anchor="end">120.0</text><polyline fill="none" stroke="#000" stroke-width="1" points="81 80 86 80" opacity="1"/><polyline fill="none" stroke="#000" stroke-width="1" points="87 473 933 473" opacity="1"/><text x="163" y="483" fill="#000" dy=".76em" font-family="sans-serif" font-size="9.677" opacity="1" text-anchor="middle">10</text><polyline fill="none" stroke="#000" stroke-width="1" points="163 473 163 478" opacity="1"/><text x="249" y="483" fill="#000" dy=".76em" font-family="sans-serif" font-size="9.677" opacity="1" text-anchor="middle">20</text><polyline fill="none" stroke="#000" stroke-width="1" points="249 473 249 478" opacity="1"/><text x="334" y="483" fill="#000" dy=".76em" font-family="sans-serif" font-size="9.677" opacity="1" text-anchor="middle">30</text><polyline fill="none" stroke="#000" stroke-width="1" points="334 473 334 478" opacity="1"/><text x="420" y="483" fill="#000" dy=".76em" font-family="sans-serif" font-size="9.677" opacity="1" text-anchor="middle">40</text><polyline fill="none" stroke="#000" stroke-width="1" points="420 473 420 478" opacity="1"/><text x="505" y="483" fill="#000" dy=".76em" font-family="sans-serif" font-size="9.677" opacity="1" text-anchor="middle">50</text><polyline fill="none" stroke="#000" stroke-width="1" points="505 473 505 478" opacity="1"/><text x="591" y="483" fill="#000" dy=".76em" font-family="sans-serif" font-size="9.677" opacity="1" text-anchor="middle">60</text><polyline fill="none" stroke="#000" stroke-width="1" points="591 473 591 478" opacity="1"/><text x="676" y="483" fill="#000" dy=".76em" font-family="sans-serif" font-size="9.677" opacity="1" text-anchor="middle">70</text><polyline fill="none" stroke="#000" stroke-width="1" points="676 473 676 478" opacity="1"/><text x="762" y="483" fill="#000" dy=".76em" font-family="sans-serif" font-size="9.677" opacity="1" text-anchor="middle">80</text><polyline fill="none" stroke="#000" stroke-width="1" points="762 473 762 478" opacity="1"/><text x="847" y="483" fill="#000" dy=".76em" font-family="sans-serif" font-size="9.677" opacity="1" text-anchor="middle">90</text><polyline fill="none" stroke="#000" stroke-width="1" points="847 473 847 478" opacity="1"/><text x="933" y="483" fill="#000" dy=".76em" font-family="sans-serif" font-size="9.677" opacity="1" text-anchor="middle">100</text><polyline fill="none" stroke="#000" stroke-width="1" points="933 473 933 478" opacity="1"/><circle cx="87" cy="472" r="3" fill="#1F78B4" stroke="none" opacity="1"/><circle cx="95" cy="466" r="3" fill="#1F78B4" stroke="none" opacity="1"/><circle cx="104" cy="461" r="3" fill="#1F78B4" stroke="none" opacity="1"/><circle cx="112" cy="457" r="3" fill="#1F78B4" stroke="none" opacity="1"/><circle cx="121" cy="453" r="3" fill="#1F78B4" stroke="none" opacity="1"/><circle cx="129" cy="448" r="3" fill="#1F78B4" stroke="none" opacity="1"/><circle cx="138" cy="443" r="3" fill="#1F78B4" stroke="none" opacity="1"/><circle cx="146" cy="439" r="3" fill="#1F78B4" stroke="none" opacity="1"/><circle cx="155" cy="435" r="3" fill="#1F78B4" stroke="none" opacity="1"/><circle cx="163" cy="430" r="3" fill="#1F78B4" stroke="none" opacity="1"/><circle cx="172" cy="427" r="3" fill="#1F78B4" stroke="none" opacity="1"/><circle cx="181" cy="421" r="3" fill="#1F78B4" stroke="none" opacity="1"/><circle cx="189" cy="418" r="3" fill="#1F78B4" stroke="none" opacity="1"/><circle cx="198" cy="414" r="3" fill="#1F78B4" stroke="none" opacity="1"/><circle cx="206" cy="408" r="3" fill="#1F78B4" stroke="none" opacity="1"/><circle cx="215" cy="406" r="3" fill="#1F78B4" stroke="none" opacity="1"/><circle cx="223" cy="401" r="3" fill="#1F78B4" stroke="none" opacity="1"/><circle cx="232" cy="397" r="3" fill="#1F78B4" stroke="none" opacity="1"/><circle cx="240" cy="392" r="3" fill="#1F78B4" stroke="none" opacity="1"/><circle cx="249" cy="387" r="3" fill="#1F78B4" stroke="none" opacity="1"/><circle cx="257" cy="383" r="3" fill="#1F78B4" stroke="none" opacity="1"/><circle cx="266" cy="380" r="3" fill="#1F78B4" stroke="none" opacity="1"/><circle cx="275" cy="374" r="3" fill="#1F78B4" stroke="none" opacity="1"/><circle cx="283" cy="374" r="3" fill="#1F78B4" stroke="none" opacity="1"/><circle cx="292" cy="364" r="3" fill="#1F78B4" stroke="none" opacity="1"/><circle cx="300" cy="363" r="3" fill="#1F78B4" stroke="none" opacity="1"/><circle cx="309" cy="357" r="3" fill="#1F78B4" stroke="none" opacity="1"/><circle cx="317" cy="352" r="3" fill="#1F78B4" stroke="none" opacity="1"/><circle cx="326" cy="351" r="3" fill="#1F78B4" stroke="none" opacity="1"/><circle cx="334" cy="346" r="3" fill="#1F78B4" stroke="none" opacity="1"/><circle cx="343" cy="339" r="3" fill="#1F78B4" stroke="none" opacity="1"/><circle cx="351" cy="337" r="3" fill="#1F78B4" stroke="none" opacity="1"/><circle cx="360" cy="333" r="3" fill="#1F78B4" stroke="none" opacity="1"/><circle cx="369" cy="331" r="3" fill="#1F78B4" stroke="none" opacity="1"/><circle cx="377" cy="325" r="3" fill="#1F78B4" stroke="none" opacity="1"/><circle cx="386" cy="320" r="3" fill="#1F78B4" stroke="none" opacity="1"/><circle cx="394" cy="318" r="3" fill="#1F78B4" stroke="none" opacity="1"/><circle cx="403" cy="312" r="3" fill="#1F78B4" stroke="none" opacity="1"/><circle cx="411" cy="309" r="3" fill="#1F78B4" stroke="none" opacity="1"/><circle cx="420" cy="303" r="3" fill="#1F78B4" stroke="none" opacity="1"/><circle cx="428" cy="298" r="3" fill="#1F78B4" stroke="none" opacity="1"/><circle cx="437" cy="297" r="3" fill="#1F78B4" stroke="none" opacity="1"/><circle cx="445" cy="290" r="3" fill="#1F78B4" stroke="none" opacity="1"/><circle cx="454" cy="287" r="3" fill="#1F78B4" stroke="none" opacity="1"/><circle cx="463" cy="280" r="3" fill="#1F78B4" stroke="none" opacity="1"/><circle cx="471" cy="279" r="3" fill="#1F78B4" stroke="none" opacity="1"/><circle cx="480" cy="275" r="3" fill="#1F78B4" stroke="none" opacity="1"/><circle cx="488" cy="271" r="3" fill="#1F78B4" stroke="none" opacity="1"/><circle cx="497" cy="268" r="3" fill="#1F78B4" stroke="none" opacity="1"/><circle cx="505" cy="262" r="3" fill="#1F78B4" stroke="none" opacity="1"/><circle cx="514" cy="261" r="3" fill="#1F78B4" stroke="none" opacity="1"/><circle cx="522" cy="253" r="3" fill="#1F78B4" stroke="none" opacity="1"/><circle cx="531" cy="250" r="3" fill="#1F78B4" stroke="none" opacity="1"/><circle cx="539" cy="246" r="3" fill="#1F78B4" stroke="none" opacity="1"/><circle cx="548" cy="244" r="3" fill="#1F78B4" stroke="none" opacity="1"/><circle cx="557" cy="237" r="3" fill="#1F78B4" stroke="none" opacity="1"/><circle cx="565" cy="233" r="3" fill="#1F78B4" stroke="none" opacity="1"/><circle cx="574" cy="227" r="3" fill="#1F78B4" stroke="none" opacity="1"/><circle cx="582" cy="225" r="3" fill="#1F78B4" stroke="none" opacity="1"/><circle cx="591" cy="222" r="3" fill="#1F78B4" stroke="none" opacity="1"/><circle cx="599" cy="218" r="3" fill="#1F78B4" stroke="none" opacity="1"/><circle cx="608" cy="211" r="3" fill="#1F78B4" stroke="none" opacity="1"/><circle cx="616" cy="210" r="3" fill="#1F78B4" stroke="none" opacity="1"/><circle cx="625" cy="204" r="3" fill="#1F78B4" stroke="none" opacity="1"/><circle cx="633" cy="200" r="3" fill="#1F78B4" stroke="none" opacity="1"/><circle cx="642" cy="198" r="3" fill="#1F78B4" stroke="none" opacity="1"/><circle cx="651" cy="194" r="3" fill="#1F78B4" stroke="none" opacity="1"/><circle cx="659" cy="185" r="3" fill="#1F78B4" stroke="none" opacity="1"/><circle cx="668" cy="186" r="3" fill="#1F78B4" stroke="none" opacity="1"/><circle cx="676" cy="182" r="3" fill="#1F78B4" stroke="none" opacity="1"/><circle cx="685" cy="176" r="3" fill="#1F78B4" stroke="none" opacity="1"/><circle cx="693" cy="173" r="3" fill="#1F78B4" stroke="none" opacity="1"/><circle cx="702" cy="165" r="3" fill="#1F78B4" stroke="none" opacity="1"/><circle cx="710" cy="164" r="3" fill="#1F78B4" stroke="none" opacity="1"/><circle cx="719" cy="160" r="3" fill="#1F78B4" stroke="none" opacity="1"/><circle cx="727" cy="151" r="3" fill="#1F78B4" stroke="none" opacity="1"/><circle cx="736" cy="147" r="3" fill="#1F78B4" stroke="none" opacity="1"/><circle cx="745" cy="147" r="3" fill="#1F78B4" stroke="none" opacity="1"/><circle cx="753" cy="143" r="3" fill="#1F78B4" stroke="none" opacity="1"/><circle cx="762" cy="138" r="3" fill="#1F78B4" stroke="none" opacity="1"/><circle cx="770" cy="138" r="3" fill="#1F78B4" stroke="none" opacity="1"/><circle cx="779" cy="128" r="3" fill="#1F78B4" stroke="none" opacity="1"/><circle cx="787" cy="127" r="3" fill="#1F78B4" stroke="none" opacity="1"/><circle cx="796" cy="126" r="3" fill="#1F78B4" stroke="none" opacity="1"/><circle cx="804" cy="114" r="3" fill="#1F78B4" stroke="none" opacity="1"/><circle cx="813" cy="115" r="3" fill="#1F78B4" stroke="none" opacity="1"/><circle cx="821" cy="110" r="3" fill="#1F78B4" stroke="none" opacity="1"/><circle cx="830" cy="103" r="3" fill="#1F78B4" stroke="none" opacity="1"/><circle cx="839" cy="104" r="3" fill="#1F78B4" stroke="none" opacity="1"/><circle cx="847" cy="101" r="3" fill="#1F78B4" stroke="none" opacity="1"/><circle cx="856" cy="91" r="3" fill="#1F78B4" stroke="none" opacity="1"/><circle cx="864" cy="88" r="3" fill="#1F78B4" stroke="none" opacity="1"/><circle cx="873" cy="81" r="3" fill="#1F78B4" stroke="none" opacity="1"/><circle cx="881" cy="79" r="3" fill="#1F78B4" stroke="none" opacity="1"/><circle cx="890" cy="75" r="3" fill="#1F78B4" stroke="none" opacity="1"/><circle cx="898" cy="73" r="3" fill="#1F78B4" stroke="none" opacity="1"/><circle cx="907" cy="69" r="3" fill="#1F78B4" stroke="none" opacity="1"/><circle cx="915" cy="66" r="3" fill="#1F78B4" stroke="none" opacity="1"/><circle cx="924" cy="63" r="3" fill="#1F78B4" stroke="none" opacity="1"/><circle cx="933" cy="53" r="3" fill="#1F78B4" stroke="none" opacity="1"/><polyline fill="none" stroke="#1F78B4" stroke-width="1" points="87 473 933 53" opacity="1"/><polygon fill="#1F78B4" points="87 473 933 53 933 53" opacity=".25"/><text x="132" y="68" fill="#000" dy=".76em" font-family="sans-serif" font-size="9.677" opacity="1" text-anchor="start">Sample</text><text x="132" y="83" fill="#000" dy=".76em" font-family="sans-serif" font-size="9.677" opacity="1" text-anchor="start">Linear regression</text><text x="132" y="98" fill="#000" dy=".76em" font-family="sans-serif" font-size="9.677" opacity="1" text-anchor="start">Confidence interval</text><circle cx="112" cy="73" r="3" fill="#1F78B4" stroke="none" opacity="1"/><polyline fill="none" stroke="#1F78B4" stroke-width="2" points="102 88 122 88" opacity="1"/><rect width="20" height="10" x="102" y="98" fill="#1F78B4" stroke="none" opacity=".25"/></svg>