<svg xmlns="http://www.w3.org/2000/svg" width="450" height="300"><text x="15" y="130" fill="#000" dy=".76em" font-family="sans-serif" font-size="9.677" opacity="1" text-anchor="middle" transform="rotate(270, 15, 130)">Total sample time (ms)</text><text x="255" y="285" fill="#000" dy="-.5ex" font-family="sans-serif" font-size="9.677" opacity="1" text-anchor="middle">Iterations (x 10^3)</text><line x1="130" x2="130" y1="244" y2="14" stroke="#000" stroke-width="1" opacity=".2"/><line x1="188" x2="188" y1="244" y2="14" stroke="#000" stroke-width="1" opacity=".2"/><line x1="247" x2="247" y1="244" y2="14" stroke="#000" stroke-width="1" opacity=".2"/><line x1="305" x2="305" y1="244" y2="14" stroke="#000" stroke-width="1" opacity=".2"/><line x1="364" x2="364" y1="244" y2="14" stroke="#000" stroke-width="1" opacity=".2"/><line x1="423" x2="423" y1="244" y2="14" stroke="#000" stroke-width="1" opacity=".2"/><line x1="75" x2="435" y1="223" y2="223" stroke="#000" stroke-width="1" opacity=".2"/><line x1="75" x2="435" y1="200" y2="200" stroke="#000" stroke-width="1" opacity=".2"/><line x1="75" x2="435" y1="177" y2="177" stroke="#000" stroke-width="1" opacity=".2"/><line x1="75" x2="435" y1="154" y2="154" stroke="#000" stroke-width="1" opacity=".2"/><line x1="75" x2="435" y1="131" y2="131" stroke="#000" stroke-width="1" opacity=".2"/><line x1="75" x2="435" y1="109" y2="109" stroke="#000" stroke-width="1" opacity=".2"/><line x1="75" x2="435" y1="86" y2="86" stroke="#000" stroke-width="1" opacity=".2"/><line x1="75" x2="435" y1="63" y2="63" stroke="#000" stroke-width="1" opacity=".2"/><line x1="75" x2="435" y1="40" y2="40" stroke="#000" stroke-width="1" opacity=".2"/><line x1="75" x2="435" y1="17" y2="17" stroke="#000" stroke-width="1" opacity=".2"/><polyline fill="none" stroke="#000" stroke-width="1" points="74 15 74 245" opacity="1"/><text x="65" y="223" fill="#000" dy=".5ex" font-family="sans-serif" font-size="9.677" opacity="1" text-anchor="end">10.0</text><polyline fill="none" stroke="#000" stroke-width="1" points="69 223 74 223" opacity="1"/><text x="65" y="200" fill="#000" dy=".5ex" font-family="sans-serif" font-size="9.677" opacity="1" text-anchor="end">20.0</text><polyline fill="none" stroke="#000" stroke-width="1" points="69 200 74 200" opacity="1"/><text x="65" y="177" fill="#000" dy=".5ex" font-family="sans-serif" font-size="9.677" opacity="1" text-anchor="end">30.0</text><polyline fill="none" stroke="#000" stroke-width="1" points="69 177 74 177" opacity="1"/><text x="65" y="154" fill="#000" dy=".5ex" font-family="sans-serif" font-size="9.677" opacity="1" text-anchor="end">40.0</text><polyline fill="none" stroke="#000" stroke-width="1" points="69 154 74 154" opacity="1"/><text x="65" y="131" fill="#000" dy=".5ex" font-family="sans-serif" font-size="9.677" opacity="1" text-anchor="end">50.0</text><polyline fill="none" stroke="#000" stroke-width="1" points="69 131 74 131" opacity="1"/><text x="65" y="109" fill="#000" dy=".5ex" font-family="sans-serif" font-size="9.677" opacity="1" text-anchor="end">60.0</text><polyline fill="none" stroke="#000" stroke-width="1" points="69 109 74 109" opacity="1"/><text x="65" y="86" fill="#000" dy=".5ex" font-family="sans-serif" font-size="9.677" opacity="1" text-anchor="end">70.0</text><polyline fill="none" stroke="#000" stroke-width="1" points="69 86 74 86" opacity="1"/><text x="65" y="63" fill="#000" dy=".5ex" font-family="sans-serif" font-size="9.677" opacity="1" text-anchor="end">80.0</text><polyline fill="none" stroke="#000" stroke-width="1" points="69 63 74 63" opacity="1"/><text x="65" y="40" fill="#000" dy=".5ex" font-family="sans-serif" font-size="9.677" opacity="1" text-anchor="end">90.0</text><polyline fill="none" stroke="#000" stroke-width="1" points="69 40 74 40" opacity="1"/><text x="65" y="17" fill="#000" dy=".5ex" font-family="sans-serif" font-size="9.677" opacity="1" text-anchor="end">100.0</text><polyline fill="none" stroke="#000" stroke-width="1" points="69 17 74 17" opacity="1"/><polyline fill="none" stroke="#000" stroke-width="1" points="75 245 435 245" opacity="1"/><text x="130" y="255" fill="#000" dy=".76em" font-family="sans-serif" font-size="9.677" opacity="1" text-anchor="middle">0.5</text><polyline fill="none" stroke="#000" stroke-width="1" points="130 245 130 250" opacity="1"/><text x="188" y="255" fill="#000" dy=".76em" font-family="sans-serif" font-size="9.677" opacity="1" text-anchor="middle">1</text><polyline fill="none" stroke="#000" stroke-width="1" points="188 245 188 250" opacity="1"/><text x="247" y="255" fill="#000" dy=".76em" font-family="sans-serif" font-size="9.677" opacity="1" text-anchor="middle">1.5</text><polyline fill="none" stroke="#000" stroke-width="1" points="247 245 247 250" opacity="1"/><text x="305" y="255" fill="#000" dy=".76em" font-family="sans-serif" font-size="9.677" opacity="1" text-anchor="middle">2</text><polyline fill="none" stroke="#000" stroke-width="1" points="305 245 305 250" opacity="1"/><text x="364" y="255" fill="#000" dy=".76em" font-family="sans-serif" font-size="9.677" opacity="1" text-anchor="middle">2.5</text><polyline fill="none" stroke="#000" stroke-width="1" points="364 245 364 250" opacity="1"/><text x="423" y="255" fill="#000" dy=".76em" font-family="sans-serif" font-size="9.677" opacity="1" text-anchor="middle">3</text><polyline fill="none" stroke="#000" stroke-width="1" points="423 245 423 250" opacity="1"/><circle cx="75" cy="244" r="3" fill="#1F78B4" stroke="none" opacity="1"/><circle cx="78" cy="241" r="3" fill="#1F78B4" stroke="none" opacity="1"/><circle cx="82" cy="238" r="3" fill="#1F78B4" stroke="none" opacity="1"/><circle cx="85" cy="236" r="3" fill="#1F78B4" stroke="none" opacity="1"/><circle cx="89" cy="233" r="3" fill="#1F78B4" stroke="none" opacity="1"/><circle cx="93" cy="230" r="3" fill="#1F78B4" stroke="none" opacity="1"/><circle cx="96" cy="229" r="3" fill="#1F78B4" stroke="none" opacity="1"/><circle cx="100" cy="227" r="3" fill="#1F78B4" stroke="none" opacity="1"/><circle cx="104" cy="225" r="3" fill="#1F78B4" stroke="none" opacity="1"/><circle cx="107" cy="222" r="3" fill="#1F78B4" stroke="none" opacity="1"/><circle cx="111" cy="220" r="3" fill="#1F78B4" stroke="none" opacity="1"/><circle cx="115" cy="217" r="3" fill="#1F78B4" stroke="none" opacity="1"/><circle cx="118" cy="216" r="3" fill="#1F78B4" stroke="none" opacity="1"/><circle cx="122" cy="212" r="3" fill="#1F78B4" stroke="none" opacity="1"/><circle cx="125" cy="210" r="3" fill="#1F78B4" stroke="none" opacity="1"/><circle cx="129" cy="209" r="3" fill="#1F78B4" stroke="none" opacity="1"/><circle cx="133" cy="207" r="3" fill="#1F78B4" stroke="none" opacity="1"/><circle cx="136" cy="204" r="3" fill="#1F78B4" stroke="none" opacity="1"/><circle cx="140" cy="200" r="3" fill="#1F78B4" stroke="none" opacity="1"/><circle cx="144" cy="200" r="3" fill="#1F78B4" stroke="none" opacity="1"/><circle cx="147" cy="198" r="3" fill="#1F78B4" stroke="none" opacity="1"/><circle cx="151" cy="195" r="3" fill="#1F78B4" stroke="none" opacity="1"/><circle cx="155" cy="193" r="3" fill="#1F78B4" stroke="none" opacity="1"/><circle cx="158" cy="189" r="3" fill="#1F78B4" stroke="none" opacity="1"/><circle cx="162" cy="188" r="3" fill="#1F78B4" stroke="none" opacity="1"/><circle cx="165" cy="184" r="3" fill="#1F78B4" stroke="none" opacity="1"/><circle cx="169" cy="183" r="3" fill="#1F78B4" stroke="none" opacity="1"/><circle cx="173" cy="182" r="3" fill="#1F78B4" stroke="none" opacity="1"/><circle cx="176" cy="179" r="3" fill="#1F78B4" stroke="none" opacity="1"/><circle cx="180" cy="176" r="3" fill="#1F78B4" stroke="none" opacity="1"/><circle cx="184" cy="175" r="3" fill="#1F78B4" stroke="none" opacity="1"/><circle cx="187" cy="173" r="3" fill="#1F78B4" stroke="none" opacity="1"/><circle cx="191" cy="166" r="3" fill="#1F78B4" stroke="none" opacity="1"/><circle cx="195" cy="169" r="3" fill="#1F78B4" stroke="none" opacity="1"/><circle cx="198" cy="165" r="3" fill="#1F78B4" stroke="none" opacity="1"/><circle cx="202" cy="163" r="3" fill="#1F78B4" stroke="none" opacity="1"/><circle cx="205" cy="158" r="3" fill="#1F78B4" stroke="none" opacity="1"/><circle cx="209" cy="158" r="3" fill="#1F78B4" stroke="none" opacity="1"/><circle cx="213" cy="150" r="3" fill="#1F78B4" stroke="none" opacity="1"/><circle cx="216" cy="152" r="3" fill="#1F78B4" stroke="none" opacity="1"/><circle cx="220" cy="154" r="3" fill="#1F78B4" stroke="none" opacity="1"/><circle cx="224" cy="147" r="3" fill="#1F78B4" stroke="none" opacity="1"/><circle cx="227" cy="146" r="3" fill="#1F78B4" stroke="none" opacity="1"/><circle cx="231" cy="136" r="3" fill="#1F78B4" stroke="none" opacity="1"/><circle cx="235" cy="140" r="3" fill="#1F78B4" stroke="none" opacity="1"/><circle cx="238" cy="137" r="3" fill="#1F78B4" stroke="none" opacity="1"/><circle cx="242" cy="138" r="3" fill="#1F78B4" stroke="none" opacity="1"/><circle cx="245" cy="132" r="3" fill="#1F78B4" stroke="none" opacity="1"/><circle cx="249" cy="125" r="3" fill="#1F78B4" stroke="none" opacity="1"/><circle cx="253" cy="135" r="3" fill="#1F78B4" stroke="none" opacity="1"/><circle cx="256" cy="129" r="3" fill="#1F78B4" stroke="none" opacity="1"/><circle cx="260" cy="125" r="3" fill="#1F78B4" stroke="none" opacity="1"/><circle cx="264" cy="124" r="3" fill="#1F78B4" stroke="none" opacity="1"/><circle cx="267" cy="119" r="3" fill="#1F78B4" stroke="none" opacity="1"/><circle cx="271" cy="117" r="3" fill="#1F78B4" stroke="none" opacity="1"/><circle cx="275" cy="119" r="3" fill="#1F78B4" stroke="none" opacity="1"/><circle cx="278" cy="113" r="3" fill="#1F78B4" stroke="none" opacity="1"/><circle cx="282" cy="100" r="3" fill="#1F78B4" stroke="none" opacity="1"/><circle cx="285" cy="105" r="3" fill="#1F78B4" stroke="none" opacity="1"/><circle cx="289" cy="95" r="3" fill="#1F78B4" stroke="none" opacity="1"/><circle cx="293" cy="98" r="3" fill="#1F78B4" stroke="none" opacity="1"/><circle cx="296" cy="98" r="3" fill="#1F78B4" stroke="none" opacity="1"/><circle cx="300" cy="97" r="3" fill="#1F78B4" stroke="none" opacity="1"/><circle cx="304" cy="96" r="3" fill="#1F78B4" stroke="none" opacity="1"/><circle cx="307" cy="101" r="3" fill="#1F78B4" stroke="none" opacity="1"/><circle cx="311" cy="92" r="3" fill="#1F78B4" stroke="none" opacity="1"/><circle cx="315" cy="96" r="3" fill="#1F78B4" stroke="none" opacity="1"/><circle cx="318" cy="82" r="3" fill="#1F78B4" stroke="none" opacity="1"/><circle cx="322" cy="80" r="3" fill="#1F78B4" stroke="none" opacity="1"/><circle cx="325" cy="83" r="3" fill="#1F78B4" stroke="none" opacity="1"/><circle cx="329" cy="80" r="3" fill="#1F78B4" stroke="none" opacity="1"/><circle cx="333" cy="80" r="3" fill="#1F78B4" stroke="none" opacity="1"/><circle cx="336" cy="80" r="3" fill="#1F78B4" stroke="none" opacity="1"/><circle cx="340" cy="76" r="3" fill="#1F78B4" stroke="none" opacity="1"/><circle cx="344" cy="74" r="3" fill="#1F78B4" stroke="none" opacity="1"/><circle cx="347" cy="64" r="3" fill="#1F78B4" stroke="none" opacity="1"/><circle cx="351" cy="68" r="3" fill="#1F78B4" stroke="none" opacity="1"/><circle cx="355" cy="60" r="3" fill="#1F78B4" stroke="none" opacity="1"/><circle cx="358" cy="58" r="3" fill="#1F78B4" stroke="none" opacity="1"/><circle cx="362" cy="62" r="3" fill="#1F78B4" stroke="none" opacity="1"/><circle cx="365" cy="59" r="3" fill="#1F78B4" stroke="none" opacity="1"/><circle cx="369" cy="56" r="3" fill="#1F78B4" stroke="none" opacity="1"/><circle cx="373" cy="54" r="3" fill="#1F78B4" stroke="none" opacity="1"/><circle cx="376" cy="56" r="3" fill="#1F78B4" stroke="none" opacity="1"/><circle cx="380" cy="40" r="3" fill="#1F78B4" stroke="none" opacity="1"/><circle cx="384" cy="47" r="3" fill="#1F78B4" stroke="none" opacity="1"/><circle cx="387" cy="48" r="3" fill="#1F78B4" stroke="none" opacity="1"/><circle cx="391" cy="39" r="3" fill="#1F78B4" stroke="none" opacity="1"/><circle cx="395" cy="31" r="3" fill="#1F78B4" stroke="none" opacity="1"/><circle cx="398" cy="34" r="3" fill="#1F78B4" stroke="none" opacity="1"/><circle cx="402" cy="42" r="3" fill="#1F78B4" stroke="none" opacity="1"/><circle cx="405" cy="39" r="3" fill="#1F78B4" stroke="none" opacity="1"/><circle cx="409" cy="28" r="3" fill="#1F78B4" stroke="none" opacity="1"/><circle cx="413" cy="33" r="3" fill="#1F78B4" stroke="none" opacity="1"/><circle cx="416" cy="22" r="3" fill="#1F78B4" stroke="none" opacity="1"/><circle cx="420" cy="17" r="3" fill="#1F78B4" stroke="none" opacity="1"/><circle cx="424" cy="16" r="3" fill="#1F78B4" stroke="none" opacity="1"/><circle cx="427" cy="15" r="3" fill="#1F78B4" stroke="none" opacity="1"/><circle cx="431" cy="25" r="3" fill="#1F78B4" stroke="none" opacity="1"/><circle cx="435" cy="18" r="3" fill="#1F78B4" stroke="none" opacity="1"/><polyline fill="none" stroke="#1F78B4" stroke-width="1" points="75 245 435 15" opacity="1"/><polygon fill="#1F78B4" points="75 245 435 15 435 15" opacity=".25"/></svg>