<svg xmlns="http://www.w3.org/2000/svg" width="960" height="540"><text x="480" y="32" fill="#000" dy=".76em" font-family="sans-serif" font-size="16.129" opacity="1" text-anchor="middle">bench_group/threads_48/262144</text><text x="27" y="263" fill="#000" dy=".76em" font-family="sans-serif" font-size="9.677" opacity="1" text-anchor="middle" transform="rotate(270, 27, 263)">Total sample time (ms)</text><text x="510" y="513" fill="#000" dy="-.5ex" font-family="sans-serif" font-size="9.677" opacity="1" text-anchor="middle">Iterations (x 10^3)</text><line x1="216" x2="216" y1="472" y2="52" stroke="#000" stroke-width="1" opacity=".2"/><line x1="354" x2="354" y1="472" y2="52" stroke="#000" stroke-width="1" opacity=".2"/><line x1="491" x2="491" y1="472" y2="52" stroke="#000" stroke-width="1" opacity=".2"/><line x1="629" x2="629" y1="472" y2="52" stroke="#000" stroke-width="1" opacity=".2"/><line x1="767" x2="767" y1="472" y2="52" stroke="#000" stroke-width="1" opacity=".2"/><line x1="905" x2="905" y1="472" y2="52" stroke="#000" stroke-width="1" opacity=".2"/><line x1="87" x2="933" y1="435" y2="435" stroke="#000" stroke-width="1" opacity=".2"/><line x1="87" x2="933" y1="393" y2="393" stroke="#000" stroke-width="1" opacity=".2"/><line x1="87" x2="933" y1="351" y2="351" stroke="#000" stroke-width="1" opacity=".2"/><line x1="87" x2="933" y1="309" y2="309" stroke="#000" stroke-width="1" opacity=".2"/><line x1="87" x2="933" y1="267" y2="267" stroke="#000" stroke-width="1" opacity=".2"/><line x1="87" x2="933" y1="225" y2="225" stroke="#000" stroke-width="1" opacity=".2"/><line x1="87" x2="933" y1="183" y2="183" stroke="#000" stroke-width="1" opacity=".2"/><line x1="87" x2="933" y1="141" y2="141" stroke="#000" stroke-width="1" opacity=".2"/><line x1="87" x2="933" y1="99" y2="99" stroke="#000" stroke-width="1" opacity=".2"/><line x1="87" x2="933" y1="57" y2="57" stroke="#000" stroke-width="1" opacity=".2"/><polyline fill="none" stroke="#000" stroke-width="1" points="86 53 86 473" opacity="1"/><text x="77" y="435" fill="#000" dy=".5ex" font-family="sans-serif" font-size="9.677" opacity="1" text-anchor="end">10.0</text><polyline fill="none" stroke="#000" stroke-width="1" points="81 435 86 435" opacity="1"/><text x="77" y="393" fill="#000" dy=".5ex" font-family="sans-serif" font-size="9.677" opacity="1" text-anchor="end">20.0</text><polyline fill="none" stroke="#000" stroke-width="1" points="81 393 86 393" opacity="1"/><text x="77" y="351" fill="#000" dy=".5ex" font-family="sans-serif" font-size="9.677" opacity="1" text-anchor="end">30.0</text><polyline fill="none" stroke="#000" stroke-width="1" points="81 351 86 351" opacity="1"/><text x="77" y="309" fill="#000" dy=".5ex" font-family="sans-serif" font-size="9.677" opacity="1" text-anchor="end">40.0</text><polyline fill="none" stroke="#000" stroke-width="1" points="81 309 86 309" opacity="1"/><text x="77" y="267" fill="#000" dy=".5ex" font-family="sans-serif" font-size="9.677" opacity="1" text-anchor="end">50.0</text><polyline fill="none" stroke="#000" stroke-width="1" points="81 267 86 267" opacity="1"/><text x="77" y="225" fill="#000" dy=".5ex" font-family="sans-serif" font-size="9.677" opacity="1" text-anchor="end">60.0</text><polyline fill="none" stroke="#000" stroke-width="1" points="81 225 86 225" opacity="1"/><text x="77" y="183" fill="#000" dy=".5ex" font-family="sans-serif" font-size="9.677" opacity="1" text-anchor="end">70.0</text><polyline fill="none" stroke="#000" stroke-width="1" points="81 183 86 183" opacity="1"/><text x="77" y="141" fill="#000" dy=".5ex" font-family="sans-serif" font-size="9.677" opacity="1" text-anchor="end">80.0</text><polyline fill="none" stroke="#000" stroke-width="1" points="81 141 86 141" opacity="1"/><text x="77" y="99" fill="#000" dy=".5ex" font-family="sans-serif" font-size="9.677" opacity="1" text-anchor="end">90.0</text><polyline fill="none" stroke="#000" stroke-width="1" points="81 99 86 99" opacity="1"/><text x="77" y="57" fill="#000" dy=".5ex" font-family="sans-serif" font-size="9.677" opacity="1" text-anchor="end">100.0</text><polyline fill="none" stroke="#000" stroke-width="1" points="81 57 86 57" opacity="1"/><polyline fill="none" stroke="#000" stroke-width="1" points="87 473 933 473" opacity="1"/><text x="216" y="483" fill="#000" dy=".76em" font-family="sans-serif" font-size="9.677" opacity="1" text-anchor="middle">0.5</text><polyline fill="none" stroke="#000" stroke-width="1" points="216 473 216 478" opacity="1"/><text x="354" y="483" fill="#000" dy=".76em" font-family="sans-serif" font-size="9.677" opacity="1" text-anchor="middle">1</text><polyline fill="none" stroke="#000" stroke-width="1" points="354 473 354 478" opacity="1"/><text x="491" y="483" fill="#000" dy=".76em" font-family="sans-serif" font-size="9.677" opacity="1" text-anchor="middle">1.5</text><polyline fill="none" stroke="#000" stroke-width="1" points="491 473 491 478" opacity="1"/><text x="629" y="483" fill="#000" dy=".76em" font-family="sans-serif" font-size="9.677" opacity="1" text-anchor="middle">2</text><polyline fill="none" stroke="#000" stroke-width="1" points="629 473 629 478" opacity="1"/><text x="767" y="483" fill="#000" dy=".76em" font-family="sans-serif" font-size="9.677" opacity="1" text-anchor="middle">2.5</text><polyline fill="none" stroke="#000" stroke-width="1" points="767 473 767 478" opacity="1"/><text x="905" y="483" fill="#000" dy=".76em" font-family="sans-serif" font-size="9.677" opacity="1" text-anchor="middle">3</text><polyline fill="none" stroke="#000" stroke-width="1" points="905 473 905 478" opacity="1"/><circle cx="87" cy="472" r="3" fill="#1F78B4" stroke="none" opacity="1"/><circle cx="95" cy="466" r="3" fill="#1F78B4" stroke="none" opacity="1"/><circle cx="104" cy="462" r="3" fill="#1F78B4" stroke="none" opacity="1"/><circle cx="112" cy="458" r="3" fill="#1F78B4" stroke="none" opacity="1"/><circle cx="121" cy="453" r="3" fill="#1F78B4" stroke="none" opacity="1"/><circle cx="129" cy="448" r="3" fill="#1F78B4" stroke="none" opacity="1"/><circle cx="138" cy="446" r="3" fill="#1F78B4" stroke="none" opacity="1"/><circle cx="146" cy="441" r="3" fill="#1F78B4" stroke="none" opacity="1"/><circle cx="155" cy="438" r="3" fill="#1F78B4" stroke="none" opacity="1"/><circle cx="163" cy="433" r="3" fill="#1F78B4" stroke="none" opacity="1"/><circle cx="172" cy="428" r="3" fill="#1F78B4" stroke="none" opacity="1"/><circle cx="181" cy="423" r="3" fill="#1F78B4" stroke="none" opacity="1"/><circle cx="189" cy="421" r="3" fill="#1F78B4" stroke="none" opacity="1"/><circle cx="198" cy="415" r="3" fill="#1F78B4" stroke="none" opacity="1"/><circle cx="206" cy="410" r="3" fill="#1F78B4" stroke="none" opacity="1"/><circle cx="215" cy="408" r="3" fill="#1F78B4" stroke="none" opacity="1"/><circle cx="223" cy="404" r="3" fill="#1F78B4" stroke="none" opacity="1"/><circle cx="232" cy="400" r="3" fill="#1F78B4" stroke="none" opacity="1"/><circle cx="240" cy="393" r="3" fill="#1F78B4" stroke="none" opacity="1"/><circle cx="249" cy="393" r="3" fill="#1F78B4" stroke="none" opacity="1"/><circle cx="257" cy="388" r="3" fill="#1F78B4" stroke="none" opacity="1"/><circle cx="266" cy="383" r="3" fill="#1F78B4" stroke="none" opacity="1"/><circle cx="275" cy="379" r="3" fill="#1F78B4" stroke="none" opacity="1"/><circle cx="283" cy="371" r="3" fill="#1F78B4" stroke="none" opacity="1"/><circle cx="292" cy="370" r="3" fill="#1F78B4" stroke="none" opacity="1"/><circle cx="300" cy="362" r="3" fill="#1F78B4" stroke="none" opacity="1"/><circle cx="309" cy="361" r="3" fill="#1F78B4" stroke="none" opacity="1"/><circle cx="317" cy="360" r="3" fill="#1F78B4" stroke="none" opacity="1"/><circle cx="326" cy="354" r="3" fill="#1F78B4" stroke="none" opacity="1"/><circle cx="334" cy="349" r="3" fill="#1F78B4" stroke="none" opacity="1"/><circle cx="343" cy="347" r="3" fill="#1F78B4" stroke="none" opacity="1"/><circle cx="351" cy="343" r="3" fill="#1F78B4" stroke="none" opacity="1"/><circle cx="360" cy="330" r="3" fill="#1F78B4" stroke="none" opacity="1"/><circle cx="369" cy="336" r="3" fill="#1F78B4" stroke="none" opacity="1"/><circle cx="377" cy="327" r="3" fill="#1F78B4" stroke="none" opacity="1"/><circle cx="386" cy="324" r="3" fill="#1F78B4" stroke="none" opacity="1"/><circle cx="394" cy="316" r="3" fill="#1F78B4" stroke="none" opacity="1"/><circle cx="403" cy="315" r="3" fill="#1F78B4" stroke="none" opacity="1"/><circle cx="411" cy="301" r="3" fill="#1F78B4" stroke="none" opacity="1"/><circle cx="420" cy="305" r="3" fill="#1F78B4" stroke="none" opacity="1"/><circle cx="428" cy="307" r="3" fill="#1F78B4" stroke="none" opacity="1"/><circle cx="437" cy="295" r="3" fill="#1F78B4" stroke="none" opacity="1"/><circle cx="445" cy="294" r="3" fill="#1F78B4" stroke="none" opacity="1"/><circle cx="454" cy="275" r="3" fill="#1F78B4" stroke="none" opacity="1"/><circle cx="463" cy="282" r="3" fill="#1F78B4" stroke="none" opacity="1"/><circle cx="471" cy="278" r="3" fill="#1F78B4" stroke="none" opacity="1"/><circle cx="480" cy="279" r="3" fill="#1F78B4" stroke="none" opacity="1"/><circle cx="488" cy="268" r="3" fill="#1F78B4" stroke="none" opacity="1"/><circle cx="497" cy="255" r="3" fill="#1F78B4" stroke="none" opacity="1"/><circle cx="505" cy="274" r="3" fill="#1F78B4" stroke="none" opacity="1"/><circle cx="514" cy="262" r="3" fill="#1F78B4" stroke="none" opacity="1"/><circle cx="522" cy="255" r="3" fill="#1F78B4" stroke="none" opacity="1"/><circle cx="531" cy="253" r="3" fill="#1F78B4" stroke="none" opacity="1"/><circle cx="539" cy="245" r="3" fill="#1F78B4" stroke="none" opacity="1"/><circle cx="548" cy="241" r="3" fill="#1F78B4" stroke="none" opacity="1"/><circle cx="557" cy="244" r="3" fill="#1F78B4" stroke="none" opacity="1"/><circle cx="565" cy="232" r="3" fill="#1F78B4" stroke="none" opacity="1"/><circle cx="574" cy="210" r="3" fill="#1F78B4" stroke="none" opacity="1"/><circle cx="582" cy="219" r="3" fill="#1F78B4" stroke="none" opacity="1"/><circle cx="591" cy="200" r="3" fill="#1F78B4" stroke="none" opacity="1"/><circle cx="599" cy="206" r="3" fill="#1F78B4" stroke="none" opacity="1"/><circle cx="608" cy="207" r="3" fill="#1F78B4" stroke="none" opacity="1"/><circle cx="616" cy="204" r="3" fill="#1F78B4" stroke="none" opacity="1"/><circle cx="625" cy="203" r="3" fill="#1F78B4" stroke="none" opacity="1"/><circle cx="633" cy="211" r="3" fill="#1F78B4" stroke="none" opacity="1"/><circle cx="642" cy="195" r="3" fill="#1F78B4" stroke="none" opacity="1"/><circle cx="651" cy="202" r="3" fill="#1F78B4" stroke="none" opacity="1"/><circle cx="659" cy="176" r="3" fill="#1F78B4" stroke="none" opacity="1"/><circle cx="668" cy="172" r="3" fill="#1F78B4" stroke="none" opacity="1"/><circle cx="676" cy="179" r="3" fill="#1F78B4" stroke="none" opacity="1"/><circle cx="685" cy="173" r="3" fill="#1F78B4" stroke="none" opacity="1"/><circle cx="693" cy="173" r="3" fill="#1F78B4" stroke="none" opacity="1"/><circle cx="702" cy="173" r="3" fill="#1F78B4" stroke="none" opacity="1"/><circle cx="710" cy="165" r="3" fill="#1F78B4" stroke="none" opacity="1"/><circle cx="719" cy="162" r="3" fill="#1F78B4" stroke="none" opacity="1"/><circle cx="727" cy="144" r="3" fill="#1F78B4" stroke="none" opacity="1"/><circle cx="736" cy="152" r="3" fill="#1F78B4" stroke="none" opacity="1"/><circle cx="745" cy="136" r="3" fill="#1F78B4" stroke="none" opacity="1"/><circle cx="753" cy="134" r="3" fill="#1F78B4" stroke="none" opacity="1"/><circle cx="762" cy="139" r="3" fill="#1F78B4" stroke="none" opacity="1"/><circle cx="770" cy="135" r="3" fill="#1F78B4" stroke="none" opacity="1"/><circle cx="779" cy="130" r="3" fill="#1F78B4" stroke="none" opacity="1"/><circle cx="787" cy="126" r="3" fill="#1F78B4" stroke="none" opacity="1"/><circle cx="796" cy="129" r="3" fill="#1F78B4" stroke="none" opacity="1"/><circle cx="804" cy="100" r="3" fill="#1F78B4" stroke="none" opacity="1"/><circle cx="813" cy="113" r="3" fill="#1F78B4" stroke="none" opacity="1"/><circle cx="821" cy="114" r="3" fill="#1F78B4" stroke="none" opacity="1"/><circle cx="830" cy="98" r="3" fill="#1F78B4" stroke="none" opacity="1"/><circle cx="839" cy="83" r="3" fill="#1F78B4" stroke="none" opacity="1"/><circle cx="847" cy="89" r="3" fill="#1F78B4" stroke="none" opacity="1"/><circle cx="856" cy="104" r="3" fill="#1F78B4" stroke="none" opacity="1"/><circle cx="864" cy="98" r="3" fill="#1F78B4" stroke="none" opacity="1"/><circle cx="873" cy="77" r="3" fill="#1F78B4" stroke="none" opacity="1"/><circle cx="881" cy="86" r="3" fill="#1F78B4" stroke="none" opacity="1"/><circle cx="890" cy="67" r="3" fill="#1F78B4" stroke="none" opacity="1"/><circle cx="898" cy="57" r="3" fill="#1F78B4" stroke="none" opacity="1"/><circle cx="907" cy="57" r="3" fill="#1F78B4" stroke="none" opacity="1"/><circle cx="915" cy="53" r="3" fill="#1F78B4" stroke="none" opacity="1"/><circle cx="924" cy="72" r="3" fill="#1F78B4" stroke="none" opacity="1"/><circle cx="933" cy="59" r="3" fill="#1F78B4" stroke="none" opacity="1"/><polyline fill="none" stroke="#1F78B4" stroke-width="1" points="87 473 933 53" opacity="1"/><polygon fill="#1F78B4" points="87 473 933 53 933 53" opacity=".25"/><text x="132" y="68" fill="#000" dy=".76em" font-family="sans-serif" font-size="9.677" opacity="1" text-anchor="start">Sample</text><text x="132" y="83" fill="#000" dy=".76em" font-family="sans-serif" font-size="9.677" opacity="1" text-anchor="start">Linear regression</text><text x="132" y="98" fill="#000" dy=".76em" font-family="sans-serif" font-size="9.677" opacity="1" text-anchor="start">Confidence interval</text><circle cx="112" cy="73" r="3" fill="#1F78B4" stroke="none" opacity="1"/><polyline fill="none" stroke="#1F78B4" stroke-width="2" points="102 88 122 88" opacity="1"/><rect width="20" height="10" x="102" y="98" fill="#1F78B4" stroke="none" opacity=".25"/></svg>