<svg xmlns="http://www.w3.org/2000/svg" width="960" height="540"><text x="480" y="32" fill="#000" dy=".76em" font-family="sans-serif" font-size="16.129" opacity="1" text-anchor="middle">bench_group/threads_04/268435456</text><text x="27" y="263" fill="#000" dy=".76em" font-family="sans-serif" font-size="9.677" opacity="1" text-anchor="middle" transform="rotate(270, 27, 263)">Total sample time (s)</text><text x="510" y="513" fill="#000" dy="-.5ex" font-family="sans-serif" font-size="9.677" opacity="1" text-anchor="middle">Iterations</text><line x1="163" x2="163" y1="472" y2="52" stroke="#000" stroke-width="1" opacity=".2"/><line x1="249" x2="249" y1="472" y2="52" stroke="#000" stroke-width="1" opacity=".2"/><line x1="334" x2="334" y1="472" y2="52" stroke="#000" stroke-width="1" opacity=".2"/><line x1="420" x2="420" y1="472" y2="52" stroke="#000" stroke-width="1" opacity=".2"/><line x1="505" x2="505" y1="472" y2="52" stroke="#000" stroke-width="1" opacity=".2"/><line x1="591" x2="591" y1="472" y2="52" stroke="#000" stroke-width="1" opacity=".2"/><line x1="676" x2="676" y1="472" y2="52" stroke="#000" stroke-width="1" opacity=".2"/><line x1="762" x2="762" y1="472" y2="52" stroke="#000" stroke-width="1" opacity=".2"/><line x1="847" x2="847" y1="472" y2="52" stroke="#000" stroke-width="1" opacity=".2"/><line x1="933" x2="933" y1="472" y2="52" stroke="#000" stroke-width="1" opacity=".2"/><line x1="87" x2="933" y1="404" y2="404" stroke="#000" stroke-width="1" opacity=".2"/><line x1="87" x2="933" y1="333" y2="333" stroke="#000" stroke-width="1" opacity=".2"/><line x1="87" x2="933" y1="261" y2="261" stroke="#000" stroke-width="1" opacity=".2"/><line x1="87" x2="933" y1="190" y2="190" stroke="#000" stroke-width="1" opacity=".2"/><line x1="87" x2="933" y1="118" y2="118" stroke="#000" stroke-width="1" opacity=".2"/><polyline fill="none" stroke="#000" stroke-width="1" points="86 53 86 473" opacity="1"/><text x="77" y="404" fill="#000" dy=".5ex" font-family="sans-serif" font-size="9.677" opacity="1" text-anchor="end">0.2</text><polyline fill="none" stroke="#000" stroke-width="1" points="81 404 86 404" opacity="1"/><text x="77" y="333" fill="#000" dy=".5ex" font-family="sans-serif" font-size="9.677" opacity="1" text-anchor="end">0.4</text><polyline fill="none" stroke="#000" stroke-width="1" points="81 333 86 333" opacity="1"/><text x="77" y="261" fill="#000" dy=".5ex" font-family="sans-serif" font-size="9.677" opacity="1" text-anchor="end">0.6</text><polyline fill="none" stroke="#000" stroke-width="1" points="81 261 86 261" opacity="1"/><text x="77" y="190" fill="#000" dy=".5ex" font-family="sans-serif" font-size="9.677" opacity="1" text-anchor="end">0.8</text><polyline fill="none" stroke="#000" stroke-width="1" points="81 190 86 190" opacity="1"/><text x="77" y="118" fill="#000" dy=".5ex" font-family="sans-serif" font-size="9.677" opacity="1" text-anchor="end">1.0</text><polyline fill="none" stroke="#000" stroke-width="1" points="81 118 86 118" opacity="1"/><polyline fill="none" stroke="#000" stroke-width="1" points="87 473 933 473" opacity="1"/><text x="163" y="483" fill="#000" dy=".76em" font-family="sans-serif" font-size="9.677" opacity="1" text-anchor="middle">10</text><polyline fill="none" stroke="#000" stroke-width="1" points="163 473 163 478" opacity="1"/><text x="249" y="483" fill="#000" dy=".76em" font-family="sans-serif" font-size="9.677" opacity="1" text-anchor="middle">20</text><polyline fill="none" stroke="#000" stroke-width="1" points="249 473 249 478" opacity="1"/><text x="334" y="483" fill="#000" dy=".76em" font-family="sans-serif" font-size="9.677" opacity="1" text-anchor="middle">30</text><polyline fill="none" stroke="#000" stroke-width="1" points="334 473 334 478" opacity="1"/><text x="420" y="483" fill="#000" dy=".76em" font-family="sans-serif" font-size="9.677" opacity="1" text-anchor="middle">40</text><polyline fill="none" stroke="#000" stroke-width="1" points="420 473 420 478" opacity="1"/><text x="505" y="483" fill="#000" dy=".76em" font-family="sans-serif" font-size="9.677" opacity="1" text-anchor="middle">50</text><polyline fill="none" stroke="#000" stroke-width="1" points="505 473 505 478" opacity="1"/><text x="591" y="483" fill="#000" dy=".76em" font-family="sans-serif" font-size="9.677" opacity="1" text-anchor="middle">60</text><polyline fill="none" stroke="#000" stroke-width="1" points="591 473 591 478" opacity="1"/><text x="676" y="483" fill="#000" dy=".76em" font-family="sans-serif" font-size="9.677" opacity="1" text-anchor="middle">70</text><polyline fill="none" stroke="#000" stroke-width="1" points="676 473 676 478" opacity="1"/><text x="762" y="483" fill="#000" dy=".76em" font-family="sans-serif" font-size="9.677" opacity="1" text-anchor="middle">80</text><polyline fill="none" stroke="#000" stroke-width="1" points="762 473 762 478" opacity="1"/><text x="847" y="483" fill="#000" dy=".76em" font-family="sans-serif" font-size="9.677" opacity="1" text-anchor="middle">90</text><polyline fill="none" stroke="#000" stroke-width="1" points="847 473 847 478" opacity="1"/><text x="933" y="483" fill="#000" dy=".76em" font-family="sans-serif" font-size="9.677" opacity="1" text-anchor="middle">100</text><polyline fill="none" stroke="#000" stroke-width="1" points="933 473 933 478" opacity="1"/><circle cx="87" cy="472" r="3" fill="#1F78B4" stroke="none" opacity="1"/><circle cx="95" cy="467" r="3" fill="#1F78B4" stroke="none" opacity="1"/><circle cx="104" cy="463" r="3" fill="#1F78B4" stroke="none" opacity="1"/><circle cx="112" cy="460" r="3" fill="#1F78B4" stroke="none" opacity="1"/><circle cx="121" cy="455" r="3" fill="#1F78B4" stroke="none" opacity="1"/><circle cx="129" cy="451" r="3" fill="#1F78B4" stroke="none" opacity="1"/><circle cx="138" cy="447" r="3" fill="#1F78B4" stroke="none" opacity="1"/><circle cx="146" cy="443" r="3" fill="#1F78B4" stroke="none" opacity="1"/><circle cx="155" cy="439" r="3" fill="#1F78B4" stroke="none" opacity="1"/><circle cx="163" cy="433" r="3" fill="#1F78B4" stroke="none" opacity="1"/><circle cx="172" cy="431" r="3" fill="#1F78B4" stroke="none" opacity="1"/><circle cx="181" cy="427" r="3" fill="#1F78B4" stroke="none" opacity="1"/><circle cx="189" cy="421" r="3" fill="#1F78B4" stroke="none" opacity="1"/><circle cx="198" cy="418" r="3" fill="#1F78B4" stroke="none" opacity="1"/><circle cx="206" cy="414" r="3" fill="#1F78B4" stroke="none" opacity="1"/><circle cx="215" cy="410" r="3" fill="#1F78B4" stroke="none" opacity="1"/><circle cx="223" cy="407" r="3" fill="#1F78B4" stroke="none" opacity="1"/><circle cx="232" cy="401" r="3" fill="#1F78B4" stroke="none" opacity="1"/><circle cx="240" cy="398" r="3" fill="#1F78B4" stroke="none" opacity="1"/><circle cx="249" cy="393" r="3" fill="#1F78B4" stroke="none" opacity="1"/><circle cx="257" cy="390" r="3" fill="#1F78B4" stroke="none" opacity="1"/><circle cx="266" cy="384" r="3" fill="#1F78B4" stroke="none" opacity="1"/><circle cx="275" cy="382" r="3" fill="#1F78B4" stroke="none" opacity="1"/><circle cx="283" cy="376" r="3" fill="#1F78B4" stroke="none" opacity="1"/><circle cx="292" cy="373" r="3" fill="#1F78B4" stroke="none" opacity="1"/><circle cx="300" cy="369" r="3" fill="#1F78B4" stroke="none" opacity="1"/><circle cx="309" cy="366" r="3" fill="#1F78B4" stroke="none" opacity="1"/><circle cx="317" cy="360" r="3" fill="#1F78B4" stroke="none" opacity="1"/><circle cx="326" cy="357" r="3" fill="#1F78B4" stroke="none" opacity="1"/><circle cx="334" cy="351" r="3" fill="#1F78B4" stroke="none" opacity="1"/><circle cx="343" cy="349" r="3" fill="#1F78B4" stroke="none" opacity="1"/><circle cx="351" cy="340" r="3" fill="#1F78B4" stroke="none" opacity="1"/><circle cx="360" cy="341" r="3" fill="#1F78B4" stroke="none" opacity="1"/><circle cx="369" cy="337" r="3" fill="#1F78B4" stroke="none" opacity="1"/><circle cx="377" cy="331" r="3" fill="#1F78B4" stroke="none" opacity="1"/><circle cx="386" cy="328" r="3" fill="#1F78B4" stroke="none" opacity="1"/><circle cx="394" cy="324" r="3" fill="#1F78B4" stroke="none" opacity="1"/><circle cx="403" cy="320" r="3" fill="#1F78B4" stroke="none" opacity="1"/><circle cx="411" cy="316" r="3" fill="#1F78B4" stroke="none" opacity="1"/><circle cx="420" cy="307" r="3" fill="#1F78B4" stroke="none" opacity="1"/><circle cx="428" cy="307" r="3" fill="#1F78B4" stroke="none" opacity="1"/><circle cx="437" cy="303" r="3" fill="#1F78B4" stroke="none" opacity="1"/><circle cx="445" cy="298" r="3" fill="#1F78B4" stroke="none" opacity="1"/><circle cx="454" cy="294" r="3" fill="#1F78B4" stroke="none" opacity="1"/><circle cx="463" cy="291" r="3" fill="#1F78B4" stroke="none" opacity="1"/><circle cx="471" cy="285" r="3" fill="#1F78B4" stroke="none" opacity="1"/><circle cx="480" cy="282" r="3" fill="#1F78B4" stroke="none" opacity="1"/><circle cx="488" cy="277" r="3" fill="#1F78B4" stroke="none" opacity="1"/><circle cx="497" cy="275" r="3" fill="#1F78B4" stroke="none" opacity="1"/><circle cx="505" cy="270" r="3" fill="#1F78B4" stroke="none" opacity="1"/><circle cx="514" cy="265" r="3" fill="#1F78B4" stroke="none" opacity="1"/><circle cx="522" cy="261" r="3" fill="#1F78B4" stroke="none" opacity="1"/><circle cx="531" cy="257" r="3" fill="#1F78B4" stroke="none" opacity="1"/><circle cx="539" cy="250" r="3" fill="#1F78B4" stroke="none" opacity="1"/><circle cx="548" cy="251" r="3" fill="#1F78B4" stroke="none" opacity="1"/><circle cx="557" cy="246" r="3" fill="#1F78B4" stroke="none" opacity="1"/><circle cx="565" cy="240" r="3" fill="#1F78B4" stroke="none" opacity="1"/><circle cx="574" cy="238" r="3" fill="#1F78B4" stroke="none" opacity="1"/><circle cx="582" cy="234" r="3" fill="#1F78B4" stroke="none" opacity="1"/><circle cx="591" cy="230" r="3" fill="#1F78B4" stroke="none" opacity="1"/><circle cx="599" cy="224" r="3" fill="#1F78B4" stroke="none" opacity="1"/><circle cx="608" cy="219" r="3" fill="#1F78B4" stroke="none" opacity="1"/><circle cx="616" cy="217" r="3" fill="#1F78B4" stroke="none" opacity="1"/><circle cx="625" cy="214" r="3" fill="#1F78B4" stroke="none" opacity="1"/><circle cx="633" cy="208" r="3" fill="#1F78B4" stroke="none" opacity="1"/><circle cx="642" cy="206" r="3" fill="#1F78B4" stroke="none" opacity="1"/><circle cx="651" cy="197" r="3" fill="#1F78B4" stroke="none" opacity="1"/><circle cx="659" cy="191" r="3" fill="#1F78B4" stroke="none" opacity="1"/><circle cx="668" cy="186" r="3" fill="#1F78B4" stroke="none" opacity="1"/><circle cx="676" cy="187" r="3" fill="#1F78B4" stroke="none" opacity="1"/><circle cx="685" cy="181" r="3" fill="#1F78B4" stroke="none" opacity="1"/><circle cx="693" cy="178" r="3" fill="#1F78B4" stroke="none" opacity="1"/><circle cx="702" cy="174" r="3" fill="#1F78B4" stroke="none" opacity="1"/><circle cx="710" cy="168" r="3" fill="#1F78B4" stroke="none" opacity="1"/><circle cx="719" cy="163" r="3" fill="#1F78B4" stroke="none" opacity="1"/><circle cx="727" cy="161" r="3" fill="#1F78B4" stroke="none" opacity="1"/><circle cx="736" cy="154" r="3" fill="#1F78B4" stroke="none" opacity="1"/><circle cx="745" cy="153" r="3" fill="#1F78B4" stroke="none" opacity="1"/><circle cx="753" cy="147" r="3" fill="#1F78B4" stroke="none" opacity="1"/><circle cx="762" cy="149" r="3" fill="#1F78B4" stroke="none" opacity="1"/><circle cx="770" cy="139" r="3" fill="#1F78B4" stroke="none" opacity="1"/><circle cx="779" cy="138" r="3" fill="#1F78B4" stroke="none" opacity="1"/><circle cx="787" cy="133" r="3" fill="#1F78B4" stroke="none" opacity="1"/><circle cx="796" cy="125" r="3" fill="#1F78B4" stroke="none" opacity="1"/><circle cx="804" cy="122" r="3" fill="#1F78B4" stroke="none" opacity="1"/><circle cx="813" cy="120" r="3" fill="#1F78B4" stroke="none" opacity="1"/><circle cx="821" cy="112" r="3" fill="#1F78B4" stroke="none" opacity="1"/><circle cx="830" cy="115" r="3" fill="#1F78B4" stroke="none" opacity="1"/><circle cx="839" cy="109" r="3" fill="#1F78B4" stroke="none" opacity="1"/><circle cx="847" cy="101" r="3" fill="#1F78B4" stroke="none" opacity="1"/><circle cx="856" cy="96" r="3" fill="#1F78B4" stroke="none" opacity="1"/><circle cx="864" cy="91" r="3" fill="#1F78B4" stroke="none" opacity="1"/><circle cx="873" cy="83" r="3" fill="#1F78B4" stroke="none" opacity="1"/><circle cx="881" cy="79" r="3" fill="#1F78B4" stroke="none" opacity="1"/><circle cx="890" cy="74" r="3" fill="#1F78B4" stroke="none" opacity="1"/><circle cx="898" cy="71" r="3" fill="#1F78B4" stroke="none" opacity="1"/><circle cx="907" cy="70" r="3" fill="#1F78B4" stroke="none" opacity="1"/><circle cx="915" cy="57" r="3" fill="#1F78B4" stroke="none" opacity="1"/><circle cx="924" cy="53" r="3" fill="#1F78B4" stroke="none" opacity="1"/><circle cx="933" cy="54" r="3" fill="#1F78B4" stroke="none" opacity="1"/><polyline fill="none" stroke="#1F78B4" stroke-width="1" points="87 473 933 60" opacity="1"/><polygon fill="#1F78B4" points="87 473 933 61 933 59" opacity=".25"/><text x="132" y="68" fill="#000" dy=".76em" font-family="sans-serif" font-size="9.677" opacity="1" text-anchor="start">Sample</text><text x="132" y="83" fill="#000" dy=".76em" font-family="sans-serif" font-size="9.677" opacity="1" text-anchor="start">Linear regression</text><text x="132" y="98" fill="#000" dy=".76em" font-family="sans-serif" font-size="9.677" opacity="1" text-anchor="start">Confidence interval</text><circle cx="112" cy="73" r="3" fill="#1F78B4" stroke="none" opacity="1"/><polyline fill="none" stroke="#1F78B4" stroke-width="2" points="102 88 122 88" opacity="1"/><rect width="20" height="10" x="102" y="98" fill="#1F78B4" stroke="none" opacity=".25"/></svg>