<svg xmlns="http://www.w3.org/2000/svg" width="960" height="540"><text x="480" y="32" fill="#000" dy=".76em" font-family="sans-serif" font-size="16.129" opacity="1" text-anchor="middle">bench_group/threads_16/8388608</text><text x="27" y="263" fill="#000" dy=".76em" font-family="sans-serif" font-size="9.677" opacity="1" text-anchor="middle" transform="rotate(270, 27, 263)">Total sample time (ms)</text><text x="510" y="513" fill="#000" dy="-.5ex" font-family="sans-serif" font-size="9.677" opacity="1" text-anchor="middle">Iterations (x 10^3)</text><line x1="163" x2="163" y1="472" y2="52" stroke="#000" stroke-width="1" opacity=".2"/><line x1="249" x2="249" y1="472" y2="52" stroke="#000" stroke-width="1" opacity=".2"/><line x1="334" x2="334" y1="472" y2="52" stroke="#000" stroke-width="1" opacity=".2"/><line x1="420" x2="420" y1="472" y2="52" stroke="#000" stroke-width="1" opacity=".2"/><line x1="505" x2="505" y1="472" y2="52" stroke="#000" stroke-width="1" opacity=".2"/><line x1="591" x2="591" y1="472" y2="52" stroke="#000" stroke-width="1" opacity=".2"/><line x1="676" x2="676" y1="472" y2="52" stroke="#000" stroke-width="1" opacity=".2"/><line x1="762" x2="762" y1="472" y2="52" stroke="#000" stroke-width="1" opacity=".2"/><line x1="847" x2="847" y1="472" y2="52" stroke="#000" stroke-width="1" opacity=".2"/><line x1="933" x2="933" y1="472" y2="52" stroke="#000" stroke-width="1" opacity=".2"/><line x1="87" x2="933" y1="396" y2="396" stroke="#000" stroke-width="1" opacity=".2"/><line x1="87" x2="933" y1="317" y2="317" stroke="#000" stroke-width="1" opacity=".2"/><line x1="87" x2="933" y1="237" y2="237" stroke="#000" stroke-width="1" opacity=".2"/><line x1="87" x2="933" y1="157" y2="157" stroke="#000" stroke-width="1" opacity=".2"/><line x1="87" x2="933" y1="77" y2="77" stroke="#000" stroke-width="1" opacity=".2"/><polyline fill="none" stroke="#000" stroke-width="1" points="86 53 86 473" opacity="1"/><text x="77" y="396" fill="#000" dy=".5ex" font-family="sans-serif" font-size="9.677" opacity="1" text-anchor="end">20.0</text><polyline fill="none" stroke="#000" stroke-width="1" points="81 396 86 396" opacity="1"/><text x="77" y="317" fill="#000" dy=".5ex" font-family="sans-serif" font-size="9.677" opacity="1" text-anchor="end">40.0</text><polyline fill="none" stroke="#000" stroke-width="1" points="81 317 86 317" opacity="1"/><text x="77" y="237" fill="#000" dy=".5ex" font-family="sans-serif" font-size="9.677" opacity="1" text-anchor="end">60.0</text><polyline fill="none" stroke="#000" stroke-width="1" points="81 237 86 237" opacity="1"/><text x="77" y="157" fill="#000" dy=".5ex" font-family="sans-serif" font-size="9.677" opacity="1" text-anchor="end">80.0</text><polyline fill="none" stroke="#000" stroke-width="1" points="81 157 86 157" opacity="1"/><text x="77" y="77" fill="#000" dy=".5ex" font-family="sans-serif" font-size="9.677" opacity="1" text-anchor="end">100.0</text><polyline fill="none" stroke="#000" stroke-width="1" points="81 77 86 77" opacity="1"/><polyline fill="none" stroke="#000" stroke-width="1" points="87 473 933 473" opacity="1"/><text x="163" y="483" fill="#000" dy=".76em" font-family="sans-serif" font-size="9.677" opacity="1" text-anchor="middle">0.1</text><polyline fill="none" stroke="#000" stroke-width="1" points="163 473 163 478" opacity="1"/><text x="249" y="483" fill="#000" dy=".76em" font-family="sans-serif" font-size="9.677" opacity="1" text-anchor="middle">0.2</text><polyline fill="none" stroke="#000" stroke-width="1" points="249 473 249 478" opacity="1"/><text x="334" y="483" fill="#000" dy=".76em" font-family="sans-serif" font-size="9.677" opacity="1" text-anchor="middle">0.3</text><polyline fill="none" stroke="#000" stroke-width="1" points="334 473 334 478" opacity="1"/><text x="420" y="483" fill="#000" dy=".76em" font-family="sans-serif" font-size="9.677" opacity="1" text-anchor="middle">0.4</text><polyline fill="none" stroke="#000" stroke-width="1" points="420 473 420 478" opacity="1"/><text x="505" y="483" fill="#000" dy=".76em" font-family="sans-serif" font-size="9.677" opacity="1" text-anchor="middle">0.5</text><polyline fill="none" stroke="#000" stroke-width="1" points="505 473 505 478" opacity="1"/><text x="591" y="483" fill="#000" dy=".76em" font-family="sans-serif" font-size="9.677" opacity="1" text-anchor="middle">0.6</text><polyline fill="none" stroke="#000" stroke-width="1" points="591 473 591 478" opacity="1"/><text x="676" y="483" fill="#000" dy=".76em" font-family="sans-serif" font-size="9.677" opacity="1" text-anchor="middle">0.7</text><polyline fill="none" stroke="#000" stroke-width="1" points="676 473 676 478" opacity="1"/><text x="762" y="483" fill="#000" dy=".76em" font-family="sans-serif" font-size="9.677" opacity="1" text-anchor="middle">0.8</text><polyline fill="none" stroke="#000" stroke-width="1" points="762 473 762 478" opacity="1"/><text x="847" y="483" fill="#000" dy=".76em" font-family="sans-serif" font-size="9.677" opacity="1" text-anchor="middle">0.9</text><polyline fill="none" stroke="#000" stroke-width="1" points="847 473 847 478" opacity="1"/><text x="933" y="483" fill="#000" dy=".76em" font-family="sans-serif" font-size="9.677" opacity="1" text-anchor="middle">1</text><polyline fill="none" stroke="#000" stroke-width="1" points="933 473 933 478" opacity="1"/><circle cx="87" cy="472" r="3" fill="#1F78B4" stroke="none" opacity="1"/><circle cx="95" cy="468" r="3" fill="#1F78B4" stroke="none" opacity="1"/><circle cx="104" cy="462" r="3" fill="#1F78B4" stroke="none" opacity="1"/><circle cx="112" cy="458" r="3" fill="#1F78B4" stroke="none" opacity="1"/><circle cx="121" cy="454" r="3" fill="#1F78B4" stroke="none" opacity="1"/><circle cx="129" cy="451" r="3" fill="#1F78B4" stroke="none" opacity="1"/><circle cx="138" cy="447" r="3" fill="#1F78B4" stroke="none" opacity="1"/><circle cx="146" cy="443" r="3" fill="#1F78B4" stroke="none" opacity="1"/><circle cx="155" cy="436" r="3" fill="#1F78B4" stroke="none" opacity="1"/><circle cx="163" cy="432" r="3" fill="#1F78B4" stroke="none" opacity="1"/><circle cx="172" cy="427" r="3" fill="#1F78B4" stroke="none" opacity="1"/><circle cx="181" cy="423" r="3" fill="#1F78B4" stroke="none" opacity="1"/><circle cx="189" cy="419" r="3" fill="#1F78B4" stroke="none" opacity="1"/><circle cx="198" cy="414" r="3" fill="#1F78B4" stroke="none" opacity="1"/><circle cx="206" cy="415" r="3" fill="#1F78B4" stroke="none" opacity="1"/><circle cx="215" cy="406" r="3" fill="#1F78B4" stroke="none" opacity="1"/><circle cx="223" cy="400" r="3" fill="#1F78B4" stroke="none" opacity="1"/><circle cx="232" cy="397" r="3" fill="#1F78B4" stroke="none" opacity="1"/><circle cx="240" cy="393" r="3" fill="#1F78B4" stroke="none" opacity="1"/><circle cx="249" cy="388" r="3" fill="#1F78B4" stroke="none" opacity="1"/><circle cx="257" cy="383" r="3" fill="#1F78B4" stroke="none" opacity="1"/><circle cx="266" cy="380" r="3" fill="#1F78B4" stroke="none" opacity="1"/><circle cx="275" cy="376" r="3" fill="#1F78B4" stroke="none" opacity="1"/><circle cx="283" cy="371" r="3" fill="#1F78B4" stroke="none" opacity="1"/><circle cx="292" cy="368" r="3" fill="#1F78B4" stroke="none" opacity="1"/><circle cx="300" cy="362" r="3" fill="#1F78B4" stroke="none" opacity="1"/><circle cx="309" cy="359" r="3" fill="#1F78B4" stroke="none" opacity="1"/><circle cx="317" cy="354" r="3" fill="#1F78B4" stroke="none" opacity="1"/><circle cx="326" cy="350" r="3" fill="#1F78B4" stroke="none" opacity="1"/><circle cx="334" cy="353" r="3" fill="#1F78B4" stroke="none" opacity="1"/><circle cx="343" cy="341" r="3" fill="#1F78B4" stroke="none" opacity="1"/><circle cx="351" cy="337" r="3" fill="#1F78B4" stroke="none" opacity="1"/><circle cx="360" cy="332" r="3" fill="#1F78B4" stroke="none" opacity="1"/><circle cx="369" cy="328" r="3" fill="#1F78B4" stroke="none" opacity="1"/><circle cx="377" cy="324" r="3" fill="#1F78B4" stroke="none" opacity="1"/><circle cx="386" cy="328" r="3" fill="#1F78B4" stroke="none" opacity="1"/><circle cx="394" cy="315" r="3" fill="#1F78B4" stroke="none" opacity="1"/><circle cx="403" cy="311" r="3" fill="#1F78B4" stroke="none" opacity="1"/><circle cx="411" cy="306" r="3" fill="#1F78B4" stroke="none" opacity="1"/><circle cx="420" cy="303" r="3" fill="#1F78B4" stroke="none" opacity="1"/><circle cx="428" cy="297" r="3" fill="#1F78B4" stroke="none" opacity="1"/><circle cx="437" cy="293" r="3" fill="#1F78B4" stroke="none" opacity="1"/><circle cx="445" cy="290" r="3" fill="#1F78B4" stroke="none" opacity="1"/><circle cx="454" cy="286" r="3" fill="#1F78B4" stroke="none" opacity="1"/><circle cx="463" cy="282" r="3" fill="#1F78B4" stroke="none" opacity="1"/><circle cx="471" cy="271" r="3" fill="#1F78B4" stroke="none" opacity="1"/><circle cx="480" cy="273" r="3" fill="#1F78B4" stroke="none" opacity="1"/><circle cx="488" cy="262" r="3" fill="#1F78B4" stroke="none" opacity="1"/><circle cx="497" cy="263" r="3" fill="#1F78B4" stroke="none" opacity="1"/><circle cx="505" cy="261" r="3" fill="#1F78B4" stroke="none" opacity="1"/><circle cx="514" cy="255" r="3" fill="#1F78B4" stroke="none" opacity="1"/><circle cx="522" cy="245" r="3" fill="#1F78B4" stroke="none" opacity="1"/><circle cx="531" cy="246" r="3" fill="#1F78B4" stroke="none" opacity="1"/><circle cx="539" cy="237" r="3" fill="#1F78B4" stroke="none" opacity="1"/><circle cx="548" cy="237" r="3" fill="#1F78B4" stroke="none" opacity="1"/><circle cx="557" cy="234" r="3" fill="#1F78B4" stroke="none" opacity="1"/><circle cx="565" cy="230" r="3" fill="#1F78B4" stroke="none" opacity="1"/><circle cx="574" cy="238" r="3" fill="#1F78B4" stroke="none" opacity="1"/><circle cx="582" cy="220" r="3" fill="#1F78B4" stroke="none" opacity="1"/><circle cx="591" cy="216" r="3" fill="#1F78B4" stroke="none" opacity="1"/><circle cx="599" cy="211" r="3" fill="#1F78B4" stroke="none" opacity="1"/><circle cx="608" cy="206" r="3" fill="#1F78B4" stroke="none" opacity="1"/><circle cx="616" cy="202" r="3" fill="#1F78B4" stroke="none" opacity="1"/><circle cx="625" cy="200" r="3" fill="#1F78B4" stroke="none" opacity="1"/><circle cx="633" cy="195" r="3" fill="#1F78B4" stroke="none" opacity="1"/><circle cx="642" cy="191" r="3" fill="#1F78B4" stroke="none" opacity="1"/><circle cx="651" cy="187" r="3" fill="#1F78B4" stroke="none" opacity="1"/><circle cx="659" cy="197" r="3" fill="#1F78B4" stroke="none" opacity="1"/><circle cx="668" cy="193" r="3" fill="#1F78B4" stroke="none" opacity="1"/><circle cx="676" cy="169" r="3" fill="#1F78B4" stroke="none" opacity="1"/><circle cx="685" cy="167" r="3" fill="#1F78B4" stroke="none" opacity="1"/><circle cx="693" cy="181" r="3" fill="#1F78B4" stroke="none" opacity="1"/><circle cx="702" cy="177" r="3" fill="#1F78B4" stroke="none" opacity="1"/><circle cx="710" cy="156" r="3" fill="#1F78B4" stroke="none" opacity="1"/><circle cx="719" cy="168" r="3" fill="#1F78B4" stroke="none" opacity="1"/><circle cx="727" cy="137" r="3" fill="#1F78B4" stroke="none" opacity="1"/><circle cx="736" cy="161" r="3" fill="#1F78B4" stroke="none" opacity="1"/><circle cx="745" cy="138" r="3" fill="#1F78B4" stroke="none" opacity="1"/><circle cx="753" cy="154" r="3" fill="#1F78B4" stroke="none" opacity="1"/><circle cx="762" cy="148" r="3" fill="#1F78B4" stroke="none" opacity="1"/><circle cx="770" cy="125" r="3" fill="#1F78B4" stroke="none" opacity="1"/><circle cx="779" cy="120" r="3" fill="#1F78B4" stroke="none" opacity="1"/><circle cx="787" cy="136" r="3" fill="#1F78B4" stroke="none" opacity="1"/><circle cx="796" cy="106" r="3" fill="#1F78B4" stroke="none" opacity="1"/><circle cx="804" cy="107" r="3" fill="#1F78B4" stroke="none" opacity="1"/><circle cx="813" cy="104" r="3" fill="#1F78B4" stroke="none" opacity="1"/><circle cx="821" cy="119" r="3" fill="#1F78B4" stroke="none" opacity="1"/><circle cx="830" cy="92" r="3" fill="#1F78B4" stroke="none" opacity="1"/><circle cx="839" cy="111" r="3" fill="#1F78B4" stroke="none" opacity="1"/><circle cx="847" cy="78" r="3" fill="#1F78B4" stroke="none" opacity="1"/><circle cx="856" cy="81" r="3" fill="#1F78B4" stroke="none" opacity="1"/><circle cx="864" cy="99" r="3" fill="#1F78B4" stroke="none" opacity="1"/><circle cx="873" cy="95" r="3" fill="#1F78B4" stroke="none" opacity="1"/><circle cx="881" cy="91" r="3" fill="#1F78B4" stroke="none" opacity="1"/><circle cx="890" cy="63" r="3" fill="#1F78B4" stroke="none" opacity="1"/><circle cx="898" cy="53" r="3" fill="#1F78B4" stroke="none" opacity="1"/><circle cx="907" cy="57" r="3" fill="#1F78B4" stroke="none" opacity="1"/><circle cx="915" cy="54" r="3" fill="#1F78B4" stroke="none" opacity="1"/><circle cx="924" cy="71" r="3" fill="#1F78B4" stroke="none" opacity="1"/><circle cx="933" cy="66" r="3" fill="#1F78B4" stroke="none" opacity="1"/><polyline fill="none" stroke="#1F78B4" stroke-width="1" points="87 473 933 53" opacity="1"/><polygon fill="#1F78B4" points="87 473 933 53 933 53" opacity=".25"/><text x="132" y="68" fill="#000" dy=".76em" font-family="sans-serif" font-size="9.677" opacity="1" text-anchor="start">Sample</text><text x="132" y="83" fill="#000" dy=".76em" font-family="sans-serif" font-size="9.677" opacity="1" text-anchor="start">Linear regression</text><text x="132" y="98" fill="#000" dy=".76em" font-family="sans-serif" font-size="9.677" opacity="1" text-anchor="start">Confidence interval</text><circle cx="112" cy="73" r="3" fill="#1F78B4" stroke="none" opacity="1"/><polyline fill="none" stroke="#1F78B4" stroke-width="2" points="102 88 122 88" opacity="1"/><rect width="20" height="10" x="102" y="98" fill="#1F78B4" stroke="none" opacity=".25"/></svg>