<svg xmlns="http://www.w3.org/2000/svg" width="960" height="540"><text x="480" y="32" fill="#000" dy=".76em" font-family="sans-serif" font-size="16.129" opacity="1" text-anchor="middle">bench_group/threads_02/4194304</text><text x="27" y="263" fill="#000" dy=".76em" font-family="sans-serif" font-size="9.677" opacity="1" text-anchor="middle" transform="rotate(270, 27, 263)">Iterations</text><text x="480" y="513" fill="#000" dy="-.5ex" font-family="sans-serif" font-size="9.677" opacity="1" text-anchor="middle">Average Time (us)</text><polyline fill="none" stroke="#000" stroke-width="1" points="86 53 86 473" opacity="1"/><text x="77" y="419" fill="#000" dy=".5ex" font-family="sans-serif" font-size="9.677" opacity="1" text-anchor="end">50</text><polyline fill="none" stroke="#000" stroke-width="1" points="81 419 86 419" opacity="1"/><text x="77" y="367" fill="#000" dy=".5ex" font-family="sans-serif" font-size="9.677" opacity="1" text-anchor="end">100</text><polyline fill="none" stroke="#000" stroke-width="1" points="81 367 86 367" opacity="1"/><text x="77" y="314" fill="#000" dy=".5ex" font-family="sans-serif" font-size="9.677" opacity="1" text-anchor="end">150</text><polyline fill="none" stroke="#000" stroke-width="1" points="81 314 86 314" opacity="1"/><text x="77" y="262" fill="#000" dy=".5ex" font-family="sans-serif" font-size="9.677" opacity="1" text-anchor="end">200</text><polyline fill="none" stroke="#000" stroke-width="1" points="81 262 86 262" opacity="1"/><text x="77" y="209" fill="#000" dy=".5ex" font-family="sans-serif" font-size="9.677" opacity="1" text-anchor="end">250</text><polyline fill="none" stroke="#000" stroke-width="1" points="81 209 86 209" opacity="1"/><text x="77" y="157" fill="#000" dy=".5ex" font-family="sans-serif" font-size="9.677" opacity="1" text-anchor="end">300</text><polyline fill="none" stroke="#000" stroke-width="1" points="81 157 86 157" opacity="1"/><text x="77" y="104" fill="#000" dy=".5ex" font-family="sans-serif" font-size="9.677" opacity="1" text-anchor="end">350</text><polyline fill="none" stroke="#000" stroke-width="1" points="81 104 86 104" opacity="1"/><polyline fill="none" stroke="#000" stroke-width="1" points="87 473 873 473" opacity="1"/><text x="168" y="483" fill="#000" dy=".76em" font-family="sans-serif" font-size="9.677" opacity="1" text-anchor="middle">295</text><polyline fill="none" stroke="#000" stroke-width="1" points="168 473 168 478" opacity="1"/><text x="286" y="483" fill="#000" dy=".76em" font-family="sans-serif" font-size="9.677" opacity="1" text-anchor="middle">300</text><polyline fill="none" stroke="#000" stroke-width="1" points="286 473 286 478" opacity="1"/><text x="404" y="483" fill="#000" dy=".76em" font-family="sans-serif" font-size="9.677" opacity="1" text-anchor="middle">305</text><polyline fill="none" stroke="#000" stroke-width="1" points="404 473 404 478" opacity="1"/><text x="522" y="483" fill="#000" dy=".76em" font-family="sans-serif" font-size="9.677" opacity="1" text-anchor="middle">310</text><polyline fill="none" stroke="#000" stroke-width="1" points="522 473 522 478" opacity="1"/><text x="639" y="483" fill="#000" dy=".76em" font-family="sans-serif" font-size="9.677" opacity="1" text-anchor="middle">315</text><polyline fill="none" stroke="#000" stroke-width="1" points="639 473 639 478" opacity="1"/><text x="757" y="483" fill="#000" dy=".76em" font-family="sans-serif" font-size="9.677" opacity="1" text-anchor="middle">320</text><polyline fill="none" stroke="#000" stroke-width="1" points="757 473 757 478" opacity="1"/><text x="933" y="263" fill="#000" dy=".76em" font-family="sans-serif" font-size="9.677" opacity="1" text-anchor="middle" transform="rotate(90, 933, 263)">Density (a.u.)</text><polyline fill="none" stroke="#000" stroke-width="1" points="873 54 873 473" opacity="1"/><text x="883" y="431" fill="#000" dy=".5ex" font-family="sans-serif" font-size="9.677" opacity="1" text-anchor="start">0.02</text><polyline fill="none" stroke="#000" stroke-width="1" points="873 431 878 431" opacity="1"/><text x="883" y="389" fill="#000" dy=".5ex" font-family="sans-serif" font-size="9.677" opacity="1" text-anchor="start">0.04</text><polyline fill="none" stroke="#000" stroke-width="1" points="873 389 878 389" opacity="1"/><text x="883" y="347" fill="#000" dy=".5ex" font-family="sans-serif" font-size="9.677" opacity="1" text-anchor="start">0.06</text><polyline fill="none" stroke="#000" stroke-width="1" points="873 347 878 347" opacity="1"/><text x="883" y="305" fill="#000" dy=".5ex" font-family="sans-serif" font-size="9.677" opacity="1" text-anchor="start">0.08</text><polyline fill="none" stroke="#000" stroke-width="1" points="873 305 878 305" opacity="1"/><text x="905" y="263" fill="#000" dy=".5ex" font-family="sans-serif" font-size="9.677" opacity="1" text-anchor="end">0.1</text><polyline fill="none" stroke="#000" stroke-width="1" points="873 263 878 263" opacity="1"/><text x="883" y="221" fill="#000" dy=".5ex" font-family="sans-serif" font-size="9.677" opacity="1" text-anchor="start">0.12</text><polyline fill="none" stroke="#000" stroke-width="1" points="873 221 878 221" opacity="1"/><text x="883" y="179" fill="#000" dy=".5ex" font-family="sans-serif" font-size="9.677" opacity="1" text-anchor="start">0.14</text><polyline fill="none" stroke="#000" stroke-width="1" points="873 179 878 179" opacity="1"/><text x="883" y="137" fill="#000" dy=".5ex" font-family="sans-serif" font-size="9.677" opacity="1" text-anchor="start">0.16</text><polyline fill="none" stroke="#000" stroke-width="1" points="873 137 878 137" opacity="1"/><text x="883" y="95" fill="#000" dy=".5ex" font-family="sans-serif" font-size="9.677" opacity="1" text-anchor="start">0.18</text><polyline fill="none" stroke="#000" stroke-width="1" points="873 95 878 95" opacity="1"/><text x="905" y="54" fill="#000" dy=".5ex" font-family="sans-serif" font-size="9.677" opacity="1" text-anchor="end">0.2</text><polyline fill="none" stroke="#000" stroke-width="1" points="873 54 878 54" opacity="1"/><polygon fill="#1F78B4" points="87 472 88 472 90 472 91 472 93 472 94 472 96 472 98 471 99 471 101 471 102 471 104 471 105 470 107 470 109 470 110 469 112 469 113 468 115 468 116 467 118 466 120 465 121 464 123 463 124 462 126 461 127 459 129 458 131 456 132 454 134 452 135 450 137 447 138 445 140 442 142 438 143 435 145 431 146 427 148 423 150 418 151 414 153 408 154 403 156 397 157 391 159 384 161 377 162 370 164 363 165 355 167 346 168 338 170 329 172 320 173 311 175 301 176 291 178 281 179 271 181 260 183 250 184 239 186 228 187 218 189 207 190 196 192 186 194 176 195 165 197 155 198 146 200 136 201 127 203 118 205 110 206 102 208 95 209 88 211 82 213 76 214 71 216 66 217 63 219 59 220 57 222 55 224 53 225 53 227 53 228 53 230 54 231 56 233 58 235 61 236 65 238 69 239 73 241 78 242 84 244 89 246 96 247 102 249 109 250 116 252 123 253 131 255 138 257 146 258 154 260 162 261 170 263 178 264 186 266 194 268 201 269 209 271 217 272 225 274 232 276 240 277 247 279 254 280 261 282 267 283 274 285 280 287 287 288 293 290 299 291 304 293 310 294 315 296 320 298 325 299 330 301 334 302 339 304 343 305 347 307 351 309 355 310 359 312 363 313 366 315 370 316 373 318 376 320 379 321 382 323 385 324 388 326 390 327 393 329 396 331 398 332 400 334 403 335 405 337 407 339 409 340 411 342 413 343 415 345 417 346 419 348 420 350 422 351 424 353 425 354 427 356 428 357 430 359 431 361 432 362 434 364 435 365 436 367 437 368 438 370 439 372 440 373 441 375 442 376 443 378 444 379 445 381 446 383 446 384 447 386 448 387 449 389 449 391 450 392 450 394 451 395 452 397 452 398 453 400 453 402 454 403 454 405 455 406 455 408 456 409 456 411 457 413 457 414 458 416 458 417 459 419 459 420 460 422 460 424 460 425 461 427 461 428 462 430 462 431 463 433 463 435 463 436 464 438 464 439 465 441 465 442 465 444 466 446 466 447 466 449 467 450 467 452 467 454 468 455 468 457 468 458 469 460 469 461 469 463 469 465 470 466 470 468 470 469 470 471 470 472 471 474 471 476 471 477 471 479 471 480 471 482 471 483 471 485 472 487 472 488 472 490 472 491 472 493 472 494 472 496 472 498 472 499 472 501 472 502 472 504 472 505 472 507 472 509 472 510 472 512 472 513 472 515 472 517 472 518 472 520 472 521 472 523 472 524 472 526 472 528 472 529 472 531 472 532 472 534 472 535 472 537 472 539 472 540 472 542 472 543 472 545 472 546 472 548 472 550 472 551 472 553 472 554 472 556 472 557 472 559 472 561 472 562 472 564 472 565 472 567 472 568 472 570 472 572 472 573 472 575 472 576 472 578 472 580 472 581 472 583 472 584 472 586 472 587 472 589 472 591 472 592 472 594 472 595 472 597 472 598 472 600 471 602 471 603 471 605 471 606 471 608 471 609 471 611 471 613 471 614 470 616 470 617 470 619 470 620 470 622 470 624 470 625 469 627 469 628 469 630 469 632 469 633 469 635 468 636 468 638 468 639 468 641 468 643 468 644 468 646 467 647 467 649 467 650 467 652 467 654 467 655 467 657 467 658 467 660 467 661 467 663 467 665 467 666 467 668 467 669 467 671 467 672 467 674 467 676 467 677 467 679 467 680 467 682 467 683 467 685 468 687 468 688 468 690 468 691 468 693 468 695 468 696 468 698 469 699 469 701 469 702 469 704 469 706 469 707 469 709 469 710 469 712 469 713 469 715 469 717 469 718 469 720 469 721 469 723 469 724 469 726 469 728 469 729 469 731 469 732 469 734 469 735 469 737 469 739 468 740 468 742 468 743 468 745 468 746 468 748 468 750 468 751 467 753 467 754 467 756 467 758 467 759 467 761 467 762 467 764 467 765 467 767 467 769 467 770 467 772 467 773 467 775 467 776 467 778 467 780 467 781 467 783 467 784 467 786 467 787 467 789 467 791 468 792 468 794 468 795 468 797 468 798 468 800 468 802 469 803 469 805 469 806 469 808 469 809 469 811 470 813 470 814 470 816 470 817 470 819 470 821 470 822 471 824 471 825 471 827 471 828 471 830 471 832 471 833 471 835 471 836 472 838 472 839 472 841 472 843 472 844 472 846 472 847 472 849 472 850 472 852 472 854 472 855 472 857 472 858 472 860 472 861 472 863 472 865 472 866 472 868 472 869 472 871 472 873 472 873 473 87 473" opacity=".5"/><polyline fill="none" stroke="#1F78B4" stroke-width="1" points="253 472 253 53" opacity="1"/><polyline fill="none" stroke="#FF7F00" stroke-width="1" points="147 472 147 53" opacity="1"/><polyline fill="none" stroke="#FF7F00" stroke-width="1" points="332 472 332 53" opacity="1"/><polyline fill="none" stroke="#E31A1C" stroke-width="1" points="87 472 87 53" opacity="1"/><polyline fill="none" stroke="#E31A1C" stroke-width="1" points="401 472 401 53" opacity="1"/><circle cx="311" cy="455" r="3" fill="#1F78B4" stroke="none" opacity="1"/><circle cx="328" cy="438" r="3" fill="#1F78B4" stroke="none" opacity="1"/><circle cx="290" cy="434" r="3" fill="#1F78B4" stroke="none" opacity="1"/><circle cx="315" cy="430" r="3" fill="#1F78B4" stroke="none" opacity="1"/><circle cx="265" cy="425" r="3" fill="#1F78B4" stroke="none" opacity="1"/><circle cx="234" cy="421" r="3" fill="#1F78B4" stroke="none" opacity="1"/><circle cx="310" cy="417" r="3" fill="#1F78B4" stroke="none" opacity="1"/><circle cx="294" cy="413" r="3" fill="#1F78B4" stroke="none" opacity="1"/><circle cx="329" cy="409" r="3" fill="#1F78B4" stroke="none" opacity="1"/><circle cx="298" cy="404" r="3" fill="#1F78B4" stroke="none" opacity="1"/><circle cx="263" cy="400" r="3" fill="#1F78B4" stroke="none" opacity="1"/><circle cx="268" cy="396" r="3" fill="#1F78B4" stroke="none" opacity="1"/><circle cx="258" cy="392" r="3" fill="#1F78B4" stroke="none" opacity="1"/><circle cx="262" cy="388" r="3" fill="#1F78B4" stroke="none" opacity="1"/><circle cx="329" cy="383" r="3" fill="#1F78B4" stroke="none" opacity="1"/><circle cx="275" cy="379" r="3" fill="#1F78B4" stroke="none" opacity="1"/><circle cx="235" cy="375" r="3" fill="#1F78B4" stroke="none" opacity="1"/><circle cx="301" cy="371" r="3" fill="#1F78B4" stroke="none" opacity="1"/><circle cx="212" cy="367" r="3" fill="#1F78B4" stroke="none" opacity="1"/><circle cx="228" cy="362" r="3" fill="#1F78B4" stroke="none" opacity="1"/><circle cx="241" cy="358" r="3" fill="#1F78B4" stroke="none" opacity="1"/><circle cx="222" cy="354" r="3" fill="#1F78B4" stroke="none" opacity="1"/><circle cx="221" cy="350" r="3" fill="#1F78B4" stroke="none" opacity="1"/><circle cx="224" cy="346" r="3" fill="#1F78B4" stroke="none" opacity="1"/><circle cx="223" cy="341" r="3" fill="#1F78B4" stroke="none" opacity="1"/><circle cx="227" cy="337" r="3" fill="#1F78B4" stroke="none" opacity="1"/><circle cx="228" cy="333" r="3" fill="#1F78B4" stroke="none" opacity="1"/><circle cx="218" cy="329" r="3" fill="#1F78B4" stroke="none" opacity="1"/><circle cx="213" cy="325" r="3" fill="#1F78B4" stroke="none" opacity="1"/><circle cx="235" cy="320" r="3" fill="#1F78B4" stroke="none" opacity="1"/><circle cx="229" cy="316" r="3" fill="#1F78B4" stroke="none" opacity="1"/><circle cx="217" cy="312" r="3" fill="#1F78B4" stroke="none" opacity="1"/><circle cx="274" cy="308" r="3" fill="#1F78B4" stroke="none" opacity="1"/><circle cx="216" cy="304" r="3" fill="#1F78B4" stroke="none" opacity="1"/><circle cx="233" cy="299" r="3" fill="#1F78B4" stroke="none" opacity="1"/><circle cx="232" cy="295" r="3" fill="#1F78B4" stroke="none" opacity="1"/><circle cx="260" cy="291" r="3" fill="#1F78B4" stroke="none" opacity="1"/><circle cx="254" cy="287" r="3" fill="#1F78B4" stroke="none" opacity="1"/><circle cx="224" cy="283" r="3" fill="#1F78B4" stroke="none" opacity="1"/><circle cx="223" cy="278" r="3" fill="#1F78B4" stroke="none" opacity="1"/><circle cx="217" cy="274" r="3" fill="#1F78B4" stroke="none" opacity="1"/><circle cx="230" cy="270" r="3" fill="#1F78B4" stroke="none" opacity="1"/><circle cx="247" cy="266" r="3" fill="#1F78B4" stroke="none" opacity="1"/><circle cx="260" cy="262" r="3" fill="#1F78B4" stroke="none" opacity="1"/><circle cx="207" cy="257" r="3" fill="#1F78B4" stroke="none" opacity="1"/><circle cx="203" cy="253" r="3" fill="#1F78B4" stroke="none" opacity="1"/><circle cx="224" cy="249" r="3" fill="#1F78B4" stroke="none" opacity="1"/><circle cx="227" cy="245" r="3" fill="#1F78B4" stroke="none" opacity="1"/><circle cx="221" cy="241" r="3" fill="#1F78B4" stroke="none" opacity="1"/><circle cx="218" cy="236" r="3" fill="#1F78B4" stroke="none" opacity="1"/><circle cx="235" cy="232" r="3" fill="#1F78B4" stroke="none" opacity="1"/><circle cx="225" cy="228" r="3" fill="#1F78B4" stroke="none" opacity="1"/><circle cx="279" cy="224" r="3" fill="#1F78B4" stroke="none" opacity="1"/><circle cx="217" cy="220" r="3" fill="#1F78B4" stroke="none" opacity="1"/><circle cx="234" cy="215" r="3" fill="#1F78B4" stroke="none" opacity="1"/><circle cx="224" cy="211" r="3" fill="#1F78B4" stroke="none" opacity="1"/><circle cx="216" cy="207" r="3" fill="#1F78B4" stroke="none" opacity="1"/><circle cx="221" cy="203" r="3" fill="#1F78B4" stroke="none" opacity="1"/><circle cx="234" cy="199" r="3" fill="#1F78B4" stroke="none" opacity="1"/><circle cx="216" cy="194" r="3" fill="#1F78B4" stroke="none" opacity="1"/><circle cx="270" cy="190" r="3" fill="#1F78B4" stroke="none" opacity="1"/><circle cx="231" cy="186" r="3" fill="#1F78B4" stroke="none" opacity="1"/><circle cx="223" cy="182" r="3" fill="#1F78B4" stroke="none" opacity="1"/><circle cx="242" cy="178" r="3" fill="#1F78B4" stroke="none" opacity="1"/><circle cx="221" cy="173" r="3" fill="#1F78B4" stroke="none" opacity="1"/><circle cx="211" cy="169" r="3" fill="#1F78B4" stroke="none" opacity="1"/><circle cx="230" cy="165" r="3" fill="#1F78B4" stroke="none" opacity="1"/><circle cx="217" cy="161" r="3" fill="#1F78B4" stroke="none" opacity="1"/><circle cx="285" cy="157" r="3" fill="#1F78B4" stroke="none" opacity="1"/><circle cx="219" cy="152" r="3" fill="#1F78B4" stroke="none" opacity="1"/><circle cx="212" cy="148" r="3" fill="#1F78B4" stroke="none" opacity="1"/><circle cx="205" cy="144" r="3" fill="#1F78B4" stroke="none" opacity="1"/><circle cx="211" cy="140" r="3" fill="#1F78B4" stroke="none" opacity="1"/><circle cx="214" cy="136" r="3" fill="#1F78B4" stroke="none" opacity="1"/><circle cx="267" cy="131" r="3" fill="#1F78B4" stroke="none" opacity="1"/><circle cx="233" cy="127" r="3" fill="#1F78B4" stroke="none" opacity="1"/><circle cx="259" cy="123" r="3" fill="#1F78B4" stroke="none" opacity="1"/><circle cx="212" cy="119" r="3" fill="#1F78B4" stroke="none" opacity="1"/><circle cx="209" cy="115" r="3" fill="#1F78B4" stroke="none" opacity="1"/><circle cx="199" cy="110" r="3" fill="#1F78B4" stroke="none" opacity="1"/><circle cx="249" cy="106" r="3" fill="#1F78B4" stroke="none" opacity="1"/><circle cx="205" cy="102" r="3" fill="#1F78B4" stroke="none" opacity="1"/><circle cx="206" cy="98" r="3" fill="#1F78B4" stroke="none" opacity="1"/><circle cx="208" cy="94" r="3" fill="#1F78B4" stroke="none" opacity="1"/><circle cx="202" cy="89" r="3" fill="#1F78B4" stroke="none" opacity="1"/><circle cx="219" cy="85" r="3" fill="#1F78B4" stroke="none" opacity="1"/><circle cx="209" cy="81" r="3" fill="#1F78B4" stroke="none" opacity="1"/><circle cx="205" cy="77" r="3" fill="#1F78B4" stroke="none" opacity="1"/><circle cx="204" cy="73" r="3" fill="#1F78B4" stroke="none" opacity="1"/><circle cx="212" cy="68" r="3" fill="#1F78B4" stroke="none" opacity="1"/><circle cx="205" cy="64" r="3" fill="#1F78B4" stroke="none" opacity="1"/><circle cx="251" cy="60" r="3" fill="#1F78B4" stroke="none" opacity="1"/><circle cx="187" cy="56" r="3" fill="#1F78B4" stroke="none" opacity="1"/><circle cx="202" cy="53" r="3" fill="#1F78B4" stroke="none" opacity="1"/><circle cx="394" cy="459" r="3" fill="#FF7F00" stroke="none" opacity="1"/><circle cx="365" cy="446" r="3" fill="#FF7F00" stroke="none" opacity="1"/><circle cx="353" cy="442" r="3" fill="#FF7F00" stroke="none" opacity="1"/><circle cx="663" cy="467" r="3" fill="#E31A1C" stroke="none" opacity="1"/><circle cx="772" cy="463" r="3" fill="#E31A1C" stroke="none" opacity="1"/><circle cx="417" cy="451" r="3" fill="#E31A1C" stroke="none" opacity="1"/><text x="776" y="228" fill="#000" dy=".76em" font-family="sans-serif" font-size="9.677" opacity="1" text-anchor="start">PDF</text><text x="776" y="243" fill="#000" dy=".76em" font-family="sans-serif" font-size="9.677" opacity="1" text-anchor="start">Mean</text><text x="776" y="258" fill="#000" dy=".76em" font-family="sans-serif" font-size="9.677" opacity="1" text-anchor="start">&quot;Clean&quot; sample</text><text x="776" y="273" fill="#000" dy=".76em" font-family="sans-serif" font-size="9.677" opacity="1" text-anchor="start">Mild outliers</text><text x="776" y="288" fill="#000" dy=".76em" font-family="sans-serif" font-size="9.677" opacity="1" text-anchor="start">Severe outliers</text><rect width="20" height="10" x="746" y="228" fill="#1F78B4" stroke="none" opacity=".5"/><polyline fill="none" stroke="#1F78B4" stroke-width="1" points="746 248 766 248" opacity="1"/><circle cx="756" cy="263" r="3" fill="#1F78B4" stroke="none" opacity="1"/><circle cx="756" cy="278" r="3" fill="#FF7F00" stroke="none" opacity="1"/><circle cx="756" cy="293" r="3" fill="#E31A1C" stroke="none" opacity="1"/></svg>