<svg xmlns="http://www.w3.org/2000/svg" width="960" height="540"><text x="480" y="32" fill="#000" dy=".76em" font-family="sans-serif" font-size="16.129" opacity="1" text-anchor="middle">bench_group/threads_16/65536</text><text x="27" y="263" fill="#000" dy=".76em" font-family="sans-serif" font-size="9.677" opacity="1" text-anchor="middle" transform="rotate(270, 27, 263)">Total sample time (ms)</text><text x="510" y="513" fill="#000" dy="-.5ex" font-family="sans-serif" font-size="9.677" opacity="1" text-anchor="middle">Iterations (x 10^3)</text><line x1="227" x2="227" y1="472" y2="52" stroke="#000" stroke-width="1" opacity=".2"/><line x1="375" x2="375" y1="472" y2="52" stroke="#000" stroke-width="1" opacity=".2"/><line x1="524" x2="524" y1="472" y2="52" stroke="#000" stroke-width="1" opacity=".2"/><line x1="672" x2="672" y1="472" y2="52" stroke="#000" stroke-width="1" opacity=".2"/><line x1="821" x2="821" y1="472" y2="52" stroke="#000" stroke-width="1" opacity=".2"/><line x1="87" x2="933" y1="430" y2="430" stroke="#000" stroke-width="1" opacity=".2"/><line x1="87" x2="933" y1="384" y2="384" stroke="#000" stroke-width="1" opacity=".2"/><line x1="87" x2="933" y1="339" y2="339" stroke="#000" stroke-width="1" opacity=".2"/><line x1="87" x2="933" y1="293" y2="293" stroke="#000" stroke-width="1" opacity=".2"/><line x1="87" x2="933" y1="247" y2="247" stroke="#000" stroke-width="1" opacity=".2"/><line x1="87" x2="933" y1="202" y2="202" stroke="#000" stroke-width="1" opacity=".2"/><line x1="87" x2="933" y1="156" y2="156" stroke="#000" stroke-width="1" opacity=".2"/><line x1="87" x2="933" y1="110" y2="110" stroke="#000" stroke-width="1" opacity=".2"/><line x1="87" x2="933" y1="65" y2="65" stroke="#000" stroke-width="1" opacity=".2"/><polyline fill="none" stroke="#000" stroke-width="1" points="86 53 86 473" opacity="1"/><text x="77" y="430" fill="#000" dy=".5ex" font-family="sans-serif" font-size="9.677" opacity="1" text-anchor="end">10.0</text><polyline fill="none" stroke="#000" stroke-width="1" points="81 430 86 430" opacity="1"/><text x="77" y="384" fill="#000" dy=".5ex" font-family="sans-serif" font-size="9.677" opacity="1" text-anchor="end">20.0</text><polyline fill="none" stroke="#000" stroke-width="1" points="81 384 86 384" opacity="1"/><text x="77" y="339" fill="#000" dy=".5ex" font-family="sans-serif" font-size="9.677" opacity="1" text-anchor="end">30.0</text><polyline fill="none" stroke="#000" stroke-width="1" points="81 339 86 339" opacity="1"/><text x="77" y="293" fill="#000" dy=".5ex" font-family="sans-serif" font-size="9.677" opacity="1" text-anchor="end">40.0</text><polyline fill="none" stroke="#000" stroke-width="1" points="81 293 86 293" opacity="1"/><text x="77" y="247" fill="#000" dy=".5ex" font-family="sans-serif" font-size="9.677" opacity="1" text-anchor="end">50.0</text><polyline fill="none" stroke="#000" stroke-width="1" points="81 247 86 247" opacity="1"/><text x="77" y="202" fill="#000" dy=".5ex" font-family="sans-serif" font-size="9.677" opacity="1" text-anchor="end">60.0</text><polyline fill="none" stroke="#000" stroke-width="1" points="81 202 86 202" opacity="1"/><text x="77" y="156" fill="#000" dy=".5ex" font-family="sans-serif" font-size="9.677" opacity="1" text-anchor="end">70.0</text><polyline fill="none" stroke="#000" stroke-width="1" points="81 156 86 156" opacity="1"/><text x="77" y="110" fill="#000" dy=".5ex" font-family="sans-serif" font-size="9.677" opacity="1" text-anchor="end">80.0</text><polyline fill="none" stroke="#000" stroke-width="1" points="81 110 86 110" opacity="1"/><text x="77" y="65" fill="#000" dy=".5ex" font-family="sans-serif" font-size="9.677" opacity="1" text-anchor="end">90.0</text><polyline fill="none" stroke="#000" stroke-width="1" points="81 65 86 65" opacity="1"/><polyline fill="none" stroke="#000" stroke-width="1" points="87 473 933 473" opacity="1"/><text x="227" y="483" fill="#000" dy=".76em" font-family="sans-serif" font-size="9.677" opacity="1" text-anchor="middle">2</text><polyline fill="none" stroke="#000" stroke-width="1" points="227 473 227 478" opacity="1"/><text x="375" y="483" fill="#000" dy=".76em" font-family="sans-serif" font-size="9.677" opacity="1" text-anchor="middle">4</text><polyline fill="none" stroke="#000" stroke-width="1" points="375 473 375 478" opacity="1"/><text x="524" y="483" fill="#000" dy=".76em" font-family="sans-serif" font-size="9.677" opacity="1" text-anchor="middle">6</text><polyline fill="none" stroke="#000" stroke-width="1" points="524 473 524 478" opacity="1"/><text x="672" y="483" fill="#000" dy=".76em" font-family="sans-serif" font-size="9.677" opacity="1" text-anchor="middle">8</text><polyline fill="none" stroke="#000" stroke-width="1" points="672 473 672 478" opacity="1"/><text x="821" y="483" fill="#000" dy=".76em" font-family="sans-serif" font-size="9.677" opacity="1" text-anchor="middle">10</text><polyline fill="none" stroke="#000" stroke-width="1" points="821 473 821 478" opacity="1"/><circle cx="87" cy="472" r="3" fill="#1F78B4" stroke="none" opacity="1"/><circle cx="95" cy="468" r="3" fill="#1F78B4" stroke="none" opacity="1"/><circle cx="104" cy="464" r="3" fill="#1F78B4" stroke="none" opacity="1"/><circle cx="112" cy="460" r="3" fill="#1F78B4" stroke="none" opacity="1"/><circle cx="121" cy="456" r="3" fill="#1F78B4" stroke="none" opacity="1"/><circle cx="129" cy="453" r="3" fill="#1F78B4" stroke="none" opacity="1"/><circle cx="138" cy="449" r="3" fill="#1F78B4" stroke="none" opacity="1"/><circle cx="146" cy="439" r="3" fill="#1F78B4" stroke="none" opacity="1"/><circle cx="155" cy="441" r="3" fill="#1F78B4" stroke="none" opacity="1"/><circle cx="163" cy="437" r="3" fill="#1F78B4" stroke="none" opacity="1"/><circle cx="172" cy="434" r="3" fill="#1F78B4" stroke="none" opacity="1"/><circle cx="181" cy="430" r="3" fill="#1F78B4" stroke="none" opacity="1"/><circle cx="189" cy="427" r="3" fill="#1F78B4" stroke="none" opacity="1"/><circle cx="198" cy="423" r="3" fill="#1F78B4" stroke="none" opacity="1"/><circle cx="206" cy="418" r="3" fill="#1F78B4" stroke="none" opacity="1"/><circle cx="215" cy="416" r="3" fill="#1F78B4" stroke="none" opacity="1"/><circle cx="223" cy="412" r="3" fill="#1F78B4" stroke="none" opacity="1"/><circle cx="232" cy="408" r="3" fill="#1F78B4" stroke="none" opacity="1"/><circle cx="240" cy="406" r="3" fill="#1F78B4" stroke="none" opacity="1"/><circle cx="249" cy="401" r="3" fill="#1F78B4" stroke="none" opacity="1"/><circle cx="257" cy="397" r="3" fill="#1F78B4" stroke="none" opacity="1"/><circle cx="266" cy="393" r="3" fill="#1F78B4" stroke="none" opacity="1"/><circle cx="275" cy="368" r="3" fill="#1F78B4" stroke="none" opacity="1"/><circle cx="283" cy="387" r="3" fill="#1F78B4" stroke="none" opacity="1"/><circle cx="292" cy="382" r="3" fill="#1F78B4" stroke="none" opacity="1"/><circle cx="300" cy="379" r="3" fill="#1F78B4" stroke="none" opacity="1"/><circle cx="309" cy="377" r="3" fill="#1F78B4" stroke="none" opacity="1"/><circle cx="317" cy="370" r="3" fill="#1F78B4" stroke="none" opacity="1"/><circle cx="326" cy="368" r="3" fill="#1F78B4" stroke="none" opacity="1"/><circle cx="334" cy="362" r="3" fill="#1F78B4" stroke="none" opacity="1"/><circle cx="343" cy="341" r="3" fill="#1F78B4" stroke="none" opacity="1"/><circle cx="351" cy="354" r="3" fill="#1F78B4" stroke="none" opacity="1"/><circle cx="360" cy="352" r="3" fill="#1F78B4" stroke="none" opacity="1"/><circle cx="369" cy="348" r="3" fill="#1F78B4" stroke="none" opacity="1"/><circle cx="377" cy="343" r="3" fill="#1F78B4" stroke="none" opacity="1"/><circle cx="386" cy="342" r="3" fill="#1F78B4" stroke="none" opacity="1"/><circle cx="394" cy="337" r="3" fill="#1F78B4" stroke="none" opacity="1"/><circle cx="403" cy="331" r="3" fill="#1F78B4" stroke="none" opacity="1"/><circle cx="411" cy="328" r="3" fill="#1F78B4" stroke="none" opacity="1"/><circle cx="420" cy="323" r="3" fill="#1F78B4" stroke="none" opacity="1"/><circle cx="428" cy="322" r="3" fill="#1F78B4" stroke="none" opacity="1"/><circle cx="437" cy="317" r="3" fill="#1F78B4" stroke="none" opacity="1"/><circle cx="445" cy="312" r="3" fill="#1F78B4" stroke="none" opacity="1"/><circle cx="454" cy="311" r="3" fill="#1F78B4" stroke="none" opacity="1"/><circle cx="463" cy="307" r="3" fill="#1F78B4" stroke="none" opacity="1"/><circle cx="471" cy="301" r="3" fill="#1F78B4" stroke="none" opacity="1"/><circle cx="480" cy="298" r="3" fill="#1F78B4" stroke="none" opacity="1"/><circle cx="488" cy="296" r="3" fill="#1F78B4" stroke="none" opacity="1"/><circle cx="497" cy="265" r="3" fill="#1F78B4" stroke="none" opacity="1"/><circle cx="505" cy="287" r="3" fill="#1F78B4" stroke="none" opacity="1"/><circle cx="514" cy="279" r="3" fill="#1F78B4" stroke="none" opacity="1"/><circle cx="522" cy="278" r="3" fill="#1F78B4" stroke="none" opacity="1"/><circle cx="531" cy="276" r="3" fill="#1F78B4" stroke="none" opacity="1"/><circle cx="539" cy="272" r="3" fill="#1F78B4" stroke="none" opacity="1"/><circle cx="548" cy="268" r="3" fill="#1F78B4" stroke="none" opacity="1"/><circle cx="557" cy="267" r="3" fill="#1F78B4" stroke="none" opacity="1"/><circle cx="565" cy="256" r="3" fill="#1F78B4" stroke="none" opacity="1"/><circle cx="574" cy="258" r="3" fill="#1F78B4" stroke="none" opacity="1"/><circle cx="582" cy="250" r="3" fill="#1F78B4" stroke="none" opacity="1"/><circle cx="591" cy="247" r="3" fill="#1F78B4" stroke="none" opacity="1"/><circle cx="599" cy="244" r="3" fill="#1F78B4" stroke="none" opacity="1"/><circle cx="608" cy="215" r="3" fill="#1F78B4" stroke="none" opacity="1"/><circle cx="616" cy="239" r="3" fill="#1F78B4" stroke="none" opacity="1"/><circle cx="625" cy="237" r="3" fill="#1F78B4" stroke="none" opacity="1"/><circle cx="633" cy="225" r="3" fill="#1F78B4" stroke="none" opacity="1"/><circle cx="642" cy="222" r="3" fill="#1F78B4" stroke="none" opacity="1"/><circle cx="651" cy="226" r="3" fill="#1F78B4" stroke="none" opacity="1"/><circle cx="659" cy="220" r="3" fill="#1F78B4" stroke="none" opacity="1"/><circle cx="668" cy="214" r="3" fill="#1F78B4" stroke="none" opacity="1"/><circle cx="676" cy="216" r="3" fill="#1F78B4" stroke="none" opacity="1"/><circle cx="685" cy="207" r="3" fill="#1F78B4" stroke="none" opacity="1"/><circle cx="693" cy="202" r="3" fill="#1F78B4" stroke="none" opacity="1"/><circle cx="702" cy="137" r="3" fill="#1F78B4" stroke="none" opacity="1"/><circle cx="710" cy="193" r="3" fill="#1F78B4" stroke="none" opacity="1"/><circle cx="719" cy="190" r="3" fill="#1F78B4" stroke="none" opacity="1"/><circle cx="727" cy="190" r="3" fill="#1F78B4" stroke="none" opacity="1"/><circle cx="736" cy="188" r="3" fill="#1F78B4" stroke="none" opacity="1"/><circle cx="745" cy="176" r="3" fill="#1F78B4" stroke="none" opacity="1"/><circle cx="753" cy="175" r="3" fill="#1F78B4" stroke="none" opacity="1"/><circle cx="762" cy="175" r="3" fill="#1F78B4" stroke="none" opacity="1"/><circle cx="770" cy="169" r="3" fill="#1F78B4" stroke="none" opacity="1"/><circle cx="779" cy="118" r="3" fill="#1F78B4" stroke="none" opacity="1"/><circle cx="787" cy="166" r="3" fill="#1F78B4" stroke="none" opacity="1"/><circle cx="796" cy="161" r="3" fill="#1F78B4" stroke="none" opacity="1"/><circle cx="804" cy="153" r="3" fill="#1F78B4" stroke="none" opacity="1"/><circle cx="813" cy="150" r="3" fill="#1F78B4" stroke="none" opacity="1"/><circle cx="821" cy="152" r="3" fill="#1F78B4" stroke="none" opacity="1"/><circle cx="830" cy="141" r="3" fill="#1F78B4" stroke="none" opacity="1"/><circle cx="839" cy="143" r="3" fill="#1F78B4" stroke="none" opacity="1"/><circle cx="847" cy="116" r="3" fill="#1F78B4" stroke="none" opacity="1"/><circle cx="856" cy="138" r="3" fill="#1F78B4" stroke="none" opacity="1"/><circle cx="864" cy="132" r="3" fill="#1F78B4" stroke="none" opacity="1"/><circle cx="873" cy="119" r="3" fill="#1F78B4" stroke="none" opacity="1"/><circle cx="881" cy="126" r="3" fill="#1F78B4" stroke="none" opacity="1"/><circle cx="890" cy="113" r="3" fill="#1F78B4" stroke="none" opacity="1"/><circle cx="898" cy="112" r="3" fill="#1F78B4" stroke="none" opacity="1"/><circle cx="907" cy="114" r="3" fill="#1F78B4" stroke="none" opacity="1"/><circle cx="915" cy="53" r="3" fill="#1F78B4" stroke="none" opacity="1"/><circle cx="924" cy="103" r="3" fill="#1F78B4" stroke="none" opacity="1"/><circle cx="933" cy="98" r="3" fill="#1F78B4" stroke="none" opacity="1"/><polyline fill="none" stroke="#1F78B4" stroke-width="1" points="87 473 933 93" opacity="1"/><polygon fill="#1F78B4" points="87 473 933 97 933 87" opacity=".25"/><text x="132" y="68" fill="#000" dy=".76em" font-family="sans-serif" font-size="9.677" opacity="1" text-anchor="start">Sample</text><text x="132" y="83" fill="#000" dy=".76em" font-family="sans-serif" font-size="9.677" opacity="1" text-anchor="start">Linear regression</text><text x="132" y="98" fill="#000" dy=".76em" font-family="sans-serif" font-size="9.677" opacity="1" text-anchor="start">Confidence interval</text><circle cx="112" cy="73" r="3" fill="#1F78B4" stroke="none" opacity="1"/><polyline fill="none" stroke="#1F78B4" stroke-width="2" points="102 88 122 88" opacity="1"/><rect width="20" height="10" x="102" y="98" fill="#1F78B4" stroke="none" opacity=".25"/></svg>