<svg xmlns="http://www.w3.org/2000/svg" width="450" height="300"><text x="15" y="130" fill="#000" dy=".76em" font-family="sans-serif" font-size="9.677" opacity="1" text-anchor="middle" transform="rotate(270, 15, 130)">Total sample time (ms)</text><text x="255" y="285" fill="#000" dy="-.5ex" font-family="sans-serif" font-size="9.677" opacity="1" text-anchor="middle">Iterations (x 10^3)</text><line x1="134" x2="134" y1="244" y2="14" stroke="#000" stroke-width="1" opacity=".2"/><line x1="197" x2="197" y1="244" y2="14" stroke="#000" stroke-width="1" opacity=".2"/><line x1="261" x2="261" y1="244" y2="14" stroke="#000" stroke-width="1" opacity=".2"/><line x1="324" x2="324" y1="244" y2="14" stroke="#000" stroke-width="1" opacity=".2"/><line x1="387" x2="387" y1="244" y2="14" stroke="#000" stroke-width="1" opacity=".2"/><line x1="75" x2="435" y1="221" y2="221" stroke="#000" stroke-width="1" opacity=".2"/><line x1="75" x2="435" y1="196" y2="196" stroke="#000" stroke-width="1" opacity=".2"/><line x1="75" x2="435" y1="171" y2="171" stroke="#000" stroke-width="1" opacity=".2"/><line x1="75" x2="435" y1="146" y2="146" stroke="#000" stroke-width="1" opacity=".2"/><line x1="75" x2="435" y1="121" y2="121" stroke="#000" stroke-width="1" opacity=".2"/><line x1="75" x2="435" y1="96" y2="96" stroke="#000" stroke-width="1" opacity=".2"/><line x1="75" x2="435" y1="71" y2="71" stroke="#000" stroke-width="1" opacity=".2"/><line x1="75" x2="435" y1="46" y2="46" stroke="#000" stroke-width="1" opacity=".2"/><line x1="75" x2="435" y1="21" y2="21" stroke="#000" stroke-width="1" opacity=".2"/><polyline fill="none" stroke="#000" stroke-width="1" points="74 15 74 245" opacity="1"/><text x="65" y="221" fill="#000" dy=".5ex" font-family="sans-serif" font-size="9.677" opacity="1" text-anchor="end">10.0</text><polyline fill="none" stroke="#000" stroke-width="1" points="69 221 74 221" opacity="1"/><text x="65" y="196" fill="#000" dy=".5ex" font-family="sans-serif" font-size="9.677" opacity="1" text-anchor="end">20.0</text><polyline fill="none" stroke="#000" stroke-width="1" points="69 196 74 196" opacity="1"/><text x="65" y="171" fill="#000" dy=".5ex" font-family="sans-serif" font-size="9.677" opacity="1" text-anchor="end">30.0</text><polyline fill="none" stroke="#000" stroke-width="1" points="69 171 74 171" opacity="1"/><text x="65" y="146" fill="#000" dy=".5ex" font-family="sans-serif" font-size="9.677" opacity="1" text-anchor="end">40.0</text><polyline fill="none" stroke="#000" stroke-width="1" points="69 146 74 146" opacity="1"/><text x="65" y="121" fill="#000" dy=".5ex" font-family="sans-serif" font-size="9.677" opacity="1" text-anchor="end">50.0</text><polyline fill="none" stroke="#000" stroke-width="1" points="69 121 74 121" opacity="1"/><text x="65" y="96" fill="#000" dy=".5ex" font-family="sans-serif" font-size="9.677" opacity="1" text-anchor="end">60.0</text><polyline fill="none" stroke="#000" stroke-width="1" points="69 96 74 96" opacity="1"/><text x="65" y="71" fill="#000" dy=".5ex" font-family="sans-serif" font-size="9.677" opacity="1" text-anchor="end">70.0</text><polyline fill="none" stroke="#000" stroke-width="1" points="69 71 74 71" opacity="1"/><text x="65" y="46" fill="#000" dy=".5ex" font-family="sans-serif" font-size="9.677" opacity="1" text-anchor="end">80.0</text><polyline fill="none" stroke="#000" stroke-width="1" points="69 46 74 46" opacity="1"/><text x="65" y="21" fill="#000" dy=".5ex" font-family="sans-serif" font-size="9.677" opacity="1" text-anchor="end">90.0</text><polyline fill="none" stroke="#000" stroke-width="1" points="69 21 74 21" opacity="1"/><polyline fill="none" stroke="#000" stroke-width="1" points="75 245 435 245" opacity="1"/><text x="134" y="255" fill="#000" dy=".76em" font-family="sans-serif" font-size="9.677" opacity="1" text-anchor="middle">2</text><polyline fill="none" stroke="#000" stroke-width="1" points="134 245 134 250" opacity="1"/><text x="197" y="255" fill="#000" dy=".76em" font-family="sans-serif" font-size="9.677" opacity="1" text-anchor="middle">4</text><polyline fill="none" stroke="#000" stroke-width="1" points="197 245 197 250" opacity="1"/><text x="261" y="255" fill="#000" dy=".76em" font-family="sans-serif" font-size="9.677" opacity="1" text-anchor="middle">6</text><polyline fill="none" stroke="#000" stroke-width="1" points="261 245 261 250" opacity="1"/><text x="324" y="255" fill="#000" dy=".76em" font-family="sans-serif" font-size="9.677" opacity="1" text-anchor="middle">8</text><polyline fill="none" stroke="#000" stroke-width="1" points="324 245 324 250" opacity="1"/><text x="387" y="255" fill="#000" dy=".76em" font-family="sans-serif" font-size="9.677" opacity="1" text-anchor="middle">10</text><polyline fill="none" stroke="#000" stroke-width="1" points="387 245 387 250" opacity="1"/><circle cx="75" cy="244" r="3" fill="#1F78B4" stroke="none" opacity="1"/><circle cx="78" cy="241" r="3" fill="#1F78B4" stroke="none" opacity="1"/><circle cx="82" cy="240" r="3" fill="#1F78B4" stroke="none" opacity="1"/><circle cx="85" cy="237" r="3" fill="#1F78B4" stroke="none" opacity="1"/><circle cx="89" cy="235" r="3" fill="#1F78B4" stroke="none" opacity="1"/><circle cx="93" cy="233" r="3" fill="#1F78B4" stroke="none" opacity="1"/><circle cx="96" cy="231" r="3" fill="#1F78B4" stroke="none" opacity="1"/><circle cx="100" cy="226" r="3" fill="#1F78B4" stroke="none" opacity="1"/><circle cx="104" cy="227" r="3" fill="#1F78B4" stroke="none" opacity="1"/><circle cx="107" cy="225" r="3" fill="#1F78B4" stroke="none" opacity="1"/><circle cx="111" cy="223" r="3" fill="#1F78B4" stroke="none" opacity="1"/><circle cx="115" cy="221" r="3" fill="#1F78B4" stroke="none" opacity="1"/><circle cx="118" cy="219" r="3" fill="#1F78B4" stroke="none" opacity="1"/><circle cx="122" cy="217" r="3" fill="#1F78B4" stroke="none" opacity="1"/><circle cx="125" cy="214" r="3" fill="#1F78B4" stroke="none" opacity="1"/><circle cx="129" cy="213" r="3" fill="#1F78B4" stroke="none" opacity="1"/><circle cx="133" cy="211" r="3" fill="#1F78B4" stroke="none" opacity="1"/><circle cx="136" cy="209" r="3" fill="#1F78B4" stroke="none" opacity="1"/><circle cx="140" cy="207" r="3" fill="#1F78B4" stroke="none" opacity="1"/><circle cx="144" cy="205" r="3" fill="#1F78B4" stroke="none" opacity="1"/><circle cx="147" cy="202" r="3" fill="#1F78B4" stroke="none" opacity="1"/><circle cx="151" cy="200" r="3" fill="#1F78B4" stroke="none" opacity="1"/><circle cx="155" cy="187" r="3" fill="#1F78B4" stroke="none" opacity="1"/><circle cx="158" cy="197" r="3" fill="#1F78B4" stroke="none" opacity="1"/><circle cx="162" cy="195" r="3" fill="#1F78B4" stroke="none" opacity="1"/><circle cx="165" cy="193" r="3" fill="#1F78B4" stroke="none" opacity="1"/><circle cx="169" cy="192" r="3" fill="#1F78B4" stroke="none" opacity="1"/><circle cx="173" cy="188" r="3" fill="#1F78B4" stroke="none" opacity="1"/><circle cx="176" cy="187" r="3" fill="#1F78B4" stroke="none" opacity="1"/><circle cx="180" cy="184" r="3" fill="#1F78B4" stroke="none" opacity="1"/><circle cx="184" cy="172" r="3" fill="#1F78B4" stroke="none" opacity="1"/><circle cx="187" cy="179" r="3" fill="#1F78B4" stroke="none" opacity="1"/><circle cx="191" cy="178" r="3" fill="#1F78B4" stroke="none" opacity="1"/><circle cx="195" cy="176" r="3" fill="#1F78B4" stroke="none" opacity="1"/><circle cx="198" cy="173" r="3" fill="#1F78B4" stroke="none" opacity="1"/><circle cx="202" cy="172" r="3" fill="#1F78B4" stroke="none" opacity="1"/><circle cx="205" cy="170" r="3" fill="#1F78B4" stroke="none" opacity="1"/><circle cx="209" cy="166" r="3" fill="#1F78B4" stroke="none" opacity="1"/><circle cx="213" cy="165" r="3" fill="#1F78B4" stroke="none" opacity="1"/><circle cx="216" cy="162" r="3" fill="#1F78B4" stroke="none" opacity="1"/><circle cx="220" cy="162" r="3" fill="#1F78B4" stroke="none" opacity="1"/><circle cx="224" cy="159" r="3" fill="#1F78B4" stroke="none" opacity="1"/><circle cx="227" cy="156" r="3" fill="#1F78B4" stroke="none" opacity="1"/><circle cx="231" cy="156" r="3" fill="#1F78B4" stroke="none" opacity="1"/><circle cx="235" cy="153" r="3" fill="#1F78B4" stroke="none" opacity="1"/><circle cx="238" cy="150" r="3" fill="#1F78B4" stroke="none" opacity="1"/><circle cx="242" cy="149" r="3" fill="#1F78B4" stroke="none" opacity="1"/><circle cx="245" cy="147" r="3" fill="#1F78B4" stroke="none" opacity="1"/><circle cx="249" cy="131" r="3" fill="#1F78B4" stroke="none" opacity="1"/><circle cx="253" cy="143" r="3" fill="#1F78B4" stroke="none" opacity="1"/><circle cx="256" cy="138" r="3" fill="#1F78B4" stroke="none" opacity="1"/><circle cx="260" cy="138" r="3" fill="#1F78B4" stroke="none" opacity="1"/><circle cx="264" cy="136" r="3" fill="#1F78B4" stroke="none" opacity="1"/><circle cx="267" cy="134" r="3" fill="#1F78B4" stroke="none" opacity="1"/><circle cx="271" cy="132" r="3" fill="#1F78B4" stroke="none" opacity="1"/><circle cx="275" cy="132" r="3" fill="#1F78B4" stroke="none" opacity="1"/><circle cx="278" cy="126" r="3" fill="#1F78B4" stroke="none" opacity="1"/><circle cx="282" cy="127" r="3" fill="#1F78B4" stroke="none" opacity="1"/><circle cx="285" cy="122" r="3" fill="#1F78B4" stroke="none" opacity="1"/><circle cx="289" cy="120" r="3" fill="#1F78B4" stroke="none" opacity="1"/><circle cx="293" cy="119" r="3" fill="#1F78B4" stroke="none" opacity="1"/><circle cx="296" cy="103" r="3" fill="#1F78B4" stroke="none" opacity="1"/><circle cx="300" cy="116" r="3" fill="#1F78B4" stroke="none" opacity="1"/><circle cx="304" cy="115" r="3" fill="#1F78B4" stroke="none" opacity="1"/><circle cx="307" cy="108" r="3" fill="#1F78B4" stroke="none" opacity="1"/><circle cx="311" cy="107" r="3" fill="#1F78B4" stroke="none" opacity="1"/><circle cx="315" cy="109" r="3" fill="#1F78B4" stroke="none" opacity="1"/><circle cx="318" cy="106" r="3" fill="#1F78B4" stroke="none" opacity="1"/><circle cx="322" cy="103" r="3" fill="#1F78B4" stroke="none" opacity="1"/><circle cx="325" cy="104" r="3" fill="#1F78B4" stroke="none" opacity="1"/><circle cx="329" cy="99" r="3" fill="#1F78B4" stroke="none" opacity="1"/><circle cx="333" cy="96" r="3" fill="#1F78B4" stroke="none" opacity="1"/><circle cx="336" cy="61" r="3" fill="#1F78B4" stroke="none" opacity="1"/><circle cx="340" cy="91" r="3" fill="#1F78B4" stroke="none" opacity="1"/><circle cx="344" cy="89" r="3" fill="#1F78B4" stroke="none" opacity="1"/><circle cx="347" cy="89" r="3" fill="#1F78B4" stroke="none" opacity="1"/><circle cx="351" cy="88" r="3" fill="#1F78B4" stroke="none" opacity="1"/><circle cx="355" cy="82" r="3" fill="#1F78B4" stroke="none" opacity="1"/><circle cx="358" cy="81" r="3" fill="#1F78B4" stroke="none" opacity="1"/><circle cx="362" cy="81" r="3" fill="#1F78B4" stroke="none" opacity="1"/><circle cx="365" cy="78" r="3" fill="#1F78B4" stroke="none" opacity="1"/><circle cx="369" cy="50" r="3" fill="#1F78B4" stroke="none" opacity="1"/><circle cx="373" cy="76" r="3" fill="#1F78B4" stroke="none" opacity="1"/><circle cx="376" cy="73" r="3" fill="#1F78B4" stroke="none" opacity="1"/><circle cx="380" cy="69" r="3" fill="#1F78B4" stroke="none" opacity="1"/><circle cx="384" cy="67" r="3" fill="#1F78B4" stroke="none" opacity="1"/><circle cx="387" cy="68" r="3" fill="#1F78B4" stroke="none" opacity="1"/><circle cx="391" cy="63" r="3" fill="#1F78B4" stroke="none" opacity="1"/><circle cx="395" cy="63" r="3" fill="#1F78B4" stroke="none" opacity="1"/><circle cx="398" cy="49" r="3" fill="#1F78B4" stroke="none" opacity="1"/><circle cx="402" cy="61" r="3" fill="#1F78B4" stroke="none" opacity="1"/><circle cx="405" cy="58" r="3" fill="#1F78B4" stroke="none" opacity="1"/><circle cx="409" cy="50" r="3" fill="#1F78B4" stroke="none" opacity="1"/><circle cx="413" cy="54" r="3" fill="#1F78B4" stroke="none" opacity="1"/><circle cx="416" cy="47" r="3" fill="#1F78B4" stroke="none" opacity="1"/><circle cx="420" cy="46" r="3" fill="#1F78B4" stroke="none" opacity="1"/><circle cx="424" cy="48" r="3" fill="#1F78B4" stroke="none" opacity="1"/><circle cx="427" cy="15" r="3" fill="#1F78B4" stroke="none" opacity="1"/><circle cx="431" cy="42" r="3" fill="#1F78B4" stroke="none" opacity="1"/><circle cx="435" cy="39" r="3" fill="#1F78B4" stroke="none" opacity="1"/><polyline fill="none" stroke="#1F78B4" stroke-width="1" points="75 245 435 36" opacity="1"/><polygon fill="#1F78B4" points="75 245 435 38 435 33" opacity=".25"/></svg>