<svg xmlns="http://www.w3.org/2000/svg" width="960" height="540"><text x="480" y="32" fill="#000" dy=".76em" font-family="sans-serif" font-size="16.129" opacity="1" text-anchor="middle">bench_group/threads_01/1048576</text><text x="27" y="263" fill="#000" dy=".76em" font-family="sans-serif" font-size="9.677" opacity="1" text-anchor="middle" transform="rotate(270, 27, 263)">Iterations</text><text x="480" y="513" fill="#000" dy="-.5ex" font-family="sans-serif" font-size="9.677" opacity="1" text-anchor="middle">Average Time (us)</text><polyline fill="none" stroke="#000" stroke-width="1" points="86 53 86 473" opacity="1"/><text x="77" y="419" fill="#000" dy=".5ex" font-family="sans-serif" font-size="9.677" opacity="1" text-anchor="end">100</text><polyline fill="none" stroke="#000" stroke-width="1" points="81 419 86 419" opacity="1"/><text x="77" y="367" fill="#000" dy=".5ex" font-family="sans-serif" font-size="9.677" opacity="1" text-anchor="end">200</text><polyline fill="none" stroke="#000" stroke-width="1" points="81 367 86 367" opacity="1"/><text x="77" y="314" fill="#000" dy=".5ex" font-family="sans-serif" font-size="9.677" opacity="1" text-anchor="end">300</text><polyline fill="none" stroke="#000" stroke-width="1" points="81 314 86 314" opacity="1"/><text x="77" y="262" fill="#000" dy=".5ex" font-family="sans-serif" font-size="9.677" opacity="1" text-anchor="end">400</text><polyline fill="none" stroke="#000" stroke-width="1" points="81 262 86 262" opacity="1"/><text x="77" y="209" fill="#000" dy=".5ex" font-family="sans-serif" font-size="9.677" opacity="1" text-anchor="end">500</text><polyline fill="none" stroke="#000" stroke-width="1" points="81 209 86 209" opacity="1"/><text x="77" y="157" fill="#000" dy=".5ex" font-family="sans-serif" font-size="9.677" opacity="1" text-anchor="end">600</text><polyline fill="none" stroke="#000" stroke-width="1" points="81 157 86 157" opacity="1"/><text x="77" y="104" fill="#000" dy=".5ex" font-family="sans-serif" font-size="9.677" opacity="1" text-anchor="end">700</text><polyline fill="none" stroke="#000" stroke-width="1" points="81 104 86 104" opacity="1"/><polyline fill="none" stroke="#000" stroke-width="1" points="87 473 873 473" opacity="1"/><text x="97" y="483" fill="#000" dy=".76em" font-family="sans-serif" font-size="9.677" opacity="1" text-anchor="middle">138</text><polyline fill="none" stroke="#000" stroke-width="1" points="97 473 97 478" opacity="1"/><text x="178" y="483" fill="#000" dy=".76em" font-family="sans-serif" font-size="9.677" opacity="1" text-anchor="middle">140</text><polyline fill="none" stroke="#000" stroke-width="1" points="178 473 178 478" opacity="1"/><text x="259" y="483" fill="#000" dy=".76em" font-family="sans-serif" font-size="9.677" opacity="1" text-anchor="middle">142</text><polyline fill="none" stroke="#000" stroke-width="1" points="259 473 259 478" opacity="1"/><text x="340" y="483" fill="#000" dy=".76em" font-family="sans-serif" font-size="9.677" opacity="1" text-anchor="middle">144</text><polyline fill="none" stroke="#000" stroke-width="1" points="340 473 340 478" opacity="1"/><text x="421" y="483" fill="#000" dy=".76em" font-family="sans-serif" font-size="9.677" opacity="1" text-anchor="middle">146</text><polyline fill="none" stroke="#000" stroke-width="1" points="421 473 421 478" opacity="1"/><text x="502" y="483" fill="#000" dy=".76em" font-family="sans-serif" font-size="9.677" opacity="1" text-anchor="middle">148</text><polyline fill="none" stroke="#000" stroke-width="1" points="502 473 502 478" opacity="1"/><text x="582" y="483" fill="#000" dy=".76em" font-family="sans-serif" font-size="9.677" opacity="1" text-anchor="middle">150</text><polyline fill="none" stroke="#000" stroke-width="1" points="582 473 582 478" opacity="1"/><text x="663" y="483" fill="#000" dy=".76em" font-family="sans-serif" font-size="9.677" opacity="1" text-anchor="middle">152</text><polyline fill="none" stroke="#000" stroke-width="1" points="663 473 663 478" opacity="1"/><text x="744" y="483" fill="#000" dy=".76em" font-family="sans-serif" font-size="9.677" opacity="1" text-anchor="middle">154</text><polyline fill="none" stroke="#000" stroke-width="1" points="744 473 744 478" opacity="1"/><text x="825" y="483" fill="#000" dy=".76em" font-family="sans-serif" font-size="9.677" opacity="1" text-anchor="middle">156</text><polyline fill="none" stroke="#000" stroke-width="1" points="825 473 825 478" opacity="1"/><text x="933" y="263" fill="#000" dy=".76em" font-family="sans-serif" font-size="9.677" opacity="1" text-anchor="middle" transform="rotate(90, 933, 263)">Density (a.u.)</text><polyline fill="none" stroke="#000" stroke-width="1" points="873 54 873 473" opacity="1"/><text x="883" y="415" fill="#000" dy=".5ex" font-family="sans-serif" font-size="9.677" opacity="1" text-anchor="start">0.05</text><polyline fill="none" stroke="#000" stroke-width="1" points="873 415 878 415" opacity="1"/><text x="905" y="358" fill="#000" dy=".5ex" font-family="sans-serif" font-size="9.677" opacity="1" text-anchor="end">0.1</text><polyline fill="none" stroke="#000" stroke-width="1" points="873 358 878 358" opacity="1"/><text x="883" y="300" fill="#000" dy=".5ex" font-family="sans-serif" font-size="9.677" opacity="1" text-anchor="start">0.15</text><polyline fill="none" stroke="#000" stroke-width="1" points="873 300 878 300" opacity="1"/><text x="905" y="243" fill="#000" dy=".5ex" font-family="sans-serif" font-size="9.677" opacity="1" text-anchor="end">0.2</text><polyline fill="none" stroke="#000" stroke-width="1" points="873 243 878 243" opacity="1"/><text x="883" y="186" fill="#000" dy=".5ex" font-family="sans-serif" font-size="9.677" opacity="1" text-anchor="start">0.25</text><polyline fill="none" stroke="#000" stroke-width="1" points="873 186 878 186" opacity="1"/><text x="905" y="128" fill="#000" dy=".5ex" font-family="sans-serif" font-size="9.677" opacity="1" text-anchor="end">0.3</text><polyline fill="none" stroke="#000" stroke-width="1" points="873 128 878 128" opacity="1"/><text x="883" y="71" fill="#000" dy=".5ex" font-family="sans-serif" font-size="9.677" opacity="1" text-anchor="start">0.35</text><polyline fill="none" stroke="#000" stroke-width="1" points="873 71 878 71" opacity="1"/><polygon fill="#1F78B4" points="87 471 88 471 90 470 91 470 93 470 94 469 96 469 98 468 99 467 101 467 102 466 104 465 105 464 107 463 109 462 110 460 112 459 113 457 115 455 116 453 118 451 120 449 121 446 123 443 124 440 126 437 127 433 129 429 131 425 132 421 134 416 135 411 137 405 138 399 140 393 142 386 143 380 145 372 146 365 148 357 150 349 151 340 153 331 154 322 156 312 157 303 159 293 161 282 162 272 164 261 165 251 167 240 168 229 170 218 172 207 173 196 175 186 176 175 178 165 179 155 181 145 183 135 184 126 186 117 187 109 189 101 190 94 192 87 194 81 195 75 197 70 198 65 200 62 201 58 203 56 205 54 206 53 208 53 209 53 211 54 213 55 214 57 216 60 217 63 219 67 220 71 222 76 224 81 225 87 227 93 228 99 230 106 231 113 233 120 235 128 236 136 238 143 239 151 241 159 242 168 244 176 246 184 247 192 249 200 250 208 252 216 253 224 255 232 257 240 258 248 260 255 261 263 263 270 264 277 266 284 268 291 269 298 271 304 272 311 274 317 276 323 277 329 279 334 280 340 282 345 283 351 285 356 287 361 288 366 290 370 291 375 293 379 294 383 296 388 298 391 299 395 301 399 302 403 304 406 305 409 307 412 309 415 310 418 312 421 313 424 315 426 316 429 318 431 320 433 321 435 323 437 324 439 326 441 327 443 329 444 331 446 332 447 334 448 335 450 337 451 339 452 340 453 342 454 343 455 345 456 346 457 348 458 350 458 351 459 353 460 354 460 356 461 357 462 359 462 361 463 362 463 364 464 365 464 367 464 368 465 370 465 372 465 373 466 375 466 376 466 378 467 379 467 381 467 383 467 384 468 386 468 387 468 389 468 391 468 392 468 394 469 395 469 397 469 398 469 400 469 402 469 403 469 405 469 406 469 408 469 409 469 411 469 413 469 414 469 416 469 417 469 419 469 420 469 422 469 424 468 425 468 427 468 428 468 430 468 431 468 433 468 435 468 436 468 438 468 439 468 441 467 442 467 444 467 446 467 447 467 449 467 450 467 452 467 454 467 455 467 457 467 458 467 460 467 461 467 463 467 465 467 466 467 468 467 469 468 471 468 472 468 474 468 476 468 477 468 479 468 480 468 482 468 483 469 485 469 487 469 488 469 490 469 491 469 493 469 494 470 496 470 498 470 499 470 501 470 502 470 504 470 505 471 507 471 509 471 510 471 512 471 513 471 515 471 517 471 518 471 520 472 521 472 523 472 524 472 526 472 528 472 529 472 531 472 532 472 534 472 535 472 537 472 539 472 540 472 542 472 543 472 545 472 546 472 548 472 550 472 551 472 553 472 554 472 556 472 557 472 559 472 561 472 562 472 564 472 565 472 567 472 568 472 570 472 572 472 573 472 575 472 576 472 578 472 580 472 581 472 583 472 584 472 586 472 587 472 589 472 591 472 592 472 594 472 595 472 597 472 598 472 600 472 602 472 603 472 605 472 606 472 608 472 609 472 611 472 613 472 614 472 616 472 617 472 619 472 620 472 622 472 624 472 625 472 627 472 628 472 630 472 632 472 633 471 635 471 636 471 638 471 639 471 641 471 643 471 644 471 646 471 647 470 649 470 650 470 652 470 654 470 655 470 657 470 658 469 660 469 661 469 663 469 665 469 666 469 668 469 669 468 671 468 672 468 674 468 676 468 677 468 679 468 680 467 682 467 683 467 685 467 687 467 688 467 690 467 691 467 693 467 695 467 696 467 698 467 699 466 701 466 702 466 704 466 706 466 707 466 709 466 710 466 712 466 713 466 715 466 717 466 718 466 720 466 721 466 723 466 724 466 726 466 728 466 729 466 731 466 732 466 734 466 735 466 737 466 739 466 740 466 742 466 743 466 745 466 746 466 748 466 750 466 751 466 753 466 754 466 756 466 758 466 759 466 761 466 762 466 764 466 765 466 767 467 769 467 770 467 772 467 773 467 775 467 776 467 778 467 780 467 781 467 783 467 784 467 786 468 787 468 789 468 791 468 792 468 794 468 795 468 797 469 798 469 800 469 802 469 803 469 805 469 806 469 808 470 809 470 811 470 813 470 814 470 816 470 817 470 819 471 821 471 822 471 824 471 825 471 827 471 828 471 830 471 832 471 833 472 835 472 836 472 838 472 839 472 841 472 843 472 844 472 846 472 847 472 849 472 850 472 852 472 854 472 855 472 857 472 858 472 860 472 861 472 863 472 865 472 866 472 868 472 869 472 871 472 873 472 873 473 87 473" opacity=".5"/><polyline fill="none" stroke="#1F78B4" stroke-width="1" points="231 472 231 53" opacity="1"/><polyline fill="none" stroke="#FF7F00" stroke-width="1" points="149 472 149 53" opacity="1"/><polyline fill="none" stroke="#FF7F00" stroke-width="1" points="282 472 282 53" opacity="1"/><polyline fill="none" stroke="#E31A1C" stroke-width="1" points="99 472 99 53" opacity="1"/><polyline fill="none" stroke="#E31A1C" stroke-width="1" points="332 472 332 53" opacity="1"/><circle cx="264" cy="459" r="3" fill="#1F78B4" stroke="none" opacity="1"/><circle cx="267" cy="451" r="3" fill="#1F78B4" stroke="none" opacity="1"/><circle cx="270" cy="434" r="3" fill="#1F78B4" stroke="none" opacity="1"/><circle cx="258" cy="430" r="3" fill="#1F78B4" stroke="none" opacity="1"/><circle cx="280" cy="425" r="3" fill="#1F78B4" stroke="none" opacity="1"/><circle cx="248" cy="421" r="3" fill="#1F78B4" stroke="none" opacity="1"/><circle cx="265" cy="417" r="3" fill="#1F78B4" stroke="none" opacity="1"/><circle cx="240" cy="413" r="3" fill="#1F78B4" stroke="none" opacity="1"/><circle cx="263" cy="409" r="3" fill="#1F78B4" stroke="none" opacity="1"/><circle cx="258" cy="404" r="3" fill="#1F78B4" stroke="none" opacity="1"/><circle cx="258" cy="400" r="3" fill="#1F78B4" stroke="none" opacity="1"/><circle cx="228" cy="396" r="3" fill="#1F78B4" stroke="none" opacity="1"/><circle cx="231" cy="392" r="3" fill="#1F78B4" stroke="none" opacity="1"/><circle cx="203" cy="388" r="3" fill="#1F78B4" stroke="none" opacity="1"/><circle cx="230" cy="383" r="3" fill="#1F78B4" stroke="none" opacity="1"/><circle cx="229" cy="379" r="3" fill="#1F78B4" stroke="none" opacity="1"/><circle cx="225" cy="375" r="3" fill="#1F78B4" stroke="none" opacity="1"/><circle cx="206" cy="371" r="3" fill="#1F78B4" stroke="none" opacity="1"/><circle cx="203" cy="367" r="3" fill="#1F78B4" stroke="none" opacity="1"/><circle cx="215" cy="362" r="3" fill="#1F78B4" stroke="none" opacity="1"/><circle cx="203" cy="358" r="3" fill="#1F78B4" stroke="none" opacity="1"/><circle cx="196" cy="354" r="3" fill="#1F78B4" stroke="none" opacity="1"/><circle cx="202" cy="350" r="3" fill="#1F78B4" stroke="none" opacity="1"/><circle cx="198" cy="346" r="3" fill="#1F78B4" stroke="none" opacity="1"/><circle cx="202" cy="341" r="3" fill="#1F78B4" stroke="none" opacity="1"/><circle cx="210" cy="337" r="3" fill="#1F78B4" stroke="none" opacity="1"/><circle cx="203" cy="333" r="3" fill="#1F78B4" stroke="none" opacity="1"/><circle cx="198" cy="329" r="3" fill="#1F78B4" stroke="none" opacity="1"/><circle cx="200" cy="325" r="3" fill="#1F78B4" stroke="none" opacity="1"/><circle cx="196" cy="320" r="3" fill="#1F78B4" stroke="none" opacity="1"/><circle cx="202" cy="316" r="3" fill="#1F78B4" stroke="none" opacity="1"/><circle cx="194" cy="312" r="3" fill="#1F78B4" stroke="none" opacity="1"/><circle cx="209" cy="308" r="3" fill="#1F78B4" stroke="none" opacity="1"/><circle cx="194" cy="304" r="3" fill="#1F78B4" stroke="none" opacity="1"/><circle cx="216" cy="299" r="3" fill="#1F78B4" stroke="none" opacity="1"/><circle cx="211" cy="295" r="3" fill="#1F78B4" stroke="none" opacity="1"/><circle cx="206" cy="291" r="3" fill="#1F78B4" stroke="none" opacity="1"/><circle cx="260" cy="287" r="3" fill="#1F78B4" stroke="none" opacity="1"/><circle cx="237" cy="283" r="3" fill="#1F78B4" stroke="none" opacity="1"/><circle cx="195" cy="278" r="3" fill="#1F78B4" stroke="none" opacity="1"/><circle cx="208" cy="274" r="3" fill="#1F78B4" stroke="none" opacity="1"/><circle cx="219" cy="270" r="3" fill="#1F78B4" stroke="none" opacity="1"/><circle cx="228" cy="266" r="3" fill="#1F78B4" stroke="none" opacity="1"/><circle cx="259" cy="262" r="3" fill="#1F78B4" stroke="none" opacity="1"/><circle cx="200" cy="257" r="3" fill="#1F78B4" stroke="none" opacity="1"/><circle cx="206" cy="253" r="3" fill="#1F78B4" stroke="none" opacity="1"/><circle cx="266" cy="249" r="3" fill="#1F78B4" stroke="none" opacity="1"/><circle cx="249" cy="245" r="3" fill="#1F78B4" stroke="none" opacity="1"/><circle cx="280" cy="241" r="3" fill="#1F78B4" stroke="none" opacity="1"/><circle cx="267" cy="236" r="3" fill="#1F78B4" stroke="none" opacity="1"/><circle cx="227" cy="232" r="3" fill="#1F78B4" stroke="none" opacity="1"/><circle cx="223" cy="228" r="3" fill="#1F78B4" stroke="none" opacity="1"/><circle cx="203" cy="224" r="3" fill="#1F78B4" stroke="none" opacity="1"/><circle cx="200" cy="220" r="3" fill="#1F78B4" stroke="none" opacity="1"/><circle cx="202" cy="215" r="3" fill="#1F78B4" stroke="none" opacity="1"/><circle cx="199" cy="211" r="3" fill="#1F78B4" stroke="none" opacity="1"/><circle cx="202" cy="207" r="3" fill="#1F78B4" stroke="none" opacity="1"/><circle cx="203" cy="203" r="3" fill="#1F78B4" stroke="none" opacity="1"/><circle cx="198" cy="199" r="3" fill="#1F78B4" stroke="none" opacity="1"/><circle cx="199" cy="194" r="3" fill="#1F78B4" stroke="none" opacity="1"/><circle cx="209" cy="190" r="3" fill="#1F78B4" stroke="none" opacity="1"/><circle cx="195" cy="186" r="3" fill="#1F78B4" stroke="none" opacity="1"/><circle cx="210" cy="182" r="3" fill="#1F78B4" stroke="none" opacity="1"/><circle cx="200" cy="178" r="3" fill="#1F78B4" stroke="none" opacity="1"/><circle cx="201" cy="173" r="3" fill="#1F78B4" stroke="none" opacity="1"/><circle cx="196" cy="169" r="3" fill="#1F78B4" stroke="none" opacity="1"/><circle cx="195" cy="165" r="3" fill="#1F78B4" stroke="none" opacity="1"/><circle cx="193" cy="161" r="3" fill="#1F78B4" stroke="none" opacity="1"/><circle cx="201" cy="157" r="3" fill="#1F78B4" stroke="none" opacity="1"/><circle cx="190" cy="152" r="3" fill="#1F78B4" stroke="none" opacity="1"/><circle cx="200" cy="148" r="3" fill="#1F78B4" stroke="none" opacity="1"/><circle cx="196" cy="144" r="3" fill="#1F78B4" stroke="none" opacity="1"/><circle cx="202" cy="140" r="3" fill="#1F78B4" stroke="none" opacity="1"/><circle cx="197" cy="136" r="3" fill="#1F78B4" stroke="none" opacity="1"/><circle cx="202" cy="131" r="3" fill="#1F78B4" stroke="none" opacity="1"/><circle cx="205" cy="127" r="3" fill="#1F78B4" stroke="none" opacity="1"/><circle cx="194" cy="123" r="3" fill="#1F78B4" stroke="none" opacity="1"/><circle cx="200" cy="119" r="3" fill="#1F78B4" stroke="none" opacity="1"/><circle cx="199" cy="115" r="3" fill="#1F78B4" stroke="none" opacity="1"/><circle cx="198" cy="110" r="3" fill="#1F78B4" stroke="none" opacity="1"/><circle cx="195" cy="106" r="3" fill="#1F78B4" stroke="none" opacity="1"/><circle cx="198" cy="102" r="3" fill="#1F78B4" stroke="none" opacity="1"/><circle cx="199" cy="98" r="3" fill="#1F78B4" stroke="none" opacity="1"/><circle cx="193" cy="94" r="3" fill="#1F78B4" stroke="none" opacity="1"/><circle cx="199" cy="89" r="3" fill="#1F78B4" stroke="none" opacity="1"/><circle cx="193" cy="85" r="3" fill="#1F78B4" stroke="none" opacity="1"/><circle cx="196" cy="81" r="3" fill="#1F78B4" stroke="none" opacity="1"/><circle cx="202" cy="77" r="3" fill="#1F78B4" stroke="none" opacity="1"/><circle cx="236" cy="73" r="3" fill="#1F78B4" stroke="none" opacity="1"/><circle cx="195" cy="68" r="3" fill="#1F78B4" stroke="none" opacity="1"/><circle cx="208" cy="64" r="3" fill="#1F78B4" stroke="none" opacity="1"/><circle cx="224" cy="60" r="3" fill="#1F78B4" stroke="none" opacity="1"/><circle cx="200" cy="56" r="3" fill="#1F78B4" stroke="none" opacity="1"/><circle cx="193" cy="53" r="3" fill="#1F78B4" stroke="none" opacity="1"/><circle cx="285" cy="442" r="3" fill="#FF7F00" stroke="none" opacity="1"/><circle cx="314" cy="438" r="3" fill="#FF7F00" stroke="none" opacity="1"/><circle cx="769" cy="467" r="3" fill="#E31A1C" stroke="none" opacity="1"/><circle cx="695" cy="463" r="3" fill="#E31A1C" stroke="none" opacity="1"/><circle cx="456" cy="455" r="3" fill="#E31A1C" stroke="none" opacity="1"/><circle cx="350" cy="446" r="3" fill="#E31A1C" stroke="none" opacity="1"/><text x="776" y="228" fill="#000" dy=".76em" font-family="sans-serif" font-size="9.677" opacity="1" text-anchor="start">PDF</text><text x="776" y="243" fill="#000" dy=".76em" font-family="sans-serif" font-size="9.677" opacity="1" text-anchor="start">Mean</text><text x="776" y="258" fill="#000" dy=".76em" font-family="sans-serif" font-size="9.677" opacity="1" text-anchor="start">&quot;Clean&quot; sample</text><text x="776" y="273" fill="#000" dy=".76em" font-family="sans-serif" font-size="9.677" opacity="1" text-anchor="start">Mild outliers</text><text x="776" y="288" fill="#000" dy=".76em" font-family="sans-serif" font-size="9.677" opacity="1" text-anchor="start">Severe outliers</text><rect width="20" height="10" x="746" y="228" fill="#1F78B4" stroke="none" opacity=".5"/><polyline fill="none" stroke="#1F78B4" stroke-width="1" points="746 248 766 248" opacity="1"/><circle cx="756" cy="263" r="3" fill="#1F78B4" stroke="none" opacity="1"/><circle cx="756" cy="278" r="3" fill="#FF7F00" stroke="none" opacity="1"/><circle cx="756" cy="293" r="3" fill="#E31A1C" stroke="none" opacity="1"/></svg>