<svg xmlns="http://www.w3.org/2000/svg" width="960" height="540"><text x="480" y="32" fill="#000" dy=".76em" font-family="sans-serif" font-size="16.129" opacity="1" text-anchor="middle">bench_group/threads_32/8388608</text><text x="27" y="263" fill="#000" dy=".76em" font-family="sans-serif" font-size="9.677" opacity="1" text-anchor="middle" transform="rotate(270, 27, 263)">Total sample time (ms)</text><text x="510" y="513" fill="#000" dy="-.5ex" font-family="sans-serif" font-size="9.677" opacity="1" text-anchor="middle">Iterations (x 10^3)</text><line x1="163" x2="163" y1="472" y2="52" stroke="#000" stroke-width="1" opacity=".2"/><line x1="249" x2="249" y1="472" y2="52" stroke="#000" stroke-width="1" opacity=".2"/><line x1="334" x2="334" y1="472" y2="52" stroke="#000" stroke-width="1" opacity=".2"/><line x1="420" x2="420" y1="472" y2="52" stroke="#000" stroke-width="1" opacity=".2"/><line x1="505" x2="505" y1="472" y2="52" stroke="#000" stroke-width="1" opacity=".2"/><line x1="591" x2="591" y1="472" y2="52" stroke="#000" stroke-width="1" opacity=".2"/><line x1="676" x2="676" y1="472" y2="52" stroke="#000" stroke-width="1" opacity=".2"/><line x1="762" x2="762" y1="472" y2="52" stroke="#000" stroke-width="1" opacity=".2"/><line x1="847" x2="847" y1="472" y2="52" stroke="#000" stroke-width="1" opacity=".2"/><line x1="933" x2="933" y1="472" y2="52" stroke="#000" stroke-width="1" opacity=".2"/><line x1="87" x2="933" y1="435" y2="435" stroke="#000" stroke-width="1" opacity=".2"/><line x1="87" x2="933" y1="393" y2="393" stroke="#000" stroke-width="1" opacity=".2"/><line x1="87" x2="933" y1="351" y2="351" stroke="#000" stroke-width="1" opacity=".2"/><line x1="87" x2="933" y1="309" y2="309" stroke="#000" stroke-width="1" opacity=".2"/><line x1="87" x2="933" y1="267" y2="267" stroke="#000" stroke-width="1" opacity=".2"/><line x1="87" x2="933" y1="226" y2="226" stroke="#000" stroke-width="1" opacity=".2"/><line x1="87" x2="933" y1="184" y2="184" stroke="#000" stroke-width="1" opacity=".2"/><line x1="87" x2="933" y1="142" y2="142" stroke="#000" stroke-width="1" opacity=".2"/><line x1="87" x2="933" y1="100" y2="100" stroke="#000" stroke-width="1" opacity=".2"/><line x1="87" x2="933" y1="58" y2="58" stroke="#000" stroke-width="1" opacity=".2"/><polyline fill="none" stroke="#000" stroke-width="1" points="86 53 86 473" opacity="1"/><text x="77" y="435" fill="#000" dy=".5ex" font-family="sans-serif" font-size="9.677" opacity="1" text-anchor="end">10.0</text><polyline fill="none" stroke="#000" stroke-width="1" points="81 435 86 435" opacity="1"/><text x="77" y="393" fill="#000" dy=".5ex" font-family="sans-serif" font-size="9.677" opacity="1" text-anchor="end">20.0</text><polyline fill="none" stroke="#000" stroke-width="1" points="81 393 86 393" opacity="1"/><text x="77" y="351" fill="#000" dy=".5ex" font-family="sans-serif" font-size="9.677" opacity="1" text-anchor="end">30.0</text><polyline fill="none" stroke="#000" stroke-width="1" points="81 351 86 351" opacity="1"/><text x="77" y="309" fill="#000" dy=".5ex" font-family="sans-serif" font-size="9.677" opacity="1" text-anchor="end">40.0</text><polyline fill="none" stroke="#000" stroke-width="1" points="81 309 86 309" opacity="1"/><text x="77" y="267" fill="#000" dy=".5ex" font-family="sans-serif" font-size="9.677" opacity="1" text-anchor="end">50.0</text><polyline fill="none" stroke="#000" stroke-width="1" points="81 267 86 267" opacity="1"/><text x="77" y="226" fill="#000" dy=".5ex" font-family="sans-serif" font-size="9.677" opacity="1" text-anchor="end">60.0</text><polyline fill="none" stroke="#000" stroke-width="1" points="81 226 86 226" opacity="1"/><text x="77" y="184" fill="#000" dy=".5ex" font-family="sans-serif" font-size="9.677" opacity="1" text-anchor="end">70.0</text><polyline fill="none" stroke="#000" stroke-width="1" points="81 184 86 184" opacity="1"/><text x="77" y="142" fill="#000" dy=".5ex" font-family="sans-serif" font-size="9.677" opacity="1" text-anchor="end">80.0</text><polyline fill="none" stroke="#000" stroke-width="1" points="81 142 86 142" opacity="1"/><text x="77" y="100" fill="#000" dy=".5ex" font-family="sans-serif" font-size="9.677" opacity="1" text-anchor="end">90.0</text><polyline fill="none" stroke="#000" stroke-width="1" points="81 100 86 100" opacity="1"/><text x="77" y="58" fill="#000" dy=".5ex" font-family="sans-serif" font-size="9.677" opacity="1" text-anchor="end">100.0</text><polyline fill="none" stroke="#000" stroke-width="1" points="81 58 86 58" opacity="1"/><polyline fill="none" stroke="#000" stroke-width="1" points="87 473 933 473" opacity="1"/><text x="163" y="483" fill="#000" dy=".76em" font-family="sans-serif" font-size="9.677" opacity="1" text-anchor="middle">0.1</text><polyline fill="none" stroke="#000" stroke-width="1" points="163 473 163 478" opacity="1"/><text x="249" y="483" fill="#000" dy=".76em" font-family="sans-serif" font-size="9.677" opacity="1" text-anchor="middle">0.2</text><polyline fill="none" stroke="#000" stroke-width="1" points="249 473 249 478" opacity="1"/><text x="334" y="483" fill="#000" dy=".76em" font-family="sans-serif" font-size="9.677" opacity="1" text-anchor="middle">0.3</text><polyline fill="none" stroke="#000" stroke-width="1" points="334 473 334 478" opacity="1"/><text x="420" y="483" fill="#000" dy=".76em" font-family="sans-serif" font-size="9.677" opacity="1" text-anchor="middle">0.4</text><polyline fill="none" stroke="#000" stroke-width="1" points="420 473 420 478" opacity="1"/><text x="505" y="483" fill="#000" dy=".76em" font-family="sans-serif" font-size="9.677" opacity="1" text-anchor="middle">0.5</text><polyline fill="none" stroke="#000" stroke-width="1" points="505 473 505 478" opacity="1"/><text x="591" y="483" fill="#000" dy=".76em" font-family="sans-serif" font-size="9.677" opacity="1" text-anchor="middle">0.6</text><polyline fill="none" stroke="#000" stroke-width="1" points="591 473 591 478" opacity="1"/><text x="676" y="483" fill="#000" dy=".76em" font-family="sans-serif" font-size="9.677" opacity="1" text-anchor="middle">0.7</text><polyline fill="none" stroke="#000" stroke-width="1" points="676 473 676 478" opacity="1"/><text x="762" y="483" fill="#000" dy=".76em" font-family="sans-serif" font-size="9.677" opacity="1" text-anchor="middle">0.8</text><polyline fill="none" stroke="#000" stroke-width="1" points="762 473 762 478" opacity="1"/><text x="847" y="483" fill="#000" dy=".76em" font-family="sans-serif" font-size="9.677" opacity="1" text-anchor="middle">0.9</text><polyline fill="none" stroke="#000" stroke-width="1" points="847 473 847 478" opacity="1"/><text x="933" y="483" fill="#000" dy=".76em" font-family="sans-serif" font-size="9.677" opacity="1" text-anchor="middle">1</text><polyline fill="none" stroke="#000" stroke-width="1" points="933 473 933 478" opacity="1"/><circle cx="87" cy="472" r="3" fill="#1F78B4" stroke="none" opacity="1"/><circle cx="95" cy="467" r="3" fill="#1F78B4" stroke="none" opacity="1"/><circle cx="104" cy="463" r="3" fill="#1F78B4" stroke="none" opacity="1"/><circle cx="112" cy="458" r="3" fill="#1F78B4" stroke="none" opacity="1"/><circle cx="121" cy="454" r="3" fill="#1F78B4" stroke="none" opacity="1"/><circle cx="129" cy="450" r="3" fill="#1F78B4" stroke="none" opacity="1"/><circle cx="138" cy="446" r="3" fill="#1F78B4" stroke="none" opacity="1"/><circle cx="146" cy="441" r="3" fill="#1F78B4" stroke="none" opacity="1"/><circle cx="155" cy="438" r="3" fill="#1F78B4" stroke="none" opacity="1"/><circle cx="163" cy="433" r="3" fill="#1F78B4" stroke="none" opacity="1"/><circle cx="172" cy="429" r="3" fill="#1F78B4" stroke="none" opacity="1"/><circle cx="181" cy="423" r="3" fill="#1F78B4" stroke="none" opacity="1"/><circle cx="189" cy="419" r="3" fill="#1F78B4" stroke="none" opacity="1"/><circle cx="198" cy="415" r="3" fill="#1F78B4" stroke="none" opacity="1"/><circle cx="206" cy="411" r="3" fill="#1F78B4" stroke="none" opacity="1"/><circle cx="215" cy="407" r="3" fill="#1F78B4" stroke="none" opacity="1"/><circle cx="223" cy="401" r="3" fill="#1F78B4" stroke="none" opacity="1"/><circle cx="232" cy="399" r="3" fill="#1F78B4" stroke="none" opacity="1"/><circle cx="240" cy="394" r="3" fill="#1F78B4" stroke="none" opacity="1"/><circle cx="249" cy="390" r="3" fill="#1F78B4" stroke="none" opacity="1"/><circle cx="257" cy="386" r="3" fill="#1F78B4" stroke="none" opacity="1"/><circle cx="266" cy="383" r="3" fill="#1F78B4" stroke="none" opacity="1"/><circle cx="275" cy="378" r="3" fill="#1F78B4" stroke="none" opacity="1"/><circle cx="283" cy="373" r="3" fill="#1F78B4" stroke="none" opacity="1"/><circle cx="292" cy="370" r="3" fill="#1F78B4" stroke="none" opacity="1"/><circle cx="300" cy="367" r="3" fill="#1F78B4" stroke="none" opacity="1"/><circle cx="309" cy="363" r="3" fill="#1F78B4" stroke="none" opacity="1"/><circle cx="317" cy="354" r="3" fill="#1F78B4" stroke="none" opacity="1"/><circle cx="326" cy="352" r="3" fill="#1F78B4" stroke="none" opacity="1"/><circle cx="334" cy="346" r="3" fill="#1F78B4" stroke="none" opacity="1"/><circle cx="343" cy="343" r="3" fill="#1F78B4" stroke="none" opacity="1"/><circle cx="351" cy="341" r="3" fill="#1F78B4" stroke="none" opacity="1"/><circle cx="360" cy="334" r="3" fill="#1F78B4" stroke="none" opacity="1"/><circle cx="369" cy="330" r="3" fill="#1F78B4" stroke="none" opacity="1"/><circle cx="377" cy="327" r="3" fill="#1F78B4" stroke="none" opacity="1"/><circle cx="386" cy="323" r="3" fill="#1F78B4" stroke="none" opacity="1"/><circle cx="394" cy="319" r="3" fill="#1F78B4" stroke="none" opacity="1"/><circle cx="403" cy="312" r="3" fill="#1F78B4" stroke="none" opacity="1"/><circle cx="411" cy="307" r="3" fill="#1F78B4" stroke="none" opacity="1"/><circle cx="420" cy="305" r="3" fill="#1F78B4" stroke="none" opacity="1"/><circle cx="428" cy="303" r="3" fill="#1F78B4" stroke="none" opacity="1"/><circle cx="437" cy="295" r="3" fill="#1F78B4" stroke="none" opacity="1"/><circle cx="445" cy="293" r="3" fill="#1F78B4" stroke="none" opacity="1"/><circle cx="454" cy="290" r="3" fill="#1F78B4" stroke="none" opacity="1"/><circle cx="463" cy="285" r="3" fill="#1F78B4" stroke="none" opacity="1"/><circle cx="471" cy="281" r="3" fill="#1F78B4" stroke="none" opacity="1"/><circle cx="480" cy="278" r="3" fill="#1F78B4" stroke="none" opacity="1"/><circle cx="488" cy="273" r="3" fill="#1F78B4" stroke="none" opacity="1"/><circle cx="497" cy="266" r="3" fill="#1F78B4" stroke="none" opacity="1"/><circle cx="505" cy="263" r="3" fill="#1F78B4" stroke="none" opacity="1"/><circle cx="514" cy="257" r="3" fill="#1F78B4" stroke="none" opacity="1"/><circle cx="522" cy="255" r="3" fill="#1F78B4" stroke="none" opacity="1"/><circle cx="531" cy="247" r="3" fill="#1F78B4" stroke="none" opacity="1"/><circle cx="539" cy="244" r="3" fill="#1F78B4" stroke="none" opacity="1"/><circle cx="548" cy="241" r="3" fill="#1F78B4" stroke="none" opacity="1"/><circle cx="557" cy="238" r="3" fill="#1F78B4" stroke="none" opacity="1"/><circle cx="565" cy="234" r="3" fill="#1F78B4" stroke="none" opacity="1"/><circle cx="574" cy="231" r="3" fill="#1F78B4" stroke="none" opacity="1"/><circle cx="582" cy="225" r="3" fill="#1F78B4" stroke="none" opacity="1"/><circle cx="591" cy="215" r="3" fill="#1F78B4" stroke="none" opacity="1"/><circle cx="599" cy="216" r="3" fill="#1F78B4" stroke="none" opacity="1"/><circle cx="608" cy="209" r="3" fill="#1F78B4" stroke="none" opacity="1"/><circle cx="616" cy="204" r="3" fill="#1F78B4" stroke="none" opacity="1"/><circle cx="625" cy="205" r="3" fill="#1F78B4" stroke="none" opacity="1"/><circle cx="633" cy="197" r="3" fill="#1F78B4" stroke="none" opacity="1"/><circle cx="642" cy="198" r="3" fill="#1F78B4" stroke="none" opacity="1"/><circle cx="651" cy="196" r="3" fill="#1F78B4" stroke="none" opacity="1"/><circle cx="659" cy="183" r="3" fill="#1F78B4" stroke="none" opacity="1"/><circle cx="668" cy="184" r="3" fill="#1F78B4" stroke="none" opacity="1"/><circle cx="676" cy="179" r="3" fill="#1F78B4" stroke="none" opacity="1"/><circle cx="685" cy="167" r="3" fill="#1F78B4" stroke="none" opacity="1"/><circle cx="693" cy="168" r="3" fill="#1F78B4" stroke="none" opacity="1"/><circle cx="702" cy="165" r="3" fill="#1F78B4" stroke="none" opacity="1"/><circle cx="710" cy="169" r="3" fill="#1F78B4" stroke="none" opacity="1"/><circle cx="719" cy="157" r="3" fill="#1F78B4" stroke="none" opacity="1"/><circle cx="727" cy="160" r="3" fill="#1F78B4" stroke="none" opacity="1"/><circle cx="736" cy="153" r="3" fill="#1F78B4" stroke="none" opacity="1"/><circle cx="745" cy="140" r="3" fill="#1F78B4" stroke="none" opacity="1"/><circle cx="753" cy="133" r="3" fill="#1F78B4" stroke="none" opacity="1"/><circle cx="762" cy="133" r="3" fill="#1F78B4" stroke="none" opacity="1"/><circle cx="770" cy="133" r="3" fill="#1F78B4" stroke="none" opacity="1"/><circle cx="779" cy="130" r="3" fill="#1F78B4" stroke="none" opacity="1"/><circle cx="787" cy="124" r="3" fill="#1F78B4" stroke="none" opacity="1"/><circle cx="796" cy="114" r="3" fill="#1F78B4" stroke="none" opacity="1"/><circle cx="804" cy="118" r="3" fill="#1F78B4" stroke="none" opacity="1"/><circle cx="813" cy="110" r="3" fill="#1F78B4" stroke="none" opacity="1"/><circle cx="821" cy="106" r="3" fill="#1F78B4" stroke="none" opacity="1"/><circle cx="830" cy="97" r="3" fill="#1F78B4" stroke="none" opacity="1"/><circle cx="839" cy="100" r="3" fill="#1F78B4" stroke="none" opacity="1"/><circle cx="847" cy="96" r="3" fill="#1F78B4" stroke="none" opacity="1"/><circle cx="856" cy="90" r="3" fill="#1F78B4" stroke="none" opacity="1"/><circle cx="864" cy="90" r="3" fill="#1F78B4" stroke="none" opacity="1"/><circle cx="873" cy="84" r="3" fill="#1F78B4" stroke="none" opacity="1"/><circle cx="881" cy="78" r="3" fill="#1F78B4" stroke="none" opacity="1"/><circle cx="890" cy="72" r="3" fill="#1F78B4" stroke="none" opacity="1"/><circle cx="898" cy="67" r="3" fill="#1F78B4" stroke="none" opacity="1"/><circle cx="907" cy="68" r="3" fill="#1F78B4" stroke="none" opacity="1"/><circle cx="915" cy="57" r="3" fill="#1F78B4" stroke="none" opacity="1"/><circle cx="924" cy="53" r="3" fill="#1F78B4" stroke="none" opacity="1"/><circle cx="933" cy="53" r="3" fill="#1F78B4" stroke="none" opacity="1"/><polyline fill="none" stroke="#1F78B4" stroke-width="1" points="87 473 933 53" opacity="1"/><polygon fill="#1F78B4" points="87 473 933 53 933 53" opacity=".25"/><text x="132" y="68" fill="#000" dy=".76em" font-family="sans-serif" font-size="9.677" opacity="1" text-anchor="start">Sample</text><text x="132" y="83" fill="#000" dy=".76em" font-family="sans-serif" font-size="9.677" opacity="1" text-anchor="start">Linear regression</text><text x="132" y="98" fill="#000" dy=".76em" font-family="sans-serif" font-size="9.677" opacity="1" text-anchor="start">Confidence interval</text><circle cx="112" cy="73" r="3" fill="#1F78B4" stroke="none" opacity="1"/><polyline fill="none" stroke="#1F78B4" stroke-width="2" points="102 88 122 88" opacity="1"/><rect width="20" height="10" x="102" y="98" fill="#1F78B4" stroke="none" opacity=".25"/></svg>