<svg xmlns="http://www.w3.org/2000/svg" width="450" height="300"><text x="15" y="130" fill="#000" dy=".76em" font-family="sans-serif" font-size="9.677" opacity="1" text-anchor="middle" transform="rotate(270, 15, 130)">Total sample time (ms)</text><text x="255" y="285" fill="#000" dy="-.5ex" font-family="sans-serif" font-size="9.677" opacity="1" text-anchor="middle">Iterations</text><line x1="107" x2="107" y1="244" y2="14" stroke="#000" stroke-width="1" opacity=".2"/><line x1="144" x2="144" y1="244" y2="14" stroke="#000" stroke-width="1" opacity=".2"/><line x1="180" x2="180" y1="244" y2="14" stroke="#000" stroke-width="1" opacity=".2"/><line x1="216" x2="216" y1="244" y2="14" stroke="#000" stroke-width="1" opacity=".2"/><line x1="253" x2="253" y1="244" y2="14" stroke="#000" stroke-width="1" opacity=".2"/><line x1="289" x2="289" y1="244" y2="14" stroke="#000" stroke-width="1" opacity=".2"/><line x1="325" x2="325" y1="244" y2="14" stroke="#000" stroke-width="1" opacity=".2"/><line x1="362" x2="362" y1="244" y2="14" stroke="#000" stroke-width="1" opacity=".2"/><line x1="398" x2="398" y1="244" y2="14" stroke="#000" stroke-width="1" opacity=".2"/><line x1="435" x2="435" y1="244" y2="14" stroke="#000" stroke-width="1" opacity=".2"/><line x1="75" x2="435" y1="205" y2="205" stroke="#000" stroke-width="1" opacity=".2"/><line x1="75" x2="435" y1="165" y2="165" stroke="#000" stroke-width="1" opacity=".2"/><line x1="75" x2="435" y1="124" y2="124" stroke="#000" stroke-width="1" opacity=".2"/><line x1="75" x2="435" y1="84" y2="84" stroke="#000" stroke-width="1" opacity=".2"/><line x1="75" x2="435" y1="43" y2="43" stroke="#000" stroke-width="1" opacity=".2"/><polyline fill="none" stroke="#000" stroke-width="1" points="74 15 74 245" opacity="1"/><text x="65" y="205" fill="#000" dy=".5ex" font-family="sans-serif" font-size="9.677" opacity="1" text-anchor="end">100.0</text><polyline fill="none" stroke="#000" stroke-width="1" points="69 205 74 205" opacity="1"/><text x="65" y="165" fill="#000" dy=".5ex" font-family="sans-serif" font-size="9.677" opacity="1" text-anchor="end">200.0</text><polyline fill="none" stroke="#000" stroke-width="1" points="69 165 74 165" opacity="1"/><text x="65" y="124" fill="#000" dy=".5ex" font-family="sans-serif" font-size="9.677" opacity="1" text-anchor="end">300.0</text><polyline fill="none" stroke="#000" stroke-width="1" points="69 124 74 124" opacity="1"/><text x="65" y="84" fill="#000" dy=".5ex" font-family="sans-serif" font-size="9.677" opacity="1" text-anchor="end">400.0</text><polyline fill="none" stroke="#000" stroke-width="1" points="69 84 74 84" opacity="1"/><text x="65" y="43" fill="#000" dy=".5ex" font-family="sans-serif" font-size="9.677" opacity="1" text-anchor="end">500.0</text><polyline fill="none" stroke="#000" stroke-width="1" points="69 43 74 43" opacity="1"/><polyline fill="none" stroke="#000" stroke-width="1" points="75 245 435 245" opacity="1"/><text x="107" y="255" fill="#000" dy=".76em" font-family="sans-serif" font-size="9.677" opacity="1" text-anchor="middle">10</text><polyline fill="none" stroke="#000" stroke-width="1" points="107 245 107 250" opacity="1"/><text x="144" y="255" fill="#000" dy=".76em" font-family="sans-serif" font-size="9.677" opacity="1" text-anchor="middle">20</text><polyline fill="none" stroke="#000" stroke-width="1" points="144 245 144 250" opacity="1"/><text x="180" y="255" fill="#000" dy=".76em" font-family="sans-serif" font-size="9.677" opacity="1" text-anchor="middle">30</text><polyline fill="none" stroke="#000" stroke-width="1" points="180 245 180 250" opacity="1"/><text x="216" y="255" fill="#000" dy=".76em" font-family="sans-serif" font-size="9.677" opacity="1" text-anchor="middle">40</text><polyline fill="none" stroke="#000" stroke-width="1" points="216 245 216 250" opacity="1"/><text x="253" y="255" fill="#000" dy=".76em" font-family="sans-serif" font-size="9.677" opacity="1" text-anchor="middle">50</text><polyline fill="none" stroke="#000" stroke-width="1" points="253 245 253 250" opacity="1"/><text x="289" y="255" fill="#000" dy=".76em" font-family="sans-serif" font-size="9.677" opacity="1" text-anchor="middle">60</text><polyline fill="none" stroke="#000" stroke-width="1" points="289 245 289 250" opacity="1"/><text x="325" y="255" fill="#000" dy=".76em" font-family="sans-serif" font-size="9.677" opacity="1" text-anchor="middle">70</text><polyline fill="none" stroke="#000" stroke-width="1" points="325 245 325 250" opacity="1"/><text x="362" y="255" fill="#000" dy=".76em" font-family="sans-serif" font-size="9.677" opacity="1" text-anchor="middle">80</text><polyline fill="none" stroke="#000" stroke-width="1" points="362 245 362 250" opacity="1"/><text x="398" y="255" fill="#000" dy=".76em" font-family="sans-serif" font-size="9.677" opacity="1" text-anchor="middle">90</text><polyline fill="none" stroke="#000" stroke-width="1" points="398 245 398 250" opacity="1"/><text x="435" y="255" fill="#000" dy=".76em" font-family="sans-serif" font-size="9.677" opacity="1" text-anchor="middle">100</text><polyline fill="none" stroke="#000" stroke-width="1" points="435 245 435 250" opacity="1"/><circle cx="75" cy="244" r="3" fill="#1F78B4" stroke="none" opacity="1"/><circle cx="78" cy="241" r="3" fill="#1F78B4" stroke="none" opacity="1"/><circle cx="82" cy="238" r="3" fill="#1F78B4" stroke="none" opacity="1"/><circle cx="85" cy="236" r="3" fill="#1F78B4" stroke="none" opacity="1"/><circle cx="89" cy="234" r="3" fill="#1F78B4" stroke="none" opacity="1"/><circle cx="93" cy="231" r="3" fill="#1F78B4" stroke="none" opacity="1"/><circle cx="96" cy="229" r="3" fill="#1F78B4" stroke="none" opacity="1"/><circle cx="100" cy="227" r="3" fill="#1F78B4" stroke="none" opacity="1"/><circle cx="104" cy="224" r="3" fill="#1F78B4" stroke="none" opacity="1"/><circle cx="107" cy="221" r="3" fill="#1F78B4" stroke="none" opacity="1"/><circle cx="111" cy="218" r="3" fill="#1F78B4" stroke="none" opacity="1"/><circle cx="115" cy="217" r="3" fill="#1F78B4" stroke="none" opacity="1"/><circle cx="118" cy="214" r="3" fill="#1F78B4" stroke="none" opacity="1"/><circle cx="122" cy="213" r="3" fill="#1F78B4" stroke="none" opacity="1"/><circle cx="125" cy="210" r="3" fill="#1F78B4" stroke="none" opacity="1"/><circle cx="129" cy="207" r="3" fill="#1F78B4" stroke="none" opacity="1"/><circle cx="133" cy="205" r="3" fill="#1F78B4" stroke="none" opacity="1"/><circle cx="136" cy="204" r="3" fill="#1F78B4" stroke="none" opacity="1"/><circle cx="140" cy="202" r="3" fill="#1F78B4" stroke="none" opacity="1"/><circle cx="144" cy="200" r="3" fill="#1F78B4" stroke="none" opacity="1"/><circle cx="147" cy="196" r="3" fill="#1F78B4" stroke="none" opacity="1"/><circle cx="151" cy="197" r="3" fill="#1F78B4" stroke="none" opacity="1"/><circle cx="155" cy="192" r="3" fill="#1F78B4" stroke="none" opacity="1"/><circle cx="158" cy="186" r="3" fill="#1F78B4" stroke="none" opacity="1"/><circle cx="162" cy="188" r="3" fill="#1F78B4" stroke="none" opacity="1"/><circle cx="165" cy="180" r="3" fill="#1F78B4" stroke="none" opacity="1"/><circle cx="169" cy="178" r="3" fill="#1F78B4" stroke="none" opacity="1"/><circle cx="173" cy="183" r="3" fill="#1F78B4" stroke="none" opacity="1"/><circle cx="176" cy="177" r="3" fill="#1F78B4" stroke="none" opacity="1"/><circle cx="180" cy="172" r="3" fill="#1F78B4" stroke="none" opacity="1"/><circle cx="184" cy="172" r="3" fill="#1F78B4" stroke="none" opacity="1"/><circle cx="187" cy="168" r="3" fill="#1F78B4" stroke="none" opacity="1"/><circle cx="191" cy="170" r="3" fill="#1F78B4" stroke="none" opacity="1"/><circle cx="195" cy="170" r="3" fill="#1F78B4" stroke="none" opacity="1"/><circle cx="198" cy="162" r="3" fill="#1F78B4" stroke="none" opacity="1"/><circle cx="202" cy="156" r="3" fill="#1F78B4" stroke="none" opacity="1"/><circle cx="205" cy="159" r="3" fill="#1F78B4" stroke="none" opacity="1"/><circle cx="209" cy="153" r="3" fill="#1F78B4" stroke="none" opacity="1"/><circle cx="213" cy="148" r="3" fill="#1F78B4" stroke="none" opacity="1"/><circle cx="216" cy="157" r="3" fill="#1F78B4" stroke="none" opacity="1"/><circle cx="220" cy="154" r="3" fill="#1F78B4" stroke="none" opacity="1"/><circle cx="224" cy="146" r="3" fill="#1F78B4" stroke="none" opacity="1"/><circle cx="227" cy="150" r="3" fill="#1F78B4" stroke="none" opacity="1"/><circle cx="231" cy="142" r="3" fill="#1F78B4" stroke="none" opacity="1"/><circle cx="235" cy="136" r="3" fill="#1F78B4" stroke="none" opacity="1"/><circle cx="238" cy="133" r="3" fill="#1F78B4" stroke="none" opacity="1"/><circle cx="242" cy="135" r="3" fill="#1F78B4" stroke="none" opacity="1"/><circle cx="245" cy="132" r="3" fill="#1F78B4" stroke="none" opacity="1"/><circle cx="249" cy="133" r="3" fill="#1F78B4" stroke="none" opacity="1"/><circle cx="253" cy="128" r="3" fill="#1F78B4" stroke="none" opacity="1"/><circle cx="256" cy="128" r="3" fill="#1F78B4" stroke="none" opacity="1"/><circle cx="260" cy="123" r="3" fill="#1F78B4" stroke="none" opacity="1"/><circle cx="264" cy="116" r="3" fill="#1F78B4" stroke="none" opacity="1"/><circle cx="267" cy="121" r="3" fill="#1F78B4" stroke="none" opacity="1"/><circle cx="271" cy="113" r="3" fill="#1F78B4" stroke="none" opacity="1"/><circle cx="275" cy="112" r="3" fill="#1F78B4" stroke="none" opacity="1"/><circle cx="278" cy="106" r="3" fill="#1F78B4" stroke="none" opacity="1"/><circle cx="282" cy="108" r="3" fill="#1F78B4" stroke="none" opacity="1"/><circle cx="285" cy="104" r="3" fill="#1F78B4" stroke="none" opacity="1"/><circle cx="289" cy="112" r="3" fill="#1F78B4" stroke="none" opacity="1"/><circle cx="293" cy="101" r="3" fill="#1F78B4" stroke="none" opacity="1"/><circle cx="296" cy="95" r="3" fill="#1F78B4" stroke="none" opacity="1"/><circle cx="300" cy="101" r="3" fill="#1F78B4" stroke="none" opacity="1"/><circle cx="304" cy="99" r="3" fill="#1F78B4" stroke="none" opacity="1"/><circle cx="307" cy="85" r="3" fill="#1F78B4" stroke="none" opacity="1"/><circle cx="311" cy="85" r="3" fill="#1F78B4" stroke="none" opacity="1"/><circle cx="315" cy="88" r="3" fill="#1F78B4" stroke="none" opacity="1"/><circle cx="318" cy="87" r="3" fill="#1F78B4" stroke="none" opacity="1"/><circle cx="322" cy="92" r="3" fill="#1F78B4" stroke="none" opacity="1"/><circle cx="325" cy="77" r="3" fill="#1F78B4" stroke="none" opacity="1"/><circle cx="329" cy="73" r="3" fill="#1F78B4" stroke="none" opacity="1"/><circle cx="333" cy="81" r="3" fill="#1F78B4" stroke="none" opacity="1"/><circle cx="336" cy="79" r="3" fill="#1F78B4" stroke="none" opacity="1"/><circle cx="340" cy="66" r="3" fill="#1F78B4" stroke="none" opacity="1"/><circle cx="344" cy="74" r="3" fill="#1F78B4" stroke="none" opacity="1"/><circle cx="347" cy="70" r="3" fill="#1F78B4" stroke="none" opacity="1"/><circle cx="351" cy="75" r="3" fill="#1F78B4" stroke="none" opacity="1"/><circle cx="355" cy="55" r="3" fill="#1F78B4" stroke="none" opacity="1"/><circle cx="358" cy="57" r="3" fill="#1F78B4" stroke="none" opacity="1"/><circle cx="362" cy="54" r="3" fill="#1F78B4" stroke="none" opacity="1"/><circle cx="365" cy="55" r="3" fill="#1F78B4" stroke="none" opacity="1"/><circle cx="369" cy="52" r="3" fill="#1F78B4" stroke="none" opacity="1"/><circle cx="373" cy="49" r="3" fill="#1F78B4" stroke="none" opacity="1"/><circle cx="376" cy="42" r="3" fill="#1F78B4" stroke="none" opacity="1"/><circle cx="380" cy="49" r="3" fill="#1F78B4" stroke="none" opacity="1"/><circle cx="384" cy="49" r="3" fill="#1F78B4" stroke="none" opacity="1"/><circle cx="387" cy="45" r="3" fill="#1F78B4" stroke="none" opacity="1"/><circle cx="391" cy="43" r="3" fill="#1F78B4" stroke="none" opacity="1"/><circle cx="395" cy="40" r="3" fill="#1F78B4" stroke="none" opacity="1"/><circle cx="398" cy="33" r="3" fill="#1F78B4" stroke="none" opacity="1"/><circle cx="402" cy="38" r="3" fill="#1F78B4" stroke="none" opacity="1"/><circle cx="405" cy="41" r="3" fill="#1F78B4" stroke="none" opacity="1"/><circle cx="409" cy="26" r="3" fill="#1F78B4" stroke="none" opacity="1"/><circle cx="413" cy="24" r="3" fill="#1F78B4" stroke="none" opacity="1"/><circle cx="416" cy="18" r="3" fill="#1F78B4" stroke="none" opacity="1"/><circle cx="420" cy="15" r="3" fill="#1F78B4" stroke="none" opacity="1"/><circle cx="424" cy="31" r="3" fill="#1F78B4" stroke="none" opacity="1"/><circle cx="427" cy="19" r="3" fill="#1F78B4" stroke="none" opacity="1"/><circle cx="431" cy="18" r="3" fill="#1F78B4" stroke="none" opacity="1"/><circle cx="435" cy="22" r="3" fill="#1F78B4" stroke="none" opacity="1"/><polyline fill="none" stroke="#1F78B4" stroke-width="1" points="75 245 435 15" opacity="1"/><polygon fill="#1F78B4" points="75 245 435 15 435 15" opacity=".25"/></svg>