<svg xmlns="http://www.w3.org/2000/svg" width="960" height="540"><text x="480" y="32" fill="#000" dy=".76em" font-family="sans-serif" font-size="16.129" opacity="1" text-anchor="middle">bench_group/threads_32/67108864</text><text x="27" y="263" fill="#000" dy=".76em" font-family="sans-serif" font-size="9.677" opacity="1" text-anchor="middle" transform="rotate(270, 27, 263)">Total sample time (ms)</text><text x="510" y="513" fill="#000" dy="-.5ex" font-family="sans-serif" font-size="9.677" opacity="1" text-anchor="middle">Iterations</text><line x1="163" x2="163" y1="472" y2="52" stroke="#000" stroke-width="1" opacity=".2"/><line x1="249" x2="249" y1="472" y2="52" stroke="#000" stroke-width="1" opacity=".2"/><line x1="334" x2="334" y1="472" y2="52" stroke="#000" stroke-width="1" opacity=".2"/><line x1="420" x2="420" y1="472" y2="52" stroke="#000" stroke-width="1" opacity=".2"/><line x1="505" x2="505" y1="472" y2="52" stroke="#000" stroke-width="1" opacity=".2"/><line x1="591" x2="591" y1="472" y2="52" stroke="#000" stroke-width="1" opacity=".2"/><line x1="676" x2="676" y1="472" y2="52" stroke="#000" stroke-width="1" opacity=".2"/><line x1="762" x2="762" y1="472" y2="52" stroke="#000" stroke-width="1" opacity=".2"/><line x1="847" x2="847" y1="472" y2="52" stroke="#000" stroke-width="1" opacity=".2"/><line x1="933" x2="933" y1="472" y2="52" stroke="#000" stroke-width="1" opacity=".2"/><line x1="87" x2="933" y1="401" y2="401" stroke="#000" stroke-width="1" opacity=".2"/><line x1="87" x2="933" y1="325" y2="325" stroke="#000" stroke-width="1" opacity=".2"/><line x1="87" x2="933" y1="249" y2="249" stroke="#000" stroke-width="1" opacity=".2"/><line x1="87" x2="933" y1="173" y2="173" stroke="#000" stroke-width="1" opacity=".2"/><line x1="87" x2="933" y1="98" y2="98" stroke="#000" stroke-width="1" opacity=".2"/><polyline fill="none" stroke="#000" stroke-width="1" points="86 53 86 473" opacity="1"/><text x="77" y="401" fill="#000" dy=".5ex" font-family="sans-serif" font-size="9.677" opacity="1" text-anchor="end">20.0</text><polyline fill="none" stroke="#000" stroke-width="1" points="81 401 86 401" opacity="1"/><text x="77" y="325" fill="#000" dy=".5ex" font-family="sans-serif" font-size="9.677" opacity="1" text-anchor="end">40.0</text><polyline fill="none" stroke="#000" stroke-width="1" points="81 325 86 325" opacity="1"/><text x="77" y="249" fill="#000" dy=".5ex" font-family="sans-serif" font-size="9.677" opacity="1" text-anchor="end">60.0</text><polyline fill="none" stroke="#000" stroke-width="1" points="81 249 86 249" opacity="1"/><text x="77" y="173" fill="#000" dy=".5ex" font-family="sans-serif" font-size="9.677" opacity="1" text-anchor="end">80.0</text><polyline fill="none" stroke="#000" stroke-width="1" points="81 173 86 173" opacity="1"/><text x="77" y="98" fill="#000" dy=".5ex" font-family="sans-serif" font-size="9.677" opacity="1" text-anchor="end">100.0</text><polyline fill="none" stroke="#000" stroke-width="1" points="81 98 86 98" opacity="1"/><polyline fill="none" stroke="#000" stroke-width="1" points="87 473 933 473" opacity="1"/><text x="163" y="483" fill="#000" dy=".76em" font-family="sans-serif" font-size="9.677" opacity="1" text-anchor="middle">20</text><polyline fill="none" stroke="#000" stroke-width="1" points="163 473 163 478" opacity="1"/><text x="249" y="483" fill="#000" dy=".76em" font-family="sans-serif" font-size="9.677" opacity="1" text-anchor="middle">40</text><polyline fill="none" stroke="#000" stroke-width="1" points="249 473 249 478" opacity="1"/><text x="334" y="483" fill="#000" dy=".76em" font-family="sans-serif" font-size="9.677" opacity="1" text-anchor="middle">60</text><polyline fill="none" stroke="#000" stroke-width="1" points="334 473 334 478" opacity="1"/><text x="420" y="483" fill="#000" dy=".76em" font-family="sans-serif" font-size="9.677" opacity="1" text-anchor="middle">80</text><polyline fill="none" stroke="#000" stroke-width="1" points="420 473 420 478" opacity="1"/><text x="505" y="483" fill="#000" dy=".76em" font-family="sans-serif" font-size="9.677" opacity="1" text-anchor="middle">100</text><polyline fill="none" stroke="#000" stroke-width="1" points="505 473 505 478" opacity="1"/><text x="591" y="483" fill="#000" dy=".76em" font-family="sans-serif" font-size="9.677" opacity="1" text-anchor="middle">120</text><polyline fill="none" stroke="#000" stroke-width="1" points="591 473 591 478" opacity="1"/><text x="676" y="483" fill="#000" dy=".76em" font-family="sans-serif" font-size="9.677" opacity="1" text-anchor="middle">140</text><polyline fill="none" stroke="#000" stroke-width="1" points="676 473 676 478" opacity="1"/><text x="762" y="483" fill="#000" dy=".76em" font-family="sans-serif" font-size="9.677" opacity="1" text-anchor="middle">160</text><polyline fill="none" stroke="#000" stroke-width="1" points="762 473 762 478" opacity="1"/><text x="847" y="483" fill="#000" dy=".76em" font-family="sans-serif" font-size="9.677" opacity="1" text-anchor="middle">180</text><polyline fill="none" stroke="#000" stroke-width="1" points="847 473 847 478" opacity="1"/><text x="933" y="483" fill="#000" dy=".76em" font-family="sans-serif" font-size="9.677" opacity="1" text-anchor="middle">200</text><polyline fill="none" stroke="#000" stroke-width="1" points="933 473 933 478" opacity="1"/><circle cx="87" cy="472" r="3" fill="#1F78B4" stroke="none" opacity="1"/><circle cx="95" cy="467" r="3" fill="#1F78B4" stroke="none" opacity="1"/><circle cx="104" cy="463" r="3" fill="#1F78B4" stroke="none" opacity="1"/><circle cx="112" cy="458" r="3" fill="#1F78B4" stroke="none" opacity="1"/><circle cx="121" cy="454" r="3" fill="#1F78B4" stroke="none" opacity="1"/><circle cx="129" cy="451" r="3" fill="#1F78B4" stroke="none" opacity="1"/><circle cx="138" cy="446" r="3" fill="#1F78B4" stroke="none" opacity="1"/><circle cx="146" cy="442" r="3" fill="#1F78B4" stroke="none" opacity="1"/><circle cx="155" cy="438" r="3" fill="#1F78B4" stroke="none" opacity="1"/><circle cx="163" cy="433" r="3" fill="#1F78B4" stroke="none" opacity="1"/><circle cx="172" cy="428" r="3" fill="#1F78B4" stroke="none" opacity="1"/><circle cx="181" cy="425" r="3" fill="#1F78B4" stroke="none" opacity="1"/><circle cx="189" cy="420" r="3" fill="#1F78B4" stroke="none" opacity="1"/><circle cx="198" cy="416" r="3" fill="#1F78B4" stroke="none" opacity="1"/><circle cx="206" cy="415" r="3" fill="#1F78B4" stroke="none" opacity="1"/><circle cx="215" cy="408" r="3" fill="#1F78B4" stroke="none" opacity="1"/><circle cx="223" cy="405" r="3" fill="#1F78B4" stroke="none" opacity="1"/><circle cx="232" cy="400" r="3" fill="#1F78B4" stroke="none" opacity="1"/><circle cx="240" cy="398" r="3" fill="#1F78B4" stroke="none" opacity="1"/><circle cx="249" cy="391" r="3" fill="#1F78B4" stroke="none" opacity="1"/><circle cx="257" cy="387" r="3" fill="#1F78B4" stroke="none" opacity="1"/><circle cx="266" cy="383" r="3" fill="#1F78B4" stroke="none" opacity="1"/><circle cx="275" cy="380" r="3" fill="#1F78B4" stroke="none" opacity="1"/><circle cx="283" cy="376" r="3" fill="#1F78B4" stroke="none" opacity="1"/><circle cx="292" cy="373" r="3" fill="#1F78B4" stroke="none" opacity="1"/><circle cx="300" cy="365" r="3" fill="#1F78B4" stroke="none" opacity="1"/><circle cx="309" cy="366" r="3" fill="#1F78B4" stroke="none" opacity="1"/><circle cx="317" cy="360" r="3" fill="#1F78B4" stroke="none" opacity="1"/><circle cx="326" cy="355" r="3" fill="#1F78B4" stroke="none" opacity="1"/><circle cx="334" cy="354" r="3" fill="#1F78B4" stroke="none" opacity="1"/><circle cx="343" cy="351" r="3" fill="#1F78B4" stroke="none" opacity="1"/><circle cx="351" cy="343" r="3" fill="#1F78B4" stroke="none" opacity="1"/><circle cx="360" cy="335" r="3" fill="#1F78B4" stroke="none" opacity="1"/><circle cx="369" cy="340" r="3" fill="#1F78B4" stroke="none" opacity="1"/><circle cx="377" cy="328" r="3" fill="#1F78B4" stroke="none" opacity="1"/><circle cx="386" cy="329" r="3" fill="#1F78B4" stroke="none" opacity="1"/><circle cx="394" cy="321" r="3" fill="#1F78B4" stroke="none" opacity="1"/><circle cx="403" cy="320" r="3" fill="#1F78B4" stroke="none" opacity="1"/><circle cx="411" cy="318" r="3" fill="#1F78B4" stroke="none" opacity="1"/><circle cx="420" cy="309" r="3" fill="#1F78B4" stroke="none" opacity="1"/><circle cx="428" cy="309" r="3" fill="#1F78B4" stroke="none" opacity="1"/><circle cx="437" cy="296" r="3" fill="#1F78B4" stroke="none" opacity="1"/><circle cx="445" cy="301" r="3" fill="#1F78B4" stroke="none" opacity="1"/><circle cx="454" cy="298" r="3" fill="#1F78B4" stroke="none" opacity="1"/><circle cx="463" cy="290" r="3" fill="#1F78B4" stroke="none" opacity="1"/><circle cx="471" cy="284" r="3" fill="#1F78B4" stroke="none" opacity="1"/><circle cx="480" cy="281" r="3" fill="#1F78B4" stroke="none" opacity="1"/><circle cx="488" cy="277" r="3" fill="#1F78B4" stroke="none" opacity="1"/><circle cx="497" cy="277" r="3" fill="#1F78B4" stroke="none" opacity="1"/><circle cx="505" cy="273" r="3" fill="#1F78B4" stroke="none" opacity="1"/><circle cx="514" cy="265" r="3" fill="#1F78B4" stroke="none" opacity="1"/><circle cx="522" cy="265" r="3" fill="#1F78B4" stroke="none" opacity="1"/><circle cx="531" cy="249" r="3" fill="#1F78B4" stroke="none" opacity="1"/><circle cx="539" cy="246" r="3" fill="#1F78B4" stroke="none" opacity="1"/><circle cx="548" cy="253" r="3" fill="#1F78B4" stroke="none" opacity="1"/><circle cx="557" cy="243" r="3" fill="#1F78B4" stroke="none" opacity="1"/><circle cx="565" cy="245" r="3" fill="#1F78B4" stroke="none" opacity="1"/><circle cx="574" cy="234" r="3" fill="#1F78B4" stroke="none" opacity="1"/><circle cx="582" cy="229" r="3" fill="#1F78B4" stroke="none" opacity="1"/><circle cx="591" cy="231" r="3" fill="#1F78B4" stroke="none" opacity="1"/><circle cx="599" cy="228" r="3" fill="#1F78B4" stroke="none" opacity="1"/><circle cx="608" cy="212" r="3" fill="#1F78B4" stroke="none" opacity="1"/><circle cx="616" cy="214" r="3" fill="#1F78B4" stroke="none" opacity="1"/><circle cx="625" cy="222" r="3" fill="#1F78B4" stroke="none" opacity="1"/><circle cx="633" cy="212" r="3" fill="#1F78B4" stroke="none" opacity="1"/><circle cx="642" cy="196" r="3" fill="#1F78B4" stroke="none" opacity="1"/><circle cx="651" cy="209" r="3" fill="#1F78B4" stroke="none" opacity="1"/><circle cx="659" cy="192" r="3" fill="#1F78B4" stroke="none" opacity="1"/><circle cx="668" cy="188" r="3" fill="#1F78B4" stroke="none" opacity="1"/><circle cx="676" cy="191" r="3" fill="#1F78B4" stroke="none" opacity="1"/><circle cx="685" cy="187" r="3" fill="#1F78B4" stroke="none" opacity="1"/><circle cx="693" cy="185" r="3" fill="#1F78B4" stroke="none" opacity="1"/><circle cx="702" cy="166" r="3" fill="#1F78B4" stroke="none" opacity="1"/><circle cx="710" cy="166" r="3" fill="#1F78B4" stroke="none" opacity="1"/><circle cx="719" cy="164" r="3" fill="#1F78B4" stroke="none" opacity="1"/><circle cx="727" cy="161" r="3" fill="#1F78B4" stroke="none" opacity="1"/><circle cx="736" cy="149" r="3" fill="#1F78B4" stroke="none" opacity="1"/><circle cx="745" cy="168" r="3" fill="#1F78B4" stroke="none" opacity="1"/><circle cx="753" cy="141" r="3" fill="#1F78B4" stroke="none" opacity="1"/><circle cx="762" cy="143" r="3" fill="#1F78B4" stroke="none" opacity="1"/><circle cx="770" cy="147" r="3" fill="#1F78B4" stroke="none" opacity="1"/><circle cx="779" cy="151" r="3" fill="#1F78B4" stroke="none" opacity="1"/><circle cx="787" cy="132" r="3" fill="#1F78B4" stroke="none" opacity="1"/><circle cx="796" cy="129" r="3" fill="#1F78B4" stroke="none" opacity="1"/><circle cx="804" cy="123" r="3" fill="#1F78B4" stroke="none" opacity="1"/><circle cx="813" cy="118" r="3" fill="#1F78B4" stroke="none" opacity="1"/><circle cx="821" cy="124" r="3" fill="#1F78B4" stroke="none" opacity="1"/><circle cx="830" cy="120" r="3" fill="#1F78B4" stroke="none" opacity="1"/><circle cx="839" cy="117" r="3" fill="#1F78B4" stroke="none" opacity="1"/><circle cx="847" cy="94" r="3" fill="#1F78B4" stroke="none" opacity="1"/><circle cx="856" cy="99" r="3" fill="#1F78B4" stroke="none" opacity="1"/><circle cx="864" cy="93" r="3" fill="#1F78B4" stroke="none" opacity="1"/><circle cx="873" cy="89" r="3" fill="#1F78B4" stroke="none" opacity="1"/><circle cx="881" cy="76" r="3" fill="#1F78B4" stroke="none" opacity="1"/><circle cx="890" cy="71" r="3" fill="#1F78B4" stroke="none" opacity="1"/><circle cx="898" cy="70" r="3" fill="#1F78B4" stroke="none" opacity="1"/><circle cx="907" cy="73" r="3" fill="#1F78B4" stroke="none" opacity="1"/><circle cx="915" cy="79" r="3" fill="#1F78B4" stroke="none" opacity="1"/><circle cx="924" cy="55" r="3" fill="#1F78B4" stroke="none" opacity="1"/><circle cx="933" cy="53" r="3" fill="#1F78B4" stroke="none" opacity="1"/><polyline fill="none" stroke="#1F78B4" stroke-width="1" points="87 473 933 61" opacity="1"/><polygon fill="#1F78B4" points="87 473 933 64 933 59" opacity=".25"/><text x="132" y="68" fill="#000" dy=".76em" font-family="sans-serif" font-size="9.677" opacity="1" text-anchor="start">Sample</text><text x="132" y="83" fill="#000" dy=".76em" font-family="sans-serif" font-size="9.677" opacity="1" text-anchor="start">Linear regression</text><text x="132" y="98" fill="#000" dy=".76em" font-family="sans-serif" font-size="9.677" opacity="1" text-anchor="start">Confidence interval</text><circle cx="112" cy="73" r="3" fill="#1F78B4" stroke="none" opacity="1"/><polyline fill="none" stroke="#1F78B4" stroke-width="2" points="102 88 122 88" opacity="1"/><rect width="20" height="10" x="102" y="98" fill="#1F78B4" stroke="none" opacity=".25"/></svg>