<svg xmlns="http://www.w3.org/2000/svg" width="960" height="540"><text x="480" y="32" fill="#000" dy=".76em" font-family="sans-serif" font-size="16.129" opacity="1" text-anchor="middle">bench_group/threads_08/4194304</text><text x="27" y="263" fill="#000" dy=".76em" font-family="sans-serif" font-size="9.677" opacity="1" text-anchor="middle" transform="rotate(270, 27, 263)">Total sample time (ms)</text><text x="510" y="513" fill="#000" dy="-.5ex" font-family="sans-serif" font-size="9.677" opacity="1" text-anchor="middle">Iterations (x 10^3)</text><line x1="233" x2="233" y1="472" y2="52" stroke="#000" stroke-width="1" opacity=".2"/><line x1="389" x2="389" y1="472" y2="52" stroke="#000" stroke-width="1" opacity=".2"/><line x1="544" x2="544" y1="472" y2="52" stroke="#000" stroke-width="1" opacity=".2"/><line x1="699" x2="699" y1="472" y2="52" stroke="#000" stroke-width="1" opacity=".2"/><line x1="855" x2="855" y1="472" y2="52" stroke="#000" stroke-width="1" opacity=".2"/><line x1="87" x2="933" y1="397" y2="397" stroke="#000" stroke-width="1" opacity=".2"/><line x1="87" x2="933" y1="318" y2="318" stroke="#000" stroke-width="1" opacity=".2"/><line x1="87" x2="933" y1="239" y2="239" stroke="#000" stroke-width="1" opacity=".2"/><line x1="87" x2="933" y1="160" y2="160" stroke="#000" stroke-width="1" opacity=".2"/><line x1="87" x2="933" y1="81" y2="81" stroke="#000" stroke-width="1" opacity=".2"/><polyline fill="none" stroke="#000" stroke-width="1" points="86 53 86 473" opacity="1"/><text x="77" y="397" fill="#000" dy=".5ex" font-family="sans-serif" font-size="9.677" opacity="1" text-anchor="end">20.0</text><polyline fill="none" stroke="#000" stroke-width="1" points="81 397 86 397" opacity="1"/><text x="77" y="318" fill="#000" dy=".5ex" font-family="sans-serif" font-size="9.677" opacity="1" text-anchor="end">40.0</text><polyline fill="none" stroke="#000" stroke-width="1" points="81 318 86 318" opacity="1"/><text x="77" y="239" fill="#000" dy=".5ex" font-family="sans-serif" font-size="9.677" opacity="1" text-anchor="end">60.0</text><polyline fill="none" stroke="#000" stroke-width="1" points="81 239 86 239" opacity="1"/><text x="77" y="160" fill="#000" dy=".5ex" font-family="sans-serif" font-size="9.677" opacity="1" text-anchor="end">80.0</text><polyline fill="none" stroke="#000" stroke-width="1" points="81 160 86 160" opacity="1"/><text x="77" y="81" fill="#000" dy=".5ex" font-family="sans-serif" font-size="9.677" opacity="1" text-anchor="end">100.0</text><polyline fill="none" stroke="#000" stroke-width="1" points="81 81 86 81" opacity="1"/><polyline fill="none" stroke="#000" stroke-width="1" points="87 473 933 473" opacity="1"/><text x="233" y="483" fill="#000" dy=".76em" font-family="sans-serif" font-size="9.677" opacity="1" text-anchor="middle">0.2</text><polyline fill="none" stroke="#000" stroke-width="1" points="233 473 233 478" opacity="1"/><text x="389" y="483" fill="#000" dy=".76em" font-family="sans-serif" font-size="9.677" opacity="1" text-anchor="middle">0.4</text><polyline fill="none" stroke="#000" stroke-width="1" points="389 473 389 478" opacity="1"/><text x="544" y="483" fill="#000" dy=".76em" font-family="sans-serif" font-size="9.677" opacity="1" text-anchor="middle">0.6</text><polyline fill="none" stroke="#000" stroke-width="1" points="544 473 544 478" opacity="1"/><text x="699" y="483" fill="#000" dy=".76em" font-family="sans-serif" font-size="9.677" opacity="1" text-anchor="middle">0.8</text><polyline fill="none" stroke="#000" stroke-width="1" points="699 473 699 478" opacity="1"/><text x="855" y="483" fill="#000" dy=".76em" font-family="sans-serif" font-size="9.677" opacity="1" text-anchor="middle">1</text><polyline fill="none" stroke="#000" stroke-width="1" points="855 473 855 478" opacity="1"/><circle cx="87" cy="472" r="3" fill="#1F78B4" stroke="none" opacity="1"/><circle cx="95" cy="468" r="3" fill="#1F78B4" stroke="none" opacity="1"/><circle cx="104" cy="464" r="3" fill="#1F78B4" stroke="none" opacity="1"/><circle cx="112" cy="459" r="3" fill="#1F78B4" stroke="none" opacity="1"/><circle cx="121" cy="455" r="3" fill="#1F78B4" stroke="none" opacity="1"/><circle cx="129" cy="451" r="3" fill="#1F78B4" stroke="none" opacity="1"/><circle cx="138" cy="447" r="3" fill="#1F78B4" stroke="none" opacity="1"/><circle cx="146" cy="443" r="3" fill="#1F78B4" stroke="none" opacity="1"/><circle cx="155" cy="439" r="3" fill="#1F78B4" stroke="none" opacity="1"/><circle cx="163" cy="435" r="3" fill="#1F78B4" stroke="none" opacity="1"/><circle cx="172" cy="431" r="3" fill="#1F78B4" stroke="none" opacity="1"/><circle cx="181" cy="427" r="3" fill="#1F78B4" stroke="none" opacity="1"/><circle cx="189" cy="423" r="3" fill="#1F78B4" stroke="none" opacity="1"/><circle cx="198" cy="419" r="3" fill="#1F78B4" stroke="none" opacity="1"/><circle cx="206" cy="415" r="3" fill="#1F78B4" stroke="none" opacity="1"/><circle cx="215" cy="411" r="3" fill="#1F78B4" stroke="none" opacity="1"/><circle cx="223" cy="406" r="3" fill="#1F78B4" stroke="none" opacity="1"/><circle cx="232" cy="402" r="3" fill="#1F78B4" stroke="none" opacity="1"/><circle cx="240" cy="398" r="3" fill="#1F78B4" stroke="none" opacity="1"/><circle cx="249" cy="394" r="3" fill="#1F78B4" stroke="none" opacity="1"/><circle cx="257" cy="390" r="3" fill="#1F78B4" stroke="none" opacity="1"/><circle cx="266" cy="386" r="3" fill="#1F78B4" stroke="none" opacity="1"/><circle cx="275" cy="382" r="3" fill="#1F78B4" stroke="none" opacity="1"/><circle cx="283" cy="378" r="3" fill="#1F78B4" stroke="none" opacity="1"/><circle cx="292" cy="374" r="3" fill="#1F78B4" stroke="none" opacity="1"/><circle cx="300" cy="369" r="3" fill="#1F78B4" stroke="none" opacity="1"/><circle cx="309" cy="366" r="3" fill="#1F78B4" stroke="none" opacity="1"/><circle cx="317" cy="361" r="3" fill="#1F78B4" stroke="none" opacity="1"/><circle cx="326" cy="358" r="3" fill="#1F78B4" stroke="none" opacity="1"/><circle cx="334" cy="353" r="3" fill="#1F78B4" stroke="none" opacity="1"/><circle cx="343" cy="350" r="3" fill="#1F78B4" stroke="none" opacity="1"/><circle cx="351" cy="341" r="3" fill="#1F78B4" stroke="none" opacity="1"/><circle cx="360" cy="341" r="3" fill="#1F78B4" stroke="none" opacity="1"/><circle cx="369" cy="337" r="3" fill="#1F78B4" stroke="none" opacity="1"/><circle cx="377" cy="333" r="3" fill="#1F78B4" stroke="none" opacity="1"/><circle cx="386" cy="329" r="3" fill="#1F78B4" stroke="none" opacity="1"/><circle cx="394" cy="324" r="3" fill="#1F78B4" stroke="none" opacity="1"/><circle cx="403" cy="320" r="3" fill="#1F78B4" stroke="none" opacity="1"/><circle cx="411" cy="316" r="3" fill="#1F78B4" stroke="none" opacity="1"/><circle cx="420" cy="312" r="3" fill="#1F78B4" stroke="none" opacity="1"/><circle cx="428" cy="308" r="3" fill="#1F78B4" stroke="none" opacity="1"/><circle cx="437" cy="304" r="3" fill="#1F78B4" stroke="none" opacity="1"/><circle cx="445" cy="300" r="3" fill="#1F78B4" stroke="none" opacity="1"/><circle cx="454" cy="296" r="3" fill="#1F78B4" stroke="none" opacity="1"/><circle cx="463" cy="292" r="3" fill="#1F78B4" stroke="none" opacity="1"/><circle cx="471" cy="282" r="3" fill="#1F78B4" stroke="none" opacity="1"/><circle cx="480" cy="284" r="3" fill="#1F78B4" stroke="none" opacity="1"/><circle cx="488" cy="280" r="3" fill="#1F78B4" stroke="none" opacity="1"/><circle cx="497" cy="276" r="3" fill="#1F78B4" stroke="none" opacity="1"/><circle cx="505" cy="271" r="3" fill="#1F78B4" stroke="none" opacity="1"/><circle cx="514" cy="267" r="3" fill="#1F78B4" stroke="none" opacity="1"/><circle cx="522" cy="264" r="3" fill="#1F78B4" stroke="none" opacity="1"/><circle cx="531" cy="259" r="3" fill="#1F78B4" stroke="none" opacity="1"/><circle cx="539" cy="255" r="3" fill="#1F78B4" stroke="none" opacity="1"/><circle cx="548" cy="251" r="3" fill="#1F78B4" stroke="none" opacity="1"/><circle cx="557" cy="247" r="3" fill="#1F78B4" stroke="none" opacity="1"/><circle cx="565" cy="243" r="3" fill="#1F78B4" stroke="none" opacity="1"/><circle cx="574" cy="239" r="3" fill="#1F78B4" stroke="none" opacity="1"/><circle cx="582" cy="235" r="3" fill="#1F78B4" stroke="none" opacity="1"/><circle cx="591" cy="231" r="3" fill="#1F78B4" stroke="none" opacity="1"/><circle cx="599" cy="227" r="3" fill="#1F78B4" stroke="none" opacity="1"/><circle cx="608" cy="223" r="3" fill="#1F78B4" stroke="none" opacity="1"/><circle cx="616" cy="219" r="3" fill="#1F78B4" stroke="none" opacity="1"/><circle cx="625" cy="214" r="3" fill="#1F78B4" stroke="none" opacity="1"/><circle cx="633" cy="211" r="3" fill="#1F78B4" stroke="none" opacity="1"/><circle cx="642" cy="198" r="3" fill="#1F78B4" stroke="none" opacity="1"/><circle cx="651" cy="202" r="3" fill="#1F78B4" stroke="none" opacity="1"/><circle cx="659" cy="198" r="3" fill="#1F78B4" stroke="none" opacity="1"/><circle cx="668" cy="194" r="3" fill="#1F78B4" stroke="none" opacity="1"/><circle cx="676" cy="190" r="3" fill="#1F78B4" stroke="none" opacity="1"/><circle cx="685" cy="186" r="3" fill="#1F78B4" stroke="none" opacity="1"/><circle cx="693" cy="182" r="3" fill="#1F78B4" stroke="none" opacity="1"/><circle cx="702" cy="178" r="3" fill="#1F78B4" stroke="none" opacity="1"/><circle cx="710" cy="164" r="3" fill="#1F78B4" stroke="none" opacity="1"/><circle cx="719" cy="170" r="3" fill="#1F78B4" stroke="none" opacity="1"/><circle cx="727" cy="166" r="3" fill="#1F78B4" stroke="none" opacity="1"/><circle cx="736" cy="161" r="3" fill="#1F78B4" stroke="none" opacity="1"/><circle cx="745" cy="157" r="3" fill="#1F78B4" stroke="none" opacity="1"/><circle cx="753" cy="153" r="3" fill="#1F78B4" stroke="none" opacity="1"/><circle cx="762" cy="149" r="3" fill="#1F78B4" stroke="none" opacity="1"/><circle cx="770" cy="136" r="3" fill="#1F78B4" stroke="none" opacity="1"/><circle cx="779" cy="141" r="3" fill="#1F78B4" stroke="none" opacity="1"/><circle cx="787" cy="137" r="3" fill="#1F78B4" stroke="none" opacity="1"/><circle cx="796" cy="133" r="3" fill="#1F78B4" stroke="none" opacity="1"/><circle cx="804" cy="129" r="3" fill="#1F78B4" stroke="none" opacity="1"/><circle cx="813" cy="124" r="3" fill="#1F78B4" stroke="none" opacity="1"/><circle cx="821" cy="120" r="3" fill="#1F78B4" stroke="none" opacity="1"/><circle cx="830" cy="117" r="3" fill="#1F78B4" stroke="none" opacity="1"/><circle cx="839" cy="113" r="3" fill="#1F78B4" stroke="none" opacity="1"/><circle cx="847" cy="109" r="3" fill="#1F78B4" stroke="none" opacity="1"/><circle cx="856" cy="103" r="3" fill="#1F78B4" stroke="none" opacity="1"/><circle cx="864" cy="100" r="3" fill="#1F78B4" stroke="none" opacity="1"/><circle cx="873" cy="96" r="3" fill="#1F78B4" stroke="none" opacity="1"/><circle cx="881" cy="80" r="3" fill="#1F78B4" stroke="none" opacity="1"/><circle cx="890" cy="88" r="3" fill="#1F78B4" stroke="none" opacity="1"/><circle cx="898" cy="84" r="3" fill="#1F78B4" stroke="none" opacity="1"/><circle cx="907" cy="80" r="3" fill="#1F78B4" stroke="none" opacity="1"/><circle cx="915" cy="76" r="3" fill="#1F78B4" stroke="none" opacity="1"/><circle cx="924" cy="72" r="3" fill="#1F78B4" stroke="none" opacity="1"/><circle cx="933" cy="53" r="3" fill="#1F78B4" stroke="none" opacity="1"/><polyline fill="none" stroke="#1F78B4" stroke-width="1" points="87 473 933 66" opacity="1"/><polygon fill="#1F78B4" points="87 473 933 67 933 64" opacity=".25"/><text x="132" y="68" fill="#000" dy=".76em" font-family="sans-serif" font-size="9.677" opacity="1" text-anchor="start">Sample</text><text x="132" y="83" fill="#000" dy=".76em" font-family="sans-serif" font-size="9.677" opacity="1" text-anchor="start">Linear regression</text><text x="132" y="98" fill="#000" dy=".76em" font-family="sans-serif" font-size="9.677" opacity="1" text-anchor="start">Confidence interval</text><circle cx="112" cy="73" r="3" fill="#1F78B4" stroke="none" opacity="1"/><polyline fill="none" stroke="#1F78B4" stroke-width="2" points="102 88 122 88" opacity="1"/><rect width="20" height="10" x="102" y="98" fill="#1F78B4" stroke="none" opacity=".25"/></svg>