<svg xmlns="http://www.w3.org/2000/svg" width="450" height="300"><text x="15" y="130" fill="#000" dy=".76em" font-family="sans-serif" font-size="9.677" opacity="1" text-anchor="middle" transform="rotate(270, 15, 130)">Total sample time (ms)</text><text x="255" y="285" fill="#000" dy="-.5ex" font-family="sans-serif" font-size="9.677" opacity="1" text-anchor="middle">Iterations (x 10^3)</text><line x1="109" x2="109" y1="244" y2="14" stroke="#000" stroke-width="1" opacity=".2"/><line x1="147" x2="147" y1="244" y2="14" stroke="#000" stroke-width="1" opacity=".2"/><line x1="186" x2="186" y1="244" y2="14" stroke="#000" stroke-width="1" opacity=".2"/><line x1="224" x2="224" y1="244" y2="14" stroke="#000" stroke-width="1" opacity=".2"/><line x1="262" x2="262" y1="244" y2="14" stroke="#000" stroke-width="1" opacity=".2"/><line x1="301" x2="301" y1="244" y2="14" stroke="#000" stroke-width="1" opacity=".2"/><line x1="339" x2="339" y1="244" y2="14" stroke="#000" stroke-width="1" opacity=".2"/><line x1="377" x2="377" y1="244" y2="14" stroke="#000" stroke-width="1" opacity=".2"/><line x1="415" x2="415" y1="244" y2="14" stroke="#000" stroke-width="1" opacity=".2"/><line x1="75" x2="435" y1="223" y2="223" stroke="#000" stroke-width="1" opacity=".2"/><line x1="75" x2="435" y1="200" y2="200" stroke="#000" stroke-width="1" opacity=".2"/><line x1="75" x2="435" y1="177" y2="177" stroke="#000" stroke-width="1" opacity=".2"/><line x1="75" x2="435" y1="154" y2="154" stroke="#000" stroke-width="1" opacity=".2"/><line x1="75" x2="435" y1="132" y2="132" stroke="#000" stroke-width="1" opacity=".2"/><line x1="75" x2="435" y1="109" y2="109" stroke="#000" stroke-width="1" opacity=".2"/><line x1="75" x2="435" y1="86" y2="86" stroke="#000" stroke-width="1" opacity=".2"/><line x1="75" x2="435" y1="63" y2="63" stroke="#000" stroke-width="1" opacity=".2"/><line x1="75" x2="435" y1="40" y2="40" stroke="#000" stroke-width="1" opacity=".2"/><line x1="75" x2="435" y1="17" y2="17" stroke="#000" stroke-width="1" opacity=".2"/><polyline fill="none" stroke="#000" stroke-width="1" points="74 15 74 245" opacity="1"/><text x="65" y="223" fill="#000" dy=".5ex" font-family="sans-serif" font-size="9.677" opacity="1" text-anchor="end">10.0</text><polyline fill="none" stroke="#000" stroke-width="1" points="69 223 74 223" opacity="1"/><text x="65" y="200" fill="#000" dy=".5ex" font-family="sans-serif" font-size="9.677" opacity="1" text-anchor="end">20.0</text><polyline fill="none" stroke="#000" stroke-width="1" points="69 200 74 200" opacity="1"/><text x="65" y="177" fill="#000" dy=".5ex" font-family="sans-serif" font-size="9.677" opacity="1" text-anchor="end">30.0</text><polyline fill="none" stroke="#000" stroke-width="1" points="69 177 74 177" opacity="1"/><text x="65" y="154" fill="#000" dy=".5ex" font-family="sans-serif" font-size="9.677" opacity="1" text-anchor="end">40.0</text><polyline fill="none" stroke="#000" stroke-width="1" points="69 154 74 154" opacity="1"/><text x="65" y="132" fill="#000" dy=".5ex" font-family="sans-serif" font-size="9.677" opacity="1" text-anchor="end">50.0</text><polyline fill="none" stroke="#000" stroke-width="1" points="69 132 74 132" opacity="1"/><text x="65" y="109" fill="#000" dy=".5ex" font-family="sans-serif" font-size="9.677" opacity="1" text-anchor="end">60.0</text><polyline fill="none" stroke="#000" stroke-width="1" points="69 109 74 109" opacity="1"/><text x="65" y="86" fill="#000" dy=".5ex" font-family="sans-serif" font-size="9.677" opacity="1" text-anchor="end">70.0</text><polyline fill="none" stroke="#000" stroke-width="1" points="69 86 74 86" opacity="1"/><text x="65" y="63" fill="#000" dy=".5ex" font-family="sans-serif" font-size="9.677" opacity="1" text-anchor="end">80.0</text><polyline fill="none" stroke="#000" stroke-width="1" points="69 63 74 63" opacity="1"/><text x="65" y="40" fill="#000" dy=".5ex" font-family="sans-serif" font-size="9.677" opacity="1" text-anchor="end">90.0</text><polyline fill="none" stroke="#000" stroke-width="1" points="69 40 74 40" opacity="1"/><text x="65" y="17" fill="#000" dy=".5ex" font-family="sans-serif" font-size="9.677" opacity="1" text-anchor="end">100.0</text><polyline fill="none" stroke="#000" stroke-width="1" points="69 17 74 17" opacity="1"/><polyline fill="none" stroke="#000" stroke-width="1" points="75 245 435 245" opacity="1"/><text x="109" y="255" fill="#000" dy=".76em" font-family="sans-serif" font-size="9.677" opacity="1" text-anchor="middle">0.2</text><polyline fill="none" stroke="#000" stroke-width="1" points="109 245 109 250" opacity="1"/><text x="147" y="255" fill="#000" dy=".76em" font-family="sans-serif" font-size="9.677" opacity="1" text-anchor="middle">0.4</text><polyline fill="none" stroke="#000" stroke-width="1" points="147 245 147 250" opacity="1"/><text x="186" y="255" fill="#000" dy=".76em" font-family="sans-serif" font-size="9.677" opacity="1" text-anchor="middle">0.6</text><polyline fill="none" stroke="#000" stroke-width="1" points="186 245 186 250" opacity="1"/><text x="224" y="255" fill="#000" dy=".76em" font-family="sans-serif" font-size="9.677" opacity="1" text-anchor="middle">0.8</text><polyline fill="none" stroke="#000" stroke-width="1" points="224 245 224 250" opacity="1"/><text x="262" y="255" fill="#000" dy=".76em" font-family="sans-serif" font-size="9.677" opacity="1" text-anchor="middle">1</text><polyline fill="none" stroke="#000" stroke-width="1" points="262 245 262 250" opacity="1"/><text x="301" y="255" fill="#000" dy=".76em" font-family="sans-serif" font-size="9.677" opacity="1" text-anchor="middle">1.2</text><polyline fill="none" stroke="#000" stroke-width="1" points="301 245 301 250" opacity="1"/><text x="339" y="255" fill="#000" dy=".76em" font-family="sans-serif" font-size="9.677" opacity="1" text-anchor="middle">1.4</text><polyline fill="none" stroke="#000" stroke-width="1" points="339 245 339 250" opacity="1"/><text x="377" y="255" fill="#000" dy=".76em" font-family="sans-serif" font-size="9.677" opacity="1" text-anchor="middle">1.6</text><polyline fill="none" stroke="#000" stroke-width="1" points="377 245 377 250" opacity="1"/><text x="415" y="255" fill="#000" dy=".76em" font-family="sans-serif" font-size="9.677" opacity="1" text-anchor="middle">1.8</text><polyline fill="none" stroke="#000" stroke-width="1" points="415 245 415 250" opacity="1"/><circle cx="75" cy="244" r="3" fill="#1F78B4" stroke="none" opacity="1"/><circle cx="78" cy="241" r="3" fill="#1F78B4" stroke="none" opacity="1"/><circle cx="82" cy="239" r="3" fill="#1F78B4" stroke="none" opacity="1"/><circle cx="85" cy="237" r="3" fill="#1F78B4" stroke="none" opacity="1"/><circle cx="89" cy="234" r="3" fill="#1F78B4" stroke="none" opacity="1"/><circle cx="93" cy="232" r="3" fill="#1F78B4" stroke="none" opacity="1"/><circle cx="96" cy="230" r="3" fill="#1F78B4" stroke="none" opacity="1"/><circle cx="100" cy="227" r="3" fill="#1F78B4" stroke="none" opacity="1"/><circle cx="104" cy="225" r="3" fill="#1F78B4" stroke="none" opacity="1"/><circle cx="107" cy="223" r="3" fill="#1F78B4" stroke="none" opacity="1"/><circle cx="111" cy="220" r="3" fill="#1F78B4" stroke="none" opacity="1"/><circle cx="115" cy="218" r="3" fill="#1F78B4" stroke="none" opacity="1"/><circle cx="118" cy="216" r="3" fill="#1F78B4" stroke="none" opacity="1"/><circle cx="122" cy="213" r="3" fill="#1F78B4" stroke="none" opacity="1"/><circle cx="125" cy="211" r="3" fill="#1F78B4" stroke="none" opacity="1"/><circle cx="129" cy="209" r="3" fill="#1F78B4" stroke="none" opacity="1"/><circle cx="133" cy="206" r="3" fill="#1F78B4" stroke="none" opacity="1"/><circle cx="136" cy="204" r="3" fill="#1F78B4" stroke="none" opacity="1"/><circle cx="140" cy="202" r="3" fill="#1F78B4" stroke="none" opacity="1"/><circle cx="144" cy="199" r="3" fill="#1F78B4" stroke="none" opacity="1"/><circle cx="147" cy="197" r="3" fill="#1F78B4" stroke="none" opacity="1"/><circle cx="151" cy="195" r="3" fill="#1F78B4" stroke="none" opacity="1"/><circle cx="155" cy="193" r="3" fill="#1F78B4" stroke="none" opacity="1"/><circle cx="158" cy="190" r="3" fill="#1F78B4" stroke="none" opacity="1"/><circle cx="162" cy="188" r="3" fill="#1F78B4" stroke="none" opacity="1"/><circle cx="165" cy="186" r="3" fill="#1F78B4" stroke="none" opacity="1"/><circle cx="169" cy="183" r="3" fill="#1F78B4" stroke="none" opacity="1"/><circle cx="173" cy="181" r="3" fill="#1F78B4" stroke="none" opacity="1"/><circle cx="176" cy="179" r="3" fill="#1F78B4" stroke="none" opacity="1"/><circle cx="180" cy="176" r="3" fill="#1F78B4" stroke="none" opacity="1"/><circle cx="184" cy="174" r="3" fill="#1F78B4" stroke="none" opacity="1"/><circle cx="187" cy="172" r="3" fill="#1F78B4" stroke="none" opacity="1"/><circle cx="191" cy="169" r="3" fill="#1F78B4" stroke="none" opacity="1"/><circle cx="195" cy="167" r="3" fill="#1F78B4" stroke="none" opacity="1"/><circle cx="198" cy="165" r="3" fill="#1F78B4" stroke="none" opacity="1"/><circle cx="202" cy="162" r="3" fill="#1F78B4" stroke="none" opacity="1"/><circle cx="205" cy="160" r="3" fill="#1F78B4" stroke="none" opacity="1"/><circle cx="209" cy="158" r="3" fill="#1F78B4" stroke="none" opacity="1"/><circle cx="213" cy="155" r="3" fill="#1F78B4" stroke="none" opacity="1"/><circle cx="216" cy="153" r="3" fill="#1F78B4" stroke="none" opacity="1"/><circle cx="220" cy="151" r="3" fill="#1F78B4" stroke="none" opacity="1"/><circle cx="224" cy="148" r="3" fill="#1F78B4" stroke="none" opacity="1"/><circle cx="227" cy="146" r="3" fill="#1F78B4" stroke="none" opacity="1"/><circle cx="231" cy="144" r="3" fill="#1F78B4" stroke="none" opacity="1"/><circle cx="235" cy="142" r="3" fill="#1F78B4" stroke="none" opacity="1"/><circle cx="238" cy="139" r="3" fill="#1F78B4" stroke="none" opacity="1"/><circle cx="242" cy="137" r="3" fill="#1F78B4" stroke="none" opacity="1"/><circle cx="245" cy="135" r="3" fill="#1F78B4" stroke="none" opacity="1"/><circle cx="249" cy="132" r="3" fill="#1F78B4" stroke="none" opacity="1"/><circle cx="253" cy="130" r="3" fill="#1F78B4" stroke="none" opacity="1"/><circle cx="256" cy="128" r="3" fill="#1F78B4" stroke="none" opacity="1"/><circle cx="260" cy="125" r="3" fill="#1F78B4" stroke="none" opacity="1"/><circle cx="264" cy="123" r="3" fill="#1F78B4" stroke="none" opacity="1"/><circle cx="267" cy="121" r="3" fill="#1F78B4" stroke="none" opacity="1"/><circle cx="271" cy="118" r="3" fill="#1F78B4" stroke="none" opacity="1"/><circle cx="275" cy="116" r="3" fill="#1F78B4" stroke="none" opacity="1"/><circle cx="278" cy="114" r="3" fill="#1F78B4" stroke="none" opacity="1"/><circle cx="282" cy="111" r="3" fill="#1F78B4" stroke="none" opacity="1"/><circle cx="285" cy="109" r="3" fill="#1F78B4" stroke="none" opacity="1"/><circle cx="289" cy="107" r="3" fill="#1F78B4" stroke="none" opacity="1"/><circle cx="293" cy="104" r="3" fill="#1F78B4" stroke="none" opacity="1"/><circle cx="296" cy="102" r="3" fill="#1F78B4" stroke="none" opacity="1"/><circle cx="300" cy="100" r="3" fill="#1F78B4" stroke="none" opacity="1"/><circle cx="304" cy="97" r="3" fill="#1F78B4" stroke="none" opacity="1"/><circle cx="307" cy="95" r="3" fill="#1F78B4" stroke="none" opacity="1"/><circle cx="311" cy="93" r="3" fill="#1F78B4" stroke="none" opacity="1"/><circle cx="315" cy="91" r="3" fill="#1F78B4" stroke="none" opacity="1"/><circle cx="318" cy="88" r="3" fill="#1F78B4" stroke="none" opacity="1"/><circle cx="322" cy="86" r="3" fill="#1F78B4" stroke="none" opacity="1"/><circle cx="325" cy="84" r="3" fill="#1F78B4" stroke="none" opacity="1"/><circle cx="329" cy="81" r="3" fill="#1F78B4" stroke="none" opacity="1"/><circle cx="333" cy="79" r="3" fill="#1F78B4" stroke="none" opacity="1"/><circle cx="336" cy="77" r="3" fill="#1F78B4" stroke="none" opacity="1"/><circle cx="340" cy="74" r="3" fill="#1F78B4" stroke="none" opacity="1"/><circle cx="344" cy="72" r="3" fill="#1F78B4" stroke="none" opacity="1"/><circle cx="347" cy="69" r="3" fill="#1F78B4" stroke="none" opacity="1"/><circle cx="351" cy="67" r="3" fill="#1F78B4" stroke="none" opacity="1"/><circle cx="355" cy="65" r="3" fill="#1F78B4" stroke="none" opacity="1"/><circle cx="358" cy="63" r="3" fill="#1F78B4" stroke="none" opacity="1"/><circle cx="362" cy="60" r="3" fill="#1F78B4" stroke="none" opacity="1"/><circle cx="365" cy="58" r="3" fill="#1F78B4" stroke="none" opacity="1"/><circle cx="369" cy="56" r="3" fill="#1F78B4" stroke="none" opacity="1"/><circle cx="373" cy="54" r="3" fill="#1F78B4" stroke="none" opacity="1"/><circle cx="376" cy="51" r="3" fill="#1F78B4" stroke="none" opacity="1"/><circle cx="380" cy="49" r="3" fill="#1F78B4" stroke="none" opacity="1"/><circle cx="384" cy="47" r="3" fill="#1F78B4" stroke="none" opacity="1"/><circle cx="387" cy="44" r="3" fill="#1F78B4" stroke="none" opacity="1"/><circle cx="391" cy="42" r="3" fill="#1F78B4" stroke="none" opacity="1"/><circle cx="395" cy="39" r="3" fill="#1F78B4" stroke="none" opacity="1"/><circle cx="398" cy="37" r="3" fill="#1F78B4" stroke="none" opacity="1"/><circle cx="402" cy="35" r="3" fill="#1F78B4" stroke="none" opacity="1"/><circle cx="405" cy="33" r="3" fill="#1F78B4" stroke="none" opacity="1"/><circle cx="409" cy="30" r="3" fill="#1F78B4" stroke="none" opacity="1"/><circle cx="413" cy="28" r="3" fill="#1F78B4" stroke="none" opacity="1"/><circle cx="416" cy="26" r="3" fill="#1F78B4" stroke="none" opacity="1"/><circle cx="420" cy="23" r="3" fill="#1F78B4" stroke="none" opacity="1"/><circle cx="424" cy="21" r="3" fill="#1F78B4" stroke="none" opacity="1"/><circle cx="427" cy="19" r="3" fill="#1F78B4" stroke="none" opacity="1"/><circle cx="431" cy="16" r="3" fill="#1F78B4" stroke="none" opacity="1"/><circle cx="435" cy="15" r="3" fill="#1F78B4" stroke="none" opacity="1"/><polyline fill="none" stroke="#1F78B4" stroke-width="1" points="75 245 435 15" opacity="1"/><polygon fill="#1F78B4" points="75 245 435 15 435 15" opacity=".25"/></svg>