<svg xmlns="http://www.w3.org/2000/svg" width="960" height="540"><text x="480" y="32" fill="#000" dy=".76em" font-family="sans-serif" font-size="16.129" opacity="1" text-anchor="middle">bench_group/threads_08/32768</text><text x="27" y="263" fill="#000" dy=".76em" font-family="sans-serif" font-size="9.677" opacity="1" text-anchor="middle" transform="rotate(270, 27, 263)">Total sample time (ms)</text><text x="510" y="513" fill="#000" dy="-.5ex" font-family="sans-serif" font-size="9.677" opacity="1" text-anchor="middle">Iterations (x 10^3)</text><line x1="275" x2="275" y1="472" y2="52" stroke="#000" stroke-width="1" opacity=".2"/><line x1="472" x2="472" y1="472" y2="52" stroke="#000" stroke-width="1" opacity=".2"/><line x1="669" x2="669" y1="472" y2="52" stroke="#000" stroke-width="1" opacity=".2"/><line x1="866" x2="866" y1="472" y2="52" stroke="#000" stroke-width="1" opacity=".2"/><line x1="87" x2="933" y1="430" y2="430" stroke="#000" stroke-width="1" opacity=".2"/><line x1="87" x2="933" y1="385" y2="385" stroke="#000" stroke-width="1" opacity=".2"/><line x1="87" x2="933" y1="339" y2="339" stroke="#000" stroke-width="1" opacity=".2"/><line x1="87" x2="933" y1="294" y2="294" stroke="#000" stroke-width="1" opacity=".2"/><line x1="87" x2="933" y1="248" y2="248" stroke="#000" stroke-width="1" opacity=".2"/><line x1="87" x2="933" y1="202" y2="202" stroke="#000" stroke-width="1" opacity=".2"/><line x1="87" x2="933" y1="157" y2="157" stroke="#000" stroke-width="1" opacity=".2"/><line x1="87" x2="933" y1="111" y2="111" stroke="#000" stroke-width="1" opacity=".2"/><line x1="87" x2="933" y1="66" y2="66" stroke="#000" stroke-width="1" opacity=".2"/><polyline fill="none" stroke="#000" stroke-width="1" points="86 53 86 473" opacity="1"/><text x="77" y="430" fill="#000" dy=".5ex" font-family="sans-serif" font-size="9.677" opacity="1" text-anchor="end">10.0</text><polyline fill="none" stroke="#000" stroke-width="1" points="81 430 86 430" opacity="1"/><text x="77" y="385" fill="#000" dy=".5ex" font-family="sans-serif" font-size="9.677" opacity="1" text-anchor="end">20.0</text><polyline fill="none" stroke="#000" stroke-width="1" points="81 385 86 385" opacity="1"/><text x="77" y="339" fill="#000" dy=".5ex" font-family="sans-serif" font-size="9.677" opacity="1" text-anchor="end">30.0</text><polyline fill="none" stroke="#000" stroke-width="1" points="81 339 86 339" opacity="1"/><text x="77" y="294" fill="#000" dy=".5ex" font-family="sans-serif" font-size="9.677" opacity="1" text-anchor="end">40.0</text><polyline fill="none" stroke="#000" stroke-width="1" points="81 294 86 294" opacity="1"/><text x="77" y="248" fill="#000" dy=".5ex" font-family="sans-serif" font-size="9.677" opacity="1" text-anchor="end">50.0</text><polyline fill="none" stroke="#000" stroke-width="1" points="81 248 86 248" opacity="1"/><text x="77" y="202" fill="#000" dy=".5ex" font-family="sans-serif" font-size="9.677" opacity="1" text-anchor="end">60.0</text><polyline fill="none" stroke="#000" stroke-width="1" points="81 202 86 202" opacity="1"/><text x="77" y="157" fill="#000" dy=".5ex" font-family="sans-serif" font-size="9.677" opacity="1" text-anchor="end">70.0</text><polyline fill="none" stroke="#000" stroke-width="1" points="81 157 86 157" opacity="1"/><text x="77" y="111" fill="#000" dy=".5ex" font-family="sans-serif" font-size="9.677" opacity="1" text-anchor="end">80.0</text><polyline fill="none" stroke="#000" stroke-width="1" points="81 111 86 111" opacity="1"/><text x="77" y="66" fill="#000" dy=".5ex" font-family="sans-serif" font-size="9.677" opacity="1" text-anchor="end">90.0</text><polyline fill="none" stroke="#000" stroke-width="1" points="81 66 86 66" opacity="1"/><polyline fill="none" stroke="#000" stroke-width="1" points="87 473 933 473" opacity="1"/><text x="275" y="483" fill="#000" dy=".76em" font-family="sans-serif" font-size="9.677" opacity="1" text-anchor="middle">5</text><polyline fill="none" stroke="#000" stroke-width="1" points="275 473 275 478" opacity="1"/><text x="472" y="483" fill="#000" dy=".76em" font-family="sans-serif" font-size="9.677" opacity="1" text-anchor="middle">10</text><polyline fill="none" stroke="#000" stroke-width="1" points="472 473 472 478" opacity="1"/><text x="669" y="483" fill="#000" dy=".76em" font-family="sans-serif" font-size="9.677" opacity="1" text-anchor="middle">15</text><polyline fill="none" stroke="#000" stroke-width="1" points="669 473 669 478" opacity="1"/><text x="866" y="483" fill="#000" dy=".76em" font-family="sans-serif" font-size="9.677" opacity="1" text-anchor="middle">20</text><polyline fill="none" stroke="#000" stroke-width="1" points="866 473 866 478" opacity="1"/><circle cx="87" cy="472" r="3" fill="#1F78B4" stroke="none" opacity="1"/><circle cx="95" cy="468" r="3" fill="#1F78B4" stroke="none" opacity="1"/><circle cx="104" cy="464" r="3" fill="#1F78B4" stroke="none" opacity="1"/><circle cx="112" cy="460" r="3" fill="#1F78B4" stroke="none" opacity="1"/><circle cx="121" cy="456" r="3" fill="#1F78B4" stroke="none" opacity="1"/><circle cx="129" cy="452" r="3" fill="#1F78B4" stroke="none" opacity="1"/><circle cx="138" cy="448" r="3" fill="#1F78B4" stroke="none" opacity="1"/><circle cx="146" cy="445" r="3" fill="#1F78B4" stroke="none" opacity="1"/><circle cx="155" cy="440" r="3" fill="#1F78B4" stroke="none" opacity="1"/><circle cx="163" cy="437" r="3" fill="#1F78B4" stroke="none" opacity="1"/><circle cx="172" cy="433" r="3" fill="#1F78B4" stroke="none" opacity="1"/><circle cx="181" cy="429" r="3" fill="#1F78B4" stroke="none" opacity="1"/><circle cx="189" cy="425" r="3" fill="#1F78B4" stroke="none" opacity="1"/><circle cx="198" cy="421" r="3" fill="#1F78B4" stroke="none" opacity="1"/><circle cx="206" cy="416" r="3" fill="#1F78B4" stroke="none" opacity="1"/><circle cx="215" cy="413" r="3" fill="#1F78B4" stroke="none" opacity="1"/><circle cx="223" cy="409" r="3" fill="#1F78B4" stroke="none" opacity="1"/><circle cx="232" cy="406" r="3" fill="#1F78B4" stroke="none" opacity="1"/><circle cx="240" cy="401" r="3" fill="#1F78B4" stroke="none" opacity="1"/><circle cx="249" cy="398" r="3" fill="#1F78B4" stroke="none" opacity="1"/><circle cx="257" cy="394" r="3" fill="#1F78B4" stroke="none" opacity="1"/><circle cx="266" cy="390" r="3" fill="#1F78B4" stroke="none" opacity="1"/><circle cx="275" cy="386" r="3" fill="#1F78B4" stroke="none" opacity="1"/><circle cx="283" cy="382" r="3" fill="#1F78B4" stroke="none" opacity="1"/><circle cx="292" cy="379" r="3" fill="#1F78B4" stroke="none" opacity="1"/><circle cx="300" cy="374" r="3" fill="#1F78B4" stroke="none" opacity="1"/><circle cx="309" cy="370" r="3" fill="#1F78B4" stroke="none" opacity="1"/><circle cx="317" cy="365" r="3" fill="#1F78B4" stroke="none" opacity="1"/><circle cx="326" cy="364" r="3" fill="#1F78B4" stroke="none" opacity="1"/><circle cx="334" cy="349" r="3" fill="#1F78B4" stroke="none" opacity="1"/><circle cx="343" cy="355" r="3" fill="#1F78B4" stroke="none" opacity="1"/><circle cx="351" cy="350" r="3" fill="#1F78B4" stroke="none" opacity="1"/><circle cx="360" cy="346" r="3" fill="#1F78B4" stroke="none" opacity="1"/><circle cx="369" cy="343" r="3" fill="#1F78B4" stroke="none" opacity="1"/><circle cx="377" cy="339" r="3" fill="#1F78B4" stroke="none" opacity="1"/><circle cx="386" cy="333" r="3" fill="#1F78B4" stroke="none" opacity="1"/><circle cx="394" cy="332" r="3" fill="#1F78B4" stroke="none" opacity="1"/><circle cx="403" cy="327" r="3" fill="#1F78B4" stroke="none" opacity="1"/><circle cx="411" cy="326" r="3" fill="#1F78B4" stroke="none" opacity="1"/><circle cx="420" cy="319" r="3" fill="#1F78B4" stroke="none" opacity="1"/><circle cx="428" cy="316" r="3" fill="#1F78B4" stroke="none" opacity="1"/><circle cx="437" cy="311" r="3" fill="#1F78B4" stroke="none" opacity="1"/><circle cx="445" cy="308" r="3" fill="#1F78B4" stroke="none" opacity="1"/><circle cx="454" cy="304" r="3" fill="#1F78B4" stroke="none" opacity="1"/><circle cx="463" cy="300" r="3" fill="#1F78B4" stroke="none" opacity="1"/><circle cx="471" cy="296" r="3" fill="#1F78B4" stroke="none" opacity="1"/><circle cx="480" cy="292" r="3" fill="#1F78B4" stroke="none" opacity="1"/><circle cx="488" cy="278" r="3" fill="#1F78B4" stroke="none" opacity="1"/><circle cx="497" cy="282" r="3" fill="#1F78B4" stroke="none" opacity="1"/><circle cx="505" cy="281" r="3" fill="#1F78B4" stroke="none" opacity="1"/><circle cx="514" cy="276" r="3" fill="#1F78B4" stroke="none" opacity="1"/><circle cx="522" cy="275" r="3" fill="#1F78B4" stroke="none" opacity="1"/><circle cx="531" cy="270" r="3" fill="#1F78B4" stroke="none" opacity="1"/><circle cx="539" cy="263" r="3" fill="#1F78B4" stroke="none" opacity="1"/><circle cx="548" cy="259" r="3" fill="#1F78B4" stroke="none" opacity="1"/><circle cx="557" cy="256" r="3" fill="#1F78B4" stroke="none" opacity="1"/><circle cx="565" cy="249" r="3" fill="#1F78B4" stroke="none" opacity="1"/><circle cx="574" cy="248" r="3" fill="#1F78B4" stroke="none" opacity="1"/><circle cx="582" cy="245" r="3" fill="#1F78B4" stroke="none" opacity="1"/><circle cx="591" cy="240" r="3" fill="#1F78B4" stroke="none" opacity="1"/><circle cx="599" cy="217" r="3" fill="#1F78B4" stroke="none" opacity="1"/><circle cx="608" cy="232" r="3" fill="#1F78B4" stroke="none" opacity="1"/><circle cx="616" cy="233" r="3" fill="#1F78B4" stroke="none" opacity="1"/><circle cx="625" cy="223" r="3" fill="#1F78B4" stroke="none" opacity="1"/><circle cx="633" cy="222" r="3" fill="#1F78B4" stroke="none" opacity="1"/><circle cx="642" cy="218" r="3" fill="#1F78B4" stroke="none" opacity="1"/><circle cx="651" cy="209" r="3" fill="#1F78B4" stroke="none" opacity="1"/><circle cx="659" cy="209" r="3" fill="#1F78B4" stroke="none" opacity="1"/><circle cx="668" cy="204" r="3" fill="#1F78B4" stroke="none" opacity="1"/><circle cx="676" cy="202" r="3" fill="#1F78B4" stroke="none" opacity="1"/><circle cx="685" cy="192" r="3" fill="#1F78B4" stroke="none" opacity="1"/><circle cx="693" cy="195" r="3" fill="#1F78B4" stroke="none" opacity="1"/><circle cx="702" cy="189" r="3" fill="#1F78B4" stroke="none" opacity="1"/><circle cx="710" cy="189" r="3" fill="#1F78B4" stroke="none" opacity="1"/><circle cx="719" cy="183" r="3" fill="#1F78B4" stroke="none" opacity="1"/><circle cx="727" cy="178" r="3" fill="#1F78B4" stroke="none" opacity="1"/><circle cx="736" cy="175" r="3" fill="#1F78B4" stroke="none" opacity="1"/><circle cx="745" cy="172" r="3" fill="#1F78B4" stroke="none" opacity="1"/><circle cx="753" cy="164" r="3" fill="#1F78B4" stroke="none" opacity="1"/><circle cx="762" cy="158" r="3" fill="#1F78B4" stroke="none" opacity="1"/><circle cx="770" cy="157" r="3" fill="#1F78B4" stroke="none" opacity="1"/><circle cx="779" cy="152" r="3" fill="#1F78B4" stroke="none" opacity="1"/><circle cx="787" cy="155" r="3" fill="#1F78B4" stroke="none" opacity="1"/><circle cx="796" cy="147" r="3" fill="#1F78B4" stroke="none" opacity="1"/><circle cx="804" cy="142" r="3" fill="#1F78B4" stroke="none" opacity="1"/><circle cx="813" cy="137" r="3" fill="#1F78B4" stroke="none" opacity="1"/><circle cx="821" cy="135" r="3" fill="#1F78B4" stroke="none" opacity="1"/><circle cx="830" cy="134" r="3" fill="#1F78B4" stroke="none" opacity="1"/><circle cx="839" cy="89" r="3" fill="#1F78B4" stroke="none" opacity="1"/><circle cx="847" cy="127" r="3" fill="#1F78B4" stroke="none" opacity="1"/><circle cx="856" cy="122" r="3" fill="#1F78B4" stroke="none" opacity="1"/><circle cx="864" cy="117" r="3" fill="#1F78B4" stroke="none" opacity="1"/><circle cx="873" cy="117" r="3" fill="#1F78B4" stroke="none" opacity="1"/><circle cx="881" cy="111" r="3" fill="#1F78B4" stroke="none" opacity="1"/><circle cx="890" cy="105" r="3" fill="#1F78B4" stroke="none" opacity="1"/><circle cx="898" cy="53" r="3" fill="#1F78B4" stroke="none" opacity="1"/><circle cx="907" cy="95" r="3" fill="#1F78B4" stroke="none" opacity="1"/><circle cx="915" cy="87" r="3" fill="#1F78B4" stroke="none" opacity="1"/><circle cx="924" cy="85" r="3" fill="#1F78B4" stroke="none" opacity="1"/><circle cx="933" cy="86" r="3" fill="#1F78B4" stroke="none" opacity="1"/><polyline fill="none" stroke="#1F78B4" stroke-width="1" points="87 473 933 81" opacity="1"/><polygon fill="#1F78B4" points="87 473 933 84 933 77" opacity=".25"/><text x="132" y="68" fill="#000" dy=".76em" font-family="sans-serif" font-size="9.677" opacity="1" text-anchor="start">Sample</text><text x="132" y="83" fill="#000" dy=".76em" font-family="sans-serif" font-size="9.677" opacity="1" text-anchor="start">Linear regression</text><text x="132" y="98" fill="#000" dy=".76em" font-family="sans-serif" font-size="9.677" opacity="1" text-anchor="start">Confidence interval</text><circle cx="112" cy="73" r="3" fill="#1F78B4" stroke="none" opacity="1"/><polyline fill="none" stroke="#1F78B4" stroke-width="2" points="102 88 122 88" opacity="1"/><rect width="20" height="10" x="102" y="98" fill="#1F78B4" stroke="none" opacity=".25"/></svg>