<svg xmlns="http://www.w3.org/2000/svg" width="450" height="300"><text x="15" y="130" fill="#000" dy=".76em" font-family="sans-serif" font-size="9.677" opacity="1" text-anchor="middle" transform="rotate(270, 15, 130)">Total sample time (ms)</text><text x="255" y="285" fill="#000" dy="-.5ex" font-family="sans-serif" font-size="9.677" opacity="1" text-anchor="middle">Iterations (x 10^3)</text><line x1="155" x2="155" y1="244" y2="14" stroke="#000" stroke-width="1" opacity=".2"/><line x1="238" x2="238" y1="244" y2="14" stroke="#000" stroke-width="1" opacity=".2"/><line x1="322" x2="322" y1="244" y2="14" stroke="#000" stroke-width="1" opacity=".2"/><line x1="406" x2="406" y1="244" y2="14" stroke="#000" stroke-width="1" opacity=".2"/><line x1="75" x2="435" y1="221" y2="221" stroke="#000" stroke-width="1" opacity=".2"/><line x1="75" x2="435" y1="196" y2="196" stroke="#000" stroke-width="1" opacity=".2"/><line x1="75" x2="435" y1="171" y2="171" stroke="#000" stroke-width="1" opacity=".2"/><line x1="75" x2="435" y1="146" y2="146" stroke="#000" stroke-width="1" opacity=".2"/><line x1="75" x2="435" y1="121" y2="121" stroke="#000" stroke-width="1" opacity=".2"/><line x1="75" x2="435" y1="96" y2="96" stroke="#000" stroke-width="1" opacity=".2"/><line x1="75" x2="435" y1="71" y2="71" stroke="#000" stroke-width="1" opacity=".2"/><line x1="75" x2="435" y1="46" y2="46" stroke="#000" stroke-width="1" opacity=".2"/><line x1="75" x2="435" y1="21" y2="21" stroke="#000" stroke-width="1" opacity=".2"/><polyline fill="none" stroke="#000" stroke-width="1" points="74 15 74 245" opacity="1"/><text x="65" y="221" fill="#000" dy=".5ex" font-family="sans-serif" font-size="9.677" opacity="1" text-anchor="end">10.0</text><polyline fill="none" stroke="#000" stroke-width="1" points="69 221 74 221" opacity="1"/><text x="65" y="196" fill="#000" dy=".5ex" font-family="sans-serif" font-size="9.677" opacity="1" text-anchor="end">20.0</text><polyline fill="none" stroke="#000" stroke-width="1" points="69 196 74 196" opacity="1"/><text x="65" y="171" fill="#000" dy=".5ex" font-family="sans-serif" font-size="9.677" opacity="1" text-anchor="end">30.0</text><polyline fill="none" stroke="#000" stroke-width="1" points="69 171 74 171" opacity="1"/><text x="65" y="146" fill="#000" dy=".5ex" font-family="sans-serif" font-size="9.677" opacity="1" text-anchor="end">40.0</text><polyline fill="none" stroke="#000" stroke-width="1" points="69 146 74 146" opacity="1"/><text x="65" y="121" fill="#000" dy=".5ex" font-family="sans-serif" font-size="9.677" opacity="1" text-anchor="end">50.0</text><polyline fill="none" stroke="#000" stroke-width="1" points="69 121 74 121" opacity="1"/><text x="65" y="96" fill="#000" dy=".5ex" font-family="sans-serif" font-size="9.677" opacity="1" text-anchor="end">60.0</text><polyline fill="none" stroke="#000" stroke-width="1" points="69 96 74 96" opacity="1"/><text x="65" y="71" fill="#000" dy=".5ex" font-family="sans-serif" font-size="9.677" opacity="1" text-anchor="end">70.0</text><polyline fill="none" stroke="#000" stroke-width="1" points="69 71 74 71" opacity="1"/><text x="65" y="46" fill="#000" dy=".5ex" font-family="sans-serif" font-size="9.677" opacity="1" text-anchor="end">80.0</text><polyline fill="none" stroke="#000" stroke-width="1" points="69 46 74 46" opacity="1"/><text x="65" y="21" fill="#000" dy=".5ex" font-family="sans-serif" font-size="9.677" opacity="1" text-anchor="end">90.0</text><polyline fill="none" stroke="#000" stroke-width="1" points="69 21 74 21" opacity="1"/><polyline fill="none" stroke="#000" stroke-width="1" points="75 245 435 245" opacity="1"/><text x="155" y="255" fill="#000" dy=".76em" font-family="sans-serif" font-size="9.677" opacity="1" text-anchor="middle">5</text><polyline fill="none" stroke="#000" stroke-width="1" points="155 245 155 250" opacity="1"/><text x="238" y="255" fill="#000" dy=".76em" font-family="sans-serif" font-size="9.677" opacity="1" text-anchor="middle">10</text><polyline fill="none" stroke="#000" stroke-width="1" points="238 245 238 250" opacity="1"/><text x="322" y="255" fill="#000" dy=".76em" font-family="sans-serif" font-size="9.677" opacity="1" text-anchor="middle">15</text><polyline fill="none" stroke="#000" stroke-width="1" points="322 245 322 250" opacity="1"/><text x="406" y="255" fill="#000" dy=".76em" font-family="sans-serif" font-size="9.677" opacity="1" text-anchor="middle">20</text><polyline fill="none" stroke="#000" stroke-width="1" points="406 245 406 250" opacity="1"/><circle cx="75" cy="244" r="3" fill="#1F78B4" stroke="none" opacity="1"/><circle cx="78" cy="242" r="3" fill="#1F78B4" stroke="none" opacity="1"/><circle cx="82" cy="239" r="3" fill="#1F78B4" stroke="none" opacity="1"/><circle cx="85" cy="237" r="3" fill="#1F78B4" stroke="none" opacity="1"/><circle cx="89" cy="235" r="3" fill="#1F78B4" stroke="none" opacity="1"/><circle cx="93" cy="233" r="3" fill="#1F78B4" stroke="none" opacity="1"/><circle cx="96" cy="231" r="3" fill="#1F78B4" stroke="none" opacity="1"/><circle cx="100" cy="229" r="3" fill="#1F78B4" stroke="none" opacity="1"/><circle cx="104" cy="226" r="3" fill="#1F78B4" stroke="none" opacity="1"/><circle cx="107" cy="224" r="3" fill="#1F78B4" stroke="none" opacity="1"/><circle cx="111" cy="222" r="3" fill="#1F78B4" stroke="none" opacity="1"/><circle cx="115" cy="220" r="3" fill="#1F78B4" stroke="none" opacity="1"/><circle cx="118" cy="218" r="3" fill="#1F78B4" stroke="none" opacity="1"/><circle cx="122" cy="216" r="3" fill="#1F78B4" stroke="none" opacity="1"/><circle cx="125" cy="213" r="3" fill="#1F78B4" stroke="none" opacity="1"/><circle cx="129" cy="211" r="3" fill="#1F78B4" stroke="none" opacity="1"/><circle cx="133" cy="209" r="3" fill="#1F78B4" stroke="none" opacity="1"/><circle cx="136" cy="208" r="3" fill="#1F78B4" stroke="none" opacity="1"/><circle cx="140" cy="205" r="3" fill="#1F78B4" stroke="none" opacity="1"/><circle cx="144" cy="203" r="3" fill="#1F78B4" stroke="none" opacity="1"/><circle cx="147" cy="201" r="3" fill="#1F78B4" stroke="none" opacity="1"/><circle cx="151" cy="199" r="3" fill="#1F78B4" stroke="none" opacity="1"/><circle cx="155" cy="197" r="3" fill="#1F78B4" stroke="none" opacity="1"/><circle cx="158" cy="195" r="3" fill="#1F78B4" stroke="none" opacity="1"/><circle cx="162" cy="193" r="3" fill="#1F78B4" stroke="none" opacity="1"/><circle cx="165" cy="190" r="3" fill="#1F78B4" stroke="none" opacity="1"/><circle cx="169" cy="188" r="3" fill="#1F78B4" stroke="none" opacity="1"/><circle cx="173" cy="185" r="3" fill="#1F78B4" stroke="none" opacity="1"/><circle cx="176" cy="184" r="3" fill="#1F78B4" stroke="none" opacity="1"/><circle cx="180" cy="177" r="3" fill="#1F78B4" stroke="none" opacity="1"/><circle cx="184" cy="180" r="3" fill="#1F78B4" stroke="none" opacity="1"/><circle cx="187" cy="177" r="3" fill="#1F78B4" stroke="none" opacity="1"/><circle cx="191" cy="175" r="3" fill="#1F78B4" stroke="none" opacity="1"/><circle cx="195" cy="173" r="3" fill="#1F78B4" stroke="none" opacity="1"/><circle cx="198" cy="171" r="3" fill="#1F78B4" stroke="none" opacity="1"/><circle cx="202" cy="168" r="3" fill="#1F78B4" stroke="none" opacity="1"/><circle cx="205" cy="167" r="3" fill="#1F78B4" stroke="none" opacity="1"/><circle cx="209" cy="164" r="3" fill="#1F78B4" stroke="none" opacity="1"/><circle cx="213" cy="164" r="3" fill="#1F78B4" stroke="none" opacity="1"/><circle cx="216" cy="160" r="3" fill="#1F78B4" stroke="none" opacity="1"/><circle cx="220" cy="158" r="3" fill="#1F78B4" stroke="none" opacity="1"/><circle cx="224" cy="156" r="3" fill="#1F78B4" stroke="none" opacity="1"/><circle cx="227" cy="154" r="3" fill="#1F78B4" stroke="none" opacity="1"/><circle cx="231" cy="152" r="3" fill="#1F78B4" stroke="none" opacity="1"/><circle cx="235" cy="149" r="3" fill="#1F78B4" stroke="none" opacity="1"/><circle cx="238" cy="147" r="3" fill="#1F78B4" stroke="none" opacity="1"/><circle cx="242" cy="145" r="3" fill="#1F78B4" stroke="none" opacity="1"/><circle cx="245" cy="138" r="3" fill="#1F78B4" stroke="none" opacity="1"/><circle cx="249" cy="140" r="3" fill="#1F78B4" stroke="none" opacity="1"/><circle cx="253" cy="139" r="3" fill="#1F78B4" stroke="none" opacity="1"/><circle cx="256" cy="136" r="3" fill="#1F78B4" stroke="none" opacity="1"/><circle cx="260" cy="136" r="3" fill="#1F78B4" stroke="none" opacity="1"/><circle cx="264" cy="133" r="3" fill="#1F78B4" stroke="none" opacity="1"/><circle cx="267" cy="129" r="3" fill="#1F78B4" stroke="none" opacity="1"/><circle cx="271" cy="127" r="3" fill="#1F78B4" stroke="none" opacity="1"/><circle cx="275" cy="126" r="3" fill="#1F78B4" stroke="none" opacity="1"/><circle cx="278" cy="122" r="3" fill="#1F78B4" stroke="none" opacity="1"/><circle cx="282" cy="121" r="3" fill="#1F78B4" stroke="none" opacity="1"/><circle cx="285" cy="119" r="3" fill="#1F78B4" stroke="none" opacity="1"/><circle cx="289" cy="117" r="3" fill="#1F78B4" stroke="none" opacity="1"/><circle cx="293" cy="104" r="3" fill="#1F78B4" stroke="none" opacity="1"/><circle cx="296" cy="113" r="3" fill="#1F78B4" stroke="none" opacity="1"/><circle cx="300" cy="113" r="3" fill="#1F78B4" stroke="none" opacity="1"/><circle cx="304" cy="107" r="3" fill="#1F78B4" stroke="none" opacity="1"/><circle cx="307" cy="107" r="3" fill="#1F78B4" stroke="none" opacity="1"/><circle cx="311" cy="105" r="3" fill="#1F78B4" stroke="none" opacity="1"/><circle cx="315" cy="100" r="3" fill="#1F78B4" stroke="none" opacity="1"/><circle cx="318" cy="100" r="3" fill="#1F78B4" stroke="none" opacity="1"/><circle cx="322" cy="97" r="3" fill="#1F78B4" stroke="none" opacity="1"/><circle cx="325" cy="96" r="3" fill="#1F78B4" stroke="none" opacity="1"/><circle cx="329" cy="90" r="3" fill="#1F78B4" stroke="none" opacity="1"/><circle cx="333" cy="92" r="3" fill="#1F78B4" stroke="none" opacity="1"/><circle cx="336" cy="89" r="3" fill="#1F78B4" stroke="none" opacity="1"/><circle cx="340" cy="89" r="3" fill="#1F78B4" stroke="none" opacity="1"/><circle cx="344" cy="86" r="3" fill="#1F78B4" stroke="none" opacity="1"/><circle cx="347" cy="83" r="3" fill="#1F78B4" stroke="none" opacity="1"/><circle cx="351" cy="81" r="3" fill="#1F78B4" stroke="none" opacity="1"/><circle cx="355" cy="79" r="3" fill="#1F78B4" stroke="none" opacity="1"/><circle cx="358" cy="75" r="3" fill="#1F78B4" stroke="none" opacity="1"/><circle cx="362" cy="72" r="3" fill="#1F78B4" stroke="none" opacity="1"/><circle cx="365" cy="71" r="3" fill="#1F78B4" stroke="none" opacity="1"/><circle cx="369" cy="68" r="3" fill="#1F78B4" stroke="none" opacity="1"/><circle cx="373" cy="70" r="3" fill="#1F78B4" stroke="none" opacity="1"/><circle cx="376" cy="66" r="3" fill="#1F78B4" stroke="none" opacity="1"/><circle cx="380" cy="63" r="3" fill="#1F78B4" stroke="none" opacity="1"/><circle cx="384" cy="60" r="3" fill="#1F78B4" stroke="none" opacity="1"/><circle cx="387" cy="59" r="3" fill="#1F78B4" stroke="none" opacity="1"/><circle cx="391" cy="59" r="3" fill="#1F78B4" stroke="none" opacity="1"/><circle cx="395" cy="34" r="3" fill="#1F78B4" stroke="none" opacity="1"/><circle cx="398" cy="55" r="3" fill="#1F78B4" stroke="none" opacity="1"/><circle cx="402" cy="52" r="3" fill="#1F78B4" stroke="none" opacity="1"/><circle cx="405" cy="49" r="3" fill="#1F78B4" stroke="none" opacity="1"/><circle cx="409" cy="49" r="3" fill="#1F78B4" stroke="none" opacity="1"/><circle cx="413" cy="46" r="3" fill="#1F78B4" stroke="none" opacity="1"/><circle cx="416" cy="43" r="3" fill="#1F78B4" stroke="none" opacity="1"/><circle cx="420" cy="15" r="3" fill="#1F78B4" stroke="none" opacity="1"/><circle cx="424" cy="37" r="3" fill="#1F78B4" stroke="none" opacity="1"/><circle cx="427" cy="33" r="3" fill="#1F78B4" stroke="none" opacity="1"/><circle cx="431" cy="32" r="3" fill="#1F78B4" stroke="none" opacity="1"/><circle cx="435" cy="32" r="3" fill="#1F78B4" stroke="none" opacity="1"/><polyline fill="none" stroke="#1F78B4" stroke-width="1" points="75 245 435 30" opacity="1"/><polygon fill="#1F78B4" points="75 245 435 31 435 28" opacity=".25"/></svg>