<svg xmlns="http://www.w3.org/2000/svg" width="960" height="540"><text x="480" y="32" fill="#000" dy=".76em" font-family="sans-serif" font-size="16.129" opacity="1" text-anchor="middle">bench_group/threads_02/32768</text><text x="27" y="263" fill="#000" dy=".76em" font-family="sans-serif" font-size="9.677" opacity="1" text-anchor="middle" transform="rotate(270, 27, 263)">Total sample time (ms)</text><text x="510" y="513" fill="#000" dy="-.5ex" font-family="sans-serif" font-size="9.677" opacity="1" text-anchor="middle">Iterations (x 10^3)</text><line x1="252" x2="252" y1="472" y2="52" stroke="#000" stroke-width="1" opacity=".2"/><line x1="425" x2="425" y1="472" y2="52" stroke="#000" stroke-width="1" opacity=".2"/><line x1="599" x2="599" y1="472" y2="52" stroke="#000" stroke-width="1" opacity=".2"/><line x1="773" x2="773" y1="472" y2="52" stroke="#000" stroke-width="1" opacity=".2"/><line x1="87" x2="933" y1="402" y2="402" stroke="#000" stroke-width="1" opacity=".2"/><line x1="87" x2="933" y1="329" y2="329" stroke="#000" stroke-width="1" opacity=".2"/><line x1="87" x2="933" y1="256" y2="256" stroke="#000" stroke-width="1" opacity=".2"/><line x1="87" x2="933" y1="183" y2="183" stroke="#000" stroke-width="1" opacity=".2"/><line x1="87" x2="933" y1="110" y2="110" stroke="#000" stroke-width="1" opacity=".2"/><polyline fill="none" stroke="#000" stroke-width="1" points="86 53 86 473" opacity="1"/><text x="77" y="402" fill="#000" dy=".5ex" font-family="sans-serif" font-size="9.677" opacity="1" text-anchor="end">20.0</text><polyline fill="none" stroke="#000" stroke-width="1" points="81 402 86 402" opacity="1"/><text x="77" y="329" fill="#000" dy=".5ex" font-family="sans-serif" font-size="9.677" opacity="1" text-anchor="end">40.0</text><polyline fill="none" stroke="#000" stroke-width="1" points="81 329 86 329" opacity="1"/><text x="77" y="256" fill="#000" dy=".5ex" font-family="sans-serif" font-size="9.677" opacity="1" text-anchor="end">60.0</text><polyline fill="none" stroke="#000" stroke-width="1" points="81 256 86 256" opacity="1"/><text x="77" y="183" fill="#000" dy=".5ex" font-family="sans-serif" font-size="9.677" opacity="1" text-anchor="end">80.0</text><polyline fill="none" stroke="#000" stroke-width="1" points="81 183 86 183" opacity="1"/><text x="77" y="110" fill="#000" dy=".5ex" font-family="sans-serif" font-size="9.677" opacity="1" text-anchor="end">100.0</text><polyline fill="none" stroke="#000" stroke-width="1" points="81 110 86 110" opacity="1"/><polyline fill="none" stroke="#000" stroke-width="1" points="87 473 933 473" opacity="1"/><text x="252" y="483" fill="#000" dy=".76em" font-family="sans-serif" font-size="9.677" opacity="1" text-anchor="middle">5</text><polyline fill="none" stroke="#000" stroke-width="1" points="252 473 252 478" opacity="1"/><text x="425" y="483" fill="#000" dy=".76em" font-family="sans-serif" font-size="9.677" opacity="1" text-anchor="middle">10</text><polyline fill="none" stroke="#000" stroke-width="1" points="425 473 425 478" opacity="1"/><text x="599" y="483" fill="#000" dy=".76em" font-family="sans-serif" font-size="9.677" opacity="1" text-anchor="middle">15</text><polyline fill="none" stroke="#000" stroke-width="1" points="599 473 599 478" opacity="1"/><text x="773" y="483" fill="#000" dy=".76em" font-family="sans-serif" font-size="9.677" opacity="1" text-anchor="middle">20</text><polyline fill="none" stroke="#000" stroke-width="1" points="773 473 773 478" opacity="1"/><circle cx="87" cy="472" r="3" fill="#1F78B4" stroke="none" opacity="1"/><circle cx="95" cy="469" r="3" fill="#1F78B4" stroke="none" opacity="1"/><circle cx="104" cy="465" r="3" fill="#1F78B4" stroke="none" opacity="1"/><circle cx="112" cy="462" r="3" fill="#1F78B4" stroke="none" opacity="1"/><circle cx="121" cy="459" r="3" fill="#1F78B4" stroke="none" opacity="1"/><circle cx="129" cy="456" r="3" fill="#1F78B4" stroke="none" opacity="1"/><circle cx="138" cy="453" r="3" fill="#1F78B4" stroke="none" opacity="1"/><circle cx="146" cy="449" r="3" fill="#1F78B4" stroke="none" opacity="1"/><circle cx="155" cy="447" r="3" fill="#1F78B4" stroke="none" opacity="1"/><circle cx="163" cy="444" r="3" fill="#1F78B4" stroke="none" opacity="1"/><circle cx="172" cy="441" r="3" fill="#1F78B4" stroke="none" opacity="1"/><circle cx="181" cy="438" r="3" fill="#1F78B4" stroke="none" opacity="1"/><circle cx="189" cy="435" r="3" fill="#1F78B4" stroke="none" opacity="1"/><circle cx="198" cy="432" r="3" fill="#1F78B4" stroke="none" opacity="1"/><circle cx="206" cy="428" r="3" fill="#1F78B4" stroke="none" opacity="1"/><circle cx="215" cy="425" r="3" fill="#1F78B4" stroke="none" opacity="1"/><circle cx="223" cy="422" r="3" fill="#1F78B4" stroke="none" opacity="1"/><circle cx="232" cy="419" r="3" fill="#1F78B4" stroke="none" opacity="1"/><circle cx="240" cy="415" r="3" fill="#1F78B4" stroke="none" opacity="1"/><circle cx="249" cy="411" r="3" fill="#1F78B4" stroke="none" opacity="1"/><circle cx="257" cy="409" r="3" fill="#1F78B4" stroke="none" opacity="1"/><circle cx="266" cy="406" r="3" fill="#1F78B4" stroke="none" opacity="1"/><circle cx="275" cy="404" r="3" fill="#1F78B4" stroke="none" opacity="1"/><circle cx="283" cy="401" r="3" fill="#1F78B4" stroke="none" opacity="1"/><circle cx="292" cy="398" r="3" fill="#1F78B4" stroke="none" opacity="1"/><circle cx="300" cy="382" r="3" fill="#1F78B4" stroke="none" opacity="1"/><circle cx="309" cy="391" r="3" fill="#1F78B4" stroke="none" opacity="1"/><circle cx="317" cy="388" r="3" fill="#1F78B4" stroke="none" opacity="1"/><circle cx="326" cy="386" r="3" fill="#1F78B4" stroke="none" opacity="1"/><circle cx="334" cy="383" r="3" fill="#1F78B4" stroke="none" opacity="1"/><circle cx="343" cy="380" r="3" fill="#1F78B4" stroke="none" opacity="1"/><circle cx="351" cy="376" r="3" fill="#1F78B4" stroke="none" opacity="1"/><circle cx="360" cy="374" r="3" fill="#1F78B4" stroke="none" opacity="1"/><circle cx="369" cy="369" r="3" fill="#1F78B4" stroke="none" opacity="1"/><circle cx="377" cy="368" r="3" fill="#1F78B4" stroke="none" opacity="1"/><circle cx="386" cy="364" r="3" fill="#1F78B4" stroke="none" opacity="1"/><circle cx="394" cy="363" r="3" fill="#1F78B4" stroke="none" opacity="1"/><circle cx="403" cy="357" r="3" fill="#1F78B4" stroke="none" opacity="1"/><circle cx="411" cy="356" r="3" fill="#1F78B4" stroke="none" opacity="1"/><circle cx="420" cy="352" r="3" fill="#1F78B4" stroke="none" opacity="1"/><circle cx="428" cy="349" r="3" fill="#1F78B4" stroke="none" opacity="1"/><circle cx="437" cy="347" r="3" fill="#1F78B4" stroke="none" opacity="1"/><circle cx="445" cy="345" r="3" fill="#1F78B4" stroke="none" opacity="1"/><circle cx="454" cy="340" r="3" fill="#1F78B4" stroke="none" opacity="1"/><circle cx="463" cy="336" r="3" fill="#1F78B4" stroke="none" opacity="1"/><circle cx="471" cy="319" r="3" fill="#1F78B4" stroke="none" opacity="1"/><circle cx="480" cy="329" r="3" fill="#1F78B4" stroke="none" opacity="1"/><circle cx="488" cy="326" r="3" fill="#1F78B4" stroke="none" opacity="1"/><circle cx="497" cy="325" r="3" fill="#1F78B4" stroke="none" opacity="1"/><circle cx="505" cy="321" r="3" fill="#1F78B4" stroke="none" opacity="1"/><circle cx="514" cy="319" r="3" fill="#1F78B4" stroke="none" opacity="1"/><circle cx="522" cy="315" r="3" fill="#1F78B4" stroke="none" opacity="1"/><circle cx="531" cy="315" r="3" fill="#1F78B4" stroke="none" opacity="1"/><circle cx="539" cy="307" r="3" fill="#1F78B4" stroke="none" opacity="1"/><circle cx="548" cy="305" r="3" fill="#1F78B4" stroke="none" opacity="1"/><circle cx="557" cy="302" r="3" fill="#1F78B4" stroke="none" opacity="1"/><circle cx="565" cy="300" r="3" fill="#1F78B4" stroke="none" opacity="1"/><circle cx="574" cy="296" r="3" fill="#1F78B4" stroke="none" opacity="1"/><circle cx="582" cy="292" r="3" fill="#1F78B4" stroke="none" opacity="1"/><circle cx="591" cy="209" r="3" fill="#1F78B4" stroke="none" opacity="1"/><circle cx="599" cy="288" r="3" fill="#1F78B4" stroke="none" opacity="1"/><circle cx="608" cy="284" r="3" fill="#1F78B4" stroke="none" opacity="1"/><circle cx="616" cy="282" r="3" fill="#1F78B4" stroke="none" opacity="1"/><circle cx="625" cy="278" r="3" fill="#1F78B4" stroke="none" opacity="1"/><circle cx="633" cy="276" r="3" fill="#1F78B4" stroke="none" opacity="1"/><circle cx="642" cy="272" r="3" fill="#1F78B4" stroke="none" opacity="1"/><circle cx="651" cy="271" r="3" fill="#1F78B4" stroke="none" opacity="1"/><circle cx="659" cy="266" r="3" fill="#1F78B4" stroke="none" opacity="1"/><circle cx="668" cy="263" r="3" fill="#1F78B4" stroke="none" opacity="1"/><circle cx="676" cy="222" r="3" fill="#1F78B4" stroke="none" opacity="1"/><circle cx="685" cy="258" r="3" fill="#1F78B4" stroke="none" opacity="1"/><circle cx="693" cy="254" r="3" fill="#1F78B4" stroke="none" opacity="1"/><circle cx="702" cy="252" r="3" fill="#1F78B4" stroke="none" opacity="1"/><circle cx="710" cy="249" r="3" fill="#1F78B4" stroke="none" opacity="1"/><circle cx="719" cy="246" r="3" fill="#1F78B4" stroke="none" opacity="1"/><circle cx="727" cy="245" r="3" fill="#1F78B4" stroke="none" opacity="1"/><circle cx="736" cy="240" r="3" fill="#1F78B4" stroke="none" opacity="1"/><circle cx="745" cy="235" r="3" fill="#1F78B4" stroke="none" opacity="1"/><circle cx="753" cy="227" r="3" fill="#1F78B4" stroke="none" opacity="1"/><circle cx="762" cy="230" r="3" fill="#1F78B4" stroke="none" opacity="1"/><circle cx="770" cy="226" r="3" fill="#1F78B4" stroke="none" opacity="1"/><circle cx="779" cy="222" r="3" fill="#1F78B4" stroke="none" opacity="1"/><circle cx="787" cy="220" r="3" fill="#1F78B4" stroke="none" opacity="1"/><circle cx="796" cy="215" r="3" fill="#1F78B4" stroke="none" opacity="1"/><circle cx="804" cy="212" r="3" fill="#1F78B4" stroke="none" opacity="1"/><circle cx="813" cy="203" r="3" fill="#1F78B4" stroke="none" opacity="1"/><circle cx="821" cy="208" r="3" fill="#1F78B4" stroke="none" opacity="1"/><circle cx="830" cy="133" r="3" fill="#1F78B4" stroke="none" opacity="1"/><circle cx="839" cy="204" r="3" fill="#1F78B4" stroke="none" opacity="1"/><circle cx="847" cy="198" r="3" fill="#1F78B4" stroke="none" opacity="1"/><circle cx="856" cy="197" r="3" fill="#1F78B4" stroke="none" opacity="1"/><circle cx="864" cy="192" r="3" fill="#1F78B4" stroke="none" opacity="1"/><circle cx="873" cy="190" r="3" fill="#1F78B4" stroke="none" opacity="1"/><circle cx="881" cy="186" r="3" fill="#1F78B4" stroke="none" opacity="1"/><circle cx="890" cy="185" r="3" fill="#1F78B4" stroke="none" opacity="1"/><circle cx="898" cy="53" r="3" fill="#1F78B4" stroke="none" opacity="1"/><circle cx="907" cy="176" r="3" fill="#1F78B4" stroke="none" opacity="1"/><circle cx="915" cy="172" r="3" fill="#1F78B4" stroke="none" opacity="1"/><circle cx="924" cy="172" r="3" fill="#1F78B4" stroke="none" opacity="1"/><circle cx="933" cy="164" r="3" fill="#1F78B4" stroke="none" opacity="1"/><polyline fill="none" stroke="#1F78B4" stroke-width="1" points="87 473 933 159" opacity="1"/><polygon fill="#1F78B4" points="87 473 933 166 933 150" opacity=".25"/><text x="132" y="68" fill="#000" dy=".76em" font-family="sans-serif" font-size="9.677" opacity="1" text-anchor="start">Sample</text><text x="132" y="83" fill="#000" dy=".76em" font-family="sans-serif" font-size="9.677" opacity="1" text-anchor="start">Linear regression</text><text x="132" y="98" fill="#000" dy=".76em" font-family="sans-serif" font-size="9.677" opacity="1" text-anchor="start">Confidence interval</text><circle cx="112" cy="73" r="3" fill="#1F78B4" stroke="none" opacity="1"/><polyline fill="none" stroke="#1F78B4" stroke-width="2" points="102 88 122 88" opacity="1"/><rect width="20" height="10" x="102" y="98" fill="#1F78B4" stroke="none" opacity=".25"/></svg>