<svg xmlns="http://www.w3.org/2000/svg" width="960" height="540"><text x="480" y="32" fill="#000" dy=".76em" font-family="sans-serif" font-size="16.129" opacity="1" text-anchor="middle">bench_group/blake3/65536</text><text x="27" y="263" fill="#000" dy=".76em" font-family="sans-serif" font-size="9.677" opacity="1" text-anchor="middle" transform="rotate(270, 27, 263)">Iterations (x 10^3)</text><text x="480" y="513" fill="#000" dy="-.5ex" font-family="sans-serif" font-size="9.677" opacity="1" text-anchor="middle">Average Time (us)</text><polyline fill="none" stroke="#000" stroke-width="1" points="86 53 86 473" opacity="1"/><text x="77" y="426" fill="#000" dy=".5ex" font-family="sans-serif" font-size="9.677" opacity="1" text-anchor="end">1</text><polyline fill="none" stroke="#000" stroke-width="1" points="81 426 86 426" opacity="1"/><text x="77" y="380" fill="#000" dy=".5ex" font-family="sans-serif" font-size="9.677" opacity="1" text-anchor="end">2</text><polyline fill="none" stroke="#000" stroke-width="1" points="81 380 86 380" opacity="1"/><text x="77" y="335" fill="#000" dy=".5ex" font-family="sans-serif" font-size="9.677" opacity="1" text-anchor="end">3</text><polyline fill="none" stroke="#000" stroke-width="1" points="81 335 86 335" opacity="1"/><text x="77" y="289" fill="#000" dy=".5ex" font-family="sans-serif" font-size="9.677" opacity="1" text-anchor="end">4</text><polyline fill="none" stroke="#000" stroke-width="1" points="81 289 86 289" opacity="1"/><text x="77" y="243" fill="#000" dy=".5ex" font-family="sans-serif" font-size="9.677" opacity="1" text-anchor="end">5</text><polyline fill="none" stroke="#000" stroke-width="1" points="81 243 86 243" opacity="1"/><text x="77" y="198" fill="#000" dy=".5ex" font-family="sans-serif" font-size="9.677" opacity="1" text-anchor="end">6</text><polyline fill="none" stroke="#000" stroke-width="1" points="81 198 86 198" opacity="1"/><text x="77" y="152" fill="#000" dy=".5ex" font-family="sans-serif" font-size="9.677" opacity="1" text-anchor="end">7</text><polyline fill="none" stroke="#000" stroke-width="1" points="81 152 86 152" opacity="1"/><text x="77" y="106" fill="#000" dy=".5ex" font-family="sans-serif" font-size="9.677" opacity="1" text-anchor="end">8</text><polyline fill="none" stroke="#000" stroke-width="1" points="81 106 86 106" opacity="1"/><text x="77" y="61" fill="#000" dy=".5ex" font-family="sans-serif" font-size="9.677" opacity="1" text-anchor="end">9</text><polyline fill="none" stroke="#000" stroke-width="1" points="81 61 86 61" opacity="1"/><polyline fill="none" stroke="#000" stroke-width="1" points="87 473 873 473" opacity="1"/><text x="129" y="483" fill="#000" dy=".76em" font-family="sans-serif" font-size="9.677" opacity="1" text-anchor="middle">10.8</text><polyline fill="none" stroke="#000" stroke-width="1" points="129 473 129 478" opacity="1"/><text x="217" y="483" fill="#000" dy=".76em" font-family="sans-serif" font-size="9.677" opacity="1" text-anchor="middle">10.85</text><polyline fill="none" stroke="#000" stroke-width="1" points="217 473 217 478" opacity="1"/><text x="306" y="483" fill="#000" dy=".76em" font-family="sans-serif" font-size="9.677" opacity="1" text-anchor="middle">10.9</text><polyline fill="none" stroke="#000" stroke-width="1" points="306 473 306 478" opacity="1"/><text x="395" y="483" fill="#000" dy=".76em" font-family="sans-serif" font-size="9.677" opacity="1" text-anchor="middle">10.95</text><polyline fill="none" stroke="#000" stroke-width="1" points="395 473 395 478" opacity="1"/><text x="483" y="483" fill="#000" dy=".76em" font-family="sans-serif" font-size="9.677" opacity="1" text-anchor="middle">11</text><polyline fill="none" stroke="#000" stroke-width="1" points="483 473 483 478" opacity="1"/><text x="572" y="483" fill="#000" dy=".76em" font-family="sans-serif" font-size="9.677" opacity="1" text-anchor="middle">11.05</text><polyline fill="none" stroke="#000" stroke-width="1" points="572 473 572 478" opacity="1"/><text x="661" y="483" fill="#000" dy=".76em" font-family="sans-serif" font-size="9.677" opacity="1" text-anchor="middle">11.1</text><polyline fill="none" stroke="#000" stroke-width="1" points="661 473 661 478" opacity="1"/><text x="749" y="483" fill="#000" dy=".76em" font-family="sans-serif" font-size="9.677" opacity="1" text-anchor="middle">11.15</text><polyline fill="none" stroke="#000" stroke-width="1" points="749 473 749 478" opacity="1"/><text x="838" y="483" fill="#000" dy=".76em" font-family="sans-serif" font-size="9.677" opacity="1" text-anchor="middle">11.2</text><polyline fill="none" stroke="#000" stroke-width="1" points="838 473 838 478" opacity="1"/><text x="933" y="263" fill="#000" dy=".76em" font-family="sans-serif" font-size="9.677" opacity="1" text-anchor="middle" transform="rotate(90, 933, 263)">Density (a.u.)</text><polyline fill="none" stroke="#000" stroke-width="1" points="873 54 873 473" opacity="1"/><text x="883" y="375" fill="#000" dy=".5ex" font-family="sans-serif" font-size="9.677" opacity="1" text-anchor="start">5</text><polyline fill="none" stroke="#000" stroke-width="1" points="873 375 878 375" opacity="1"/><text x="883" y="277" fill="#000" dy=".5ex" font-family="sans-serif" font-size="9.677" opacity="1" text-anchor="start">10</text><polyline fill="none" stroke="#000" stroke-width="1" points="873 277 878 277" opacity="1"/><text x="883" y="180" fill="#000" dy=".5ex" font-family="sans-serif" font-size="9.677" opacity="1" text-anchor="start">15</text><polyline fill="none" stroke="#000" stroke-width="1" points="873 180 878 180" opacity="1"/><text x="883" y="82" fill="#000" dy=".5ex" font-family="sans-serif" font-size="9.677" opacity="1" text-anchor="start">20</text><polyline fill="none" stroke="#000" stroke-width="1" points="873 82 878 82" opacity="1"/><polygon fill="#1F78B4" points="87 470 88 469 90 469 91 468 93 467 94 467 96 466 98 464 99 463 101 461 102 460 104 458 105 455 107 453 109 450 110 447 112 443 113 439 115 435 116 430 118 425 120 419 121 413 123 406 124 399 126 391 127 382 129 373 131 364 132 354 134 343 135 332 137 320 138 308 140 295 142 282 143 269 145 256 146 242 148 228 150 214 151 200 153 187 154 173 156 160 157 147 159 135 161 123 162 112 164 102 165 92 167 83 168 76 170 69 172 64 173 59 175 56 176 54 178 53 179 53 181 54 183 56 184 60 186 64 187 70 189 76 190 83 192 92 194 100 195 110 197 120 198 130 200 141 201 152 203 164 205 175 206 187 208 198 209 210 211 221 213 232 214 243 216 254 217 265 219 275 220 285 222 294 224 303 225 312 227 320 228 328 230 336 231 343 233 350 235 356 236 362 238 368 239 374 241 379 242 384 244 389 246 394 247 398 249 402 250 406 252 410 253 413 255 417 257 420 258 423 260 426 261 429 263 432 264 434 266 437 268 439 269 442 271 444 272 446 274 448 276 449 277 451 279 452 280 454 282 455 283 456 285 458 287 459 288 460 290 460 291 461 293 462 294 463 296 463 298 464 299 464 301 465 302 465 304 465 305 465 307 466 309 466 310 466 312 466 313 466 315 466 316 466 318 467 320 467 321 467 323 467 324 467 326 467 327 467 329 467 331 467 332 467 334 468 335 468 337 468 339 468 340 468 342 468 343 468 345 469 346 469 348 469 350 469 351 469 353 470 354 470 356 470 357 470 359 470 361 470 362 471 364 471 365 471 367 471 368 471 370 471 372 471 373 471 375 472 376 472 378 472 379 472 381 472 383 472 384 472 386 472 387 472 389 472 391 472 392 472 394 472 395 472 397 472 398 472 400 472 402 472 403 472 405 472 406 472 408 472 409 472 411 472 413 472 414 472 416 472 417 472 419 472 420 472 422 472 424 472 425 472 427 472 428 472 430 472 431 472 433 472 435 472 436 472 438 472 439 473 441 473 442 473 444 473 446 473 447 473 449 473 450 473 452 473 454 473 455 473 457 473 458 473 460 473 461 473 463 473 465 473 466 473 468 473 469 473 471 473 472 473 474 473 476 473 477 473 479 473 480 473 482 473 483 473 485 473 487 473 488 473 490 473 491 473 493 473 494 473 496 473 498 473 499 473 501 473 502 473 504 473 505 473 507 473 509 473 510 473 512 473 513 473 515 473 517 473 518 473 520 473 521 473 523 473 524 473 526 473 528 473 529 473 531 473 532 473 534 473 535 473 537 473 539 473 540 473 542 473 543 473 545 473 546 473 548 473 550 473 551 473 553 473 554 473 556 473 557 473 559 473 561 473 562 473 564 473 565 473 567 473 568 473 570 473 572 473 573 473 575 473 576 473 578 473 580 473 581 473 583 473 584 473 586 473 587 473 589 473 591 473 592 473 594 473 595 473 597 473 598 473 600 473 602 473 603 473 605 473 606 473 608 473 609 473 611 473 613 473 614 473 616 473 617 473 619 473 620 473 622 473 624 473 625 473 627 473 628 473 630 473 632 473 633 473 635 473 636 473 638 473 639 473 641 473 643 473 644 473 646 473 647 473 649 473 650 473 652 473 654 473 655 473 657 473 658 473 660 473 661 473 663 473 665 473 666 473 668 473 669 473 671 473 672 473 674 473 676 473 677 472 679 472 680 472 682 472 683 472 685 472 687 472 688 472 690 472 691 472 693 472 695 472 696 472 698 472 699 472 701 472 702 472 704 472 706 472 707 472 709 472 710 472 712 472 713 472 715 472 717 472 718 472 720 472 721 472 723 472 724 472 726 472 728 472 729 472 731 472 732 472 734 472 735 472 737 472 739 472 740 472 742 471 743 471 745 471 746 471 748 471 750 471 751 471 753 470 754 470 756 470 758 470 759 470 761 470 762 469 764 469 765 469 767 469 769 469 770 469 772 468 773 468 775 468 776 468 778 468 780 468 781 468 783 468 784 468 786 468 787 468 789 467 791 467 792 468 794 468 795 468 797 468 798 468 800 468 802 468 803 468 805 468 806 468 808 468 809 469 811 469 813 469 814 469 816 469 817 469 819 470 821 470 822 470 824 470 825 470 827 470 828 471 830 471 832 471 833 471 835 471 836 471 838 471 839 472 841 472 843 472 844 472 846 472 847 472 849 472 850 472 852 472 854 472 855 472 857 472 858 472 860 472 861 472 863 472 865 472 866 472 868 472 869 472 871 472 873 472 873 473 87 473" opacity=".5"/><polyline fill="none" stroke="#1F78B4" stroke-width="1" points="192 472 192 53" opacity="1"/><polyline fill="none" stroke="#FF7F00" stroke-width="1" points="147 472 147 53" opacity="1"/><polyline fill="none" stroke="#FF7F00" stroke-width="1" points="208 472 208 53" opacity="1"/><polyline fill="none" stroke="#E31A1C" stroke-width="1" points="125 472 125 53" opacity="1"/><polyline fill="none" stroke="#E31A1C" stroke-width="1" points="231 472 231 53" opacity="1"/><circle cx="195" cy="467" r="3" fill="#1F78B4" stroke="none" opacity="1"/><circle cx="196" cy="463" r="3" fill="#1F78B4" stroke="none" opacity="1"/><circle cx="204" cy="451" r="3" fill="#1F78B4" stroke="none" opacity="1"/><circle cx="187" cy="446" r="3" fill="#1F78B4" stroke="none" opacity="1"/><circle cx="183" cy="409" r="3" fill="#1F78B4" stroke="none" opacity="1"/><circle cx="188" cy="404" r="3" fill="#1F78B4" stroke="none" opacity="1"/><circle cx="186" cy="400" r="3" fill="#1F78B4" stroke="none" opacity="1"/><circle cx="184" cy="396" r="3" fill="#1F78B4" stroke="none" opacity="1"/><circle cx="188" cy="392" r="3" fill="#1F78B4" stroke="none" opacity="1"/><circle cx="171" cy="388" r="3" fill="#1F78B4" stroke="none" opacity="1"/><circle cx="171" cy="383" r="3" fill="#1F78B4" stroke="none" opacity="1"/><circle cx="173" cy="379" r="3" fill="#1F78B4" stroke="none" opacity="1"/><circle cx="170" cy="375" r="3" fill="#1F78B4" stroke="none" opacity="1"/><circle cx="171" cy="371" r="3" fill="#1F78B4" stroke="none" opacity="1"/><circle cx="170" cy="367" r="3" fill="#1F78B4" stroke="none" opacity="1"/><circle cx="171" cy="362" r="3" fill="#1F78B4" stroke="none" opacity="1"/><circle cx="171" cy="358" r="3" fill="#1F78B4" stroke="none" opacity="1"/><circle cx="171" cy="354" r="3" fill="#1F78B4" stroke="none" opacity="1"/><circle cx="171" cy="350" r="3" fill="#1F78B4" stroke="none" opacity="1"/><circle cx="170" cy="346" r="3" fill="#1F78B4" stroke="none" opacity="1"/><circle cx="172" cy="341" r="3" fill="#1F78B4" stroke="none" opacity="1"/><circle cx="169" cy="337" r="3" fill="#1F78B4" stroke="none" opacity="1"/><circle cx="169" cy="333" r="3" fill="#1F78B4" stroke="none" opacity="1"/><circle cx="172" cy="329" r="3" fill="#1F78B4" stroke="none" opacity="1"/><circle cx="174" cy="325" r="3" fill="#1F78B4" stroke="none" opacity="1"/><circle cx="170" cy="320" r="3" fill="#1F78B4" stroke="none" opacity="1"/><circle cx="171" cy="316" r="3" fill="#1F78B4" stroke="none" opacity="1"/><circle cx="171" cy="312" r="3" fill="#1F78B4" stroke="none" opacity="1"/><circle cx="172" cy="308" r="3" fill="#1F78B4" stroke="none" opacity="1"/><circle cx="170" cy="304" r="3" fill="#1F78B4" stroke="none" opacity="1"/><circle cx="169" cy="299" r="3" fill="#1F78B4" stroke="none" opacity="1"/><circle cx="170" cy="295" r="3" fill="#1F78B4" stroke="none" opacity="1"/><circle cx="170" cy="291" r="3" fill="#1F78B4" stroke="none" opacity="1"/><circle cx="170" cy="287" r="3" fill="#1F78B4" stroke="none" opacity="1"/><circle cx="170" cy="283" r="3" fill="#1F78B4" stroke="none" opacity="1"/><circle cx="181" cy="274" r="3" fill="#1F78B4" stroke="none" opacity="1"/><circle cx="177" cy="270" r="3" fill="#1F78B4" stroke="none" opacity="1"/><circle cx="171" cy="266" r="3" fill="#1F78B4" stroke="none" opacity="1"/><circle cx="169" cy="262" r="3" fill="#1F78B4" stroke="none" opacity="1"/><circle cx="170" cy="257" r="3" fill="#1F78B4" stroke="none" opacity="1"/><circle cx="170" cy="253" r="3" fill="#1F78B4" stroke="none" opacity="1"/><circle cx="170" cy="249" r="3" fill="#1F78B4" stroke="none" opacity="1"/><circle cx="170" cy="245" r="3" fill="#1F78B4" stroke="none" opacity="1"/><circle cx="170" cy="241" r="3" fill="#1F78B4" stroke="none" opacity="1"/><circle cx="169" cy="236" r="3" fill="#1F78B4" stroke="none" opacity="1"/><circle cx="171" cy="232" r="3" fill="#1F78B4" stroke="none" opacity="1"/><circle cx="173" cy="228" r="3" fill="#1F78B4" stroke="none" opacity="1"/><circle cx="170" cy="224" r="3" fill="#1F78B4" stroke="none" opacity="1"/><circle cx="170" cy="220" r="3" fill="#1F78B4" stroke="none" opacity="1"/><circle cx="170" cy="215" r="3" fill="#1F78B4" stroke="none" opacity="1"/><circle cx="170" cy="211" r="3" fill="#1F78B4" stroke="none" opacity="1"/><circle cx="170" cy="207" r="3" fill="#1F78B4" stroke="none" opacity="1"/><circle cx="169" cy="203" r="3" fill="#1F78B4" stroke="none" opacity="1"/><circle cx="193" cy="194" r="3" fill="#1F78B4" stroke="none" opacity="1"/><circle cx="185" cy="190" r="3" fill="#1F78B4" stroke="none" opacity="1"/><circle cx="170" cy="186" r="3" fill="#1F78B4" stroke="none" opacity="1"/><circle cx="171" cy="182" r="3" fill="#1F78B4" stroke="none" opacity="1"/><circle cx="170" cy="178" r="3" fill="#1F78B4" stroke="none" opacity="1"/><circle cx="180" cy="173" r="3" fill="#1F78B4" stroke="none" opacity="1"/><circle cx="184" cy="169" r="3" fill="#1F78B4" stroke="none" opacity="1"/><circle cx="183" cy="165" r="3" fill="#1F78B4" stroke="none" opacity="1"/><circle cx="183" cy="161" r="3" fill="#1F78B4" stroke="none" opacity="1"/><circle cx="182" cy="157" r="3" fill="#1F78B4" stroke="none" opacity="1"/><circle cx="182" cy="152" r="3" fill="#1F78B4" stroke="none" opacity="1"/><circle cx="182" cy="148" r="3" fill="#1F78B4" stroke="none" opacity="1"/><circle cx="182" cy="144" r="3" fill="#1F78B4" stroke="none" opacity="1"/><circle cx="186" cy="136" r="3" fill="#1F78B4" stroke="none" opacity="1"/><circle cx="185" cy="131" r="3" fill="#1F78B4" stroke="none" opacity="1"/><circle cx="185" cy="127" r="3" fill="#1F78B4" stroke="none" opacity="1"/><circle cx="186" cy="123" r="3" fill="#1F78B4" stroke="none" opacity="1"/><circle cx="185" cy="119" r="3" fill="#1F78B4" stroke="none" opacity="1"/><circle cx="187" cy="115" r="3" fill="#1F78B4" stroke="none" opacity="1"/><circle cx="185" cy="110" r="3" fill="#1F78B4" stroke="none" opacity="1"/><circle cx="182" cy="102" r="3" fill="#1F78B4" stroke="none" opacity="1"/><circle cx="182" cy="98" r="3" fill="#1F78B4" stroke="none" opacity="1"/><circle cx="182" cy="94" r="3" fill="#1F78B4" stroke="none" opacity="1"/><circle cx="184" cy="89" r="3" fill="#1F78B4" stroke="none" opacity="1"/><circle cx="182" cy="81" r="3" fill="#1F78B4" stroke="none" opacity="1"/><circle cx="184" cy="77" r="3" fill="#1F78B4" stroke="none" opacity="1"/><circle cx="182" cy="73" r="3" fill="#1F78B4" stroke="none" opacity="1"/><circle cx="183" cy="68" r="3" fill="#1F78B4" stroke="none" opacity="1"/><circle cx="182" cy="64" r="3" fill="#1F78B4" stroke="none" opacity="1"/><circle cx="182" cy="60" r="3" fill="#1F78B4" stroke="none" opacity="1"/><circle cx="182" cy="56" r="3" fill="#1F78B4" stroke="none" opacity="1"/><circle cx="181" cy="53" r="3" fill="#1F78B4" stroke="none" opacity="1"/><circle cx="223" cy="455" r="3" fill="#FF7F00" stroke="none" opacity="1"/><circle cx="223" cy="438" r="3" fill="#FF7F00" stroke="none" opacity="1"/><circle cx="228" cy="434" r="3" fill="#FF7F00" stroke="none" opacity="1"/><circle cx="222" cy="430" r="3" fill="#FF7F00" stroke="none" opacity="1"/><circle cx="227" cy="425" r="3" fill="#FF7F00" stroke="none" opacity="1"/><circle cx="227" cy="421" r="3" fill="#FF7F00" stroke="none" opacity="1"/><circle cx="227" cy="417" r="3" fill="#FF7F00" stroke="none" opacity="1"/><circle cx="230" cy="413" r="3" fill="#FF7F00" stroke="none" opacity="1"/><circle cx="232" cy="459" r="3" fill="#E31A1C" stroke="none" opacity="1"/><circle cx="790" cy="442" r="3" fill="#E31A1C" stroke="none" opacity="1"/><circle cx="258" cy="278" r="3" fill="#E31A1C" stroke="none" opacity="1"/><circle cx="245" cy="199" r="3" fill="#E31A1C" stroke="none" opacity="1"/><circle cx="234" cy="140" r="3" fill="#E31A1C" stroke="none" opacity="1"/><circle cx="325" cy="106" r="3" fill="#E31A1C" stroke="none" opacity="1"/><circle cx="249" cy="85" r="3" fill="#E31A1C" stroke="none" opacity="1"/><text x="776" y="228" fill="#000" dy=".76em" font-family="sans-serif" font-size="9.677" opacity="1" text-anchor="start">PDF</text><text x="776" y="243" fill="#000" dy=".76em" font-family="sans-serif" font-size="9.677" opacity="1" text-anchor="start">Mean</text><text x="776" y="258" fill="#000" dy=".76em" font-family="sans-serif" font-size="9.677" opacity="1" text-anchor="start">&quot;Clean&quot; sample</text><text x="776" y="273" fill="#000" dy=".76em" font-family="sans-serif" font-size="9.677" opacity="1" text-anchor="start">Mild outliers</text><text x="776" y="288" fill="#000" dy=".76em" font-family="sans-serif" font-size="9.677" opacity="1" text-anchor="start">Severe outliers</text><rect width="20" height="10" x="746" y="228" fill="#1F78B4" stroke="none" opacity=".5"/><polyline fill="none" stroke="#1F78B4" stroke-width="1" points="746 248 766 248" opacity="1"/><circle cx="756" cy="263" r="3" fill="#1F78B4" stroke="none" opacity="1"/><circle cx="756" cy="278" r="3" fill="#FF7F00" stroke="none" opacity="1"/><circle cx="756" cy="293" r="3" fill="#E31A1C" stroke="none" opacity="1"/></svg>