<svg xmlns="http://www.w3.org/2000/svg" width="960" height="540"><text x="480" y="32" fill="#000" dy=".76em" font-family="sans-serif" font-size="16.129" opacity="1" text-anchor="middle">bench_group/blake3/65536:slope</text><text x="27" y="263" fill="#000" dy=".76em" font-family="sans-serif" font-size="9.677" opacity="1" text-anchor="middle" transform="rotate(270, 27, 263)">Density (a.u.)</text><text x="510" y="513" fill="#000" dy="-.5ex" font-family="sans-serif" font-size="9.677" opacity="1" text-anchor="middle">Average time (us)</text><polyline fill="none" stroke="#000" stroke-width="1" points="86 53 86 473" opacity="1"/><text x="77" y="447" fill="#000" dy=".5ex" font-family="sans-serif" font-size="9.677" opacity="1" text-anchor="end">20</text><polyline fill="none" stroke="#000" stroke-width="1" points="81 447 86 447" opacity="1"/><text x="77" y="404" fill="#000" dy=".5ex" font-family="sans-serif" font-size="9.677" opacity="1" text-anchor="end">40</text><polyline fill="none" stroke="#000" stroke-width="1" points="81 404 86 404" opacity="1"/><text x="77" y="362" fill="#000" dy=".5ex" font-family="sans-serif" font-size="9.677" opacity="1" text-anchor="end">60</text><polyline fill="none" stroke="#000" stroke-width="1" points="81 362 86 362" opacity="1"/><text x="77" y="319" fill="#000" dy=".5ex" font-family="sans-serif" font-size="9.677" opacity="1" text-anchor="end">80</text><polyline fill="none" stroke="#000" stroke-width="1" points="81 319 86 319" opacity="1"/><text x="77" y="277" fill="#000" dy=".5ex" font-family="sans-serif" font-size="9.677" opacity="1" text-anchor="end">100</text><polyline fill="none" stroke="#000" stroke-width="1" points="81 277 86 277" opacity="1"/><text x="77" y="234" fill="#000" dy=".5ex" font-family="sans-serif" font-size="9.677" opacity="1" text-anchor="end">120</text><polyline fill="none" stroke="#000" stroke-width="1" points="81 234 86 234" opacity="1"/><text x="77" y="192" fill="#000" dy=".5ex" font-family="sans-serif" font-size="9.677" opacity="1" text-anchor="end">140</text><polyline fill="none" stroke="#000" stroke-width="1" points="81 192 86 192" opacity="1"/><text x="77" y="149" fill="#000" dy=".5ex" font-family="sans-serif" font-size="9.677" opacity="1" text-anchor="end">160</text><polyline fill="none" stroke="#000" stroke-width="1" points="81 149 86 149" opacity="1"/><text x="77" y="107" fill="#000" dy=".5ex" font-family="sans-serif" font-size="9.677" opacity="1" text-anchor="end">180</text><polyline fill="none" stroke="#000" stroke-width="1" points="81 107 86 107" opacity="1"/><text x="77" y="64" fill="#000" dy=".5ex" font-family="sans-serif" font-size="9.677" opacity="1" text-anchor="end">200</text><polyline fill="none" stroke="#000" stroke-width="1" points="81 64 86 64" opacity="1"/><polyline fill="none" stroke="#000" stroke-width="1" points="87 473 933 473" opacity="1"/><text x="149" y="483" fill="#000" dy=".76em" font-family="sans-serif" font-size="9.677" opacity="1" text-anchor="middle">10.829</text><polyline fill="none" stroke="#000" stroke-width="1" points="149 473 149 478" opacity="1"/><text x="233" y="483" fill="#000" dy=".76em" font-family="sans-serif" font-size="9.677" opacity="1" text-anchor="middle">10.83</text><polyline fill="none" stroke="#000" stroke-width="1" points="233 473 233 478" opacity="1"/><text x="317" y="483" fill="#000" dy=".76em" font-family="sans-serif" font-size="9.677" opacity="1" text-anchor="middle">10.831</text><polyline fill="none" stroke="#000" stroke-width="1" points="317 473 317 478" opacity="1"/><text x="401" y="483" fill="#000" dy=".76em" font-family="sans-serif" font-size="9.677" opacity="1" text-anchor="middle">10.832</text><polyline fill="none" stroke="#000" stroke-width="1" points="401 473 401 478" opacity="1"/><text x="484" y="483" fill="#000" dy=".76em" font-family="sans-serif" font-size="9.677" opacity="1" text-anchor="middle">10.833</text><polyline fill="none" stroke="#000" stroke-width="1" points="484 473 484 478" opacity="1"/><text x="568" y="483" fill="#000" dy=".76em" font-family="sans-serif" font-size="9.677" opacity="1" text-anchor="middle">10.834</text><polyline fill="none" stroke="#000" stroke-width="1" points="568 473 568 478" opacity="1"/><text x="652" y="483" fill="#000" dy=".76em" font-family="sans-serif" font-size="9.677" opacity="1" text-anchor="middle">10.835</text><polyline fill="none" stroke="#000" stroke-width="1" points="652 473 652 478" opacity="1"/><text x="736" y="483" fill="#000" dy=".76em" font-family="sans-serif" font-size="9.677" opacity="1" text-anchor="middle">10.836</text><polyline fill="none" stroke="#000" stroke-width="1" points="736 473 736 478" opacity="1"/><text x="820" y="483" fill="#000" dy=".76em" font-family="sans-serif" font-size="9.677" opacity="1" text-anchor="middle">10.837</text><polyline fill="none" stroke="#000" stroke-width="1" points="820 473 820 478" opacity="1"/><text x="903" y="483" fill="#000" dy=".76em" font-family="sans-serif" font-size="9.677" opacity="1" text-anchor="middle">10.838</text><polyline fill="none" stroke="#000" stroke-width="1" points="903 473 903 478" opacity="1"/><polyline fill="none" stroke="#1F78B4" stroke-width="1" points="87 472 88 470 90 469 92 468 93 467 95 466 97 464 98 463 100 462 102 460 103 459 105 457 107 456 109 454 110 453 112 451 114 449 115 447 117 446 119 444 120 442 122 440 124 438 125 436 127 434 129 432 131 430 132 428 134 426 136 424 137 422 139 419 141 417 142 415 144 412 146 410 148 408 149 405 151 403 153 400 154 397 156 395 158 392 159 390 161 387 163 384 164 381 166 379 168 376 170 373 171 370 173 367 175 364 176 362 178 359 180 356 181 353 183 350 185 347 187 344 188 341 190 338 192 335 193 332 195 329 197 326 198 323 200 320 202 317 203 314 205 311 207 308 209 306 210 303 212 300 214 298 215 295 217 293 219 290 220 288 222 285 224 283 226 280 227 278 229 276 231 273 232 271 234 269 236 266 237 264 239 261 241 259 242 256 244 254 246 251 248 249 249 246 251 243 253 241 254 238 256 235 258 232 259 229 261 226 263 223 265 221 266 218 268 215 270 212 271 209 273 206 275 203 276 200 278 197 280 194 281 191 283 188 285 186 287 183 288 180 290 178 292 175 293 172 295 170 297 167 298 165 300 162 302 160 304 157 305 155 307 153 309 150 310 148 312 146 314 144 315 141 317 139 319 137 320 135 322 133 324 131 326 129 327 127 329 125 331 123 332 122 334 120 336 118 337 116 339 115 341 113 343 112 344 110 346 109 348 107 349 106 351 104 353 103 354 102 356 100 358 99 359 98 361 97 363 96 365 95 366 95 368 94 370 93 371 93 373 92 375 92 376 92 378 92 380 91 381 91 383 91 385 91 387 91 388 91 390 91 392 92 393 92 395 92 397 92 398 92 400 92 402 92 404 92 405 92 407 93 409 93 410 93 412 93 414 93 415 93 417 94 419 94 420 94 422 94 424 95 426 95 427 95 429 95 431 96 432 96 434 96 436 96 437 97 439 97 441 97 443 98 444 98 446 98 448 99 449 99 451 100 453 100 454 101 456 102 458 103 459 103 461 104 463 105 465 106 466 107 468 108 470 109 471 110 473 111 475 112 476 114 478 115 480 116 482 117 483 119 485 120 487 121 488 122 490 124 492 125 493 126 495 128 497 129 498 131 500 132 502 134 504 135 505 137 507 138 509 140 510 142 512 143 514 145 515 147 517 148 519 150 521 152 522 154 524 156 526 157 527 159 529 161 531 163 532 165 534 167 536 169 537 171 539 173 541 175 543 177 544 179 546 181 548 183 549 185 551 187 553 189 554 191 556 193 558 195 560 196 561 198 563 200 565 202 566 204 568 206 570 207 571 209 573 211 575 212 576 214 578 216 580 218 582 219 583 221 585 223 587 225 588 227 590 228 592 230 593 232 595 234 597 236 599 238 600 240 602 242 604 244 605 247 607 249 609 251 610 253 612 255 614 257 615 260 617 262 619 264 621 266 622 268 624 270 626 272 627 274 629 276 631 278 632 280 634 282 636 284 638 286 639 288 641 290 643 292 644 294 646 296 648 298 649 300 651 302 653 303 654 305 656 307 658 309 660 311 661 313 663 315 665 316 666 318 668 320 670 322 671 323 673 325 675 327 676 328 678 330 680 332 682 333 683 335 685 336 687 338 688 339 690 341 692 342 693 344 695 345 697 346 699 348 700 349 702 351 704 352 705 353 707 355 709 356 710 357 712 359 714 360 715 361 717 362 719 364 721 365 722 366 724 367 726 369 727 370 729 371 731 373 732 374 734 375 736 376 738 378 739 379 741 380 743 381 744 383 746 384 748 385 749 386 751 388 753 389 754 390 756 391 758 392 760 393 761 394 763 396 765 397 766 398 768 399 770 400 771 401 773 402 775 403 777 404 778 405 780 406 782 407 783 408 785 409 787 410 788 412 790 413 792 414 793 415 795 416 797 417 799 418 800 419 802 420 804 421 805 422 807 423 809 424 810 424 812 425 814 426 816 427 817 428 819 429 821 430 822 431 824 432 826 433 827 434 829 435 831 436 832 437 834 438 836 438 838 439 839 440 841 441 843 442 844 443 846 444 848 444 849 445 851 446 853 446 855 447 856 448 858 448 860 449 861 449 863 450 865 450 866 451 868 451 870 452 871 452 873 453 875 453 877 453 878 454 880 454 882 455 883 455 885 455 887 456 888 456 890 457 892 457 894 457 895 458 897 458 899 459 900 459 902 460 904 460 905 461 907 461 909 462 910 462 912 463 914 463 916 464 917 464 919 465 921 465 922 466 924 466 926 467 927 467 929 467 931 468 933 468" opacity="1"/><polygon fill="#1F78B4" points="164 381 166 379 168 376 170 373 171 370 173 367 175 364 176 362 178 359 180 356 181 353 183 350 185 347 187 344 188 341 190 338 192 335 193 332 195 329 197 326 198 323 200 320 202 317 203 314 205 311 207 308 209 306 210 303 212 300 214 298 215 295 217 293 219 290 220 288 222 285 224 283 226 280 227 278 229 276 231 273 232 271 234 269 236 266 237 264 239 261 241 259 242 256 244 254 246 251 248 249 249 246 251 243 253 241 254 238 256 235 258 232 259 229 261 226 263 223 265 221 266 218 268 215 270 212 271 209 273 206 275 203 276 200 278 197 280 194 281 191 283 188 285 186 287 183 288 180 290 178 292 175 293 172 295 170 297 167 298 165 300 162 302 160 304 157 305 155 307 153 309 150 310 148 312 146 314 144 315 141 317 139 319 137 320 135 322 133 324 131 326 129 327 127 329 125 331 123 332 122 334 120 336 118 337 116 339 115 341 113 343 112 344 110 346 109 348 107 349 106 351 104 353 103 354 102 356 100 358 99 359 98 361 97 363 96 365 95 366 95 368 94 370 93 371 93 373 92 375 92 376 92 378 92 380 91 381 91 383 91 385 91 387 91 388 91 390 91 392 92 393 92 395 92 397 92 398 92 400 92 402 92 404 92 405 92 407 93 409 93 410 93 412 93 414 93 415 93 417 94 419 94 420 94 422 94 424 95 426 95 427 95 429 95 431 96 432 96 434 96 436 96 437 97 439 97 441 97 443 98 444 98 446 98 448 99 449 99 451 100 453 100 454 101 456 102 458 103 459 103 461 104 463 105 465 106 466 107 468 108 470 109 471 110 473 111 475 112 476 114 478 115 480 116 482 117 483 119 485 120 487 121 488 122 490 124 492 125 493 126 495 128 497 129 498 131 500 132 502 134 504 135 505 137 507 138 509 140 510 142 512 143 514 145 515 147 517 148 519 150 521 152 522 154 524 156 526 157 527 159 529 161 531 163 532 165 534 167 536 169 537 171 539 173 541 175 543 177 544 179 546 181 548 183 549 185 551 187 553 189 554 191 556 193 558 195 560 196 561 198 563 200 565 202 566 204 568 206 570 207 571 209 573 211 575 212 576 214 578 216 580 218 582 219 583 221 585 223 587 225 588 227 590 228 592 230 593 232 595 234 597 236 599 238 600 240 602 242 604 244 605 247 607 249 609 251 610 253 612 255 614 257 615 260 617 262 619 264 621 266 622 268 624 270 626 272 627 274 629 276 631 278 632 280 634 282 636 284 638 286 639 288 641 290 643 292 644 294 646 296 648 298 649 300 651 302 653 303 654 305 656 307 658 309 660 311 661 313 663 315 665 316 666 318 668 320 670 322 671 323 673 325 675 327 676 328 678 330 680 332 682 333 683 335 685 336 687 338 688 339 690 341 692 342 693 344 695 345 697 346 699 348 700 349 702 351 704 352 705 353 707 355 709 356 710 357 712 359 714 360 715 361 717 362 719 364 721 365 722 366 724 367 726 369 727 370 729 371 731 373 732 374 734 375 736 376 738 378 739 379 741 380 743 381 744 383 746 384 748 385 749 386 751 388 753 389 754 390 756 391 758 392 760 393 761 394 763 396 765 397 766 398 768 399 770 400 771 401 773 402 775 403 777 404 778 405 780 406 782 407 783 408 785 409 787 410 788 412 790 413 792 414 793 415 795 416 797 417 799 418 800 419 802 420 804 421 805 422 807 423 809 424 810 424 812 425 814 426 816 427 817 428 819 429 821 430 822 431 824 432 826 433 827 434 829 435 831 436 832 437 834 438 836 438 838 439 839 440 841 441 843 442 844 443 846 444 848 444 849 445 851 446 853 446 853 473 164 473" opacity=".25"/><polyline fill="none" stroke="#1F78B4" stroke-width="3" points="463 473 463 105" opacity="1"/><text x="798" y="68" fill="#000" dy=".76em" font-family="sans-serif" font-size="9.677" opacity="1" text-anchor="start">Bootstrap distribution</text><text x="798" y="83" fill="#000" dy=".76em" font-family="sans-serif" font-size="9.677" opacity="1" text-anchor="start">Confidence interval</text><text x="798" y="98" fill="#000" dy=".76em" font-family="sans-serif" font-size="9.677" opacity="1" text-anchor="start">Point estimate</text><polyline fill="none" stroke="#1F78B4" stroke-width="1" points="768 73 788 73" opacity="1"/><rect width="20" height="10" x="768" y="83" fill="#1F78B4" stroke="none" opacity=".25"/><polyline fill="none" stroke="#1F78B4" stroke-width="1" points="768 103 788 103" opacity="1"/></svg>