<svg xmlns="http://www.w3.org/2000/svg" width="960" height="540"><text x="480" y="32" fill="#000" dy=".76em" font-family="sans-serif" font-size="16.129" opacity="1" text-anchor="middle">bench_group/threads_16/131072</text><text x="27" y="263" fill="#000" dy=".76em" font-family="sans-serif" font-size="9.677" opacity="1" text-anchor="middle" transform="rotate(270, 27, 263)">Total sample time (ms)</text><text x="510" y="513" fill="#000" dy="-.5ex" font-family="sans-serif" font-size="9.677" opacity="1" text-anchor="middle">Iterations (x 10^3)</text><line x1="176" x2="176" y1="472" y2="52" stroke="#000" stroke-width="1" opacity=".2"/><line x1="274" x2="274" y1="472" y2="52" stroke="#000" stroke-width="1" opacity=".2"/><line x1="373" x2="373" y1="472" y2="52" stroke="#000" stroke-width="1" opacity=".2"/><line x1="471" x2="471" y1="472" y2="52" stroke="#000" stroke-width="1" opacity=".2"/><line x1="569" x2="569" y1="472" y2="52" stroke="#000" stroke-width="1" opacity=".2"/><line x1="667" x2="667" y1="472" y2="52" stroke="#000" stroke-width="1" opacity=".2"/><line x1="766" x2="766" y1="472" y2="52" stroke="#000" stroke-width="1" opacity=".2"/><line x1="864" x2="864" y1="472" y2="52" stroke="#000" stroke-width="1" opacity=".2"/><line x1="87" x2="933" y1="430" y2="430" stroke="#000" stroke-width="1" opacity=".2"/><line x1="87" x2="933" y1="385" y2="385" stroke="#000" stroke-width="1" opacity=".2"/><line x1="87" x2="933" y1="339" y2="339" stroke="#000" stroke-width="1" opacity=".2"/><line x1="87" x2="933" y1="293" y2="293" stroke="#000" stroke-width="1" opacity=".2"/><line x1="87" x2="933" y1="248" y2="248" stroke="#000" stroke-width="1" opacity=".2"/><line x1="87" x2="933" y1="202" y2="202" stroke="#000" stroke-width="1" opacity=".2"/><line x1="87" x2="933" y1="156" y2="156" stroke="#000" stroke-width="1" opacity=".2"/><line x1="87" x2="933" y1="111" y2="111" stroke="#000" stroke-width="1" opacity=".2"/><line x1="87" x2="933" y1="65" y2="65" stroke="#000" stroke-width="1" opacity=".2"/><polyline fill="none" stroke="#000" stroke-width="1" points="86 53 86 473" opacity="1"/><text x="77" y="430" fill="#000" dy=".5ex" font-family="sans-serif" font-size="9.677" opacity="1" text-anchor="end">10.0</text><polyline fill="none" stroke="#000" stroke-width="1" points="81 430 86 430" opacity="1"/><text x="77" y="385" fill="#000" dy=".5ex" font-family="sans-serif" font-size="9.677" opacity="1" text-anchor="end">20.0</text><polyline fill="none" stroke="#000" stroke-width="1" points="81 385 86 385" opacity="1"/><text x="77" y="339" fill="#000" dy=".5ex" font-family="sans-serif" font-size="9.677" opacity="1" text-anchor="end">30.0</text><polyline fill="none" stroke="#000" stroke-width="1" points="81 339 86 339" opacity="1"/><text x="77" y="293" fill="#000" dy=".5ex" font-family="sans-serif" font-size="9.677" opacity="1" text-anchor="end">40.0</text><polyline fill="none" stroke="#000" stroke-width="1" points="81 293 86 293" opacity="1"/><text x="77" y="248" fill="#000" dy=".5ex" font-family="sans-serif" font-size="9.677" opacity="1" text-anchor="end">50.0</text><polyline fill="none" stroke="#000" stroke-width="1" points="81 248 86 248" opacity="1"/><text x="77" y="202" fill="#000" dy=".5ex" font-family="sans-serif" font-size="9.677" opacity="1" text-anchor="end">60.0</text><polyline fill="none" stroke="#000" stroke-width="1" points="81 202 86 202" opacity="1"/><text x="77" y="156" fill="#000" dy=".5ex" font-family="sans-serif" font-size="9.677" opacity="1" text-anchor="end">70.0</text><polyline fill="none" stroke="#000" stroke-width="1" points="81 156 86 156" opacity="1"/><text x="77" y="111" fill="#000" dy=".5ex" font-family="sans-serif" font-size="9.677" opacity="1" text-anchor="end">80.0</text><polyline fill="none" stroke="#000" stroke-width="1" points="81 111 86 111" opacity="1"/><text x="77" y="65" fill="#000" dy=".5ex" font-family="sans-serif" font-size="9.677" opacity="1" text-anchor="end">90.0</text><polyline fill="none" stroke="#000" stroke-width="1" points="81 65 86 65" opacity="1"/><polyline fill="none" stroke="#000" stroke-width="1" points="87 473 933 473" opacity="1"/><text x="176" y="483" fill="#000" dy=".76em" font-family="sans-serif" font-size="9.677" opacity="1" text-anchor="middle">1</text><polyline fill="none" stroke="#000" stroke-width="1" points="176 473 176 478" opacity="1"/><text x="274" y="483" fill="#000" dy=".76em" font-family="sans-serif" font-size="9.677" opacity="1" text-anchor="middle">2</text><polyline fill="none" stroke="#000" stroke-width="1" points="274 473 274 478" opacity="1"/><text x="373" y="483" fill="#000" dy=".76em" font-family="sans-serif" font-size="9.677" opacity="1" text-anchor="middle">3</text><polyline fill="none" stroke="#000" stroke-width="1" points="373 473 373 478" opacity="1"/><text x="471" y="483" fill="#000" dy=".76em" font-family="sans-serif" font-size="9.677" opacity="1" text-anchor="middle">4</text><polyline fill="none" stroke="#000" stroke-width="1" points="471 473 471 478" opacity="1"/><text x="569" y="483" fill="#000" dy=".76em" font-family="sans-serif" font-size="9.677" opacity="1" text-anchor="middle">5</text><polyline fill="none" stroke="#000" stroke-width="1" points="569 473 569 478" opacity="1"/><text x="667" y="483" fill="#000" dy=".76em" font-family="sans-serif" font-size="9.677" opacity="1" text-anchor="middle">6</text><polyline fill="none" stroke="#000" stroke-width="1" points="667 473 667 478" opacity="1"/><text x="766" y="483" fill="#000" dy=".76em" font-family="sans-serif" font-size="9.677" opacity="1" text-anchor="middle">7</text><polyline fill="none" stroke="#000" stroke-width="1" points="766 473 766 478" opacity="1"/><text x="864" y="483" fill="#000" dy=".76em" font-family="sans-serif" font-size="9.677" opacity="1" text-anchor="middle">8</text><polyline fill="none" stroke="#000" stroke-width="1" points="864 473 864 478" opacity="1"/><circle cx="87" cy="472" r="3" fill="#1F78B4" stroke="none" opacity="1"/><circle cx="95" cy="469" r="3" fill="#1F78B4" stroke="none" opacity="1"/><circle cx="104" cy="465" r="3" fill="#1F78B4" stroke="none" opacity="1"/><circle cx="112" cy="461" r="3" fill="#1F78B4" stroke="none" opacity="1"/><circle cx="121" cy="458" r="3" fill="#1F78B4" stroke="none" opacity="1"/><circle cx="129" cy="454" r="3" fill="#1F78B4" stroke="none" opacity="1"/><circle cx="138" cy="450" r="3" fill="#1F78B4" stroke="none" opacity="1"/><circle cx="146" cy="447" r="3" fill="#1F78B4" stroke="none" opacity="1"/><circle cx="155" cy="442" r="3" fill="#1F78B4" stroke="none" opacity="1"/><circle cx="163" cy="439" r="3" fill="#1F78B4" stroke="none" opacity="1"/><circle cx="172" cy="436" r="3" fill="#1F78B4" stroke="none" opacity="1"/><circle cx="181" cy="431" r="3" fill="#1F78B4" stroke="none" opacity="1"/><circle cx="189" cy="429" r="3" fill="#1F78B4" stroke="none" opacity="1"/><circle cx="198" cy="424" r="3" fill="#1F78B4" stroke="none" opacity="1"/><circle cx="206" cy="421" r="3" fill="#1F78B4" stroke="none" opacity="1"/><circle cx="215" cy="418" r="3" fill="#1F78B4" stroke="none" opacity="1"/><circle cx="223" cy="414" r="3" fill="#1F78B4" stroke="none" opacity="1"/><circle cx="232" cy="410" r="3" fill="#1F78B4" stroke="none" opacity="1"/><circle cx="240" cy="407" r="3" fill="#1F78B4" stroke="none" opacity="1"/><circle cx="249" cy="404" r="3" fill="#1F78B4" stroke="none" opacity="1"/><circle cx="257" cy="399" r="3" fill="#1F78B4" stroke="none" opacity="1"/><circle cx="266" cy="396" r="3" fill="#1F78B4" stroke="none" opacity="1"/><circle cx="275" cy="392" r="3" fill="#1F78B4" stroke="none" opacity="1"/><circle cx="283" cy="388" r="3" fill="#1F78B4" stroke="none" opacity="1"/><circle cx="292" cy="385" r="3" fill="#1F78B4" stroke="none" opacity="1"/><circle cx="300" cy="381" r="3" fill="#1F78B4" stroke="none" opacity="1"/><circle cx="309" cy="376" r="3" fill="#1F78B4" stroke="none" opacity="1"/><circle cx="317" cy="375" r="3" fill="#1F78B4" stroke="none" opacity="1"/><circle cx="326" cy="370" r="3" fill="#1F78B4" stroke="none" opacity="1"/><circle cx="334" cy="367" r="3" fill="#1F78B4" stroke="none" opacity="1"/><circle cx="343" cy="363" r="3" fill="#1F78B4" stroke="none" opacity="1"/><circle cx="351" cy="334" r="3" fill="#1F78B4" stroke="none" opacity="1"/><circle cx="360" cy="355" r="3" fill="#1F78B4" stroke="none" opacity="1"/><circle cx="369" cy="353" r="3" fill="#1F78B4" stroke="none" opacity="1"/><circle cx="377" cy="347" r="3" fill="#1F78B4" stroke="none" opacity="1"/><circle cx="386" cy="345" r="3" fill="#1F78B4" stroke="none" opacity="1"/><circle cx="394" cy="343" r="3" fill="#1F78B4" stroke="none" opacity="1"/><circle cx="403" cy="339" r="3" fill="#1F78B4" stroke="none" opacity="1"/><circle cx="411" cy="333" r="3" fill="#1F78B4" stroke="none" opacity="1"/><circle cx="420" cy="331" r="3" fill="#1F78B4" stroke="none" opacity="1"/><circle cx="428" cy="325" r="3" fill="#1F78B4" stroke="none" opacity="1"/><circle cx="437" cy="325" r="3" fill="#1F78B4" stroke="none" opacity="1"/><circle cx="445" cy="319" r="3" fill="#1F78B4" stroke="none" opacity="1"/><circle cx="454" cy="319" r="3" fill="#1F78B4" stroke="none" opacity="1"/><circle cx="463" cy="314" r="3" fill="#1F78B4" stroke="none" opacity="1"/><circle cx="471" cy="309" r="3" fill="#1F78B4" stroke="none" opacity="1"/><circle cx="480" cy="305" r="3" fill="#1F78B4" stroke="none" opacity="1"/><circle cx="488" cy="301" r="3" fill="#1F78B4" stroke="none" opacity="1"/><circle cx="497" cy="298" r="3" fill="#1F78B4" stroke="none" opacity="1"/><circle cx="505" cy="259" r="3" fill="#1F78B4" stroke="none" opacity="1"/><circle cx="514" cy="292" r="3" fill="#1F78B4" stroke="none" opacity="1"/><circle cx="522" cy="287" r="3" fill="#1F78B4" stroke="none" opacity="1"/><circle cx="531" cy="283" r="3" fill="#1F78B4" stroke="none" opacity="1"/><circle cx="539" cy="282" r="3" fill="#1F78B4" stroke="none" opacity="1"/><circle cx="548" cy="277" r="3" fill="#1F78B4" stroke="none" opacity="1"/><circle cx="557" cy="274" r="3" fill="#1F78B4" stroke="none" opacity="1"/><circle cx="565" cy="270" r="3" fill="#1F78B4" stroke="none" opacity="1"/><circle cx="574" cy="267" r="3" fill="#1F78B4" stroke="none" opacity="1"/><circle cx="582" cy="264" r="3" fill="#1F78B4" stroke="none" opacity="1"/><circle cx="591" cy="259" r="3" fill="#1F78B4" stroke="none" opacity="1"/><circle cx="599" cy="257" r="3" fill="#1F78B4" stroke="none" opacity="1"/><circle cx="608" cy="254" r="3" fill="#1F78B4" stroke="none" opacity="1"/><circle cx="616" cy="226" r="3" fill="#1F78B4" stroke="none" opacity="1"/><circle cx="625" cy="242" r="3" fill="#1F78B4" stroke="none" opacity="1"/><circle cx="633" cy="238" r="3" fill="#1F78B4" stroke="none" opacity="1"/><circle cx="642" cy="237" r="3" fill="#1F78B4" stroke="none" opacity="1"/><circle cx="651" cy="234" r="3" fill="#1F78B4" stroke="none" opacity="1"/><circle cx="659" cy="230" r="3" fill="#1F78B4" stroke="none" opacity="1"/><circle cx="668" cy="230" r="3" fill="#1F78B4" stroke="none" opacity="1"/><circle cx="676" cy="225" r="3" fill="#1F78B4" stroke="none" opacity="1"/><circle cx="685" cy="220" r="3" fill="#1F78B4" stroke="none" opacity="1"/><circle cx="693" cy="216" r="3" fill="#1F78B4" stroke="none" opacity="1"/><circle cx="702" cy="213" r="3" fill="#1F78B4" stroke="none" opacity="1"/><circle cx="710" cy="173" r="3" fill="#1F78B4" stroke="none" opacity="1"/><circle cx="719" cy="205" r="3" fill="#1F78B4" stroke="none" opacity="1"/><circle cx="727" cy="202" r="3" fill="#1F78B4" stroke="none" opacity="1"/><circle cx="736" cy="197" r="3" fill="#1F78B4" stroke="none" opacity="1"/><circle cx="745" cy="196" r="3" fill="#1F78B4" stroke="none" opacity="1"/><circle cx="753" cy="189" r="3" fill="#1F78B4" stroke="none" opacity="1"/><circle cx="762" cy="186" r="3" fill="#1F78B4" stroke="none" opacity="1"/><circle cx="770" cy="183" r="3" fill="#1F78B4" stroke="none" opacity="1"/><circle cx="779" cy="180" r="3" fill="#1F78B4" stroke="none" opacity="1"/><circle cx="787" cy="171" r="3" fill="#1F78B4" stroke="none" opacity="1"/><circle cx="796" cy="173" r="3" fill="#1F78B4" stroke="none" opacity="1"/><circle cx="804" cy="169" r="3" fill="#1F78B4" stroke="none" opacity="1"/><circle cx="813" cy="164" r="3" fill="#1F78B4" stroke="none" opacity="1"/><circle cx="821" cy="165" r="3" fill="#1F78B4" stroke="none" opacity="1"/><circle cx="830" cy="159" r="3" fill="#1F78B4" stroke="none" opacity="1"/><circle cx="839" cy="154" r="3" fill="#1F78B4" stroke="none" opacity="1"/><circle cx="847" cy="152" r="3" fill="#1F78B4" stroke="none" opacity="1"/><circle cx="856" cy="148" r="3" fill="#1F78B4" stroke="none" opacity="1"/><circle cx="864" cy="108" r="3" fill="#1F78B4" stroke="none" opacity="1"/><circle cx="873" cy="139" r="3" fill="#1F78B4" stroke="none" opacity="1"/><circle cx="881" cy="136" r="3" fill="#1F78B4" stroke="none" opacity="1"/><circle cx="890" cy="133" r="3" fill="#1F78B4" stroke="none" opacity="1"/><circle cx="898" cy="129" r="3" fill="#1F78B4" stroke="none" opacity="1"/><circle cx="907" cy="126" r="3" fill="#1F78B4" stroke="none" opacity="1"/><circle cx="915" cy="123" r="3" fill="#1F78B4" stroke="none" opacity="1"/><circle cx="924" cy="117" r="3" fill="#1F78B4" stroke="none" opacity="1"/><circle cx="933" cy="53" r="3" fill="#1F78B4" stroke="none" opacity="1"/><polyline fill="none" stroke="#1F78B4" stroke-width="1" points="87 473 933 110" opacity="1"/><polygon fill="#1F78B4" points="87 473 933 114 933 105" opacity=".25"/><text x="132" y="68" fill="#000" dy=".76em" font-family="sans-serif" font-size="9.677" opacity="1" text-anchor="start">Sample</text><text x="132" y="83" fill="#000" dy=".76em" font-family="sans-serif" font-size="9.677" opacity="1" text-anchor="start">Linear regression</text><text x="132" y="98" fill="#000" dy=".76em" font-family="sans-serif" font-size="9.677" opacity="1" text-anchor="start">Confidence interval</text><circle cx="112" cy="73" r="3" fill="#1F78B4" stroke="none" opacity="1"/><polyline fill="none" stroke="#1F78B4" stroke-width="2" points="102 88 122 88" opacity="1"/><rect width="20" height="10" x="102" y="98" fill="#1F78B4" stroke="none" opacity=".25"/></svg>