<svg xmlns="http://www.w3.org/2000/svg" width="960" height="540"><text x="480" y="32" fill="#000" dy=".76em" font-family="sans-serif" font-size="16.129" opacity="1" text-anchor="middle">bench_group/blake3/256:slope</text><text x="27" y="263" fill="#000" dy=".76em" font-family="sans-serif" font-size="9.677" opacity="1" text-anchor="middle" transform="rotate(270, 27, 263)">Density (a.u.)</text><text x="510" y="513" fill="#000" dy="-.5ex" font-family="sans-serif" font-size="9.677" opacity="1" text-anchor="middle">Average time (ns)</text><polyline fill="none" stroke="#000" stroke-width="1" points="86 53 86 473" opacity="1"/><text x="77" y="435" fill="#000" dy=".5ex" font-family="sans-serif" font-size="9.677" opacity="1" text-anchor="end">2</text><polyline fill="none" stroke="#000" stroke-width="1" points="81 435 86 435" opacity="1"/><text x="77" y="375" fill="#000" dy=".5ex" font-family="sans-serif" font-size="9.677" opacity="1" text-anchor="end">4</text><polyline fill="none" stroke="#000" stroke-width="1" points="81 375 86 375" opacity="1"/><text x="77" y="315" fill="#000" dy=".5ex" font-family="sans-serif" font-size="9.677" opacity="1" text-anchor="end">6</text><polyline fill="none" stroke="#000" stroke-width="1" points="81 315 86 315" opacity="1"/><text x="77" y="256" fill="#000" dy=".5ex" font-family="sans-serif" font-size="9.677" opacity="1" text-anchor="end">8</text><polyline fill="none" stroke="#000" stroke-width="1" points="81 256 86 256" opacity="1"/><text x="77" y="196" fill="#000" dy=".5ex" font-family="sans-serif" font-size="9.677" opacity="1" text-anchor="end">10</text><polyline fill="none" stroke="#000" stroke-width="1" points="81 196 86 196" opacity="1"/><text x="77" y="136" fill="#000" dy=".5ex" font-family="sans-serif" font-size="9.677" opacity="1" text-anchor="end">12</text><polyline fill="none" stroke="#000" stroke-width="1" points="81 136 86 136" opacity="1"/><text x="77" y="76" fill="#000" dy=".5ex" font-family="sans-serif" font-size="9.677" opacity="1" text-anchor="end">14</text><polyline fill="none" stroke="#000" stroke-width="1" points="81 76 86 76" opacity="1"/><polyline fill="none" stroke="#000" stroke-width="1" points="87 473 933 473" opacity="1"/><text x="176" y="483" fill="#000" dy=".76em" font-family="sans-serif" font-size="9.677" opacity="1" text-anchor="middle">251.84</text><polyline fill="none" stroke="#000" stroke-width="1" points="176 473 176 478" opacity="1"/><text x="297" y="483" fill="#000" dy=".76em" font-family="sans-serif" font-size="9.677" opacity="1" text-anchor="middle">251.86</text><polyline fill="none" stroke="#000" stroke-width="1" points="297 473 297 478" opacity="1"/><text x="418" y="483" fill="#000" dy=".76em" font-family="sans-serif" font-size="9.677" opacity="1" text-anchor="middle">251.88</text><polyline fill="none" stroke="#000" stroke-width="1" points="418 473 418 478" opacity="1"/><text x="539" y="483" fill="#000" dy=".76em" font-family="sans-serif" font-size="9.677" opacity="1" text-anchor="middle">251.9</text><polyline fill="none" stroke="#000" stroke-width="1" points="539 473 539 478" opacity="1"/><text x="660" y="483" fill="#000" dy=".76em" font-family="sans-serif" font-size="9.677" opacity="1" text-anchor="middle">251.92</text><polyline fill="none" stroke="#000" stroke-width="1" points="660 473 660 478" opacity="1"/><text x="781" y="483" fill="#000" dy=".76em" font-family="sans-serif" font-size="9.677" opacity="1" text-anchor="middle">251.94</text><polyline fill="none" stroke="#000" stroke-width="1" points="781 473 781 478" opacity="1"/><text x="902" y="483" fill="#000" dy=".76em" font-family="sans-serif" font-size="9.677" opacity="1" text-anchor="middle">251.96</text><polyline fill="none" stroke="#000" stroke-width="1" points="902 473 902 478" opacity="1"/><polyline fill="none" stroke="#1F78B4" stroke-width="1" points="87 471 88 470 90 469 92 468 93 467 95 467 97 466 98 465 100 464 102 463 103 462 105 461 107 460 109 459 110 458 112 457 114 456 115 455 117 454 119 453 120 452 122 451 124 450 125 449 127 447 129 446 131 445 132 443 134 442 136 441 137 439 139 438 141 436 142 435 144 433 146 432 148 430 149 429 151 427 153 426 154 424 156 422 158 421 159 419 161 417 163 416 164 414 166 412 168 410 170 408 171 407 173 405 175 403 176 401 178 399 180 397 181 395 183 393 185 391 187 389 188 387 190 385 192 383 193 381 195 379 197 377 198 375 200 373 202 371 203 369 205 367 207 365 209 363 210 361 212 358 214 356 215 354 217 352 219 349 220 347 222 345 224 342 226 340 227 337 229 335 231 332 232 330 234 327 236 324 237 322 239 319 241 316 242 313 244 310 246 308 248 305 249 302 251 299 253 296 254 293 256 290 258 287 259 285 261 282 263 279 265 276 266 273 268 270 270 268 271 265 273 262 275 259 276 257 278 254 280 251 281 249 283 246 285 244 287 241 288 239 290 237 292 234 293 232 295 230 297 227 298 225 300 223 302 220 304 218 305 216 307 214 309 211 310 209 312 207 314 204 315 202 317 199 319 197 320 194 322 192 324 189 326 187 327 184 329 182 331 179 332 176 334 174 336 171 337 169 339 166 341 164 343 161 344 158 346 156 348 154 349 151 351 149 353 146 354 144 356 142 358 140 359 137 361 135 363 133 365 131 366 129 368 127 370 126 371 124 373 122 375 120 376 119 378 117 380 116 381 114 383 113 385 111 387 110 388 109 390 108 392 107 393 106 395 105 397 104 398 103 400 102 402 101 404 100 405 99 407 99 409 98 410 97 412 97 414 96 415 96 417 96 419 95 420 95 422 94 424 94 426 94 427 93 429 93 431 93 432 93 434 92 436 92 437 92 439 92 441 92 443 92 444 92 446 92 448 92 449 92 451 92 453 92 454 92 456 93 458 93 459 93 461 94 463 94 465 94 466 95 468 95 470 95 471 96 473 96 475 97 476 97 478 98 480 98 482 98 483 99 485 99 487 100 488 100 490 101 492 101 493 102 495 103 497 103 498 104 500 105 502 105 504 106 505 107 507 108 509 108 510 109 512 110 514 111 515 112 517 113 519 115 521 116 522 117 524 118 526 120 527 121 529 122 531 124 532 125 534 127 536 129 537 130 539 132 541 134 543 135 544 137 546 139 548 141 549 142 551 144 553 146 554 148 556 150 558 151 560 153 561 155 563 157 565 159 566 160 568 162 570 164 571 166 573 167 575 169 576 171 578 173 580 174 582 176 583 178 585 180 587 182 588 183 590 185 592 187 593 189 595 191 597 193 599 195 600 197 602 199 604 202 605 204 607 206 609 208 610 211 612 213 614 215 615 217 617 220 619 222 621 224 622 227 624 229 626 231 627 233 629 235 631 237 632 239 634 241 636 243 638 245 639 247 641 249 643 250 644 252 646 254 648 256 649 258 651 260 653 262 654 263 656 265 658 267 660 269 661 271 663 273 665 276 666 278 668 280 670 282 671 284 673 286 675 289 676 291 678 293 680 295 682 298 683 300 685 302 687 304 688 306 690 308 692 310 693 313 695 315 697 317 699 319 700 321 702 323 704 325 705 327 707 329 709 331 710 333 712 335 714 336 715 338 717 340 719 342 721 344 722 346 724 348 726 350 727 351 729 353 731 355 732 357 734 359 736 360 738 362 739 364 741 366 743 367 744 369 746 370 748 372 749 374 751 375 753 377 754 378 756 379 758 381 760 382 761 383 763 385 765 386 766 387 768 388 770 390 771 391 773 392 775 393 777 394 778 395 780 396 782 397 783 398 785 400 787 401 788 402 790 403 792 404 793 405 795 406 797 407 799 408 800 409 802 410 804 411 805 413 807 414 809 415 810 416 812 417 814 418 816 419 817 420 819 422 821 423 822 424 824 425 826 426 827 427 829 428 831 429 832 430 834 432 836 433 838 434 839 435 841 436 843 437 844 438 846 439 848 440 849 441 851 442 853 443 855 444 856 445 858 446 860 446 861 447 863 448 865 449 866 450 868 451 870 452 871 452 873 453 875 454 877 455 878 455 880 456 882 457 883 458 885 458 887 459 888 460 890 460 892 461 894 461 895 462 897 462 899 463 900 463 902 464 904 464 905 465 907 465 909 466 910 466 912 467 914 467 916 467 917 468 919 468 921 469 922 469 924 469 926 470 927 470 929 471 931 471 933 472" opacity="1"/><polygon fill="#1F78B4" points="164 414 166 412 168 410 170 408 171 407 173 405 175 403 176 401 178 399 180 397 181 395 183 393 185 391 187 389 188 387 190 385 192 383 193 381 195 379 197 377 198 375 200 373 202 371 203 369 205 367 207 365 209 363 210 361 212 358 214 356 215 354 217 352 219 349 220 347 222 345 224 342 226 340 227 337 229 335 231 332 232 330 234 327 236 324 237 322 239 319 241 316 242 313 244 310 246 308 248 305 249 302 251 299 253 296 254 293 256 290 258 287 259 285 261 282 263 279 265 276 266 273 268 270 270 268 271 265 273 262 275 259 276 257 278 254 280 251 281 249 283 246 285 244 287 241 288 239 290 237 292 234 293 232 295 230 297 227 298 225 300 223 302 220 304 218 305 216 307 214 309 211 310 209 312 207 314 204 315 202 317 199 319 197 320 194 322 192 324 189 326 187 327 184 329 182 331 179 332 176 334 174 336 171 337 169 339 166 341 164 343 161 344 158 346 156 348 154 349 151 351 149 353 146 354 144 356 142 358 140 359 137 361 135 363 133 365 131 366 129 368 127 370 126 371 124 373 122 375 120 376 119 378 117 380 116 381 114 383 113 385 111 387 110 388 109 390 108 392 107 393 106 395 105 397 104 398 103 400 102 402 101 404 100 405 99 407 99 409 98 410 97 412 97 414 96 415 96 417 96 419 95 420 95 422 94 424 94 426 94 427 93 429 93 431 93 432 93 434 92 436 92 437 92 439 92 441 92 443 92 444 92 446 92 448 92 449 92 451 92 453 92 454 92 456 93 458 93 459 93 461 94 463 94 465 94 466 95 468 95 470 95 471 96 473 96 475 97 476 97 478 98 480 98 482 98 483 99 485 99 487 100 488 100 490 101 492 101 493 102 495 103 497 103 498 104 500 105 502 105 504 106 505 107 507 108 509 108 510 109 512 110 514 111 515 112 517 113 519 115 521 116 522 117 524 118 526 120 527 121 529 122 531 124 532 125 534 127 536 129 537 130 539 132 541 134 543 135 544 137 546 139 548 141 549 142 551 144 553 146 554 148 556 150 558 151 560 153 561 155 563 157 565 159 566 160 568 162 570 164 571 166 573 167 575 169 576 171 578 173 580 174 582 176 583 178 585 180 587 182 588 183 590 185 592 187 593 189 595 191 597 193 599 195 600 197 602 199 604 202 605 204 607 206 609 208 610 211 612 213 614 215 615 217 617 220 619 222 621 224 622 227 624 229 626 231 627 233 629 235 631 237 632 239 634 241 636 243 638 245 639 247 641 249 643 250 644 252 646 254 648 256 649 258 651 260 653 262 654 263 656 265 658 267 660 269 661 271 663 273 665 276 666 278 668 280 670 282 671 284 673 286 675 289 676 291 678 293 680 295 682 298 683 300 685 302 687 304 688 306 690 308 692 310 693 313 695 315 697 317 699 319 700 321 702 323 704 325 705 327 707 329 709 331 710 333 712 335 714 336 715 338 717 340 719 342 721 344 722 346 724 348 726 350 727 351 729 353 731 355 732 357 734 359 736 360 738 362 739 364 741 366 743 367 744 369 746 370 748 372 749 374 751 375 753 377 754 378 756 379 758 381 760 382 761 383 763 385 765 386 766 387 768 388 770 390 771 391 773 392 775 393 777 394 778 395 780 396 782 397 783 398 785 400 787 401 788 402 790 403 792 404 793 405 795 406 797 407 799 408 800 409 802 410 804 411 805 413 807 414 809 415 810 416 812 417 814 418 816 419 817 420 819 422 821 423 822 424 824 425 826 426 827 427 829 428 831 429 832 430 834 432 836 433 838 434 839 435 841 436 843 437 844 438 846 439 848 440 849 441 851 442 853 443 853 473 164 473" opacity=".25"/><polyline fill="none" stroke="#1F78B4" stroke-width="3" points="481 473 481 98" opacity="1"/><text x="798" y="68" fill="#000" dy=".76em" font-family="sans-serif" font-size="9.677" opacity="1" text-anchor="start">Bootstrap distribution</text><text x="798" y="83" fill="#000" dy=".76em" font-family="sans-serif" font-size="9.677" opacity="1" text-anchor="start">Confidence interval</text><text x="798" y="98" fill="#000" dy=".76em" font-family="sans-serif" font-size="9.677" opacity="1" text-anchor="start">Point estimate</text><polyline fill="none" stroke="#1F78B4" stroke-width="1" points="768 73 788 73" opacity="1"/><rect width="20" height="10" x="768" y="83" fill="#1F78B4" stroke="none" opacity=".25"/><polyline fill="none" stroke="#1F78B4" stroke-width="1" points="768 103 788 103" opacity="1"/></svg>