<svg xmlns="http://www.w3.org/2000/svg" width="960" height="540"><text x="480" y="32" fill="#000" dy=".76em" font-family="sans-serif" font-size="16.129" opacity="1" text-anchor="middle">bench_group/threads_48/536870912</text><text x="27" y="263" fill="#000" dy=".76em" font-family="sans-serif" font-size="9.677" opacity="1" text-anchor="middle" transform="rotate(270, 27, 263)">Total sample time (ms)</text><text x="510" y="513" fill="#000" dy="-.5ex" font-family="sans-serif" font-size="9.677" opacity="1" text-anchor="middle">Iterations</text><line x1="163" x2="163" y1="472" y2="52" stroke="#000" stroke-width="1" opacity=".2"/><line x1="249" x2="249" y1="472" y2="52" stroke="#000" stroke-width="1" opacity=".2"/><line x1="334" x2="334" y1="472" y2="52" stroke="#000" stroke-width="1" opacity=".2"/><line x1="420" x2="420" y1="472" y2="52" stroke="#000" stroke-width="1" opacity=".2"/><line x1="505" x2="505" y1="472" y2="52" stroke="#000" stroke-width="1" opacity=".2"/><line x1="591" x2="591" y1="472" y2="52" stroke="#000" stroke-width="1" opacity=".2"/><line x1="676" x2="676" y1="472" y2="52" stroke="#000" stroke-width="1" opacity=".2"/><line x1="762" x2="762" y1="472" y2="52" stroke="#000" stroke-width="1" opacity=".2"/><line x1="847" x2="847" y1="472" y2="52" stroke="#000" stroke-width="1" opacity=".2"/><line x1="933" x2="933" y1="472" y2="52" stroke="#000" stroke-width="1" opacity=".2"/><line x1="87" x2="933" y1="411" y2="411" stroke="#000" stroke-width="1" opacity=".2"/><line x1="87" x2="933" y1="346" y2="346" stroke="#000" stroke-width="1" opacity=".2"/><line x1="87" x2="933" y1="281" y2="281" stroke="#000" stroke-width="1" opacity=".2"/><line x1="87" x2="933" y1="216" y2="216" stroke="#000" stroke-width="1" opacity=".2"/><line x1="87" x2="933" y1="151" y2="151" stroke="#000" stroke-width="1" opacity=".2"/><line x1="87" x2="933" y1="86" y2="86" stroke="#000" stroke-width="1" opacity=".2"/><polyline fill="none" stroke="#000" stroke-width="1" points="86 53 86 473" opacity="1"/><text x="77" y="411" fill="#000" dy=".5ex" font-family="sans-serif" font-size="9.677" opacity="1" text-anchor="end">100.0</text><polyline fill="none" stroke="#000" stroke-width="1" points="81 411 86 411" opacity="1"/><text x="77" y="346" fill="#000" dy=".5ex" font-family="sans-serif" font-size="9.677" opacity="1" text-anchor="end">200.0</text><polyline fill="none" stroke="#000" stroke-width="1" points="81 346 86 346" opacity="1"/><text x="77" y="281" fill="#000" dy=".5ex" font-family="sans-serif" font-size="9.677" opacity="1" text-anchor="end">300.0</text><polyline fill="none" stroke="#000" stroke-width="1" points="81 281 86 281" opacity="1"/><text x="77" y="216" fill="#000" dy=".5ex" font-family="sans-serif" font-size="9.677" opacity="1" text-anchor="end">400.0</text><polyline fill="none" stroke="#000" stroke-width="1" points="81 216 86 216" opacity="1"/><text x="77" y="151" fill="#000" dy=".5ex" font-family="sans-serif" font-size="9.677" opacity="1" text-anchor="end">500.0</text><polyline fill="none" stroke="#000" stroke-width="1" points="81 151 86 151" opacity="1"/><text x="77" y="86" fill="#000" dy=".5ex" font-family="sans-serif" font-size="9.677" opacity="1" text-anchor="end">600.0</text><polyline fill="none" stroke="#000" stroke-width="1" points="81 86 86 86" opacity="1"/><polyline fill="none" stroke="#000" stroke-width="1" points="87 473 933 473" opacity="1"/><text x="163" y="483" fill="#000" dy=".76em" font-family="sans-serif" font-size="9.677" opacity="1" text-anchor="middle">10</text><polyline fill="none" stroke="#000" stroke-width="1" points="163 473 163 478" opacity="1"/><text x="249" y="483" fill="#000" dy=".76em" font-family="sans-serif" font-size="9.677" opacity="1" text-anchor="middle">20</text><polyline fill="none" stroke="#000" stroke-width="1" points="249 473 249 478" opacity="1"/><text x="334" y="483" fill="#000" dy=".76em" font-family="sans-serif" font-size="9.677" opacity="1" text-anchor="middle">30</text><polyline fill="none" stroke="#000" stroke-width="1" points="334 473 334 478" opacity="1"/><text x="420" y="483" fill="#000" dy=".76em" font-family="sans-serif" font-size="9.677" opacity="1" text-anchor="middle">40</text><polyline fill="none" stroke="#000" stroke-width="1" points="420 473 420 478" opacity="1"/><text x="505" y="483" fill="#000" dy=".76em" font-family="sans-serif" font-size="9.677" opacity="1" text-anchor="middle">50</text><polyline fill="none" stroke="#000" stroke-width="1" points="505 473 505 478" opacity="1"/><text x="591" y="483" fill="#000" dy=".76em" font-family="sans-serif" font-size="9.677" opacity="1" text-anchor="middle">60</text><polyline fill="none" stroke="#000" stroke-width="1" points="591 473 591 478" opacity="1"/><text x="676" y="483" fill="#000" dy=".76em" font-family="sans-serif" font-size="9.677" opacity="1" text-anchor="middle">70</text><polyline fill="none" stroke="#000" stroke-width="1" points="676 473 676 478" opacity="1"/><text x="762" y="483" fill="#000" dy=".76em" font-family="sans-serif" font-size="9.677" opacity="1" text-anchor="middle">80</text><polyline fill="none" stroke="#000" stroke-width="1" points="762 473 762 478" opacity="1"/><text x="847" y="483" fill="#000" dy=".76em" font-family="sans-serif" font-size="9.677" opacity="1" text-anchor="middle">90</text><polyline fill="none" stroke="#000" stroke-width="1" points="847 473 847 478" opacity="1"/><text x="933" y="483" fill="#000" dy=".76em" font-family="sans-serif" font-size="9.677" opacity="1" text-anchor="middle">100</text><polyline fill="none" stroke="#000" stroke-width="1" points="933 473 933 478" opacity="1"/><circle cx="87" cy="472" r="3" fill="#1F78B4" stroke="none" opacity="1"/><circle cx="95" cy="467" r="3" fill="#1F78B4" stroke="none" opacity="1"/><circle cx="104" cy="462" r="3" fill="#1F78B4" stroke="none" opacity="1"/><circle cx="112" cy="457" r="3" fill="#1F78B4" stroke="none" opacity="1"/><circle cx="121" cy="453" r="3" fill="#1F78B4" stroke="none" opacity="1"/><circle cx="129" cy="449" r="3" fill="#1F78B4" stroke="none" opacity="1"/><circle cx="138" cy="445" r="3" fill="#1F78B4" stroke="none" opacity="1"/><circle cx="146" cy="440" r="3" fill="#1F78B4" stroke="none" opacity="1"/><circle cx="155" cy="436" r="3" fill="#1F78B4" stroke="none" opacity="1"/><circle cx="163" cy="432" r="3" fill="#1F78B4" stroke="none" opacity="1"/><circle cx="172" cy="428" r="3" fill="#1F78B4" stroke="none" opacity="1"/><circle cx="181" cy="423" r="3" fill="#1F78B4" stroke="none" opacity="1"/><circle cx="189" cy="418" r="3" fill="#1F78B4" stroke="none" opacity="1"/><circle cx="198" cy="414" r="3" fill="#1F78B4" stroke="none" opacity="1"/><circle cx="206" cy="410" r="3" fill="#1F78B4" stroke="none" opacity="1"/><circle cx="215" cy="405" r="3" fill="#1F78B4" stroke="none" opacity="1"/><circle cx="223" cy="401" r="3" fill="#1F78B4" stroke="none" opacity="1"/><circle cx="232" cy="396" r="3" fill="#1F78B4" stroke="none" opacity="1"/><circle cx="240" cy="392" r="3" fill="#1F78B4" stroke="none" opacity="1"/><circle cx="249" cy="387" r="3" fill="#1F78B4" stroke="none" opacity="1"/><circle cx="257" cy="384" r="3" fill="#1F78B4" stroke="none" opacity="1"/><circle cx="266" cy="380" r="3" fill="#1F78B4" stroke="none" opacity="1"/><circle cx="275" cy="376" r="3" fill="#1F78B4" stroke="none" opacity="1"/><circle cx="283" cy="371" r="3" fill="#1F78B4" stroke="none" opacity="1"/><circle cx="292" cy="366" r="3" fill="#1F78B4" stroke="none" opacity="1"/><circle cx="300" cy="361" r="3" fill="#1F78B4" stroke="none" opacity="1"/><circle cx="309" cy="358" r="3" fill="#1F78B4" stroke="none" opacity="1"/><circle cx="317" cy="354" r="3" fill="#1F78B4" stroke="none" opacity="1"/><circle cx="326" cy="350" r="3" fill="#1F78B4" stroke="none" opacity="1"/><circle cx="334" cy="345" r="3" fill="#1F78B4" stroke="none" opacity="1"/><circle cx="343" cy="340" r="3" fill="#1F78B4" stroke="none" opacity="1"/><circle cx="351" cy="336" r="3" fill="#1F78B4" stroke="none" opacity="1"/><circle cx="360" cy="332" r="3" fill="#1F78B4" stroke="none" opacity="1"/><circle cx="369" cy="327" r="3" fill="#1F78B4" stroke="none" opacity="1"/><circle cx="377" cy="325" r="3" fill="#1F78B4" stroke="none" opacity="1"/><circle cx="386" cy="321" r="3" fill="#1F78B4" stroke="none" opacity="1"/><circle cx="394" cy="313" r="3" fill="#1F78B4" stroke="none" opacity="1"/><circle cx="403" cy="310" r="3" fill="#1F78B4" stroke="none" opacity="1"/><circle cx="411" cy="308" r="3" fill="#1F78B4" stroke="none" opacity="1"/><circle cx="420" cy="303" r="3" fill="#1F78B4" stroke="none" opacity="1"/><circle cx="428" cy="298" r="3" fill="#1F78B4" stroke="none" opacity="1"/><circle cx="437" cy="294" r="3" fill="#1F78B4" stroke="none" opacity="1"/><circle cx="445" cy="289" r="3" fill="#1F78B4" stroke="none" opacity="1"/><circle cx="454" cy="284" r="3" fill="#1F78B4" stroke="none" opacity="1"/><circle cx="463" cy="281" r="3" fill="#1F78B4" stroke="none" opacity="1"/><circle cx="471" cy="277" r="3" fill="#1F78B4" stroke="none" opacity="1"/><circle cx="480" cy="272" r="3" fill="#1F78B4" stroke="none" opacity="1"/><circle cx="488" cy="267" r="3" fill="#1F78B4" stroke="none" opacity="1"/><circle cx="497" cy="264" r="3" fill="#1F78B4" stroke="none" opacity="1"/><circle cx="505" cy="260" r="3" fill="#1F78B4" stroke="none" opacity="1"/><circle cx="514" cy="254" r="3" fill="#1F78B4" stroke="none" opacity="1"/><circle cx="522" cy="249" r="3" fill="#1F78B4" stroke="none" opacity="1"/><circle cx="531" cy="246" r="3" fill="#1F78B4" stroke="none" opacity="1"/><circle cx="539" cy="243" r="3" fill="#1F78B4" stroke="none" opacity="1"/><circle cx="548" cy="241" r="3" fill="#1F78B4" stroke="none" opacity="1"/><circle cx="557" cy="235" r="3" fill="#1F78B4" stroke="none" opacity="1"/><circle cx="565" cy="228" r="3" fill="#1F78B4" stroke="none" opacity="1"/><circle cx="574" cy="225" r="3" fill="#1F78B4" stroke="none" opacity="1"/><circle cx="582" cy="221" r="3" fill="#1F78B4" stroke="none" opacity="1"/><circle cx="591" cy="217" r="3" fill="#1F78B4" stroke="none" opacity="1"/><circle cx="599" cy="215" r="3" fill="#1F78B4" stroke="none" opacity="1"/><circle cx="608" cy="208" r="3" fill="#1F78B4" stroke="none" opacity="1"/><circle cx="616" cy="204" r="3" fill="#1F78B4" stroke="none" opacity="1"/><circle cx="625" cy="201" r="3" fill="#1F78B4" stroke="none" opacity="1"/><circle cx="633" cy="197" r="3" fill="#1F78B4" stroke="none" opacity="1"/><circle cx="642" cy="191" r="3" fill="#1F78B4" stroke="none" opacity="1"/><circle cx="651" cy="186" r="3" fill="#1F78B4" stroke="none" opacity="1"/><circle cx="659" cy="183" r="3" fill="#1F78B4" stroke="none" opacity="1"/><circle cx="668" cy="179" r="3" fill="#1F78B4" stroke="none" opacity="1"/><circle cx="676" cy="178" r="3" fill="#1F78B4" stroke="none" opacity="1"/><circle cx="685" cy="169" r="3" fill="#1F78B4" stroke="none" opacity="1"/><circle cx="693" cy="168" r="3" fill="#1F78B4" stroke="none" opacity="1"/><circle cx="702" cy="163" r="3" fill="#1F78B4" stroke="none" opacity="1"/><circle cx="710" cy="160" r="3" fill="#1F78B4" stroke="none" opacity="1"/><circle cx="719" cy="156" r="3" fill="#1F78B4" stroke="none" opacity="1"/><circle cx="727" cy="149" r="3" fill="#1F78B4" stroke="none" opacity="1"/><circle cx="736" cy="146" r="3" fill="#1F78B4" stroke="none" opacity="1"/><circle cx="745" cy="142" r="3" fill="#1F78B4" stroke="none" opacity="1"/><circle cx="753" cy="143" r="3" fill="#1F78B4" stroke="none" opacity="1"/><circle cx="762" cy="134" r="3" fill="#1F78B4" stroke="none" opacity="1"/><circle cx="770" cy="130" r="3" fill="#1F78B4" stroke="none" opacity="1"/><circle cx="779" cy="124" r="3" fill="#1F78B4" stroke="none" opacity="1"/><circle cx="787" cy="119" r="3" fill="#1F78B4" stroke="none" opacity="1"/><circle cx="796" cy="118" r="3" fill="#1F78B4" stroke="none" opacity="1"/><circle cx="804" cy="113" r="3" fill="#1F78B4" stroke="none" opacity="1"/><circle cx="813" cy="110" r="3" fill="#1F78B4" stroke="none" opacity="1"/><circle cx="821" cy="103" r="3" fill="#1F78B4" stroke="none" opacity="1"/><circle cx="830" cy="99" r="3" fill="#1F78B4" stroke="none" opacity="1"/><circle cx="839" cy="99" r="3" fill="#1F78B4" stroke="none" opacity="1"/><circle cx="847" cy="94" r="3" fill="#1F78B4" stroke="none" opacity="1"/><circle cx="856" cy="88" r="3" fill="#1F78B4" stroke="none" opacity="1"/><circle cx="864" cy="85" r="3" fill="#1F78B4" stroke="none" opacity="1"/><circle cx="873" cy="78" r="3" fill="#1F78B4" stroke="none" opacity="1"/><circle cx="881" cy="74" r="3" fill="#1F78B4" stroke="none" opacity="1"/><circle cx="890" cy="73" r="3" fill="#1F78B4" stroke="none" opacity="1"/><circle cx="898" cy="68" r="3" fill="#1F78B4" stroke="none" opacity="1"/><circle cx="907" cy="65" r="3" fill="#1F78B4" stroke="none" opacity="1"/><circle cx="915" cy="59" r="3" fill="#1F78B4" stroke="none" opacity="1"/><circle cx="924" cy="55" r="3" fill="#1F78B4" stroke="none" opacity="1"/><circle cx="933" cy="53" r="3" fill="#1F78B4" stroke="none" opacity="1"/><polyline fill="none" stroke="#1F78B4" stroke-width="1" points="87 473 933 53" opacity="1"/><polygon fill="#1F78B4" points="87 473 933 53 933 53" opacity=".25"/><text x="132" y="68" fill="#000" dy=".76em" font-family="sans-serif" font-size="9.677" opacity="1" text-anchor="start">Sample</text><text x="132" y="83" fill="#000" dy=".76em" font-family="sans-serif" font-size="9.677" opacity="1" text-anchor="start">Linear regression</text><text x="132" y="98" fill="#000" dy=".76em" font-family="sans-serif" font-size="9.677" opacity="1" text-anchor="start">Confidence interval</text><circle cx="112" cy="73" r="3" fill="#1F78B4" stroke="none" opacity="1"/><polyline fill="none" stroke="#1F78B4" stroke-width="2" points="102 88 122 88" opacity="1"/><rect width="20" height="10" x="102" y="98" fill="#1F78B4" stroke="none" opacity=".25"/></svg>