<svg xmlns="http://www.w3.org/2000/svg" width="960" height="540"><text x="480" y="32" fill="#000" dy=".76em" font-family="sans-serif" font-size="16.129" opacity="1" text-anchor="middle">bench_group/threads_48/524288</text><text x="27" y="263" fill="#000" dy=".76em" font-family="sans-serif" font-size="9.677" opacity="1" text-anchor="middle" transform="rotate(270, 27, 263)">Total sample time (ms)</text><text x="510" y="513" fill="#000" dy="-.5ex" font-family="sans-serif" font-size="9.677" opacity="1" text-anchor="middle">Iterations (x 10^3)</text><line x1="242" x2="242" y1="472" y2="52" stroke="#000" stroke-width="1" opacity=".2"/><line x1="407" x2="407" y1="472" y2="52" stroke="#000" stroke-width="1" opacity=".2"/><line x1="571" x2="571" y1="472" y2="52" stroke="#000" stroke-width="1" opacity=".2"/><line x1="735" x2="735" y1="472" y2="52" stroke="#000" stroke-width="1" opacity=".2"/><line x1="900" x2="900" y1="472" y2="52" stroke="#000" stroke-width="1" opacity=".2"/><line x1="87" x2="933" y1="394" y2="394" stroke="#000" stroke-width="1" opacity=".2"/><line x1="87" x2="933" y1="311" y2="311" stroke="#000" stroke-width="1" opacity=".2"/><line x1="87" x2="933" y1="228" y2="228" stroke="#000" stroke-width="1" opacity=".2"/><line x1="87" x2="933" y1="145" y2="145" stroke="#000" stroke-width="1" opacity=".2"/><line x1="87" x2="933" y1="62" y2="62" stroke="#000" stroke-width="1" opacity=".2"/><polyline fill="none" stroke="#000" stroke-width="1" points="86 53 86 473" opacity="1"/><text x="77" y="394" fill="#000" dy=".5ex" font-family="sans-serif" font-size="9.677" opacity="1" text-anchor="end">20.0</text><polyline fill="none" stroke="#000" stroke-width="1" points="81 394 86 394" opacity="1"/><text x="77" y="311" fill="#000" dy=".5ex" font-family="sans-serif" font-size="9.677" opacity="1" text-anchor="end">40.0</text><polyline fill="none" stroke="#000" stroke-width="1" points="81 311 86 311" opacity="1"/><text x="77" y="228" fill="#000" dy=".5ex" font-family="sans-serif" font-size="9.677" opacity="1" text-anchor="end">60.0</text><polyline fill="none" stroke="#000" stroke-width="1" points="81 228 86 228" opacity="1"/><text x="77" y="145" fill="#000" dy=".5ex" font-family="sans-serif" font-size="9.677" opacity="1" text-anchor="end">80.0</text><polyline fill="none" stroke="#000" stroke-width="1" points="81 145 86 145" opacity="1"/><text x="77" y="62" fill="#000" dy=".5ex" font-family="sans-serif" font-size="9.677" opacity="1" text-anchor="end">100.0</text><polyline fill="none" stroke="#000" stroke-width="1" points="81 62 86 62" opacity="1"/><polyline fill="none" stroke="#000" stroke-width="1" points="87 473 933 473" opacity="1"/><text x="242" y="483" fill="#000" dy=".76em" font-family="sans-serif" font-size="9.677" opacity="1" text-anchor="middle">0.5</text><polyline fill="none" stroke="#000" stroke-width="1" points="242 473 242 478" opacity="1"/><text x="407" y="483" fill="#000" dy=".76em" font-family="sans-serif" font-size="9.677" opacity="1" text-anchor="middle">1</text><polyline fill="none" stroke="#000" stroke-width="1" points="407 473 407 478" opacity="1"/><text x="571" y="483" fill="#000" dy=".76em" font-family="sans-serif" font-size="9.677" opacity="1" text-anchor="middle">1.5</text><polyline fill="none" stroke="#000" stroke-width="1" points="571 473 571 478" opacity="1"/><text x="735" y="483" fill="#000" dy=".76em" font-family="sans-serif" font-size="9.677" opacity="1" text-anchor="middle">2</text><polyline fill="none" stroke="#000" stroke-width="1" points="735 473 735 478" opacity="1"/><text x="900" y="483" fill="#000" dy=".76em" font-family="sans-serif" font-size="9.677" opacity="1" text-anchor="middle">2.5</text><polyline fill="none" stroke="#000" stroke-width="1" points="900 473 900 478" opacity="1"/><circle cx="87" cy="472" r="3" fill="#1F78B4" stroke="none" opacity="1"/><circle cx="95" cy="467" r="3" fill="#1F78B4" stroke="none" opacity="1"/><circle cx="104" cy="462" r="3" fill="#1F78B4" stroke="none" opacity="1"/><circle cx="112" cy="458" r="3" fill="#1F78B4" stroke="none" opacity="1"/><circle cx="121" cy="455" r="3" fill="#1F78B4" stroke="none" opacity="1"/><circle cx="129" cy="449" r="3" fill="#1F78B4" stroke="none" opacity="1"/><circle cx="138" cy="446" r="3" fill="#1F78B4" stroke="none" opacity="1"/><circle cx="146" cy="441" r="3" fill="#1F78B4" stroke="none" opacity="1"/><circle cx="155" cy="436" r="3" fill="#1F78B4" stroke="none" opacity="1"/><circle cx="163" cy="433" r="3" fill="#1F78B4" stroke="none" opacity="1"/><circle cx="172" cy="429" r="3" fill="#1F78B4" stroke="none" opacity="1"/><circle cx="181" cy="426" r="3" fill="#1F78B4" stroke="none" opacity="1"/><circle cx="189" cy="419" r="3" fill="#1F78B4" stroke="none" opacity="1"/><circle cx="198" cy="415" r="3" fill="#1F78B4" stroke="none" opacity="1"/><circle cx="206" cy="409" r="3" fill="#1F78B4" stroke="none" opacity="1"/><circle cx="215" cy="404" r="3" fill="#1F78B4" stroke="none" opacity="1"/><circle cx="223" cy="401" r="3" fill="#1F78B4" stroke="none" opacity="1"/><circle cx="232" cy="396" r="3" fill="#1F78B4" stroke="none" opacity="1"/><circle cx="240" cy="396" r="3" fill="#1F78B4" stroke="none" opacity="1"/><circle cx="249" cy="388" r="3" fill="#1F78B4" stroke="none" opacity="1"/><circle cx="257" cy="386" r="3" fill="#1F78B4" stroke="none" opacity="1"/><circle cx="266" cy="381" r="3" fill="#1F78B4" stroke="none" opacity="1"/><circle cx="275" cy="372" r="3" fill="#1F78B4" stroke="none" opacity="1"/><circle cx="283" cy="374" r="3" fill="#1F78B4" stroke="none" opacity="1"/><circle cx="292" cy="369" r="3" fill="#1F78B4" stroke="none" opacity="1"/><circle cx="300" cy="366" r="3" fill="#1F78B4" stroke="none" opacity="1"/><circle cx="309" cy="358" r="3" fill="#1F78B4" stroke="none" opacity="1"/><circle cx="317" cy="357" r="3" fill="#1F78B4" stroke="none" opacity="1"/><circle cx="326" cy="351" r="3" fill="#1F78B4" stroke="none" opacity="1"/><circle cx="334" cy="346" r="3" fill="#1F78B4" stroke="none" opacity="1"/><circle cx="343" cy="343" r="3" fill="#1F78B4" stroke="none" opacity="1"/><circle cx="351" cy="344" r="3" fill="#1F78B4" stroke="none" opacity="1"/><circle cx="360" cy="330" r="3" fill="#1F78B4" stroke="none" opacity="1"/><circle cx="369" cy="330" r="3" fill="#1F78B4" stroke="none" opacity="1"/><circle cx="377" cy="322" r="3" fill="#1F78B4" stroke="none" opacity="1"/><circle cx="386" cy="328" r="3" fill="#1F78B4" stroke="none" opacity="1"/><circle cx="394" cy="314" r="3" fill="#1F78B4" stroke="none" opacity="1"/><circle cx="403" cy="310" r="3" fill="#1F78B4" stroke="none" opacity="1"/><circle cx="411" cy="309" r="3" fill="#1F78B4" stroke="none" opacity="1"/><circle cx="420" cy="294" r="3" fill="#1F78B4" stroke="none" opacity="1"/><circle cx="428" cy="308" r="3" fill="#1F78B4" stroke="none" opacity="1"/><circle cx="437" cy="299" r="3" fill="#1F78B4" stroke="none" opacity="1"/><circle cx="445" cy="293" r="3" fill="#1F78B4" stroke="none" opacity="1"/><circle cx="454" cy="280" r="3" fill="#1F78B4" stroke="none" opacity="1"/><circle cx="463" cy="288" r="3" fill="#1F78B4" stroke="none" opacity="1"/><circle cx="471" cy="282" r="3" fill="#1F78B4" stroke="none" opacity="1"/><circle cx="480" cy="271" r="3" fill="#1F78B4" stroke="none" opacity="1"/><circle cx="488" cy="269" r="3" fill="#1F78B4" stroke="none" opacity="1"/><circle cx="497" cy="264" r="3" fill="#1F78B4" stroke="none" opacity="1"/><circle cx="505" cy="261" r="3" fill="#1F78B4" stroke="none" opacity="1"/><circle cx="514" cy="258" r="3" fill="#1F78B4" stroke="none" opacity="1"/><circle cx="522" cy="259" r="3" fill="#1F78B4" stroke="none" opacity="1"/><circle cx="531" cy="242" r="3" fill="#1F78B4" stroke="none" opacity="1"/><circle cx="539" cy="246" r="3" fill="#1F78B4" stroke="none" opacity="1"/><circle cx="548" cy="228" r="3" fill="#1F78B4" stroke="none" opacity="1"/><circle cx="557" cy="229" r="3" fill="#1F78B4" stroke="none" opacity="1"/><circle cx="565" cy="227" r="3" fill="#1F78B4" stroke="none" opacity="1"/><circle cx="574" cy="221" r="3" fill="#1F78B4" stroke="none" opacity="1"/><circle cx="582" cy="222" r="3" fill="#1F78B4" stroke="none" opacity="1"/><circle cx="591" cy="216" r="3" fill="#1F78B4" stroke="none" opacity="1"/><circle cx="599" cy="214" r="3" fill="#1F78B4" stroke="none" opacity="1"/><circle cx="608" cy="212" r="3" fill="#1F78B4" stroke="none" opacity="1"/><circle cx="616" cy="214" r="3" fill="#1F78B4" stroke="none" opacity="1"/><circle cx="625" cy="201" r="3" fill="#1F78B4" stroke="none" opacity="1"/><circle cx="633" cy="188" r="3" fill="#1F78B4" stroke="none" opacity="1"/><circle cx="642" cy="193" r="3" fill="#1F78B4" stroke="none" opacity="1"/><circle cx="651" cy="189" r="3" fill="#1F78B4" stroke="none" opacity="1"/><circle cx="659" cy="174" r="3" fill="#1F78B4" stroke="none" opacity="1"/><circle cx="668" cy="178" r="3" fill="#1F78B4" stroke="none" opacity="1"/><circle cx="676" cy="176" r="3" fill="#1F78B4" stroke="none" opacity="1"/><circle cx="685" cy="167" r="3" fill="#1F78B4" stroke="none" opacity="1"/><circle cx="693" cy="174" r="3" fill="#1F78B4" stroke="none" opacity="1"/><circle cx="702" cy="160" r="3" fill="#1F78B4" stroke="none" opacity="1"/><circle cx="710" cy="155" r="3" fill="#1F78B4" stroke="none" opacity="1"/><circle cx="719" cy="155" r="3" fill="#1F78B4" stroke="none" opacity="1"/><circle cx="727" cy="141" r="3" fill="#1F78B4" stroke="none" opacity="1"/><circle cx="736" cy="146" r="3" fill="#1F78B4" stroke="none" opacity="1"/><circle cx="745" cy="143" r="3" fill="#1F78B4" stroke="none" opacity="1"/><circle cx="753" cy="137" r="3" fill="#1F78B4" stroke="none" opacity="1"/><circle cx="762" cy="146" r="3" fill="#1F78B4" stroke="none" opacity="1"/><circle cx="770" cy="129" r="3" fill="#1F78B4" stroke="none" opacity="1"/><circle cx="779" cy="127" r="3" fill="#1F78B4" stroke="none" opacity="1"/><circle cx="787" cy="117" r="3" fill="#1F78B4" stroke="none" opacity="1"/><circle cx="796" cy="131" r="3" fill="#1F78B4" stroke="none" opacity="1"/><circle cx="804" cy="117" r="3" fill="#1F78B4" stroke="none" opacity="1"/><circle cx="813" cy="99" r="3" fill="#1F78B4" stroke="none" opacity="1"/><circle cx="821" cy="100" r="3" fill="#1F78B4" stroke="none" opacity="1"/><circle cx="830" cy="94" r="3" fill="#1F78B4" stroke="none" opacity="1"/><circle cx="839" cy="97" r="3" fill="#1F78B4" stroke="none" opacity="1"/><circle cx="847" cy="91" r="3" fill="#1F78B4" stroke="none" opacity="1"/><circle cx="856" cy="88" r="3" fill="#1F78B4" stroke="none" opacity="1"/><circle cx="864" cy="82" r="3" fill="#1F78B4" stroke="none" opacity="1"/><circle cx="873" cy="69" r="3" fill="#1F78B4" stroke="none" opacity="1"/><circle cx="881" cy="69" r="3" fill="#1F78B4" stroke="none" opacity="1"/><circle cx="890" cy="82" r="3" fill="#1F78B4" stroke="none" opacity="1"/><circle cx="898" cy="71" r="3" fill="#1F78B4" stroke="none" opacity="1"/><circle cx="907" cy="73" r="3" fill="#1F78B4" stroke="none" opacity="1"/><circle cx="915" cy="56" r="3" fill="#1F78B4" stroke="none" opacity="1"/><circle cx="924" cy="53" r="3" fill="#1F78B4" stroke="none" opacity="1"/><circle cx="933" cy="61" r="3" fill="#1F78B4" stroke="none" opacity="1"/><polyline fill="none" stroke="#1F78B4" stroke-width="1" points="87 473 933 53" opacity="1"/><polygon fill="#1F78B4" points="87 473 933 53 933 53" opacity=".25"/><text x="132" y="68" fill="#000" dy=".76em" font-family="sans-serif" font-size="9.677" opacity="1" text-anchor="start">Sample</text><text x="132" y="83" fill="#000" dy=".76em" font-family="sans-serif" font-size="9.677" opacity="1" text-anchor="start">Linear regression</text><text x="132" y="98" fill="#000" dy=".76em" font-family="sans-serif" font-size="9.677" opacity="1" text-anchor="start">Confidence interval</text><circle cx="112" cy="73" r="3" fill="#1F78B4" stroke="none" opacity="1"/><polyline fill="none" stroke="#1F78B4" stroke-width="2" points="102 88 122 88" opacity="1"/><rect width="20" height="10" x="102" y="98" fill="#1F78B4" stroke="none" opacity=".25"/></svg>