<svg xmlns="http://www.w3.org/2000/svg" width="960" height="540"><text x="480" y="32" fill="#000" dy=".76em" font-family="sans-serif" font-size="16.129" opacity="1" text-anchor="middle">bench_group/threads_48/8388608</text><text x="27" y="263" fill="#000" dy=".76em" font-family="sans-serif" font-size="9.677" opacity="1" text-anchor="middle" transform="rotate(270, 27, 263)">Total sample time (ms)</text><text x="510" y="513" fill="#000" dy="-.5ex" font-family="sans-serif" font-size="9.677" opacity="1" text-anchor="middle">Iterations</text><line x1="173" x2="173" y1="472" y2="52" stroke="#000" stroke-width="1" opacity=".2"/><line x1="268" x2="268" y1="472" y2="52" stroke="#000" stroke-width="1" opacity=".2"/><line x1="363" x2="363" y1="472" y2="52" stroke="#000" stroke-width="1" opacity=".2"/><line x1="458" x2="458" y1="472" y2="52" stroke="#000" stroke-width="1" opacity=".2"/><line x1="553" x2="553" y1="472" y2="52" stroke="#000" stroke-width="1" opacity=".2"/><line x1="648" x2="648" y1="472" y2="52" stroke="#000" stroke-width="1" opacity=".2"/><line x1="743" x2="743" y1="472" y2="52" stroke="#000" stroke-width="1" opacity=".2"/><line x1="838" x2="838" y1="472" y2="52" stroke="#000" stroke-width="1" opacity=".2"/><line x1="933" x2="933" y1="472" y2="52" stroke="#000" stroke-width="1" opacity=".2"/><line x1="87" x2="933" y1="434" y2="434" stroke="#000" stroke-width="1" opacity=".2"/><line x1="87" x2="933" y1="392" y2="392" stroke="#000" stroke-width="1" opacity=".2"/><line x1="87" x2="933" y1="350" y2="350" stroke="#000" stroke-width="1" opacity=".2"/><line x1="87" x2="933" y1="308" y2="308" stroke="#000" stroke-width="1" opacity=".2"/><line x1="87" x2="933" y1="266" y2="266" stroke="#000" stroke-width="1" opacity=".2"/><line x1="87" x2="933" y1="224" y2="224" stroke="#000" stroke-width="1" opacity=".2"/><line x1="87" x2="933" y1="182" y2="182" stroke="#000" stroke-width="1" opacity=".2"/><line x1="87" x2="933" y1="140" y2="140" stroke="#000" stroke-width="1" opacity=".2"/><line x1="87" x2="933" y1="98" y2="98" stroke="#000" stroke-width="1" opacity=".2"/><line x1="87" x2="933" y1="56" y2="56" stroke="#000" stroke-width="1" opacity=".2"/><polyline fill="none" stroke="#000" stroke-width="1" points="86 53 86 473" opacity="1"/><text x="77" y="434" fill="#000" dy=".5ex" font-family="sans-serif" font-size="9.677" opacity="1" text-anchor="end">10.0</text><polyline fill="none" stroke="#000" stroke-width="1" points="81 434 86 434" opacity="1"/><text x="77" y="392" fill="#000" dy=".5ex" font-family="sans-serif" font-size="9.677" opacity="1" text-anchor="end">20.0</text><polyline fill="none" stroke="#000" stroke-width="1" points="81 392 86 392" opacity="1"/><text x="77" y="350" fill="#000" dy=".5ex" font-family="sans-serif" font-size="9.677" opacity="1" text-anchor="end">30.0</text><polyline fill="none" stroke="#000" stroke-width="1" points="81 350 86 350" opacity="1"/><text x="77" y="308" fill="#000" dy=".5ex" font-family="sans-serif" font-size="9.677" opacity="1" text-anchor="end">40.0</text><polyline fill="none" stroke="#000" stroke-width="1" points="81 308 86 308" opacity="1"/><text x="77" y="266" fill="#000" dy=".5ex" font-family="sans-serif" font-size="9.677" opacity="1" text-anchor="end">50.0</text><polyline fill="none" stroke="#000" stroke-width="1" points="81 266 86 266" opacity="1"/><text x="77" y="224" fill="#000" dy=".5ex" font-family="sans-serif" font-size="9.677" opacity="1" text-anchor="end">60.0</text><polyline fill="none" stroke="#000" stroke-width="1" points="81 224 86 224" opacity="1"/><text x="77" y="182" fill="#000" dy=".5ex" font-family="sans-serif" font-size="9.677" opacity="1" text-anchor="end">70.0</text><polyline fill="none" stroke="#000" stroke-width="1" points="81 182 86 182" opacity="1"/><text x="77" y="140" fill="#000" dy=".5ex" font-family="sans-serif" font-size="9.677" opacity="1" text-anchor="end">80.0</text><polyline fill="none" stroke="#000" stroke-width="1" points="81 140 86 140" opacity="1"/><text x="77" y="98" fill="#000" dy=".5ex" font-family="sans-serif" font-size="9.677" opacity="1" text-anchor="end">90.0</text><polyline fill="none" stroke="#000" stroke-width="1" points="81 98 86 98" opacity="1"/><text x="77" y="56" fill="#000" dy=".5ex" font-family="sans-serif" font-size="9.677" opacity="1" text-anchor="end">100.0</text><polyline fill="none" stroke="#000" stroke-width="1" points="81 56 86 56" opacity="1"/><polyline fill="none" stroke="#000" stroke-width="1" points="87 473 933 473" opacity="1"/><text x="173" y="483" fill="#000" dy=".76em" font-family="sans-serif" font-size="9.677" opacity="1" text-anchor="middle">100</text><polyline fill="none" stroke="#000" stroke-width="1" points="173 473 173 478" opacity="1"/><text x="268" y="483" fill="#000" dy=".76em" font-family="sans-serif" font-size="9.677" opacity="1" text-anchor="middle">200</text><polyline fill="none" stroke="#000" stroke-width="1" points="268 473 268 478" opacity="1"/><text x="363" y="483" fill="#000" dy=".76em" font-family="sans-serif" font-size="9.677" opacity="1" text-anchor="middle">300</text><polyline fill="none" stroke="#000" stroke-width="1" points="363 473 363 478" opacity="1"/><text x="458" y="483" fill="#000" dy=".76em" font-family="sans-serif" font-size="9.677" opacity="1" text-anchor="middle">400</text><polyline fill="none" stroke="#000" stroke-width="1" points="458 473 458 478" opacity="1"/><text x="553" y="483" fill="#000" dy=".76em" font-family="sans-serif" font-size="9.677" opacity="1" text-anchor="middle">500</text><polyline fill="none" stroke="#000" stroke-width="1" points="553 473 553 478" opacity="1"/><text x="648" y="483" fill="#000" dy=".76em" font-family="sans-serif" font-size="9.677" opacity="1" text-anchor="middle">600</text><polyline fill="none" stroke="#000" stroke-width="1" points="648 473 648 478" opacity="1"/><text x="743" y="483" fill="#000" dy=".76em" font-family="sans-serif" font-size="9.677" opacity="1" text-anchor="middle">700</text><polyline fill="none" stroke="#000" stroke-width="1" points="743 473 743 478" opacity="1"/><text x="838" y="483" fill="#000" dy=".76em" font-family="sans-serif" font-size="9.677" opacity="1" text-anchor="middle">800</text><polyline fill="none" stroke="#000" stroke-width="1" points="838 473 838 478" opacity="1"/><text x="933" y="483" fill="#000" dy=".76em" font-family="sans-serif" font-size="9.677" opacity="1" text-anchor="middle">900</text><polyline fill="none" stroke="#000" stroke-width="1" points="933 473 933 478" opacity="1"/><circle cx="87" cy="472" r="3" fill="#1F78B4" stroke="none" opacity="1"/><circle cx="95" cy="467" r="3" fill="#1F78B4" stroke="none" opacity="1"/><circle cx="104" cy="462" r="3" fill="#1F78B4" stroke="none" opacity="1"/><circle cx="112" cy="458" r="3" fill="#1F78B4" stroke="none" opacity="1"/><circle cx="121" cy="453" r="3" fill="#1F78B4" stroke="none" opacity="1"/><circle cx="129" cy="450" r="3" fill="#1F78B4" stroke="none" opacity="1"/><circle cx="138" cy="445" r="3" fill="#1F78B4" stroke="none" opacity="1"/><circle cx="146" cy="441" r="3" fill="#1F78B4" stroke="none" opacity="1"/><circle cx="155" cy="437" r="3" fill="#1F78B4" stroke="none" opacity="1"/><circle cx="163" cy="432" r="3" fill="#1F78B4" stroke="none" opacity="1"/><circle cx="172" cy="428" r="3" fill="#1F78B4" stroke="none" opacity="1"/><circle cx="181" cy="423" r="3" fill="#1F78B4" stroke="none" opacity="1"/><circle cx="189" cy="420" r="3" fill="#1F78B4" stroke="none" opacity="1"/><circle cx="198" cy="416" r="3" fill="#1F78B4" stroke="none" opacity="1"/><circle cx="206" cy="411" r="3" fill="#1F78B4" stroke="none" opacity="1"/><circle cx="215" cy="408" r="3" fill="#1F78B4" stroke="none" opacity="1"/><circle cx="223" cy="403" r="3" fill="#1F78B4" stroke="none" opacity="1"/><circle cx="232" cy="399" r="3" fill="#1F78B4" stroke="none" opacity="1"/><circle cx="240" cy="395" r="3" fill="#1F78B4" stroke="none" opacity="1"/><circle cx="249" cy="390" r="3" fill="#1F78B4" stroke="none" opacity="1"/><circle cx="257" cy="385" r="3" fill="#1F78B4" stroke="none" opacity="1"/><circle cx="266" cy="381" r="3" fill="#1F78B4" stroke="none" opacity="1"/><circle cx="275" cy="380" r="3" fill="#1F78B4" stroke="none" opacity="1"/><circle cx="283" cy="372" r="3" fill="#1F78B4" stroke="none" opacity="1"/><circle cx="292" cy="368" r="3" fill="#1F78B4" stroke="none" opacity="1"/><circle cx="300" cy="364" r="3" fill="#1F78B4" stroke="none" opacity="1"/><circle cx="309" cy="361" r="3" fill="#1F78B4" stroke="none" opacity="1"/><circle cx="317" cy="356" r="3" fill="#1F78B4" stroke="none" opacity="1"/><circle cx="326" cy="351" r="3" fill="#1F78B4" stroke="none" opacity="1"/><circle cx="334" cy="348" r="3" fill="#1F78B4" stroke="none" opacity="1"/><circle cx="343" cy="344" r="3" fill="#1F78B4" stroke="none" opacity="1"/><circle cx="351" cy="341" r="3" fill="#1F78B4" stroke="none" opacity="1"/><circle cx="360" cy="334" r="3" fill="#1F78B4" stroke="none" opacity="1"/><circle cx="369" cy="331" r="3" fill="#1F78B4" stroke="none" opacity="1"/><circle cx="377" cy="326" r="3" fill="#1F78B4" stroke="none" opacity="1"/><circle cx="386" cy="321" r="3" fill="#1F78B4" stroke="none" opacity="1"/><circle cx="394" cy="318" r="3" fill="#1F78B4" stroke="none" opacity="1"/><circle cx="403" cy="313" r="3" fill="#1F78B4" stroke="none" opacity="1"/><circle cx="411" cy="306" r="3" fill="#1F78B4" stroke="none" opacity="1"/><circle cx="420" cy="305" r="3" fill="#1F78B4" stroke="none" opacity="1"/><circle cx="428" cy="300" r="3" fill="#1F78B4" stroke="none" opacity="1"/><circle cx="437" cy="299" r="3" fill="#1F78B4" stroke="none" opacity="1"/><circle cx="445" cy="293" r="3" fill="#1F78B4" stroke="none" opacity="1"/><circle cx="454" cy="288" r="3" fill="#1F78B4" stroke="none" opacity="1"/><circle cx="463" cy="280" r="3" fill="#1F78B4" stroke="none" opacity="1"/><circle cx="471" cy="276" r="3" fill="#1F78B4" stroke="none" opacity="1"/><circle cx="480" cy="274" r="3" fill="#1F78B4" stroke="none" opacity="1"/><circle cx="488" cy="269" r="3" fill="#1F78B4" stroke="none" opacity="1"/><circle cx="497" cy="265" r="3" fill="#1F78B4" stroke="none" opacity="1"/><circle cx="505" cy="264" r="3" fill="#1F78B4" stroke="none" opacity="1"/><circle cx="514" cy="256" r="3" fill="#1F78B4" stroke="none" opacity="1"/><circle cx="522" cy="251" r="3" fill="#1F78B4" stroke="none" opacity="1"/><circle cx="531" cy="249" r="3" fill="#1F78B4" stroke="none" opacity="1"/><circle cx="539" cy="239" r="3" fill="#1F78B4" stroke="none" opacity="1"/><circle cx="548" cy="239" r="3" fill="#1F78B4" stroke="none" opacity="1"/><circle cx="557" cy="237" r="3" fill="#1F78B4" stroke="none" opacity="1"/><circle cx="565" cy="231" r="3" fill="#1F78B4" stroke="none" opacity="1"/><circle cx="574" cy="230" r="3" fill="#1F78B4" stroke="none" opacity="1"/><circle cx="582" cy="223" r="3" fill="#1F78B4" stroke="none" opacity="1"/><circle cx="591" cy="218" r="3" fill="#1F78B4" stroke="none" opacity="1"/><circle cx="599" cy="215" r="3" fill="#1F78B4" stroke="none" opacity="1"/><circle cx="608" cy="210" r="3" fill="#1F78B4" stroke="none" opacity="1"/><circle cx="616" cy="207" r="3" fill="#1F78B4" stroke="none" opacity="1"/><circle cx="625" cy="202" r="3" fill="#1F78B4" stroke="none" opacity="1"/><circle cx="633" cy="199" r="3" fill="#1F78B4" stroke="none" opacity="1"/><circle cx="642" cy="193" r="3" fill="#1F78B4" stroke="none" opacity="1"/><circle cx="651" cy="190" r="3" fill="#1F78B4" stroke="none" opacity="1"/><circle cx="659" cy="186" r="3" fill="#1F78B4" stroke="none" opacity="1"/><circle cx="668" cy="183" r="3" fill="#1F78B4" stroke="none" opacity="1"/><circle cx="676" cy="175" r="3" fill="#1F78B4" stroke="none" opacity="1"/><circle cx="685" cy="171" r="3" fill="#1F78B4" stroke="none" opacity="1"/><circle cx="693" cy="164" r="3" fill="#1F78B4" stroke="none" opacity="1"/><circle cx="702" cy="165" r="3" fill="#1F78B4" stroke="none" opacity="1"/><circle cx="710" cy="162" r="3" fill="#1F78B4" stroke="none" opacity="1"/><circle cx="719" cy="156" r="3" fill="#1F78B4" stroke="none" opacity="1"/><circle cx="727" cy="149" r="3" fill="#1F78B4" stroke="none" opacity="1"/><circle cx="736" cy="147" r="3" fill="#1F78B4" stroke="none" opacity="1"/><circle cx="745" cy="149" r="3" fill="#1F78B4" stroke="none" opacity="1"/><circle cx="753" cy="138" r="3" fill="#1F78B4" stroke="none" opacity="1"/><circle cx="762" cy="140" r="3" fill="#1F78B4" stroke="none" opacity="1"/><circle cx="770" cy="129" r="3" fill="#1F78B4" stroke="none" opacity="1"/><circle cx="779" cy="127" r="3" fill="#1F78B4" stroke="none" opacity="1"/><circle cx="787" cy="123" r="3" fill="#1F78B4" stroke="none" opacity="1"/><circle cx="796" cy="113" r="3" fill="#1F78B4" stroke="none" opacity="1"/><circle cx="804" cy="112" r="3" fill="#1F78B4" stroke="none" opacity="1"/><circle cx="813" cy="110" r="3" fill="#1F78B4" stroke="none" opacity="1"/><circle cx="821" cy="108" r="3" fill="#1F78B4" stroke="none" opacity="1"/><circle cx="830" cy="100" r="3" fill="#1F78B4" stroke="none" opacity="1"/><circle cx="839" cy="97" r="3" fill="#1F78B4" stroke="none" opacity="1"/><circle cx="847" cy="93" r="3" fill="#1F78B4" stroke="none" opacity="1"/><circle cx="856" cy="95" r="3" fill="#1F78B4" stroke="none" opacity="1"/><circle cx="864" cy="95" r="3" fill="#1F78B4" stroke="none" opacity="1"/><circle cx="873" cy="84" r="3" fill="#1F78B4" stroke="none" opacity="1"/><circle cx="881" cy="78" r="3" fill="#1F78B4" stroke="none" opacity="1"/><circle cx="890" cy="73" r="3" fill="#1F78B4" stroke="none" opacity="1"/><circle cx="898" cy="77" r="3" fill="#1F78B4" stroke="none" opacity="1"/><circle cx="907" cy="66" r="3" fill="#1F78B4" stroke="none" opacity="1"/><circle cx="915" cy="63" r="3" fill="#1F78B4" stroke="none" opacity="1"/><circle cx="924" cy="53" r="3" fill="#1F78B4" stroke="none" opacity="1"/><circle cx="933" cy="53" r="3" fill="#1F78B4" stroke="none" opacity="1"/><polyline fill="none" stroke="#1F78B4" stroke-width="1" points="87 473 933 53" opacity="1"/><polygon fill="#1F78B4" points="87 473 933 53 933 53" opacity=".25"/><text x="132" y="68" fill="#000" dy=".76em" font-family="sans-serif" font-size="9.677" opacity="1" text-anchor="start">Sample</text><text x="132" y="83" fill="#000" dy=".76em" font-family="sans-serif" font-size="9.677" opacity="1" text-anchor="start">Linear regression</text><text x="132" y="98" fill="#000" dy=".76em" font-family="sans-serif" font-size="9.677" opacity="1" text-anchor="start">Confidence interval</text><circle cx="112" cy="73" r="3" fill="#1F78B4" stroke="none" opacity="1"/><polyline fill="none" stroke="#1F78B4" stroke-width="2" points="102 88 122 88" opacity="1"/><rect width="20" height="10" x="102" y="98" fill="#1F78B4" stroke="none" opacity=".25"/></svg>