<svg xmlns="http://www.w3.org/2000/svg" width="450" height="300"><text x="15" y="130" fill="#000" dy=".76em" font-family="sans-serif" font-size="9.677" opacity="1" text-anchor="middle" transform="rotate(270, 15, 130)">Total sample time (ms)</text><text x="255" y="285" fill="#000" dy="-.5ex" font-family="sans-serif" font-size="9.677" opacity="1" text-anchor="middle">Iterations</text><line x1="111" x2="111" y1="244" y2="14" stroke="#000" stroke-width="1" opacity=".2"/><line x1="152" x2="152" y1="244" y2="14" stroke="#000" stroke-width="1" opacity=".2"/><line x1="192" x2="192" y1="244" y2="14" stroke="#000" stroke-width="1" opacity=".2"/><line x1="232" x2="232" y1="244" y2="14" stroke="#000" stroke-width="1" opacity=".2"/><line x1="273" x2="273" y1="244" y2="14" stroke="#000" stroke-width="1" opacity=".2"/><line x1="313" x2="313" y1="244" y2="14" stroke="#000" stroke-width="1" opacity=".2"/><line x1="354" x2="354" y1="244" y2="14" stroke="#000" stroke-width="1" opacity=".2"/><line x1="394" x2="394" y1="244" y2="14" stroke="#000" stroke-width="1" opacity=".2"/><line x1="435" x2="435" y1="244" y2="14" stroke="#000" stroke-width="1" opacity=".2"/><line x1="75" x2="435" y1="223" y2="223" stroke="#000" stroke-width="1" opacity=".2"/><line x1="75" x2="435" y1="200" y2="200" stroke="#000" stroke-width="1" opacity=".2"/><line x1="75" x2="435" y1="177" y2="177" stroke="#000" stroke-width="1" opacity=".2"/><line x1="75" x2="435" y1="154" y2="154" stroke="#000" stroke-width="1" opacity=".2"/><line x1="75" x2="435" y1="131" y2="131" stroke="#000" stroke-width="1" opacity=".2"/><line x1="75" x2="435" y1="108" y2="108" stroke="#000" stroke-width="1" opacity=".2"/><line x1="75" x2="435" y1="85" y2="85" stroke="#000" stroke-width="1" opacity=".2"/><line x1="75" x2="435" y1="62" y2="62" stroke="#000" stroke-width="1" opacity=".2"/><line x1="75" x2="435" y1="39" y2="39" stroke="#000" stroke-width="1" opacity=".2"/><line x1="75" x2="435" y1="16" y2="16" stroke="#000" stroke-width="1" opacity=".2"/><polyline fill="none" stroke="#000" stroke-width="1" points="74 15 74 245" opacity="1"/><text x="65" y="223" fill="#000" dy=".5ex" font-family="sans-serif" font-size="9.677" opacity="1" text-anchor="end">10.0</text><polyline fill="none" stroke="#000" stroke-width="1" points="69 223 74 223" opacity="1"/><text x="65" y="200" fill="#000" dy=".5ex" font-family="sans-serif" font-size="9.677" opacity="1" text-anchor="end">20.0</text><polyline fill="none" stroke="#000" stroke-width="1" points="69 200 74 200" opacity="1"/><text x="65" y="177" fill="#000" dy=".5ex" font-family="sans-serif" font-size="9.677" opacity="1" text-anchor="end">30.0</text><polyline fill="none" stroke="#000" stroke-width="1" points="69 177 74 177" opacity="1"/><text x="65" y="154" fill="#000" dy=".5ex" font-family="sans-serif" font-size="9.677" opacity="1" text-anchor="end">40.0</text><polyline fill="none" stroke="#000" stroke-width="1" points="69 154 74 154" opacity="1"/><text x="65" y="131" fill="#000" dy=".5ex" font-family="sans-serif" font-size="9.677" opacity="1" text-anchor="end">50.0</text><polyline fill="none" stroke="#000" stroke-width="1" points="69 131 74 131" opacity="1"/><text x="65" y="108" fill="#000" dy=".5ex" font-family="sans-serif" font-size="9.677" opacity="1" text-anchor="end">60.0</text><polyline fill="none" stroke="#000" stroke-width="1" points="69 108 74 108" opacity="1"/><text x="65" y="85" fill="#000" dy=".5ex" font-family="sans-serif" font-size="9.677" opacity="1" text-anchor="end">70.0</text><polyline fill="none" stroke="#000" stroke-width="1" points="69 85 74 85" opacity="1"/><text x="65" y="62" fill="#000" dy=".5ex" font-family="sans-serif" font-size="9.677" opacity="1" text-anchor="end">80.0</text><polyline fill="none" stroke="#000" stroke-width="1" points="69 62 74 62" opacity="1"/><text x="65" y="39" fill="#000" dy=".5ex" font-family="sans-serif" font-size="9.677" opacity="1" text-anchor="end">90.0</text><polyline fill="none" stroke="#000" stroke-width="1" points="69 39 74 39" opacity="1"/><text x="65" y="16" fill="#000" dy=".5ex" font-family="sans-serif" font-size="9.677" opacity="1" text-anchor="end">100.0</text><polyline fill="none" stroke="#000" stroke-width="1" points="69 16 74 16" opacity="1"/><polyline fill="none" stroke="#000" stroke-width="1" points="75 245 435 245" opacity="1"/><text x="111" y="255" fill="#000" dy=".76em" font-family="sans-serif" font-size="9.677" opacity="1" text-anchor="middle">100</text><polyline fill="none" stroke="#000" stroke-width="1" points="111 245 111 250" opacity="1"/><text x="152" y="255" fill="#000" dy=".76em" font-family="sans-serif" font-size="9.677" opacity="1" text-anchor="middle">200</text><polyline fill="none" stroke="#000" stroke-width="1" points="152 245 152 250" opacity="1"/><text x="192" y="255" fill="#000" dy=".76em" font-family="sans-serif" font-size="9.677" opacity="1" text-anchor="middle">300</text><polyline fill="none" stroke="#000" stroke-width="1" points="192 245 192 250" opacity="1"/><text x="232" y="255" fill="#000" dy=".76em" font-family="sans-serif" font-size="9.677" opacity="1" text-anchor="middle">400</text><polyline fill="none" stroke="#000" stroke-width="1" points="232 245 232 250" opacity="1"/><text x="273" y="255" fill="#000" dy=".76em" font-family="sans-serif" font-size="9.677" opacity="1" text-anchor="middle">500</text><polyline fill="none" stroke="#000" stroke-width="1" points="273 245 273 250" opacity="1"/><text x="313" y="255" fill="#000" dy=".76em" font-family="sans-serif" font-size="9.677" opacity="1" text-anchor="middle">600</text><polyline fill="none" stroke="#000" stroke-width="1" points="313 245 313 250" opacity="1"/><text x="354" y="255" fill="#000" dy=".76em" font-family="sans-serif" font-size="9.677" opacity="1" text-anchor="middle">700</text><polyline fill="none" stroke="#000" stroke-width="1" points="354 245 354 250" opacity="1"/><text x="394" y="255" fill="#000" dy=".76em" font-family="sans-serif" font-size="9.677" opacity="1" text-anchor="middle">800</text><polyline fill="none" stroke="#000" stroke-width="1" points="394 245 394 250" opacity="1"/><text x="435" y="255" fill="#000" dy=".76em" font-family="sans-serif" font-size="9.677" opacity="1" text-anchor="middle">900</text><polyline fill="none" stroke="#000" stroke-width="1" points="435 245 435 250" opacity="1"/><circle cx="75" cy="244" r="3" fill="#1F78B4" stroke="none" opacity="1"/><circle cx="78" cy="241" r="3" fill="#1F78B4" stroke="none" opacity="1"/><circle cx="82" cy="238" r="3" fill="#1F78B4" stroke="none" opacity="1"/><circle cx="85" cy="236" r="3" fill="#1F78B4" stroke="none" opacity="1"/><circle cx="89" cy="234" r="3" fill="#1F78B4" stroke="none" opacity="1"/><circle cx="93" cy="232" r="3" fill="#1F78B4" stroke="none" opacity="1"/><circle cx="96" cy="229" r="3" fill="#1F78B4" stroke="none" opacity="1"/><circle cx="100" cy="227" r="3" fill="#1F78B4" stroke="none" opacity="1"/><circle cx="104" cy="225" r="3" fill="#1F78B4" stroke="none" opacity="1"/><circle cx="107" cy="222" r="3" fill="#1F78B4" stroke="none" opacity="1"/><circle cx="111" cy="220" r="3" fill="#1F78B4" stroke="none" opacity="1"/><circle cx="115" cy="217" r="3" fill="#1F78B4" stroke="none" opacity="1"/><circle cx="118" cy="215" r="3" fill="#1F78B4" stroke="none" opacity="1"/><circle cx="122" cy="213" r="3" fill="#1F78B4" stroke="none" opacity="1"/><circle cx="125" cy="210" r="3" fill="#1F78B4" stroke="none" opacity="1"/><circle cx="129" cy="209" r="3" fill="#1F78B4" stroke="none" opacity="1"/><circle cx="133" cy="206" r="3" fill="#1F78B4" stroke="none" opacity="1"/><circle cx="136" cy="204" r="3" fill="#1F78B4" stroke="none" opacity="1"/><circle cx="140" cy="202" r="3" fill="#1F78B4" stroke="none" opacity="1"/><circle cx="144" cy="199" r="3" fill="#1F78B4" stroke="none" opacity="1"/><circle cx="147" cy="196" r="3" fill="#1F78B4" stroke="none" opacity="1"/><circle cx="151" cy="194" r="3" fill="#1F78B4" stroke="none" opacity="1"/><circle cx="155" cy="193" r="3" fill="#1F78B4" stroke="none" opacity="1"/><circle cx="158" cy="189" r="3" fill="#1F78B4" stroke="none" opacity="1"/><circle cx="162" cy="187" r="3" fill="#1F78B4" stroke="none" opacity="1"/><circle cx="165" cy="185" r="3" fill="#1F78B4" stroke="none" opacity="1"/><circle cx="169" cy="183" r="3" fill="#1F78B4" stroke="none" opacity="1"/><circle cx="173" cy="181" r="3" fill="#1F78B4" stroke="none" opacity="1"/><circle cx="176" cy="177" r="3" fill="#1F78B4" stroke="none" opacity="1"/><circle cx="180" cy="176" r="3" fill="#1F78B4" stroke="none" opacity="1"/><circle cx="184" cy="174" r="3" fill="#1F78B4" stroke="none" opacity="1"/><circle cx="187" cy="172" r="3" fill="#1F78B4" stroke="none" opacity="1"/><circle cx="191" cy="168" r="3" fill="#1F78B4" stroke="none" opacity="1"/><circle cx="195" cy="166" r="3" fill="#1F78B4" stroke="none" opacity="1"/><circle cx="198" cy="164" r="3" fill="#1F78B4" stroke="none" opacity="1"/><circle cx="202" cy="161" r="3" fill="#1F78B4" stroke="none" opacity="1"/><circle cx="205" cy="160" r="3" fill="#1F78B4" stroke="none" opacity="1"/><circle cx="209" cy="157" r="3" fill="#1F78B4" stroke="none" opacity="1"/><circle cx="213" cy="153" r="3" fill="#1F78B4" stroke="none" opacity="1"/><circle cx="216" cy="152" r="3" fill="#1F78B4" stroke="none" opacity="1"/><circle cx="220" cy="150" r="3" fill="#1F78B4" stroke="none" opacity="1"/><circle cx="224" cy="149" r="3" fill="#1F78B4" stroke="none" opacity="1"/><circle cx="227" cy="146" r="3" fill="#1F78B4" stroke="none" opacity="1"/><circle cx="231" cy="143" r="3" fill="#1F78B4" stroke="none" opacity="1"/><circle cx="235" cy="139" r="3" fill="#1F78B4" stroke="none" opacity="1"/><circle cx="238" cy="136" r="3" fill="#1F78B4" stroke="none" opacity="1"/><circle cx="242" cy="136" r="3" fill="#1F78B4" stroke="none" opacity="1"/><circle cx="245" cy="132" r="3" fill="#1F78B4" stroke="none" opacity="1"/><circle cx="249" cy="130" r="3" fill="#1F78B4" stroke="none" opacity="1"/><circle cx="253" cy="130" r="3" fill="#1F78B4" stroke="none" opacity="1"/><circle cx="256" cy="125" r="3" fill="#1F78B4" stroke="none" opacity="1"/><circle cx="260" cy="123" r="3" fill="#1F78B4" stroke="none" opacity="1"/><circle cx="264" cy="122" r="3" fill="#1F78B4" stroke="none" opacity="1"/><circle cx="267" cy="116" r="3" fill="#1F78B4" stroke="none" opacity="1"/><circle cx="271" cy="116" r="3" fill="#1F78B4" stroke="none" opacity="1"/><circle cx="275" cy="115" r="3" fill="#1F78B4" stroke="none" opacity="1"/><circle cx="278" cy="112" r="3" fill="#1F78B4" stroke="none" opacity="1"/><circle cx="282" cy="111" r="3" fill="#1F78B4" stroke="none" opacity="1"/><circle cx="285" cy="107" r="3" fill="#1F78B4" stroke="none" opacity="1"/><circle cx="289" cy="104" r="3" fill="#1F78B4" stroke="none" opacity="1"/><circle cx="293" cy="103" r="3" fill="#1F78B4" stroke="none" opacity="1"/><circle cx="296" cy="100" r="3" fill="#1F78B4" stroke="none" opacity="1"/><circle cx="300" cy="99" r="3" fill="#1F78B4" stroke="none" opacity="1"/><circle cx="304" cy="96" r="3" fill="#1F78B4" stroke="none" opacity="1"/><circle cx="307" cy="94" r="3" fill="#1F78B4" stroke="none" opacity="1"/><circle cx="311" cy="91" r="3" fill="#1F78B4" stroke="none" opacity="1"/><circle cx="315" cy="89" r="3" fill="#1F78B4" stroke="none" opacity="1"/><circle cx="318" cy="87" r="3" fill="#1F78B4" stroke="none" opacity="1"/><circle cx="322" cy="85" r="3" fill="#1F78B4" stroke="none" opacity="1"/><circle cx="325" cy="81" r="3" fill="#1F78B4" stroke="none" opacity="1"/><circle cx="329" cy="79" r="3" fill="#1F78B4" stroke="none" opacity="1"/><circle cx="333" cy="75" r="3" fill="#1F78B4" stroke="none" opacity="1"/><circle cx="336" cy="76" r="3" fill="#1F78B4" stroke="none" opacity="1"/><circle cx="340" cy="74" r="3" fill="#1F78B4" stroke="none" opacity="1"/><circle cx="344" cy="71" r="3" fill="#1F78B4" stroke="none" opacity="1"/><circle cx="347" cy="67" r="3" fill="#1F78B4" stroke="none" opacity="1"/><circle cx="351" cy="66" r="3" fill="#1F78B4" stroke="none" opacity="1"/><circle cx="355" cy="67" r="3" fill="#1F78B4" stroke="none" opacity="1"/><circle cx="358" cy="61" r="3" fill="#1F78B4" stroke="none" opacity="1"/><circle cx="362" cy="62" r="3" fill="#1F78B4" stroke="none" opacity="1"/><circle cx="365" cy="56" r="3" fill="#1F78B4" stroke="none" opacity="1"/><circle cx="369" cy="55" r="3" fill="#1F78B4" stroke="none" opacity="1"/><circle cx="373" cy="53" r="3" fill="#1F78B4" stroke="none" opacity="1"/><circle cx="376" cy="47" r="3" fill="#1F78B4" stroke="none" opacity="1"/><circle cx="380" cy="47" r="3" fill="#1F78B4" stroke="none" opacity="1"/><circle cx="384" cy="46" r="3" fill="#1F78B4" stroke="none" opacity="1"/><circle cx="387" cy="44" r="3" fill="#1F78B4" stroke="none" opacity="1"/><circle cx="391" cy="40" r="3" fill="#1F78B4" stroke="none" opacity="1"/><circle cx="395" cy="39" r="3" fill="#1F78B4" stroke="none" opacity="1"/><circle cx="398" cy="36" r="3" fill="#1F78B4" stroke="none" opacity="1"/><circle cx="402" cy="37" r="3" fill="#1F78B4" stroke="none" opacity="1"/><circle cx="405" cy="37" r="3" fill="#1F78B4" stroke="none" opacity="1"/><circle cx="409" cy="31" r="3" fill="#1F78B4" stroke="none" opacity="1"/><circle cx="413" cy="28" r="3" fill="#1F78B4" stroke="none" opacity="1"/><circle cx="416" cy="25" r="3" fill="#1F78B4" stroke="none" opacity="1"/><circle cx="420" cy="28" r="3" fill="#1F78B4" stroke="none" opacity="1"/><circle cx="424" cy="22" r="3" fill="#1F78B4" stroke="none" opacity="1"/><circle cx="427" cy="20" r="3" fill="#1F78B4" stroke="none" opacity="1"/><circle cx="431" cy="15" r="3" fill="#1F78B4" stroke="none" opacity="1"/><circle cx="435" cy="15" r="3" fill="#1F78B4" stroke="none" opacity="1"/><polyline fill="none" stroke="#1F78B4" stroke-width="1" points="75 245 435 15" opacity="1"/><polygon fill="#1F78B4" points="75 245 435 15 435 15" opacity=".25"/></svg>