<svg xmlns="http://www.w3.org/2000/svg" width="960" height="540"><text x="480" y="5" fill="#000" dy=".76em" font-family="sans-serif" font-size="16.129" opacity="1" text-anchor="middle">bench_group/threads_48: Comparision</text><text x="26" y="263" fill="#000" dy=".76em" font-family="sans-serif" font-size="9.677" opacity="1" text-anchor="middle" transform="rotate(270, 26, 263)">Average time (ms)</text><text x="510" y="514" fill="#000" dy="-.5ex" font-family="sans-serif" font-size="9.677" opacity="1" text-anchor="middle">Input Size (Bytes)</text><polyline fill="none" stroke="#000" stroke-width="1" points="85 52 85 474" opacity="1"/><text x="76" y="411" fill="#000" dy=".5ex" font-family="sans-serif" font-size="9.677" opacity="1" text-anchor="end">2.0</text><polyline fill="none" stroke="#000" stroke-width="1" points="80 411 85 411" opacity="1"/><text x="76" y="350" fill="#000" dy=".5ex" font-family="sans-serif" font-size="9.677" opacity="1" text-anchor="end">4.0</text><polyline fill="none" stroke="#000" stroke-width="1" points="80 350 85 350" opacity="1"/><text x="76" y="288" fill="#000" dy=".5ex" font-family="sans-serif" font-size="9.677" opacity="1" text-anchor="end">6.0</text><polyline fill="none" stroke="#000" stroke-width="1" points="80 288 85 288" opacity="1"/><text x="76" y="226" fill="#000" dy=".5ex" font-family="sans-serif" font-size="9.677" opacity="1" text-anchor="end">8.0</text><polyline fill="none" stroke="#000" stroke-width="1" points="80 226 85 226" opacity="1"/><text x="76" y="165" fill="#000" dy=".5ex" font-family="sans-serif" font-size="9.677" opacity="1" text-anchor="end">10.0</text><polyline fill="none" stroke="#000" stroke-width="1" points="80 165 85 165" opacity="1"/><text x="76" y="103" fill="#000" dy=".5ex" font-family="sans-serif" font-size="9.677" opacity="1" text-anchor="end">12.0</text><polyline fill="none" stroke="#000" stroke-width="1" points="80 103 85 103" opacity="1"/><polyline fill="none" stroke="#000" stroke-width="1" points="86 474 934 474" opacity="1"/><text x="243" y="484" fill="#000" dy=".76em" font-family="sans-serif" font-size="9.677" opacity="1" text-anchor="middle">200000000.0</text><polyline fill="none" stroke="#000" stroke-width="1" points="243 474 243 479" opacity="1"/><text x="401" y="484" fill="#000" dy=".76em" font-family="sans-serif" font-size="9.677" opacity="1" text-anchor="middle">400000000.0</text><polyline fill="none" stroke="#000" stroke-width="1" points="401 474 401 479" opacity="1"/><text x="559" y="484" fill="#000" dy=".76em" font-family="sans-serif" font-size="9.677" opacity="1" text-anchor="middle">600000000.0</text><polyline fill="none" stroke="#000" stroke-width="1" points="559 474 559 479" opacity="1"/><text x="717" y="484" fill="#000" dy=".76em" font-family="sans-serif" font-size="9.677" opacity="1" text-anchor="middle">800000000.0</text><polyline fill="none" stroke="#000" stroke-width="1" points="717 474 717 479" opacity="1"/><text x="875" y="484" fill="#000" dy=".76em" font-family="sans-serif" font-size="9.677" opacity="1" text-anchor="middle">1000000000.0</text><polyline fill="none" stroke="#000" stroke-width="1" points="875 474 875 479" opacity="1"/><circle cx="86" cy="473" r="3" fill="#B22222" stroke="none" opacity="1"/><circle cx="86" cy="472" r="3" fill="#B22222" stroke="none" opacity="1"/><circle cx="86" cy="472" r="3" fill="#B22222" stroke="none" opacity="1"/><circle cx="86" cy="472" r="3" fill="#B22222" stroke="none" opacity="1"/><circle cx="86" cy="472" r="3" fill="#B22222" stroke="none" opacity="1"/><circle cx="86" cy="471" r="3" fill="#B22222" stroke="none" opacity="1"/><circle cx="87" cy="471" r="3" fill="#B22222" stroke="none" opacity="1"/><circle cx="89" cy="470" r="3" fill="#B22222" stroke="none" opacity="1"/><circle cx="92" cy="469" r="3" fill="#B22222" stroke="none" opacity="1"/><circle cx="99" cy="468" r="3" fill="#B22222" stroke="none" opacity="1"/><circle cx="112" cy="465" r="3" fill="#B22222" stroke="none" opacity="1"/><circle cx="138" cy="458" r="3" fill="#B22222" stroke="none" opacity="1"/><circle cx="191" cy="432" r="3" fill="#B22222" stroke="none" opacity="1"/><circle cx="297" cy="376" r="3" fill="#B22222" stroke="none" opacity="1"/><circle cx="509" cy="267" r="3" fill="#B22222" stroke="none" opacity="1"/><circle cx="934" cy="52" r="3" fill="#B22222" stroke="none" opacity="1"/><polyline fill="none" stroke="#B22222" stroke-width="1" points="86 473 86 472 86 472 86 472 86 472 86 471 87 471 89 470 92 469 99 468 112 465 138 458 191 432 297 376 509 267 934 52" opacity="1"/><text x="131" y="67" fill="#000" dy=".76em" font-family="sans-serif" font-size="9.677" opacity="1" text-anchor="start">threads_48</text><rect width="20" height="10" x="101" y="67" fill="#B22222" stroke="none" opacity="1"/></svg>