<svg xmlns="http://www.w3.org/2000/svg" width="960" height="540"><text x="480" y="32" fill="#000" dy=".76em" font-family="sans-serif" font-size="16.129" opacity="1" text-anchor="middle">bench_group/threads_08/8388608:median</text><text x="27" y="263" fill="#000" dy=".76em" font-family="sans-serif" font-size="9.677" opacity="1" text-anchor="middle" transform="rotate(270, 27, 263)">Density (a.u.)</text><text x="510" y="513" fill="#000" dy="-.5ex" font-family="sans-serif" font-size="9.677" opacity="1" text-anchor="middle">Average time (us)</text><polyline fill="none" stroke="#000" stroke-width="1" points="86 53 86 473" opacity="1"/><text x="77" y="417" fill="#000" dy=".5ex" font-family="sans-serif" font-size="9.677" opacity="1" text-anchor="end">2</text><polyline fill="none" stroke="#000" stroke-width="1" points="81 417 86 417" opacity="1"/><text x="77" y="357" fill="#000" dy=".5ex" font-family="sans-serif" font-size="9.677" opacity="1" text-anchor="end">4</text><polyline fill="none" stroke="#000" stroke-width="1" points="81 357 86 357" opacity="1"/><text x="77" y="297" fill="#000" dy=".5ex" font-family="sans-serif" font-size="9.677" opacity="1" text-anchor="end">6</text><polyline fill="none" stroke="#000" stroke-width="1" points="81 297 86 297" opacity="1"/><text x="77" y="237" fill="#000" dy=".5ex" font-family="sans-serif" font-size="9.677" opacity="1" text-anchor="end">8</text><polyline fill="none" stroke="#000" stroke-width="1" points="81 237 86 237" opacity="1"/><text x="77" y="176" fill="#000" dy=".5ex" font-family="sans-serif" font-size="9.677" opacity="1" text-anchor="end">10</text><polyline fill="none" stroke="#000" stroke-width="1" points="81 176 86 176" opacity="1"/><text x="77" y="116" fill="#000" dy=".5ex" font-family="sans-serif" font-size="9.677" opacity="1" text-anchor="end">12</text><polyline fill="none" stroke="#000" stroke-width="1" points="81 116 86 116" opacity="1"/><text x="77" y="56" fill="#000" dy=".5ex" font-family="sans-serif" font-size="9.677" opacity="1" text-anchor="end">14</text><polyline fill="none" stroke="#000" stroke-width="1" points="81 56 86 56" opacity="1"/><polyline fill="none" stroke="#000" stroke-width="1" points="87 473 933 473" opacity="1"/><text x="157" y="483" fill="#000" dy=".76em" font-family="sans-serif" font-size="9.677" opacity="1" text-anchor="middle">177.3</text><polyline fill="none" stroke="#000" stroke-width="1" points="157 473 157 478" opacity="1"/><text x="287" y="483" fill="#000" dy=".76em" font-family="sans-serif" font-size="9.677" opacity="1" text-anchor="middle">177.35</text><polyline fill="none" stroke="#000" stroke-width="1" points="287 473 287 478" opacity="1"/><text x="416" y="483" fill="#000" dy=".76em" font-family="sans-serif" font-size="9.677" opacity="1" text-anchor="middle">177.4</text><polyline fill="none" stroke="#000" stroke-width="1" points="416 473 416 478" opacity="1"/><text x="545" y="483" fill="#000" dy=".76em" font-family="sans-serif" font-size="9.677" opacity="1" text-anchor="middle">177.45</text><polyline fill="none" stroke="#000" stroke-width="1" points="545 473 545 478" opacity="1"/><text x="674" y="483" fill="#000" dy=".76em" font-family="sans-serif" font-size="9.677" opacity="1" text-anchor="middle">177.5</text><polyline fill="none" stroke="#000" stroke-width="1" points="674 473 674 478" opacity="1"/><text x="804" y="483" fill="#000" dy=".76em" font-family="sans-serif" font-size="9.677" opacity="1" text-anchor="middle">177.55</text><polyline fill="none" stroke="#000" stroke-width="1" points="804 473 804 478" opacity="1"/><polyline fill="none" stroke="#1F78B4" stroke-width="1" points="87 472 88 471 90 471 92 471 93 471 95 471 97 471 98 471 100 471 102 471 103 471 105 470 107 470 109 470 110 469 112 469 114 468 115 468 117 467 119 466 120 465 122 464 124 463 125 462 127 461 129 460 131 458 132 457 134 456 136 454 137 452 139 451 141 449 142 447 144 446 146 444 148 442 149 441 151 439 153 437 154 436 156 434 158 432 159 431 161 429 163 428 164 426 166 425 168 424 170 423 171 422 173 422 175 421 176 421 178 420 180 420 181 421 183 421 185 421 187 422 188 423 190 424 192 425 193 426 195 427 197 428 198 429 200 431 202 432 203 433 205 435 207 436 209 438 210 439 212 441 214 442 215 443 217 445 219 446 220 448 222 449 224 450 226 451 227 452 229 453 231 454 232 455 234 455 236 456 237 456 239 455 241 455 242 455 244 454 246 453 248 452 249 451 251 450 253 449 254 448 256 446 258 445 259 444 261 443 263 442 265 441 266 440 268 439 270 439 271 439 273 439 275 439 276 439 278 439 280 440 281 440 283 441 285 442 287 443 288 444 290 444 292 445 293 446 295 446 297 447 298 447 300 447 302 447 304 447 305 446 307 446 309 445 310 444 312 444 314 442 315 441 317 440 319 439 320 437 322 435 324 434 326 432 327 430 329 429 331 427 332 425 334 423 336 421 337 419 339 417 341 414 343 412 344 410 346 407 348 404 349 402 351 399 353 396 354 393 356 390 358 386 359 383 361 379 363 376 365 372 366 368 368 364 370 360 371 356 373 352 375 348 376 344 378 340 380 336 381 332 383 328 385 323 387 319 388 314 390 309 392 304 393 298 395 293 397 286 398 280 400 273 402 265 404 257 405 248 407 240 409 230 410 221 412 211 414 201 415 191 417 181 419 171 420 162 422 153 424 145 426 137 427 131 429 125 431 121 432 118 434 117 436 117 437 118 439 122 441 127 443 134 444 142 446 152 448 164 449 176 451 190 453 205 454 220 456 236 458 251 459 267 461 282 463 297 465 311 466 323 468 334 470 344 471 352 473 359 475 364 476 367 478 369 480 369 482 368 483 367 485 364 487 361 488 357 490 353 492 350 493 346 495 343 497 341 498 340 500 339 502 340 504 341 505 343 507 345 509 349 510 352 512 356 514 360 515 363 517 366 519 367 521 368 522 367 524 365 526 361 527 355 529 348 531 338 532 327 534 313 536 299 537 282 539 265 541 247 543 228 544 209 546 191 548 173 549 156 551 141 553 127 554 115 556 105 558 98 560 93 561 90 563 90 565 92 566 97 568 103 570 111 571 121 573 132 575 144 576 158 578 171 580 185 582 200 583 214 585 229 587 243 588 257 590 270 592 283 593 296 595 307 597 318 599 329 600 339 602 348 604 356 605 364 607 371 609 377 610 382 612 387 614 391 615 395 617 397 619 399 621 401 622 402 624 403 626 403 627 403 629 403 631 403 632 403 634 403 636 403 638 403 639 403 641 403 643 404 644 404 646 405 648 406 649 407 651 408 653 410 654 411 656 412 658 413 660 414 661 415 663 415 665 416 666 416 668 416 670 416 671 416 673 416 675 415 676 415 678 414 680 413 682 412 683 411 685 410 687 409 688 408 690 407 692 406 693 405 695 403 697 402 699 400 700 399 702 397 704 396 705 394 707 393 709 392 710 390 712 389 714 388 715 388 717 387 719 387 721 387 722 388 724 389 726 390 727 391 729 393 731 395 732 398 734 400 736 403 738 406 739 408 741 411 743 414 744 417 746 420 748 423 749 425 751 428 753 430 754 433 756 435 758 437 760 439 761 441 763 442 765 444 766 445 768 447 770 448 771 449 773 450 775 451 777 452 778 453 780 454 782 455 783 456 785 457 787 457 788 458 790 458 792 459 793 459 795 460 797 460 799 460 800 461 802 461 804 461 805 462 807 462 809 462 810 463 812 463 814 463 816 464 817 464 819 464 821 465 822 465 824 465 826 466 827 466 829 466 831 466 832 466 834 466 836 466 838 466 839 465 841 465 843 465 844 465 846 465 848 465 849 465 851 465 853 465 855 465 856 465 858 465 860 466 861 466 863 466 865 466 866 467 868 467 870 467 871 468 873 468 875 468 877 469 878 469 880 469 882 469 883 470 885 470 887 470 888 470 890 470 892 470 894 470 895 470 897 469 899 469 900 469 902 469 904 468 905 468 907 468 909 468 910 467 912 467 914 467 916 467 917 467 919 467 921 467 922 467 924 467 926 468 927 468 929 468 931 469 933 469" opacity="1"/><polygon fill="#1F78B4" points="164 426 166 425 168 424 170 423 171 422 173 422 175 421 176 421 178 420 180 420 181 421 183 421 185 421 187 422 188 423 190 424 192 425 193 426 195 427 197 428 198 429 200 431 202 432 203 433 205 435 207 436 209 438 210 439 212 441 214 442 215 443 217 445 219 446 220 448 222 449 224 450 226 451 227 452 229 453 231 454 232 455 234 455 236 456 237 456 239 455 241 455 242 455 244 454 246 453 248 452 249 451 251 450 253 449 254 448 256 446 258 445 259 444 261 443 263 442 265 441 266 440 268 439 270 439 271 439 273 439 275 439 276 439 278 439 280 440 281 440 283 441 285 442 287 443 288 444 290 444 292 445 293 446 295 446 297 447 298 447 300 447 302 447 304 447 305 446 307 446 309 445 310 444 312 444 314 442 315 441 317 440 319 439 320 437 322 435 324 434 326 432 327 430 329 429 331 427 332 425 334 423 336 421 337 419 339 417 341 414 343 412 344 410 346 407 348 404 349 402 351 399 353 396 354 393 356 390 358 386 359 383 361 379 363 376 365 372 366 368 368 364 370 360 371 356 373 352 375 348 376 344 378 340 380 336 381 332 383 328 385 323 387 319 388 314 390 309 392 304 393 298 395 293 397 286 398 280 400 273 402 265 404 257 405 248 407 240 409 230 410 221 412 211 414 201 415 191 417 181 419 171 420 162 422 153 424 145 426 137 427 131 429 125 431 121 432 118 434 117 436 117 437 118 439 122 441 127 443 134 444 142 446 152 448 164 449 176 451 190 453 205 454 220 456 236 458 251 459 267 461 282 463 297 465 311 466 323 468 334 470 344 471 352 473 359 475 364 476 367 478 369 480 369 482 368 483 367 485 364 487 361 488 357 490 353 492 350 493 346 495 343 497 341 498 340 500 339 502 340 504 341 505 343 507 345 509 349 510 352 512 356 514 360 515 363 517 366 519 367 521 368 522 367 524 365 526 361 527 355 529 348 531 338 532 327 534 313 536 299 537 282 539 265 541 247 543 228 544 209 546 191 548 173 549 156 551 141 553 127 554 115 556 105 558 98 560 93 561 90 563 90 565 92 566 97 568 103 570 111 571 121 573 132 575 144 576 158 578 171 580 185 582 200 583 214 585 229 587 243 588 257 590 270 592 283 593 296 595 307 597 318 599 329 600 339 602 348 604 356 605 364 607 371 609 377 610 382 612 387 614 391 615 395 617 397 619 399 621 401 622 402 624 403 626 403 627 403 629 403 631 403 632 403 634 403 636 403 638 403 639 403 641 403 643 404 644 404 646 405 648 406 649 407 651 408 653 410 654 411 656 412 658 413 660 414 661 415 663 415 665 416 666 416 668 416 670 416 671 416 673 416 675 415 676 415 678 414 680 413 682 412 683 411 685 410 687 409 688 408 690 407 692 406 693 405 695 403 697 402 699 400 700 399 702 397 704 396 705 394 707 393 709 392 710 390 712 389 714 388 715 388 717 387 719 387 721 387 722 388 724 389 726 390 727 391 729 393 731 395 732 398 734 400 736 403 738 406 739 408 741 411 743 414 744 417 746 420 748 423 749 425 751 428 753 430 754 433 756 435 758 437 760 439 761 441 763 442 765 444 766 445 768 447 770 448 771 449 773 450 775 451 777 452 778 453 780 454 782 455 783 456 785 457 787 457 788 458 790 458 792 459 793 459 795 460 797 460 799 460 800 461 802 461 804 461 805 462 807 462 809 462 810 463 812 463 814 463 816 464 817 464 819 464 821 465 822 465 824 465 826 466 827 466 829 466 831 466 832 466 834 466 836 466 838 466 839 465 841 465 843 465 844 465 846 465 848 465 849 465 851 465 853 465 853 473 164 473" opacity=".25"/><polyline fill="none" stroke="#1F78B4" stroke-width="3" points="501 473 501 339" opacity="1"/><text x="798" y="68" fill="#000" dy=".76em" font-family="sans-serif" font-size="9.677" opacity="1" text-anchor="start">Bootstrap distribution</text><text x="798" y="83" fill="#000" dy=".76em" font-family="sans-serif" font-size="9.677" opacity="1" text-anchor="start">Confidence interval</text><text x="798" y="98" fill="#000" dy=".76em" font-family="sans-serif" font-size="9.677" opacity="1" text-anchor="start">Point estimate</text><polyline fill="none" stroke="#1F78B4" stroke-width="1" points="768 73 788 73" opacity="1"/><rect width="20" height="10" x="768" y="83" fill="#1F78B4" stroke="none" opacity=".25"/><polyline fill="none" stroke="#1F78B4" stroke-width="1" points="768 103 788 103" opacity="1"/></svg>