<svg xmlns="http://www.w3.org/2000/svg" width="960" height="540"><text x="480" y="32" fill="#000" dy=".76em" font-family="sans-serif" font-size="16.129" opacity="1" text-anchor="middle">bench_group/threads_08/8388608</text><text x="27" y="263" fill="#000" dy=".76em" font-family="sans-serif" font-size="9.677" opacity="1" text-anchor="middle" transform="rotate(270, 27, 263)">Iterations</text><text x="480" y="513" fill="#000" dy="-.5ex" font-family="sans-serif" font-size="9.677" opacity="1" text-anchor="middle">Average Time (us)</text><polyline fill="none" stroke="#000" stroke-width="1" points="86 53 86 473" opacity="1"/><text x="77" y="402" fill="#000" dy=".5ex" font-family="sans-serif" font-size="9.677" opacity="1" text-anchor="end">100</text><polyline fill="none" stroke="#000" stroke-width="1" points="81 402 86 402" opacity="1"/><text x="77" y="332" fill="#000" dy=".5ex" font-family="sans-serif" font-size="9.677" opacity="1" text-anchor="end">200</text><polyline fill="none" stroke="#000" stroke-width="1" points="81 332 86 332" opacity="1"/><text x="77" y="262" fill="#000" dy=".5ex" font-family="sans-serif" font-size="9.677" opacity="1" text-anchor="end">300</text><polyline fill="none" stroke="#000" stroke-width="1" points="81 262 86 262" opacity="1"/><text x="77" y="192" fill="#000" dy=".5ex" font-family="sans-serif" font-size="9.677" opacity="1" text-anchor="end">400</text><polyline fill="none" stroke="#000" stroke-width="1" points="81 192 86 192" opacity="1"/><text x="77" y="122" fill="#000" dy=".5ex" font-family="sans-serif" font-size="9.677" opacity="1" text-anchor="end">500</text><polyline fill="none" stroke="#000" stroke-width="1" points="81 122 86 122" opacity="1"/><polyline fill="none" stroke="#000" stroke-width="1" points="87 473 873 473" opacity="1"/><text x="119" y="483" fill="#000" dy=".76em" font-family="sans-serif" font-size="9.677" opacity="1" text-anchor="middle">175</text><polyline fill="none" stroke="#000" stroke-width="1" points="119 473 119 478" opacity="1"/><text x="278" y="483" fill="#000" dy=".76em" font-family="sans-serif" font-size="9.677" opacity="1" text-anchor="middle">180</text><polyline fill="none" stroke="#000" stroke-width="1" points="278 473 278 478" opacity="1"/><text x="436" y="483" fill="#000" dy=".76em" font-family="sans-serif" font-size="9.677" opacity="1" text-anchor="middle">185</text><polyline fill="none" stroke="#000" stroke-width="1" points="436 473 436 478" opacity="1"/><text x="595" y="483" fill="#000" dy=".76em" font-family="sans-serif" font-size="9.677" opacity="1" text-anchor="middle">190</text><polyline fill="none" stroke="#000" stroke-width="1" points="595 473 595 478" opacity="1"/><text x="754" y="483" fill="#000" dy=".76em" font-family="sans-serif" font-size="9.677" opacity="1" text-anchor="middle">195</text><polyline fill="none" stroke="#000" stroke-width="1" points="754 473 754 478" opacity="1"/><text x="933" y="263" fill="#000" dy=".76em" font-family="sans-serif" font-size="9.677" opacity="1" text-anchor="middle" transform="rotate(90, 933, 263)">Density (a.u.)</text><polyline fill="none" stroke="#000" stroke-width="1" points="873 54 873 473" opacity="1"/><text x="883" y="409" fill="#000" dy=".5ex" font-family="sans-serif" font-size="9.677" opacity="1" text-anchor="start">0.05</text><polyline fill="none" stroke="#000" stroke-width="1" points="873 409 878 409" opacity="1"/><text x="905" y="345" fill="#000" dy=".5ex" font-family="sans-serif" font-size="9.677" opacity="1" text-anchor="end">0.1</text><polyline fill="none" stroke="#000" stroke-width="1" points="873 345 878 345" opacity="1"/><text x="883" y="281" fill="#000" dy=".5ex" font-family="sans-serif" font-size="9.677" opacity="1" text-anchor="start">0.15</text><polyline fill="none" stroke="#000" stroke-width="1" points="873 281 878 281" opacity="1"/><text x="905" y="217" fill="#000" dy=".5ex" font-family="sans-serif" font-size="9.677" opacity="1" text-anchor="end">0.2</text><polyline fill="none" stroke="#000" stroke-width="1" points="873 217 878 217" opacity="1"/><text x="883" y="153" fill="#000" dy=".5ex" font-family="sans-serif" font-size="9.677" opacity="1" text-anchor="start">0.25</text><polyline fill="none" stroke="#000" stroke-width="1" points="873 153 878 153" opacity="1"/><text x="905" y="89" fill="#000" dy=".5ex" font-family="sans-serif" font-size="9.677" opacity="1" text-anchor="end">0.3</text><polyline fill="none" stroke="#000" stroke-width="1" points="873 89 878 89" opacity="1"/><polygon fill="#1F78B4" points="87 471 88 471 90 471 91 470 93 470 94 470 96 469 98 468 99 468 101 467 102 466 104 465 105 464 107 463 109 461 110 460 112 458 113 456 115 454 116 452 118 449 120 446 121 443 123 439 124 435 126 431 127 427 129 422 131 416 132 411 134 405 135 398 137 391 138 383 140 376 142 367 143 358 145 349 146 340 148 330 150 319 151 308 153 297 154 286 156 274 157 262 159 250 161 238 162 226 164 214 165 201 167 189 168 177 170 166 172 154 173 143 175 132 176 122 178 112 179 103 181 94 183 87 184 79 186 73 187 68 189 63 190 59 192 56 194 54 195 53 197 53 198 53 200 55 201 57 203 60 205 64 206 69 208 74 209 81 211 88 213 95 214 103 216 112 217 121 219 130 220 140 222 150 224 160 225 170 227 181 228 191 230 202 231 212 233 223 235 233 236 244 238 254 239 263 241 273 242 282 244 291 246 300 247 309 249 317 250 324 252 332 253 339 255 346 257 352 258 358 260 364 261 369 263 375 264 379 266 384 268 388 269 392 271 396 272 399 274 402 276 405 277 408 279 410 280 413 282 415 283 417 285 419 287 420 288 422 290 423 291 425 293 426 294 427 296 428 298 429 299 430 301 431 302 432 304 433 305 434 307 435 309 435 310 436 312 437 313 438 315 438 316 439 318 440 320 441 321 442 323 443 324 443 326 444 327 445 329 446 331 447 332 448 334 449 335 449 337 450 339 451 340 452 342 453 343 454 345 455 346 455 348 456 350 457 351 458 353 458 354 459 356 460 357 460 359 461 361 462 362 462 364 463 365 463 367 464 368 464 370 464 372 465 373 465 375 465 376 465 378 465 379 466 381 466 383 466 384 466 386 466 387 466 389 466 391 466 392 466 394 466 395 465 397 465 398 465 400 465 402 465 403 465 405 465 406 464 408 464 409 464 411 464 413 464 414 464 416 464 417 464 419 463 420 463 422 463 424 463 425 463 427 463 428 463 430 463 431 463 433 463 435 463 436 463 438 464 439 464 441 464 442 464 444 464 446 464 447 464 449 465 450 465 452 465 454 465 455 466 457 466 458 466 460 466 461 466 463 467 465 467 466 467 468 468 469 468 471 468 472 468 474 469 476 469 477 469 479 469 480 469 482 470 483 470 485 470 487 470 488 470 490 471 491 471 493 471 494 471 496 471 498 471 499 471 501 471 502 472 504 472 505 472 507 472 509 472 510 472 512 472 513 472 515 472 517 472 518 472 520 472 521 472 523 472 524 472 526 472 528 472 529 472 531 472 532 472 534 472 535 472 537 472 539 472 540 472 542 472 543 472 545 472 546 472 548 472 550 472 551 472 553 472 554 472 556 472 557 472 559 472 561 472 562 472 564 472 565 472 567 472 568 472 570 472 572 473 573 473 575 473 576 473 578 473 580 473 581 473 583 473 584 473 586 473 587 473 589 473 591 473 592 473 594 473 595 473 597 473 598 473 600 473 602 473 603 473 605 473 606 473 608 473 609 473 611 473 613 473 614 473 616 473 617 473 619 473 620 473 622 473 624 473 625 473 627 473 628 473 630 473 632 473 633 473 635 473 636 473 638 473 639 473 641 473 643 473 644 473 646 473 647 473 649 473 650 473 652 473 654 473 655 472 657 472 658 472 660 472 661 472 663 472 665 472 666 472 668 472 669 472 671 472 672 472 674 472 676 472 677 472 679 472 680 472 682 472 683 472 685 472 687 472 688 472 690 472 691 472 693 472 695 472 696 472 698 472 699 472 701 472 702 472 704 472 706 472 707 472 709 472 710 472 712 472 713 472 715 472 717 472 718 472 720 472 721 472 723 472 724 472 726 471 728 471 729 471 731 471 732 471 734 471 735 471 737 471 739 470 740 470 742 470 743 470 745 470 746 470 748 470 750 469 751 469 753 469 754 469 756 469 758 469 759 468 761 468 762 468 764 468 765 468 767 468 769 468 770 468 772 467 773 467 775 467 776 467 778 467 780 467 781 467 783 467 784 467 786 467 787 467 789 467 791 467 792 468 794 468 795 468 797 468 798 468 800 468 802 468 803 468 805 469 806 469 808 469 809 469 811 469 813 469 814 470 816 470 817 470 819 470 821 470 822 470 824 471 825 471 827 471 828 471 830 471 832 471 833 471 835 471 836 471 838 472 839 472 841 472 843 472 844 472 846 472 847 472 849 472 850 472 852 472 854 472 855 472 857 472 858 472 860 472 861 472 863 472 865 472 866 472 868 472 869 472 871 472 873 472 873 473 87 473" opacity=".5"/><polyline fill="none" stroke="#1F78B4" stroke-width="1" points="217 472 217 53" opacity="1"/><polyline fill="none" stroke="#FF7F00" stroke-width="1" points="144 472 144 53" opacity="1"/><polyline fill="none" stroke="#FF7F00" stroke-width="1" points="260 472 260 53" opacity="1"/><polyline fill="none" stroke="#E31A1C" stroke-width="1" points="101 472 101 53" opacity="1"/><polyline fill="none" stroke="#E31A1C" stroke-width="1" points="304 472 304 53" opacity="1"/><circle cx="256" cy="442" r="3" fill="#1F78B4" stroke="none" opacity="1"/><circle cx="208" cy="430" r="3" fill="#1F78B4" stroke="none" opacity="1"/><circle cx="234" cy="425" r="3" fill="#1F78B4" stroke="none" opacity="1"/><circle cx="231" cy="421" r="3" fill="#1F78B4" stroke="none" opacity="1"/><circle cx="233" cy="417" r="3" fill="#1F78B4" stroke="none" opacity="1"/><circle cx="194" cy="413" r="3" fill="#1F78B4" stroke="none" opacity="1"/><circle cx="186" cy="409" r="3" fill="#1F78B4" stroke="none" opacity="1"/><circle cx="216" cy="404" r="3" fill="#1F78B4" stroke="none" opacity="1"/><circle cx="203" cy="400" r="3" fill="#1F78B4" stroke="none" opacity="1"/><circle cx="195" cy="396" r="3" fill="#1F78B4" stroke="none" opacity="1"/><circle cx="224" cy="392" r="3" fill="#1F78B4" stroke="none" opacity="1"/><circle cx="227" cy="388" r="3" fill="#1F78B4" stroke="none" opacity="1"/><circle cx="204" cy="383" r="3" fill="#1F78B4" stroke="none" opacity="1"/><circle cx="192" cy="379" r="3" fill="#1F78B4" stroke="none" opacity="1"/><circle cx="225" cy="375" r="3" fill="#1F78B4" stroke="none" opacity="1"/><circle cx="223" cy="371" r="3" fill="#1F78B4" stroke="none" opacity="1"/><circle cx="208" cy="367" r="3" fill="#1F78B4" stroke="none" opacity="1"/><circle cx="219" cy="362" r="3" fill="#1F78B4" stroke="none" opacity="1"/><circle cx="204" cy="358" r="3" fill="#1F78B4" stroke="none" opacity="1"/><circle cx="187" cy="354" r="3" fill="#1F78B4" stroke="none" opacity="1"/><circle cx="250" cy="350" r="3" fill="#1F78B4" stroke="none" opacity="1"/><circle cx="216" cy="346" r="3" fill="#1F78B4" stroke="none" opacity="1"/><circle cx="197" cy="341" r="3" fill="#1F78B4" stroke="none" opacity="1"/><circle cx="201" cy="337" r="3" fill="#1F78B4" stroke="none" opacity="1"/><circle cx="203" cy="333" r="3" fill="#1F78B4" stroke="none" opacity="1"/><circle cx="189" cy="329" r="3" fill="#1F78B4" stroke="none" opacity="1"/><circle cx="192" cy="325" r="3" fill="#1F78B4" stroke="none" opacity="1"/><circle cx="207" cy="320" r="3" fill="#1F78B4" stroke="none" opacity="1"/><circle cx="191" cy="316" r="3" fill="#1F78B4" stroke="none" opacity="1"/><circle cx="190" cy="312" r="3" fill="#1F78B4" stroke="none" opacity="1"/><circle cx="187" cy="308" r="3" fill="#1F78B4" stroke="none" opacity="1"/><circle cx="189" cy="304" r="3" fill="#1F78B4" stroke="none" opacity="1"/><circle cx="196" cy="295" r="3" fill="#1F78B4" stroke="none" opacity="1"/><circle cx="196" cy="291" r="3" fill="#1F78B4" stroke="none" opacity="1"/><circle cx="206" cy="287" r="3" fill="#1F78B4" stroke="none" opacity="1"/><circle cx="191" cy="283" r="3" fill="#1F78B4" stroke="none" opacity="1"/><circle cx="198" cy="278" r="3" fill="#1F78B4" stroke="none" opacity="1"/><circle cx="199" cy="274" r="3" fill="#1F78B4" stroke="none" opacity="1"/><circle cx="182" cy="270" r="3" fill="#1F78B4" stroke="none" opacity="1"/><circle cx="208" cy="266" r="3" fill="#1F78B4" stroke="none" opacity="1"/><circle cx="202" cy="262" r="3" fill="#1F78B4" stroke="none" opacity="1"/><circle cx="192" cy="257" r="3" fill="#1F78B4" stroke="none" opacity="1"/><circle cx="193" cy="249" r="3" fill="#1F78B4" stroke="none" opacity="1"/><circle cx="188" cy="245" r="3" fill="#1F78B4" stroke="none" opacity="1"/><circle cx="195" cy="241" r="3" fill="#1F78B4" stroke="none" opacity="1"/><circle cx="208" cy="236" r="3" fill="#1F78B4" stroke="none" opacity="1"/><circle cx="186" cy="232" r="3" fill="#1F78B4" stroke="none" opacity="1"/><circle cx="197" cy="228" r="3" fill="#1F78B4" stroke="none" opacity="1"/><circle cx="199" cy="224" r="3" fill="#1F78B4" stroke="none" opacity="1"/><circle cx="189" cy="220" r="3" fill="#1F78B4" stroke="none" opacity="1"/><circle cx="238" cy="215" r="3" fill="#1F78B4" stroke="none" opacity="1"/><circle cx="178" cy="211" r="3" fill="#1F78B4" stroke="none" opacity="1"/><circle cx="187" cy="207" r="3" fill="#1F78B4" stroke="none" opacity="1"/><circle cx="184" cy="203" r="3" fill="#1F78B4" stroke="none" opacity="1"/><circle cx="181" cy="199" r="3" fill="#1F78B4" stroke="none" opacity="1"/><circle cx="187" cy="194" r="3" fill="#1F78B4" stroke="none" opacity="1"/><circle cx="197" cy="190" r="3" fill="#1F78B4" stroke="none" opacity="1"/><circle cx="180" cy="186" r="3" fill="#1F78B4" stroke="none" opacity="1"/><circle cx="218" cy="182" r="3" fill="#1F78B4" stroke="none" opacity="1"/><circle cx="199" cy="178" r="3" fill="#1F78B4" stroke="none" opacity="1"/><circle cx="190" cy="173" r="3" fill="#1F78B4" stroke="none" opacity="1"/><circle cx="195" cy="169" r="3" fill="#1F78B4" stroke="none" opacity="1"/><circle cx="200" cy="165" r="3" fill="#1F78B4" stroke="none" opacity="1"/><circle cx="179" cy="161" r="3" fill="#1F78B4" stroke="none" opacity="1"/><circle cx="186" cy="157" r="3" fill="#1F78B4" stroke="none" opacity="1"/><circle cx="186" cy="152" r="3" fill="#1F78B4" stroke="none" opacity="1"/><circle cx="197" cy="144" r="3" fill="#1F78B4" stroke="none" opacity="1"/><circle cx="183" cy="140" r="3" fill="#1F78B4" stroke="none" opacity="1"/><circle cx="189" cy="136" r="3" fill="#1F78B4" stroke="none" opacity="1"/><circle cx="179" cy="131" r="3" fill="#1F78B4" stroke="none" opacity="1"/><circle cx="189" cy="127" r="3" fill="#1F78B4" stroke="none" opacity="1"/><circle cx="232" cy="123" r="3" fill="#1F78B4" stroke="none" opacity="1"/><circle cx="185" cy="119" r="3" fill="#1F78B4" stroke="none" opacity="1"/><circle cx="203" cy="115" r="3" fill="#1F78B4" stroke="none" opacity="1"/><circle cx="183" cy="110" r="3" fill="#1F78B4" stroke="none" opacity="1"/><circle cx="187" cy="106" r="3" fill="#1F78B4" stroke="none" opacity="1"/><circle cx="190" cy="102" r="3" fill="#1F78B4" stroke="none" opacity="1"/><circle cx="203" cy="98" r="3" fill="#1F78B4" stroke="none" opacity="1"/><circle cx="187" cy="94" r="3" fill="#1F78B4" stroke="none" opacity="1"/><circle cx="192" cy="89" r="3" fill="#1F78B4" stroke="none" opacity="1"/><circle cx="182" cy="85" r="3" fill="#1F78B4" stroke="none" opacity="1"/><circle cx="188" cy="81" r="3" fill="#1F78B4" stroke="none" opacity="1"/><circle cx="189" cy="77" r="3" fill="#1F78B4" stroke="none" opacity="1"/><circle cx="222" cy="73" r="3" fill="#1F78B4" stroke="none" opacity="1"/><circle cx="195" cy="68" r="3" fill="#1F78B4" stroke="none" opacity="1"/><circle cx="186" cy="64" r="3" fill="#1F78B4" stroke="none" opacity="1"/><circle cx="183" cy="60" r="3" fill="#1F78B4" stroke="none" opacity="1"/><circle cx="185" cy="56" r="3" fill="#1F78B4" stroke="none" opacity="1"/><circle cx="183" cy="53" r="3" fill="#1F78B4" stroke="none" opacity="1"/><circle cx="297" cy="446" r="3" fill="#FF7F00" stroke="none" opacity="1"/><circle cx="264" cy="438" r="3" fill="#FF7F00" stroke="none" opacity="1"/><circle cx="270" cy="299" r="3" fill="#FF7F00" stroke="none" opacity="1"/><circle cx="286" cy="253" r="3" fill="#FF7F00" stroke="none" opacity="1"/><circle cx="781" cy="467" r="3" fill="#E31A1C" stroke="none" opacity="1"/><circle cx="444" cy="463" r="3" fill="#E31A1C" stroke="none" opacity="1"/><circle cx="330" cy="459" r="3" fill="#E31A1C" stroke="none" opacity="1"/><circle cx="413" cy="455" r="3" fill="#E31A1C" stroke="none" opacity="1"/><circle cx="304" cy="451" r="3" fill="#E31A1C" stroke="none" opacity="1"/><circle cx="319" cy="434" r="3" fill="#E31A1C" stroke="none" opacity="1"/><circle cx="320" cy="148" r="3" fill="#E31A1C" stroke="none" opacity="1"/><text x="776" y="228" fill="#000" dy=".76em" font-family="sans-serif" font-size="9.677" opacity="1" text-anchor="start">PDF</text><text x="776" y="243" fill="#000" dy=".76em" font-family="sans-serif" font-size="9.677" opacity="1" text-anchor="start">Mean</text><text x="776" y="258" fill="#000" dy=".76em" font-family="sans-serif" font-size="9.677" opacity="1" text-anchor="start">&quot;Clean&quot; sample</text><text x="776" y="273" fill="#000" dy=".76em" font-family="sans-serif" font-size="9.677" opacity="1" text-anchor="start">Mild outliers</text><text x="776" y="288" fill="#000" dy=".76em" font-family="sans-serif" font-size="9.677" opacity="1" text-anchor="start">Severe outliers</text><rect width="20" height="10" x="746" y="228" fill="#1F78B4" stroke="none" opacity=".5"/><polyline fill="none" stroke="#1F78B4" stroke-width="1" points="746 248 766 248" opacity="1"/><circle cx="756" cy="263" r="3" fill="#1F78B4" stroke="none" opacity="1"/><circle cx="756" cy="278" r="3" fill="#FF7F00" stroke="none" opacity="1"/><circle cx="756" cy="293" r="3" fill="#E31A1C" stroke="none" opacity="1"/></svg>