<svg xmlns="http://www.w3.org/2000/svg" width="450" height="300"><text x="15" y="130" fill="#000" dy=".76em" font-family="sans-serif" font-size="9.677" opacity="1" text-anchor="middle" transform="rotate(270, 15, 130)">Total sample time (ms)</text><text x="255" y="285" fill="#000" dy="-.5ex" font-family="sans-serif" font-size="9.677" opacity="1" text-anchor="middle">Iterations (x 10^3)</text><line x1="131" x2="131" y1="244" y2="14" stroke="#000" stroke-width="1" opacity=".2"/><line x1="192" x2="192" y1="244" y2="14" stroke="#000" stroke-width="1" opacity=".2"/><line x1="253" x2="253" y1="244" y2="14" stroke="#000" stroke-width="1" opacity=".2"/><line x1="313" x2="313" y1="244" y2="14" stroke="#000" stroke-width="1" opacity=".2"/><line x1="374" x2="374" y1="244" y2="14" stroke="#000" stroke-width="1" opacity=".2"/><line x1="435" x2="435" y1="244" y2="14" stroke="#000" stroke-width="1" opacity=".2"/><line x1="75" x2="435" y1="222" y2="222" stroke="#000" stroke-width="1" opacity=".2"/><line x1="75" x2="435" y1="198" y2="198" stroke="#000" stroke-width="1" opacity=".2"/><line x1="75" x2="435" y1="174" y2="174" stroke="#000" stroke-width="1" opacity=".2"/><line x1="75" x2="435" y1="150" y2="150" stroke="#000" stroke-width="1" opacity=".2"/><line x1="75" x2="435" y1="126" y2="126" stroke="#000" stroke-width="1" opacity=".2"/><line x1="75" x2="435" y1="102" y2="102" stroke="#000" stroke-width="1" opacity=".2"/><line x1="75" x2="435" y1="78" y2="78" stroke="#000" stroke-width="1" opacity=".2"/><line x1="75" x2="435" y1="54" y2="54" stroke="#000" stroke-width="1" opacity=".2"/><line x1="75" x2="435" y1="31" y2="31" stroke="#000" stroke-width="1" opacity=".2"/><polyline fill="none" stroke="#000" stroke-width="1" points="74 15 74 245" opacity="1"/><text x="65" y="222" fill="#000" dy=".5ex" font-family="sans-serif" font-size="9.677" opacity="1" text-anchor="end">10.0</text><polyline fill="none" stroke="#000" stroke-width="1" points="69 222 74 222" opacity="1"/><text x="65" y="198" fill="#000" dy=".5ex" font-family="sans-serif" font-size="9.677" opacity="1" text-anchor="end">20.0</text><polyline fill="none" stroke="#000" stroke-width="1" points="69 198 74 198" opacity="1"/><text x="65" y="174" fill="#000" dy=".5ex" font-family="sans-serif" font-size="9.677" opacity="1" text-anchor="end">30.0</text><polyline fill="none" stroke="#000" stroke-width="1" points="69 174 74 174" opacity="1"/><text x="65" y="150" fill="#000" dy=".5ex" font-family="sans-serif" font-size="9.677" opacity="1" text-anchor="end">40.0</text><polyline fill="none" stroke="#000" stroke-width="1" points="69 150 74 150" opacity="1"/><text x="65" y="126" fill="#000" dy=".5ex" font-family="sans-serif" font-size="9.677" opacity="1" text-anchor="end">50.0</text><polyline fill="none" stroke="#000" stroke-width="1" points="69 126 74 126" opacity="1"/><text x="65" y="102" fill="#000" dy=".5ex" font-family="sans-serif" font-size="9.677" opacity="1" text-anchor="end">60.0</text><polyline fill="none" stroke="#000" stroke-width="1" points="69 102 74 102" opacity="1"/><text x="65" y="78" fill="#000" dy=".5ex" font-family="sans-serif" font-size="9.677" opacity="1" text-anchor="end">70.0</text><polyline fill="none" stroke="#000" stroke-width="1" points="69 78 74 78" opacity="1"/><text x="65" y="54" fill="#000" dy=".5ex" font-family="sans-serif" font-size="9.677" opacity="1" text-anchor="end">80.0</text><polyline fill="none" stroke="#000" stroke-width="1" points="69 54 74 54" opacity="1"/><text x="65" y="31" fill="#000" dy=".5ex" font-family="sans-serif" font-size="9.677" opacity="1" text-anchor="end">90.0</text><polyline fill="none" stroke="#000" stroke-width="1" points="69 31 74 31" opacity="1"/><polyline fill="none" stroke="#000" stroke-width="1" points="75 245 435 245" opacity="1"/><text x="131" y="255" fill="#000" dy=".76em" font-family="sans-serif" font-size="9.677" opacity="1" text-anchor="middle">0.2</text><polyline fill="none" stroke="#000" stroke-width="1" points="131 245 131 250" opacity="1"/><text x="192" y="255" fill="#000" dy=".76em" font-family="sans-serif" font-size="9.677" opacity="1" text-anchor="middle">0.4</text><polyline fill="none" stroke="#000" stroke-width="1" points="192 245 192 250" opacity="1"/><text x="253" y="255" fill="#000" dy=".76em" font-family="sans-serif" font-size="9.677" opacity="1" text-anchor="middle">0.6</text><polyline fill="none" stroke="#000" stroke-width="1" points="253 245 253 250" opacity="1"/><text x="313" y="255" fill="#000" dy=".76em" font-family="sans-serif" font-size="9.677" opacity="1" text-anchor="middle">0.8</text><polyline fill="none" stroke="#000" stroke-width="1" points="313 245 313 250" opacity="1"/><text x="374" y="255" fill="#000" dy=".76em" font-family="sans-serif" font-size="9.677" opacity="1" text-anchor="middle">1</text><polyline fill="none" stroke="#000" stroke-width="1" points="374 245 374 250" opacity="1"/><text x="435" y="255" fill="#000" dy=".76em" font-family="sans-serif" font-size="9.677" opacity="1" text-anchor="middle">1.2</text><polyline fill="none" stroke="#000" stroke-width="1" points="435 245 435 250" opacity="1"/><circle cx="75" cy="244" r="3" fill="#1F78B4" stroke="none" opacity="1"/><circle cx="78" cy="241" r="3" fill="#1F78B4" stroke="none" opacity="1"/><circle cx="82" cy="239" r="3" fill="#1F78B4" stroke="none" opacity="1"/><circle cx="85" cy="237" r="3" fill="#1F78B4" stroke="none" opacity="1"/><circle cx="89" cy="234" r="3" fill="#1F78B4" stroke="none" opacity="1"/><circle cx="93" cy="232" r="3" fill="#1F78B4" stroke="none" opacity="1"/><circle cx="96" cy="230" r="3" fill="#1F78B4" stroke="none" opacity="1"/><circle cx="100" cy="227" r="3" fill="#1F78B4" stroke="none" opacity="1"/><circle cx="104" cy="225" r="3" fill="#1F78B4" stroke="none" opacity="1"/><circle cx="107" cy="222" r="3" fill="#1F78B4" stroke="none" opacity="1"/><circle cx="111" cy="220" r="3" fill="#1F78B4" stroke="none" opacity="1"/><circle cx="115" cy="217" r="3" fill="#1F78B4" stroke="none" opacity="1"/><circle cx="118" cy="216" r="3" fill="#1F78B4" stroke="none" opacity="1"/><circle cx="122" cy="213" r="3" fill="#1F78B4" stroke="none" opacity="1"/><circle cx="125" cy="211" r="3" fill="#1F78B4" stroke="none" opacity="1"/><circle cx="129" cy="208" r="3" fill="#1F78B4" stroke="none" opacity="1"/><circle cx="133" cy="205" r="3" fill="#1F78B4" stroke="none" opacity="1"/><circle cx="136" cy="203" r="3" fill="#1F78B4" stroke="none" opacity="1"/><circle cx="140" cy="201" r="3" fill="#1F78B4" stroke="none" opacity="1"/><circle cx="144" cy="199" r="3" fill="#1F78B4" stroke="none" opacity="1"/><circle cx="147" cy="196" r="3" fill="#1F78B4" stroke="none" opacity="1"/><circle cx="151" cy="194" r="3" fill="#1F78B4" stroke="none" opacity="1"/><circle cx="155" cy="192" r="3" fill="#1F78B4" stroke="none" opacity="1"/><circle cx="158" cy="191" r="3" fill="#1F78B4" stroke="none" opacity="1"/><circle cx="162" cy="188" r="3" fill="#1F78B4" stroke="none" opacity="1"/><circle cx="165" cy="185" r="3" fill="#1F78B4" stroke="none" opacity="1"/><circle cx="169" cy="181" r="3" fill="#1F78B4" stroke="none" opacity="1"/><circle cx="173" cy="181" r="3" fill="#1F78B4" stroke="none" opacity="1"/><circle cx="176" cy="179" r="3" fill="#1F78B4" stroke="none" opacity="1"/><circle cx="180" cy="176" r="3" fill="#1F78B4" stroke="none" opacity="1"/><circle cx="184" cy="173" r="3" fill="#1F78B4" stroke="none" opacity="1"/><circle cx="187" cy="172" r="3" fill="#1F78B4" stroke="none" opacity="1"/><circle cx="191" cy="171" r="3" fill="#1F78B4" stroke="none" opacity="1"/><circle cx="195" cy="164" r="3" fill="#1F78B4" stroke="none" opacity="1"/><circle cx="198" cy="163" r="3" fill="#1F78B4" stroke="none" opacity="1"/><circle cx="202" cy="161" r="3" fill="#1F78B4" stroke="none" opacity="1"/><circle cx="205" cy="161" r="3" fill="#1F78B4" stroke="none" opacity="1"/><circle cx="209" cy="159" r="3" fill="#1F78B4" stroke="none" opacity="1"/><circle cx="213" cy="153" r="3" fill="#1F78B4" stroke="none" opacity="1"/><circle cx="216" cy="150" r="3" fill="#1F78B4" stroke="none" opacity="1"/><circle cx="220" cy="150" r="3" fill="#1F78B4" stroke="none" opacity="1"/><circle cx="224" cy="146" r="3" fill="#1F78B4" stroke="none" opacity="1"/><circle cx="227" cy="144" r="3" fill="#1F78B4" stroke="none" opacity="1"/><circle cx="231" cy="143" r="3" fill="#1F78B4" stroke="none" opacity="1"/><circle cx="235" cy="139" r="3" fill="#1F78B4" stroke="none" opacity="1"/><circle cx="238" cy="135" r="3" fill="#1F78B4" stroke="none" opacity="1"/><circle cx="242" cy="135" r="3" fill="#1F78B4" stroke="none" opacity="1"/><circle cx="245" cy="133" r="3" fill="#1F78B4" stroke="none" opacity="1"/><circle cx="249" cy="132" r="3" fill="#1F78B4" stroke="none" opacity="1"/><circle cx="253" cy="124" r="3" fill="#1F78B4" stroke="none" opacity="1"/><circle cx="256" cy="128" r="3" fill="#1F78B4" stroke="none" opacity="1"/><circle cx="260" cy="122" r="3" fill="#1F78B4" stroke="none" opacity="1"/><circle cx="264" cy="122" r="3" fill="#1F78B4" stroke="none" opacity="1"/><circle cx="267" cy="119" r="3" fill="#1F78B4" stroke="none" opacity="1"/><circle cx="271" cy="116" r="3" fill="#1F78B4" stroke="none" opacity="1"/><circle cx="275" cy="113" r="3" fill="#1F78B4" stroke="none" opacity="1"/><circle cx="278" cy="112" r="3" fill="#1F78B4" stroke="none" opacity="1"/><circle cx="282" cy="109" r="3" fill="#1F78B4" stroke="none" opacity="1"/><circle cx="285" cy="108" r="3" fill="#1F78B4" stroke="none" opacity="1"/><circle cx="289" cy="106" r="3" fill="#1F78B4" stroke="none" opacity="1"/><circle cx="293" cy="105" r="3" fill="#1F78B4" stroke="none" opacity="1"/><circle cx="296" cy="103" r="3" fill="#1F78B4" stroke="none" opacity="1"/><circle cx="300" cy="101" r="3" fill="#1F78B4" stroke="none" opacity="1"/><circle cx="304" cy="98" r="3" fill="#1F78B4" stroke="none" opacity="1"/><circle cx="307" cy="93" r="3" fill="#1F78B4" stroke="none" opacity="1"/><circle cx="311" cy="95" r="3" fill="#1F78B4" stroke="none" opacity="1"/><circle cx="315" cy="86" r="3" fill="#1F78B4" stroke="none" opacity="1"/><circle cx="318" cy="88" r="3" fill="#1F78B4" stroke="none" opacity="1"/><circle cx="322" cy="85" r="3" fill="#1F78B4" stroke="none" opacity="1"/><circle cx="325" cy="83" r="3" fill="#1F78B4" stroke="none" opacity="1"/><circle cx="329" cy="80" r="3" fill="#1F78B4" stroke="none" opacity="1"/><circle cx="333" cy="77" r="3" fill="#1F78B4" stroke="none" opacity="1"/><circle cx="336" cy="76" r="3" fill="#1F78B4" stroke="none" opacity="1"/><circle cx="340" cy="74" r="3" fill="#1F78B4" stroke="none" opacity="1"/><circle cx="344" cy="69" r="3" fill="#1F78B4" stroke="none" opacity="1"/><circle cx="347" cy="67" r="3" fill="#1F78B4" stroke="none" opacity="1"/><circle cx="351" cy="65" r="3" fill="#1F78B4" stroke="none" opacity="1"/><circle cx="355" cy="64" r="3" fill="#1F78B4" stroke="none" opacity="1"/><circle cx="358" cy="61" r="3" fill="#1F78B4" stroke="none" opacity="1"/><circle cx="362" cy="60" r="3" fill="#1F78B4" stroke="none" opacity="1"/><circle cx="365" cy="59" r="3" fill="#1F78B4" stroke="none" opacity="1"/><circle cx="369" cy="54" r="3" fill="#1F78B4" stroke="none" opacity="1"/><circle cx="373" cy="56" r="3" fill="#1F78B4" stroke="none" opacity="1"/><circle cx="376" cy="51" r="3" fill="#1F78B4" stroke="none" opacity="1"/><circle cx="380" cy="46" r="3" fill="#1F78B4" stroke="none" opacity="1"/><circle cx="384" cy="43" r="3" fill="#1F78B4" stroke="none" opacity="1"/><circle cx="387" cy="42" r="3" fill="#1F78B4" stroke="none" opacity="1"/><circle cx="391" cy="40" r="3" fill="#1F78B4" stroke="none" opacity="1"/><circle cx="395" cy="38" r="3" fill="#1F78B4" stroke="none" opacity="1"/><circle cx="398" cy="36" r="3" fill="#1F78B4" stroke="none" opacity="1"/><circle cx="402" cy="33" r="3" fill="#1F78B4" stroke="none" opacity="1"/><circle cx="405" cy="29" r="3" fill="#1F78B4" stroke="none" opacity="1"/><circle cx="409" cy="31" r="3" fill="#1F78B4" stroke="none" opacity="1"/><circle cx="413" cy="30" r="3" fill="#1F78B4" stroke="none" opacity="1"/><circle cx="416" cy="27" r="3" fill="#1F78B4" stroke="none" opacity="1"/><circle cx="420" cy="19" r="3" fill="#1F78B4" stroke="none" opacity="1"/><circle cx="424" cy="16" r="3" fill="#1F78B4" stroke="none" opacity="1"/><circle cx="427" cy="17" r="3" fill="#1F78B4" stroke="none" opacity="1"/><circle cx="431" cy="15" r="3" fill="#1F78B4" stroke="none" opacity="1"/><circle cx="435" cy="15" r="3" fill="#1F78B4" stroke="none" opacity="1"/><polyline fill="none" stroke="#1F78B4" stroke-width="1" points="75 245 435 15" opacity="1"/><polygon fill="#1F78B4" points="75 245 435 15 435 15" opacity=".25"/></svg>