<svg xmlns="http://www.w3.org/2000/svg" width="960" height="540"><text x="480" y="32" fill="#000" dy=".76em" font-family="sans-serif" font-size="16.129" opacity="1" text-anchor="middle">bench_group/threads_48/4194304</text><text x="27" y="263" fill="#000" dy=".76em" font-family="sans-serif" font-size="9.677" opacity="1" text-anchor="middle" transform="rotate(270, 27, 263)">Total sample time (ms)</text><text x="510" y="513" fill="#000" dy="-.5ex" font-family="sans-serif" font-size="9.677" opacity="1" text-anchor="middle">Iterations (x 10^3)</text><line x1="220" x2="220" y1="472" y2="52" stroke="#000" stroke-width="1" opacity=".2"/><line x1="363" x2="363" y1="472" y2="52" stroke="#000" stroke-width="1" opacity=".2"/><line x1="505" x2="505" y1="472" y2="52" stroke="#000" stroke-width="1" opacity=".2"/><line x1="648" x2="648" y1="472" y2="52" stroke="#000" stroke-width="1" opacity=".2"/><line x1="790" x2="790" y1="472" y2="52" stroke="#000" stroke-width="1" opacity=".2"/><line x1="933" x2="933" y1="472" y2="52" stroke="#000" stroke-width="1" opacity=".2"/><line x1="87" x2="933" y1="433" y2="433" stroke="#000" stroke-width="1" opacity=".2"/><line x1="87" x2="933" y1="389" y2="389" stroke="#000" stroke-width="1" opacity=".2"/><line x1="87" x2="933" y1="345" y2="345" stroke="#000" stroke-width="1" opacity=".2"/><line x1="87" x2="933" y1="301" y2="301" stroke="#000" stroke-width="1" opacity=".2"/><line x1="87" x2="933" y1="258" y2="258" stroke="#000" stroke-width="1" opacity=".2"/><line x1="87" x2="933" y1="214" y2="214" stroke="#000" stroke-width="1" opacity=".2"/><line x1="87" x2="933" y1="170" y2="170" stroke="#000" stroke-width="1" opacity=".2"/><line x1="87" x2="933" y1="126" y2="126" stroke="#000" stroke-width="1" opacity=".2"/><line x1="87" x2="933" y1="83" y2="83" stroke="#000" stroke-width="1" opacity=".2"/><polyline fill="none" stroke="#000" stroke-width="1" points="86 53 86 473" opacity="1"/><text x="77" y="433" fill="#000" dy=".5ex" font-family="sans-serif" font-size="9.677" opacity="1" text-anchor="end">10.0</text><polyline fill="none" stroke="#000" stroke-width="1" points="81 433 86 433" opacity="1"/><text x="77" y="389" fill="#000" dy=".5ex" font-family="sans-serif" font-size="9.677" opacity="1" text-anchor="end">20.0</text><polyline fill="none" stroke="#000" stroke-width="1" points="81 389 86 389" opacity="1"/><text x="77" y="345" fill="#000" dy=".5ex" font-family="sans-serif" font-size="9.677" opacity="1" text-anchor="end">30.0</text><polyline fill="none" stroke="#000" stroke-width="1" points="81 345 86 345" opacity="1"/><text x="77" y="301" fill="#000" dy=".5ex" font-family="sans-serif" font-size="9.677" opacity="1" text-anchor="end">40.0</text><polyline fill="none" stroke="#000" stroke-width="1" points="81 301 86 301" opacity="1"/><text x="77" y="258" fill="#000" dy=".5ex" font-family="sans-serif" font-size="9.677" opacity="1" text-anchor="end">50.0</text><polyline fill="none" stroke="#000" stroke-width="1" points="81 258 86 258" opacity="1"/><text x="77" y="214" fill="#000" dy=".5ex" font-family="sans-serif" font-size="9.677" opacity="1" text-anchor="end">60.0</text><polyline fill="none" stroke="#000" stroke-width="1" points="81 214 86 214" opacity="1"/><text x="77" y="170" fill="#000" dy=".5ex" font-family="sans-serif" font-size="9.677" opacity="1" text-anchor="end">70.0</text><polyline fill="none" stroke="#000" stroke-width="1" points="81 170 86 170" opacity="1"/><text x="77" y="126" fill="#000" dy=".5ex" font-family="sans-serif" font-size="9.677" opacity="1" text-anchor="end">80.0</text><polyline fill="none" stroke="#000" stroke-width="1" points="81 126 86 126" opacity="1"/><text x="77" y="83" fill="#000" dy=".5ex" font-family="sans-serif" font-size="9.677" opacity="1" text-anchor="end">90.0</text><polyline fill="none" stroke="#000" stroke-width="1" points="81 83 86 83" opacity="1"/><polyline fill="none" stroke="#000" stroke-width="1" points="87 473 933 473" opacity="1"/><text x="220" y="483" fill="#000" dy=".76em" font-family="sans-serif" font-size="9.677" opacity="1" text-anchor="middle">0.2</text><polyline fill="none" stroke="#000" stroke-width="1" points="220 473 220 478" opacity="1"/><text x="363" y="483" fill="#000" dy=".76em" font-family="sans-serif" font-size="9.677" opacity="1" text-anchor="middle">0.4</text><polyline fill="none" stroke="#000" stroke-width="1" points="363 473 363 478" opacity="1"/><text x="505" y="483" fill="#000" dy=".76em" font-family="sans-serif" font-size="9.677" opacity="1" text-anchor="middle">0.6</text><polyline fill="none" stroke="#000" stroke-width="1" points="505 473 505 478" opacity="1"/><text x="648" y="483" fill="#000" dy=".76em" font-family="sans-serif" font-size="9.677" opacity="1" text-anchor="middle">0.8</text><polyline fill="none" stroke="#000" stroke-width="1" points="648 473 648 478" opacity="1"/><text x="790" y="483" fill="#000" dy=".76em" font-family="sans-serif" font-size="9.677" opacity="1" text-anchor="middle">1</text><polyline fill="none" stroke="#000" stroke-width="1" points="790 473 790 478" opacity="1"/><text x="933" y="483" fill="#000" dy=".76em" font-family="sans-serif" font-size="9.677" opacity="1" text-anchor="middle">1.2</text><polyline fill="none" stroke="#000" stroke-width="1" points="933 473 933 478" opacity="1"/><circle cx="87" cy="472" r="3" fill="#1F78B4" stroke="none" opacity="1"/><circle cx="95" cy="467" r="3" fill="#1F78B4" stroke="none" opacity="1"/><circle cx="104" cy="463" r="3" fill="#1F78B4" stroke="none" opacity="1"/><circle cx="112" cy="459" r="3" fill="#1F78B4" stroke="none" opacity="1"/><circle cx="121" cy="455" r="3" fill="#1F78B4" stroke="none" opacity="1"/><circle cx="129" cy="450" r="3" fill="#1F78B4" stroke="none" opacity="1"/><circle cx="138" cy="447" r="3" fill="#1F78B4" stroke="none" opacity="1"/><circle cx="146" cy="441" r="3" fill="#1F78B4" stroke="none" opacity="1"/><circle cx="155" cy="437" r="3" fill="#1F78B4" stroke="none" opacity="1"/><circle cx="163" cy="432" r="3" fill="#1F78B4" stroke="none" opacity="1"/><circle cx="172" cy="428" r="3" fill="#1F78B4" stroke="none" opacity="1"/><circle cx="181" cy="424" r="3" fill="#1F78B4" stroke="none" opacity="1"/><circle cx="189" cy="421" r="3" fill="#1F78B4" stroke="none" opacity="1"/><circle cx="198" cy="415" r="3" fill="#1F78B4" stroke="none" opacity="1"/><circle cx="206" cy="412" r="3" fill="#1F78B4" stroke="none" opacity="1"/><circle cx="215" cy="406" r="3" fill="#1F78B4" stroke="none" opacity="1"/><circle cx="223" cy="402" r="3" fill="#1F78B4" stroke="none" opacity="1"/><circle cx="232" cy="397" r="3" fill="#1F78B4" stroke="none" opacity="1"/><circle cx="240" cy="394" r="3" fill="#1F78B4" stroke="none" opacity="1"/><circle cx="249" cy="390" r="3" fill="#1F78B4" stroke="none" opacity="1"/><circle cx="257" cy="386" r="3" fill="#1F78B4" stroke="none" opacity="1"/><circle cx="266" cy="380" r="3" fill="#1F78B4" stroke="none" opacity="1"/><circle cx="275" cy="377" r="3" fill="#1F78B4" stroke="none" opacity="1"/><circle cx="283" cy="376" r="3" fill="#1F78B4" stroke="none" opacity="1"/><circle cx="292" cy="371" r="3" fill="#1F78B4" stroke="none" opacity="1"/><circle cx="300" cy="364" r="3" fill="#1F78B4" stroke="none" opacity="1"/><circle cx="309" cy="358" r="3" fill="#1F78B4" stroke="none" opacity="1"/><circle cx="317" cy="358" r="3" fill="#1F78B4" stroke="none" opacity="1"/><circle cx="326" cy="354" r="3" fill="#1F78B4" stroke="none" opacity="1"/><circle cx="334" cy="347" r="3" fill="#1F78B4" stroke="none" opacity="1"/><circle cx="343" cy="342" r="3" fill="#1F78B4" stroke="none" opacity="1"/><circle cx="351" cy="340" r="3" fill="#1F78B4" stroke="none" opacity="1"/><circle cx="360" cy="339" r="3" fill="#1F78B4" stroke="none" opacity="1"/><circle cx="369" cy="326" r="3" fill="#1F78B4" stroke="none" opacity="1"/><circle cx="377" cy="324" r="3" fill="#1F78B4" stroke="none" opacity="1"/><circle cx="386" cy="322" r="3" fill="#1F78B4" stroke="none" opacity="1"/><circle cx="394" cy="321" r="3" fill="#1F78B4" stroke="none" opacity="1"/><circle cx="403" cy="316" r="3" fill="#1F78B4" stroke="none" opacity="1"/><circle cx="411" cy="307" r="3" fill="#1F78B4" stroke="none" opacity="1"/><circle cx="420" cy="301" r="3" fill="#1F78B4" stroke="none" opacity="1"/><circle cx="428" cy="301" r="3" fill="#1F78B4" stroke="none" opacity="1"/><circle cx="437" cy="294" r="3" fill="#1F78B4" stroke="none" opacity="1"/><circle cx="445" cy="290" r="3" fill="#1F78B4" stroke="none" opacity="1"/><circle cx="454" cy="289" r="3" fill="#1F78B4" stroke="none" opacity="1"/><circle cx="463" cy="282" r="3" fill="#1F78B4" stroke="none" opacity="1"/><circle cx="471" cy="273" r="3" fill="#1F78B4" stroke="none" opacity="1"/><circle cx="480" cy="273" r="3" fill="#1F78B4" stroke="none" opacity="1"/><circle cx="488" cy="270" r="3" fill="#1F78B4" stroke="none" opacity="1"/><circle cx="497" cy="268" r="3" fill="#1F78B4" stroke="none" opacity="1"/><circle cx="505" cy="254" r="3" fill="#1F78B4" stroke="none" opacity="1"/><circle cx="514" cy="260" r="3" fill="#1F78B4" stroke="none" opacity="1"/><circle cx="522" cy="249" r="3" fill="#1F78B4" stroke="none" opacity="1"/><circle cx="531" cy="251" r="3" fill="#1F78B4" stroke="none" opacity="1"/><circle cx="539" cy="244" r="3" fill="#1F78B4" stroke="none" opacity="1"/><circle cx="548" cy="239" r="3" fill="#1F78B4" stroke="none" opacity="1"/><circle cx="557" cy="232" r="3" fill="#1F78B4" stroke="none" opacity="1"/><circle cx="565" cy="231" r="3" fill="#1F78B4" stroke="none" opacity="1"/><circle cx="574" cy="226" r="3" fill="#1F78B4" stroke="none" opacity="1"/><circle cx="582" cy="224" r="3" fill="#1F78B4" stroke="none" opacity="1"/><circle cx="591" cy="221" r="3" fill="#1F78B4" stroke="none" opacity="1"/><circle cx="599" cy="219" r="3" fill="#1F78B4" stroke="none" opacity="1"/><circle cx="608" cy="214" r="3" fill="#1F78B4" stroke="none" opacity="1"/><circle cx="616" cy="211" r="3" fill="#1F78B4" stroke="none" opacity="1"/><circle cx="625" cy="206" r="3" fill="#1F78B4" stroke="none" opacity="1"/><circle cx="633" cy="196" r="3" fill="#1F78B4" stroke="none" opacity="1"/><circle cx="642" cy="201" r="3" fill="#1F78B4" stroke="none" opacity="1"/><circle cx="651" cy="185" r="3" fill="#1F78B4" stroke="none" opacity="1"/><circle cx="659" cy="187" r="3" fill="#1F78B4" stroke="none" opacity="1"/><circle cx="668" cy="182" r="3" fill="#1F78B4" stroke="none" opacity="1"/><circle cx="676" cy="178" r="3" fill="#1F78B4" stroke="none" opacity="1"/><circle cx="685" cy="173" r="3" fill="#1F78B4" stroke="none" opacity="1"/><circle cx="693" cy="167" r="3" fill="#1F78B4" stroke="none" opacity="1"/><circle cx="702" cy="166" r="3" fill="#1F78B4" stroke="none" opacity="1"/><circle cx="710" cy="162" r="3" fill="#1F78B4" stroke="none" opacity="1"/><circle cx="719" cy="153" r="3" fill="#1F78B4" stroke="none" opacity="1"/><circle cx="727" cy="149" r="3" fill="#1F78B4" stroke="none" opacity="1"/><circle cx="736" cy="145" r="3" fill="#1F78B4" stroke="none" opacity="1"/><circle cx="745" cy="143" r="3" fill="#1F78B4" stroke="none" opacity="1"/><circle cx="753" cy="139" r="3" fill="#1F78B4" stroke="none" opacity="1"/><circle cx="762" cy="137" r="3" fill="#1F78B4" stroke="none" opacity="1"/><circle cx="770" cy="135" r="3" fill="#1F78B4" stroke="none" opacity="1"/><circle cx="779" cy="125" r="3" fill="#1F78B4" stroke="none" opacity="1"/><circle cx="787" cy="128" r="3" fill="#1F78B4" stroke="none" opacity="1"/><circle cx="796" cy="119" r="3" fill="#1F78B4" stroke="none" opacity="1"/><circle cx="804" cy="110" r="3" fill="#1F78B4" stroke="none" opacity="1"/><circle cx="813" cy="105" r="3" fill="#1F78B4" stroke="none" opacity="1"/><circle cx="821" cy="103" r="3" fill="#1F78B4" stroke="none" opacity="1"/><circle cx="830" cy="100" r="3" fill="#1F78B4" stroke="none" opacity="1"/><circle cx="839" cy="96" r="3" fill="#1F78B4" stroke="none" opacity="1"/><circle cx="847" cy="92" r="3" fill="#1F78B4" stroke="none" opacity="1"/><circle cx="856" cy="88" r="3" fill="#1F78B4" stroke="none" opacity="1"/><circle cx="864" cy="79" r="3" fill="#1F78B4" stroke="none" opacity="1"/><circle cx="873" cy="84" r="3" fill="#1F78B4" stroke="none" opacity="1"/><circle cx="881" cy="81" r="3" fill="#1F78B4" stroke="none" opacity="1"/><circle cx="890" cy="77" r="3" fill="#1F78B4" stroke="none" opacity="1"/><circle cx="898" cy="62" r="3" fill="#1F78B4" stroke="none" opacity="1"/><circle cx="907" cy="56" r="3" fill="#1F78B4" stroke="none" opacity="1"/><circle cx="915" cy="57" r="3" fill="#1F78B4" stroke="none" opacity="1"/><circle cx="924" cy="55" r="3" fill="#1F78B4" stroke="none" opacity="1"/><circle cx="933" cy="53" r="3" fill="#1F78B4" stroke="none" opacity="1"/><polyline fill="none" stroke="#1F78B4" stroke-width="1" points="87 473 933 53" opacity="1"/><polygon fill="#1F78B4" points="87 473 933 53 933 53" opacity=".25"/><text x="132" y="68" fill="#000" dy=".76em" font-family="sans-serif" font-size="9.677" opacity="1" text-anchor="start">Sample</text><text x="132" y="83" fill="#000" dy=".76em" font-family="sans-serif" font-size="9.677" opacity="1" text-anchor="start">Linear regression</text><text x="132" y="98" fill="#000" dy=".76em" font-family="sans-serif" font-size="9.677" opacity="1" text-anchor="start">Confidence interval</text><circle cx="112" cy="73" r="3" fill="#1F78B4" stroke="none" opacity="1"/><polyline fill="none" stroke="#1F78B4" stroke-width="2" points="102 88 122 88" opacity="1"/><rect width="20" height="10" x="102" y="98" fill="#1F78B4" stroke="none" opacity=".25"/></svg>