<svg xmlns="http://www.w3.org/2000/svg" width="450" height="300"><text x="15" y="130" fill="#000" dy=".76em" font-family="sans-serif" font-size="9.677" opacity="1" text-anchor="middle" transform="rotate(270, 15, 130)">Total sample time (ms)</text><text x="255" y="285" fill="#000" dy="-.5ex" font-family="sans-serif" font-size="9.677" opacity="1" text-anchor="middle">Iterations</text><line x1="131" x2="131" y1="244" y2="14" stroke="#000" stroke-width="1" opacity=".2"/><line x1="192" x2="192" y1="244" y2="14" stroke="#000" stroke-width="1" opacity=".2"/><line x1="253" x2="253" y1="244" y2="14" stroke="#000" stroke-width="1" opacity=".2"/><line x1="313" x2="313" y1="244" y2="14" stroke="#000" stroke-width="1" opacity=".2"/><line x1="374" x2="374" y1="244" y2="14" stroke="#000" stroke-width="1" opacity=".2"/><line x1="435" x2="435" y1="244" y2="14" stroke="#000" stroke-width="1" opacity=".2"/><line x1="75" x2="435" y1="214" y2="214" stroke="#000" stroke-width="1" opacity=".2"/><line x1="75" x2="435" y1="181" y2="181" stroke="#000" stroke-width="1" opacity=".2"/><line x1="75" x2="435" y1="149" y2="149" stroke="#000" stroke-width="1" opacity=".2"/><line x1="75" x2="435" y1="116" y2="116" stroke="#000" stroke-width="1" opacity=".2"/><line x1="75" x2="435" y1="83" y2="83" stroke="#000" stroke-width="1" opacity=".2"/><line x1="75" x2="435" y1="50" y2="50" stroke="#000" stroke-width="1" opacity=".2"/><line x1="75" x2="435" y1="18" y2="18" stroke="#000" stroke-width="1" opacity=".2"/><polyline fill="none" stroke="#000" stroke-width="1" points="74 15 74 245" opacity="1"/><text x="65" y="214" fill="#000" dy=".5ex" font-family="sans-serif" font-size="9.677" opacity="1" text-anchor="end">20.0</text><polyline fill="none" stroke="#000" stroke-width="1" points="69 214 74 214" opacity="1"/><text x="65" y="181" fill="#000" dy=".5ex" font-family="sans-serif" font-size="9.677" opacity="1" text-anchor="end">40.0</text><polyline fill="none" stroke="#000" stroke-width="1" points="69 181 74 181" opacity="1"/><text x="65" y="149" fill="#000" dy=".5ex" font-family="sans-serif" font-size="9.677" opacity="1" text-anchor="end">60.0</text><polyline fill="none" stroke="#000" stroke-width="1" points="69 149 74 149" opacity="1"/><text x="65" y="116" fill="#000" dy=".5ex" font-family="sans-serif" font-size="9.677" opacity="1" text-anchor="end">80.0</text><polyline fill="none" stroke="#000" stroke-width="1" points="69 116 74 116" opacity="1"/><text x="65" y="83" fill="#000" dy=".5ex" font-family="sans-serif" font-size="9.677" opacity="1" text-anchor="end">100.0</text><polyline fill="none" stroke="#000" stroke-width="1" points="69 83 74 83" opacity="1"/><text x="65" y="50" fill="#000" dy=".5ex" font-family="sans-serif" font-size="9.677" opacity="1" text-anchor="end">120.0</text><polyline fill="none" stroke="#000" stroke-width="1" points="69 50 74 50" opacity="1"/><text x="65" y="18" fill="#000" dy=".5ex" font-family="sans-serif" font-size="9.677" opacity="1" text-anchor="end">140.0</text><polyline fill="none" stroke="#000" stroke-width="1" points="69 18 74 18" opacity="1"/><polyline fill="none" stroke="#000" stroke-width="1" points="75 245 435 245" opacity="1"/><text x="131" y="255" fill="#000" dy=".76em" font-family="sans-serif" font-size="9.677" opacity="1" text-anchor="middle">50</text><polyline fill="none" stroke="#000" stroke-width="1" points="131 245 131 250" opacity="1"/><text x="192" y="255" fill="#000" dy=".76em" font-family="sans-serif" font-size="9.677" opacity="1" text-anchor="middle">100</text><polyline fill="none" stroke="#000" stroke-width="1" points="192 245 192 250" opacity="1"/><text x="253" y="255" fill="#000" dy=".76em" font-family="sans-serif" font-size="9.677" opacity="1" text-anchor="middle">150</text><polyline fill="none" stroke="#000" stroke-width="1" points="253 245 253 250" opacity="1"/><text x="313" y="255" fill="#000" dy=".76em" font-family="sans-serif" font-size="9.677" opacity="1" text-anchor="middle">200</text><polyline fill="none" stroke="#000" stroke-width="1" points="313 245 313 250" opacity="1"/><text x="374" y="255" fill="#000" dy=".76em" font-family="sans-serif" font-size="9.677" opacity="1" text-anchor="middle">250</text><polyline fill="none" stroke="#000" stroke-width="1" points="374 245 374 250" opacity="1"/><text x="435" y="255" fill="#000" dy=".76em" font-family="sans-serif" font-size="9.677" opacity="1" text-anchor="middle">300</text><polyline fill="none" stroke="#000" stroke-width="1" points="435 245 435 250" opacity="1"/><circle cx="75" cy="244" r="3" fill="#1F78B4" stroke="none" opacity="1"/><circle cx="78" cy="241" r="3" fill="#1F78B4" stroke="none" opacity="1"/><circle cx="82" cy="238" r="3" fill="#1F78B4" stroke="none" opacity="1"/><circle cx="85" cy="236" r="3" fill="#1F78B4" stroke="none" opacity="1"/><circle cx="89" cy="233" r="3" fill="#1F78B4" stroke="none" opacity="1"/><circle cx="93" cy="231" r="3" fill="#1F78B4" stroke="none" opacity="1"/><circle cx="96" cy="229" r="3" fill="#1F78B4" stroke="none" opacity="1"/><circle cx="100" cy="226" r="3" fill="#1F78B4" stroke="none" opacity="1"/><circle cx="104" cy="224" r="3" fill="#1F78B4" stroke="none" opacity="1"/><circle cx="107" cy="222" r="3" fill="#1F78B4" stroke="none" opacity="1"/><circle cx="111" cy="220" r="3" fill="#1F78B4" stroke="none" opacity="1"/><circle cx="115" cy="217" r="3" fill="#1F78B4" stroke="none" opacity="1"/><circle cx="118" cy="215" r="3" fill="#1F78B4" stroke="none" opacity="1"/><circle cx="122" cy="212" r="3" fill="#1F78B4" stroke="none" opacity="1"/><circle cx="125" cy="210" r="3" fill="#1F78B4" stroke="none" opacity="1"/><circle cx="129" cy="207" r="3" fill="#1F78B4" stroke="none" opacity="1"/><circle cx="133" cy="206" r="3" fill="#1F78B4" stroke="none" opacity="1"/><circle cx="136" cy="203" r="3" fill="#1F78B4" stroke="none" opacity="1"/><circle cx="140" cy="202" r="3" fill="#1F78B4" stroke="none" opacity="1"/><circle cx="144" cy="198" r="3" fill="#1F78B4" stroke="none" opacity="1"/><circle cx="147" cy="196" r="3" fill="#1F78B4" stroke="none" opacity="1"/><circle cx="151" cy="193" r="3" fill="#1F78B4" stroke="none" opacity="1"/><circle cx="155" cy="191" r="3" fill="#1F78B4" stroke="none" opacity="1"/><circle cx="158" cy="190" r="3" fill="#1F78B4" stroke="none" opacity="1"/><circle cx="162" cy="187" r="3" fill="#1F78B4" stroke="none" opacity="1"/><circle cx="165" cy="186" r="3" fill="#1F78B4" stroke="none" opacity="1"/><circle cx="169" cy="182" r="3" fill="#1F78B4" stroke="none" opacity="1"/><circle cx="173" cy="181" r="3" fill="#1F78B4" stroke="none" opacity="1"/><circle cx="176" cy="176" r="3" fill="#1F78B4" stroke="none" opacity="1"/><circle cx="180" cy="174" r="3" fill="#1F78B4" stroke="none" opacity="1"/><circle cx="184" cy="175" r="3" fill="#1F78B4" stroke="none" opacity="1"/><circle cx="187" cy="171" r="3" fill="#1F78B4" stroke="none" opacity="1"/><circle cx="191" cy="165" r="3" fill="#1F78B4" stroke="none" opacity="1"/><circle cx="195" cy="166" r="3" fill="#1F78B4" stroke="none" opacity="1"/><circle cx="198" cy="165" r="3" fill="#1F78B4" stroke="none" opacity="1"/><circle cx="202" cy="161" r="3" fill="#1F78B4" stroke="none" opacity="1"/><circle cx="205" cy="159" r="3" fill="#1F78B4" stroke="none" opacity="1"/><circle cx="209" cy="157" r="3" fill="#1F78B4" stroke="none" opacity="1"/><circle cx="213" cy="154" r="3" fill="#1F78B4" stroke="none" opacity="1"/><circle cx="216" cy="152" r="3" fill="#1F78B4" stroke="none" opacity="1"/><circle cx="220" cy="151" r="3" fill="#1F78B4" stroke="none" opacity="1"/><circle cx="224" cy="148" r="3" fill="#1F78B4" stroke="none" opacity="1"/><circle cx="227" cy="147" r="3" fill="#1F78B4" stroke="none" opacity="1"/><circle cx="231" cy="144" r="3" fill="#1F78B4" stroke="none" opacity="1"/><circle cx="235" cy="143" r="3" fill="#1F78B4" stroke="none" opacity="1"/><circle cx="238" cy="135" r="3" fill="#1F78B4" stroke="none" opacity="1"/><circle cx="242" cy="137" r="3" fill="#1F78B4" stroke="none" opacity="1"/><circle cx="245" cy="135" r="3" fill="#1F78B4" stroke="none" opacity="1"/><circle cx="249" cy="132" r="3" fill="#1F78B4" stroke="none" opacity="1"/><circle cx="253" cy="129" r="3" fill="#1F78B4" stroke="none" opacity="1"/><circle cx="256" cy="128" r="3" fill="#1F78B4" stroke="none" opacity="1"/><circle cx="260" cy="122" r="3" fill="#1F78B4" stroke="none" opacity="1"/><circle cx="264" cy="123" r="3" fill="#1F78B4" stroke="none" opacity="1"/><circle cx="267" cy="118" r="3" fill="#1F78B4" stroke="none" opacity="1"/><circle cx="271" cy="116" r="3" fill="#1F78B4" stroke="none" opacity="1"/><circle cx="275" cy="115" r="3" fill="#1F78B4" stroke="none" opacity="1"/><circle cx="278" cy="113" r="3" fill="#1F78B4" stroke="none" opacity="1"/><circle cx="282" cy="109" r="3" fill="#1F78B4" stroke="none" opacity="1"/><circle cx="285" cy="108" r="3" fill="#1F78B4" stroke="none" opacity="1"/><circle cx="289" cy="107" r="3" fill="#1F78B4" stroke="none" opacity="1"/><circle cx="293" cy="103" r="3" fill="#1F78B4" stroke="none" opacity="1"/><circle cx="296" cy="104" r="3" fill="#1F78B4" stroke="none" opacity="1"/><circle cx="300" cy="98" r="3" fill="#1F78B4" stroke="none" opacity="1"/><circle cx="304" cy="99" r="3" fill="#1F78B4" stroke="none" opacity="1"/><circle cx="307" cy="92" r="3" fill="#1F78B4" stroke="none" opacity="1"/><circle cx="311" cy="95" r="3" fill="#1F78B4" stroke="none" opacity="1"/><circle cx="315" cy="90" r="3" fill="#1F78B4" stroke="none" opacity="1"/><circle cx="318" cy="89" r="3" fill="#1F78B4" stroke="none" opacity="1"/><circle cx="322" cy="85" r="3" fill="#1F78B4" stroke="none" opacity="1"/><circle cx="325" cy="83" r="3" fill="#1F78B4" stroke="none" opacity="1"/><circle cx="329" cy="81" r="3" fill="#1F78B4" stroke="none" opacity="1"/><circle cx="333" cy="81" r="3" fill="#1F78B4" stroke="none" opacity="1"/><circle cx="336" cy="75" r="3" fill="#1F78B4" stroke="none" opacity="1"/><circle cx="340" cy="75" r="3" fill="#1F78B4" stroke="none" opacity="1"/><circle cx="344" cy="70" r="3" fill="#1F78B4" stroke="none" opacity="1"/><circle cx="347" cy="68" r="3" fill="#1F78B4" stroke="none" opacity="1"/><circle cx="351" cy="65" r="3" fill="#1F78B4" stroke="none" opacity="1"/><circle cx="355" cy="68" r="3" fill="#1F78B4" stroke="none" opacity="1"/><circle cx="358" cy="60" r="3" fill="#1F78B4" stroke="none" opacity="1"/><circle cx="362" cy="61" r="3" fill="#1F78B4" stroke="none" opacity="1"/><circle cx="365" cy="58" r="3" fill="#1F78B4" stroke="none" opacity="1"/><circle cx="369" cy="56" r="3" fill="#1F78B4" stroke="none" opacity="1"/><circle cx="373" cy="51" r="3" fill="#1F78B4" stroke="none" opacity="1"/><circle cx="376" cy="51" r="3" fill="#1F78B4" stroke="none" opacity="1"/><circle cx="380" cy="49" r="3" fill="#1F78B4" stroke="none" opacity="1"/><circle cx="384" cy="41" r="3" fill="#1F78B4" stroke="none" opacity="1"/><circle cx="387" cy="44" r="3" fill="#1F78B4" stroke="none" opacity="1"/><circle cx="391" cy="43" r="3" fill="#1F78B4" stroke="none" opacity="1"/><circle cx="395" cy="35" r="3" fill="#1F78B4" stroke="none" opacity="1"/><circle cx="398" cy="36" r="3" fill="#1F78B4" stroke="none" opacity="1"/><circle cx="402" cy="36" r="3" fill="#1F78B4" stroke="none" opacity="1"/><circle cx="405" cy="24" r="3" fill="#1F78B4" stroke="none" opacity="1"/><circle cx="409" cy="31" r="3" fill="#1F78B4" stroke="none" opacity="1"/><circle cx="413" cy="25" r="3" fill="#1F78B4" stroke="none" opacity="1"/><circle cx="416" cy="25" r="3" fill="#1F78B4" stroke="none" opacity="1"/><circle cx="420" cy="25" r="3" fill="#1F78B4" stroke="none" opacity="1"/><circle cx="424" cy="18" r="3" fill="#1F78B4" stroke="none" opacity="1"/><circle cx="427" cy="15" r="3" fill="#1F78B4" stroke="none" opacity="1"/><circle cx="431" cy="17" r="3" fill="#1F78B4" stroke="none" opacity="1"/><circle cx="435" cy="15" r="3" fill="#1F78B4" stroke="none" opacity="1"/><polyline fill="none" stroke="#1F78B4" stroke-width="1" points="75 245 435 15" opacity="1"/><polygon fill="#1F78B4" points="75 245 435 15 435 15" opacity=".25"/></svg>