<svg xmlns="http://www.w3.org/2000/svg" width="960" height="540"><text x="480" y="32" fill="#000" dy=".76em" font-family="sans-serif" font-size="16.129" opacity="1" text-anchor="middle">bench_group/threads_48/67108864</text><text x="27" y="263" fill="#000" dy=".76em" font-family="sans-serif" font-size="9.677" opacity="1" text-anchor="middle" transform="rotate(270, 27, 263)">Total sample time (ms)</text><text x="510" y="513" fill="#000" dy="-.5ex" font-family="sans-serif" font-size="9.677" opacity="1" text-anchor="middle">Iterations</text><line x1="220" x2="220" y1="472" y2="52" stroke="#000" stroke-width="1" opacity=".2"/><line x1="363" x2="363" y1="472" y2="52" stroke="#000" stroke-width="1" opacity=".2"/><line x1="505" x2="505" y1="472" y2="52" stroke="#000" stroke-width="1" opacity=".2"/><line x1="648" x2="648" y1="472" y2="52" stroke="#000" stroke-width="1" opacity=".2"/><line x1="790" x2="790" y1="472" y2="52" stroke="#000" stroke-width="1" opacity=".2"/><line x1="933" x2="933" y1="472" y2="52" stroke="#000" stroke-width="1" opacity=".2"/><line x1="87" x2="933" y1="418" y2="418" stroke="#000" stroke-width="1" opacity=".2"/><line x1="87" x2="933" y1="358" y2="358" stroke="#000" stroke-width="1" opacity=".2"/><line x1="87" x2="933" y1="298" y2="298" stroke="#000" stroke-width="1" opacity=".2"/><line x1="87" x2="933" y1="238" y2="238" stroke="#000" stroke-width="1" opacity=".2"/><line x1="87" x2="933" y1="179" y2="179" stroke="#000" stroke-width="1" opacity=".2"/><line x1="87" x2="933" y1="119" y2="119" stroke="#000" stroke-width="1" opacity=".2"/><line x1="87" x2="933" y1="59" y2="59" stroke="#000" stroke-width="1" opacity=".2"/><polyline fill="none" stroke="#000" stroke-width="1" points="86 53 86 473" opacity="1"/><text x="77" y="418" fill="#000" dy=".5ex" font-family="sans-serif" font-size="9.677" opacity="1" text-anchor="end">20.0</text><polyline fill="none" stroke="#000" stroke-width="1" points="81 418 86 418" opacity="1"/><text x="77" y="358" fill="#000" dy=".5ex" font-family="sans-serif" font-size="9.677" opacity="1" text-anchor="end">40.0</text><polyline fill="none" stroke="#000" stroke-width="1" points="81 358 86 358" opacity="1"/><text x="77" y="298" fill="#000" dy=".5ex" font-family="sans-serif" font-size="9.677" opacity="1" text-anchor="end">60.0</text><polyline fill="none" stroke="#000" stroke-width="1" points="81 298 86 298" opacity="1"/><text x="77" y="238" fill="#000" dy=".5ex" font-family="sans-serif" font-size="9.677" opacity="1" text-anchor="end">80.0</text><polyline fill="none" stroke="#000" stroke-width="1" points="81 238 86 238" opacity="1"/><text x="77" y="179" fill="#000" dy=".5ex" font-family="sans-serif" font-size="9.677" opacity="1" text-anchor="end">100.0</text><polyline fill="none" stroke="#000" stroke-width="1" points="81 179 86 179" opacity="1"/><text x="77" y="119" fill="#000" dy=".5ex" font-family="sans-serif" font-size="9.677" opacity="1" text-anchor="end">120.0</text><polyline fill="none" stroke="#000" stroke-width="1" points="81 119 86 119" opacity="1"/><text x="77" y="59" fill="#000" dy=".5ex" font-family="sans-serif" font-size="9.677" opacity="1" text-anchor="end">140.0</text><polyline fill="none" stroke="#000" stroke-width="1" points="81 59 86 59" opacity="1"/><polyline fill="none" stroke="#000" stroke-width="1" points="87 473 933 473" opacity="1"/><text x="220" y="483" fill="#000" dy=".76em" font-family="sans-serif" font-size="9.677" opacity="1" text-anchor="middle">50</text><polyline fill="none" stroke="#000" stroke-width="1" points="220 473 220 478" opacity="1"/><text x="363" y="483" fill="#000" dy=".76em" font-family="sans-serif" font-size="9.677" opacity="1" text-anchor="middle">100</text><polyline fill="none" stroke="#000" stroke-width="1" points="363 473 363 478" opacity="1"/><text x="505" y="483" fill="#000" dy=".76em" font-family="sans-serif" font-size="9.677" opacity="1" text-anchor="middle">150</text><polyline fill="none" stroke="#000" stroke-width="1" points="505 473 505 478" opacity="1"/><text x="648" y="483" fill="#000" dy=".76em" font-family="sans-serif" font-size="9.677" opacity="1" text-anchor="middle">200</text><polyline fill="none" stroke="#000" stroke-width="1" points="648 473 648 478" opacity="1"/><text x="790" y="483" fill="#000" dy=".76em" font-family="sans-serif" font-size="9.677" opacity="1" text-anchor="middle">250</text><polyline fill="none" stroke="#000" stroke-width="1" points="790 473 790 478" opacity="1"/><text x="933" y="483" fill="#000" dy=".76em" font-family="sans-serif" font-size="9.677" opacity="1" text-anchor="middle">300</text><polyline fill="none" stroke="#000" stroke-width="1" points="933 473 933 478" opacity="1"/><circle cx="87" cy="472" r="3" fill="#1F78B4" stroke="none" opacity="1"/><circle cx="95" cy="466" r="3" fill="#1F78B4" stroke="none" opacity="1"/><circle cx="104" cy="462" r="3" fill="#1F78B4" stroke="none" opacity="1"/><circle cx="112" cy="457" r="3" fill="#1F78B4" stroke="none" opacity="1"/><circle cx="121" cy="453" r="3" fill="#1F78B4" stroke="none" opacity="1"/><circle cx="129" cy="448" r="3" fill="#1F78B4" stroke="none" opacity="1"/><circle cx="138" cy="445" r="3" fill="#1F78B4" stroke="none" opacity="1"/><circle cx="146" cy="440" r="3" fill="#1F78B4" stroke="none" opacity="1"/><circle cx="155" cy="436" r="3" fill="#1F78B4" stroke="none" opacity="1"/><circle cx="163" cy="433" r="3" fill="#1F78B4" stroke="none" opacity="1"/><circle cx="172" cy="428" r="3" fill="#1F78B4" stroke="none" opacity="1"/><circle cx="181" cy="423" r="3" fill="#1F78B4" stroke="none" opacity="1"/><circle cx="189" cy="419" r="3" fill="#1F78B4" stroke="none" opacity="1"/><circle cx="198" cy="415" r="3" fill="#1F78B4" stroke="none" opacity="1"/><circle cx="206" cy="411" r="3" fill="#1F78B4" stroke="none" opacity="1"/><circle cx="215" cy="405" r="3" fill="#1F78B4" stroke="none" opacity="1"/><circle cx="223" cy="402" r="3" fill="#1F78B4" stroke="none" opacity="1"/><circle cx="232" cy="397" r="3" fill="#1F78B4" stroke="none" opacity="1"/><circle cx="240" cy="395" r="3" fill="#1F78B4" stroke="none" opacity="1"/><circle cx="249" cy="388" r="3" fill="#1F78B4" stroke="none" opacity="1"/><circle cx="257" cy="385" r="3" fill="#1F78B4" stroke="none" opacity="1"/><circle cx="266" cy="380" r="3" fill="#1F78B4" stroke="none" opacity="1"/><circle cx="275" cy="376" r="3" fill="#1F78B4" stroke="none" opacity="1"/><circle cx="283" cy="374" r="3" fill="#1F78B4" stroke="none" opacity="1"/><circle cx="292" cy="369" r="3" fill="#1F78B4" stroke="none" opacity="1"/><circle cx="300" cy="366" r="3" fill="#1F78B4" stroke="none" opacity="1"/><circle cx="309" cy="359" r="3" fill="#1F78B4" stroke="none" opacity="1"/><circle cx="317" cy="358" r="3" fill="#1F78B4" stroke="none" opacity="1"/><circle cx="326" cy="349" r="3" fill="#1F78B4" stroke="none" opacity="1"/><circle cx="334" cy="344" r="3" fill="#1F78B4" stroke="none" opacity="1"/><circle cx="343" cy="346" r="3" fill="#1F78B4" stroke="none" opacity="1"/><circle cx="351" cy="338" r="3" fill="#1F78B4" stroke="none" opacity="1"/><circle cx="360" cy="328" r="3" fill="#1F78B4" stroke="none" opacity="1"/><circle cx="369" cy="331" r="3" fill="#1F78B4" stroke="none" opacity="1"/><circle cx="377" cy="328" r="3" fill="#1F78B4" stroke="none" opacity="1"/><circle cx="386" cy="321" r="3" fill="#1F78B4" stroke="none" opacity="1"/><circle cx="394" cy="318" r="3" fill="#1F78B4" stroke="none" opacity="1"/><circle cx="403" cy="313" r="3" fill="#1F78B4" stroke="none" opacity="1"/><circle cx="411" cy="307" r="3" fill="#1F78B4" stroke="none" opacity="1"/><circle cx="420" cy="305" r="3" fill="#1F78B4" stroke="none" opacity="1"/><circle cx="428" cy="302" r="3" fill="#1F78B4" stroke="none" opacity="1"/><circle cx="437" cy="298" r="3" fill="#1F78B4" stroke="none" opacity="1"/><circle cx="445" cy="295" r="3" fill="#1F78B4" stroke="none" opacity="1"/><circle cx="454" cy="291" r="3" fill="#1F78B4" stroke="none" opacity="1"/><circle cx="463" cy="287" r="3" fill="#1F78B4" stroke="none" opacity="1"/><circle cx="471" cy="273" r="3" fill="#1F78B4" stroke="none" opacity="1"/><circle cx="480" cy="278" r="3" fill="#1F78B4" stroke="none" opacity="1"/><circle cx="488" cy="274" r="3" fill="#1F78B4" stroke="none" opacity="1"/><circle cx="497" cy="267" r="3" fill="#1F78B4" stroke="none" opacity="1"/><circle cx="505" cy="262" r="3" fill="#1F78B4" stroke="none" opacity="1"/><circle cx="514" cy="261" r="3" fill="#1F78B4" stroke="none" opacity="1"/><circle cx="522" cy="250" r="3" fill="#1F78B4" stroke="none" opacity="1"/><circle cx="531" cy="251" r="3" fill="#1F78B4" stroke="none" opacity="1"/><circle cx="539" cy="243" r="3" fill="#1F78B4" stroke="none" opacity="1"/><circle cx="548" cy="239" r="3" fill="#1F78B4" stroke="none" opacity="1"/><circle cx="557" cy="237" r="3" fill="#1F78B4" stroke="none" opacity="1"/><circle cx="565" cy="234" r="3" fill="#1F78B4" stroke="none" opacity="1"/><circle cx="574" cy="227" r="3" fill="#1F78B4" stroke="none" opacity="1"/><circle cx="582" cy="224" r="3" fill="#1F78B4" stroke="none" opacity="1"/><circle cx="591" cy="222" r="3" fill="#1F78B4" stroke="none" opacity="1"/><circle cx="599" cy="215" r="3" fill="#1F78B4" stroke="none" opacity="1"/><circle cx="608" cy="217" r="3" fill="#1F78B4" stroke="none" opacity="1"/><circle cx="616" cy="206" r="3" fill="#1F78B4" stroke="none" opacity="1"/><circle cx="625" cy="207" r="3" fill="#1F78B4" stroke="none" opacity="1"/><circle cx="633" cy="195" r="3" fill="#1F78B4" stroke="none" opacity="1"/><circle cx="642" cy="200" r="3" fill="#1F78B4" stroke="none" opacity="1"/><circle cx="651" cy="191" r="3" fill="#1F78B4" stroke="none" opacity="1"/><circle cx="659" cy="189" r="3" fill="#1F78B4" stroke="none" opacity="1"/><circle cx="668" cy="182" r="3" fill="#1F78B4" stroke="none" opacity="1"/><circle cx="676" cy="179" r="3" fill="#1F78B4" stroke="none" opacity="1"/><circle cx="685" cy="175" r="3" fill="#1F78B4" stroke="none" opacity="1"/><circle cx="693" cy="174" r="3" fill="#1F78B4" stroke="none" opacity="1"/><circle cx="702" cy="163" r="3" fill="#1F78B4" stroke="none" opacity="1"/><circle cx="710" cy="164" r="3" fill="#1F78B4" stroke="none" opacity="1"/><circle cx="719" cy="155" r="3" fill="#1F78B4" stroke="none" opacity="1"/><circle cx="727" cy="150" r="3" fill="#1F78B4" stroke="none" opacity="1"/><circle cx="736" cy="146" r="3" fill="#1F78B4" stroke="none" opacity="1"/><circle cx="745" cy="150" r="3" fill="#1F78B4" stroke="none" opacity="1"/><circle cx="753" cy="137" r="3" fill="#1F78B4" stroke="none" opacity="1"/><circle cx="762" cy="139" r="3" fill="#1F78B4" stroke="none" opacity="1"/><circle cx="770" cy="133" r="3" fill="#1F78B4" stroke="none" opacity="1"/><circle cx="779" cy="129" r="3" fill="#1F78B4" stroke="none" opacity="1"/><circle cx="787" cy="120" r="3" fill="#1F78B4" stroke="none" opacity="1"/><circle cx="796" cy="120" r="3" fill="#1F78B4" stroke="none" opacity="1"/><circle cx="804" cy="116" r="3" fill="#1F78B4" stroke="none" opacity="1"/><circle cx="813" cy="102" r="3" fill="#1F78B4" stroke="none" opacity="1"/><circle cx="821" cy="107" r="3" fill="#1F78B4" stroke="none" opacity="1"/><circle cx="830" cy="106" r="3" fill="#1F78B4" stroke="none" opacity="1"/><circle cx="839" cy="91" r="3" fill="#1F78B4" stroke="none" opacity="1"/><circle cx="847" cy="92" r="3" fill="#1F78B4" stroke="none" opacity="1"/><circle cx="856" cy="93" r="3" fill="#1F78B4" stroke="none" opacity="1"/><circle cx="864" cy="72" r="3" fill="#1F78B4" stroke="none" opacity="1"/><circle cx="873" cy="83" r="3" fill="#1F78B4" stroke="none" opacity="1"/><circle cx="881" cy="72" r="3" fill="#1F78B4" stroke="none" opacity="1"/><circle cx="890" cy="72" r="3" fill="#1F78B4" stroke="none" opacity="1"/><circle cx="898" cy="72" r="3" fill="#1F78B4" stroke="none" opacity="1"/><circle cx="907" cy="60" r="3" fill="#1F78B4" stroke="none" opacity="1"/><circle cx="915" cy="53" r="3" fill="#1F78B4" stroke="none" opacity="1"/><circle cx="924" cy="58" r="3" fill="#1F78B4" stroke="none" opacity="1"/><circle cx="933" cy="54" r="3" fill="#1F78B4" stroke="none" opacity="1"/><polyline fill="none" stroke="#1F78B4" stroke-width="1" points="87 473 933 53" opacity="1"/><polygon fill="#1F78B4" points="87 473 933 53 933 53" opacity=".25"/><text x="132" y="68" fill="#000" dy=".76em" font-family="sans-serif" font-size="9.677" opacity="1" text-anchor="start">Sample</text><text x="132" y="83" fill="#000" dy=".76em" font-family="sans-serif" font-size="9.677" opacity="1" text-anchor="start">Linear regression</text><text x="132" y="98" fill="#000" dy=".76em" font-family="sans-serif" font-size="9.677" opacity="1" text-anchor="start">Confidence interval</text><circle cx="112" cy="73" r="3" fill="#1F78B4" stroke="none" opacity="1"/><polyline fill="none" stroke="#1F78B4" stroke-width="2" points="102 88 122 88" opacity="1"/><rect width="20" height="10" x="102" y="98" fill="#1F78B4" stroke="none" opacity=".25"/></svg>