<svg xmlns="http://www.w3.org/2000/svg" width="450" height="300"><text x="15" y="130" fill="#000" dy=".76em" font-family="sans-serif" font-size="9.677" opacity="1" text-anchor="middle" transform="rotate(270, 15, 130)">Total sample time (ms)</text><text x="255" y="285" fill="#000" dy="-.5ex" font-family="sans-serif" font-size="9.677" opacity="1" text-anchor="middle">Iterations</text><line x1="116" x2="116" y1="244" y2="14" stroke="#000" stroke-width="1" opacity=".2"/><line x1="162" x2="162" y1="244" y2="14" stroke="#000" stroke-width="1" opacity=".2"/><line x1="207" x2="207" y1="244" y2="14" stroke="#000" stroke-width="1" opacity=".2"/><line x1="253" x2="253" y1="244" y2="14" stroke="#000" stroke-width="1" opacity=".2"/><line x1="298" x2="298" y1="244" y2="14" stroke="#000" stroke-width="1" opacity=".2"/><line x1="344" x2="344" y1="244" y2="14" stroke="#000" stroke-width="1" opacity=".2"/><line x1="389" x2="389" y1="244" y2="14" stroke="#000" stroke-width="1" opacity=".2"/><line x1="435" x2="435" y1="244" y2="14" stroke="#000" stroke-width="1" opacity=".2"/><line x1="75" x2="435" y1="205" y2="205" stroke="#000" stroke-width="1" opacity=".2"/><line x1="75" x2="435" y1="164" y2="164" stroke="#000" stroke-width="1" opacity=".2"/><line x1="75" x2="435" y1="122" y2="122" stroke="#000" stroke-width="1" opacity=".2"/><line x1="75" x2="435" y1="81" y2="81" stroke="#000" stroke-width="1" opacity=".2"/><line x1="75" x2="435" y1="39" y2="39" stroke="#000" stroke-width="1" opacity=".2"/><polyline fill="none" stroke="#000" stroke-width="1" points="74 15 74 245" opacity="1"/><text x="65" y="205" fill="#000" dy=".5ex" font-family="sans-serif" font-size="9.677" opacity="1" text-anchor="end">20.0</text><polyline fill="none" stroke="#000" stroke-width="1" points="69 205 74 205" opacity="1"/><text x="65" y="164" fill="#000" dy=".5ex" font-family="sans-serif" font-size="9.677" opacity="1" text-anchor="end">40.0</text><polyline fill="none" stroke="#000" stroke-width="1" points="69 164 74 164" opacity="1"/><text x="65" y="122" fill="#000" dy=".5ex" font-family="sans-serif" font-size="9.677" opacity="1" text-anchor="end">60.0</text><polyline fill="none" stroke="#000" stroke-width="1" points="69 122 74 122" opacity="1"/><text x="65" y="81" fill="#000" dy=".5ex" font-family="sans-serif" font-size="9.677" opacity="1" text-anchor="end">80.0</text><polyline fill="none" stroke="#000" stroke-width="1" points="69 81 74 81" opacity="1"/><text x="65" y="39" fill="#000" dy=".5ex" font-family="sans-serif" font-size="9.677" opacity="1" text-anchor="end">100.0</text><polyline fill="none" stroke="#000" stroke-width="1" points="69 39 74 39" opacity="1"/><polyline fill="none" stroke="#000" stroke-width="1" points="75 245 435 245" opacity="1"/><text x="116" y="255" fill="#000" dy=".76em" font-family="sans-serif" font-size="9.677" opacity="1" text-anchor="middle">50</text><polyline fill="none" stroke="#000" stroke-width="1" points="116 245 116 250" opacity="1"/><text x="162" y="255" fill="#000" dy=".76em" font-family="sans-serif" font-size="9.677" opacity="1" text-anchor="middle">100</text><polyline fill="none" stroke="#000" stroke-width="1" points="162 245 162 250" opacity="1"/><text x="207" y="255" fill="#000" dy=".76em" font-family="sans-serif" font-size="9.677" opacity="1" text-anchor="middle">150</text><polyline fill="none" stroke="#000" stroke-width="1" points="207 245 207 250" opacity="1"/><text x="253" y="255" fill="#000" dy=".76em" font-family="sans-serif" font-size="9.677" opacity="1" text-anchor="middle">200</text><polyline fill="none" stroke="#000" stroke-width="1" points="253 245 253 250" opacity="1"/><text x="298" y="255" fill="#000" dy=".76em" font-family="sans-serif" font-size="9.677" opacity="1" text-anchor="middle">250</text><polyline fill="none" stroke="#000" stroke-width="1" points="298 245 298 250" opacity="1"/><text x="344" y="255" fill="#000" dy=".76em" font-family="sans-serif" font-size="9.677" opacity="1" text-anchor="middle">300</text><polyline fill="none" stroke="#000" stroke-width="1" points="344 245 344 250" opacity="1"/><text x="389" y="255" fill="#000" dy=".76em" font-family="sans-serif" font-size="9.677" opacity="1" text-anchor="middle">350</text><polyline fill="none" stroke="#000" stroke-width="1" points="389 245 389 250" opacity="1"/><text x="435" y="255" fill="#000" dy=".76em" font-family="sans-serif" font-size="9.677" opacity="1" text-anchor="middle">400</text><polyline fill="none" stroke="#000" stroke-width="1" points="435 245 435 250" opacity="1"/><circle cx="75" cy="244" r="3" fill="#1F78B4" stroke="none" opacity="1"/><circle cx="78" cy="241" r="3" fill="#1F78B4" stroke="none" opacity="1"/><circle cx="82" cy="239" r="3" fill="#1F78B4" stroke="none" opacity="1"/><circle cx="85" cy="237" r="3" fill="#1F78B4" stroke="none" opacity="1"/><circle cx="89" cy="234" r="3" fill="#1F78B4" stroke="none" opacity="1"/><circle cx="93" cy="232" r="3" fill="#1F78B4" stroke="none" opacity="1"/><circle cx="96" cy="230" r="3" fill="#1F78B4" stroke="none" opacity="1"/><circle cx="100" cy="227" r="3" fill="#1F78B4" stroke="none" opacity="1"/><circle cx="104" cy="225" r="3" fill="#1F78B4" stroke="none" opacity="1"/><circle cx="107" cy="222" r="3" fill="#1F78B4" stroke="none" opacity="1"/><circle cx="111" cy="220" r="3" fill="#1F78B4" stroke="none" opacity="1"/><circle cx="115" cy="218" r="3" fill="#1F78B4" stroke="none" opacity="1"/><circle cx="118" cy="216" r="3" fill="#1F78B4" stroke="none" opacity="1"/><circle cx="122" cy="213" r="3" fill="#1F78B4" stroke="none" opacity="1"/><circle cx="125" cy="211" r="3" fill="#1F78B4" stroke="none" opacity="1"/><circle cx="129" cy="209" r="3" fill="#1F78B4" stroke="none" opacity="1"/><circle cx="133" cy="206" r="3" fill="#1F78B4" stroke="none" opacity="1"/><circle cx="136" cy="205" r="3" fill="#1F78B4" stroke="none" opacity="1"/><circle cx="140" cy="203" r="3" fill="#1F78B4" stroke="none" opacity="1"/><circle cx="144" cy="199" r="3" fill="#1F78B4" stroke="none" opacity="1"/><circle cx="147" cy="199" r="3" fill="#1F78B4" stroke="none" opacity="1"/><circle cx="151" cy="197" r="3" fill="#1F78B4" stroke="none" opacity="1"/><circle cx="155" cy="193" r="3" fill="#1F78B4" stroke="none" opacity="1"/><circle cx="158" cy="194" r="3" fill="#1F78B4" stroke="none" opacity="1"/><circle cx="162" cy="190" r="3" fill="#1F78B4" stroke="none" opacity="1"/><circle cx="165" cy="184" r="3" fill="#1F78B4" stroke="none" opacity="1"/><circle cx="169" cy="184" r="3" fill="#1F78B4" stroke="none" opacity="1"/><circle cx="173" cy="181" r="3" fill="#1F78B4" stroke="none" opacity="1"/><circle cx="176" cy="180" r="3" fill="#1F78B4" stroke="none" opacity="1"/><circle cx="180" cy="176" r="3" fill="#1F78B4" stroke="none" opacity="1"/><circle cx="184" cy="174" r="3" fill="#1F78B4" stroke="none" opacity="1"/><circle cx="187" cy="171" r="3" fill="#1F78B4" stroke="none" opacity="1"/><circle cx="191" cy="171" r="3" fill="#1F78B4" stroke="none" opacity="1"/><circle cx="195" cy="167" r="3" fill="#1F78B4" stroke="none" opacity="1"/><circle cx="198" cy="166" r="3" fill="#1F78B4" stroke="none" opacity="1"/><circle cx="202" cy="168" r="3" fill="#1F78B4" stroke="none" opacity="1"/><circle cx="205" cy="163" r="3" fill="#1F78B4" stroke="none" opacity="1"/><circle cx="209" cy="158" r="3" fill="#1F78B4" stroke="none" opacity="1"/><circle cx="213" cy="154" r="3" fill="#1F78B4" stroke="none" opacity="1"/><circle cx="216" cy="151" r="3" fill="#1F78B4" stroke="none" opacity="1"/><circle cx="220" cy="150" r="3" fill="#1F78B4" stroke="none" opacity="1"/><circle cx="224" cy="148" r="3" fill="#1F78B4" stroke="none" opacity="1"/><circle cx="227" cy="149" r="3" fill="#1F78B4" stroke="none" opacity="1"/><circle cx="231" cy="145" r="3" fill="#1F78B4" stroke="none" opacity="1"/><circle cx="235" cy="143" r="3" fill="#1F78B4" stroke="none" opacity="1"/><circle cx="238" cy="140" r="3" fill="#1F78B4" stroke="none" opacity="1"/><circle cx="242" cy="136" r="3" fill="#1F78B4" stroke="none" opacity="1"/><circle cx="245" cy="133" r="3" fill="#1F78B4" stroke="none" opacity="1"/><circle cx="249" cy="136" r="3" fill="#1F78B4" stroke="none" opacity="1"/><circle cx="253" cy="129" r="3" fill="#1F78B4" stroke="none" opacity="1"/><circle cx="256" cy="127" r="3" fill="#1F78B4" stroke="none" opacity="1"/><circle cx="260" cy="127" r="3" fill="#1F78B4" stroke="none" opacity="1"/><circle cx="264" cy="123" r="3" fill="#1F78B4" stroke="none" opacity="1"/><circle cx="267" cy="122" r="3" fill="#1F78B4" stroke="none" opacity="1"/><circle cx="271" cy="119" r="3" fill="#1F78B4" stroke="none" opacity="1"/><circle cx="275" cy="115" r="3" fill="#1F78B4" stroke="none" opacity="1"/><circle cx="278" cy="115" r="3" fill="#1F78B4" stroke="none" opacity="1"/><circle cx="282" cy="111" r="3" fill="#1F78B4" stroke="none" opacity="1"/><circle cx="285" cy="114" r="3" fill="#1F78B4" stroke="none" opacity="1"/><circle cx="289" cy="109" r="3" fill="#1F78B4" stroke="none" opacity="1"/><circle cx="293" cy="105" r="3" fill="#1F78B4" stroke="none" opacity="1"/><circle cx="296" cy="105" r="3" fill="#1F78B4" stroke="none" opacity="1"/><circle cx="300" cy="99" r="3" fill="#1F78B4" stroke="none" opacity="1"/><circle cx="304" cy="99" r="3" fill="#1F78B4" stroke="none" opacity="1"/><circle cx="307" cy="98" r="3" fill="#1F78B4" stroke="none" opacity="1"/><circle cx="311" cy="95" r="3" fill="#1F78B4" stroke="none" opacity="1"/><circle cx="315" cy="95" r="3" fill="#1F78B4" stroke="none" opacity="1"/><circle cx="318" cy="90" r="3" fill="#1F78B4" stroke="none" opacity="1"/><circle cx="322" cy="87" r="3" fill="#1F78B4" stroke="none" opacity="1"/><circle cx="325" cy="79" r="3" fill="#1F78B4" stroke="none" opacity="1"/><circle cx="329" cy="87" r="3" fill="#1F78B4" stroke="none" opacity="1"/><circle cx="333" cy="77" r="3" fill="#1F78B4" stroke="none" opacity="1"/><circle cx="336" cy="79" r="3" fill="#1F78B4" stroke="none" opacity="1"/><circle cx="340" cy="73" r="3" fill="#1F78B4" stroke="none" opacity="1"/><circle cx="344" cy="70" r="3" fill="#1F78B4" stroke="none" opacity="1"/><circle cx="347" cy="72" r="3" fill="#1F78B4" stroke="none" opacity="1"/><circle cx="351" cy="74" r="3" fill="#1F78B4" stroke="none" opacity="1"/><circle cx="355" cy="72" r="3" fill="#1F78B4" stroke="none" opacity="1"/><circle cx="358" cy="62" r="3" fill="#1F78B4" stroke="none" opacity="1"/><circle cx="362" cy="59" r="3" fill="#1F78B4" stroke="none" opacity="1"/><circle cx="365" cy="56" r="3" fill="#1F78B4" stroke="none" opacity="1"/><circle cx="369" cy="55" r="3" fill="#1F78B4" stroke="none" opacity="1"/><circle cx="373" cy="49" r="3" fill="#1F78B4" stroke="none" opacity="1"/><circle cx="376" cy="54" r="3" fill="#1F78B4" stroke="none" opacity="1"/><circle cx="380" cy="55" r="3" fill="#1F78B4" stroke="none" opacity="1"/><circle cx="384" cy="42" r="3" fill="#1F78B4" stroke="none" opacity="1"/><circle cx="387" cy="48" r="3" fill="#1F78B4" stroke="none" opacity="1"/><circle cx="391" cy="41" r="3" fill="#1F78B4" stroke="none" opacity="1"/><circle cx="395" cy="44" r="3" fill="#1F78B4" stroke="none" opacity="1"/><circle cx="398" cy="36" r="3" fill="#1F78B4" stroke="none" opacity="1"/><circle cx="402" cy="38" r="3" fill="#1F78B4" stroke="none" opacity="1"/><circle cx="405" cy="36" r="3" fill="#1F78B4" stroke="none" opacity="1"/><circle cx="409" cy="36" r="3" fill="#1F78B4" stroke="none" opacity="1"/><circle cx="413" cy="31" r="3" fill="#1F78B4" stroke="none" opacity="1"/><circle cx="416" cy="25" r="3" fill="#1F78B4" stroke="none" opacity="1"/><circle cx="420" cy="18" r="3" fill="#1F78B4" stroke="none" opacity="1"/><circle cx="424" cy="25" r="3" fill="#1F78B4" stroke="none" opacity="1"/><circle cx="427" cy="15" r="3" fill="#1F78B4" stroke="none" opacity="1"/><circle cx="431" cy="16" r="3" fill="#1F78B4" stroke="none" opacity="1"/><circle cx="435" cy="32" r="3" fill="#1F78B4" stroke="none" opacity="1"/><polyline fill="none" stroke="#1F78B4" stroke-width="1" points="75 245 435 16" opacity="1"/><polygon fill="#1F78B4" points="75 245 435 17 435 15" opacity=".25"/></svg>