<svg xmlns="http://www.w3.org/2000/svg" width="960" height="540"><text x="480" y="32" fill="#000" dy=".76em" font-family="sans-serif" font-size="16.129" opacity="1" text-anchor="middle">bench_group/threads_48/16777216</text><text x="27" y="263" fill="#000" dy=".76em" font-family="sans-serif" font-size="9.677" opacity="1" text-anchor="middle" transform="rotate(270, 27, 263)">Total sample time (ms)</text><text x="510" y="513" fill="#000" dy="-.5ex" font-family="sans-serif" font-size="9.677" opacity="1" text-anchor="middle">Iterations</text><line x1="200" x2="200" y1="472" y2="52" stroke="#000" stroke-width="1" opacity=".2"/><line x1="322" x2="322" y1="472" y2="52" stroke="#000" stroke-width="1" opacity=".2"/><line x1="444" x2="444" y1="472" y2="52" stroke="#000" stroke-width="1" opacity=".2"/><line x1="566" x2="566" y1="472" y2="52" stroke="#000" stroke-width="1" opacity=".2"/><line x1="688" x2="688" y1="472" y2="52" stroke="#000" stroke-width="1" opacity=".2"/><line x1="810" x2="810" y1="472" y2="52" stroke="#000" stroke-width="1" opacity=".2"/><line x1="933" x2="933" y1="472" y2="52" stroke="#000" stroke-width="1" opacity=".2"/><line x1="87" x2="933" y1="403" y2="403" stroke="#000" stroke-width="1" opacity=".2"/><line x1="87" x2="933" y1="329" y2="329" stroke="#000" stroke-width="1" opacity=".2"/><line x1="87" x2="933" y1="254" y2="254" stroke="#000" stroke-width="1" opacity=".2"/><line x1="87" x2="933" y1="180" y2="180" stroke="#000" stroke-width="1" opacity=".2"/><line x1="87" x2="933" y1="106" y2="106" stroke="#000" stroke-width="1" opacity=".2"/><polyline fill="none" stroke="#000" stroke-width="1" points="86 53 86 473" opacity="1"/><text x="77" y="403" fill="#000" dy=".5ex" font-family="sans-serif" font-size="9.677" opacity="1" text-anchor="end">20.0</text><polyline fill="none" stroke="#000" stroke-width="1" points="81 403 86 403" opacity="1"/><text x="77" y="329" fill="#000" dy=".5ex" font-family="sans-serif" font-size="9.677" opacity="1" text-anchor="end">40.0</text><polyline fill="none" stroke="#000" stroke-width="1" points="81 329 86 329" opacity="1"/><text x="77" y="254" fill="#000" dy=".5ex" font-family="sans-serif" font-size="9.677" opacity="1" text-anchor="end">60.0</text><polyline fill="none" stroke="#000" stroke-width="1" points="81 254 86 254" opacity="1"/><text x="77" y="180" fill="#000" dy=".5ex" font-family="sans-serif" font-size="9.677" opacity="1" text-anchor="end">80.0</text><polyline fill="none" stroke="#000" stroke-width="1" points="81 180 86 180" opacity="1"/><text x="77" y="106" fill="#000" dy=".5ex" font-family="sans-serif" font-size="9.677" opacity="1" text-anchor="end">100.0</text><polyline fill="none" stroke="#000" stroke-width="1" points="81 106 86 106" opacity="1"/><polyline fill="none" stroke="#000" stroke-width="1" points="87 473 933 473" opacity="1"/><text x="200" y="483" fill="#000" dy=".76em" font-family="sans-serif" font-size="9.677" opacity="1" text-anchor="middle">100</text><polyline fill="none" stroke="#000" stroke-width="1" points="200 473 200 478" opacity="1"/><text x="322" y="483" fill="#000" dy=".76em" font-family="sans-serif" font-size="9.677" opacity="1" text-anchor="middle">200</text><polyline fill="none" stroke="#000" stroke-width="1" points="322 473 322 478" opacity="1"/><text x="444" y="483" fill="#000" dy=".76em" font-family="sans-serif" font-size="9.677" opacity="1" text-anchor="middle">300</text><polyline fill="none" stroke="#000" stroke-width="1" points="444 473 444 478" opacity="1"/><text x="566" y="483" fill="#000" dy=".76em" font-family="sans-serif" font-size="9.677" opacity="1" text-anchor="middle">400</text><polyline fill="none" stroke="#000" stroke-width="1" points="566 473 566 478" opacity="1"/><text x="688" y="483" fill="#000" dy=".76em" font-family="sans-serif" font-size="9.677" opacity="1" text-anchor="middle">500</text><polyline fill="none" stroke="#000" stroke-width="1" points="688 473 688 478" opacity="1"/><text x="810" y="483" fill="#000" dy=".76em" font-family="sans-serif" font-size="9.677" opacity="1" text-anchor="middle">600</text><polyline fill="none" stroke="#000" stroke-width="1" points="810 473 810 478" opacity="1"/><text x="933" y="483" fill="#000" dy=".76em" font-family="sans-serif" font-size="9.677" opacity="1" text-anchor="middle">700</text><polyline fill="none" stroke="#000" stroke-width="1" points="933 473 933 478" opacity="1"/><circle cx="87" cy="472" r="3" fill="#1F78B4" stroke="none" opacity="1"/><circle cx="95" cy="468" r="3" fill="#1F78B4" stroke="none" opacity="1"/><circle cx="104" cy="463" r="3" fill="#1F78B4" stroke="none" opacity="1"/><circle cx="112" cy="459" r="3" fill="#1F78B4" stroke="none" opacity="1"/><circle cx="121" cy="455" r="3" fill="#1F78B4" stroke="none" opacity="1"/><circle cx="129" cy="450" r="3" fill="#1F78B4" stroke="none" opacity="1"/><circle cx="138" cy="447" r="3" fill="#1F78B4" stroke="none" opacity="1"/><circle cx="146" cy="442" r="3" fill="#1F78B4" stroke="none" opacity="1"/><circle cx="155" cy="439" r="3" fill="#1F78B4" stroke="none" opacity="1"/><circle cx="163" cy="434" r="3" fill="#1F78B4" stroke="none" opacity="1"/><circle cx="172" cy="429" r="3" fill="#1F78B4" stroke="none" opacity="1"/><circle cx="181" cy="425" r="3" fill="#1F78B4" stroke="none" opacity="1"/><circle cx="189" cy="420" r="3" fill="#1F78B4" stroke="none" opacity="1"/><circle cx="198" cy="417" r="3" fill="#1F78B4" stroke="none" opacity="1"/><circle cx="206" cy="413" r="3" fill="#1F78B4" stroke="none" opacity="1"/><circle cx="215" cy="410" r="3" fill="#1F78B4" stroke="none" opacity="1"/><circle cx="223" cy="405" r="3" fill="#1F78B4" stroke="none" opacity="1"/><circle cx="232" cy="398" r="3" fill="#1F78B4" stroke="none" opacity="1"/><circle cx="240" cy="395" r="3" fill="#1F78B4" stroke="none" opacity="1"/><circle cx="249" cy="392" r="3" fill="#1F78B4" stroke="none" opacity="1"/><circle cx="257" cy="386" r="3" fill="#1F78B4" stroke="none" opacity="1"/><circle cx="266" cy="382" r="3" fill="#1F78B4" stroke="none" opacity="1"/><circle cx="275" cy="378" r="3" fill="#1F78B4" stroke="none" opacity="1"/><circle cx="283" cy="372" r="3" fill="#1F78B4" stroke="none" opacity="1"/><circle cx="292" cy="370" r="3" fill="#1F78B4" stroke="none" opacity="1"/><circle cx="300" cy="366" r="3" fill="#1F78B4" stroke="none" opacity="1"/><circle cx="309" cy="364" r="3" fill="#1F78B4" stroke="none" opacity="1"/><circle cx="317" cy="356" r="3" fill="#1F78B4" stroke="none" opacity="1"/><circle cx="326" cy="355" r="3" fill="#1F78B4" stroke="none" opacity="1"/><circle cx="334" cy="346" r="3" fill="#1F78B4" stroke="none" opacity="1"/><circle cx="343" cy="347" r="3" fill="#1F78B4" stroke="none" opacity="1"/><circle cx="351" cy="342" r="3" fill="#1F78B4" stroke="none" opacity="1"/><circle cx="360" cy="334" r="3" fill="#1F78B4" stroke="none" opacity="1"/><circle cx="369" cy="333" r="3" fill="#1F78B4" stroke="none" opacity="1"/><circle cx="377" cy="327" r="3" fill="#1F78B4" stroke="none" opacity="1"/><circle cx="386" cy="326" r="3" fill="#1F78B4" stroke="none" opacity="1"/><circle cx="394" cy="320" r="3" fill="#1F78B4" stroke="none" opacity="1"/><circle cx="403" cy="315" r="3" fill="#1F78B4" stroke="none" opacity="1"/><circle cx="411" cy="308" r="3" fill="#1F78B4" stroke="none" opacity="1"/><circle cx="420" cy="305" r="3" fill="#1F78B4" stroke="none" opacity="1"/><circle cx="428" cy="305" r="3" fill="#1F78B4" stroke="none" opacity="1"/><circle cx="437" cy="298" r="3" fill="#1F78B4" stroke="none" opacity="1"/><circle cx="445" cy="294" r="3" fill="#1F78B4" stroke="none" opacity="1"/><circle cx="454" cy="291" r="3" fill="#1F78B4" stroke="none" opacity="1"/><circle cx="463" cy="287" r="3" fill="#1F78B4" stroke="none" opacity="1"/><circle cx="471" cy="282" r="3" fill="#1F78B4" stroke="none" opacity="1"/><circle cx="480" cy="275" r="3" fill="#1F78B4" stroke="none" opacity="1"/><circle cx="488" cy="273" r="3" fill="#1F78B4" stroke="none" opacity="1"/><circle cx="497" cy="268" r="3" fill="#1F78B4" stroke="none" opacity="1"/><circle cx="505" cy="262" r="3" fill="#1F78B4" stroke="none" opacity="1"/><circle cx="514" cy="260" r="3" fill="#1F78B4" stroke="none" opacity="1"/><circle cx="522" cy="257" r="3" fill="#1F78B4" stroke="none" opacity="1"/><circle cx="531" cy="254" r="3" fill="#1F78B4" stroke="none" opacity="1"/><circle cx="539" cy="248" r="3" fill="#1F78B4" stroke="none" opacity="1"/><circle cx="548" cy="243" r="3" fill="#1F78B4" stroke="none" opacity="1"/><circle cx="557" cy="239" r="3" fill="#1F78B4" stroke="none" opacity="1"/><circle cx="565" cy="236" r="3" fill="#1F78B4" stroke="none" opacity="1"/><circle cx="574" cy="231" r="3" fill="#1F78B4" stroke="none" opacity="1"/><circle cx="582" cy="227" r="3" fill="#1F78B4" stroke="none" opacity="1"/><circle cx="591" cy="222" r="3" fill="#1F78B4" stroke="none" opacity="1"/><circle cx="599" cy="220" r="3" fill="#1F78B4" stroke="none" opacity="1"/><circle cx="608" cy="213" r="3" fill="#1F78B4" stroke="none" opacity="1"/><circle cx="616" cy="205" r="3" fill="#1F78B4" stroke="none" opacity="1"/><circle cx="625" cy="210" r="3" fill="#1F78B4" stroke="none" opacity="1"/><circle cx="633" cy="202" r="3" fill="#1F78B4" stroke="none" opacity="1"/><circle cx="642" cy="200" r="3" fill="#1F78B4" stroke="none" opacity="1"/><circle cx="651" cy="192" r="3" fill="#1F78B4" stroke="none" opacity="1"/><circle cx="659" cy="191" r="3" fill="#1F78B4" stroke="none" opacity="1"/><circle cx="668" cy="185" r="3" fill="#1F78B4" stroke="none" opacity="1"/><circle cx="676" cy="180" r="3" fill="#1F78B4" stroke="none" opacity="1"/><circle cx="685" cy="174" r="3" fill="#1F78B4" stroke="none" opacity="1"/><circle cx="693" cy="168" r="3" fill="#1F78B4" stroke="none" opacity="1"/><circle cx="702" cy="165" r="3" fill="#1F78B4" stroke="none" opacity="1"/><circle cx="710" cy="167" r="3" fill="#1F78B4" stroke="none" opacity="1"/><circle cx="719" cy="159" r="3" fill="#1F78B4" stroke="none" opacity="1"/><circle cx="727" cy="153" r="3" fill="#1F78B4" stroke="none" opacity="1"/><circle cx="736" cy="153" r="3" fill="#1F78B4" stroke="none" opacity="1"/><circle cx="745" cy="148" r="3" fill="#1F78B4" stroke="none" opacity="1"/><circle cx="753" cy="144" r="3" fill="#1F78B4" stroke="none" opacity="1"/><circle cx="762" cy="140" r="3" fill="#1F78B4" stroke="none" opacity="1"/><circle cx="770" cy="137" r="3" fill="#1F78B4" stroke="none" opacity="1"/><circle cx="779" cy="131" r="3" fill="#1F78B4" stroke="none" opacity="1"/><circle cx="787" cy="129" r="3" fill="#1F78B4" stroke="none" opacity="1"/><circle cx="796" cy="121" r="3" fill="#1F78B4" stroke="none" opacity="1"/><circle cx="804" cy="118" r="3" fill="#1F78B4" stroke="none" opacity="1"/><circle cx="813" cy="113" r="3" fill="#1F78B4" stroke="none" opacity="1"/><circle cx="821" cy="109" r="3" fill="#1F78B4" stroke="none" opacity="1"/><circle cx="830" cy="105" r="3" fill="#1F78B4" stroke="none" opacity="1"/><circle cx="839" cy="98" r="3" fill="#1F78B4" stroke="none" opacity="1"/><circle cx="847" cy="97" r="3" fill="#1F78B4" stroke="none" opacity="1"/><circle cx="856" cy="96" r="3" fill="#1F78B4" stroke="none" opacity="1"/><circle cx="864" cy="89" r="3" fill="#1F78B4" stroke="none" opacity="1"/><circle cx="873" cy="81" r="3" fill="#1F78B4" stroke="none" opacity="1"/><circle cx="881" cy="81" r="3" fill="#1F78B4" stroke="none" opacity="1"/><circle cx="890" cy="75" r="3" fill="#1F78B4" stroke="none" opacity="1"/><circle cx="898" cy="67" r="3" fill="#1F78B4" stroke="none" opacity="1"/><circle cx="907" cy="66" r="3" fill="#1F78B4" stroke="none" opacity="1"/><circle cx="915" cy="55" r="3" fill="#1F78B4" stroke="none" opacity="1"/><circle cx="924" cy="53" r="3" fill="#1F78B4" stroke="none" opacity="1"/><circle cx="933" cy="55" r="3" fill="#1F78B4" stroke="none" opacity="1"/><polyline fill="none" stroke="#1F78B4" stroke-width="1" points="87 473 933 53" opacity="1"/><polygon fill="#1F78B4" points="87 473 933 54 933 53" opacity=".25"/><text x="132" y="68" fill="#000" dy=".76em" font-family="sans-serif" font-size="9.677" opacity="1" text-anchor="start">Sample</text><text x="132" y="83" fill="#000" dy=".76em" font-family="sans-serif" font-size="9.677" opacity="1" text-anchor="start">Linear regression</text><text x="132" y="98" fill="#000" dy=".76em" font-family="sans-serif" font-size="9.677" opacity="1" text-anchor="start">Confidence interval</text><circle cx="112" cy="73" r="3" fill="#1F78B4" stroke="none" opacity="1"/><polyline fill="none" stroke="#1F78B4" stroke-width="2" points="102 88 122 88" opacity="1"/><rect width="20" height="10" x="102" y="98" fill="#1F78B4" stroke="none" opacity=".25"/></svg>