<svg xmlns="http://www.w3.org/2000/svg" width="450" height="300"><text x="15" y="130" fill="#000" dy=".76em" font-family="sans-serif" font-size="9.677" opacity="1" text-anchor="middle" transform="rotate(270, 15, 130)">Total sample time (ms)</text><text x="255" y="285" fill="#000" dy="-.5ex" font-family="sans-serif" font-size="9.677" opacity="1" text-anchor="middle">Iterations (x 10^3)</text><line x1="113" x2="113" y1="244" y2="14" stroke="#000" stroke-width="1" opacity=".2"/><line x1="155" x2="155" y1="244" y2="14" stroke="#000" stroke-width="1" opacity=".2"/><line x1="198" x2="198" y1="244" y2="14" stroke="#000" stroke-width="1" opacity=".2"/><line x1="240" x2="240" y1="244" y2="14" stroke="#000" stroke-width="1" opacity=".2"/><line x1="282" x2="282" y1="244" y2="14" stroke="#000" stroke-width="1" opacity=".2"/><line x1="325" x2="325" y1="244" y2="14" stroke="#000" stroke-width="1" opacity=".2"/><line x1="367" x2="367" y1="244" y2="14" stroke="#000" stroke-width="1" opacity=".2"/><line x1="409" x2="409" y1="244" y2="14" stroke="#000" stroke-width="1" opacity=".2"/><line x1="75" x2="435" y1="202" y2="202" stroke="#000" stroke-width="1" opacity=".2"/><line x1="75" x2="435" y1="158" y2="158" stroke="#000" stroke-width="1" opacity=".2"/><line x1="75" x2="435" y1="113" y2="113" stroke="#000" stroke-width="1" opacity=".2"/><line x1="75" x2="435" y1="69" y2="69" stroke="#000" stroke-width="1" opacity=".2"/><line x1="75" x2="435" y1="25" y2="25" stroke="#000" stroke-width="1" opacity=".2"/><polyline fill="none" stroke="#000" stroke-width="1" points="74 15 74 245" opacity="1"/><text x="65" y="202" fill="#000" dy=".5ex" font-family="sans-serif" font-size="9.677" opacity="1" text-anchor="end">20.0</text><polyline fill="none" stroke="#000" stroke-width="1" points="69 202 74 202" opacity="1"/><text x="65" y="158" fill="#000" dy=".5ex" font-family="sans-serif" font-size="9.677" opacity="1" text-anchor="end">40.0</text><polyline fill="none" stroke="#000" stroke-width="1" points="69 158 74 158" opacity="1"/><text x="65" y="113" fill="#000" dy=".5ex" font-family="sans-serif" font-size="9.677" opacity="1" text-anchor="end">60.0</text><polyline fill="none" stroke="#000" stroke-width="1" points="69 113 74 113" opacity="1"/><text x="65" y="69" fill="#000" dy=".5ex" font-family="sans-serif" font-size="9.677" opacity="1" text-anchor="end">80.0</text><polyline fill="none" stroke="#000" stroke-width="1" points="69 69 74 69" opacity="1"/><text x="65" y="25" fill="#000" dy=".5ex" font-family="sans-serif" font-size="9.677" opacity="1" text-anchor="end">100.0</text><polyline fill="none" stroke="#000" stroke-width="1" points="69 25 74 25" opacity="1"/><polyline fill="none" stroke="#000" stroke-width="1" points="75 245 435 245" opacity="1"/><text x="113" y="255" fill="#000" dy=".76em" font-family="sans-serif" font-size="9.677" opacity="1" text-anchor="middle">0.5</text><polyline fill="none" stroke="#000" stroke-width="1" points="113 245 113 250" opacity="1"/><text x="155" y="255" fill="#000" dy=".76em" font-family="sans-serif" font-size="9.677" opacity="1" text-anchor="middle">1</text><polyline fill="none" stroke="#000" stroke-width="1" points="155 245 155 250" opacity="1"/><text x="198" y="255" fill="#000" dy=".76em" font-family="sans-serif" font-size="9.677" opacity="1" text-anchor="middle">1.5</text><polyline fill="none" stroke="#000" stroke-width="1" points="198 245 198 250" opacity="1"/><text x="240" y="255" fill="#000" dy=".76em" font-family="sans-serif" font-size="9.677" opacity="1" text-anchor="middle">2</text><polyline fill="none" stroke="#000" stroke-width="1" points="240 245 240 250" opacity="1"/><text x="282" y="255" fill="#000" dy=".76em" font-family="sans-serif" font-size="9.677" opacity="1" text-anchor="middle">2.5</text><polyline fill="none" stroke="#000" stroke-width="1" points="282 245 282 250" opacity="1"/><text x="325" y="255" fill="#000" dy=".76em" font-family="sans-serif" font-size="9.677" opacity="1" text-anchor="middle">3</text><polyline fill="none" stroke="#000" stroke-width="1" points="325 245 325 250" opacity="1"/><text x="367" y="255" fill="#000" dy=".76em" font-family="sans-serif" font-size="9.677" opacity="1" text-anchor="middle">3.5</text><polyline fill="none" stroke="#000" stroke-width="1" points="367 245 367 250" opacity="1"/><text x="409" y="255" fill="#000" dy=".76em" font-family="sans-serif" font-size="9.677" opacity="1" text-anchor="middle">4</text><polyline fill="none" stroke="#000" stroke-width="1" points="409 245 409 250" opacity="1"/><circle cx="75" cy="244" r="3" fill="#1F78B4" stroke="none" opacity="1"/><circle cx="78" cy="241" r="3" fill="#1F78B4" stroke="none" opacity="1"/><circle cx="82" cy="239" r="3" fill="#1F78B4" stroke="none" opacity="1"/><circle cx="85" cy="237" r="3" fill="#1F78B4" stroke="none" opacity="1"/><circle cx="89" cy="234" r="3" fill="#1F78B4" stroke="none" opacity="1"/><circle cx="93" cy="232" r="3" fill="#1F78B4" stroke="none" opacity="1"/><circle cx="96" cy="230" r="3" fill="#1F78B4" stroke="none" opacity="1"/><circle cx="100" cy="227" r="3" fill="#1F78B4" stroke="none" opacity="1"/><circle cx="104" cy="224" r="3" fill="#1F78B4" stroke="none" opacity="1"/><circle cx="107" cy="222" r="3" fill="#1F78B4" stroke="none" opacity="1"/><circle cx="111" cy="219" r="3" fill="#1F78B4" stroke="none" opacity="1"/><circle cx="115" cy="216" r="3" fill="#1F78B4" stroke="none" opacity="1"/><circle cx="118" cy="216" r="3" fill="#1F78B4" stroke="none" opacity="1"/><circle cx="122" cy="214" r="3" fill="#1F78B4" stroke="none" opacity="1"/><circle cx="125" cy="212" r="3" fill="#1F78B4" stroke="none" opacity="1"/><circle cx="129" cy="210" r="3" fill="#1F78B4" stroke="none" opacity="1"/><circle cx="133" cy="208" r="3" fill="#1F78B4" stroke="none" opacity="1"/><circle cx="136" cy="205" r="3" fill="#1F78B4" stroke="none" opacity="1"/><circle cx="140" cy="203" r="3" fill="#1F78B4" stroke="none" opacity="1"/><circle cx="144" cy="199" r="3" fill="#1F78B4" stroke="none" opacity="1"/><circle cx="147" cy="198" r="3" fill="#1F78B4" stroke="none" opacity="1"/><circle cx="151" cy="195" r="3" fill="#1F78B4" stroke="none" opacity="1"/><circle cx="155" cy="194" r="3" fill="#1F78B4" stroke="none" opacity="1"/><circle cx="158" cy="191" r="3" fill="#1F78B4" stroke="none" opacity="1"/><circle cx="162" cy="187" r="3" fill="#1F78B4" stroke="none" opacity="1"/><circle cx="165" cy="183" r="3" fill="#1F78B4" stroke="none" opacity="1"/><circle cx="169" cy="183" r="3" fill="#1F78B4" stroke="none" opacity="1"/><circle cx="173" cy="183" r="3" fill="#1F78B4" stroke="none" opacity="1"/><circle cx="176" cy="176" r="3" fill="#1F78B4" stroke="none" opacity="1"/><circle cx="180" cy="177" r="3" fill="#1F78B4" stroke="none" opacity="1"/><circle cx="184" cy="172" r="3" fill="#1F78B4" stroke="none" opacity="1"/><circle cx="187" cy="174" r="3" fill="#1F78B4" stroke="none" opacity="1"/><circle cx="191" cy="172" r="3" fill="#1F78B4" stroke="none" opacity="1"/><circle cx="195" cy="170" r="3" fill="#1F78B4" stroke="none" opacity="1"/><circle cx="198" cy="162" r="3" fill="#1F78B4" stroke="none" opacity="1"/><circle cx="202" cy="164" r="3" fill="#1F78B4" stroke="none" opacity="1"/><circle cx="205" cy="161" r="3" fill="#1F78B4" stroke="none" opacity="1"/><circle cx="209" cy="160" r="3" fill="#1F78B4" stroke="none" opacity="1"/><circle cx="213" cy="153" r="3" fill="#1F78B4" stroke="none" opacity="1"/><circle cx="216" cy="156" r="3" fill="#1F78B4" stroke="none" opacity="1"/><circle cx="220" cy="156" r="3" fill="#1F78B4" stroke="none" opacity="1"/><circle cx="224" cy="148" r="3" fill="#1F78B4" stroke="none" opacity="1"/><circle cx="227" cy="154" r="3" fill="#1F78B4" stroke="none" opacity="1"/><circle cx="231" cy="142" r="3" fill="#1F78B4" stroke="none" opacity="1"/><circle cx="235" cy="142" r="3" fill="#1F78B4" stroke="none" opacity="1"/><circle cx="238" cy="141" r="3" fill="#1F78B4" stroke="none" opacity="1"/><circle cx="242" cy="136" r="3" fill="#1F78B4" stroke="none" opacity="1"/><circle cx="245" cy="138" r="3" fill="#1F78B4" stroke="none" opacity="1"/><circle cx="249" cy="136" r="3" fill="#1F78B4" stroke="none" opacity="1"/><circle cx="253" cy="130" r="3" fill="#1F78B4" stroke="none" opacity="1"/><circle cx="256" cy="128" r="3" fill="#1F78B4" stroke="none" opacity="1"/><circle cx="260" cy="126" r="3" fill="#1F78B4" stroke="none" opacity="1"/><circle cx="264" cy="129" r="3" fill="#1F78B4" stroke="none" opacity="1"/><circle cx="267" cy="122" r="3" fill="#1F78B4" stroke="none" opacity="1"/><circle cx="271" cy="117" r="3" fill="#1F78B4" stroke="none" opacity="1"/><circle cx="275" cy="110" r="3" fill="#1F78B4" stroke="none" opacity="1"/><circle cx="278" cy="117" r="3" fill="#1F78B4" stroke="none" opacity="1"/><circle cx="282" cy="99" r="3" fill="#1F78B4" stroke="none" opacity="1"/><circle cx="285" cy="107" r="3" fill="#1F78B4" stroke="none" opacity="1"/><circle cx="289" cy="113" r="3" fill="#1F78B4" stroke="none" opacity="1"/><circle cx="293" cy="108" r="3" fill="#1F78B4" stroke="none" opacity="1"/><circle cx="296" cy="104" r="3" fill="#1F78B4" stroke="none" opacity="1"/><circle cx="300" cy="102" r="3" fill="#1F78B4" stroke="none" opacity="1"/><circle cx="304" cy="86" r="3" fill="#1F78B4" stroke="none" opacity="1"/><circle cx="307" cy="87" r="3" fill="#1F78B4" stroke="none" opacity="1"/><circle cx="311" cy="90" r="3" fill="#1F78B4" stroke="none" opacity="1"/><circle cx="315" cy="93" r="3" fill="#1F78B4" stroke="none" opacity="1"/><circle cx="318" cy="88" r="3" fill="#1F78B4" stroke="none" opacity="1"/><circle cx="322" cy="93" r="3" fill="#1F78B4" stroke="none" opacity="1"/><circle cx="325" cy="88" r="3" fill="#1F78B4" stroke="none" opacity="1"/><circle cx="329" cy="80" r="3" fill="#1F78B4" stroke="none" opacity="1"/><circle cx="333" cy="78" r="3" fill="#1F78B4" stroke="none" opacity="1"/><circle cx="336" cy="77" r="3" fill="#1F78B4" stroke="none" opacity="1"/><circle cx="340" cy="71" r="3" fill="#1F78B4" stroke="none" opacity="1"/><circle cx="344" cy="79" r="3" fill="#1F78B4" stroke="none" opacity="1"/><circle cx="347" cy="73" r="3" fill="#1F78B4" stroke="none" opacity="1"/><circle cx="351" cy="67" r="3" fill="#1F78B4" stroke="none" opacity="1"/><circle cx="355" cy="68" r="3" fill="#1F78B4" stroke="none" opacity="1"/><circle cx="358" cy="73" r="3" fill="#1F78B4" stroke="none" opacity="1"/><circle cx="362" cy="63" r="3" fill="#1F78B4" stroke="none" opacity="1"/><circle cx="365" cy="48" r="3" fill="#1F78B4" stroke="none" opacity="1"/><circle cx="369" cy="62" r="3" fill="#1F78B4" stroke="none" opacity="1"/><circle cx="373" cy="64" r="3" fill="#1F78B4" stroke="none" opacity="1"/><circle cx="376" cy="56" r="3" fill="#1F78B4" stroke="none" opacity="1"/><circle cx="380" cy="50" r="3" fill="#1F78B4" stroke="none" opacity="1"/><circle cx="384" cy="55" r="3" fill="#1F78B4" stroke="none" opacity="1"/><circle cx="387" cy="48" r="3" fill="#1F78B4" stroke="none" opacity="1"/><circle cx="391" cy="55" r="3" fill="#1F78B4" stroke="none" opacity="1"/><circle cx="395" cy="44" r="3" fill="#1F78B4" stroke="none" opacity="1"/><circle cx="398" cy="49" r="3" fill="#1F78B4" stroke="none" opacity="1"/><circle cx="402" cy="40" r="3" fill="#1F78B4" stroke="none" opacity="1"/><circle cx="405" cy="37" r="3" fill="#1F78B4" stroke="none" opacity="1"/><circle cx="409" cy="42" r="3" fill="#1F78B4" stroke="none" opacity="1"/><circle cx="413" cy="35" r="3" fill="#1F78B4" stroke="none" opacity="1"/><circle cx="416" cy="30" r="3" fill="#1F78B4" stroke="none" opacity="1"/><circle cx="420" cy="15" r="3" fill="#1F78B4" stroke="none" opacity="1"/><circle cx="424" cy="25" r="3" fill="#1F78B4" stroke="none" opacity="1"/><circle cx="427" cy="33" r="3" fill="#1F78B4" stroke="none" opacity="1"/><circle cx="431" cy="26" r="3" fill="#1F78B4" stroke="none" opacity="1"/><circle cx="435" cy="15" r="3" fill="#1F78B4" stroke="none" opacity="1"/><polyline fill="none" stroke="#1F78B4" stroke-width="1" points="75 245 435 17" opacity="1"/><polygon fill="#1F78B4" points="75 245 435 19 435 15" opacity=".25"/></svg>