<svg xmlns="http://www.w3.org/2000/svg" width="960" height="540"><text x="480" y="5" fill="#000" dy=".76em" font-family="sans-serif" font-size="16.129" opacity="1" text-anchor="middle">bench_group/blake3: Comparision</text><text x="26" y="263" fill="#000" dy=".76em" font-family="sans-serif" font-size="9.677" opacity="1" text-anchor="middle" transform="rotate(270, 26, 263)">Average time (us)</text><text x="510" y="514" fill="#000" dy="-.5ex" font-family="sans-serif" font-size="9.677" opacity="1" text-anchor="middle">Input Size (Bytes)</text><polyline fill="none" stroke="#000" stroke-width="1" points="85 52 85 474" opacity="1"/><text x="76" y="424" fill="#000" dy=".5ex" font-family="sans-serif" font-size="9.677" opacity="1" text-anchor="end">20.0</text><polyline fill="none" stroke="#000" stroke-width="1" points="80 424 85 424" opacity="1"/><text x="76" y="376" fill="#000" dy=".5ex" font-family="sans-serif" font-size="9.677" opacity="1" text-anchor="end">40.0</text><polyline fill="none" stroke="#000" stroke-width="1" points="80 376 85 376" opacity="1"/><text x="76" y="327" fill="#000" dy=".5ex" font-family="sans-serif" font-size="9.677" opacity="1" text-anchor="end">60.0</text><polyline fill="none" stroke="#000" stroke-width="1" points="80 327 85 327" opacity="1"/><text x="76" y="278" fill="#000" dy=".5ex" font-family="sans-serif" font-size="9.677" opacity="1" text-anchor="end">80.0</text><polyline fill="none" stroke="#000" stroke-width="1" points="80 278 85 278" opacity="1"/><text x="76" y="230" fill="#000" dy=".5ex" font-family="sans-serif" font-size="9.677" opacity="1" text-anchor="end">100.0</text><polyline fill="none" stroke="#000" stroke-width="1" points="80 230 85 230" opacity="1"/><text x="76" y="181" fill="#000" dy=".5ex" font-family="sans-serif" font-size="9.677" opacity="1" text-anchor="end">120.0</text><polyline fill="none" stroke="#000" stroke-width="1" points="80 181 85 181" opacity="1"/><text x="76" y="133" fill="#000" dy=".5ex" font-family="sans-serif" font-size="9.677" opacity="1" text-anchor="end">140.0</text><polyline fill="none" stroke="#000" stroke-width="1" points="80 133 85 133" opacity="1"/><text x="76" y="84" fill="#000" dy=".5ex" font-family="sans-serif" font-size="9.677" opacity="1" text-anchor="end">160.0</text><polyline fill="none" stroke="#000" stroke-width="1" points="80 84 85 84" opacity="1"/><polyline fill="none" stroke="#000" stroke-width="1" points="86 474 934 474" opacity="1"/><text x="247" y="484" fill="#000" dy=".76em" font-family="sans-serif" font-size="9.677" opacity="1" text-anchor="middle">200000.0</text><polyline fill="none" stroke="#000" stroke-width="1" points="247 474 247 479" opacity="1"/><text x="409" y="484" fill="#000" dy=".76em" font-family="sans-serif" font-size="9.677" opacity="1" text-anchor="middle">400000.0</text><polyline fill="none" stroke="#000" stroke-width="1" points="409 474 409 479" opacity="1"/><text x="571" y="484" fill="#000" dy=".76em" font-family="sans-serif" font-size="9.677" opacity="1" text-anchor="middle">600000.0</text><polyline fill="none" stroke="#000" stroke-width="1" points="571 474 571 479" opacity="1"/><text x="732" y="484" fill="#000" dy=".76em" font-family="sans-serif" font-size="9.677" opacity="1" text-anchor="middle">800000.0</text><polyline fill="none" stroke="#000" stroke-width="1" points="732 474 732 479" opacity="1"/><text x="894" y="484" fill="#000" dy=".76em" font-family="sans-serif" font-size="9.677" opacity="1" text-anchor="middle">1000000.0</text><polyline fill="none" stroke="#000" stroke-width="1" points="894 474 894 479" opacity="1"/><circle cx="86" cy="473" r="3" fill="#B22222" stroke="none" opacity="1"/><circle cx="86" cy="472" r="3" fill="#B22222" stroke="none" opacity="1"/><circle cx="86" cy="472" r="3" fill="#B22222" stroke="none" opacity="1"/><circle cx="86" cy="472" r="3" fill="#B22222" stroke="none" opacity="1"/><circle cx="86" cy="472" r="3" fill="#B22222" stroke="none" opacity="1"/><circle cx="86" cy="472" r="3" fill="#B22222" stroke="none" opacity="1"/><circle cx="86" cy="472" r="3" fill="#B22222" stroke="none" opacity="1"/><circle cx="86" cy="472" r="3" fill="#B22222" stroke="none" opacity="1"/><circle cx="86" cy="472" r="3" fill="#B22222" stroke="none" opacity="1"/><circle cx="86" cy="472" r="3" fill="#B22222" stroke="none" opacity="1"/><circle cx="86" cy="472" r="3" fill="#B22222" stroke="none" opacity="1"/><circle cx="86" cy="472" r="3" fill="#B22222" stroke="none" opacity="1"/><circle cx="86" cy="472" r="3" fill="#B22222" stroke="none" opacity="1"/><circle cx="86" cy="471" r="3" fill="#B22222" stroke="none" opacity="1"/><circle cx="86" cy="471" r="3" fill="#B22222" stroke="none" opacity="1"/><circle cx="86" cy="471" r="3" fill="#B22222" stroke="none" opacity="1"/><circle cx="86" cy="470" r="3" fill="#B22222" stroke="none" opacity="1"/><circle cx="86" cy="470" r="3" fill="#B22222" stroke="none" opacity="1"/><circle cx="87" cy="469" r="3" fill="#B22222" stroke="none" opacity="1"/><circle cx="87" cy="468" r="3" fill="#B22222" stroke="none" opacity="1"/><circle cx="87" cy="470" r="3" fill="#B22222" stroke="none" opacity="1"/><circle cx="88" cy="469" r="3" fill="#B22222" stroke="none" opacity="1"/><circle cx="88" cy="468" r="3" fill="#B22222" stroke="none" opacity="1"/><circle cx="88" cy="467" r="3" fill="#B22222" stroke="none" opacity="1"/><circle cx="89" cy="470" r="3" fill="#B22222" stroke="none" opacity="1"/><circle cx="90" cy="467" r="3" fill="#B22222" stroke="none" opacity="1"/><circle cx="90" cy="467" r="3" fill="#B22222" stroke="none" opacity="1"/><circle cx="91" cy="465" r="3" fill="#B22222" stroke="none" opacity="1"/><circle cx="92" cy="468" r="3" fill="#B22222" stroke="none" opacity="1"/><circle cx="94" cy="466" r="3" fill="#B22222" stroke="none" opacity="1"/><circle cx="95" cy="465" r="3" fill="#B22222" stroke="none" opacity="1"/><circle cx="97" cy="463" r="3" fill="#B22222" stroke="none" opacity="1"/><circle cx="99" cy="466" r="3" fill="#B22222" stroke="none" opacity="1"/><circle cx="102" cy="463" r="3" fill="#B22222" stroke="none" opacity="1"/><circle cx="105" cy="461" r="3" fill="#B22222" stroke="none" opacity="1"/><circle cx="109" cy="458" r="3" fill="#B22222" stroke="none" opacity="1"/><circle cx="112" cy="459" r="3" fill="#B22222" stroke="none" opacity="1"/><circle cx="119" cy="455" r="3" fill="#B22222" stroke="none" opacity="1"/><circle cx="125" cy="453" r="3" fill="#B22222" stroke="none" opacity="1"/><circle cx="132" cy="448" r="3" fill="#B22222" stroke="none" opacity="1"/><circle cx="138" cy="446" r="3" fill="#B22222" stroke="none" opacity="1"/><circle cx="152" cy="440" r="3" fill="#B22222" stroke="none" opacity="1"/><circle cx="165" cy="434" r="3" fill="#B22222" stroke="none" opacity="1"/><circle cx="178" cy="427" r="3" fill="#B22222" stroke="none" opacity="1"/><circle cx="191" cy="421" r="3" fill="#B22222" stroke="none" opacity="1"/><circle cx="218" cy="408" r="3" fill="#B22222" stroke="none" opacity="1"/><circle cx="244" cy="395" r="3" fill="#B22222" stroke="none" opacity="1"/><circle cx="271" cy="382" r="3" fill="#B22222" stroke="none" opacity="1"/><circle cx="297" cy="369" r="3" fill="#B22222" stroke="none" opacity="1"/><circle cx="350" cy="343" r="3" fill="#B22222" stroke="none" opacity="1"/><circle cx="403" cy="318" r="3" fill="#B22222" stroke="none" opacity="1"/><circle cx="456" cy="292" r="3" fill="#B22222" stroke="none" opacity="1"/><circle cx="509" cy="266" r="3" fill="#B22222" stroke="none" opacity="1"/><circle cx="615" cy="214" r="3" fill="#B22222" stroke="none" opacity="1"/><circle cx="721" cy="162" r="3" fill="#B22222" stroke="none" opacity="1"/><circle cx="827" cy="108" r="3" fill="#B22222" stroke="none" opacity="1"/><circle cx="934" cy="52" r="3" fill="#B22222" stroke="none" opacity="1"/><polyline fill="none" stroke="#B22222" stroke-width="1" points="86 473 86 472 86 472 86 472 86 472 86 472 86 472 86 472 86 472 86 472 86 472 86 472 86 472 86 471 86 471 86 471 86 470 86 470 87 469 87 468 87 470 88 469 88 468 88 467 89 470 90 467 90 467 91 465 92 468 94 466 95 465 97 463 99 466 102 463 105 461 109 458 112 459 119 455 125 453 132 448 138 446 152 440 165 434 178 427 191 421 218 408 244 395 271 382 297 369 350 343 403 318 456 292 509 266 615 214 721 162 827 108 934 52" opacity="1"/><text x="131" y="67" fill="#000" dy=".76em" font-family="sans-serif" font-size="9.677" opacity="1" text-anchor="start">blake3</text><rect width="20" height="10" x="101" y="67" fill="#B22222" stroke="none" opacity="1"/></svg>