<svg xmlns="http://www.w3.org/2000/svg" width="960" height="540"><text x="480" y="32" fill="#000" dy=".76em" font-family="sans-serif" font-size="16.129" opacity="1" text-anchor="middle">bench_group/threads_01/65536</text><text x="27" y="263" fill="#000" dy=".76em" font-family="sans-serif" font-size="9.677" opacity="1" text-anchor="middle" transform="rotate(270, 27, 263)">Total sample time (ms)</text><text x="510" y="513" fill="#000" dy="-.5ex" font-family="sans-serif" font-size="9.677" opacity="1" text-anchor="middle">Iterations (x 10^3)</text><line x1="228" x2="228" y1="472" y2="52" stroke="#000" stroke-width="1" opacity=".2"/><line x1="378" x2="378" y1="472" y2="52" stroke="#000" stroke-width="1" opacity=".2"/><line x1="528" x2="528" y1="472" y2="52" stroke="#000" stroke-width="1" opacity=".2"/><line x1="678" x2="678" y1="472" y2="52" stroke="#000" stroke-width="1" opacity=".2"/><line x1="828" x2="828" y1="472" y2="52" stroke="#000" stroke-width="1" opacity=".2"/><line x1="87" x2="933" y1="433" y2="433" stroke="#000" stroke-width="1" opacity=".2"/><line x1="87" x2="933" y1="391" y2="391" stroke="#000" stroke-width="1" opacity=".2"/><line x1="87" x2="933" y1="348" y2="348" stroke="#000" stroke-width="1" opacity=".2"/><line x1="87" x2="933" y1="305" y2="305" stroke="#000" stroke-width="1" opacity=".2"/><line x1="87" x2="933" y1="263" y2="263" stroke="#000" stroke-width="1" opacity=".2"/><line x1="87" x2="933" y1="220" y2="220" stroke="#000" stroke-width="1" opacity=".2"/><line x1="87" x2="933" y1="177" y2="177" stroke="#000" stroke-width="1" opacity=".2"/><line x1="87" x2="933" y1="135" y2="135" stroke="#000" stroke-width="1" opacity=".2"/><line x1="87" x2="933" y1="92" y2="92" stroke="#000" stroke-width="1" opacity=".2"/><polyline fill="none" stroke="#000" stroke-width="1" points="86 53 86 473" opacity="1"/><text x="77" y="433" fill="#000" dy=".5ex" font-family="sans-serif" font-size="9.677" opacity="1" text-anchor="end">10.0</text><polyline fill="none" stroke="#000" stroke-width="1" points="81 433 86 433" opacity="1"/><text x="77" y="391" fill="#000" dy=".5ex" font-family="sans-serif" font-size="9.677" opacity="1" text-anchor="end">20.0</text><polyline fill="none" stroke="#000" stroke-width="1" points="81 391 86 391" opacity="1"/><text x="77" y="348" fill="#000" dy=".5ex" font-family="sans-serif" font-size="9.677" opacity="1" text-anchor="end">30.0</text><polyline fill="none" stroke="#000" stroke-width="1" points="81 348 86 348" opacity="1"/><text x="77" y="305" fill="#000" dy=".5ex" font-family="sans-serif" font-size="9.677" opacity="1" text-anchor="end">40.0</text><polyline fill="none" stroke="#000" stroke-width="1" points="81 305 86 305" opacity="1"/><text x="77" y="263" fill="#000" dy=".5ex" font-family="sans-serif" font-size="9.677" opacity="1" text-anchor="end">50.0</text><polyline fill="none" stroke="#000" stroke-width="1" points="81 263 86 263" opacity="1"/><text x="77" y="220" fill="#000" dy=".5ex" font-family="sans-serif" font-size="9.677" opacity="1" text-anchor="end">60.0</text><polyline fill="none" stroke="#000" stroke-width="1" points="81 220 86 220" opacity="1"/><text x="77" y="177" fill="#000" dy=".5ex" font-family="sans-serif" font-size="9.677" opacity="1" text-anchor="end">70.0</text><polyline fill="none" stroke="#000" stroke-width="1" points="81 177 86 177" opacity="1"/><text x="77" y="135" fill="#000" dy=".5ex" font-family="sans-serif" font-size="9.677" opacity="1" text-anchor="end">80.0</text><polyline fill="none" stroke="#000" stroke-width="1" points="81 135 86 135" opacity="1"/><text x="77" y="92" fill="#000" dy=".5ex" font-family="sans-serif" font-size="9.677" opacity="1" text-anchor="end">90.0</text><polyline fill="none" stroke="#000" stroke-width="1" points="81 92 86 92" opacity="1"/><polyline fill="none" stroke="#000" stroke-width="1" points="87 473 933 473" opacity="1"/><text x="228" y="483" fill="#000" dy=".76em" font-family="sans-serif" font-size="9.677" opacity="1" text-anchor="middle">2</text><polyline fill="none" stroke="#000" stroke-width="1" points="228 473 228 478" opacity="1"/><text x="378" y="483" fill="#000" dy=".76em" font-family="sans-serif" font-size="9.677" opacity="1" text-anchor="middle">4</text><polyline fill="none" stroke="#000" stroke-width="1" points="378 473 378 478" opacity="1"/><text x="528" y="483" fill="#000" dy=".76em" font-family="sans-serif" font-size="9.677" opacity="1" text-anchor="middle">6</text><polyline fill="none" stroke="#000" stroke-width="1" points="528 473 528 478" opacity="1"/><text x="678" y="483" fill="#000" dy=".76em" font-family="sans-serif" font-size="9.677" opacity="1" text-anchor="middle">8</text><polyline fill="none" stroke="#000" stroke-width="1" points="678 473 678 478" opacity="1"/><text x="828" y="483" fill="#000" dy=".76em" font-family="sans-serif" font-size="9.677" opacity="1" text-anchor="middle">10</text><polyline fill="none" stroke="#000" stroke-width="1" points="828 473 828 478" opacity="1"/><circle cx="87" cy="472" r="3" fill="#1F78B4" stroke="none" opacity="1"/><circle cx="95" cy="467" r="3" fill="#1F78B4" stroke="none" opacity="1"/><circle cx="104" cy="462" r="3" fill="#1F78B4" stroke="none" opacity="1"/><circle cx="112" cy="459" r="3" fill="#1F78B4" stroke="none" opacity="1"/><circle cx="121" cy="454" r="3" fill="#1F78B4" stroke="none" opacity="1"/><circle cx="129" cy="450" r="3" fill="#1F78B4" stroke="none" opacity="1"/><circle cx="138" cy="446" r="3" fill="#1F78B4" stroke="none" opacity="1"/><circle cx="146" cy="442" r="3" fill="#1F78B4" stroke="none" opacity="1"/><circle cx="155" cy="437" r="3" fill="#1F78B4" stroke="none" opacity="1"/><circle cx="163" cy="433" r="3" fill="#1F78B4" stroke="none" opacity="1"/><circle cx="172" cy="429" r="3" fill="#1F78B4" stroke="none" opacity="1"/><circle cx="181" cy="425" r="3" fill="#1F78B4" stroke="none" opacity="1"/><circle cx="189" cy="420" r="3" fill="#1F78B4" stroke="none" opacity="1"/><circle cx="198" cy="416" r="3" fill="#1F78B4" stroke="none" opacity="1"/><circle cx="206" cy="412" r="3" fill="#1F78B4" stroke="none" opacity="1"/><circle cx="215" cy="408" r="3" fill="#1F78B4" stroke="none" opacity="1"/><circle cx="223" cy="404" r="3" fill="#1F78B4" stroke="none" opacity="1"/><circle cx="232" cy="399" r="3" fill="#1F78B4" stroke="none" opacity="1"/><circle cx="240" cy="395" r="3" fill="#1F78B4" stroke="none" opacity="1"/><circle cx="249" cy="391" r="3" fill="#1F78B4" stroke="none" opacity="1"/><circle cx="257" cy="387" r="3" fill="#1F78B4" stroke="none" opacity="1"/><circle cx="266" cy="383" r="3" fill="#1F78B4" stroke="none" opacity="1"/><circle cx="275" cy="379" r="3" fill="#1F78B4" stroke="none" opacity="1"/><circle cx="283" cy="374" r="3" fill="#1F78B4" stroke="none" opacity="1"/><circle cx="292" cy="370" r="3" fill="#1F78B4" stroke="none" opacity="1"/><circle cx="300" cy="366" r="3" fill="#1F78B4" stroke="none" opacity="1"/><circle cx="309" cy="361" r="3" fill="#1F78B4" stroke="none" opacity="1"/><circle cx="317" cy="357" r="3" fill="#1F78B4" stroke="none" opacity="1"/><circle cx="326" cy="353" r="3" fill="#1F78B4" stroke="none" opacity="1"/><circle cx="334" cy="349" r="3" fill="#1F78B4" stroke="none" opacity="1"/><circle cx="343" cy="344" r="3" fill="#1F78B4" stroke="none" opacity="1"/><circle cx="351" cy="340" r="3" fill="#1F78B4" stroke="none" opacity="1"/><circle cx="360" cy="334" r="3" fill="#1F78B4" stroke="none" opacity="1"/><circle cx="369" cy="330" r="3" fill="#1F78B4" stroke="none" opacity="1"/><circle cx="377" cy="328" r="3" fill="#1F78B4" stroke="none" opacity="1"/><circle cx="386" cy="323" r="3" fill="#1F78B4" stroke="none" opacity="1"/><circle cx="394" cy="315" r="3" fill="#1F78B4" stroke="none" opacity="1"/><circle cx="403" cy="313" r="3" fill="#1F78B4" stroke="none" opacity="1"/><circle cx="411" cy="311" r="3" fill="#1F78B4" stroke="none" opacity="1"/><circle cx="420" cy="307" r="3" fill="#1F78B4" stroke="none" opacity="1"/><circle cx="428" cy="301" r="3" fill="#1F78B4" stroke="none" opacity="1"/><circle cx="437" cy="298" r="3" fill="#1F78B4" stroke="none" opacity="1"/><circle cx="445" cy="294" r="3" fill="#1F78B4" stroke="none" opacity="1"/><circle cx="454" cy="289" r="3" fill="#1F78B4" stroke="none" opacity="1"/><circle cx="463" cy="285" r="3" fill="#1F78B4" stroke="none" opacity="1"/><circle cx="471" cy="281" r="3" fill="#1F78B4" stroke="none" opacity="1"/><circle cx="480" cy="277" r="3" fill="#1F78B4" stroke="none" opacity="1"/><circle cx="488" cy="272" r="3" fill="#1F78B4" stroke="none" opacity="1"/><circle cx="497" cy="267" r="3" fill="#1F78B4" stroke="none" opacity="1"/><circle cx="505" cy="264" r="3" fill="#1F78B4" stroke="none" opacity="1"/><circle cx="514" cy="260" r="3" fill="#1F78B4" stroke="none" opacity="1"/><circle cx="522" cy="253" r="3" fill="#1F78B4" stroke="none" opacity="1"/><circle cx="531" cy="251" r="3" fill="#1F78B4" stroke="none" opacity="1"/><circle cx="539" cy="247" r="3" fill="#1F78B4" stroke="none" opacity="1"/><circle cx="548" cy="240" r="3" fill="#1F78B4" stroke="none" opacity="1"/><circle cx="557" cy="238" r="3" fill="#1F78B4" stroke="none" opacity="1"/><circle cx="565" cy="234" r="3" fill="#1F78B4" stroke="none" opacity="1"/><circle cx="574" cy="230" r="3" fill="#1F78B4" stroke="none" opacity="1"/><circle cx="582" cy="225" r="3" fill="#1F78B4" stroke="none" opacity="1"/><circle cx="591" cy="222" r="3" fill="#1F78B4" stroke="none" opacity="1"/><circle cx="599" cy="218" r="3" fill="#1F78B4" stroke="none" opacity="1"/><circle cx="608" cy="213" r="3" fill="#1F78B4" stroke="none" opacity="1"/><circle cx="616" cy="209" r="3" fill="#1F78B4" stroke="none" opacity="1"/><circle cx="625" cy="205" r="3" fill="#1F78B4" stroke="none" opacity="1"/><circle cx="633" cy="201" r="3" fill="#1F78B4" stroke="none" opacity="1"/><circle cx="642" cy="196" r="3" fill="#1F78B4" stroke="none" opacity="1"/><circle cx="651" cy="192" r="3" fill="#1F78B4" stroke="none" opacity="1"/><circle cx="659" cy="188" r="3" fill="#1F78B4" stroke="none" opacity="1"/><circle cx="668" cy="183" r="3" fill="#1F78B4" stroke="none" opacity="1"/><circle cx="676" cy="179" r="3" fill="#1F78B4" stroke="none" opacity="1"/><circle cx="685" cy="175" r="3" fill="#1F78B4" stroke="none" opacity="1"/><circle cx="693" cy="171" r="3" fill="#1F78B4" stroke="none" opacity="1"/><circle cx="702" cy="167" r="3" fill="#1F78B4" stroke="none" opacity="1"/><circle cx="710" cy="162" r="3" fill="#1F78B4" stroke="none" opacity="1"/><circle cx="719" cy="156" r="3" fill="#1F78B4" stroke="none" opacity="1"/><circle cx="727" cy="154" r="3" fill="#1F78B4" stroke="none" opacity="1"/><circle cx="736" cy="150" r="3" fill="#1F78B4" stroke="none" opacity="1"/><circle cx="745" cy="146" r="3" fill="#1F78B4" stroke="none" opacity="1"/><circle cx="753" cy="141" r="3" fill="#1F78B4" stroke="none" opacity="1"/><circle cx="762" cy="137" r="3" fill="#1F78B4" stroke="none" opacity="1"/><circle cx="770" cy="133" r="3" fill="#1F78B4" stroke="none" opacity="1"/><circle cx="779" cy="128" r="3" fill="#1F78B4" stroke="none" opacity="1"/><circle cx="787" cy="124" r="3" fill="#1F78B4" stroke="none" opacity="1"/><circle cx="796" cy="120" r="3" fill="#1F78B4" stroke="none" opacity="1"/><circle cx="804" cy="116" r="3" fill="#1F78B4" stroke="none" opacity="1"/><circle cx="813" cy="112" r="3" fill="#1F78B4" stroke="none" opacity="1"/><circle cx="821" cy="107" r="3" fill="#1F78B4" stroke="none" opacity="1"/><circle cx="830" cy="103" r="3" fill="#1F78B4" stroke="none" opacity="1"/><circle cx="839" cy="98" r="3" fill="#1F78B4" stroke="none" opacity="1"/><circle cx="847" cy="95" r="3" fill="#1F78B4" stroke="none" opacity="1"/><circle cx="856" cy="90" r="3" fill="#1F78B4" stroke="none" opacity="1"/><circle cx="864" cy="86" r="3" fill="#1F78B4" stroke="none" opacity="1"/><circle cx="873" cy="82" r="3" fill="#1F78B4" stroke="none" opacity="1"/><circle cx="881" cy="78" r="3" fill="#1F78B4" stroke="none" opacity="1"/><circle cx="890" cy="72" r="3" fill="#1F78B4" stroke="none" opacity="1"/><circle cx="898" cy="67" r="3" fill="#1F78B4" stroke="none" opacity="1"/><circle cx="907" cy="61" r="3" fill="#1F78B4" stroke="none" opacity="1"/><circle cx="915" cy="61" r="3" fill="#1F78B4" stroke="none" opacity="1"/><circle cx="924" cy="56" r="3" fill="#1F78B4" stroke="none" opacity="1"/><circle cx="933" cy="53" r="3" fill="#1F78B4" stroke="none" opacity="1"/><polyline fill="none" stroke="#1F78B4" stroke-width="1" points="87 473 933 53" opacity="1"/><polygon fill="#1F78B4" points="87 473 933 53 933 53" opacity=".25"/><text x="132" y="68" fill="#000" dy=".76em" font-family="sans-serif" font-size="9.677" opacity="1" text-anchor="start">Sample</text><text x="132" y="83" fill="#000" dy=".76em" font-family="sans-serif" font-size="9.677" opacity="1" text-anchor="start">Linear regression</text><text x="132" y="98" fill="#000" dy=".76em" font-family="sans-serif" font-size="9.677" opacity="1" text-anchor="start">Confidence interval</text><circle cx="112" cy="73" r="3" fill="#1F78B4" stroke="none" opacity="1"/><polyline fill="none" stroke="#1F78B4" stroke-width="2" points="102 88 122 88" opacity="1"/><rect width="20" height="10" x="102" y="98" fill="#1F78B4" stroke="none" opacity=".25"/></svg>