<svg xmlns="http://www.w3.org/2000/svg" width="960" height="540"><text x="480" y="32" fill="#000" dy=".76em" font-family="sans-serif" font-size="16.129" opacity="1" text-anchor="middle">bench_group/threads_01/65536:SD</text><text x="27" y="263" fill="#000" dy=".76em" font-family="sans-serif" font-size="9.677" opacity="1" text-anchor="middle" transform="rotate(270, 27, 263)">Density (a.u.)</text><text x="510" y="513" fill="#000" dy="-.5ex" font-family="sans-serif" font-size="9.677" opacity="1" text-anchor="middle">Average time (ns)</text><polyline fill="none" stroke="#000" stroke-width="1" points="86 53 86 473" opacity="1"/><text x="77" y="434" fill="#000" dy=".5ex" font-family="sans-serif" font-size="9.677" opacity="1" text-anchor="end">0.002</text><polyline fill="none" stroke="#000" stroke-width="1" points="81 434 86 434" opacity="1"/><text x="77" y="375" fill="#000" dy=".5ex" font-family="sans-serif" font-size="9.677" opacity="1" text-anchor="end">0.004</text><polyline fill="none" stroke="#000" stroke-width="1" points="81 375 86 375" opacity="1"/><text x="77" y="317" fill="#000" dy=".5ex" font-family="sans-serif" font-size="9.677" opacity="1" text-anchor="end">0.006</text><polyline fill="none" stroke="#000" stroke-width="1" points="81 317 86 317" opacity="1"/><text x="77" y="259" fill="#000" dy=".5ex" font-family="sans-serif" font-size="9.677" opacity="1" text-anchor="end">0.008</text><polyline fill="none" stroke="#000" stroke-width="1" points="81 259 86 259" opacity="1"/><text x="77" y="200" fill="#000" dy=".5ex" font-family="sans-serif" font-size="9.677" opacity="1" text-anchor="end">0.01</text><polyline fill="none" stroke="#000" stroke-width="1" points="81 200 86 200" opacity="1"/><text x="77" y="142" fill="#000" dy=".5ex" font-family="sans-serif" font-size="9.677" opacity="1" text-anchor="end">0.012</text><polyline fill="none" stroke="#000" stroke-width="1" points="81 142 86 142" opacity="1"/><text x="77" y="84" fill="#000" dy=".5ex" font-family="sans-serif" font-size="9.677" opacity="1" text-anchor="end">0.014</text><polyline fill="none" stroke="#000" stroke-width="1" points="81 84 86 84" opacity="1"/><polyline fill="none" stroke="#000" stroke-width="1" points="87 473 933 473" opacity="1"/><text x="103" y="483" fill="#000" dy=".76em" font-family="sans-serif" font-size="9.677" opacity="1" text-anchor="middle">40</text><polyline fill="none" stroke="#000" stroke-width="1" points="103 473 103 478" opacity="1"/><text x="220" y="483" fill="#000" dy=".76em" font-family="sans-serif" font-size="9.677" opacity="1" text-anchor="middle">60</text><polyline fill="none" stroke="#000" stroke-width="1" points="220 473 220 478" opacity="1"/><text x="337" y="483" fill="#000" dy=".76em" font-family="sans-serif" font-size="9.677" opacity="1" text-anchor="middle">80</text><polyline fill="none" stroke="#000" stroke-width="1" points="337 473 337 478" opacity="1"/><text x="454" y="483" fill="#000" dy=".76em" font-family="sans-serif" font-size="9.677" opacity="1" text-anchor="middle">100</text><polyline fill="none" stroke="#000" stroke-width="1" points="454 473 454 478" opacity="1"/><text x="571" y="483" fill="#000" dy=".76em" font-family="sans-serif" font-size="9.677" opacity="1" text-anchor="middle">120</text><polyline fill="none" stroke="#000" stroke-width="1" points="571 473 571 478" opacity="1"/><text x="689" y="483" fill="#000" dy=".76em" font-family="sans-serif" font-size="9.677" opacity="1" text-anchor="middle">140</text><polyline fill="none" stroke="#000" stroke-width="1" points="689 473 689 478" opacity="1"/><text x="806" y="483" fill="#000" dy=".76em" font-family="sans-serif" font-size="9.677" opacity="1" text-anchor="middle">160</text><polyline fill="none" stroke="#000" stroke-width="1" points="806 473 806 478" opacity="1"/><text x="923" y="483" fill="#000" dy=".76em" font-family="sans-serif" font-size="9.677" opacity="1" text-anchor="middle">180</text><polyline fill="none" stroke="#000" stroke-width="1" points="923 473 923 478" opacity="1"/><polyline fill="none" stroke="#1F78B4" stroke-width="1" points="87 466 88 465 90 465 92 464 93 464 95 463 97 463 98 462 100 461 102 461 103 460 105 460 107 459 109 458 110 457 112 456 114 456 115 455 117 453 119 452 120 451 122 450 124 449 125 447 127 446 129 445 131 443 132 442 134 441 136 439 137 438 139 437 141 436 142 435 144 433 146 432 148 431 149 431 151 430 153 429 154 428 156 428 158 427 159 427 161 427 163 426 164 426 166 426 168 426 170 426 171 426 173 426 175 426 176 427 178 427 180 427 181 427 183 427 185 427 187 427 188 427 190 428 192 428 193 427 195 427 197 427 198 427 200 427 202 427 203 426 205 426 207 426 209 425 210 425 212 425 214 424 215 424 217 423 219 422 220 422 222 421 224 420 226 420 227 419 229 418 231 417 232 417 234 416 236 415 237 414 239 413 241 413 242 412 244 411 246 411 248 410 249 410 251 409 253 409 254 409 256 409 258 408 259 408 261 408 263 408 265 408 266 408 268 407 270 407 271 407 273 406 275 406 276 405 278 405 280 404 281 403 283 402 285 401 287 400 288 399 290 397 292 396 293 395 295 393 297 392 298 390 300 388 302 386 304 384 305 381 307 379 309 376 310 373 312 370 314 366 315 363 317 359 319 355 320 350 322 346 324 341 326 336 327 331 329 326 331 321 332 316 334 311 336 306 337 302 339 297 341 293 343 289 344 286 346 283 348 280 349 277 351 275 353 273 354 271 356 270 358 268 359 267 361 267 363 266 365 265 366 264 368 264 370 263 371 262 373 261 375 260 376 258 378 257 380 255 381 254 383 252 385 250 387 247 388 245 390 242 392 240 393 238 395 235 397 233 398 230 400 228 402 226 404 224 405 222 407 221 409 220 410 218 412 218 414 217 415 217 417 217 419 217 420 217 422 218 424 219 426 219 427 220 429 221 431 222 432 223 434 224 436 225 437 226 439 227 441 227 443 227 444 227 446 227 448 227 449 226 451 225 453 223 454 221 456 219 458 217 459 214 461 211 463 207 465 204 466 199 468 195 470 190 471 185 473 180 475 175 476 170 478 164 480 159 482 153 483 148 485 143 487 137 488 133 490 128 492 124 493 119 495 116 497 112 498 109 500 107 502 104 504 102 505 101 507 99 509 98 510 98 512 97 514 97 515 96 517 96 519 96 521 96 522 96 524 96 526 96 527 96 529 96 531 96 532 96 534 95 536 95 537 94 539 94 541 93 543 93 544 92 546 92 548 92 549 92 551 92 553 92 554 92 556 93 558 93 560 94 561 95 563 96 565 98 566 99 568 101 570 102 571 104 573 105 575 107 576 108 578 110 580 111 582 112 583 113 585 113 587 114 588 114 590 114 592 114 593 114 595 114 597 113 599 113 600 112 602 112 604 111 605 111 607 110 609 110 610 109 612 109 614 108 615 108 617 108 619 108 621 108 622 108 624 108 626 108 627 108 629 108 631 109 632 109 634 110 636 111 638 112 639 113 641 114 643 116 644 118 646 120 648 122 649 125 651 127 653 130 654 134 656 137 658 140 660 144 661 148 663 152 665 156 666 160 668 163 670 167 671 171 673 174 675 178 676 181 678 184 680 186 682 189 683 191 685 192 687 194 688 195 690 196 692 197 693 197 695 197 697 197 699 197 700 197 702 197 704 197 705 198 707 198 709 198 710 199 712 200 714 201 715 202 717 204 719 206 721 208 722 211 724 214 726 217 727 220 729 224 731 228 732 232 734 236 736 240 738 244 739 248 741 252 743 256 744 260 746 264 748 267 749 271 751 275 753 278 754 282 756 285 758 288 760 292 761 295 763 298 765 301 766 304 768 307 770 310 771 313 773 316 775 318 777 321 778 324 780 327 782 329 783 332 785 335 787 337 788 340 790 343 792 345 793 348 795 351 797 353 799 356 800 358 802 361 804 363 805 365 807 368 809 370 810 372 812 374 814 376 816 377 817 379 819 380 821 382 822 383 824 384 826 386 827 387 829 388 831 389 832 389 834 390 836 391 838 392 839 393 841 394 843 395 844 396 846 397 848 399 849 400 851 402 853 403 855 405 856 407 858 409 860 411 861 413 863 415 865 418 866 420 868 423 870 425 871 427 873 430 875 432 877 434 878 436 880 439 882 440 883 442 885 444 887 446 888 447 890 448 892 450 894 451 895 452 897 453 899 454 900 455 902 455 904 456 905 457 907 458 909 458 910 459 912 460 914 461 916 462 917 463 919 464 921 464 922 465 924 466 926 467 927 468 929 469 931 470 933 472" opacity="1"/><polygon fill="#1F78B4" points="164 426 166 426 168 426 170 426 171 426 173 426 175 426 176 427 178 427 180 427 181 427 183 427 185 427 187 427 188 427 190 428 192 428 193 427 195 427 197 427 198 427 200 427 202 427 203 426 205 426 207 426 209 425 210 425 212 425 214 424 215 424 217 423 219 422 220 422 222 421 224 420 226 420 227 419 229 418 231 417 232 417 234 416 236 415 237 414 239 413 241 413 242 412 244 411 246 411 248 410 249 410 251 409 253 409 254 409 256 409 258 408 259 408 261 408 263 408 265 408 266 408 268 407 270 407 271 407 273 406 275 406 276 405 278 405 280 404 281 403 283 402 285 401 287 400 288 399 290 397 292 396 293 395 295 393 297 392 298 390 300 388 302 386 304 384 305 381 307 379 309 376 310 373 312 370 314 366 315 363 317 359 319 355 320 350 322 346 324 341 326 336 327 331 329 326 331 321 332 316 334 311 336 306 337 302 339 297 341 293 343 289 344 286 346 283 348 280 349 277 351 275 353 273 354 271 356 270 358 268 359 267 361 267 363 266 365 265 366 264 368 264 370 263 371 262 373 261 375 260 376 258 378 257 380 255 381 254 383 252 385 250 387 247 388 245 390 242 392 240 393 238 395 235 397 233 398 230 400 228 402 226 404 224 405 222 407 221 409 220 410 218 412 218 414 217 415 217 417 217 419 217 420 217 422 218 424 219 426 219 427 220 429 221 431 222 432 223 434 224 436 225 437 226 439 227 441 227 443 227 444 227 446 227 448 227 449 226 451 225 453 223 454 221 456 219 458 217 459 214 461 211 463 207 465 204 466 199 468 195 470 190 471 185 473 180 475 175 476 170 478 164 480 159 482 153 483 148 485 143 487 137 488 133 490 128 492 124 493 119 495 116 497 112 498 109 500 107 502 104 504 102 505 101 507 99 509 98 510 98 512 97 514 97 515 96 517 96 519 96 521 96 522 96 524 96 526 96 527 96 529 96 531 96 532 96 534 95 536 95 537 94 539 94 541 93 543 93 544 92 546 92 548 92 549 92 551 92 553 92 554 92 556 93 558 93 560 94 561 95 563 96 565 98 566 99 568 101 570 102 571 104 573 105 575 107 576 108 578 110 580 111 582 112 583 113 585 113 587 114 588 114 590 114 592 114 593 114 595 114 597 113 599 113 600 112 602 112 604 111 605 111 607 110 609 110 610 109 612 109 614 108 615 108 617 108 619 108 621 108 622 108 624 108 626 108 627 108 629 108 631 109 632 109 634 110 636 111 638 112 639 113 641 114 643 116 644 118 646 120 648 122 649 125 651 127 653 130 654 134 656 137 658 140 660 144 661 148 663 152 665 156 666 160 668 163 670 167 671 171 673 174 675 178 676 181 678 184 680 186 682 189 683 191 685 192 687 194 688 195 690 196 692 197 693 197 695 197 697 197 699 197 700 197 702 197 704 197 705 198 707 198 709 198 710 199 712 200 714 201 715 202 717 204 719 206 721 208 722 211 724 214 726 217 727 220 729 224 731 228 732 232 734 236 736 240 738 244 739 248 741 252 743 256 744 260 746 264 748 267 749 271 751 275 753 278 754 282 756 285 758 288 760 292 761 295 763 298 765 301 766 304 768 307 770 310 771 313 773 316 775 318 777 321 778 324 780 327 782 329 783 332 785 335 787 337 788 340 790 343 792 345 793 348 795 351 797 353 799 356 800 358 802 361 804 363 805 365 807 368 809 370 810 372 812 374 814 376 816 377 817 379 819 380 821 382 822 383 824 384 826 386 827 387 829 388 831 389 832 389 834 390 836 391 838 392 839 393 841 394 843 395 844 396 846 397 848 399 849 400 851 402 853 403 853 473 164 473" opacity=".25"/><polyline fill="none" stroke="#1F78B4" stroke-width="3" points="566 473 566 99" opacity="1"/><text x="798" y="68" fill="#000" dy=".76em" font-family="sans-serif" font-size="9.677" opacity="1" text-anchor="start">Bootstrap distribution</text><text x="798" y="83" fill="#000" dy=".76em" font-family="sans-serif" font-size="9.677" opacity="1" text-anchor="start">Confidence interval</text><text x="798" y="98" fill="#000" dy=".76em" font-family="sans-serif" font-size="9.677" opacity="1" text-anchor="start">Point estimate</text><polyline fill="none" stroke="#1F78B4" stroke-width="1" points="768 73 788 73" opacity="1"/><rect width="20" height="10" x="768" y="83" fill="#1F78B4" stroke="none" opacity=".25"/><polyline fill="none" stroke="#1F78B4" stroke-width="1" points="768 103 788 103" opacity="1"/></svg>